solid 
 facet normal  9.927089e-01  3.526810e-13  1.205367e-01
   outer loop
     vertex  3.758000e+02  5.150000e+02 -2.608413e+02
     vertex  3.759221e+02  5.158000e+02 -2.618464e+02
     vertex  3.758000e+02  5.158000e+02 -2.608413e+02
   endloop
 endfacet
 facet normal  9.350162e-01  3.321845e-13  3.546049e-01
   outer loop
     vertex  3.759221e+02  5.150000e+02 -2.618464e+02
     vertex  3.762811e+02  5.158000e+02 -2.627931e+02
     vertex  3.759221e+02  5.158000e+02 -2.618464e+02
   endloop
 endfacet
 facet normal  9.927089e-01  3.526810e-13  1.205367e-01
   outer loop
     vertex  3.759221e+02  5.150000e+02 -2.618464e+02
     vertex  3.759221e+02  5.158000e+02 -2.618464e+02
     vertex  3.758000e+02  5.150000e+02 -2.608413e+02
   endloop
 endfacet
 facet normal  8.229839e-01  2.923826e-13  5.680647e-01
   outer loop
     vertex  3.762811e+02  5.150000e+02 -2.627931e+02
     vertex  3.768563e+02  5.158000e+02 -2.636264e+02
     vertex  3.762811e+02  5.158000e+02 -2.627931e+02
   endloop
 endfacet
 facet normal  9.350162e-01  3.321845e-13  3.546049e-01
   outer loop
     vertex  3.762811e+02  5.150000e+02 -2.627931e+02
     vertex  3.762811e+02  5.158000e+02 -2.627931e+02
     vertex  3.759221e+02  5.150000e+02 -2.618464e+02
   endloop
 endfacet
 facet normal  6.631227e-01  2.295213e-13  7.485107e-01
   outer loop
     vertex  3.768563e+02  5.150000e+02 -2.636264e+02
     vertex  3.776142e+02  5.158000e+02 -2.642978e+02
     vertex  3.768563e+02  5.158000e+02 -2.636264e+02
   endloop
 endfacet
 facet normal  8.229839e-01  3.104957e-13  5.680647e-01
   outer loop
     vertex  3.768563e+02  5.150000e+02 -2.636264e+02
     vertex  3.768563e+02  5.158000e+02 -2.636264e+02
     vertex  3.762811e+02  5.150000e+02 -2.627931e+02
   endloop
 endfacet
 facet normal  4.647232e-01  1.651028e-13  8.854560e-01
   outer loop
     vertex  3.776142e+02  5.150000e+02 -2.642978e+02
     vertex  3.785107e+02  5.158000e+02 -2.647684e+02
     vertex  3.776142e+02  5.158000e+02 -2.642978e+02
   endloop
 endfacet
 facet normal  6.631227e-01  2.355885e-13  7.485107e-01
   outer loop
     vertex  3.776142e+02  5.150000e+02 -2.642978e+02
     vertex  3.776142e+02  5.158000e+02 -2.642978e+02
     vertex  3.768563e+02  5.150000e+02 -2.636264e+02
   endloop
 endfacet
 facet normal  2.393157e-01  1.880204e-13  9.709418e-01
   outer loop
     vertex  3.785107e+02  5.150000e+02 -2.647684e+02
     vertex  3.794938e+02  5.158000e+02 -2.650107e+02
     vertex  3.785107e+02  5.158000e+02 -2.647684e+02
   endloop
 endfacet
 facet normal  4.647232e-01  2.940594e-13  8.854560e-01
   outer loop
     vertex  3.785107e+02  5.150000e+02 -2.647684e+02
     vertex  3.785107e+02  5.158000e+02 -2.647684e+02
     vertex  3.776142e+02  5.150000e+02 -2.642978e+02
   endloop
 endfacet
 facet normal  0.000000e+00 -0.000000e+00  1.000000e+00
   outer loop
     vertex  3.794938e+02  5.150000e+02 -2.650107e+02
     vertex  3.805063e+02  5.158000e+02 -2.650107e+02
     vertex  3.794938e+02  5.158000e+02 -2.650107e+02
   endloop
 endfacet
 facet normal  2.393157e-01  8.502200e-14  9.709418e-01
   outer loop
     vertex  3.794938e+02  5.150000e+02 -2.650107e+02
     vertex  3.794938e+02  5.158000e+02 -2.650107e+02
     vertex  3.785107e+02  5.150000e+02 -2.647684e+02
   endloop
 endfacet
 facet normal -2.393157e-01 -8.502200e-14  9.709418e-01
   outer loop
     vertex  3.805063e+02  5.150000e+02 -2.650107e+02
     vertex  3.814894e+02  5.158000e+02 -2.647684e+02
     vertex  3.805063e+02  5.158000e+02 -2.650107e+02
   endloop
 endfacet
 facet normal  0.000000e+00  0.000000e+00  1.000000e+00
   outer loop
     vertex  3.805063e+02  5.150000e+02 -2.650107e+02
     vertex  3.805063e+02  5.158000e+02 -2.650107e+02
     vertex  3.794938e+02  5.150000e+02 -2.650107e+02
   endloop
 endfacet
 facet normal -4.647232e-01 -2.342697e-13  8.854560e-01
   outer loop
     vertex  3.814894e+02  5.150000e+02 -2.647684e+02
     vertex  3.823859e+02  5.158000e+02 -2.642978e+02
     vertex  3.814894e+02  5.158000e+02 -2.647684e+02
   endloop
 endfacet
 facet normal -2.393157e-01 -8.405004e-14  9.709418e-01
   outer loop
     vertex  3.814894e+02  5.150000e+02 -2.647684e+02
     vertex  3.814894e+02  5.158000e+02 -2.647684e+02
     vertex  3.805063e+02  5.150000e+02 -2.650107e+02
   endloop
 endfacet
 facet normal -6.631227e-01 -2.355885e-13  7.485107e-01
   outer loop
     vertex  3.823859e+02  5.150000e+02 -2.642978e+02
     vertex  3.831438e+02  5.158000e+02 -2.636264e+02
     vertex  3.823859e+02  5.158000e+02 -2.642978e+02
   endloop
 endfacet
 facet normal -4.647232e-01 -1.651028e-13  8.854560e-01
   outer loop
     vertex  3.823859e+02  5.150000e+02 -2.642978e+02
     vertex  3.823859e+02  5.158000e+02 -2.642978e+02
     vertex  3.814894e+02  5.150000e+02 -2.647684e+02
   endloop
 endfacet
 facet normal -8.229839e-01 -2.701323e-13  5.680647e-01
   outer loop
     vertex  3.831438e+02  5.150000e+02 -2.636264e+02
     vertex  3.837190e+02  5.158000e+02 -2.627931e+02
     vertex  3.831438e+02  5.158000e+02 -2.636264e+02
   endloop
 endfacet
 facet normal -6.631227e-01 -1.763364e-13  7.485107e-01
   outer loop
     vertex  3.831438e+02  5.150000e+02 -2.636264e+02
     vertex  3.831438e+02  5.158000e+02 -2.636264e+02
     vertex  3.823859e+02  5.150000e+02 -2.642978e+02
   endloop
 endfacet
 facet normal -8.229839e-01 -2.923826e-13  5.680647e-01
   outer loop
     vertex  3.837190e+02  5.150000e+02 -2.627931e+02
     vertex  3.837190e+02  5.158000e+02 -2.627931e+02
     vertex  3.831438e+02  5.150000e+02 -2.636264e+02
   endloop
 endfacet
 facet normal -9.350162e-01 -3.321845e-13  3.546049e-01
   outer loop
     vertex  3.837190e+02  5.150000e+02 -2.627931e+02
     vertex  3.840780e+02  5.158000e+02 -2.618464e+02
     vertex  3.837190e+02  5.158000e+02 -2.627931e+02
   endloop
 endfacet
 facet normal -9.350162e-01 -4.398621e-13  3.546049e-01
   outer loop
     vertex  3.840780e+02  5.150000e+02 -2.618464e+02
     vertex  3.840780e+02  5.158000e+02 -2.618464e+02
     vertex  3.837190e+02  5.150000e+02 -2.627931e+02
   endloop
 endfacet
 facet normal -9.927089e-01 -4.851888e-13  1.205367e-01
   outer loop
     vertex  3.840780e+02  5.150000e+02 -2.618464e+02
     vertex  3.842000e+02  5.158000e+02 -2.608413e+02
     vertex  3.840780e+02  5.158000e+02 -2.618464e+02
   endloop
 endfacet
 facet normal -9.927089e-01 -3.526810e-13  1.205367e-01
   outer loop
     vertex  3.842000e+02  5.150000e+02 -2.608413e+02
     vertex  3.842000e+02  5.158000e+02 -2.608413e+02
     vertex  3.840780e+02  5.150000e+02 -2.618464e+02
   endloop
 endfacet
 facet normal -9.927089e-01 -3.526810e-13 -1.205367e-01
   outer loop
     vertex  3.842000e+02  5.150000e+02 -2.608413e+02
     vertex  3.840780e+02  5.158000e+02 -2.598362e+02
     vertex  3.842000e+02  5.158000e+02 -2.608413e+02
   endloop
 endfacet
 facet normal -9.927089e-01 -2.907095e-13 -1.205367e-01
   outer loop
     vertex  3.840780e+02  5.150000e+02 -2.598362e+02
     vertex  3.840780e+02  5.158000e+02 -2.598362e+02
     vertex  3.842000e+02  5.150000e+02 -2.608413e+02
   endloop
 endfacet
 facet normal -9.350162e-01 -2.909379e-13 -3.546049e-01
   outer loop
     vertex  3.837190e+02  5.150000e+02 -2.588895e+02
     vertex  3.840780e+02  5.158000e+02 -2.598362e+02
     vertex  3.840780e+02  5.150000e+02 -2.598362e+02
   endloop
 endfacet
 facet normal -9.350162e-01 -1.993107e-13 -3.546049e-01
   outer loop
     vertex  3.837190e+02  5.150000e+02 -2.588895e+02
     vertex  3.837190e+02  5.158000e+02 -2.588895e+02
     vertex  3.840780e+02  5.158000e+02 -2.598362e+02
   endloop
 endfacet
 facet normal -8.229839e-01 -1.754296e-13 -5.680647e-01
   outer loop
     vertex  3.837190e+02  5.150000e+02 -2.588895e+02
     vertex  3.831438e+02  5.158000e+02 -2.580562e+02
     vertex  3.837190e+02  5.158000e+02 -2.588895e+02
   endloop
 endfacet
 facet normal -8.229839e-01 -2.923826e-13 -5.680647e-01
   outer loop
     vertex  3.831438e+02  5.150000e+02 -2.580562e+02
     vertex  3.831438e+02  5.158000e+02 -2.580562e+02
     vertex  3.837190e+02  5.150000e+02 -2.588895e+02
   endloop
 endfacet
 facet normal -6.631227e-01 -2.355885e-13 -7.485107e-01
   outer loop
     vertex  3.831438e+02  5.150000e+02 -2.580562e+02
     vertex  3.823859e+02  5.158000e+02 -2.573848e+02
     vertex  3.831438e+02  5.158000e+02 -2.580562e+02
   endloop
 endfacet
 facet normal -6.631227e-01 -2.355885e-13 -7.485107e-01
   outer loop
     vertex  3.823859e+02  5.150000e+02 -2.573848e+02
     vertex  3.823859e+02  5.158000e+02 -2.573848e+02
     vertex  3.831438e+02  5.150000e+02 -2.580562e+02
   endloop
 endfacet
 facet normal -4.647232e-01 -1.651028e-13 -8.854560e-01
   outer loop
     vertex  3.823859e+02  5.150000e+02 -2.573848e+02
     vertex  3.814894e+02  5.158000e+02 -2.569142e+02
     vertex  3.823859e+02  5.158000e+02 -2.573848e+02
   endloop
 endfacet
 facet normal -4.647232e-01 -1.651028e-13 -8.854560e-01
   outer loop
     vertex  3.814894e+02  5.150000e+02 -2.569142e+02
     vertex  3.814894e+02  5.158000e+02 -2.569142e+02
     vertex  3.823859e+02  5.150000e+02 -2.573848e+02
   endloop
 endfacet
 facet normal -2.393157e-01 -8.502200e-14 -9.709418e-01
   outer loop
     vertex  3.814894e+02  5.150000e+02 -2.569142e+02
     vertex  3.805063e+02  5.158000e+02 -2.566719e+02
     vertex  3.814894e+02  5.158000e+02 -2.569142e+02
   endloop
 endfacet
 facet normal -2.393157e-01 -8.502200e-14 -9.709418e-01
   outer loop
     vertex  3.805063e+02  5.150000e+02 -2.566719e+02
     vertex  3.805063e+02  5.158000e+02 -2.566719e+02
     vertex  3.814894e+02  5.150000e+02 -2.569142e+02
   endloop
 endfacet
 facet normal  0.000000e+00  0.000000e+00 -1.000000e+00
   outer loop
     vertex  3.805063e+02  5.150000e+02 -2.566719e+02
     vertex  3.794938e+02  5.158000e+02 -2.566719e+02
     vertex  3.805063e+02  5.158000e+02 -2.566719e+02
   endloop
 endfacet
 facet normal  0.000000e+00  0.000000e+00 -1.000000e+00
   outer loop
     vertex  3.794938e+02  5.150000e+02 -2.566719e+02
     vertex  3.794938e+02  5.158000e+02 -2.566719e+02
     vertex  3.805063e+02  5.150000e+02 -2.566719e+02
   endloop
 endfacet
 facet normal  2.393157e-01  8.502200e-14 -9.709418e-01
   outer loop
     vertex  3.794938e+02  5.150000e+02 -2.566719e+02
     vertex  3.785107e+02  5.158000e+02 -2.569142e+02
     vertex  3.794938e+02  5.158000e+02 -2.566719e+02
   endloop
 endfacet
 facet normal  2.393157e-01  8.502200e-14 -9.709418e-01
   outer loop
     vertex  3.785107e+02  5.150000e+02 -2.569142e+02
     vertex  3.785107e+02  5.158000e+02 -2.569142e+02
     vertex  3.794938e+02  5.150000e+02 -2.566719e+02
   endloop
 endfacet
 facet normal  4.647232e-01  1.651330e-13 -8.854560e-01
   outer loop
     vertex  3.776142e+02  5.150000e+02 -2.573848e+02
     vertex  3.785107e+02  5.158000e+02 -2.569142e+02
     vertex  3.785107e+02  5.150000e+02 -2.569142e+02
   endloop
 endfacet
 facet normal  4.647232e-01  1.651028e-13 -8.854560e-01
   outer loop
     vertex  3.776142e+02  5.150000e+02 -2.573848e+02
     vertex  3.776142e+02  5.158000e+02 -2.573848e+02
     vertex  3.785107e+02  5.158000e+02 -2.569142e+02
   endloop
 endfacet
 facet normal  6.631227e-01  2.355885e-13 -7.485107e-01
   outer loop
     vertex  3.776142e+02  5.150000e+02 -2.573848e+02
     vertex  3.768563e+02  5.158000e+02 -2.580562e+02
     vertex  3.776142e+02  5.158000e+02 -2.573848e+02
   endloop
 endfacet
 facet normal  6.631227e-01  2.477229e-13 -7.485107e-01
   outer loop
     vertex  3.768563e+02  5.150000e+02 -2.580562e+02
     vertex  3.768563e+02  5.158000e+02 -2.580562e+02
     vertex  3.776142e+02  5.150000e+02 -2.573848e+02
   endloop
 endfacet
 facet normal  8.229839e-01  2.561564e-13 -5.680647e-01
   outer loop
     vertex  3.768563e+02  5.150000e+02 -2.580562e+02
     vertex  3.762811e+02  5.158000e+02 -2.588895e+02
     vertex  3.768563e+02  5.158000e+02 -2.580562e+02
   endloop
 endfacet
 facet normal  8.229839e-01  3.327460e-13 -5.680647e-01
   outer loop
     vertex  3.762811e+02  5.150000e+02 -2.588895e+02
     vertex  3.762811e+02  5.158000e+02 -2.588895e+02
     vertex  3.768563e+02  5.150000e+02 -2.580562e+02
   endloop
 endfacet
 facet normal  9.350162e-01  3.986214e-13 -3.546049e-01
   outer loop
     vertex  3.759221e+02  5.150000e+02 -2.598362e+02
     vertex  3.759221e+02  5.158000e+02 -2.598362e+02
     vertex  3.762811e+02  5.158000e+02 -2.588895e+02
   endloop
 endfacet
 facet normal  9.927089e-01  4.232172e-13 -1.205367e-01
   outer loop
     vertex  3.759221e+02  5.150000e+02 -2.598362e+02
     vertex  3.758000e+02  5.158000e+02 -2.608413e+02
     vertex  3.759221e+02  5.158000e+02 -2.598362e+02
   endloop
 endfacet
 facet normal  9.350162e-01  3.573779e-13 -3.546049e-01
   outer loop
     vertex  3.759221e+02  5.150000e+02 -2.598362e+02
     vertex  3.762811e+02  5.158000e+02 -2.588895e+02
     vertex  3.762811e+02  5.150000e+02 -2.588895e+02
   endloop
 endfacet
 facet normal  9.927089e-01  3.526810e-13 -1.205367e-01
   outer loop
     vertex  3.758000e+02  5.150000e+02 -2.608413e+02
     vertex  3.758000e+02  5.158000e+02 -2.608413e+02
     vertex  3.759221e+02  5.150000e+02 -2.598362e+02
   endloop
 endfacet
 facet normal -9.927089e-01 -3.526762e-13 -1.205367e-01
   outer loop
     vertex  3.736889e+02  5.150000e+02 -2.623969e+02
     vertex  3.735000e+02  5.150000e+02 -2.608413e+02
     vertex  3.735000e+02  5.158000e+02 -2.608413e+02
   endloop
 endfacet
 facet normal -9.927089e-01 -3.526810e-13 -1.205367e-01
   outer loop
     vertex  3.736889e+02  5.150000e+02 -2.623969e+02
     vertex  3.735000e+02  5.158000e+02 -2.608413e+02
     vertex  3.736889e+02  5.158000e+02 -2.623969e+02
   endloop
 endfacet
 facet normal -9.350162e-01 -3.321845e-13 -3.546049e-01
   outer loop
     vertex  3.742446e+02  5.150000e+02 -2.638620e+02
     vertex  3.736889e+02  5.158000e+02 -2.623969e+02
     vertex  3.742446e+02  5.158000e+02 -2.638620e+02
   endloop
 endfacet
 facet normal -9.350162e-01 -3.321998e-13 -3.546049e-01
   outer loop
     vertex  3.742446e+02  5.150000e+02 -2.638620e+02
     vertex  3.736889e+02  5.150000e+02 -2.623969e+02
     vertex  3.736889e+02  5.158000e+02 -2.623969e+02
   endloop
 endfacet
 facet normal -8.229839e-01 -2.923826e-13 -5.680647e-01
   outer loop
     vertex  3.751347e+02  5.150000e+02 -2.651516e+02
     vertex  3.742446e+02  5.158000e+02 -2.638620e+02
     vertex  3.751347e+02  5.158000e+02 -2.651516e+02
   endloop
 endfacet
 facet normal -8.229839e-01 -2.923847e-13 -5.680647e-01
   outer loop
     vertex  3.751347e+02  5.150000e+02 -2.651516e+02
     vertex  3.742446e+02  5.150000e+02 -2.638620e+02
     vertex  3.742446e+02  5.158000e+02 -2.638620e+02
   endloop
 endfacet
 facet normal -6.631227e-01 -2.355885e-13 -7.485107e-01
   outer loop
     vertex  3.763076e+02  5.150000e+02 -2.661907e+02
     vertex  3.751347e+02  5.158000e+02 -2.651516e+02
     vertex  3.763076e+02  5.158000e+02 -2.661907e+02
   endloop
 endfacet
 facet normal -6.631227e-01 -2.356094e-13 -7.485107e-01
   outer loop
     vertex  3.763076e+02  5.150000e+02 -2.661907e+02
     vertex  3.751347e+02  5.150000e+02 -2.651516e+02
     vertex  3.751347e+02  5.158000e+02 -2.651516e+02
   endloop
 endfacet
 facet normal -4.647232e-01 -1.651028e-13 -8.854560e-01
   outer loop
     vertex  3.776951e+02  5.150000e+02 -2.669189e+02
     vertex  3.763076e+02  5.158000e+02 -2.661907e+02
     vertex  3.776951e+02  5.158000e+02 -2.669189e+02
   endloop
 endfacet
 facet normal -4.647232e-01 -1.650342e-13 -8.854560e-01
   outer loop
     vertex  3.776951e+02  5.150000e+02 -2.669189e+02
     vertex  3.763076e+02  5.150000e+02 -2.661907e+02
     vertex  3.763076e+02  5.158000e+02 -2.661907e+02
   endloop
 endfacet
 facet normal -2.393157e-01 -1.020264e-13 -9.709418e-01
   outer loop
     vertex  3.792166e+02  5.150000e+02 -2.672939e+02
     vertex  3.776951e+02  5.158000e+02 -2.669189e+02
     vertex  3.792166e+02  5.158000e+02 -2.672939e+02
   endloop
 endfacet
 facet normal -2.393157e-01 -8.505705e-14 -9.709418e-01
   outer loop
     vertex  3.792166e+02  5.150000e+02 -2.672939e+02
     vertex  3.776951e+02  5.150000e+02 -2.669189e+02
     vertex  3.776951e+02  5.158000e+02 -2.669189e+02
   endloop
 endfacet
 facet normal  0.000000e+00  0.000000e+00 -1.000000e+00
   outer loop
     vertex  3.807835e+02  5.150000e+02 -2.672939e+02
     vertex  3.792166e+02  5.158000e+02 -2.672939e+02
     vertex  3.807835e+02  5.158000e+02 -2.672939e+02
   endloop
 endfacet
 facet normal -0.000000e+00  0.000000e+00 -1.000000e+00
   outer loop
     vertex  3.807835e+02  5.150000e+02 -2.672939e+02
     vertex  3.792166e+02  5.150000e+02 -2.672939e+02
     vertex  3.792166e+02  5.158000e+02 -2.672939e+02
   endloop
 endfacet
 facet normal  2.393157e-01  8.502200e-14 -9.709418e-01
   outer loop
     vertex  3.823050e+02  5.150000e+02 -2.669189e+02
     vertex  3.807835e+02  5.158000e+02 -2.672939e+02
     vertex  3.823050e+02  5.158000e+02 -2.669189e+02
   endloop
 endfacet
 facet normal  2.393157e-01  1.020575e-13 -9.709418e-01
   outer loop
     vertex  3.823050e+02  5.150000e+02 -2.669189e+02
     vertex  3.807835e+02  5.150000e+02 -2.672939e+02
     vertex  3.807835e+02  5.158000e+02 -2.672939e+02
   endloop
 endfacet
 facet normal  4.647232e-01  1.651028e-13 -8.854560e-01
   outer loop
     vertex  3.836925e+02  5.150000e+02 -2.661907e+02
     vertex  3.823050e+02  5.158000e+02 -2.669189e+02
     vertex  3.836925e+02  5.158000e+02 -2.661907e+02
   endloop
 endfacet
 facet normal  4.647232e-01  1.651040e-13 -8.854560e-01
   outer loop
     vertex  3.836925e+02  5.150000e+02 -2.661907e+02
     vertex  3.823050e+02  5.150000e+02 -2.669189e+02
     vertex  3.823050e+02  5.158000e+02 -2.669189e+02
   endloop
 endfacet
 facet normal  6.631227e-01  2.355885e-13 -7.485107e-01
   outer loop
     vertex  3.848654e+02  5.150000e+02 -2.651516e+02
     vertex  3.836925e+02  5.158000e+02 -2.661907e+02
     vertex  3.848654e+02  5.158000e+02 -2.651516e+02
   endloop
 endfacet
 facet normal  6.631227e-01  2.356526e-13 -7.485107e-01
   outer loop
     vertex  3.848654e+02  5.150000e+02 -2.651516e+02
     vertex  3.836925e+02  5.150000e+02 -2.661907e+02
     vertex  3.836925e+02  5.158000e+02 -2.661907e+02
   endloop
 endfacet
 facet normal  8.229839e-01  2.923411e-13 -5.680647e-01
   outer loop
     vertex  3.857555e+02  5.150000e+02 -2.638620e+02
     vertex  3.848654e+02  5.150000e+02 -2.651516e+02
     vertex  3.848654e+02  5.158000e+02 -2.651516e+02
   endloop
 endfacet
 facet normal  8.229839e-01  2.923826e-13 -5.680647e-01
   outer loop
     vertex  3.857555e+02  5.150000e+02 -2.638620e+02
     vertex  3.848654e+02  5.158000e+02 -2.651516e+02
     vertex  3.857555e+02  5.158000e+02 -2.638620e+02
   endloop
 endfacet
 facet normal  9.350162e-01  3.321445e-13 -3.546049e-01
   outer loop
     vertex  3.863112e+02  5.150000e+02 -2.623969e+02
     vertex  3.857555e+02  5.150000e+02 -2.638620e+02
     vertex  3.857555e+02  5.158000e+02 -2.638620e+02
   endloop
 endfacet
 facet normal  9.350162e-01  3.321845e-13 -3.546049e-01
   outer loop
     vertex  3.863112e+02  5.150000e+02 -2.623969e+02
     vertex  3.857555e+02  5.158000e+02 -2.638620e+02
     vertex  3.863112e+02  5.158000e+02 -2.623969e+02
   endloop
 endfacet
 facet normal  9.927089e-01  3.526840e-13 -1.205367e-01
   outer loop
     vertex  3.865000e+02  5.150000e+02 -2.608413e+02
     vertex  3.863112e+02  5.150000e+02 -2.623969e+02
     vertex  3.863112e+02  5.158000e+02 -2.623969e+02
   endloop
 endfacet
 facet normal  9.927089e-01  3.526810e-13 -1.205367e-01
   outer loop
     vertex  3.865000e+02  5.150000e+02 -2.608413e+02
     vertex  3.863112e+02  5.158000e+02 -2.623969e+02
     vertex  3.865000e+02  5.158000e+02 -2.608413e+02
   endloop
 endfacet
 facet normal  9.927089e-01  3.526700e-13  1.205367e-01
   outer loop
     vertex  3.863112e+02  5.150000e+02 -2.592857e+02
     vertex  3.865000e+02  5.150000e+02 -2.608413e+02
     vertex  3.865000e+02  5.158000e+02 -2.608413e+02
   endloop
 endfacet
 facet normal  9.927089e-01  3.441164e-13  1.205367e-01
   outer loop
     vertex  3.863112e+02  5.150000e+02 -2.592857e+02
     vertex  3.865000e+02  5.158000e+02 -2.608413e+02
     vertex  3.863112e+02  5.158000e+02 -2.592857e+02
   endloop
 endfacet
 facet normal  9.350162e-01  3.070145e-13  3.546049e-01
   outer loop
     vertex  3.857555e+02  5.150000e+02 -2.578206e+02
     vertex  3.863112e+02  5.150000e+02 -2.592857e+02
     vertex  3.863112e+02  5.158000e+02 -2.592857e+02
   endloop
 endfacet
 facet normal  9.350162e-01  3.986214e-13  3.546049e-01
   outer loop
     vertex  3.857555e+02  5.150000e+02 -2.578206e+02
     vertex  3.863112e+02  5.158000e+02 -2.592857e+02
     vertex  3.857555e+02  5.158000e+02 -2.578206e+02
   endloop
 endfacet
 facet normal  8.229839e-01  3.508328e-13  5.680647e-01
   outer loop
     vertex  3.848654e+02  5.150000e+02 -2.565310e+02
     vertex  3.857555e+02  5.150000e+02 -2.578206e+02
     vertex  3.857555e+02  5.158000e+02 -2.578206e+02
   endloop
 endfacet
 facet normal  8.229839e-01  2.923826e-13  5.680647e-01
   outer loop
     vertex  3.848654e+02  5.150000e+02 -2.565310e+02
     vertex  3.857555e+02  5.158000e+02 -2.578206e+02
     vertex  3.848654e+02  5.158000e+02 -2.565310e+02
   endloop
 endfacet
 facet normal  6.631227e-01  2.356140e-13  7.485107e-01
   outer loop
     vertex  3.836925e+02  5.150000e+02 -2.554919e+02
     vertex  3.848654e+02  5.150000e+02 -2.565310e+02
     vertex  3.848654e+02  5.158000e+02 -2.565310e+02
   endloop
 endfacet
 facet normal  6.631227e-01  2.355885e-13  7.485107e-01
   outer loop
     vertex  3.836925e+02  5.150000e+02 -2.554919e+02
     vertex  3.848654e+02  5.158000e+02 -2.565310e+02
     vertex  3.836925e+02  5.158000e+02 -2.554919e+02
   endloop
 endfacet
 facet normal  4.647232e-01  1.651366e-13  8.854560e-01
   outer loop
     vertex  3.823050e+02  5.150000e+02 -2.547637e+02
     vertex  3.836925e+02  5.150000e+02 -2.554919e+02
     vertex  3.836925e+02  5.158000e+02 -2.554919e+02
   endloop
 endfacet
 facet normal  2.393157e-01  8.502200e-14  9.709418e-01
   outer loop
     vertex  3.823050e+02  5.150000e+02 -2.547637e+02
     vertex  3.823050e+02  5.158000e+02 -2.547637e+02
     vertex  3.807835e+02  5.158000e+02 -2.543887e+02
   endloop
 endfacet
 facet normal  4.647232e-01  1.651028e-13  8.854560e-01
   outer loop
     vertex  3.823050e+02  5.150000e+02 -2.547637e+02
     vertex  3.836925e+02  5.158000e+02 -2.554919e+02
     vertex  3.823050e+02  5.158000e+02 -2.547637e+02
   endloop
 endfacet
 facet normal  2.393157e-01  1.603244e-14  9.709418e-01
   outer loop
     vertex  3.807835e+02  5.150000e+02 -2.543887e+02
     vertex  3.823050e+02  5.150000e+02 -2.547637e+02
     vertex  3.807835e+02  5.158000e+02 -2.543887e+02
   endloop
 endfacet
 facet normal -2.393157e-01 -8.502200e-14  9.709418e-01
   outer loop
     vertex  3.792166e+02  5.150000e+02 -2.543887e+02
     vertex  3.792166e+02  5.158000e+02 -2.543887e+02
     vertex  3.776951e+02  5.158000e+02 -2.547637e+02
   endloop
 endfacet
 facet normal -7.255170e-14 -2.577554e-26  1.000000e+00
   outer loop
     vertex  3.792166e+02  5.150000e+02 -2.543887e+02
     vertex  3.807835e+02  5.158000e+02 -2.543887e+02
     vertex  3.792166e+02  5.158000e+02 -2.543887e+02
   endloop
 endfacet
 facet normal -3.627585e-14 -7.105427e-14  1.000000e+00
   outer loop
     vertex  3.792166e+02  5.150000e+02 -2.543887e+02
     vertex  3.807835e+02  5.150000e+02 -2.543887e+02
     vertex  3.807835e+02  5.158000e+02 -2.543887e+02
   endloop
 endfacet
 facet normal -2.393157e-01 -8.502200e-14  9.709418e-01
   outer loop
     vertex  3.776951e+02  5.150000e+02 -2.547637e+02
     vertex  3.792166e+02  5.150000e+02 -2.543887e+02
     vertex  3.776951e+02  5.158000e+02 -2.547637e+02
   endloop
 endfacet
 facet normal -4.647232e-01 -1.651028e-13  8.854560e-01
   outer loop
     vertex  3.763076e+02  5.150000e+02 -2.554919e+02
     vertex  3.776951e+02  5.158000e+02 -2.547637e+02
     vertex  3.763076e+02  5.158000e+02 -2.554919e+02
   endloop
 endfacet
 facet normal -4.647232e-01 -1.651366e-13  8.854560e-01
   outer loop
     vertex  3.763076e+02  5.150000e+02 -2.554919e+02
     vertex  3.776951e+02  5.150000e+02 -2.547637e+02
     vertex  3.776951e+02  5.158000e+02 -2.547637e+02
   endloop
 endfacet
 facet normal -8.229839e-01 -2.923826e-13  5.680647e-01
   outer loop
     vertex  3.751347e+02  5.150000e+02 -2.565310e+02
     vertex  3.751347e+02  5.158000e+02 -2.565310e+02
     vertex  3.742446e+02  5.158000e+02 -2.578206e+02
   endloop
 endfacet
 facet normal -6.631227e-01 -2.355885e-13  7.485107e-01
   outer loop
     vertex  3.751347e+02  5.150000e+02 -2.565310e+02
     vertex  3.763076e+02  5.158000e+02 -2.554919e+02
     vertex  3.751347e+02  5.158000e+02 -2.565310e+02
   endloop
 endfacet
 facet normal -6.631227e-01 -2.356086e-13  7.485107e-01
   outer loop
     vertex  3.751347e+02  5.150000e+02 -2.565310e+02
     vertex  3.763076e+02  5.150000e+02 -2.554919e+02
     vertex  3.763076e+02  5.158000e+02 -2.554919e+02
   endloop
 endfacet
 facet normal -8.229839e-01 -3.508591e-13  5.680647e-01
   outer loop
     vertex  3.742446e+02  5.150000e+02 -2.578206e+02
     vertex  3.751347e+02  5.150000e+02 -2.565310e+02
     vertex  3.742446e+02  5.158000e+02 -2.578206e+02
   endloop
 endfacet
 facet normal -9.350162e-01 -3.321845e-13  3.546049e-01
   outer loop
     vertex  3.736889e+02  5.150000e+02 -2.592857e+02
     vertex  3.742446e+02  5.158000e+02 -2.578206e+02
     vertex  3.736889e+02  5.158000e+02 -2.592857e+02
   endloop
 endfacet
 facet normal -9.350162e-01 -3.986476e-13  3.546049e-01
   outer loop
     vertex  3.736889e+02  5.150000e+02 -2.592857e+02
     vertex  3.742446e+02  5.150000e+02 -2.578206e+02
     vertex  3.742446e+02  5.158000e+02 -2.578206e+02
   endloop
 endfacet
 facet normal -9.927089e-01 -3.526810e-13  1.205367e-01
   outer loop
     vertex  3.735000e+02  5.150000e+02 -2.608413e+02
     vertex  3.736889e+02  5.158000e+02 -2.592857e+02
     vertex  3.735000e+02  5.158000e+02 -2.608413e+02
   endloop
 endfacet
 facet normal -9.927089e-01 -3.526679e-13  1.205367e-01
   outer loop
     vertex  3.735000e+02  5.150000e+02 -2.608413e+02
     vertex  3.736889e+02  5.150000e+02 -2.592857e+02
     vertex  3.736889e+02  5.158000e+02 -2.592857e+02
   endloop
 endfacet
 facet normal  3.502826e-13 -1.000000e+00 -2.268808e-14
   outer loop
     vertex  3.831438e+02  5.150000e+02 -2.580562e+02
     vertex  3.857555e+02  5.150000e+02 -2.578206e+02
     vertex  3.848654e+02  5.150000e+02 -2.565310e+02
   endloop
 endfacet
 facet normal  3.726628e-13 -1.000000e+00 -1.698738e-14
   outer loop
     vertex  3.823859e+02  5.150000e+02 -2.573848e+02
     vertex  3.848654e+02  5.150000e+02 -2.565310e+02
     vertex  3.836925e+02  5.150000e+02 -2.554919e+02
   endloop
 endfacet
 facet normal  3.901029e-13 -1.000000e+00 -6.763597e-14
   outer loop
     vertex  3.823859e+02  5.150000e+02 -2.573848e+02
     vertex  3.831438e+02  5.150000e+02 -2.580562e+02
     vertex  3.848654e+02  5.150000e+02 -2.565310e+02
   endloop
 endfacet
 facet normal  3.472667e-13 -1.000000e+00 -2.348722e-14
   outer loop
     vertex  3.837190e+02  5.150000e+02 -2.588895e+02
     vertex  3.863112e+02  5.150000e+02 -2.592857e+02
     vertex  3.857555e+02  5.150000e+02 -2.578206e+02
   endloop
 endfacet
 facet normal  3.509955e-13 -1.000000e+00 -3.059186e-14
   outer loop
     vertex  3.837190e+02  5.150000e+02 -2.588895e+02
     vertex  3.857555e+02  5.150000e+02 -2.578206e+02
     vertex  3.831438e+02  5.150000e+02 -2.580562e+02
   endloop
 endfacet
 facet normal  3.427597e-13 -1.000000e+00  2.860156e-14
   outer loop
     vertex  3.814894e+02  5.150000e+02 -2.569142e+02
     vertex  3.836925e+02  5.150000e+02 -2.554919e+02
     vertex  3.823050e+02  5.150000e+02 -2.547637e+02
   endloop
 endfacet
 facet normal  3.718141e-13 -1.000000e+00 -1.640156e-14
   outer loop
     vertex  3.814894e+02  5.150000e+02 -2.569142e+02
     vertex  3.823859e+02  5.150000e+02 -2.573848e+02
     vertex  3.836925e+02  5.150000e+02 -2.554919e+02
   endloop
 endfacet
 facet normal  3.529633e-13 -1.000000e+00  1.377527e-14
   outer loop
     vertex  3.840780e+02  5.150000e+02 -2.598362e+02
     vertex  3.863112e+02  5.150000e+02 -2.592857e+02
     vertex  3.837190e+02  5.150000e+02 -2.588895e+02
   endloop
 endfacet
 facet normal  3.746745e-13 -1.000000e+00  4.298374e-15
   outer loop
     vertex  3.805063e+02  5.150000e+02 -2.566719e+02
     vertex  3.823050e+02  5.150000e+02 -2.547637e+02
     vertex  3.807835e+02  5.150000e+02 -2.543887e+02
   endloop
 endfacet
 facet normal  3.530189e-13 -1.000000e+00  2.471073e-14
   outer loop
     vertex  3.805063e+02  5.150000e+02 -2.566719e+02
     vertex  3.814894e+02  5.150000e+02 -2.569142e+02
     vertex  3.823050e+02  5.150000e+02 -2.547637e+02
   endloop
 endfacet
 facet normal  3.954325e-13 -1.000000e+00 -2.507038e-14
   outer loop
     vertex  3.842000e+02  5.150000e+02 -2.608413e+02
     vertex  3.865000e+02  5.150000e+02 -2.608413e+02
     vertex  3.863112e+02  5.150000e+02 -2.592857e+02
   endloop
 endfacet
 facet normal  3.460034e-13 -1.000000e+00  4.201242e-14
   outer loop
     vertex  3.842000e+02  5.150000e+02 -2.608413e+02
     vertex  3.863112e+02  5.150000e+02 -2.592857e+02
     vertex  3.840780e+02  5.150000e+02 -2.598362e+02
   endloop
 endfacet
 facet normal  3.627585e-13 -1.000000e+00 -5.745242e-15
   outer loop
     vertex  3.794938e+02  5.150000e+02 -2.566719e+02
     vertex  3.807835e+02  5.150000e+02 -2.543887e+02
     vertex  3.792166e+02  5.150000e+02 -2.543887e+02
   endloop
 endfacet
 facet normal  3.368472e-13 -1.000000e+00  8.891446e-15
   outer loop
     vertex  3.794938e+02  5.150000e+02 -2.566719e+02
     vertex  3.805063e+02  5.150000e+02 -2.566719e+02
     vertex  3.807835e+02  5.150000e+02 -2.543887e+02
   endloop
 endfacet
 facet normal  3.634937e-13 -1.000000e+00  2.894845e-14
   outer loop
     vertex  3.840780e+02  5.150000e+02 -2.618464e+02
     vertex  3.863112e+02  5.150000e+02 -2.623969e+02
     vertex  3.865000e+02  5.150000e+02 -2.608413e+02
   endloop
 endfacet
 facet normal  3.954325e-13 -1.000000e+00 -4.801420e-14
   outer loop
     vertex  3.840780e+02  5.150000e+02 -2.618464e+02
     vertex  3.865000e+02  5.150000e+02 -2.608413e+02
     vertex  3.842000e+02  5.150000e+02 -2.608413e+02
   endloop
 endfacet
 facet normal  3.774244e-13 -1.000000e+00 -1.545497e-14
   outer loop
     vertex  3.785107e+02  5.150000e+02 -2.569142e+02
     vertex  3.792166e+02  5.150000e+02 -2.543887e+02
     vertex  3.776951e+02  5.150000e+02 -2.547637e+02
   endloop
 endfacet
 facet normal  3.487632e-13 -1.000000e+00 -7.444579e-15
   outer loop
     vertex  3.785107e+02  5.150000e+02 -2.569142e+02
     vertex  3.794938e+02  5.150000e+02 -2.566719e+02
     vertex  3.792166e+02  5.150000e+02 -2.543887e+02
   endloop
 endfacet
 facet normal  3.472667e-13 -1.000000e+00  2.348722e-14
   outer loop
     vertex  3.837190e+02  5.150000e+02 -2.627931e+02
     vertex  3.857555e+02  5.150000e+02 -2.638620e+02
     vertex  3.863112e+02  5.150000e+02 -2.623969e+02
   endloop
 endfacet
 facet normal  3.529633e-13 -1.000000e+00 -1.377527e-14
   outer loop
     vertex  3.837190e+02  5.150000e+02 -2.627931e+02
     vertex  3.863112e+02  5.150000e+02 -2.623969e+02
     vertex  3.840780e+02  5.150000e+02 -2.618464e+02
   endloop
 endfacet
 facet normal  3.427597e-13 -1.000000e+00 -2.860156e-14
   outer loop
     vertex  3.763076e+02  5.150000e+02 -2.554919e+02
     vertex  3.785107e+02  5.150000e+02 -2.569142e+02
     vertex  3.776951e+02  5.150000e+02 -2.547637e+02
   endloop
 endfacet
 facet normal  3.718141e-13 -1.000000e+00  1.640156e-14
   outer loop
     vertex  3.776142e+02  5.150000e+02 -2.573848e+02
     vertex  3.785107e+02  5.150000e+02 -2.569142e+02
     vertex  3.763076e+02  5.150000e+02 -2.554919e+02
   endloop
 endfacet
 facet normal  3.502826e-13 -1.000000e+00  2.268808e-14
   outer loop
     vertex  3.831438e+02  5.150000e+02 -2.636264e+02
     vertex  3.848654e+02  5.150000e+02 -2.651516e+02
     vertex  3.857555e+02  5.150000e+02 -2.638620e+02
   endloop
 endfacet
 facet normal  3.509955e-13 -1.000000e+00  3.059186e-14
   outer loop
     vertex  3.831438e+02  5.150000e+02 -2.636264e+02
     vertex  3.857555e+02  5.150000e+02 -2.638620e+02
     vertex  3.837190e+02  5.150000e+02 -2.627931e+02
   endloop
 endfacet
 facet normal  3.901029e-13 -1.000000e+00  6.763597e-14
   outer loop
     vertex  3.751347e+02  5.150000e+02 -2.565310e+02
     vertex  3.768563e+02  5.150000e+02 -2.580562e+02
     vertex  3.776142e+02  5.150000e+02 -2.573848e+02
   endloop
 endfacet
 facet normal  3.726628e-13 -1.000000e+00  1.698738e-14
   outer loop
     vertex  3.751347e+02  5.150000e+02 -2.565310e+02
     vertex  3.776142e+02  5.150000e+02 -2.573848e+02
     vertex  3.763076e+02  5.150000e+02 -2.554919e+02
   endloop
 endfacet
 facet normal  3.901029e-13 -1.000000e+00  6.763597e-14
   outer loop
     vertex  3.823859e+02  5.150000e+02 -2.642978e+02
     vertex  3.848654e+02  5.150000e+02 -2.651516e+02
     vertex  3.831438e+02  5.150000e+02 -2.636264e+02
   endloop
 endfacet
 facet normal  3.726628e-13 -1.000000e+00  1.698738e-14
   outer loop
     vertex  3.836925e+02  5.150000e+02 -2.661907e+02
     vertex  3.848654e+02  5.150000e+02 -2.651516e+02
     vertex  3.823859e+02  5.150000e+02 -2.642978e+02
   endloop
 endfacet
 facet normal  3.502826e-13 -1.000000e+00  2.268808e-14
   outer loop
     vertex  3.742446e+02  5.150000e+02 -2.578206e+02
     vertex  3.768563e+02  5.150000e+02 -2.580562e+02
     vertex  3.751347e+02  5.150000e+02 -2.565310e+02
   endloop
 endfacet
 facet normal  3.509955e-13 -1.000000e+00  3.059186e-14
   outer loop
     vertex  3.742446e+02  5.150000e+02 -2.578206e+02
     vertex  3.762811e+02  5.150000e+02 -2.588895e+02
     vertex  3.768563e+02  5.150000e+02 -2.580562e+02
   endloop
 endfacet
 facet normal  3.866895e-13 -1.000000e+00 -1.194118e-14
   outer loop
     vertex  3.823050e+02  5.150000e+02 -2.669189e+02
     vertex  3.823859e+02  5.150000e+02 -2.642978e+02
     vertex  3.814894e+02  5.150000e+02 -2.647684e+02
   endloop
 endfacet
 facet normal  3.331479e-13 -1.000000e+00 -1.028779e-14
   outer loop
     vertex  3.823050e+02  5.150000e+02 -2.669189e+02
     vertex  3.836925e+02  5.150000e+02 -2.661907e+02
     vertex  3.823859e+02  5.150000e+02 -2.642978e+02
   endloop
 endfacet
 facet normal  3.472667e-13 -1.000000e+00  2.348722e-14
   outer loop
     vertex  3.736889e+02  5.150000e+02 -2.592857e+02
     vertex  3.762811e+02  5.150000e+02 -2.588895e+02
     vertex  3.742446e+02  5.150000e+02 -2.578206e+02
   endloop
 endfacet
 facet normal  3.529633e-13 -1.000000e+00 -1.377527e-14
   outer loop
     vertex  3.736889e+02  5.150000e+02 -2.592857e+02
     vertex  3.759221e+02  5.150000e+02 -2.598362e+02
     vertex  3.762811e+02  5.150000e+02 -2.588895e+02
   endloop
 endfacet
 facet normal  3.774244e-13 -1.000000e+00 -1.545497e-14
   outer loop
     vertex  3.807835e+02  5.150000e+02 -2.672939e+02
     vertex  3.823050e+02  5.150000e+02 -2.669189e+02
     vertex  3.814894e+02  5.150000e+02 -2.647684e+02
   endloop
 endfacet
 facet normal  3.487632e-13 -1.000000e+00 -7.444579e-15
   outer loop
     vertex  3.807835e+02  5.150000e+02 -2.672939e+02
     vertex  3.814894e+02  5.150000e+02 -2.647684e+02
     vertex  3.805063e+02  5.150000e+02 -2.650107e+02
   endloop
 endfacet
 facet normal  3.368472e-13 -1.000000e+00 -8.891446e-15
   outer loop
     vertex  3.807835e+02  5.150000e+02 -2.672939e+02
     vertex  3.805063e+02  5.150000e+02 -2.650107e+02
     vertex  3.794938e+02  5.150000e+02 -2.650107e+02
   endloop
 endfacet
 facet normal  3.954325e-13 -1.000000e+00 -4.801420e-14
   outer loop
     vertex  3.735000e+02  5.150000e+02 -2.608413e+02
     vertex  3.758000e+02  5.150000e+02 -2.608413e+02
     vertex  3.759221e+02  5.150000e+02 -2.598362e+02
   endloop
 endfacet
 facet normal  3.634937e-13 -1.000000e+00  2.894845e-14
   outer loop
     vertex  3.735000e+02  5.150000e+02 -2.608413e+02
     vertex  3.759221e+02  5.150000e+02 -2.598362e+02
     vertex  3.736889e+02  5.150000e+02 -2.592857e+02
   endloop
 endfacet
 facet normal  3.627585e-13 -1.000000e+00  5.745242e-15
   outer loop
     vertex  3.792166e+02  5.150000e+02 -2.672939e+02
     vertex  3.807835e+02  5.150000e+02 -2.672939e+02
     vertex  3.794938e+02  5.150000e+02 -2.650107e+02
   endloop
 endfacet
 facet normal  3.954325e-13 -1.000000e+00 -2.507038e-14
   outer loop
     vertex  3.736889e+02  5.150000e+02 -2.623969e+02
     vertex  3.758000e+02  5.150000e+02 -2.608413e+02
     vertex  3.735000e+02  5.150000e+02 -2.608413e+02
   endloop
 endfacet
 facet normal  3.529633e-13 -1.000000e+00  1.377527e-14
   outer loop
     vertex  3.736889e+02  5.150000e+02 -2.623969e+02
     vertex  3.762811e+02  5.150000e+02 -2.627931e+02
     vertex  3.759221e+02  5.150000e+02 -2.618464e+02
   endloop
 endfacet
 facet normal  3.460034e-13 -1.000000e+00  4.201242e-14
   outer loop
     vertex  3.736889e+02  5.150000e+02 -2.623969e+02
     vertex  3.759221e+02  5.150000e+02 -2.618464e+02
     vertex  3.758000e+02  5.150000e+02 -2.608413e+02
   endloop
 endfacet
 facet normal  3.746745e-13 -1.000000e+00  4.298374e-15
   outer loop
     vertex  3.776951e+02  5.150000e+02 -2.669189e+02
     vertex  3.792166e+02  5.150000e+02 -2.672939e+02
     vertex  3.794938e+02  5.150000e+02 -2.650107e+02
   endloop
 endfacet
 facet normal  3.530189e-13 -1.000000e+00  2.471073e-14
   outer loop
     vertex  3.776951e+02  5.150000e+02 -2.669189e+02
     vertex  3.794938e+02  5.150000e+02 -2.650107e+02
     vertex  3.785107e+02  5.150000e+02 -2.647684e+02
   endloop
 endfacet
 facet normal  3.472667e-13 -1.000000e+00 -2.348722e-14
   outer loop
     vertex  3.742446e+02  5.150000e+02 -2.638620e+02
     vertex  3.762811e+02  5.150000e+02 -2.627931e+02
     vertex  3.736889e+02  5.150000e+02 -2.623969e+02
   endloop
 endfacet
 facet normal  3.718141e-13 -1.000000e+00 -1.640156e-14
   outer loop
     vertex  3.763076e+02  5.150000e+02 -2.661907e+02
     vertex  3.785107e+02  5.150000e+02 -2.647684e+02
     vertex  3.776142e+02  5.150000e+02 -2.642978e+02
   endloop
 endfacet
 facet normal  3.427597e-13 -1.000000e+00  2.860156e-14
   outer loop
     vertex  3.763076e+02  5.150000e+02 -2.661907e+02
     vertex  3.776951e+02  5.150000e+02 -2.669189e+02
     vertex  3.785107e+02  5.150000e+02 -2.647684e+02
   endloop
 endfacet
 facet normal  3.901029e-13 -1.000000e+00 -6.763597e-14
   outer loop
     vertex  3.751347e+02  5.150000e+02 -2.651516e+02
     vertex  3.776142e+02  5.150000e+02 -2.642978e+02
     vertex  3.768563e+02  5.150000e+02 -2.636264e+02
   endloop
 endfacet
 facet normal  3.548982e-13 -1.000000e+00 -2.789804e-14
   outer loop
     vertex  3.751347e+02  5.150000e+02 -2.651516e+02
     vertex  3.768563e+02  5.150000e+02 -2.636264e+02
     vertex  3.762811e+02  5.150000e+02 -2.627931e+02
   endloop
 endfacet
 facet normal  3.726628e-13 -1.000000e+00 -1.698738e-14
   outer loop
     vertex  3.751347e+02  5.150000e+02 -2.651516e+02
     vertex  3.763076e+02  5.150000e+02 -2.661907e+02
     vertex  3.776142e+02  5.150000e+02 -2.642978e+02
   endloop
 endfacet
 facet normal  3.477609e-13 -1.000000e+00 -2.442870e-14
   outer loop
     vertex  3.751347e+02  5.150000e+02 -2.651516e+02
     vertex  3.762811e+02  5.150000e+02 -2.627931e+02
     vertex  3.742446e+02  5.150000e+02 -2.638620e+02
   endloop
 endfacet
 facet normal -3.912607e-13  1.000000e+00 -5.597060e-15
   outer loop
     vertex  3.831438e+02  5.158000e+02 -2.580562e+02
     vertex  3.848654e+02  5.158000e+02 -2.565310e+02
     vertex  3.857555e+02  5.158000e+02 -2.578206e+02
   endloop
 endfacet
 facet normal -3.726628e-13  1.000000e+00  1.698738e-14
   outer loop
     vertex  3.823859e+02  5.158000e+02 -2.573848e+02
     vertex  3.836925e+02  5.158000e+02 -2.554919e+02
     vertex  3.848654e+02  5.158000e+02 -2.565310e+02
   endloop
 endfacet
 facet normal -3.481173e-13  1.000000e+00 -5.429581e-14
   outer loop
     vertex  3.823859e+02  5.158000e+02 -2.573848e+02
     vertex  3.848654e+02  5.158000e+02 -2.565310e+02
     vertex  3.831438e+02  5.158000e+02 -2.580562e+02
   endloop
 endfacet
 facet normal -3.598591e-13  1.000000e+00 -5.888248e-14
   outer loop
     vertex  3.837190e+02  5.158000e+02 -2.588895e+02
     vertex  3.857555e+02  5.158000e+02 -2.578206e+02
     vertex  3.863112e+02  5.158000e+02 -2.592857e+02
   endloop
 endfacet
 facet normal -3.919736e-13  1.000000e+00  2.306723e-15
   outer loop
     vertex  3.837190e+02  5.158000e+02 -2.588895e+02
     vertex  3.831438e+02  5.158000e+02 -2.580562e+02
     vertex  3.857555e+02  5.158000e+02 -2.578206e+02
   endloop
 endfacet
 facet normal -3.879554e-13  1.000000e+00  4.140330e-14
   outer loop
     vertex  3.814894e+02  5.158000e+02 -2.569142e+02
     vertex  3.823050e+02  5.158000e+02 -2.547637e+02
     vertex  3.836925e+02  5.158000e+02 -2.554919e+02
   endloop
 endfacet
 facet normal -3.718141e-13  1.000000e+00  1.640156e-14
   outer loop
     vertex  3.814894e+02  5.158000e+02 -2.569142e+02
     vertex  3.836925e+02  5.158000e+02 -2.554919e+02
     vertex  3.823859e+02  5.158000e+02 -2.573848e+02
   endloop
 endfacet
 facet normal -3.634937e-13  1.000000e+00  2.894845e-14
   outer loop
     vertex  3.840780e+02  5.158000e+02 -2.598362e+02
     vertex  3.863112e+02  5.158000e+02 -2.592857e+02
     vertex  3.865000e+02  5.158000e+02 -2.608413e+02
   endloop
 endfacet
 facet normal -3.529633e-13  1.000000e+00 -1.377527e-14
   outer loop
     vertex  3.840780e+02  5.158000e+02 -2.598362e+02
     vertex  3.837190e+02  5.158000e+02 -2.588895e+02
     vertex  3.863112e+02  5.158000e+02 -2.592857e+02
   endloop
 endfacet
 facet normal -3.021228e-13  1.000000e+00 -1.310775e-14
   outer loop
     vertex  3.805063e+02  5.158000e+02 -2.566719e+02
     vertex  3.807835e+02  5.158000e+02 -2.543887e+02
     vertex  3.823050e+02  5.158000e+02 -2.547637e+02
   endloop
 endfacet
 facet normal -3.411029e-13  1.000000e+00  2.363450e-14
   outer loop
     vertex  3.805063e+02  5.158000e+02 -2.566719e+02
     vertex  3.823050e+02  5.158000e+02 -2.547637e+02
     vertex  3.814894e+02  5.158000e+02 -2.569142e+02
   endloop
 endfacet
 facet normal -3.460034e-13  1.000000e+00 -3.107215e-14
   outer loop
     vertex  3.842000e+02  5.158000e+02 -2.608413e+02
     vertex  3.865000e+02  5.158000e+02 -2.608413e+02
     vertex  3.863112e+02  5.158000e+02 -2.623969e+02
   endloop
 endfacet
 facet normal -3.460034e-13  1.000000e+00  7.109465e-14
   outer loop
     vertex  3.842000e+02  5.158000e+02 -2.608413e+02
     vertex  3.840780e+02  5.158000e+02 -2.598362e+02
     vertex  3.865000e+02  5.158000e+02 -2.608413e+02
   endloop
 endfacet
 facet normal -4.353102e-13  1.000000e+00 -3.064129e-15
   outer loop
     vertex  3.794938e+02  5.158000e+02 -2.566719e+02
     vertex  3.792166e+02  5.158000e+02 -2.543887e+02
     vertex  3.807835e+02  5.158000e+02 -2.543887e+02
   endloop
 endfacet
 facet normal -4.491296e-13  1.000000e+00  4.742105e-15
   outer loop
     vertex  3.794938e+02  5.158000e+02 -2.566719e+02
     vertex  3.807835e+02  5.158000e+02 -2.543887e+02
     vertex  3.805063e+02  5.158000e+02 -2.566719e+02
   endloop
 endfacet
 facet normal -3.730717e-13  1.000000e+00 -6.780797e-14
   outer loop
     vertex  3.840780e+02  5.158000e+02 -2.618464e+02
     vertex  3.842000e+02  5.158000e+02 -2.608413e+02
     vertex  3.863112e+02  5.158000e+02 -2.623969e+02
   endloop
 endfacet
 facet normal -3.433852e-13  1.000000e+00  5.263479e-14
   outer loop
     vertex  3.857555e+02  5.158000e+02 -2.638620e+02
     vertex  3.840780e+02  5.158000e+02 -2.618464e+02
     vertex  3.863112e+02  5.158000e+02 -2.623969e+02
   endloop
 endfacet
 facet normal -2.971731e-13  1.000000e+00 -6.974120e-15
   outer loop
     vertex  3.785107e+02  5.158000e+02 -2.569142e+02
     vertex  3.776951e+02  5.158000e+02 -2.547637e+02
     vertex  3.792166e+02  5.158000e+02 -2.543887e+02
   endloop
 endfacet
 facet normal -3.487632e-13  1.000000e+00  7.444579e-15
   outer loop
     vertex  3.785107e+02  5.158000e+02 -2.569142e+02
     vertex  3.792166e+02  5.158000e+02 -2.543887e+02
     vertex  3.794938e+02  5.158000e+02 -2.566719e+02
   endloop
 endfacet
 facet normal -3.784584e-13  1.000000e+00  2.344431e-14
   outer loop
     vertex  3.837190e+02  5.158000e+02 -2.627931e+02
     vertex  3.840780e+02  5.158000e+02 -2.618464e+02
     vertex  3.857555e+02  5.158000e+02 -2.638620e+02
   endloop
 endfacet
 facet normal -3.932953e-13  1.000000e+00 -3.122898e-14
   outer loop
     vertex  3.776142e+02  5.158000e+02 -2.573848e+02
     vertex  3.763076e+02  5.158000e+02 -2.554919e+02
     vertex  3.776951e+02  5.158000e+02 -2.547637e+02
   endloop
 endfacet
 facet normal -3.635499e-13  1.000000e+00 -3.214753e-14
   outer loop
     vertex  3.776142e+02  5.158000e+02 -2.573848e+02
     vertex  3.776951e+02  5.158000e+02 -2.547637e+02
     vertex  3.785107e+02  5.158000e+02 -2.569142e+02
   endloop
 endfacet
 facet normal -3.887389e-13  1.000000e+00  3.856436e-15
   outer loop
     vertex  3.848654e+02  5.158000e+02 -2.651516e+02
     vertex  3.837190e+02  5.158000e+02 -2.627931e+02
     vertex  3.857555e+02  5.158000e+02 -2.638620e+02
   endloop
 endfacet
 facet normal -3.958763e-13  1.000000e+00  3.870992e-16
   outer loop
     vertex  3.831438e+02  5.158000e+02 -2.636264e+02
     vertex  3.837190e+02  5.158000e+02 -2.627931e+02
     vertex  3.848654e+02  5.158000e+02 -2.651516e+02
   endloop
 endfacet
 facet normal -3.182437e-13  1.000000e+00  2.057541e-14
   outer loop
     vertex  3.768563e+02  5.158000e+02 -2.580562e+02
     vertex  3.763076e+02  5.158000e+02 -2.554919e+02
     vertex  3.776142e+02  5.158000e+02 -2.573848e+02
   endloop
 endfacet
 facet normal -3.919658e-13  1.000000e+00  4.801185e-15
   outer loop
     vertex  3.751347e+02  5.158000e+02 -2.565310e+02
     vertex  3.763076e+02  5.158000e+02 -2.554919e+02
     vertex  3.768563e+02  5.158000e+02 -2.580562e+02
   endloop
 endfacet
 facet normal -3.919658e-13  1.000000e+00  4.801185e-15
   outer loop
     vertex  3.836925e+02  5.158000e+02 -2.661907e+02
     vertex  3.831438e+02  5.158000e+02 -2.636264e+02
     vertex  3.848654e+02  5.158000e+02 -2.651516e+02
   endloop
 endfacet
 facet normal -3.182437e-13  1.000000e+00  2.057541e-14
   outer loop
     vertex  3.836925e+02  5.158000e+02 -2.661907e+02
     vertex  3.823859e+02  5.158000e+02 -2.642978e+02
     vertex  3.831438e+02  5.158000e+02 -2.636264e+02
   endloop
 endfacet
 facet normal -3.958763e-13  1.000000e+00  3.870992e-16
   outer loop
     vertex  3.762811e+02  5.158000e+02 -2.588895e+02
     vertex  3.751347e+02  5.158000e+02 -2.565310e+02
     vertex  3.768563e+02  5.158000e+02 -2.580562e+02
   endloop
 endfacet
 facet normal -3.887389e-13  1.000000e+00  3.856436e-15
   outer loop
     vertex  3.742446e+02  5.158000e+02 -2.578206e+02
     vertex  3.751347e+02  5.158000e+02 -2.565310e+02
     vertex  3.762811e+02  5.158000e+02 -2.588895e+02
   endloop
 endfacet
 facet normal -3.784584e-13  1.000000e+00  2.344431e-14
   outer loop
     vertex  3.759221e+02  5.158000e+02 -2.598362e+02
     vertex  3.742446e+02  5.158000e+02 -2.578206e+02
     vertex  3.762811e+02  5.158000e+02 -2.588895e+02
   endloop
 endfacet
 facet normal -3.932953e-13  1.000000e+00 -3.122898e-14
   outer loop
     vertex  3.823050e+02  5.158000e+02 -2.669189e+02
     vertex  3.823859e+02  5.158000e+02 -2.642978e+02
     vertex  3.836925e+02  5.158000e+02 -2.661907e+02
   endloop
 endfacet
 facet normal -3.635499e-13  1.000000e+00 -3.214753e-14
   outer loop
     vertex  3.823050e+02  5.158000e+02 -2.669189e+02
     vertex  3.814894e+02  5.158000e+02 -2.647684e+02
     vertex  3.823859e+02  5.158000e+02 -2.642978e+02
   endloop
 endfacet
 facet normal -3.433852e-13  1.000000e+00  5.263479e-14
   outer loop
     vertex  3.736889e+02  5.158000e+02 -2.592857e+02
     vertex  3.742446e+02  5.158000e+02 -2.578206e+02
     vertex  3.759221e+02  5.158000e+02 -2.598362e+02
   endloop
 endfacet
 facet normal -2.971731e-13  1.000000e+00 -6.974120e-15
   outer loop
     vertex  3.807835e+02  5.158000e+02 -2.672939e+02
     vertex  3.814894e+02  5.158000e+02 -2.647684e+02
     vertex  3.823050e+02  5.158000e+02 -2.669189e+02
   endloop
 endfacet
 facet normal -3.487632e-13  1.000000e+00  7.444579e-15
   outer loop
     vertex  3.807835e+02  5.158000e+02 -2.672939e+02
     vertex  3.805063e+02  5.158000e+02 -2.650107e+02
     vertex  3.814894e+02  5.158000e+02 -2.647684e+02
   endloop
 endfacet
 facet normal -3.460034e-13  1.000000e+00  7.109465e-14
   outer loop
     vertex  3.735000e+02  5.158000e+02 -2.608413e+02
     vertex  3.758000e+02  5.158000e+02 -2.608413e+02
     vertex  3.759221e+02  5.158000e+02 -2.618464e+02
   endloop
 endfacet
 facet normal -3.460034e-13  1.000000e+00 -7.109465e-14
   outer loop
     vertex  3.735000e+02  5.158000e+02 -2.608413e+02
     vertex  3.759221e+02  5.158000e+02 -2.598362e+02
     vertex  3.758000e+02  5.158000e+02 -2.608413e+02
   endloop
 endfacet
 facet normal -3.634937e-13  1.000000e+00 -2.894845e-14
   outer loop
     vertex  3.735000e+02  5.158000e+02 -2.608413e+02
     vertex  3.736889e+02  5.158000e+02 -2.592857e+02
     vertex  3.759221e+02  5.158000e+02 -2.598362e+02
   endloop
 endfacet
 facet normal -4.491296e-13  1.000000e+00  4.742105e-15
   outer loop
     vertex  3.792166e+02  5.158000e+02 -2.672939e+02
     vertex  3.794938e+02  5.158000e+02 -2.650107e+02
     vertex  3.805063e+02  5.158000e+02 -2.650107e+02
   endloop
 endfacet
 facet normal -4.353102e-13  1.000000e+00 -3.064129e-15
   outer loop
     vertex  3.792166e+02  5.158000e+02 -2.672939e+02
     vertex  3.805063e+02  5.158000e+02 -2.650107e+02
     vertex  3.807835e+02  5.158000e+02 -2.672939e+02
   endloop
 endfacet
 facet normal -3.634937e-13  1.000000e+00  2.894845e-14
   outer loop
     vertex  3.736889e+02  5.158000e+02 -2.623969e+02
     vertex  3.735000e+02  5.158000e+02 -2.608413e+02
     vertex  3.759221e+02  5.158000e+02 -2.618464e+02
   endloop
 endfacet
 facet normal -3.021228e-13  1.000000e+00 -1.310775e-14
   outer loop
     vertex  3.776951e+02  5.158000e+02 -2.669189e+02
     vertex  3.794938e+02  5.158000e+02 -2.650107e+02
     vertex  3.792166e+02  5.158000e+02 -2.672939e+02
   endloop
 endfacet
 facet normal -3.411029e-13  1.000000e+00  2.363450e-14
   outer loop
     vertex  3.776951e+02  5.158000e+02 -2.669189e+02
     vertex  3.785107e+02  5.158000e+02 -2.647684e+02
     vertex  3.794938e+02  5.158000e+02 -2.650107e+02
   endloop
 endfacet
 facet normal -3.784584e-13  1.000000e+00 -2.344431e-14
   outer loop
     vertex  3.742446e+02  5.158000e+02 -2.638620e+02
     vertex  3.759221e+02  5.158000e+02 -2.618464e+02
     vertex  3.762811e+02  5.158000e+02 -2.627931e+02
   endloop
 endfacet
 facet normal -3.919736e-13  1.000000e+00  2.306723e-15
   outer loop
     vertex  3.742446e+02  5.158000e+02 -2.638620e+02
     vertex  3.762811e+02  5.158000e+02 -2.627931e+02
     vertex  3.768563e+02  5.158000e+02 -2.636264e+02
   endloop
 endfacet
 facet normal -3.433852e-13  1.000000e+00 -5.263479e-14
   outer loop
     vertex  3.742446e+02  5.158000e+02 -2.638620e+02
     vertex  3.736889e+02  5.158000e+02 -2.623969e+02
     vertex  3.759221e+02  5.158000e+02 -2.618464e+02
   endloop
 endfacet
 facet normal -3.718141e-13  1.000000e+00  1.640156e-14
   outer loop
     vertex  3.763076e+02  5.158000e+02 -2.661907e+02
     vertex  3.776142e+02  5.158000e+02 -2.642978e+02
     vertex  3.785107e+02  5.158000e+02 -2.647684e+02
   endloop
 endfacet
 facet normal -3.879554e-13  1.000000e+00  4.140330e-14
   outer loop
     vertex  3.763076e+02  5.158000e+02 -2.661907e+02
     vertex  3.785107e+02  5.158000e+02 -2.647684e+02
     vertex  3.776951e+02  5.158000e+02 -2.669189e+02
   endloop
 endfacet
 facet normal -3.726628e-13  1.000000e+00  1.698738e-14
   outer loop
     vertex  3.751347e+02  5.158000e+02 -2.651516e+02
     vertex  3.776142e+02  5.158000e+02 -2.642978e+02
     vertex  3.763076e+02  5.158000e+02 -2.661907e+02
   endloop
 endfacet
 facet normal -3.481173e-13  1.000000e+00 -5.429581e-14
   outer loop
     vertex  3.751347e+02  5.158000e+02 -2.651516e+02
     vertex  3.768563e+02  5.158000e+02 -2.636264e+02
     vertex  3.776142e+02  5.158000e+02 -2.642978e+02
   endloop
 endfacet
 facet normal -3.912607e-13  1.000000e+00 -5.597060e-15
   outer loop
     vertex  3.751347e+02  5.158000e+02 -2.651516e+02
     vertex  3.742446e+02  5.158000e+02 -2.638620e+02
     vertex  3.768563e+02  5.158000e+02 -2.636264e+02
   endloop
 endfacet
endsolid
