solid 
 facet normal -5.938621e-01 -7.044570e-01 -3.886749e-01
   outer loop
     vertex  3.222062e+02 -3.546864e+02 -4.693000e+01
     vertex  3.226752e+02 -3.553000e+02 -4.653464e+01
     vertex  3.223602e+02 -3.553000e+02 -4.605325e+01
   endloop
 endfacet
 facet normal -6.696215e-01 -7.044570e-01 -2.352603e-01
   outer loop
     vertex  3.218101e+02 -3.546864e+02 -4.632487e+01
     vertex  3.223602e+02 -3.553000e+02 -4.605325e+01
     vertex  3.221695e+02 -3.553000e+02 -4.551044e+01
   endloop
 endfacet
 facet normal -5.938621e-01 -7.044570e-01 -3.886749e-01
   outer loop
     vertex  3.218101e+02 -3.546864e+02 -4.632487e+01
     vertex  3.222062e+02 -3.546864e+02 -4.693000e+01
     vertex  3.223602e+02 -3.553000e+02 -4.605325e+01
   endloop
 endfacet
 facet normal -7.064650e-01 -7.044570e-01 -6.817311e-02
   outer loop
     vertex  3.215704e+02 -3.546864e+02 -4.564254e+01
     vertex  3.221695e+02 -3.553000e+02 -4.551044e+01
     vertex  3.221142e+02 -3.553000e+02 -4.493777e+01
   endloop
 endfacet
 facet normal -6.696215e-01 -7.044570e-01 -2.352603e-01
   outer loop
     vertex  3.215704e+02 -3.546864e+02 -4.564254e+01
     vertex  3.218101e+02 -3.546864e+02 -4.632487e+01
     vertex  3.221695e+02 -3.553000e+02 -4.551044e+01
   endloop
 endfacet
 facet normal -7.022513e-01 -7.044570e-01  1.028760e-01
   outer loop
     vertex  3.215009e+02 -3.546864e+02 -4.492266e+01
     vertex  3.221142e+02 -3.553000e+02 -4.493777e+01
     vertex  3.221976e+02 -3.553000e+02 -4.436851e+01
   endloop
 endfacet
 facet normal -7.064650e-01 -7.044570e-01 -6.817311e-02
   outer loop
     vertex  3.215009e+02 -3.546864e+02 -4.492266e+01
     vertex  3.215704e+02 -3.546864e+02 -4.564254e+01
     vertex  3.221142e+02 -3.553000e+02 -4.493777e+01
   endloop
 endfacet
 facet normal -6.572253e-01 -7.044570e-01  2.679464e-01
   outer loop
     vertex  3.216058e+02 -3.546864e+02 -4.420708e+01
     vertex  3.221976e+02 -3.553000e+02 -4.436851e+01
     vertex  3.224148e+02 -3.553000e+02 -4.383575e+01
   endloop
 endfacet
 facet normal -7.022513e-01 -7.044570e-01  1.028760e-01
   outer loop
     vertex  3.216058e+02 -3.546864e+02 -4.420708e+01
     vertex  3.215009e+02 -3.546864e+02 -4.492266e+01
     vertex  3.221976e+02 -3.553000e+02 -4.436851e+01
   endloop
 endfacet
 facet normal -5.740038e-01 -7.044570e-01  4.174446e-01
   outer loop
     vertex  3.218788e+02 -3.546864e+02 -4.353738e+01
     vertex  3.224148e+02 -3.553000e+02 -4.383575e+01
     vertex  3.227532e+02 -3.553000e+02 -4.337045e+01
   endloop
 endfacet
 facet normal -6.572253e-01 -7.044570e-01  2.679464e-01
   outer loop
     vertex  3.218788e+02 -3.546864e+02 -4.353738e+01
     vertex  3.216058e+02 -3.546864e+02 -4.420708e+01
     vertex  3.224148e+02 -3.553000e+02 -4.383575e+01
   endloop
 endfacet
 facet normal -5.740038e-01 -7.044570e-01  4.174446e-01
   outer loop
     vertex  3.223042e+02 -3.546864e+02 -4.295247e+01
     vertex  3.218788e+02 -3.546864e+02 -4.353738e+01
     vertex  3.227532e+02 -3.553000e+02 -4.337045e+01
   endloop
 endfacet
 facet normal -4.574232e-01 -7.044570e-01  5.426825e-01
   outer loop
     vertex  3.228572e+02 -3.546864e+02 -4.248637e+01
     vertex  3.227532e+02 -3.553000e+02 -4.337045e+01
     vertex  3.231931e+02 -3.553000e+02 -4.299966e+01
   endloop
 endfacet
 facet normal -3.142589e-01 -7.044570e-01  6.363817e-01
   outer loop
     vertex  3.228572e+02 -3.546864e+02 -4.248637e+01
     vertex  3.231931e+02 -3.553000e+02 -4.299966e+01
     vertex  3.237090e+02 -3.553000e+02 -4.274491e+01
   endloop
 endfacet
 facet normal -4.574232e-01 -7.044570e-01  5.426825e-01
   outer loop
     vertex  3.228572e+02 -3.546864e+02 -4.248637e+01
     vertex  3.223042e+02 -3.546864e+02 -4.295247e+01
     vertex  3.227532e+02 -3.553000e+02 -4.337045e+01
   endloop
 endfacet
 facet normal -1.528310e-01 -7.044570e-01  6.930967e-01
   outer loop
     vertex  3.235056e+02 -3.546864e+02 -4.216614e+01
     vertex  3.237090e+02 -3.553000e+02 -4.274491e+01
     vertex  3.242708e+02 -3.553000e+02 -4.262102e+01
   endloop
 endfacet
 facet normal -3.142589e-01 -7.044570e-01  6.363817e-01
   outer loop
     vertex  3.235056e+02 -3.546864e+02 -4.216614e+01
     vertex  3.228572e+02 -3.546864e+02 -4.248637e+01
     vertex  3.237090e+02 -3.553000e+02 -4.274491e+01
   endloop
 endfacet
 facet normal  1.747889e-02 -7.044570e-01  7.095314e-01
   outer loop
     vertex  3.242119e+02 -3.546864e+02 -4.201041e+01
     vertex  3.242708e+02 -3.553000e+02 -4.262102e+01
     vertex  3.248460e+02 -3.553000e+02 -4.263519e+01
   endloop
 endfacet
 facet normal -1.528310e-01 -7.044570e-01  6.930967e-01
   outer loop
     vertex  3.242119e+02 -3.546864e+02 -4.201041e+01
     vertex  3.235056e+02 -3.546864e+02 -4.216614e+01
     vertex  3.242708e+02 -3.553000e+02 -4.262102e+01
   endloop
 endfacet
 facet normal  1.867730e-01 -7.044570e-01  6.847308e-01
   outer loop
     vertex  3.249349e+02 -3.546864e+02 -4.202822e+01
     vertex  3.248460e+02 -3.553000e+02 -4.263519e+01
     vertex  3.254010e+02 -3.553000e+02 -4.278660e+01
   endloop
 endfacet
 facet normal  1.747889e-02 -7.044570e-01  7.095314e-01
   outer loop
     vertex  3.249349e+02 -3.546864e+02 -4.202822e+01
     vertex  3.242119e+02 -3.546864e+02 -4.201041e+01
     vertex  3.248460e+02 -3.553000e+02 -4.263519e+01
   endloop
 endfacet
 facet normal  1.867730e-01 -7.044570e-01  6.847308e-01
   outer loop
     vertex  3.256326e+02 -3.546864e+02 -4.221854e+01
     vertex  3.249349e+02 -3.546864e+02 -4.202822e+01
     vertex  3.254010e+02 -3.553000e+02 -4.278660e+01
   endloop
 endfacet
 facet normal  3.452125e-01 -7.044570e-01  6.201360e-01
   outer loop
     vertex  3.262645e+02 -3.546864e+02 -4.257031e+01
     vertex  3.256326e+02 -3.546864e+02 -4.221854e+01
     vertex  3.254010e+02 -3.553000e+02 -4.278660e+01
   endloop
 endfacet
 facet normal  3.452125e-01 -7.044570e-01  6.201360e-01
   outer loop
     vertex  3.262645e+02 -3.546864e+02 -4.257031e+01
     vertex  3.254010e+02 -3.553000e+02 -4.278660e+01
     vertex  3.259037e+02 -3.553000e+02 -4.306643e+01
   endloop
 endfacet
 facet normal  4.835895e-01 -7.044570e-01  5.195012e-01
   outer loop
     vertex  3.262645e+02 -3.546864e+02 -4.257031e+01
     vertex  3.259037e+02 -3.553000e+02 -4.306643e+01
     vertex  3.263248e+02 -3.553000e+02 -4.345844e+01
   endloop
 endfacet
 facet normal  4.835895e-01 -7.044570e-01  5.195012e-01
   outer loop
     vertex  3.267939e+02 -3.546864e+02 -4.306308e+01
     vertex  3.262645e+02 -3.546864e+02 -4.257031e+01
     vertex  3.263248e+02 -3.553000e+02 -4.345844e+01
   endloop
 endfacet
 facet normal  5.938621e-01 -7.044570e-01  3.886749e-01
   outer loop
     vertex  3.267939e+02 -3.546864e+02 -4.306308e+01
     vertex  3.263248e+02 -3.553000e+02 -4.345844e+01
     vertex  3.266399e+02 -3.553000e+02 -4.393983e+01
   endloop
 endfacet
 facet normal  5.938621e-01 -7.044570e-01  3.886749e-01
   outer loop
     vertex  3.271899e+02 -3.546864e+02 -4.366821e+01
     vertex  3.267939e+02 -3.546864e+02 -4.306308e+01
     vertex  3.266399e+02 -3.553000e+02 -4.393983e+01
   endloop
 endfacet
 facet normal  6.696215e-01 -7.044570e-01  2.352603e-01
   outer loop
     vertex  3.271899e+02 -3.546864e+02 -4.366821e+01
     vertex  3.266399e+02 -3.553000e+02 -4.393983e+01
     vertex  3.268306e+02 -3.553000e+02 -4.448264e+01
   endloop
 endfacet
 facet normal  6.696215e-01 -7.044570e-01  2.352603e-01
   outer loop
     vertex  3.274297e+02 -3.546864e+02 -4.435054e+01
     vertex  3.271899e+02 -3.546864e+02 -4.366821e+01
     vertex  3.268306e+02 -3.553000e+02 -4.448264e+01
   endloop
 endfacet
 facet normal  7.064650e-01 -7.044570e-01  6.817311e-02
   outer loop
     vertex  3.274297e+02 -3.546864e+02 -4.435054e+01
     vertex  3.268306e+02 -3.553000e+02 -4.448264e+01
     vertex  3.268859e+02 -3.553000e+02 -4.505531e+01
   endloop
 endfacet
 facet normal  7.064650e-01 -7.044570e-01  6.817311e-02
   outer loop
     vertex  3.274991e+02 -3.546864e+02 -4.507042e+01
     vertex  3.274297e+02 -3.546864e+02 -4.435054e+01
     vertex  3.268859e+02 -3.553000e+02 -4.505531e+01
   endloop
 endfacet
 facet normal  7.022513e-01 -7.044570e-01 -1.028760e-01
   outer loop
     vertex  3.274991e+02 -3.546864e+02 -4.507042e+01
     vertex  3.268859e+02 -3.553000e+02 -4.505531e+01
     vertex  3.268025e+02 -3.553000e+02 -4.562457e+01
   endloop
 endfacet
 facet normal  7.022513e-01 -7.044570e-01 -1.028760e-01
   outer loop
     vertex  3.273943e+02 -3.546864e+02 -4.578600e+01
     vertex  3.274991e+02 -3.546864e+02 -4.507042e+01
     vertex  3.268025e+02 -3.553000e+02 -4.562457e+01
   endloop
 endfacet
 facet normal  6.572253e-01 -7.044570e-01 -2.679464e-01
   outer loop
     vertex  3.273943e+02 -3.546864e+02 -4.578600e+01
     vertex  3.268025e+02 -3.553000e+02 -4.562457e+01
     vertex  3.265853e+02 -3.553000e+02 -4.615733e+01
   endloop
 endfacet
 facet normal  6.572253e-01 -7.044570e-01 -2.679464e-01
   outer loop
     vertex  3.271213e+02 -3.546864e+02 -4.645570e+01
     vertex  3.273943e+02 -3.546864e+02 -4.578600e+01
     vertex  3.265853e+02 -3.553000e+02 -4.615733e+01
   endloop
 endfacet
 facet normal  5.740038e-01 -7.044570e-01 -4.174446e-01
   outer loop
     vertex  3.271213e+02 -3.546864e+02 -4.645570e+01
     vertex  3.265853e+02 -3.553000e+02 -4.615733e+01
     vertex  3.262469e+02 -3.553000e+02 -4.662263e+01
   endloop
 endfacet
 facet normal  5.740038e-01 -7.044570e-01 -4.174446e-01
   outer loop
     vertex  3.266959e+02 -3.546864e+02 -4.704061e+01
     vertex  3.271213e+02 -3.546864e+02 -4.645570e+01
     vertex  3.262469e+02 -3.553000e+02 -4.662263e+01
   endloop
 endfacet
 facet normal  4.574232e-01 -7.044570e-01 -5.426825e-01
   outer loop
     vertex  3.266959e+02 -3.546864e+02 -4.704061e+01
     vertex  3.262469e+02 -3.553000e+02 -4.662263e+01
     vertex  3.258070e+02 -3.553000e+02 -4.699342e+01
   endloop
 endfacet
 facet normal  3.142589e-01 -7.044570e-01 -6.363817e-01
   outer loop
     vertex  3.261429e+02 -3.546864e+02 -4.750671e+01
     vertex  3.258070e+02 -3.553000e+02 -4.699342e+01
     vertex  3.252911e+02 -3.553000e+02 -4.724817e+01
   endloop
 endfacet
 facet normal  4.574232e-01 -7.044570e-01 -5.426825e-01
   outer loop
     vertex  3.261429e+02 -3.546864e+02 -4.750671e+01
     vertex  3.266959e+02 -3.546864e+02 -4.704061e+01
     vertex  3.258070e+02 -3.553000e+02 -4.699342e+01
   endloop
 endfacet
 facet normal  1.528310e-01 -7.044570e-01 -6.930967e-01
   outer loop
     vertex  3.254945e+02 -3.546864e+02 -4.782694e+01
     vertex  3.252911e+02 -3.553000e+02 -4.724817e+01
     vertex  3.247293e+02 -3.553000e+02 -4.737206e+01
   endloop
 endfacet
 facet normal  3.142589e-01 -7.044570e-01 -6.363817e-01
   outer loop
     vertex  3.254945e+02 -3.546864e+02 -4.782694e+01
     vertex  3.261429e+02 -3.546864e+02 -4.750671e+01
     vertex  3.252911e+02 -3.553000e+02 -4.724817e+01
   endloop
 endfacet
 facet normal  1.528310e-01 -7.044570e-01 -6.930967e-01
   outer loop
     vertex  3.247882e+02 -3.546864e+02 -4.798267e+01
     vertex  3.254945e+02 -3.546864e+02 -4.782694e+01
     vertex  3.247293e+02 -3.553000e+02 -4.737206e+01
   endloop
 endfacet
 facet normal -1.747889e-02 -7.044570e-01 -7.095314e-01
   outer loop
     vertex  3.240652e+02 -3.546864e+02 -4.796486e+01
     vertex  3.247293e+02 -3.553000e+02 -4.737206e+01
     vertex  3.241541e+02 -3.553000e+02 -4.735789e+01
   endloop
 endfacet
 facet normal -1.747889e-02 -7.044570e-01 -7.095314e-01
   outer loop
     vertex  3.240652e+02 -3.546864e+02 -4.796486e+01
     vertex  3.247882e+02 -3.546864e+02 -4.798267e+01
     vertex  3.247293e+02 -3.553000e+02 -4.737206e+01
   endloop
 endfacet
 facet normal -1.867730e-01 -7.044570e-01 -6.847308e-01
   outer loop
     vertex  3.233675e+02 -3.546864e+02 -4.777454e+01
     vertex  3.241541e+02 -3.553000e+02 -4.735789e+01
     vertex  3.235991e+02 -3.553000e+02 -4.720648e+01
   endloop
 endfacet
 facet normal -3.452125e-01 -7.044570e-01 -6.201360e-01
   outer loop
     vertex  3.233675e+02 -3.546864e+02 -4.777454e+01
     vertex  3.235991e+02 -3.553000e+02 -4.720648e+01
     vertex  3.230964e+02 -3.553000e+02 -4.692665e+01
   endloop
 endfacet
 facet normal -1.867730e-01 -7.044570e-01 -6.847308e-01
   outer loop
     vertex  3.233675e+02 -3.546864e+02 -4.777454e+01
     vertex  3.240652e+02 -3.546864e+02 -4.796486e+01
     vertex  3.241541e+02 -3.553000e+02 -4.735789e+01
   endloop
 endfacet
 facet normal -3.452125e-01 -7.044570e-01 -6.201360e-01
   outer loop
     vertex  3.227356e+02 -3.546864e+02 -4.742277e+01
     vertex  3.233675e+02 -3.546864e+02 -4.777454e+01
     vertex  3.230964e+02 -3.553000e+02 -4.692665e+01
   endloop
 endfacet
 facet normal -4.835895e-01 -7.044570e-01 -5.195012e-01
   outer loop
     vertex  3.222062e+02 -3.546864e+02 -4.693000e+01
     vertex  3.230964e+02 -3.553000e+02 -4.692665e+01
     vertex  3.226752e+02 -3.553000e+02 -4.653464e+01
   endloop
 endfacet
 facet normal -4.835895e-01 -7.044570e-01 -5.195012e-01
   outer loop
     vertex  3.222062e+02 -3.546864e+02 -4.693000e+01
     vertex  3.227356e+02 -3.546864e+02 -4.742277e+01
     vertex  3.230964e+02 -3.553000e+02 -4.692665e+01
   endloop
 endfacet
 facet normal  6.813551e-01 -3.513836e-15  7.319531e-01
   outer loop
     vertex  3.262645e+02 -3.546864e+02 -4.257031e+01
     vertex  3.267939e+02 -3.546864e+02 -4.306308e+01
     vertex  3.267939e+02 -2.953000e+02 -4.306308e+01
   endloop
 endfacet
 facet normal  6.813551e-01 -2.774579e-15  7.319531e-01
   outer loop
     vertex  3.262645e+02 -3.546864e+02 -4.257031e+01
     vertex  3.267939e+02 -2.953000e+02 -4.306308e+01
     vertex  3.262645e+02 -2.953000e+02 -4.257031e+01
   endloop
 endfacet
 facet normal  4.863883e-01 -1.434330e-15  8.737428e-01
   outer loop
     vertex  3.262645e+02 -3.546864e+02 -4.257031e+01
     vertex  3.262645e+02 -2.953000e+02 -4.257031e+01
     vertex  3.256326e+02 -2.953000e+02 -4.221854e+01
   endloop
 endfacet
 facet normal  2.631544e-01 -3.780378e-16  9.647537e-01
   outer loop
     vertex  3.256326e+02 -3.546864e+02 -4.221854e+01
     vertex  3.256326e+02 -2.953000e+02 -4.221854e+01
     vertex  3.249349e+02 -2.953000e+02 -4.202822e+01
   endloop
 endfacet
 facet normal  4.863883e-01 -2.004431e-15  8.737428e-01
   outer loop
     vertex  3.256326e+02 -3.546864e+02 -4.221854e+01
     vertex  3.262645e+02 -3.546864e+02 -4.257031e+01
     vertex  3.256326e+02 -2.953000e+02 -4.221854e+01
   endloop
 endfacet
 facet normal  2.462694e-02  1.509547e-15  9.996967e-01
   outer loop
     vertex  3.249349e+02 -3.546864e+02 -4.202822e+01
     vertex  3.249349e+02 -2.953000e+02 -4.202822e+01
     vertex  3.242119e+02 -2.953000e+02 -4.201041e+01
   endloop
 endfacet
 facet normal  2.631544e-01 -1.471775e-16  9.647537e-01
   outer loop
     vertex  3.249349e+02 -3.546864e+02 -4.202822e+01
     vertex  3.256326e+02 -3.546864e+02 -4.221854e+01
     vertex  3.249349e+02 -2.953000e+02 -4.202822e+01
   endloop
 endfacet
 facet normal -2.153318e-01  3.429064e-15  9.765410e-01
   outer loop
     vertex  3.242119e+02 -3.546864e+02 -4.201041e+01
     vertex  3.242119e+02 -2.953000e+02 -4.201041e+01
     vertex  3.235056e+02 -2.953000e+02 -4.216614e+01
   endloop
 endfacet
 facet normal  2.462694e-02  1.868380e-15  9.996967e-01
   outer loop
     vertex  3.242119e+02 -3.546864e+02 -4.201041e+01
     vertex  3.249349e+02 -3.546864e+02 -4.202822e+01
     vertex  3.242119e+02 -2.953000e+02 -4.201041e+01
   endloop
 endfacet
 facet normal -4.427762e-01  4.044809e-15  8.966322e-01
   outer loop
     vertex  3.235056e+02 -3.546864e+02 -4.216614e+01
     vertex  3.235056e+02 -2.953000e+02 -4.216614e+01
     vertex  3.228572e+02 -2.953000e+02 -4.248637e+01
   endloop
 endfacet
 facet normal -2.153318e-01  2.872432e-15  9.765410e-01
   outer loop
     vertex  3.235056e+02 -3.546864e+02 -4.216614e+01
     vertex  3.242119e+02 -3.546864e+02 -4.201041e+01
     vertex  3.235056e+02 -2.953000e+02 -4.216614e+01
   endloop
 endfacet
 facet normal -6.444880e-01  5.256568e-15  7.646144e-01
   outer loop
     vertex  3.228572e+02 -3.546864e+02 -4.248637e+01
     vertex  3.228572e+02 -2.953000e+02 -4.248637e+01
     vertex  3.223042e+02 -2.953000e+02 -4.295247e+01
   endloop
 endfacet
 facet normal -4.427762e-01  4.366648e-15  8.966322e-01
   outer loop
     vertex  3.228572e+02 -3.546864e+02 -4.248637e+01
     vertex  3.235056e+02 -3.546864e+02 -4.216614e+01
     vertex  3.228572e+02 -2.953000e+02 -4.248637e+01
   endloop
 endfacet
 facet normal -8.087446e-01  6.474365e-15  5.881600e-01
   outer loop
     vertex  3.223042e+02 -3.546864e+02 -4.295247e+01
     vertex  3.223042e+02 -2.953000e+02 -4.295247e+01
     vertex  3.218788e+02 -2.953000e+02 -4.353738e+01
   endloop
 endfacet
 facet normal -6.444880e-01  5.690490e-15  7.646144e-01
   outer loop
     vertex  3.223042e+02 -3.546864e+02 -4.295247e+01
     vertex  3.228572e+02 -3.546864e+02 -4.248637e+01
     vertex  3.223042e+02 -2.953000e+02 -4.295247e+01
   endloop
 endfacet
 facet normal -8.087446e-01  6.263250e-15  5.881600e-01
   outer loop
     vertex  3.218788e+02 -3.546864e+02 -4.353738e+01
     vertex  3.223042e+02 -3.546864e+02 -4.295247e+01
     vertex  3.218788e+02 -2.953000e+02 -4.353738e+01
   endloop
 endfacet
 facet normal -9.259998e-01  5.860118e-15  3.775239e-01
   outer loop
     vertex  3.216058e+02 -3.546864e+02 -4.420708e+01
     vertex  3.218788e+02 -2.953000e+02 -4.353738e+01
     vertex  3.216058e+02 -2.953000e+02 -4.420708e+01
   endloop
 endfacet
 facet normal -9.894393e-01  5.890530e-15  1.449475e-01
   outer loop
     vertex  3.216058e+02 -3.546864e+02 -4.420708e+01
     vertex  3.216058e+02 -2.953000e+02 -4.420708e+01
     vertex  3.215009e+02 -2.953000e+02 -4.492266e+01
   endloop
 endfacet
 facet normal -9.259998e-01  6.746301e-15  3.775239e-01
   outer loop
     vertex  3.216058e+02 -3.546864e+02 -4.420708e+01
     vertex  3.218788e+02 -3.546864e+02 -4.353738e+01
     vertex  3.218788e+02 -2.953000e+02 -4.353738e+01
   endloop
 endfacet
 facet normal -9.953762e-01  6.496881e-15 -9.605274e-02
   outer loop
     vertex  3.215009e+02 -3.546864e+02 -4.492266e+01
     vertex  3.215009e+02 -2.953000e+02 -4.492266e+01
     vertex  3.215704e+02 -2.953000e+02 -4.564254e+01
   endloop
 endfacet
 facet normal -9.894393e-01  6.889627e-15  1.449475e-01
   outer loop
     vertex  3.215009e+02 -3.546864e+02 -4.492266e+01
     vertex  3.216058e+02 -3.546864e+02 -4.420708e+01
     vertex  3.215009e+02 -2.953000e+02 -4.492266e+01
   endloop
 endfacet
 facet normal -9.953762e-01  6.542851e-15 -9.605274e-02
   outer loop
     vertex  3.215704e+02 -3.546864e+02 -4.564254e+01
     vertex  3.215009e+02 -3.546864e+02 -4.492266e+01
     vertex  3.215704e+02 -2.953000e+02 -4.564254e+01
   endloop
 endfacet
 facet normal -9.434655e-01  5.885323e-15 -3.314707e-01
   outer loop
     vertex  3.218101e+02 -3.546864e+02 -4.632487e+01
     vertex  3.215704e+02 -3.546864e+02 -4.564254e+01
     vertex  3.215704e+02 -2.953000e+02 -4.564254e+01
   endloop
 endfacet
 facet normal -9.434655e-01  4.863154e-15 -3.314707e-01
   outer loop
     vertex  3.218101e+02 -3.546864e+02 -4.632487e+01
     vertex  3.215704e+02 -2.953000e+02 -4.564254e+01
     vertex  3.218101e+02 -2.953000e+02 -4.632487e+01
   endloop
 endfacet
 facet normal -8.367240e-01  3.888058e-15 -5.476249e-01
   outer loop
     vertex  3.218101e+02 -3.546864e+02 -4.632487e+01
     vertex  3.218101e+02 -2.953000e+02 -4.632487e+01
     vertex  3.222062e+02 -2.953000e+02 -4.693000e+01
   endloop
 endfacet
 facet normal -8.367240e-01  4.084624e-15 -5.476249e-01
   outer loop
     vertex  3.222062e+02 -3.546864e+02 -4.693000e+01
     vertex  3.218101e+02 -3.546864e+02 -4.632487e+01
     vertex  3.222062e+02 -2.953000e+02 -4.693000e+01
   endloop
 endfacet
 facet normal -6.813551e-01  2.949731e-15 -7.319531e-01
   outer loop
     vertex  3.222062e+02 -3.546864e+02 -4.693000e+01
     vertex  3.222062e+02 -2.953000e+02 -4.693000e+01
     vertex  3.227356e+02 -2.953000e+02 -4.742277e+01
   endloop
 endfacet
 facet normal -6.813551e-01  3.601910e-15 -7.319531e-01
   outer loop
     vertex  3.227356e+02 -3.546864e+02 -4.742277e+01
     vertex  3.222062e+02 -3.546864e+02 -4.693000e+01
     vertex  3.227356e+02 -2.953000e+02 -4.742277e+01
   endloop
 endfacet
 facet normal -4.863883e-01  2.108972e-15 -8.737428e-01
   outer loop
     vertex  3.227356e+02 -3.546864e+02 -4.742277e+01
     vertex  3.227356e+02 -2.953000e+02 -4.742277e+01
     vertex  3.233675e+02 -2.953000e+02 -4.777454e+01
   endloop
 endfacet
 facet normal -4.863883e-01  1.643411e-15 -8.737428e-01
   outer loop
     vertex  3.233675e+02 -3.546864e+02 -4.777454e+01
     vertex  3.227356e+02 -3.546864e+02 -4.742277e+01
     vertex  3.233675e+02 -2.953000e+02 -4.777454e+01
   endloop
 endfacet
 facet normal -2.631544e-01  2.415823e-16 -9.647537e-01
   outer loop
     vertex  3.233675e+02 -3.546864e+02 -4.777454e+01
     vertex  3.233675e+02 -2.953000e+02 -4.777454e+01
     vertex  3.240652e+02 -2.953000e+02 -4.796486e+01
   endloop
 endfacet
 facet normal -2.631544e-01  1.261521e-16 -9.647537e-01
   outer loop
     vertex  3.240652e+02 -3.546864e+02 -4.796486e+01
     vertex  3.233675e+02 -3.546864e+02 -4.777454e+01
     vertex  3.240652e+02 -2.953000e+02 -4.796486e+01
   endloop
 endfacet
 facet normal -2.462694e-02 -1.293893e-15 -9.996967e-01
   outer loop
     vertex  3.247882e+02 -3.546864e+02 -4.798267e+01
     vertex  3.240652e+02 -3.546864e+02 -4.796486e+01
     vertex  3.240652e+02 -2.953000e+02 -4.796486e+01
   endloop
 endfacet
 facet normal -2.462694e-02 -1.533120e-15 -9.996967e-01
   outer loop
     vertex  3.247882e+02 -3.546864e+02 -4.798267e+01
     vertex  3.240652e+02 -2.953000e+02 -4.796486e+01
     vertex  3.247882e+02 -2.953000e+02 -4.798267e+01
   endloop
 endfacet
 facet normal  2.153318e-01 -3.195383e-15 -9.765410e-01
   outer loop
     vertex  3.254945e+02 -3.546864e+02 -4.782694e+01
     vertex  3.247882e+02 -2.953000e+02 -4.798267e+01
     vertex  3.254945e+02 -2.953000e+02 -4.782694e+01
   endloop
 endfacet
 facet normal  2.153318e-01 -2.872401e-15 -9.765410e-01
   outer loop
     vertex  3.254945e+02 -3.546864e+02 -4.782694e+01
     vertex  3.247882e+02 -3.546864e+02 -4.798267e+01
     vertex  3.247882e+02 -2.953000e+02 -4.798267e+01
   endloop
 endfacet
 facet normal  4.427762e-01 -4.575904e-15 -8.966322e-01
   outer loop
     vertex  3.254945e+02 -3.546864e+02 -4.782694e+01
     vertex  3.254945e+02 -2.953000e+02 -4.782694e+01
     vertex  3.261429e+02 -2.953000e+02 -4.750671e+01
   endloop
 endfacet
 facet normal  4.427762e-01 -4.790463e-15 -8.966322e-01
   outer loop
     vertex  3.261429e+02 -3.546864e+02 -4.750671e+01
     vertex  3.254945e+02 -3.546864e+02 -4.782694e+01
     vertex  3.261429e+02 -2.953000e+02 -4.750671e+01
   endloop
 endfacet
 facet normal  6.444880e-01 -5.256568e-15 -7.646144e-01
   outer loop
     vertex  3.266959e+02 -3.546864e+02 -4.704061e+01
     vertex  3.261429e+02 -2.953000e+02 -4.750671e+01
     vertex  3.266959e+02 -2.953000e+02 -4.704061e+01
   endloop
 endfacet
 facet normal  6.444880e-01 -5.874090e-15 -7.646144e-01
   outer loop
     vertex  3.266959e+02 -3.546864e+02 -4.704061e+01
     vertex  3.261429e+02 -3.546864e+02 -4.750671e+01
     vertex  3.261429e+02 -2.953000e+02 -4.750671e+01
   endloop
 endfacet
 facet normal  8.087446e-01 -6.474365e-15 -5.881600e-01
   outer loop
     vertex  3.271213e+02 -3.546864e+02 -4.645570e+01
     vertex  3.266959e+02 -2.953000e+02 -4.704061e+01
     vertex  3.271213e+02 -2.953000e+02 -4.645570e+01
   endloop
 endfacet
 facet normal  8.087446e-01 -5.840804e-15 -5.881600e-01
   outer loop
     vertex  3.271213e+02 -3.546864e+02 -4.645570e+01
     vertex  3.266959e+02 -3.546864e+02 -4.704061e+01
     vertex  3.266959e+02 -2.953000e+02 -4.704061e+01
   endloop
 endfacet
 facet normal  9.259998e-01 -6.881974e-15 -3.775239e-01
   outer loop
     vertex  3.273943e+02 -3.546864e+02 -4.578600e+01
     vertex  3.271213e+02 -2.953000e+02 -4.645570e+01
     vertex  3.273943e+02 -2.953000e+02 -4.578600e+01
   endloop
 endfacet
 facet normal  9.259998e-01 -6.881786e-15 -3.775239e-01
   outer loop
     vertex  3.273943e+02 -3.546864e+02 -4.578600e+01
     vertex  3.271213e+02 -3.546864e+02 -4.645570e+01
     vertex  3.271213e+02 -2.953000e+02 -4.645570e+01
   endloop
 endfacet
 facet normal  9.894393e-01 -5.821160e-15 -1.449475e-01
   outer loop
     vertex  3.274991e+02 -3.546864e+02 -4.507042e+01
     vertex  3.273943e+02 -2.953000e+02 -4.578600e+01
     vertex  3.274991e+02 -2.953000e+02 -4.507042e+01
   endloop
 endfacet
 facet normal  9.953762e-01 -5.624575e-15  9.605274e-02
   outer loop
     vertex  3.274991e+02 -3.546864e+02 -4.507042e+01
     vertex  3.274991e+02 -2.953000e+02 -4.507042e+01
     vertex  3.274297e+02 -2.953000e+02 -4.435054e+01
   endloop
 endfacet
 facet normal  9.894393e-01 -6.889751e-15 -1.449475e-01
   outer loop
     vertex  3.274991e+02 -3.546864e+02 -4.507042e+01
     vertex  3.273943e+02 -3.546864e+02 -4.578600e+01
     vertex  3.273943e+02 -2.953000e+02 -4.578600e+01
   endloop
 endfacet
 facet normal  9.953762e-01 -5.521143e-15  9.605274e-02
   outer loop
     vertex  3.274297e+02 -3.546864e+02 -4.435054e+01
     vertex  3.274991e+02 -3.546864e+02 -4.507042e+01
     vertex  3.274297e+02 -2.953000e+02 -4.435054e+01
   endloop
 endfacet
 facet normal  9.434655e-01 -5.885197e-15  3.314707e-01
   outer loop
     vertex  3.271899e+02 -3.546864e+02 -4.366821e+01
     vertex  3.274297e+02 -2.953000e+02 -4.435054e+01
     vertex  3.271899e+02 -2.953000e+02 -4.366821e+01
   endloop
 endfacet
 facet normal  9.434655e-01 -4.744281e-15  3.314707e-01
   outer loop
     vertex  3.271899e+02 -3.546864e+02 -4.366821e+01
     vertex  3.274297e+02 -3.546864e+02 -4.435054e+01
     vertex  3.274297e+02 -2.953000e+02 -4.435054e+01
   endloop
 endfacet
 facet normal  8.367240e-01 -4.885232e-15  5.476249e-01
   outer loop
     vertex  3.267939e+02 -3.546864e+02 -4.306308e+01
     vertex  3.271899e+02 -3.546864e+02 -4.366821e+01
     vertex  3.271899e+02 -2.953000e+02 -4.366821e+01
   endloop
 endfacet
 facet normal  8.367240e-01 -4.819996e-15  5.476249e-01
   outer loop
     vertex  3.267939e+02 -3.546864e+02 -4.306308e+01
     vertex  3.271899e+02 -2.953000e+02 -4.366821e+01
     vertex  3.267939e+02 -2.953000e+02 -4.306308e+01
   endloop
 endfacet
 facet normal  0.000000e+00 -1.000000e+00  0.000000e+00
   outer loop
     vertex  3.263248e+02 -3.553000e+02 -4.345844e+01
     vertex  3.268306e+02 -3.553000e+02 -4.448264e+01
     vertex  3.266399e+02 -3.553000e+02 -4.393983e+01
   endloop
 endfacet
 facet normal  0.000000e+00 -1.000000e+00  0.000000e+00
   outer loop
     vertex  3.258070e+02 -3.553000e+02 -4.699342e+01
     vertex  3.262469e+02 -3.553000e+02 -4.662263e+01
     vertex  3.265853e+02 -3.553000e+02 -4.615733e+01
   endloop
 endfacet
 facet normal  0.000000e+00 -1.000000e+00  0.000000e+00
   outer loop
     vertex  3.248460e+02 -3.553000e+02 -4.263519e+01
     vertex  3.259037e+02 -3.553000e+02 -4.306643e+01
     vertex  3.254010e+02 -3.553000e+02 -4.278660e+01
   endloop
 endfacet
 facet normal  0.000000e+00 -1.000000e+00  0.000000e+00
   outer loop
     vertex  3.248460e+02 -3.553000e+02 -4.263519e+01
     vertex  3.263248e+02 -3.553000e+02 -4.345844e+01
     vertex  3.259037e+02 -3.553000e+02 -4.306643e+01
   endloop
 endfacet
 facet normal  0.000000e+00 -1.000000e+00  0.000000e+00
   outer loop
     vertex  3.248460e+02 -3.553000e+02 -4.263519e+01
     vertex  3.268859e+02 -3.553000e+02 -4.505531e+01
     vertex  3.268306e+02 -3.553000e+02 -4.448264e+01
   endloop
 endfacet
 facet normal  0.000000e+00 -1.000000e+00  0.000000e+00
   outer loop
     vertex  3.248460e+02 -3.553000e+02 -4.263519e+01
     vertex  3.268025e+02 -3.553000e+02 -4.562457e+01
     vertex  3.268859e+02 -3.553000e+02 -4.505531e+01
   endloop
 endfacet
 facet normal  0.000000e+00 -1.000000e+00  0.000000e+00
   outer loop
     vertex  3.248460e+02 -3.553000e+02 -4.263519e+01
     vertex  3.268306e+02 -3.553000e+02 -4.448264e+01
     vertex  3.263248e+02 -3.553000e+02 -4.345844e+01
   endloop
 endfacet
 facet normal -1.016716e-14 -1.000000e+00 -4.127220e-13
   outer loop
     vertex  3.235991e+02 -3.553000e+02 -4.720648e+01
     vertex  3.241541e+02 -3.553000e+02 -4.735789e+01
     vertex  3.247293e+02 -3.553000e+02 -4.737206e+01
   endloop
 endfacet
 facet normal  1.016716e-14 -1.000000e+00  4.127220e-13
   outer loop
     vertex  3.237090e+02 -3.553000e+02 -4.274491e+01
     vertex  3.248460e+02 -3.553000e+02 -4.263519e+01
     vertex  3.242708e+02 -3.553000e+02 -4.262102e+01
   endloop
 endfacet
 facet normal  1.214726e-14 -1.000000e+00 -4.952355e-15
   outer loop
     vertex  3.231931e+02 -3.553000e+02 -4.299966e+01
     vertex  3.265853e+02 -3.553000e+02 -4.615733e+01
     vertex  3.268025e+02 -3.553000e+02 -4.562457e+01
   endloop
 endfacet
 facet normal  3.005370e-14 -1.000000e+00  1.966976e-14
   outer loop
     vertex  3.231931e+02 -3.553000e+02 -4.299966e+01
     vertex  3.268025e+02 -3.553000e+02 -4.562457e+01
     vertex  3.248460e+02 -3.553000e+02 -4.263519e+01
   endloop
 endfacet
 facet normal  6.213668e-14 -1.000000e+00 -1.258282e-13
   outer loop
     vertex  3.231931e+02 -3.553000e+02 -4.299966e+01
     vertex  3.248460e+02 -3.553000e+02 -4.263519e+01
     vertex  3.237090e+02 -3.553000e+02 -4.274491e+01
   endloop
 endfacet
 facet normal  0.000000e+00 -1.000000e+00  0.000000e+00
   outer loop
     vertex  3.223602e+02 -3.553000e+02 -4.605325e+01
     vertex  3.230964e+02 -3.553000e+02 -4.692665e+01
     vertex  3.235991e+02 -3.553000e+02 -4.720648e+01
   endloop
 endfacet
 facet normal  0.000000e+00 -1.000000e+00  0.000000e+00
   outer loop
     vertex  3.223602e+02 -3.553000e+02 -4.605325e+01
     vertex  3.226752e+02 -3.553000e+02 -4.653464e+01
     vertex  3.230964e+02 -3.553000e+02 -4.692665e+01
   endloop
 endfacet
 facet normal  0.000000e+00 -1.000000e+00  0.000000e+00
   outer loop
     vertex  3.224148e+02 -3.553000e+02 -4.383575e+01
     vertex  3.231931e+02 -3.553000e+02 -4.299966e+01
     vertex  3.227532e+02 -3.553000e+02 -4.337045e+01
   endloop
 endfacet
 facet normal  5.808333e-15 -1.000000e+00 -1.176201e-14
   outer loop
     vertex  3.224148e+02 -3.553000e+02 -4.383575e+01
     vertex  3.252911e+02 -3.553000e+02 -4.724817e+01
     vertex  3.258070e+02 -3.553000e+02 -4.699342e+01
   endloop
 endfacet
 facet normal  8.977795e-15 -1.000000e+00 -8.357184e-15
   outer loop
     vertex  3.224148e+02 -3.553000e+02 -4.383575e+01
     vertex  3.258070e+02 -3.553000e+02 -4.699342e+01
     vertex  3.265853e+02 -3.553000e+02 -4.615733e+01
   endloop
 endfacet
 facet normal  8.977795e-15 -1.000000e+00 -8.357184e-15
   outer loop
     vertex  3.224148e+02 -3.553000e+02 -4.383575e+01
     vertex  3.265853e+02 -3.553000e+02 -4.615733e+01
     vertex  3.231931e+02 -3.553000e+02 -4.299966e+01
   endloop
 endfacet
 facet normal  0.000000e+00 -1.000000e+00  0.000000e+00
   outer loop
     vertex  3.221142e+02 -3.553000e+02 -4.493777e+01
     vertex  3.221695e+02 -3.553000e+02 -4.551044e+01
     vertex  3.223602e+02 -3.553000e+02 -4.605325e+01
   endloop
 endfacet
 facet normal  0.000000e+00 -1.000000e+00  0.000000e+00
   outer loop
     vertex  3.221142e+02 -3.553000e+02 -4.493777e+01
     vertex  3.224148e+02 -3.553000e+02 -4.383575e+01
     vertex  3.221976e+02 -3.553000e+02 -4.436851e+01
   endloop
 endfacet
 facet normal  4.162923e-15 -1.000000e+00 -1.887908e-14
   outer loop
     vertex  3.221142e+02 -3.553000e+02 -4.493777e+01
     vertex  3.247293e+02 -3.553000e+02 -4.737206e+01
     vertex  3.252911e+02 -3.553000e+02 -4.724817e+01
   endloop
 endfacet
 facet normal  5.562790e-14 -1.000000e+00  3.640774e-14
   outer loop
     vertex  3.221142e+02 -3.553000e+02 -4.493777e+01
     vertex  3.235991e+02 -3.553000e+02 -4.720648e+01
     vertex  3.247293e+02 -3.553000e+02 -4.737206e+01
   endloop
 endfacet
 facet normal  0.000000e+00 -1.000000e+00  0.000000e+00
   outer loop
     vertex  3.221142e+02 -3.553000e+02 -4.493777e+01
     vertex  3.223602e+02 -3.553000e+02 -4.605325e+01
     vertex  3.235991e+02 -3.553000e+02 -4.720648e+01
   endloop
 endfacet
 facet normal  1.493089e-14 -1.000000e+00 -4.072676e-15
   outer loop
     vertex  3.221142e+02 -3.553000e+02 -4.493777e+01
     vertex  3.252911e+02 -3.553000e+02 -4.724817e+01
     vertex  3.224148e+02 -3.553000e+02 -4.383575e+01
   endloop
 endfacet
 facet normal -1.443213e-01  7.985511e-01 -5.843693e-01
   outer loop
     vertex  3.241082e+02 -2.914095e+02 -5.017150e+01
     vertex  3.228004e+02 -2.912999e+02 -4.969879e+01
     vertex  3.238152e+02 -2.912999e+02 -4.994941e+01
   endloop
 endfacet
 facet normal -1.498206e-02  8.887142e-01 -4.582168e-01
   outer loop
     vertex  3.248599e+02 -2.912999e+02 -4.998357e+01
     vertex  3.241082e+02 -2.914095e+02 -5.017150e+01
     vertex  3.238152e+02 -2.912999e+02 -4.994941e+01
   endloop
 endfacet
 facet normal  8.563380e-02  8.733963e-01 -4.794222e-01
   outer loop
     vertex  3.255152e+02 -2.917465e+02 -5.068009e+01
     vertex  3.248599e+02 -2.912999e+02 -4.998357e+01
     vertex  3.258889e+02 -2.912999e+02 -4.979977e+01
   endloop
 endfacet
 facet normal  9.953976e-03  8.460131e-01 -5.330693e-01
   outer loop
     vertex  3.255152e+02 -2.917465e+02 -5.068009e+01
     vertex  3.241082e+02 -2.914095e+02 -5.017150e+01
     vertex  3.248599e+02 -2.912999e+02 -4.998357e+01
   endloop
 endfacet
 facet normal  1.752060e-01  8.460131e-01 -5.035521e-01
   outer loop
     vertex  3.266592e+02 -2.914095e+02 -4.971583e+01
     vertex  3.255152e+02 -2.917465e+02 -5.068009e+01
     vertex  3.258889e+02 -2.912999e+02 -4.979977e+01
   endloop
 endfacet
 facet normal  1.726868e-01  8.887142e-01 -4.246956e-01
   outer loop
     vertex  3.268572e+02 -2.912999e+02 -4.940605e+01
     vertex  3.266592e+02 -2.914095e+02 -4.971583e+01
     vertex  3.258889e+02 -2.912999e+02 -4.979977e+01
   endloop
 endfacet
 facet normal  3.377012e-01  7.985511e-01 -4.982711e-01
   outer loop
     vertex  3.277225e+02 -2.912999e+02 -4.881961e+01
     vertex  3.266592e+02 -2.914095e+02 -4.971583e+01
     vertex  3.268572e+02 -2.912999e+02 -4.940605e+01
   endloop
 endfacet
 facet normal  4.339180e-01  7.985511e-01 -4.171706e-01
   outer loop
     vertex  3.287857e+02 -2.914095e+02 -4.792339e+01
     vertex  3.277225e+02 -2.912999e+02 -4.881961e+01
     vertex  3.284469e+02 -2.912999e+02 -4.806609e+01
   endloop
 endfacet
 facet normal  3.893363e-01  8.887142e-01 -2.420832e-01
   outer loop
     vertex  3.289989e+02 -2.912999e+02 -4.717841e+01
     vertex  3.287857e+02 -2.914095e+02 -4.792339e+01
     vertex  3.284469e+02 -2.912999e+02 -4.806609e+01
   endloop
 endfacet
 facet normal  4.580087e-01  8.733963e-01 -1.655501e-01
   outer loop
     vertex  3.299297e+02 -2.917465e+02 -4.695914e+01
     vertex  3.289989e+02 -2.912999e+02 -4.717841e+01
     vertex  3.293542e+02 -2.912999e+02 -4.619537e+01
   endloop
 endfacet
 facet normal  4.666285e-01  8.460131e-01 -2.579142e-01
   outer loop
     vertex  3.299297e+02 -2.917465e+02 -4.695914e+01
     vertex  3.287857e+02 -2.914095e+02 -4.792339e+01
     vertex  3.289989e+02 -2.912999e+02 -4.717841e+01
   endloop
 endfacet
 facet normal  5.236920e-01  8.460131e-01 -1.000432e-01
   outer loop
     vertex  3.296667e+02 -2.914095e+02 -4.548629e+01
     vertex  3.299297e+02 -2.917465e+02 -4.695914e+01
     vertex  3.293542e+02 -2.912999e+02 -4.619537e+01
   endloop
 endfacet
 facet normal  4.541405e-01  8.887142e-01 -6.279668e-02
   outer loop
     vertex  3.294974e+02 -2.912999e+02 -4.515993e+01
     vertex  3.296667e+02 -2.914095e+02 -4.548629e+01
     vertex  3.293542e+02 -2.912999e+02 -4.619537e+01
   endloop
 endfacet
 facet normal  6.003660e-01  7.985511e-01  4.332230e-02
   outer loop
     vertex  3.294221e+02 -2.912999e+02 -4.411736e+01
     vertex  3.296667e+02 -2.914095e+02 -4.548629e+01
     vertex  3.294974e+02 -2.912999e+02 -4.515993e+01
   endloop
 endfacet
 facet normal -5.782394e-01  7.985511e-01 -1.671987e-01
   outer loop
     vertex  3.198225e+02 -2.914095e+02 -4.724465e+01
     vertex  3.195779e+02 -2.912999e+02 -4.587572e+01
     vertex  3.198683e+02 -2.912999e+02 -4.687987e+01
   endloop
 endfacet
 facet normal -4.043184e-01  8.887142e-01 -2.161335e-01
   outer loop
     vertex  3.203611e+02 -2.912999e+02 -4.780171e+01
     vertex  3.198225e+02 -2.914095e+02 -4.724465e+01
     vertex  3.198683e+02 -2.912999e+02 -4.687987e+01
   endloop
 endfacet
 facet normal -3.723749e-01  8.733963e-01 -3.138722e-01
   outer loop
     vertex  3.200855e+02 -2.917465e+02 -4.871749e+01
     vertex  3.203611e+02 -2.912999e+02 -4.780171e+01
     vertex  3.210347e+02 -2.912999e+02 -4.860095e+01
   endloop
 endfacet
 facet normal -4.566745e-01  8.460131e-01 -2.751550e-01
   outer loop
     vertex  3.200855e+02 -2.917465e+02 -4.871749e+01
     vertex  3.198225e+02 -2.914095e+02 -4.724465e+01
     vertex  3.203611e+02 -2.912999e+02 -4.780171e+01
   endloop
 endfacet
 facet normal -3.484859e-01  8.460131e-01 -4.035090e-01
   outer loop
     vertex  3.214926e+02 -2.914095e+02 -4.922608e+01
     vertex  3.200855e+02 -2.917465e+02 -4.871749e+01
     vertex  3.210347e+02 -2.912999e+02 -4.860095e+01
   endloop
 endfacet
 facet normal -2.814538e-01  8.887142e-01 -3.618989e-01
   outer loop
     vertex  3.218599e+02 -2.912999e+02 -4.924266e+01
     vertex  3.214926e+02 -2.914095e+02 -4.922608e+01
     vertex  3.210347e+02 -2.912999e+02 -4.860095e+01
   endloop
 endfacet
 facet normal -2.626648e-01  7.985511e-01 -5.415934e-01
   outer loop
     vertex  3.228004e+02 -2.912999e+02 -4.969879e+01
     vertex  3.214926e+02 -2.914095e+02 -4.922608e+01
     vertex  3.218599e+02 -2.912999e+02 -4.924266e+01
   endloop
 endfacet
 facet normal  5.782394e-01  7.985511e-01  1.671987e-01
   outer loop
     vertex  3.291776e+02 -2.914095e+02 -4.274843e+01
     vertex  3.294221e+02 -2.912999e+02 -4.411736e+01
     vertex  3.291318e+02 -2.912999e+02 -4.311321e+01
   endloop
 endfacet
 facet normal  4.043184e-01  8.887142e-01  2.161335e-01
   outer loop
     vertex  3.286390e+02 -2.912999e+02 -4.219137e+01
     vertex  3.291776e+02 -2.914095e+02 -4.274843e+01
     vertex  3.291318e+02 -2.912999e+02 -4.311321e+01
   endloop
 endfacet
 facet normal  3.723749e-01  8.733963e-01  3.138722e-01
   outer loop
     vertex  3.289145e+02 -2.917465e+02 -4.127559e+01
     vertex  3.286390e+02 -2.912999e+02 -4.219137e+01
     vertex  3.279653e+02 -2.912999e+02 -4.139213e+01
   endloop
 endfacet
 facet normal  4.566745e-01  8.460131e-01  2.751550e-01
   outer loop
     vertex  3.289145e+02 -2.917465e+02 -4.127559e+01
     vertex  3.291776e+02 -2.914095e+02 -4.274843e+01
     vertex  3.286390e+02 -2.912999e+02 -4.219137e+01
   endloop
 endfacet
 facet normal  3.484859e-01  8.460131e-01  4.035090e-01
   outer loop
     vertex  3.275075e+02 -2.914095e+02 -4.076700e+01
     vertex  3.289145e+02 -2.917465e+02 -4.127559e+01
     vertex  3.279653e+02 -2.912999e+02 -4.139213e+01
   endloop
 endfacet
 facet normal  2.814538e-01  8.887142e-01  3.618989e-01
   outer loop
     vertex  3.271402e+02 -2.912999e+02 -4.075042e+01
     vertex  3.275075e+02 -2.914095e+02 -4.076700e+01
     vertex  3.279653e+02 -2.912999e+02 -4.139213e+01
   endloop
 endfacet
 facet normal  2.626648e-01  7.985511e-01  5.415934e-01
   outer loop
     vertex  3.261997e+02 -2.912999e+02 -4.029429e+01
     vertex  3.275075e+02 -2.914095e+02 -4.076700e+01
     vertex  3.271402e+02 -2.912999e+02 -4.075042e+01
   endloop
 endfacet
 facet normal -4.339180e-01  7.985511e-01  4.171706e-01
   outer loop
     vertex  3.202143e+02 -2.914095e+02 -4.206969e+01
     vertex  3.212776e+02 -2.912999e+02 -4.117347e+01
     vertex  3.205532e+02 -2.912999e+02 -4.192699e+01
   endloop
 endfacet
 facet normal -3.893363e-01  8.887142e-01  2.420832e-01
   outer loop
     vertex  3.200012e+02 -2.912999e+02 -4.281467e+01
     vertex  3.202143e+02 -2.914095e+02 -4.206969e+01
     vertex  3.205532e+02 -2.912999e+02 -4.192699e+01
   endloop
 endfacet
 facet normal -4.580087e-01  8.733963e-01  1.655501e-01
   outer loop
     vertex  3.190703e+02 -2.917465e+02 -4.303394e+01
     vertex  3.200012e+02 -2.912999e+02 -4.281467e+01
     vertex  3.196459e+02 -2.912999e+02 -4.379771e+01
   endloop
 endfacet
 facet normal -4.666285e-01  8.460131e-01  2.579142e-01
   outer loop
     vertex  3.190703e+02 -2.917465e+02 -4.303394e+01
     vertex  3.202143e+02 -2.914095e+02 -4.206969e+01
     vertex  3.200012e+02 -2.912999e+02 -4.281467e+01
   endloop
 endfacet
 facet normal -5.236920e-01  8.460131e-01  1.000432e-01
   outer loop
     vertex  3.193334e+02 -2.914095e+02 -4.450679e+01
     vertex  3.190703e+02 -2.917465e+02 -4.303394e+01
     vertex  3.196459e+02 -2.912999e+02 -4.379771e+01
   endloop
 endfacet
 facet normal -4.541405e-01  8.887142e-01  6.279668e-02
   outer loop
     vertex  3.195027e+02 -2.912999e+02 -4.483315e+01
     vertex  3.193334e+02 -2.914095e+02 -4.450679e+01
     vertex  3.196459e+02 -2.912999e+02 -4.379771e+01
   endloop
 endfacet
 facet normal -6.003660e-01  7.985511e-01 -4.332230e-02
   outer loop
     vertex  3.195779e+02 -2.912999e+02 -4.587572e+01
     vertex  3.193334e+02 -2.914095e+02 -4.450679e+01
     vertex  3.195027e+02 -2.912999e+02 -4.483315e+01
   endloop
 endfacet
 facet normal  1.443213e-01  7.985511e-01  5.843693e-01
   outer loop
     vertex  3.248919e+02 -2.914095e+02 -3.982158e+01
     vertex  3.261997e+02 -2.912999e+02 -4.029429e+01
     vertex  3.251849e+02 -2.912999e+02 -4.004367e+01
   endloop
 endfacet
 facet normal  1.498206e-02  8.887142e-01  4.582168e-01
   outer loop
     vertex  3.241402e+02 -2.912999e+02 -4.000951e+01
     vertex  3.248919e+02 -2.914095e+02 -3.982158e+01
     vertex  3.251849e+02 -2.912999e+02 -4.004367e+01
   endloop
 endfacet
 facet normal -8.563380e-02  8.733963e-01  4.794222e-01
   outer loop
     vertex  3.234849e+02 -2.917465e+02 -3.931299e+01
     vertex  3.241402e+02 -2.912999e+02 -4.000951e+01
     vertex  3.231112e+02 -2.912999e+02 -4.019331e+01
   endloop
 endfacet
 facet normal -9.953976e-03  8.460131e-01  5.330693e-01
   outer loop
     vertex  3.234849e+02 -2.917465e+02 -3.931299e+01
     vertex  3.248919e+02 -2.914095e+02 -3.982158e+01
     vertex  3.241402e+02 -2.912999e+02 -4.000951e+01
   endloop
 endfacet
 facet normal -1.752060e-01  8.460131e-01  5.035521e-01
   outer loop
     vertex  3.223409e+02 -2.914095e+02 -4.027725e+01
     vertex  3.234849e+02 -2.917465e+02 -3.931299e+01
     vertex  3.231112e+02 -2.912999e+02 -4.019331e+01
   endloop
 endfacet
 facet normal -1.726868e-01  8.887142e-01  4.246956e-01
   outer loop
     vertex  3.221429e+02 -2.912999e+02 -4.058703e+01
     vertex  3.223409e+02 -2.914095e+02 -4.027725e+01
     vertex  3.231112e+02 -2.912999e+02 -4.019331e+01
   endloop
 endfacet
 facet normal -3.377012e-01  7.985511e-01  4.982711e-01
   outer loop
     vertex  3.212776e+02 -2.912999e+02 -4.117347e+01
     vertex  3.223409e+02 -2.914095e+02 -4.027725e+01
     vertex  3.221429e+02 -2.912999e+02 -4.058703e+01
   endloop
 endfacet
 facet normal -6.444880e-01  1.065658e-14  7.646144e-01
   outer loop
     vertex  3.223409e+02 -2.914095e+02 -4.027725e+01
     vertex  3.234849e+02 -2.947999e+02 -3.931299e+01
     vertex  3.234849e+02 -2.917465e+02 -3.931299e+01
   endloop
 endfacet
 facet normal -6.444880e-01  7.544396e-15  7.646144e-01
   outer loop
     vertex  3.212776e+02 -2.912999e+02 -4.117347e+01
     vertex  3.190703e+02 -2.947999e+02 -4.303394e+01
     vertex  3.234849e+02 -2.947999e+02 -3.931299e+01
   endloop
 endfacet
 facet normal -6.444880e-01  3.082293e-15  7.646144e-01
   outer loop
     vertex  3.212776e+02 -2.912999e+02 -4.117347e+01
     vertex  3.234849e+02 -2.947999e+02 -3.931299e+01
     vertex  3.223409e+02 -2.914095e+02 -4.027725e+01
   endloop
 endfacet
 facet normal -6.444880e-01 -6.691766e-15  7.646144e-01
   outer loop
     vertex  3.202143e+02 -2.914095e+02 -4.206969e+01
     vertex  3.190703e+02 -2.947999e+02 -4.303394e+01
     vertex  3.212776e+02 -2.912999e+02 -4.117347e+01
   endloop
 endfacet
 facet normal -6.444880e-01  8.439420e-15  7.646144e-01
   outer loop
     vertex  3.190703e+02 -2.917465e+02 -4.303394e+01
     vertex  3.190703e+02 -2.947999e+02 -4.303394e+01
     vertex  3.202143e+02 -2.914095e+02 -4.206969e+01
   endloop
 endfacet
 facet normal -9.844195e-01  1.914463e-14 -1.758358e-01
   outer loop
     vertex  3.190703e+02 -2.947999e+02 -4.303394e+01
     vertex  3.190703e+02 -2.917465e+02 -4.303394e+01
     vertex  3.193334e+02 -2.914095e+02 -4.450679e+01
   endloop
 endfacet
 facet normal -9.844195e-01  7.120893e-15 -1.758358e-01
   outer loop
     vertex  3.190703e+02 -2.947999e+02 -4.303394e+01
     vertex  3.193334e+02 -2.914095e+02 -4.450679e+01
     vertex  3.195779e+02 -2.912999e+02 -4.587572e+01
   endloop
 endfacet
 facet normal -9.844195e-01  1.280433e-14 -1.758358e-01
   outer loop
     vertex  3.200855e+02 -2.947999e+02 -4.871749e+01
     vertex  3.195779e+02 -2.912999e+02 -4.587572e+01
     vertex  3.198225e+02 -2.914095e+02 -4.724465e+01
   endloop
 endfacet
 facet normal -9.844195e-01  1.914463e-14 -1.758358e-01
   outer loop
     vertex  3.200855e+02 -2.947999e+02 -4.871749e+01
     vertex  3.198225e+02 -2.914095e+02 -4.724465e+01
     vertex  3.200855e+02 -2.917465e+02 -4.871749e+01
   endloop
 endfacet
 facet normal -9.844195e-01  7.458630e-15 -1.758358e-01
   outer loop
     vertex  3.200855e+02 -2.947999e+02 -4.871749e+01
     vertex  3.190703e+02 -2.947999e+02 -4.303394e+01
     vertex  3.195779e+02 -2.912999e+02 -4.587572e+01
   endloop
 endfacet
 facet normal -3.399315e-01 -7.803471e-15 -9.404502e-01
   outer loop
     vertex  3.255152e+02 -2.947999e+02 -5.068009e+01
     vertex  3.228004e+02 -2.912999e+02 -4.969879e+01
     vertex  3.241082e+02 -2.914095e+02 -5.017150e+01
   endloop
 endfacet
 facet normal -3.399315e-01  0.000000e+00 -9.404502e-01
   outer loop
     vertex  3.255152e+02 -2.947999e+02 -5.068009e+01
     vertex  3.241082e+02 -2.914095e+02 -5.017150e+01
     vertex  3.255152e+02 -2.917465e+02 -5.068009e+01
   endloop
 endfacet
 facet normal -3.399315e-01  1.070521e-14 -9.404502e-01
   outer loop
     vertex  3.200855e+02 -2.947999e+02 -4.871749e+01
     vertex  3.200855e+02 -2.917465e+02 -4.871749e+01
     vertex  3.214926e+02 -2.914095e+02 -4.922608e+01
   endloop
 endfacet
 facet normal -3.399315e-01  1.747703e-14 -9.404502e-01
   outer loop
     vertex  3.200855e+02 -2.947999e+02 -4.871749e+01
     vertex  3.214926e+02 -2.914095e+02 -4.922608e+01
     vertex  3.228004e+02 -2.912999e+02 -4.969879e+01
   endloop
 endfacet
 facet normal -3.399315e-01  2.777729e-15 -9.404502e-01
   outer loop
     vertex  3.200855e+02 -2.947999e+02 -4.871749e+01
     vertex  3.228004e+02 -2.912999e+02 -4.969879e+01
     vertex  3.255152e+02 -2.947999e+02 -5.068009e+01
   endloop
 endfacet
 facet normal  3.376304e-14 -1.000000e+00  4.872726e-14
   outer loop
     vertex  3.287835e+02 -2.947999e+02 -4.616495e+01
     vertex  3.299297e+02 -2.947999e+02 -4.695914e+01
     vertex  3.289387e+02 -2.947999e+02 -4.510588e+01
   endloop
 endfacet
 facet normal -6.998684e-14 -1.000000e+00 -6.753655e-15
   outer loop
     vertex  3.288359e+02 -2.947999e+02 -4.404047e+01
     vertex  3.289387e+02 -2.947999e+02 -4.510588e+01
     vertex  3.299297e+02 -2.947999e+02 -4.695914e+01
   endloop
 endfacet
 facet normal -4.829982e-14 -1.000000e+00  1.374142e-15
   outer loop
     vertex  3.289145e+02 -2.947999e+02 -4.127559e+01
     vertex  3.288359e+02 -2.947999e+02 -4.404047e+01
     vertex  3.299297e+02 -2.947999e+02 -4.695914e+01
   endloop
 endfacet
 facet normal -3.098508e-14 -1.000000e+00 -4.471807e-14
   outer loop
     vertex  3.283795e+02 -2.947999e+02 -4.715610e+01
     vertex  3.299297e+02 -2.947999e+02 -4.695914e+01
     vertex  3.287835e+02 -2.947999e+02 -4.616495e+01
   endloop
 endfacet
 facet normal  0.000000e+00 -1.000000e+00  0.000000e+00
   outer loop
     vertex  3.284811e+02 -2.947999e+02 -4.303061e+01
     vertex  3.288359e+02 -2.947999e+02 -4.404047e+01
     vertex  3.289145e+02 -2.947999e+02 -4.127559e+01
   endloop
 endfacet
 facet normal -4.039963e-14 -1.000000e+00  2.938066e-14
   outer loop
     vertex  3.277499e+02 -2.947999e+02 -4.802176e+01
     vertex  3.299297e+02 -2.947999e+02 -4.695914e+01
     vertex  3.283795e+02 -2.947999e+02 -4.715610e+01
   endloop
 endfacet
 facet normal  0.000000e+00 -1.000000e+00  0.000000e+00
   outer loop
     vertex  3.278949e+02 -2.947999e+02 -4.213501e+01
     vertex  3.284811e+02 -2.947999e+02 -4.303061e+01
     vertex  3.289145e+02 -2.947999e+02 -4.127559e+01
   endloop
 endfacet
 facet normal  0.000000e+00 -1.000000e+00  0.000000e+00
   outer loop
     vertex  3.271115e+02 -2.947999e+02 -4.140571e+01
     vertex  3.278949e+02 -2.947999e+02 -4.213501e+01
     vertex  3.289145e+02 -2.947999e+02 -4.127559e+01
   endloop
 endfacet
 facet normal  2.211822e-14 -1.000000e+00 -4.478992e-14
   outer loop
     vertex  3.255152e+02 -2.947999e+02 -5.068009e+01
     vertex  3.269315e+02 -2.947999e+02 -4.871159e+01
     vertex  3.259718e+02 -2.947999e+02 -4.918553e+01
   endloop
 endfacet
 facet normal  6.184436e-14 -1.000000e+00 -7.337155e-14
   outer loop
     vertex  3.255152e+02 -2.947999e+02 -5.068009e+01
     vertex  3.277499e+02 -2.947999e+02 -4.802176e+01
     vertex  3.269315e+02 -2.947999e+02 -4.871159e+01
   endloop
 endfacet
 facet normal -2.652163e-14 -1.000000e+00  9.118540e-16
   outer loop
     vertex  3.255152e+02 -2.947999e+02 -5.068009e+01
     vertex  3.299297e+02 -2.947999e+02 -4.695914e+01
     vertex  3.277499e+02 -2.947999e+02 -4.802176e+01
   endloop
 endfacet
 facet normal  0.000000e+00 -1.000000e+00  0.000000e+00
   outer loop
     vertex  3.261762e+02 -2.947999e+02 -4.088510e+01
     vertex  3.271115e+02 -2.947999e+02 -4.140571e+01
     vertex  3.289145e+02 -2.947999e+02 -4.127559e+01
   endloop
 endfacet
 facet normal  8.992254e-15 -1.000000e+00 -4.078035e-14
   outer loop
     vertex  3.249265e+02 -2.947999e+02 -4.941601e+01
     vertex  3.255152e+02 -2.947999e+02 -5.068009e+01
     vertex  3.259718e+02 -2.947999e+02 -4.918553e+01
   endloop
 endfacet
 facet normal  5.261857e-14 -1.000000e+00 -2.046244e-14
   outer loop
     vertex  3.238565e+02 -2.947999e+02 -4.938965e+01
     vertex  3.255152e+02 -2.947999e+02 -5.068009e+01
     vertex  3.249265e+02 -2.947999e+02 -4.941601e+01
   endloop
 endfacet
 facet normal -3.700580e-14 -1.000000e+00 -1.356674e-13
   outer loop
     vertex  3.228238e+02 -2.947999e+02 -4.910798e+01
     vertex  3.255152e+02 -2.947999e+02 -5.068009e+01
     vertex  3.238565e+02 -2.947999e+02 -4.938965e+01
   endloop
 endfacet
 facet normal  0.000000e+00 -1.000000e+00  0.000000e+00
   outer loop
     vertex  3.234849e+02 -2.947999e+02 -3.931299e+01
     vertex  3.251436e+02 -2.947999e+02 -4.060343e+01
     vertex  3.261762e+02 -2.947999e+02 -4.088510e+01
   endloop
 endfacet
 facet normal -5.485982e-14 -1.000000e+00 -7.051793e-14
   outer loop
     vertex  3.234849e+02 -2.947999e+02 -3.931299e+01
     vertex  3.240736e+02 -2.947999e+02 -4.057707e+01
     vertex  3.251436e+02 -2.947999e+02 -4.060343e+01
   endloop
 endfacet
 facet normal  0.000000e+00 -1.000000e+00  0.000000e+00
   outer loop
     vertex  3.234849e+02 -2.947999e+02 -3.931299e+01
     vertex  3.261762e+02 -2.947999e+02 -4.088510e+01
     vertex  3.289145e+02 -2.947999e+02 -4.127559e+01
   endloop
 endfacet
 facet normal  5.830989e-14 -1.000000e+00 -1.781184e-14
   outer loop
     vertex  3.230283e+02 -2.947999e+02 -4.080755e+01
     vertex  3.240736e+02 -2.947999e+02 -4.057707e+01
     vertex  3.234849e+02 -2.947999e+02 -3.931299e+01
   endloop
 endfacet
 facet normal  0.000000e+00 -1.000000e+00  0.000000e+00
   outer loop
     vertex  3.220686e+02 -2.947999e+02 -4.128149e+01
     vertex  3.230283e+02 -2.947999e+02 -4.080755e+01
     vertex  3.234849e+02 -2.947999e+02 -3.931299e+01
   endloop
 endfacet
 facet normal  0.000000e+00 -1.000000e+00  0.000000e+00
   outer loop
     vertex  3.212502e+02 -2.947999e+02 -4.197132e+01
     vertex  3.220686e+02 -2.947999e+02 -4.128149e+01
     vertex  3.234849e+02 -2.947999e+02 -3.931299e+01
   endloop
 endfacet
 facet normal  0.000000e+00 -1.000000e+00  0.000000e+00
   outer loop
     vertex  3.200855e+02 -2.947999e+02 -4.871749e+01
     vertex  3.211052e+02 -2.947999e+02 -4.785807e+01
     vertex  3.205190e+02 -2.947999e+02 -4.696247e+01
   endloop
 endfacet
 facet normal  0.000000e+00 -1.000000e+00  0.000000e+00
   outer loop
     vertex  3.200855e+02 -2.947999e+02 -4.871749e+01
     vertex  3.218886e+02 -2.947999e+02 -4.858737e+01
     vertex  3.211052e+02 -2.947999e+02 -4.785807e+01
   endloop
 endfacet
 facet normal -6.975548e-15 -1.000000e+00  9.665468e-14
   outer loop
     vertex  3.200855e+02 -2.947999e+02 -4.871749e+01
     vertex  3.228238e+02 -2.947999e+02 -4.910798e+01
     vertex  3.218886e+02 -2.947999e+02 -4.858737e+01
   endloop
 endfacet
 facet normal -4.110609e-14 -1.000000e+00 -1.426870e-13
   outer loop
     vertex  3.200855e+02 -2.947999e+02 -4.871749e+01
     vertex  3.255152e+02 -2.947999e+02 -5.068009e+01
     vertex  3.228238e+02 -2.947999e+02 -4.910798e+01
   endloop
 endfacet
 facet normal  0.000000e+00 -1.000000e+00 -0.000000e+00
   outer loop
     vertex  3.201642e+02 -2.947999e+02 -4.595261e+01
     vertex  3.200855e+02 -2.947999e+02 -4.871749e+01
     vertex  3.205190e+02 -2.947999e+02 -4.696247e+01
   endloop
 endfacet
 facet normal -4.039963e-14 -1.000000e+00  2.938066e-14
   outer loop
     vertex  3.190703e+02 -2.947999e+02 -4.303394e+01
     vertex  3.206206e+02 -2.947999e+02 -4.283698e+01
     vertex  3.212502e+02 -2.947999e+02 -4.197132e+01
   endloop
 endfacet
 facet normal -3.098508e-14 -1.000000e+00 -4.471807e-14
   outer loop
     vertex  3.190703e+02 -2.947999e+02 -4.303394e+01
     vertex  3.202165e+02 -2.947999e+02 -4.382813e+01
     vertex  3.206206e+02 -2.947999e+02 -4.283698e+01
   endloop
 endfacet
 facet normal  3.376304e-14 -1.000000e+00  4.872726e-14
   outer loop
     vertex  3.190703e+02 -2.947999e+02 -4.303394e+01
     vertex  3.200614e+02 -2.947999e+02 -4.488720e+01
     vertex  3.202165e+02 -2.947999e+02 -4.382813e+01
   endloop
 endfacet
 facet normal -6.998684e-14 -1.000000e+00 -6.753655e-15
   outer loop
     vertex  3.190703e+02 -2.947999e+02 -4.303394e+01
     vertex  3.201642e+02 -2.947999e+02 -4.595261e+01
     vertex  3.200614e+02 -2.947999e+02 -4.488720e+01
   endloop
 endfacet
 facet normal -4.418299e-14 -1.000000e+00  3.714170e-14
   outer loop
     vertex  3.190703e+02 -2.947999e+02 -4.303394e+01
     vertex  3.212502e+02 -2.947999e+02 -4.197132e+01
     vertex  3.234849e+02 -2.947999e+02 -3.931299e+01
   endloop
 endfacet
 facet normal -4.829982e-14 -1.000000e+00  1.374142e-15
   outer loop
     vertex  3.190703e+02 -2.947999e+02 -4.303394e+01
     vertex  3.200855e+02 -2.947999e+02 -4.871749e+01
     vertex  3.201642e+02 -2.947999e+02 -4.595261e+01
   endloop
 endfacet
 facet normal  6.444880e-01 -1.172672e-15 -7.646144e-01
   outer loop
     vertex  3.299297e+02 -2.947999e+02 -4.695914e+01
     vertex  3.277225e+02 -2.912999e+02 -4.881961e+01
     vertex  3.287857e+02 -2.914095e+02 -4.792339e+01
   endloop
 endfacet
 facet normal  6.444880e-01 -1.601360e-14 -7.646144e-01
   outer loop
     vertex  3.299297e+02 -2.947999e+02 -4.695914e+01
     vertex  3.287857e+02 -2.914095e+02 -4.792339e+01
     vertex  3.299297e+02 -2.917465e+02 -4.695914e+01
   endloop
 endfacet
 facet normal  6.444880e-01  0.000000e+00 -7.646144e-01
   outer loop
     vertex  3.255152e+02 -2.947999e+02 -5.068009e+01
     vertex  3.255152e+02 -2.917465e+02 -5.068009e+01
     vertex  3.266592e+02 -2.914095e+02 -4.971583e+01
   endloop
 endfacet
 facet normal  6.444880e-01 -1.799510e-15 -7.646144e-01
   outer loop
     vertex  3.255152e+02 -2.947999e+02 -5.068009e+01
     vertex  3.266592e+02 -2.914095e+02 -4.971583e+01
     vertex  3.277225e+02 -2.912999e+02 -4.881961e+01
   endloop
 endfacet
 facet normal  6.444880e-01 -6.237980e-15 -7.646144e-01
   outer loop
     vertex  3.255152e+02 -2.947999e+02 -5.068009e+01
     vertex  3.277225e+02 -2.912999e+02 -4.881961e+01
     vertex  3.299297e+02 -2.947999e+02 -4.695914e+01
   endloop
 endfacet
 facet normal  9.844195e-01  3.682593e-15  1.758358e-01
   outer loop
     vertex  3.299297e+02 -2.947999e+02 -4.695914e+01
     vertex  3.299297e+02 -2.917465e+02 -4.695914e+01
     vertex  3.296667e+02 -2.914095e+02 -4.548629e+01
   endloop
 endfacet
 facet normal  9.844195e-01 -1.127220e-14  1.758358e-01
   outer loop
     vertex  3.299297e+02 -2.947999e+02 -4.695914e+01
     vertex  3.296667e+02 -2.914095e+02 -4.548629e+01
     vertex  3.294221e+02 -2.912999e+02 -4.411736e+01
   endloop
 endfacet
 facet normal  9.844195e-01 -7.115184e-15  1.758358e-01
   outer loop
     vertex  3.289145e+02 -2.947999e+02 -4.127559e+01
     vertex  3.294221e+02 -2.912999e+02 -4.411736e+01
     vertex  3.291776e+02 -2.914095e+02 -4.274843e+01
   endloop
 endfacet
 facet normal  9.844195e-01  2.455062e-15  1.758358e-01
   outer loop
     vertex  3.289145e+02 -2.947999e+02 -4.127559e+01
     vertex  3.291776e+02 -2.914095e+02 -4.274843e+01
     vertex  3.289145e+02 -2.917465e+02 -4.127559e+01
   endloop
 endfacet
 facet normal  9.844195e-01 -6.738510e-15  1.758358e-01
   outer loop
     vertex  3.289145e+02 -2.947999e+02 -4.127559e+01
     vertex  3.299297e+02 -2.947999e+02 -4.695914e+01
     vertex  3.294221e+02 -2.912999e+02 -4.411736e+01
   endloop
 endfacet
 facet normal  3.399315e-01  1.312925e-14  9.404502e-01
   outer loop
     vertex  3.275075e+02 -2.914095e+02 -4.076700e+01
     vertex  3.289145e+02 -2.947999e+02 -4.127559e+01
     vertex  3.289145e+02 -2.917465e+02 -4.127559e+01
   endloop
 endfacet
 facet normal  3.399315e-01  2.863840e-15  9.404502e-01
   outer loop
     vertex  3.261997e+02 -2.912999e+02 -4.029429e+01
     vertex  3.234849e+02 -2.947999e+02 -3.931299e+01
     vertex  3.289145e+02 -2.947999e+02 -4.127559e+01
   endloop
 endfacet
 facet normal  3.399315e-01  7.803484e-15  9.404502e-01
   outer loop
     vertex  3.261997e+02 -2.912999e+02 -4.029429e+01
     vertex  3.289145e+02 -2.947999e+02 -4.127559e+01
     vertex  3.275075e+02 -2.914095e+02 -4.076700e+01
   endloop
 endfacet
 facet normal  3.399315e-01 -1.015701e-14  9.404502e-01
   outer loop
     vertex  3.248919e+02 -2.914095e+02 -3.982158e+01
     vertex  3.234849e+02 -2.947999e+02 -3.931299e+01
     vertex  3.261997e+02 -2.912999e+02 -4.029429e+01
   endloop
 endfacet
 facet normal  3.399315e-01  1.313079e-14  9.404502e-01
   outer loop
     vertex  3.234849e+02 -2.917465e+02 -3.931299e+01
     vertex  3.234849e+02 -2.947999e+02 -3.931299e+01
     vertex  3.248919e+02 -2.914095e+02 -3.982158e+01
   endloop
 endfacet
 facet normal  2.608789e-13  1.000000e+00  1.882497e-14
   outer loop
     vertex  3.291318e+02 -2.912999e+02 -4.311321e+01
     vertex  3.294221e+02 -2.912999e+02 -4.411736e+01
     vertex  3.294974e+02 -2.912999e+02 -4.515993e+01
   endloop
 endfacet
 facet normal  8.764077e-14  1.000000e+00 -1.211860e-14
   outer loop
     vertex  3.291318e+02 -2.912999e+02 -4.311321e+01
     vertex  3.294974e+02 -2.912999e+02 -4.515993e+01
     vertex  3.293542e+02 -2.912999e+02 -4.619537e+01
   endloop
 endfacet
 facet normal  0.000000e+00  1.000000e+00  0.000000e+00
   outer loop
     vertex  3.279653e+02 -2.912999e+02 -4.139213e+01
     vertex  3.286390e+02 -2.912999e+02 -4.219137e+01
     vertex  3.291318e+02 -2.912999e+02 -4.311321e+01
   endloop
 endfacet
 facet normal  0.000000e+00  1.000000e+00  0.000000e+00
   outer loop
     vertex  3.271402e+02 -2.912999e+02 -4.075042e+01
     vertex  3.279653e+02 -2.912999e+02 -4.139213e+01
     vertex  3.291318e+02 -2.912999e+02 -4.311321e+01
   endloop
 endfacet
 facet normal -1.918288e-14  1.000000e+00  9.387905e-14
   outer loop
     vertex  3.258889e+02 -2.912999e+02 -4.979977e+01
     vertex  3.284469e+02 -2.912999e+02 -4.806609e+01
     vertex  3.277225e+02 -2.912999e+02 -4.881961e+01
   endloop
 endfacet
 facet normal  1.467424e-13  1.000000e+00 -2.165153e-13
   outer loop
     vertex  3.258889e+02 -2.912999e+02 -4.979977e+01
     vertex  3.277225e+02 -2.912999e+02 -4.881961e+01
     vertex  3.268572e+02 -2.912999e+02 -4.940605e+01
   endloop
 endfacet
 facet normal  1.779158e-15  1.000000e+00 -1.831436e-14
   outer loop
     vertex  3.261997e+02 -2.912999e+02 -4.029429e+01
     vertex  3.291318e+02 -2.912999e+02 -4.311321e+01
     vertex  3.293542e+02 -2.912999e+02 -4.619537e+01
   endloop
 endfacet
 facet normal  1.022292e-13  1.000000e+00  8.616823e-14
   outer loop
     vertex  3.261997e+02 -2.912999e+02 -4.029429e+01
     vertex  3.271402e+02 -2.912999e+02 -4.075042e+01
     vertex  3.291318e+02 -2.912999e+02 -4.311321e+01
   endloop
 endfacet
 facet normal  8.891702e-15  1.000000e+00 -3.213960e-15
   outer loop
     vertex  3.251849e+02 -2.912999e+02 -4.004367e+01
     vertex  3.293542e+02 -2.912999e+02 -4.619537e+01
     vertex  3.289989e+02 -2.912999e+02 -4.717841e+01
   endloop
 endfacet
 facet normal -7.001627e-14  1.000000e+00 -5.669352e-14
   outer loop
     vertex  3.251849e+02 -2.912999e+02 -4.004367e+01
     vertex  3.261997e+02 -2.912999e+02 -4.029429e+01
     vertex  3.293542e+02 -2.912999e+02 -4.619537e+01
   endloop
 endfacet
 facet normal -4.599112e-14  1.000000e+00  2.574820e-13
   outer loop
     vertex  3.238152e+02 -2.912999e+02 -4.994941e+01
     vertex  3.258889e+02 -2.912999e+02 -4.979977e+01
     vertex  3.248599e+02 -2.912999e+02 -4.998357e+01
   endloop
 endfacet
 facet normal  0.000000e+00  1.000000e+00  0.000000e+00
   outer loop
     vertex  3.221429e+02 -2.912999e+02 -4.058703e+01
     vertex  3.231112e+02 -2.912999e+02 -4.019331e+01
     vertex  3.241402e+02 -2.912999e+02 -4.000951e+01
   endloop
 endfacet
 facet normal  0.000000e+00  1.000000e+00  0.000000e+00
   outer loop
     vertex  3.221429e+02 -2.912999e+02 -4.058703e+01
     vertex  3.241402e+02 -2.912999e+02 -4.000951e+01
     vertex  3.251849e+02 -2.912999e+02 -4.004367e+01
   endloop
 endfacet
 facet normal -4.352813e-13  1.000000e+00 -6.482746e-13
   outer loop
     vertex  3.210347e+02 -2.912999e+02 -4.860095e+01
     vertex  3.228004e+02 -2.912999e+02 -4.969879e+01
     vertex  3.218599e+02 -2.912999e+02 -4.924266e+01
   endloop
 endfacet
 facet normal  4.962304e-15  1.000000e+00 -3.085483e-15
   outer loop
     vertex  3.212776e+02 -2.912999e+02 -4.117347e+01
     vertex  3.289989e+02 -2.912999e+02 -4.717841e+01
     vertex  3.284469e+02 -2.912999e+02 -4.806609e+01
   endloop
 endfacet
 facet normal  1.995296e-15  1.000000e+00 -6.900522e-15
   outer loop
     vertex  3.212776e+02 -2.912999e+02 -4.117347e+01
     vertex  3.251849e+02 -2.912999e+02 -4.004367e+01
     vertex  3.289989e+02 -2.912999e+02 -4.717841e+01
   endloop
 endfacet
 facet normal  0.000000e+00  1.000000e+00  0.000000e+00
   outer loop
     vertex  3.212776e+02 -2.912999e+02 -4.117347e+01
     vertex  3.221429e+02 -2.912999e+02 -4.058703e+01
     vertex  3.251849e+02 -2.912999e+02 -4.004367e+01
   endloop
 endfacet
 facet normal  0.000000e+00  1.000000e+00  0.000000e+00
   outer loop
     vertex  3.198683e+02 -2.912999e+02 -4.687987e+01
     vertex  3.210347e+02 -2.912999e+02 -4.860095e+01
     vertex  3.203611e+02 -2.912999e+02 -4.780171e+01
   endloop
 endfacet
 facet normal -5.564290e-14  1.000000e+00 -3.771176e-14
   outer loop
     vertex  3.198683e+02 -2.912999e+02 -4.687987e+01
     vertex  3.228004e+02 -2.912999e+02 -4.969879e+01
     vertex  3.210347e+02 -2.912999e+02 -4.860095e+01
   endloop
 endfacet
 facet normal  2.221205e-13  1.000000e+00 -1.381110e-13
   outer loop
     vertex  3.200012e+02 -2.912999e+02 -4.281467e+01
     vertex  3.205532e+02 -2.912999e+02 -4.192699e+01
     vertex  3.212776e+02 -2.912999e+02 -4.117347e+01
   endloop
 endfacet
 facet normal -2.583962e-14  1.000000e+00 -2.178003e-14
   outer loop
     vertex  3.200012e+02 -2.912999e+02 -4.281467e+01
     vertex  3.258889e+02 -2.912999e+02 -4.979977e+01
     vertex  3.238152e+02 -2.912999e+02 -4.994941e+01
   endloop
 endfacet
 facet normal  2.828499e-14  1.000000e+00  2.384121e-14
   outer loop
     vertex  3.200012e+02 -2.912999e+02 -4.281467e+01
     vertex  3.284469e+02 -2.912999e+02 -4.806609e+01
     vertex  3.258889e+02 -2.912999e+02 -4.979977e+01
   endloop
 endfacet
 facet normal  2.358937e-14  1.000000e+00  1.628937e-14
   outer loop
     vertex  3.200012e+02 -2.912999e+02 -4.281467e+01
     vertex  3.212776e+02 -2.912999e+02 -4.117347e+01
     vertex  3.284469e+02 -2.912999e+02 -4.806609e+01
   endloop
 endfacet
 facet normal  7.074071e-14  1.000000e+00  5.962684e-14
   outer loop
     vertex  3.195779e+02 -2.912999e+02 -4.587572e+01
     vertex  3.238152e+02 -2.912999e+02 -4.994941e+01
     vertex  3.228004e+02 -2.912999e+02 -4.969879e+01
   endloop
 endfacet
 facet normal -1.022292e-13  1.000000e+00 -8.616823e-14
   outer loop
     vertex  3.195779e+02 -2.912999e+02 -4.587572e+01
     vertex  3.228004e+02 -2.912999e+02 -4.969879e+01
     vertex  3.198683e+02 -2.912999e+02 -4.687987e+01
   endloop
 endfacet
 facet normal  1.184108e-14  1.000000e+00 -1.637335e-15
   outer loop
     vertex  3.195779e+02 -2.912999e+02 -4.587572e+01
     vertex  3.200012e+02 -2.912999e+02 -4.281467e+01
     vertex  3.238152e+02 -2.912999e+02 -4.994941e+01
   endloop
 endfacet
 facet normal  0.000000e+00  1.000000e+00  0.000000e+00
   outer loop
     vertex  3.195027e+02 -2.912999e+02 -4.483315e+01
     vertex  3.196459e+02 -2.912999e+02 -4.379771e+01
     vertex  3.200012e+02 -2.912999e+02 -4.281467e+01
   endloop
 endfacet
 facet normal -0.000000e+00  1.000000e+00  0.000000e+00
   outer loop
     vertex  3.195027e+02 -2.912999e+02 -4.483315e+01
     vertex  3.200012e+02 -2.912999e+02 -4.281467e+01
     vertex  3.195779e+02 -2.912999e+02 -4.587572e+01
   endloop
 endfacet
 facet normal  6.813551e-01 -2.869255e-17  7.319531e-01
   outer loop
     vertex  3.271115e+02 -2.953000e+02 -4.140571e+01
     vertex  3.278949e+02 -2.953000e+02 -4.213501e+01
     vertex  3.278949e+02 -2.947999e+02 -4.213501e+01
   endloop
 endfacet
 facet normal  6.813551e-01 -0.000000e+00  7.319531e-01
   outer loop
     vertex  3.271115e+02 -2.953000e+02 -4.140571e+01
     vertex  3.278949e+02 -2.947999e+02 -4.213501e+01
     vertex  3.271115e+02 -2.947999e+02 -4.140571e+01
   endloop
 endfacet
 facet normal  4.863883e-01 -0.000000e+00  8.737428e-01
   outer loop
     vertex  3.261762e+02 -2.953000e+02 -4.088510e+01
     vertex  3.271115e+02 -2.947999e+02 -4.140571e+01
     vertex  3.261762e+02 -2.947999e+02 -4.088510e+01
   endloop
 endfacet
 facet normal  4.863883e-01  4.863138e-17  8.737428e-01
   outer loop
     vertex  3.261762e+02 -2.953000e+02 -4.088510e+01
     vertex  3.271115e+02 -2.953000e+02 -4.140571e+01
     vertex  3.271115e+02 -2.947999e+02 -4.140571e+01
   endloop
 endfacet
 facet normal  2.631544e-01 -0.000000e+00  9.647537e-01
   outer loop
     vertex  3.251436e+02 -2.953000e+02 -4.060343e+01
     vertex  3.261762e+02 -2.947999e+02 -4.088510e+01
     vertex  3.251436e+02 -2.947999e+02 -4.060343e+01
   endloop
 endfacet
 facet normal  2.631544e-01 -4.268867e-17  9.647537e-01
   outer loop
     vertex  3.251436e+02 -2.953000e+02 -4.060343e+01
     vertex  3.261762e+02 -2.953000e+02 -4.088510e+01
     vertex  3.261762e+02 -2.947999e+02 -4.088510e+01
   endloop
 endfacet
 facet normal  2.462694e-02 -0.000000e+00  9.996967e-01
   outer loop
     vertex  3.240736e+02 -2.953000e+02 -4.057707e+01
     vertex  3.251436e+02 -2.947999e+02 -4.060343e+01
     vertex  3.240736e+02 -2.947999e+02 -4.057707e+01
   endloop
 endfacet
 facet normal  2.462694e-02  2.385043e-18  9.996967e-01
   outer loop
     vertex  3.240736e+02 -2.953000e+02 -4.057707e+01
     vertex  3.251436e+02 -2.953000e+02 -4.060343e+01
     vertex  3.251436e+02 -2.947999e+02 -4.060343e+01
   endloop
 endfacet
 facet normal -2.153318e-01  0.000000e+00  9.765410e-01
   outer loop
     vertex  3.230283e+02 -2.953000e+02 -4.080755e+01
     vertex  3.240736e+02 -2.947999e+02 -4.057707e+01
     vertex  3.230283e+02 -2.947999e+02 -4.080755e+01
   endloop
 endfacet
 facet normal -2.153318e-01  1.962173e-17  9.765410e-01
   outer loop
     vertex  3.230283e+02 -2.953000e+02 -4.080755e+01
     vertex  3.240736e+02 -2.953000e+02 -4.057707e+01
     vertex  3.240736e+02 -2.947999e+02 -4.057707e+01
   endloop
 endfacet
 facet normal -4.427762e-01  0.000000e+00  8.966322e-01
   outer loop
     vertex  3.220686e+02 -2.953000e+02 -4.128149e+01
     vertex  3.230283e+02 -2.947999e+02 -4.080755e+01
     vertex  3.220686e+02 -2.947999e+02 -4.128149e+01
   endloop
 endfacet
 facet normal -4.427762e-01  3.454368e-17  8.966322e-01
   outer loop
     vertex  3.220686e+02 -2.953000e+02 -4.128149e+01
     vertex  3.230283e+02 -2.953000e+02 -4.080755e+01
     vertex  3.230283e+02 -2.947999e+02 -4.080755e+01
   endloop
 endfacet
 facet normal -6.444880e-01 -1.086365e-14  7.646144e-01
   outer loop
     vertex  3.212502e+02 -2.953000e+02 -4.197132e+01
     vertex  3.220686e+02 -2.947999e+02 -4.128149e+01
     vertex  3.212502e+02 -2.947999e+02 -4.197132e+01
   endloop
 endfacet
 facet normal -8.087446e-01 -8.356585e-15  5.881600e-01
   outer loop
     vertex  3.212502e+02 -2.953000e+02 -4.197132e+01
     vertex  3.212502e+02 -2.947999e+02 -4.197132e+01
     vertex  3.206206e+02 -2.947999e+02 -4.283698e+01
   endloop
 endfacet
 facet normal -6.444880e-01 -9.245669e-17  7.646144e-01
   outer loop
     vertex  3.212502e+02 -2.953000e+02 -4.197132e+01
     vertex  3.220686e+02 -2.953000e+02 -4.128149e+01
     vertex  3.220686e+02 -2.947999e+02 -4.128149e+01
   endloop
 endfacet
 facet normal -8.087446e-01  0.000000e+00  5.881600e-01
   outer loop
     vertex  3.206206e+02 -2.953000e+02 -4.283698e+01
     vertex  3.212502e+02 -2.953000e+02 -4.197132e+01
     vertex  3.206206e+02 -2.947999e+02 -4.283698e+01
   endloop
 endfacet
 facet normal -9.259998e-01  0.000000e+00  3.775239e-01
   outer loop
     vertex  3.202165e+02 -2.953000e+02 -4.382813e+01
     vertex  3.206206e+02 -2.947999e+02 -4.283698e+01
     vertex  3.202165e+02 -2.947999e+02 -4.382813e+01
   endloop
 endfacet
 facet normal -9.259998e-01 -8.036014e-18  3.775239e-01
   outer loop
     vertex  3.202165e+02 -2.953000e+02 -4.382813e+01
     vertex  3.206206e+02 -2.953000e+02 -4.283698e+01
     vertex  3.206206e+02 -2.947999e+02 -4.283698e+01
   endloop
 endfacet
 facet normal -9.894393e-01  0.000000e+00  1.449475e-01
   outer loop
     vertex  3.200614e+02 -2.953000e+02 -4.488720e+01
     vertex  3.202165e+02 -2.947999e+02 -4.382813e+01
     vertex  3.200614e+02 -2.947999e+02 -4.488720e+01
   endloop
 endfacet
 facet normal -9.894393e-01  7.044935e-19  1.449475e-01
   outer loop
     vertex  3.200614e+02 -2.953000e+02 -4.488720e+01
     vertex  3.202165e+02 -2.953000e+02 -4.382813e+01
     vertex  3.202165e+02 -2.947999e+02 -4.382813e+01
   endloop
 endfacet
 facet normal -9.953762e-01 -5.458874e-15 -9.605274e-02
   outer loop
     vertex  3.201642e+02 -2.953000e+02 -4.595261e+01
     vertex  3.200614e+02 -2.947999e+02 -4.488720e+01
     vertex  3.201642e+02 -2.947999e+02 -4.595261e+01
   endloop
 endfacet
 facet normal -9.953762e-01 -1.238195e-17 -9.605274e-02
   outer loop
     vertex  3.201642e+02 -2.953000e+02 -4.595261e+01
     vertex  3.200614e+02 -2.953000e+02 -4.488720e+01
     vertex  3.200614e+02 -2.947999e+02 -4.488720e+01
   endloop
 endfacet
 facet normal -9.434655e-01 -1.882915e-14 -3.314707e-01
   outer loop
     vertex  3.205190e+02 -2.953000e+02 -4.696247e+01
     vertex  3.201642e+02 -2.953000e+02 -4.595261e+01
     vertex  3.201642e+02 -2.947999e+02 -4.595261e+01
   endloop
 endfacet
 facet normal -9.434655e-01  0.000000e+00 -3.314707e-01
   outer loop
     vertex  3.205190e+02 -2.953000e+02 -4.696247e+01
     vertex  3.201642e+02 -2.947999e+02 -4.595261e+01
     vertex  3.205190e+02 -2.947999e+02 -4.696247e+01
   endloop
 endfacet
 facet normal -8.367240e-01 -4.849019e-17 -5.476249e-01
   outer loop
     vertex  3.211052e+02 -2.953000e+02 -4.785807e+01
     vertex  3.205190e+02 -2.953000e+02 -4.696247e+01
     vertex  3.205190e+02 -2.947999e+02 -4.696247e+01
   endloop
 endfacet
 facet normal -8.367240e-01  6.398283e-14 -5.476249e-01
   outer loop
     vertex  3.211052e+02 -2.953000e+02 -4.785807e+01
     vertex  3.205190e+02 -2.947999e+02 -4.696247e+01
     vertex  3.211052e+02 -2.947999e+02 -4.785807e+01
   endloop
 endfacet
 facet normal -6.813551e-01  3.584722e-14 -7.319531e-01
   outer loop
     vertex  3.211052e+02 -2.953000e+02 -4.785807e+01
     vertex  3.211052e+02 -2.947999e+02 -4.785807e+01
     vertex  3.218886e+02 -2.947999e+02 -4.858737e+01
   endloop
 endfacet
 facet normal -6.813551e-01 -1.039960e-14 -7.319531e-01
   outer loop
     vertex  3.218886e+02 -2.953000e+02 -4.858737e+01
     vertex  3.211052e+02 -2.953000e+02 -4.785807e+01
     vertex  3.218886e+02 -2.947999e+02 -4.858737e+01
   endloop
 endfacet
 facet normal -4.863883e-01 -1.245614e-14 -8.737428e-01
   outer loop
     vertex  3.228238e+02 -2.953000e+02 -4.910798e+01
     vertex  3.218886e+02 -2.953000e+02 -4.858737e+01
     vertex  3.218886e+02 -2.947999e+02 -4.858737e+01
   endloop
 endfacet
 facet normal -4.863883e-01  0.000000e+00 -8.737428e-01
   outer loop
     vertex  3.228238e+02 -2.953000e+02 -4.910798e+01
     vertex  3.218886e+02 -2.947999e+02 -4.858737e+01
     vertex  3.228238e+02 -2.947999e+02 -4.910798e+01
   endloop
 endfacet
 facet normal -2.631544e-01  0.000000e+00 -9.647537e-01
   outer loop
     vertex  3.228238e+02 -2.953000e+02 -4.910798e+01
     vertex  3.228238e+02 -2.947999e+02 -4.910798e+01
     vertex  3.238565e+02 -2.947999e+02 -4.938965e+01
   endloop
 endfacet
 facet normal -2.631544e-01  0.000000e+00 -9.647537e-01
   outer loop
     vertex  3.238565e+02 -2.953000e+02 -4.938965e+01
     vertex  3.228238e+02 -2.953000e+02 -4.910798e+01
     vertex  3.238565e+02 -2.947999e+02 -4.938965e+01
   endloop
 endfacet
 facet normal -2.462694e-02 -1.998566e-18 -9.996967e-01
   outer loop
     vertex  3.249265e+02 -2.953000e+02 -4.941601e+01
     vertex  3.238565e+02 -2.953000e+02 -4.938965e+01
     vertex  3.238565e+02 -2.947999e+02 -4.938965e+01
   endloop
 endfacet
 facet normal -2.462694e-02  3.120661e-14 -9.996967e-01
   outer loop
     vertex  3.249265e+02 -2.953000e+02 -4.941601e+01
     vertex  3.238565e+02 -2.947999e+02 -4.938965e+01
     vertex  3.249265e+02 -2.947999e+02 -4.941601e+01
   endloop
 endfacet
 facet normal  2.153318e-01  3.273922e-15 -9.765410e-01
   outer loop
     vertex  3.249265e+02 -2.953000e+02 -4.941601e+01
     vertex  3.249265e+02 -2.947999e+02 -4.941601e+01
     vertex  3.259718e+02 -2.947999e+02 -4.918553e+01
   endloop
 endfacet
 facet normal  2.153318e-01  0.000000e+00 -9.765410e-01
   outer loop
     vertex  3.259718e+02 -2.953000e+02 -4.918553e+01
     vertex  3.249265e+02 -2.953000e+02 -4.941601e+01
     vertex  3.259718e+02 -2.947999e+02 -4.918553e+01
   endloop
 endfacet
 facet normal  4.427762e-01  3.454368e-17 -8.966322e-01
   outer loop
     vertex  3.269315e+02 -2.953000e+02 -4.871159e+01
     vertex  3.259718e+02 -2.953000e+02 -4.918553e+01
     vertex  3.259718e+02 -2.947999e+02 -4.918553e+01
   endloop
 endfacet
 facet normal  4.427762e-01  0.000000e+00 -8.966322e-01
   outer loop
     vertex  3.269315e+02 -2.953000e+02 -4.871159e+01
     vertex  3.259718e+02 -2.947999e+02 -4.918553e+01
     vertex  3.269315e+02 -2.947999e+02 -4.871159e+01
   endloop
 endfacet
 facet normal  6.444880e-01  3.640631e-17 -7.646144e-01
   outer loop
     vertex  3.277499e+02 -2.953000e+02 -4.802176e+01
     vertex  3.269315e+02 -2.953000e+02 -4.871159e+01
     vertex  3.269315e+02 -2.947999e+02 -4.871159e+01
   endloop
 endfacet
 facet normal  6.444880e-01  0.000000e+00 -7.646144e-01
   outer loop
     vertex  3.277499e+02 -2.953000e+02 -4.802176e+01
     vertex  3.269315e+02 -2.947999e+02 -4.871159e+01
     vertex  3.277499e+02 -2.947999e+02 -4.802176e+01
   endloop
 endfacet
 facet normal  8.087446e-01 -2.227186e-17 -5.881600e-01
   outer loop
     vertex  3.283795e+02 -2.953000e+02 -4.715610e+01
     vertex  3.277499e+02 -2.953000e+02 -4.802176e+01
     vertex  3.277499e+02 -2.947999e+02 -4.802176e+01
   endloop
 endfacet
 facet normal  8.087446e-01 -2.506976e-14 -5.881600e-01
   outer loop
     vertex  3.283795e+02 -2.953000e+02 -4.715610e+01
     vertex  3.277499e+02 -2.947999e+02 -4.802176e+01
     vertex  3.283795e+02 -2.947999e+02 -4.715610e+01
   endloop
 endfacet
 facet normal  9.259998e-01 -1.609159e-14 -3.775239e-01
   outer loop
     vertex  3.283795e+02 -2.953000e+02 -4.715610e+01
     vertex  3.283795e+02 -2.947999e+02 -4.715610e+01
     vertex  3.287835e+02 -2.947999e+02 -4.616495e+01
   endloop
 endfacet
 facet normal  9.259998e-01  0.000000e+00 -3.775239e-01
   outer loop
     vertex  3.287835e+02 -2.953000e+02 -4.616495e+01
     vertex  3.283795e+02 -2.953000e+02 -4.715610e+01
     vertex  3.287835e+02 -2.947999e+02 -4.616495e+01
   endloop
 endfacet
 facet normal  9.894393e-01 -7.217080e-18 -1.449475e-01
   outer loop
     vertex  3.289387e+02 -2.953000e+02 -4.510588e+01
     vertex  3.287835e+02 -2.953000e+02 -4.616495e+01
     vertex  3.287835e+02 -2.947999e+02 -4.616495e+01
   endloop
 endfacet
 facet normal  9.894393e-01  0.000000e+00 -1.449475e-01
   outer loop
     vertex  3.289387e+02 -2.953000e+02 -4.510588e+01
     vertex  3.287835e+02 -2.947999e+02 -4.616495e+01
     vertex  3.289387e+02 -2.947999e+02 -4.510588e+01
   endloop
 endfacet
 facet normal  9.953762e-01  1.172327e-13  9.605274e-02
   outer loop
     vertex  3.288359e+02 -2.953000e+02 -4.404047e+01
     vertex  3.289387e+02 -2.947999e+02 -4.510588e+01
     vertex  3.288359e+02 -2.947999e+02 -4.404047e+01
   endloop
 endfacet
 facet normal  9.953762e-01  1.186777e-18  9.605274e-02
   outer loop
     vertex  3.288359e+02 -2.953000e+02 -4.404047e+01
     vertex  3.289387e+02 -2.953000e+02 -4.510588e+01
     vertex  3.289387e+02 -2.947999e+02 -4.510588e+01
   endloop
 endfacet
 facet normal  9.434655e-01  9.419082e-15  3.314707e-01
   outer loop
     vertex  3.284811e+02 -2.953000e+02 -4.303061e+01
     vertex  3.288359e+02 -2.947999e+02 -4.404047e+01
     vertex  3.284811e+02 -2.947999e+02 -4.303061e+01
   endloop
 endfacet
 facet normal  8.367240e-01  1.556132e-14  5.476249e-01
   outer loop
     vertex  3.284811e+02 -2.953000e+02 -4.303061e+01
     vertex  3.284811e+02 -2.947999e+02 -4.303061e+01
     vertex  3.278949e+02 -2.947999e+02 -4.213501e+01
   endloop
 endfacet
 facet normal  9.434655e-01  1.213937e-13  3.314707e-01
   outer loop
     vertex  3.284811e+02 -2.953000e+02 -4.303061e+01
     vertex  3.288359e+02 -2.953000e+02 -4.404047e+01
     vertex  3.288359e+02 -2.947999e+02 -4.404047e+01
   endloop
 endfacet
 facet normal  8.367240e-01 -0.000000e+00  5.476249e-01
   outer loop
     vertex  3.278949e+02 -2.953000e+02 -4.213501e+01
     vertex  3.284811e+02 -2.953000e+02 -4.303061e+01
     vertex  3.278949e+02 -2.947999e+02 -4.213501e+01
   endloop
 endfacet
 facet normal -3.958066e-14 -1.000000e+00 -3.819492e-15
   outer loop
     vertex  3.274991e+02 -2.953000e+02 -4.507042e+01
     vertex  3.289387e+02 -2.953000e+02 -4.510588e+01
     vertex  3.288359e+02 -2.953000e+02 -4.404047e+01
   endloop
 endfacet
 facet normal -2.526672e-14 -1.000000e+00  5.737480e-14
   outer loop
     vertex  3.273943e+02 -2.953000e+02 -4.578600e+01
     vertex  3.287835e+02 -2.953000e+02 -4.616495e+01
     vertex  3.289387e+02 -2.953000e+02 -4.510588e+01
   endloop
 endfacet
 facet normal -3.739475e-14 -1.000000e+00  8.491471e-14
   outer loop
     vertex  3.273943e+02 -2.953000e+02 -4.578600e+01
     vertex  3.289387e+02 -2.953000e+02 -4.510588e+01
     vertex  3.274991e+02 -2.953000e+02 -4.507042e+01
   endloop
 endfacet
 facet normal -3.751646e-14 -1.000000e+00 -1.318078e-14
   outer loop
     vertex  3.274297e+02 -2.953000e+02 -4.435054e+01
     vertex  3.288359e+02 -2.953000e+02 -4.404047e+01
     vertex  3.284811e+02 -2.953000e+02 -4.303061e+01
   endloop
 endfacet
 facet normal -3.958066e-14 -1.000000e+00 -3.819492e-15
   outer loop
     vertex  3.274297e+02 -2.953000e+02 -4.435054e+01
     vertex  3.274991e+02 -2.953000e+02 -4.507042e+01
     vertex  3.288359e+02 -2.953000e+02 -4.404047e+01
   endloop
 endfacet
 facet normal -6.284206e-14 -1.000000e+00 -3.173020e-14
   outer loop
     vertex  3.271213e+02 -2.953000e+02 -4.645570e+01
     vertex  3.283795e+02 -2.953000e+02 -4.715610e+01
     vertex  3.287835e+02 -2.953000e+02 -4.616495e+01
   endloop
 endfacet
 facet normal -5.765718e-14 -1.000000e+00 -6.137227e-14
   outer loop
     vertex  3.271213e+02 -2.953000e+02 -4.645570e+01
     vertex  3.287835e+02 -2.953000e+02 -4.616495e+01
     vertex  3.273943e+02 -2.953000e+02 -4.578600e+01
   endloop
 endfacet
 facet normal -5.695894e-14 -1.000000e+00  2.619072e-14
   outer loop
     vertex  3.271899e+02 -2.953000e+02 -4.366821e+01
     vertex  3.284811e+02 -2.953000e+02 -4.303061e+01
     vertex  3.278949e+02 -2.953000e+02 -4.213501e+01
   endloop
 endfacet
 facet normal -3.751646e-14 -1.000000e+00 -1.318078e-14
   outer loop
     vertex  3.271899e+02 -2.953000e+02 -4.366821e+01
     vertex  3.274297e+02 -2.953000e+02 -4.435054e+01
     vertex  3.284811e+02 -2.953000e+02 -4.303061e+01
   endloop
 endfacet
 facet normal -3.215934e-14 -1.000000e+00  2.338790e-14
   outer loop
     vertex  3.266959e+02 -2.953000e+02 -4.704061e+01
     vertex  3.277499e+02 -2.953000e+02 -4.802176e+01
     vertex  3.283795e+02 -2.953000e+02 -4.715610e+01
   endloop
 endfacet
 facet normal -3.215934e-14 -1.000000e+00  2.338790e-14
   outer loop
     vertex  3.266959e+02 -2.953000e+02 -4.704061e+01
     vertex  3.283795e+02 -2.953000e+02 -4.715610e+01
     vertex  3.271213e+02 -2.953000e+02 -4.645570e+01
   endloop
 endfacet
 facet normal  0.000000e+00 -1.000000e+00  0.000000e+00
   outer loop
     vertex  3.267939e+02 -2.953000e+02 -4.306308e+01
     vertex  3.271899e+02 -2.953000e+02 -4.366821e+01
     vertex  3.278949e+02 -2.953000e+02 -4.213501e+01
   endloop
 endfacet
 facet normal -2.562776e-14 -1.000000e+00  3.040453e-14
   outer loop
     vertex  3.261429e+02 -2.953000e+02 -4.750671e+01
     vertex  3.269315e+02 -2.953000e+02 -4.871159e+01
     vertex  3.277499e+02 -2.953000e+02 -4.802176e+01
   endloop
 endfacet
 facet normal -2.562776e-14 -1.000000e+00  3.040453e-14
   outer loop
     vertex  3.261429e+02 -2.953000e+02 -4.750671e+01
     vertex  3.277499e+02 -2.953000e+02 -4.802176e+01
     vertex  3.266959e+02 -2.953000e+02 -4.704061e+01
   endloop
 endfacet
 facet normal  0.000000e+00 -1.000000e+00  0.000000e+00
   outer loop
     vertex  3.262645e+02 -2.953000e+02 -4.257031e+01
     vertex  3.278949e+02 -2.953000e+02 -4.213501e+01
     vertex  3.271115e+02 -2.953000e+02 -4.140571e+01
   endloop
 endfacet
 facet normal  0.000000e+00 -1.000000e+00  0.000000e+00
   outer loop
     vertex  3.262645e+02 -2.953000e+02 -4.257031e+01
     vertex  3.267939e+02 -2.953000e+02 -4.306308e+01
     vertex  3.278949e+02 -2.953000e+02 -4.213501e+01
   endloop
 endfacet
 facet normal -5.047219e-14 -1.000000e+00 -1.773255e-14
   outer loop
     vertex  3.254945e+02 -2.953000e+02 -4.782694e+01
     vertex  3.259718e+02 -2.953000e+02 -4.918553e+01
     vertex  3.269315e+02 -2.953000e+02 -4.871159e+01
   endloop
 endfacet
 facet normal -1.760678e-14 -1.000000e+00  3.565415e-14
   outer loop
     vertex  3.254945e+02 -2.953000e+02 -4.782694e+01
     vertex  3.269315e+02 -2.953000e+02 -4.871159e+01
     vertex  3.261429e+02 -2.953000e+02 -4.750671e+01
   endloop
 endfacet
 facet normal  0.000000e+00 -1.000000e+00  0.000000e+00
   outer loop
     vertex  3.256326e+02 -2.953000e+02 -4.221854e+01
     vertex  3.271115e+02 -2.953000e+02 -4.140571e+01
     vertex  3.261762e+02 -2.953000e+02 -4.088510e+01
   endloop
 endfacet
 facet normal  0.000000e+00 -1.000000e+00  0.000000e+00
   outer loop
     vertex  3.256326e+02 -2.953000e+02 -4.221854e+01
     vertex  3.262645e+02 -2.953000e+02 -4.257031e+01
     vertex  3.271115e+02 -2.953000e+02 -4.140571e+01
   endloop
 endfacet
 facet normal  0.000000e+00 -1.000000e+00  0.000000e+00
   outer loop
     vertex  3.247882e+02 -2.953000e+02 -4.798267e+01
     vertex  3.249265e+02 -2.953000e+02 -4.941601e+01
     vertex  3.259718e+02 -2.953000e+02 -4.918553e+01
   endloop
 endfacet
 facet normal  0.000000e+00 -1.000000e+00  0.000000e+00
   outer loop
     vertex  3.247882e+02 -2.953000e+02 -4.798267e+01
     vertex  3.259718e+02 -2.953000e+02 -4.918553e+01
     vertex  3.254945e+02 -2.953000e+02 -4.782694e+01
   endloop
 endfacet
 facet normal  0.000000e+00 -1.000000e+00  0.000000e+00
   outer loop
     vertex  3.249349e+02 -2.953000e+02 -4.202822e+01
     vertex  3.261762e+02 -2.953000e+02 -4.088510e+01
     vertex  3.251436e+02 -2.953000e+02 -4.060343e+01
   endloop
 endfacet
 facet normal  0.000000e+00 -1.000000e+00  0.000000e+00
   outer loop
     vertex  3.249349e+02 -2.953000e+02 -4.202822e+01
     vertex  3.256326e+02 -2.953000e+02 -4.221854e+01
     vertex  3.261762e+02 -2.953000e+02 -4.088510e+01
   endloop
 endfacet
 facet normal  9.792786e-16 -1.000000e+00  3.975246e-14
   outer loop
     vertex  3.238565e+02 -2.953000e+02 -4.938965e+01
     vertex  3.247882e+02 -2.953000e+02 -4.798267e+01
     vertex  3.240652e+02 -2.953000e+02 -4.796486e+01
   endloop
 endfacet
 facet normal  5.324923e-14 -1.000000e+00  5.138494e-15
   outer loop
     vertex  3.238565e+02 -2.953000e+02 -4.938965e+01
     vertex  3.249265e+02 -2.953000e+02 -4.941601e+01
     vertex  3.247882e+02 -2.953000e+02 -4.798267e+01
   endloop
 endfacet
 facet normal  0.000000e+00 -1.000000e+00  0.000000e+00
   outer loop
     vertex  3.242119e+02 -2.953000e+02 -4.201041e+01
     vertex  3.249349e+02 -2.953000e+02 -4.202822e+01
     vertex  3.251436e+02 -2.953000e+02 -4.060343e+01
   endloop
 endfacet
 facet normal  0.000000e+00 -1.000000e+00  0.000000e+00
   outer loop
     vertex  3.240736e+02 -2.953000e+02 -4.057707e+01
     vertex  3.242119e+02 -2.953000e+02 -4.201041e+01
     vertex  3.251436e+02 -2.953000e+02 -4.060343e+01
   endloop
 endfacet
 facet normal  8.880302e-14 -1.000000e+00  2.688676e-14
   outer loop
     vertex  3.233675e+02 -2.953000e+02 -4.777454e+01
     vertex  3.238565e+02 -2.953000e+02 -4.938965e+01
     vertex  3.240652e+02 -2.953000e+02 -4.796486e+01
   endloop
 endfacet
 facet normal  0.000000e+00 -1.000000e+00  0.000000e+00
   outer loop
     vertex  3.228238e+02 -2.953000e+02 -4.910798e+01
     vertex  3.238565e+02 -2.953000e+02 -4.938965e+01
     vertex  3.233675e+02 -2.953000e+02 -4.777454e+01
   endloop
 endfacet
 facet normal  5.324923e-14 -1.000000e+00  5.138494e-15
   outer loop
     vertex  3.230283e+02 -2.953000e+02 -4.080755e+01
     vertex  3.242119e+02 -2.953000e+02 -4.201041e+01
     vertex  3.240736e+02 -2.953000e+02 -4.057707e+01
   endloop
 endfacet
 facet normal  7.469884e-14 -1.000000e+00  2.624418e-14
   outer loop
     vertex  3.230283e+02 -2.953000e+02 -4.080755e+01
     vertex  3.235056e+02 -2.953000e+02 -4.216614e+01
     vertex  3.242119e+02 -2.953000e+02 -4.201041e+01
   endloop
 endfacet
 facet normal  0.000000e+00 -1.000000e+00  0.000000e+00
   outer loop
     vertex  3.218886e+02 -2.953000e+02 -4.858737e+01
     vertex  3.228238e+02 -2.953000e+02 -4.910798e+01
     vertex  3.233675e+02 -2.953000e+02 -4.777454e+01
   endloop
 endfacet
 facet normal  0.000000e+00 -1.000000e+00  0.000000e+00
   outer loop
     vertex  3.218886e+02 -2.953000e+02 -4.858737e+01
     vertex  3.227356e+02 -2.953000e+02 -4.742277e+01
     vertex  3.222062e+02 -2.953000e+02 -4.693000e+01
   endloop
 endfacet
 facet normal  0.000000e+00 -1.000000e+00  0.000000e+00
   outer loop
     vertex  3.218886e+02 -2.953000e+02 -4.858737e+01
     vertex  3.233675e+02 -2.953000e+02 -4.777454e+01
     vertex  3.227356e+02 -2.953000e+02 -4.742277e+01
   endloop
 endfacet
 facet normal  0.000000e+00 -1.000000e+00  0.000000e+00
   outer loop
     vertex  3.220686e+02 -2.953000e+02 -4.128149e+01
     vertex  3.235056e+02 -2.953000e+02 -4.216614e+01
     vertex  3.230283e+02 -2.953000e+02 -4.080755e+01
   endloop
 endfacet
 facet normal  0.000000e+00 -1.000000e+00  0.000000e+00
   outer loop
     vertex  3.220686e+02 -2.953000e+02 -4.128149e+01
     vertex  3.228572e+02 -2.953000e+02 -4.248637e+01
     vertex  3.235056e+02 -2.953000e+02 -4.216614e+01
   endloop
 endfacet
 facet normal  0.000000e+00 -1.000000e+00  0.000000e+00
   outer loop
     vertex  3.211052e+02 -2.953000e+02 -4.785807e+01
     vertex  3.218886e+02 -2.953000e+02 -4.858737e+01
     vertex  3.222062e+02 -2.953000e+02 -4.693000e+01
   endloop
 endfacet
 facet normal  0.000000e+00 -1.000000e+00  0.000000e+00
   outer loop
     vertex  3.212502e+02 -2.953000e+02 -4.197132e+01
     vertex  3.228572e+02 -2.953000e+02 -4.248637e+01
     vertex  3.220686e+02 -2.953000e+02 -4.128149e+01
   endloop
 endfacet
 facet normal  0.000000e+00 -1.000000e+00  0.000000e+00
   outer loop
     vertex  3.212502e+02 -2.953000e+02 -4.197132e+01
     vertex  3.223042e+02 -2.953000e+02 -4.295247e+01
     vertex  3.228572e+02 -2.953000e+02 -4.248637e+01
   endloop
 endfacet
 facet normal  0.000000e+00 -1.000000e+00  0.000000e+00
   outer loop
     vertex  3.205190e+02 -2.953000e+02 -4.696247e+01
     vertex  3.211052e+02 -2.953000e+02 -4.785807e+01
     vertex  3.222062e+02 -2.953000e+02 -4.693000e+01
   endloop
 endfacet
 facet normal  0.000000e+00 -1.000000e+00  0.000000e+00
   outer loop
     vertex  3.205190e+02 -2.953000e+02 -4.696247e+01
     vertex  3.218101e+02 -2.953000e+02 -4.632487e+01
     vertex  3.215704e+02 -2.953000e+02 -4.564254e+01
   endloop
 endfacet
 facet normal  0.000000e+00 -1.000000e+00  0.000000e+00
   outer loop
     vertex  3.205190e+02 -2.953000e+02 -4.696247e+01
     vertex  3.222062e+02 -2.953000e+02 -4.693000e+01
     vertex  3.218101e+02 -2.953000e+02 -4.632487e+01
   endloop
 endfacet
 facet normal  0.000000e+00 -1.000000e+00  0.000000e+00
   outer loop
     vertex  3.206206e+02 -2.953000e+02 -4.283698e+01
     vertex  3.218788e+02 -2.953000e+02 -4.353738e+01
     vertex  3.223042e+02 -2.953000e+02 -4.295247e+01
   endloop
 endfacet
 facet normal  0.000000e+00 -1.000000e+00  0.000000e+00
   outer loop
     vertex  3.206206e+02 -2.953000e+02 -4.283698e+01
     vertex  3.216058e+02 -2.953000e+02 -4.420708e+01
     vertex  3.218788e+02 -2.953000e+02 -4.353738e+01
   endloop
 endfacet
 facet normal  0.000000e+00 -1.000000e+00  0.000000e+00
   outer loop
     vertex  3.206206e+02 -2.953000e+02 -4.283698e+01
     vertex  3.223042e+02 -2.953000e+02 -4.295247e+01
     vertex  3.212502e+02 -2.953000e+02 -4.197132e+01
   endloop
 endfacet
 facet normal  0.000000e+00 -1.000000e+00  0.000000e+00
   outer loop
     vertex  3.201642e+02 -2.953000e+02 -4.595261e+01
     vertex  3.215704e+02 -2.953000e+02 -4.564254e+01
     vertex  3.215009e+02 -2.953000e+02 -4.492266e+01
   endloop
 endfacet
 facet normal  0.000000e+00 -1.000000e+00  0.000000e+00
   outer loop
     vertex  3.201642e+02 -2.953000e+02 -4.595261e+01
     vertex  3.205190e+02 -2.953000e+02 -4.696247e+01
     vertex  3.215704e+02 -2.953000e+02 -4.564254e+01
   endloop
 endfacet
 facet normal -5.089981e-14 -1.000000e+00 -3.659897e-14
   outer loop
     vertex  3.202165e+02 -2.953000e+02 -4.382813e+01
     vertex  3.216058e+02 -2.953000e+02 -4.420708e+01
     vertex  3.206206e+02 -2.953000e+02 -4.283698e+01
   endloop
 endfacet
 facet normal  0.000000e+00 -1.000000e+00  0.000000e+00
   outer loop
     vertex  3.200614e+02 -2.953000e+02 -4.488720e+01
     vertex  3.201642e+02 -2.953000e+02 -4.595261e+01
     vertex  3.215009e+02 -2.953000e+02 -4.492266e+01
   endloop
 endfacet
 facet normal  0.000000e+00 -1.000000e+00  0.000000e+00
   outer loop
     vertex  3.200614e+02 -2.953000e+02 -4.488720e+01
     vertex  3.215009e+02 -2.953000e+02 -4.492266e+01
     vertex  3.216058e+02 -2.953000e+02 -4.420708e+01
   endloop
 endfacet
 facet normal -2.526672e-14 -1.000000e+00  5.737480e-14
   outer loop
     vertex  3.200614e+02 -2.953000e+02 -4.488720e+01
     vertex  3.216058e+02 -2.953000e+02 -4.420708e+01
     vertex  3.202165e+02 -2.953000e+02 -4.382813e+01
   endloop
 endfacet
endsolid
