solid 
 facet normal  7.045528e-01  7.044763e-01  8.554820e-02
   outer loop
     vertex  5.805580e+02 -7.492028e+01  9.000000e+00
     vertex  5.796378e+02 -7.400000e+01  9.000000e+00
     vertex  5.795193e+02 -7.400000e+01  9.976366e+00
   endloop
 endfacet
 facet normal  6.636068e-01  7.044763e-01  2.516729e-01
   outer loop
     vertex  5.804127e+02 -7.492028e+01  1.019658e+01
     vertex  5.795193e+02 -7.400000e+01  9.976366e+00
     vertex  5.791705e+02 -7.400000e+01  1.089599e+01
   endloop
 endfacet
 facet normal  7.045528e-01  7.044763e-01  8.554820e-02
   outer loop
     vertex  5.804127e+02 -7.492028e+01  1.019658e+01
     vertex  5.805580e+02 -7.492028e+01  9.000000e+00
     vertex  5.795193e+02 -7.400000e+01  9.976366e+00
   endloop
 endfacet
 facet normal  5.840943e-01  7.044763e-01  4.031712e-01
   outer loop
     vertex  5.799853e+02 -7.492028e+01  1.132362e+01
     vertex  5.791705e+02 -7.400000e+01  1.089599e+01
     vertex  5.786118e+02 -7.400000e+01  1.170542e+01
   endloop
 endfacet
 facet normal  6.636068e-01  7.044763e-01  2.516729e-01
   outer loop
     vertex  5.799853e+02 -7.492028e+01  1.132362e+01
     vertex  5.804127e+02 -7.492028e+01  1.019658e+01
     vertex  5.791705e+02 -7.400000e+01  1.089599e+01
   endloop
 endfacet
 facet normal  4.706364e-01  7.044763e-01  5.312387e-01
   outer loop
     vertex  5.793006e+02 -7.492028e+01  1.231561e+01
     vertex  5.786118e+02 -7.400000e+01  1.170542e+01
     vertex  5.778756e+02 -7.400000e+01  1.235763e+01
   endloop
 endfacet
 facet normal  5.840943e-01  7.044763e-01  4.031712e-01
   outer loop
     vertex  5.793006e+02 -7.492028e+01  1.231561e+01
     vertex  5.799853e+02 -7.492028e+01  1.132362e+01
     vertex  5.786118e+02 -7.400000e+01  1.170542e+01
   endloop
 endfacet
 facet normal  3.298268e-01  7.044763e-01  6.284325e-01
   outer loop
     vertex  5.783983e+02 -7.492028e+01  1.311492e+01
     vertex  5.778756e+02 -7.400000e+01  1.235763e+01
     vertex  5.770047e+02 -7.400000e+01  1.281470e+01
   endloop
 endfacet
 facet normal  4.706364e-01  7.044763e-01  5.312387e-01
   outer loop
     vertex  5.783983e+02 -7.492028e+01  1.311492e+01
     vertex  5.793006e+02 -7.492028e+01  1.231561e+01
     vertex  5.778756e+02 -7.400000e+01  1.235763e+01
   endloop
 endfacet
 facet normal  1.698489e-01  7.044763e-01  6.891041e-01
   outer loop
     vertex  5.773310e+02 -7.492028e+01  1.367508e+01
     vertex  5.770047e+02 -7.400000e+01  1.281470e+01
     vertex  5.760498e+02 -7.400000e+01  1.305008e+01
   endloop
 endfacet
 facet normal  3.298268e-01  7.044763e-01  6.284325e-01
   outer loop
     vertex  5.773310e+02 -7.492028e+01  1.367508e+01
     vertex  5.783983e+02 -7.492028e+01  1.311492e+01
     vertex  5.770047e+02 -7.400000e+01  1.281470e+01
   endloop
 endfacet
 facet normal  2.523344e-15  7.044763e-01  7.097275e-01
   outer loop
     vertex  5.761607e+02 -7.492028e+01  1.396354e+01
     vertex  5.760498e+02 -7.400000e+01  1.305008e+01
     vertex  5.750662e+02 -7.400000e+01  1.305008e+01
   endloop
 endfacet
 facet normal  1.698489e-01  7.044763e-01  6.891041e-01
   outer loop
     vertex  5.761607e+02 -7.492028e+01  1.396354e+01
     vertex  5.773310e+02 -7.492028e+01  1.367508e+01
     vertex  5.760498e+02 -7.400000e+01  1.305008e+01
   endloop
 endfacet
 facet normal -1.698489e-01  7.044763e-01  6.891041e-01
   outer loop
     vertex  5.749553e+02 -7.492028e+01  1.396354e+01
     vertex  5.750662e+02 -7.400000e+01  1.305008e+01
     vertex  5.741113e+02 -7.400000e+01  1.281470e+01
   endloop
 endfacet
 facet normal -0.000000e+00  7.044763e-01  7.097275e-01
   outer loop
     vertex  5.749553e+02 -7.492028e+01  1.396354e+01
     vertex  5.761607e+02 -7.492028e+01  1.396354e+01
     vertex  5.750662e+02 -7.400000e+01  1.305008e+01
   endloop
 endfacet
 facet normal -3.298268e-01  7.044763e-01  6.284325e-01
   outer loop
     vertex  5.737850e+02 -7.492028e+01  1.367508e+01
     vertex  5.741113e+02 -7.400000e+01  1.281470e+01
     vertex  5.732404e+02 -7.400000e+01  1.235763e+01
   endloop
 endfacet
 facet normal -1.698489e-01  7.044763e-01  6.891041e-01
   outer loop
     vertex  5.737850e+02 -7.492028e+01  1.367508e+01
     vertex  5.749553e+02 -7.492028e+01  1.396354e+01
     vertex  5.741113e+02 -7.400000e+01  1.281470e+01
   endloop
 endfacet
 facet normal -4.706364e-01  7.044763e-01  5.312387e-01
   outer loop
     vertex  5.727177e+02 -7.492028e+01  1.311492e+01
     vertex  5.732404e+02 -7.400000e+01  1.235763e+01
     vertex  5.725042e+02 -7.400000e+01  1.170542e+01
   endloop
 endfacet
 facet normal -3.298268e-01  7.044763e-01  6.284325e-01
   outer loop
     vertex  5.727177e+02 -7.492028e+01  1.311492e+01
     vertex  5.737850e+02 -7.492028e+01  1.367508e+01
     vertex  5.732404e+02 -7.400000e+01  1.235763e+01
   endloop
 endfacet
 facet normal -4.706364e-01  7.044763e-01  5.312387e-01
   outer loop
     vertex  5.718154e+02 -7.492028e+01  1.231561e+01
     vertex  5.727177e+02 -7.492028e+01  1.311492e+01
     vertex  5.725042e+02 -7.400000e+01  1.170542e+01
   endloop
 endfacet
 facet normal -5.840943e-01  7.044763e-01  4.031712e-01
   outer loop
     vertex  5.711307e+02 -7.492028e+01  1.132362e+01
     vertex  5.718154e+02 -7.492028e+01  1.231561e+01
     vertex  5.725042e+02 -7.400000e+01  1.170542e+01
   endloop
 endfacet
 facet normal -5.840943e-01  7.044763e-01  4.031712e-01
   outer loop
     vertex  5.711307e+02 -7.492028e+01  1.132362e+01
     vertex  5.725042e+02 -7.400000e+01  1.170542e+01
     vertex  5.719455e+02 -7.400000e+01  1.089599e+01
   endloop
 endfacet
 facet normal -6.636068e-01  7.044763e-01  2.516729e-01
   outer loop
     vertex  5.711307e+02 -7.492028e+01  1.132362e+01
     vertex  5.719455e+02 -7.400000e+01  1.089599e+01
     vertex  5.715967e+02 -7.400000e+01  9.976366e+00
   endloop
 endfacet
 facet normal -6.636068e-01  7.044763e-01  2.516729e-01
   outer loop
     vertex  5.707033e+02 -7.492028e+01  1.019658e+01
     vertex  5.711307e+02 -7.492028e+01  1.132362e+01
     vertex  5.715967e+02 -7.400000e+01  9.976366e+00
   endloop
 endfacet
 facet normal -7.045528e-01  7.044763e-01  8.554820e-02
   outer loop
     vertex  5.705580e+02 -7.492028e+01  9.000000e+00
     vertex  5.707033e+02 -7.492028e+01  1.019658e+01
     vertex  5.715967e+02 -7.400000e+01  9.976366e+00
   endloop
 endfacet
 facet normal -7.045528e-01  7.044763e-01  8.554820e-02
   outer loop
     vertex  5.705580e+02 -7.492028e+01  9.000000e+00
     vertex  5.715967e+02 -7.400000e+01  9.976366e+00
     vertex  5.714782e+02 -7.400000e+01  9.000000e+00
   endloop
 endfacet
 facet normal -7.045528e-01  7.044763e-01 -8.554820e-02
   outer loop
     vertex  5.705580e+02 -7.492028e+01  9.000000e+00
     vertex  5.714782e+02 -7.400000e+01  9.000000e+00
     vertex  5.715967e+02 -7.400000e+01  8.023634e+00
   endloop
 endfacet
 facet normal -7.045528e-01  7.044763e-01 -8.554820e-02
   outer loop
     vertex  5.707033e+02 -7.492028e+01  7.803422e+00
     vertex  5.705580e+02 -7.492028e+01  9.000000e+00
     vertex  5.715967e+02 -7.400000e+01  8.023634e+00
   endloop
 endfacet
 facet normal -6.636068e-01  7.044763e-01 -2.516729e-01
   outer loop
     vertex  5.707033e+02 -7.492028e+01  7.803422e+00
     vertex  5.715967e+02 -7.400000e+01  8.023634e+00
     vertex  5.719455e+02 -7.400000e+01  7.104011e+00
   endloop
 endfacet
 facet normal -6.636068e-01  7.044763e-01 -2.516729e-01
   outer loop
     vertex  5.711307e+02 -7.492028e+01  6.676384e+00
     vertex  5.707033e+02 -7.492028e+01  7.803422e+00
     vertex  5.719455e+02 -7.400000e+01  7.104011e+00
   endloop
 endfacet
 facet normal -5.840943e-01  7.044763e-01 -4.031712e-01
   outer loop
     vertex  5.711307e+02 -7.492028e+01  6.676384e+00
     vertex  5.719455e+02 -7.400000e+01  7.104011e+00
     vertex  5.725042e+02 -7.400000e+01  6.294576e+00
   endloop
 endfacet
 facet normal -5.840943e-01  7.044763e-01 -4.031712e-01
   outer loop
     vertex  5.718154e+02 -7.492028e+01  5.684387e+00
     vertex  5.711307e+02 -7.492028e+01  6.676384e+00
     vertex  5.725042e+02 -7.400000e+01  6.294576e+00
   endloop
 endfacet
 facet normal -4.706364e-01  7.044763e-01 -5.312387e-01
   outer loop
     vertex  5.727177e+02 -7.492028e+01  4.885081e+00
     vertex  5.718154e+02 -7.492028e+01  5.684387e+00
     vertex  5.725042e+02 -7.400000e+01  6.294576e+00
   endloop
 endfacet
 facet normal -4.706364e-01  7.044763e-01 -5.312387e-01
   outer loop
     vertex  5.727177e+02 -7.492028e+01  4.885081e+00
     vertex  5.725042e+02 -7.400000e+01  6.294576e+00
     vertex  5.732404e+02 -7.400000e+01  5.642370e+00
   endloop
 endfacet
 facet normal -3.298268e-01  7.044763e-01 -6.284325e-01
   outer loop
     vertex  5.727177e+02 -7.492028e+01  4.885081e+00
     vertex  5.732404e+02 -7.400000e+01  5.642370e+00
     vertex  5.741113e+02 -7.400000e+01  5.185297e+00
   endloop
 endfacet
 facet normal -3.298268e-01  7.044763e-01 -6.284325e-01
   outer loop
     vertex  5.737850e+02 -7.492028e+01  4.324919e+00
     vertex  5.727177e+02 -7.492028e+01  4.885081e+00
     vertex  5.741113e+02 -7.400000e+01  5.185297e+00
   endloop
 endfacet
 facet normal -1.698489e-01  7.044763e-01 -6.891041e-01
   outer loop
     vertex  5.737850e+02 -7.492028e+01  4.324919e+00
     vertex  5.741113e+02 -7.400000e+01  5.185297e+00
     vertex  5.750662e+02 -7.400000e+01  4.949922e+00
   endloop
 endfacet
 facet normal -1.698489e-01  7.044763e-01 -6.891041e-01
   outer loop
     vertex  5.749553e+02 -7.492028e+01  4.036456e+00
     vertex  5.737850e+02 -7.492028e+01  4.324919e+00
     vertex  5.750662e+02 -7.400000e+01  4.949922e+00
   endloop
 endfacet
 facet normal -3.884692e-15  7.044763e-01 -7.097275e-01
   outer loop
     vertex  5.749553e+02 -7.492028e+01  4.036456e+00
     vertex  5.750662e+02 -7.400000e+01  4.949922e+00
     vertex  5.760498e+02 -7.400000e+01  4.949922e+00
   endloop
 endfacet
 facet normal  5.229650e-16  7.044763e-01 -7.097275e-01
   outer loop
     vertex  5.761607e+02 -7.492028e+01  4.036456e+00
     vertex  5.749553e+02 -7.492028e+01  4.036456e+00
     vertex  5.760498e+02 -7.400000e+01  4.949922e+00
   endloop
 endfacet
 facet normal  1.698489e-01  7.044763e-01 -6.891041e-01
   outer loop
     vertex  5.761607e+02 -7.492028e+01  4.036456e+00
     vertex  5.760498e+02 -7.400000e+01  4.949922e+00
     vertex  5.770047e+02 -7.400000e+01  5.185297e+00
   endloop
 endfacet
 facet normal  3.298268e-01  7.044763e-01 -6.284325e-01
   outer loop
     vertex  5.773310e+02 -7.492028e+01  4.324919e+00
     vertex  5.770047e+02 -7.400000e+01  5.185297e+00
     vertex  5.778756e+02 -7.400000e+01  5.642370e+00
   endloop
 endfacet
 facet normal  1.698489e-01  7.044763e-01 -6.891041e-01
   outer loop
     vertex  5.773310e+02 -7.492028e+01  4.324919e+00
     vertex  5.761607e+02 -7.492028e+01  4.036456e+00
     vertex  5.770047e+02 -7.400000e+01  5.185297e+00
   endloop
 endfacet
 facet normal  3.298268e-01  7.044763e-01 -6.284325e-01
   outer loop
     vertex  5.783983e+02 -7.492028e+01  4.885081e+00
     vertex  5.773310e+02 -7.492028e+01  4.324919e+00
     vertex  5.778756e+02 -7.400000e+01  5.642370e+00
   endloop
 endfacet
 facet normal  4.706364e-01  7.044763e-01 -5.312387e-01
   outer loop
     vertex  5.793006e+02 -7.492028e+01  5.684387e+00
     vertex  5.778756e+02 -7.400000e+01  5.642370e+00
     vertex  5.786118e+02 -7.400000e+01  6.294576e+00
   endloop
 endfacet
 facet normal  4.706364e-01  7.044763e-01 -5.312387e-01
   outer loop
     vertex  5.793006e+02 -7.492028e+01  5.684387e+00
     vertex  5.783983e+02 -7.492028e+01  4.885081e+00
     vertex  5.778756e+02 -7.400000e+01  5.642370e+00
   endloop
 endfacet
 facet normal  5.840943e-01  7.044763e-01 -4.031712e-01
   outer loop
     vertex  5.799853e+02 -7.492028e+01  6.676384e+00
     vertex  5.786118e+02 -7.400000e+01  6.294576e+00
     vertex  5.791705e+02 -7.400000e+01  7.104011e+00
   endloop
 endfacet
 facet normal  5.840943e-01  7.044763e-01 -4.031712e-01
   outer loop
     vertex  5.799853e+02 -7.492028e+01  6.676384e+00
     vertex  5.793006e+02 -7.492028e+01  5.684387e+00
     vertex  5.786118e+02 -7.400000e+01  6.294576e+00
   endloop
 endfacet
 facet normal  6.636068e-01  7.044763e-01 -2.516729e-01
   outer loop
     vertex  5.804127e+02 -7.492028e+01  7.803422e+00
     vertex  5.791705e+02 -7.400000e+01  7.104011e+00
     vertex  5.795193e+02 -7.400000e+01  8.023634e+00
   endloop
 endfacet
 facet normal  6.636068e-01  7.044763e-01 -2.516729e-01
   outer loop
     vertex  5.804127e+02 -7.492028e+01  7.803422e+00
     vertex  5.799853e+02 -7.492028e+01  6.676384e+00
     vertex  5.791705e+02 -7.400000e+01  7.104011e+00
   endloop
 endfacet
 facet normal  7.045528e-01  7.044763e-01 -8.554820e-02
   outer loop
     vertex  5.805580e+02 -7.492028e+01  9.000000e+00
     vertex  5.795193e+02 -7.400000e+01  8.023634e+00
     vertex  5.796378e+02 -7.400000e+01  9.000000e+00
   endloop
 endfacet
 facet normal  7.045528e-01  7.044763e-01 -8.554820e-02
   outer loop
     vertex  5.805580e+02 -7.492028e+01  9.000000e+00
     vertex  5.804127e+02 -7.492028e+01  7.803422e+00
     vertex  5.795193e+02 -7.400000e+01  8.023634e+00
   endloop
 endfacet
 facet normal -9.927089e-01 -3.961639e-15  1.205367e-01
   outer loop
     vertex  5.707033e+02 -7.492028e+01  1.019658e+01
     vertex  5.705580e+02 -7.492028e+01  9.000000e+00
     vertex  5.705580e+02 -1.040000e+02  9.000000e+00
   endloop
 endfacet
 facet normal -9.927089e-01 -3.969340e-15  1.205367e-01
   outer loop
     vertex  5.707033e+02 -7.492028e+01  1.019658e+01
     vertex  5.705580e+02 -1.040000e+02  9.000000e+00
     vertex  5.707033e+02 -1.040000e+02  1.019658e+01
   endloop
 endfacet
 facet normal -9.350162e-01 -3.915371e-15  3.546049e-01
   outer loop
     vertex  5.707033e+02 -7.492028e+01  1.019658e+01
     vertex  5.707033e+02 -1.040000e+02  1.019658e+01
     vertex  5.711307e+02 -1.040000e+02  1.132362e+01
   endloop
 endfacet
 facet normal -8.229839e-01 -3.633854e-15  5.680647e-01
   outer loop
     vertex  5.711307e+02 -7.492028e+01  1.132362e+01
     vertex  5.711307e+02 -1.040000e+02  1.132362e+01
     vertex  5.718154e+02 -1.040000e+02  1.231561e+01
   endloop
 endfacet
 facet normal -9.350162e-01 -3.915371e-15  3.546049e-01
   outer loop
     vertex  5.711307e+02 -7.492028e+01  1.132362e+01
     vertex  5.707033e+02 -7.492028e+01  1.019658e+01
     vertex  5.711307e+02 -1.040000e+02  1.132362e+01
   endloop
 endfacet
 facet normal -6.631227e-01 -6.401268e-16  7.485107e-01
   outer loop
     vertex  5.718154e+02 -7.492028e+01  1.231561e+01
     vertex  5.718154e+02 -1.040000e+02  1.231561e+01
     vertex  5.727177e+02 -1.040000e+02  1.311492e+01
   endloop
 endfacet
 facet normal -8.229839e-01 -4.858093e-16  5.680647e-01
   outer loop
     vertex  5.718154e+02 -7.492028e+01  1.231561e+01
     vertex  5.711307e+02 -7.492028e+01  1.132362e+01
     vertex  5.718154e+02 -1.040000e+02  1.231561e+01
   endloop
 endfacet
 facet normal -4.647232e-01 -2.519983e-15  8.854560e-01
   outer loop
     vertex  5.727177e+02 -7.492028e+01  1.311492e+01
     vertex  5.727177e+02 -1.040000e+02  1.311492e+01
     vertex  5.737850e+02 -1.040000e+02  1.367508e+01
   endloop
 endfacet
 facet normal -6.631227e-01 -3.186874e-15  7.485107e-01
   outer loop
     vertex  5.727177e+02 -7.492028e+01  1.311492e+01
     vertex  5.718154e+02 -7.492028e+01  1.231561e+01
     vertex  5.727177e+02 -1.040000e+02  1.311492e+01
   endloop
 endfacet
 facet normal -2.393157e-01 -7.117285e-16  9.709418e-01
   outer loop
     vertex  5.737850e+02 -7.492028e+01  1.367508e+01
     vertex  5.737850e+02 -1.040000e+02  1.367508e+01
     vertex  5.749553e+02 -1.040000e+02  1.396354e+01
   endloop
 endfacet
 facet normal -4.647232e-01 -6.490650e-16  8.854560e-01
   outer loop
     vertex  5.737850e+02 -7.492028e+01  1.367508e+01
     vertex  5.727177e+02 -7.492028e+01  1.311492e+01
     vertex  5.737850e+02 -1.040000e+02  1.367508e+01
   endloop
 endfacet
 facet normal -2.947413e-15 -7.330290e-16  1.000000e+00
   outer loop
     vertex  5.749553e+02 -7.492028e+01  1.396354e+01
     vertex  5.749553e+02 -1.040000e+02  1.396354e+01
     vertex  5.761607e+02 -1.040000e+02  1.396354e+01
   endloop
 endfacet
 facet normal -2.393157e-01 -1.647330e-15  9.709418e-01
   outer loop
     vertex  5.749553e+02 -7.492028e+01  1.396354e+01
     vertex  5.737850e+02 -7.492028e+01  1.367508e+01
     vertex  5.749553e+02 -1.040000e+02  1.396354e+01
   endloop
 endfacet
 facet normal  2.393157e-01  3.424946e-16  9.709418e-01
   outer loop
     vertex  5.761607e+02 -7.492028e+01  1.396354e+01
     vertex  5.761607e+02 -1.040000e+02  1.396354e+01
     vertex  5.773310e+02 -1.040000e+02  1.367508e+01
   endloop
 endfacet
 facet normal  0.000000e+00 -6.108575e-16  1.000000e+00
   outer loop
     vertex  5.761607e+02 -7.492028e+01  1.396354e+01
     vertex  5.749553e+02 -7.492028e+01  1.396354e+01
     vertex  5.761607e+02 -1.040000e+02  1.396354e+01
   endloop
 endfacet
 facet normal  2.393157e-01 -4.744857e-16  9.709418e-01
   outer loop
     vertex  5.773310e+02 -7.492028e+01  1.367508e+01
     vertex  5.761607e+02 -7.492028e+01  1.396354e+01
     vertex  5.773310e+02 -1.040000e+02  1.367508e+01
   endloop
 endfacet
 facet normal  4.647232e-01 -4.327100e-16  8.854560e-01
   outer loop
     vertex  5.783983e+02 -7.492028e+01  1.311492e+01
     vertex  5.773310e+02 -1.040000e+02  1.367508e+01
     vertex  5.783983e+02 -1.040000e+02  1.311492e+01
   endloop
 endfacet
 facet normal  6.631227e-01 -3.657867e-16  7.485107e-01
   outer loop
     vertex  5.783983e+02 -7.492028e+01  1.311492e+01
     vertex  5.783983e+02 -1.040000e+02  1.311492e+01
     vertex  5.793006e+02 -1.040000e+02  1.231561e+01
   endloop
 endfacet
 facet normal  4.647232e-01 -4.342867e-16  8.854560e-01
   outer loop
     vertex  5.783983e+02 -7.492028e+01  1.311492e+01
     vertex  5.773310e+02 -7.492028e+01  1.367508e+01
     vertex  5.773310e+02 -1.040000e+02  1.367508e+01
   endloop
 endfacet
 facet normal  6.631227e-01 -3.657867e-16  7.485107e-01
   outer loop
     vertex  5.793006e+02 -7.492028e+01  1.231561e+01
     vertex  5.783983e+02 -7.492028e+01  1.311492e+01
     vertex  5.793006e+02 -1.040000e+02  1.231561e+01
   endloop
 endfacet
 facet normal  8.229839e-01 -2.786491e-16  5.680647e-01
   outer loop
     vertex  5.799853e+02 -7.492028e+01  1.132362e+01
     vertex  5.793006e+02 -7.492028e+01  1.231561e+01
     vertex  5.793006e+02 -1.040000e+02  1.231561e+01
   endloop
 endfacet
 facet normal  8.229839e-01  3.009242e-15  5.680647e-01
   outer loop
     vertex  5.799853e+02 -7.492028e+01  1.132362e+01
     vertex  5.793006e+02 -1.040000e+02  1.231561e+01
     vertex  5.799853e+02 -1.040000e+02  1.132362e+01
   endloop
 endfacet
 facet normal  9.350162e-01  3.524709e-15  3.546049e-01
   outer loop
     vertex  5.804127e+02 -7.492028e+01  1.019658e+01
     vertex  5.799853e+02 -7.492028e+01  1.132362e+01
     vertex  5.799853e+02 -1.040000e+02  1.132362e+01
   endloop
 endfacet
 facet normal  9.350162e-01  3.525467e-15  3.546049e-01
   outer loop
     vertex  5.804127e+02 -7.492028e+01  1.019658e+01
     vertex  5.799853e+02 -1.040000e+02  1.132362e+01
     vertex  5.804127e+02 -1.040000e+02  1.019658e+01
   endloop
 endfacet
 facet normal  9.927089e-01  3.836805e-15  1.205367e-01
   outer loop
     vertex  5.804127e+02 -7.492028e+01  1.019658e+01
     vertex  5.804127e+02 -1.040000e+02  1.019658e+01
     vertex  5.805580e+02 -1.040000e+02  9.000000e+00
   endloop
 endfacet
 facet normal  9.927089e-01  3.858894e-15  1.205367e-01
   outer loop
     vertex  5.805580e+02 -7.492028e+01  9.000000e+00
     vertex  5.804127e+02 -7.492028e+01  1.019658e+01
     vertex  5.805580e+02 -1.040000e+02  9.000000e+00
   endloop
 endfacet
 facet normal  9.927089e-01  3.903073e-15 -1.205367e-01
   outer loop
     vertex  5.805580e+02 -7.492028e+01  9.000000e+00
     vertex  5.805580e+02 -1.040000e+02  9.000000e+00
     vertex  5.804127e+02 -1.040000e+02  7.803422e+00
   endloop
 endfacet
 facet normal  9.927089e-01  3.903073e-15 -1.205367e-01
   outer loop
     vertex  5.804127e+02 -7.492028e+01  7.803422e+00
     vertex  5.805580e+02 -7.492028e+01  9.000000e+00
     vertex  5.804127e+02 -1.040000e+02  7.803422e+00
   endloop
 endfacet
 facet normal  9.350162e-01  3.720419e-15 -3.546049e-01
   outer loop
     vertex  5.804127e+02 -7.492028e+01  7.803422e+00
     vertex  5.804127e+02 -1.040000e+02  7.803422e+00
     vertex  5.799853e+02 -1.040000e+02  6.676384e+00
   endloop
 endfacet
 facet normal  9.350162e-01  3.742080e-15 -3.546049e-01
   outer loop
     vertex  5.799853e+02 -7.492028e+01  6.676384e+00
     vertex  5.804127e+02 -7.492028e+01  7.803422e+00
     vertex  5.799853e+02 -1.040000e+02  6.676384e+00
   endloop
 endfacet
 facet normal  8.229839e-01  3.356248e-15 -5.680647e-01
   outer loop
     vertex  5.799853e+02 -7.492028e+01  6.676384e+00
     vertex  5.799853e+02 -1.040000e+02  6.676384e+00
     vertex  5.793006e+02 -1.040000e+02  5.684387e+00
   endloop
 endfacet
 facet normal  8.229839e-01  3.390949e-15 -5.680647e-01
   outer loop
     vertex  5.793006e+02 -7.492028e+01  5.684387e+00
     vertex  5.799853e+02 -7.492028e+01  6.676384e+00
     vertex  5.793006e+02 -1.040000e+02  5.684387e+00
   endloop
 endfacet
 facet normal  6.631227e-01  2.820525e-15 -7.485107e-01
   outer loop
     vertex  5.783983e+02 -7.492028e+01  4.885081e+00
     vertex  5.793006e+02 -7.492028e+01  5.684387e+00
     vertex  5.793006e+02 -1.040000e+02  5.684387e+00
   endloop
 endfacet
 facet normal  6.631227e-01  2.972017e-16 -7.485107e-01
   outer loop
     vertex  5.783983e+02 -7.492028e+01  4.885081e+00
     vertex  5.793006e+02 -1.040000e+02  5.684387e+00
     vertex  5.783983e+02 -1.040000e+02  4.885081e+00
   endloop
 endfacet
 facet normal  4.647232e-01  2.195451e-15 -8.854560e-01
   outer loop
     vertex  5.773310e+02 -7.492028e+01  4.324919e+00
     vertex  5.783983e+02 -1.040000e+02  4.885081e+00
     vertex  5.773310e+02 -1.040000e+02  4.324919e+00
   endloop
 endfacet
 facet normal  4.647232e-01  3.507158e-16 -8.854560e-01
   outer loop
     vertex  5.773310e+02 -7.492028e+01  4.324919e+00
     vertex  5.783983e+02 -7.492028e+01  4.885081e+00
     vertex  5.783983e+02 -1.040000e+02  4.885081e+00
   endloop
 endfacet
 facet normal  2.393157e-01  1.350777e-15 -9.709418e-01
   outer loop
     vertex  5.773310e+02 -7.492028e+01  4.324919e+00
     vertex  5.773310e+02 -1.040000e+02  4.324919e+00
     vertex  5.761607e+02 -1.040000e+02  4.036456e+00
   endloop
 endfacet
 facet normal  2.393157e-01  1.469398e-15 -9.709418e-01
   outer loop
     vertex  5.761607e+02 -7.492028e+01  4.036456e+00
     vertex  5.773310e+02 -7.492028e+01  4.324919e+00
     vertex  5.761607e+02 -1.040000e+02  4.036456e+00
   endloop
 endfacet
 facet normal  5.157973e-15  7.330290e-16 -1.000000e+00
   outer loop
     vertex  5.749553e+02 -7.492028e+01  4.036456e+00
     vertex  5.761607e+02 -1.040000e+02  4.036456e+00
     vertex  5.749553e+02 -1.040000e+02  4.036456e+00
   endloop
 endfacet
 facet normal -2.393157e-01 -2.238732e-16 -9.709418e-01
   outer loop
     vertex  5.749553e+02 -7.492028e+01  4.036456e+00
     vertex  5.749553e+02 -1.040000e+02  4.036456e+00
     vertex  5.737850e+02 -1.040000e+02  4.324919e+00
   endloop
 endfacet
 facet normal  7.368532e-16  5.497718e-16 -1.000000e+00
   outer loop
     vertex  5.749553e+02 -7.492028e+01  4.036456e+00
     vertex  5.761607e+02 -7.492028e+01  4.036456e+00
     vertex  5.761607e+02 -1.040000e+02  4.036456e+00
   endloop
 endfacet
 facet normal -2.393157e-01 -1.645625e-16 -9.709418e-01
   outer loop
     vertex  5.737850e+02 -7.492028e+01  4.324919e+00
     vertex  5.749553e+02 -7.492028e+01  4.036456e+00
     vertex  5.737850e+02 -1.040000e+02  4.324919e+00
   endloop
 endfacet
 facet normal -4.647232e-01 -1.113676e-15 -8.854560e-01
   outer loop
     vertex  5.737850e+02 -7.492028e+01  4.324919e+00
     vertex  5.737850e+02 -1.040000e+02  4.324919e+00
     vertex  5.727177e+02 -1.040000e+02  4.885081e+00
   endloop
 endfacet
 facet normal -6.631227e-01 -1.998067e-15 -7.485107e-01
   outer loop
     vertex  5.727177e+02 -7.492028e+01  4.885081e+00
     vertex  5.727177e+02 -1.040000e+02  4.885081e+00
     vertex  5.718154e+02 -1.040000e+02  5.684387e+00
   endloop
 endfacet
 facet normal -4.647232e-01 -1.113676e-15 -8.854560e-01
   outer loop
     vertex  5.727177e+02 -7.492028e+01  4.885081e+00
     vertex  5.737850e+02 -7.492028e+01  4.324919e+00
     vertex  5.727177e+02 -1.040000e+02  4.885081e+00
   endloop
 endfacet
 facet normal -8.229839e-01  3.990576e-16 -5.680647e-01
   outer loop
     vertex  5.718154e+02 -7.492028e+01  5.684387e+00
     vertex  5.718154e+02 -1.040000e+02  5.684387e+00
     vertex  5.711307e+02 -1.040000e+02  6.676384e+00
   endloop
 endfacet
 facet normal -6.631227e-01  5.258184e-16 -7.485107e-01
   outer loop
     vertex  5.718154e+02 -7.492028e+01  5.684387e+00
     vertex  5.727177e+02 -7.492028e+01  4.885081e+00
     vertex  5.718154e+02 -1.040000e+02  5.684387e+00
   endloop
 endfacet
 facet normal -8.229839e-01 -2.905140e-15 -5.680647e-01
   outer loop
     vertex  5.711307e+02 -7.492028e+01  6.676384e+00
     vertex  5.718154e+02 -7.492028e+01  5.684387e+00
     vertex  5.711307e+02 -1.040000e+02  6.676384e+00
   endloop
 endfacet
 facet normal -9.350162e-01 -3.514636e-15 -3.546049e-01
   outer loop
     vertex  5.707033e+02 -7.492028e+01  7.803422e+00
     vertex  5.711307e+02 -1.040000e+02  6.676384e+00
     vertex  5.707033e+02 -1.040000e+02  7.803422e+00
   endloop
 endfacet
 facet normal -9.927089e-01 -3.833124e-15 -1.205367e-01
   outer loop
     vertex  5.707033e+02 -7.492028e+01  7.803422e+00
     vertex  5.707033e+02 -1.040000e+02  7.803422e+00
     vertex  5.705580e+02 -1.040000e+02  9.000000e+00
   endloop
 endfacet
 facet normal -9.350162e-01 -3.460175e-15 -3.546049e-01
   outer loop
     vertex  5.707033e+02 -7.492028e+01  7.803422e+00
     vertex  5.711307e+02 -7.492028e+01  6.676384e+00
     vertex  5.711307e+02 -1.040000e+02  6.676384e+00
   endloop
 endfacet
 facet normal -9.927089e-01 -3.799990e-15 -1.205367e-01
   outer loop
     vertex  5.705580e+02 -7.492028e+01  9.000000e+00
     vertex  5.707033e+02 -7.492028e+01  7.803422e+00
     vertex  5.705580e+02 -1.040000e+02  9.000000e+00
   endloop
 endfacet
 facet normal -5.993496e-14  1.000000e+00  7.277422e-15
   outer loop
     vertex  5.719455e+02 -7.400000e+01  1.089599e+01
     vertex  5.714782e+02 -7.400000e+01  9.000000e+00
     vertex  5.715967e+02 -7.400000e+01  9.976366e+00
   endloop
 endfacet
 facet normal -2.037299e-14  1.000000e+00 -2.473729e-15
   outer loop
     vertex  5.719455e+02 -7.400000e+01  1.089599e+01
     vertex  5.715967e+02 -7.400000e+01  8.023634e+00
     vertex  5.714782e+02 -7.400000e+01  9.000000e+00
   endloop
 endfacet
 facet normal -9.881634e-15  1.000000e+00 -3.747610e-15
   outer loop
     vertex  5.719455e+02 -7.400000e+01  1.089599e+01
     vertex  5.719455e+02 -7.400000e+01  7.104011e+00
     vertex  5.715967e+02 -7.400000e+01  8.023634e+00
   endloop
 endfacet
 facet normal -3.804944e-15  1.000000e+00 -2.626363e-15
   outer loop
     vertex  5.725042e+02 -7.400000e+01  1.170542e+01
     vertex  5.725042e+02 -7.400000e+01  6.294576e+00
     vertex  5.719455e+02 -7.400000e+01  7.104011e+00
   endloop
 endfacet
 facet normal -2.326755e-15  1.000000e+00 -2.626363e-15
   outer loop
     vertex  5.725042e+02 -7.400000e+01  1.170542e+01
     vertex  5.732404e+02 -7.400000e+01  5.642370e+00
     vertex  5.725042e+02 -7.400000e+01  6.294576e+00
   endloop
 endfacet
 facet normal  5.429350e-15  1.000000e+00 -3.747610e-15
   outer loop
     vertex  5.725042e+02 -7.400000e+01  1.170542e+01
     vertex  5.719455e+02 -7.400000e+01  7.104011e+00
     vertex  5.719455e+02 -7.400000e+01  1.089599e+01
   endloop
 endfacet
 facet normal  1.874792e-15  1.000000e+00 -2.116203e-15
   outer loop
     vertex  5.732404e+02 -7.400000e+01  1.235763e+01
     vertex  5.732404e+02 -7.400000e+01  5.642370e+00
     vertex  5.725042e+02 -7.400000e+01  1.170542e+01
   endloop
 endfacet
 facet normal -9.775902e-16  1.000000e+00 -1.862643e-15
   outer loop
     vertex  5.741113e+02 -7.400000e+01  1.281470e+01
     vertex  5.741113e+02 -7.400000e+01  5.185297e+00
     vertex  5.732404e+02 -7.400000e+01  5.642370e+00
   endloop
 endfacet
 facet normal  1.110669e-15  1.000000e+00 -2.116203e-15
   outer loop
     vertex  5.741113e+02 -7.400000e+01  1.281470e+01
     vertex  5.732404e+02 -7.400000e+01  5.642370e+00
     vertex  5.732404e+02 -7.400000e+01  1.235763e+01
   endloop
 endfacet
 facet normal  4.591001e-16  1.000000e+00 -1.862643e-15
   outer loop
     vertex  5.750662e+02 -7.400000e+01  1.305008e+01
     vertex  5.741113e+02 -7.400000e+01  5.185297e+00
     vertex  5.741113e+02 -7.400000e+01  1.281470e+01
   endloop
 endfacet
 facet normal  0.000000e+00  1.000000e+00  0.000000e+00
   outer loop
     vertex  5.796378e+02 -7.400000e+01  9.000000e+00
     vertex  5.795193e+02 -7.400000e+01  8.023634e+00
     vertex  5.791705e+02 -7.400000e+01  7.104011e+00
   endloop
 endfacet
 facet normal -4.198536e-16  1.000000e+00 -1.703413e-15
   outer loop
     vertex  5.760498e+02 -7.400000e+01  1.305008e+01
     vertex  5.750662e+02 -7.400000e+01  4.949922e+00
     vertex  5.741113e+02 -7.400000e+01  5.185297e+00
   endloop
 endfacet
 facet normal -6.337183e-30  1.000000e+00 -1.754393e-15
   outer loop
     vertex  5.760498e+02 -7.400000e+01  1.305008e+01
     vertex  5.760498e+02 -7.400000e+01  4.949922e+00
     vertex  5.750662e+02 -7.400000e+01  4.949922e+00
   endloop
 endfacet
 facet normal -6.526841e-30  1.000000e+00 -1.806898e-15
   outer loop
     vertex  5.760498e+02 -7.400000e+01  1.305008e+01
     vertex  5.741113e+02 -7.400000e+01  5.185297e+00
     vertex  5.750662e+02 -7.400000e+01  1.305008e+01
   endloop
 endfacet
 facet normal  4.591001e-16  1.000000e+00 -1.862643e-15
   outer loop
     vertex  5.770047e+02 -7.400000e+01  1.281470e+01
     vertex  5.770047e+02 -7.400000e+01  5.185297e+00
     vertex  5.760498e+02 -7.400000e+01  4.949922e+00
   endloop
 endfacet
 facet normal -4.324189e-16  1.000000e+00 -1.754393e-15
   outer loop
     vertex  5.770047e+02 -7.400000e+01  1.281470e+01
     vertex  5.760498e+02 -7.400000e+01  4.949922e+00
     vertex  5.760498e+02 -7.400000e+01  1.305008e+01
   endloop
 endfacet
 facet normal  5.993496e-14  1.000000e+00  7.277422e-15
   outer loop
     vertex  5.791705e+02 -7.400000e+01  1.089599e+01
     vertex  5.795193e+02 -7.400000e+01  9.976366e+00
     vertex  5.796378e+02 -7.400000e+01  9.000000e+00
   endloop
 endfacet
 facet normal  1.110669e-15  1.000000e+00 -2.116203e-15
   outer loop
     vertex  5.778756e+02 -7.400000e+01  1.235763e+01
     vertex  5.778756e+02 -7.400000e+01  5.642370e+00
     vertex  5.770047e+02 -7.400000e+01  5.185297e+00
   endloop
 endfacet
 facet normal  1.874792e-15  1.000000e+00 -2.116203e-15
   outer loop
     vertex  5.778756e+02 -7.400000e+01  1.235763e+01
     vertex  5.786118e+02 -7.400000e+01  6.294576e+00
     vertex  5.778756e+02 -7.400000e+01  5.642370e+00
   endloop
 endfacet
 facet normal -9.775902e-16  1.000000e+00 -1.862643e-15
   outer loop
     vertex  5.778756e+02 -7.400000e+01  1.235763e+01
     vertex  5.770047e+02 -7.400000e+01  5.185297e+00
     vertex  5.770047e+02 -7.400000e+01  1.281470e+01
   endloop
 endfacet
 facet normal  0.000000e+00  1.000000e+00  0.000000e+00
   outer loop
     vertex  5.786118e+02 -7.400000e+01  1.170542e+01
     vertex  5.791705e+02 -7.400000e+01  7.104011e+00
     vertex  5.786118e+02 -7.400000e+01  6.294576e+00
   endloop
 endfacet
 facet normal  0.000000e+00  1.000000e+00  0.000000e+00
   outer loop
     vertex  5.786118e+02 -7.400000e+01  1.170542e+01
     vertex  5.796378e+02 -7.400000e+01  9.000000e+00
     vertex  5.791705e+02 -7.400000e+01  7.104011e+00
   endloop
 endfacet
 facet normal  1.930329e-14  1.000000e+00 -4.055797e-28
   outer loop
     vertex  5.786118e+02 -7.400000e+01  1.170542e+01
     vertex  5.786118e+02 -7.400000e+01  6.294576e+00
     vertex  5.778756e+02 -7.400000e+01  1.235763e+01
   endloop
 endfacet
 facet normal -5.645176e-14  1.000000e+00 -2.140933e-14
   outer loop
     vertex  5.786118e+02 -7.400000e+01  1.170542e+01
     vertex  5.791705e+02 -7.400000e+01  1.089599e+01
     vertex  5.796378e+02 -7.400000e+01  9.000000e+00
   endloop
 endfacet
 facet normal  4.869692e-01 -7.985511e-01 -3.538038e-01
   outer loop
     vertex  5.813737e+02 -1.102248e+02  3.073134e+00
     vertex  5.824862e+02 -1.104001e+02  5.000000e+00
     vertex  5.815032e+02 -1.104001e+02  3.646955e+00
   endloop
 endfacet
 facet normal  3.067707e-01 -8.887142e-01 -3.407034e-01
   outer loop
     vertex  5.802603e+02 -1.104001e+02  2.527864e+00
     vertex  5.813737e+02 -1.102248e+02  3.073134e+00
     vertex  5.815032e+02 -1.104001e+02  3.646955e+00
   endloop
 endfacet
 facet normal  2.435050e-01 -8.733963e-01 -4.217631e-01
   outer loop
     vertex  5.801768e+02 -1.096856e+02  1.000000e+00
     vertex  5.802603e+02 -1.104001e+02  2.527864e+00
     vertex  5.788119e+02 -1.104001e+02  1.691636e+00
   endloop
 endfacet
 facet normal  3.359458e-01 -8.460131e-01 -4.140077e-01
   outer loop
     vertex  5.801768e+02 -1.096856e+02  1.000000e+00
     vertex  5.813737e+02 -1.102248e+02  3.073134e+00
     vertex  5.802603e+02 -1.104001e+02  2.527864e+00
   endloop
 endfacet
 facet normal  1.905683e-01 -8.460131e-01 -4.979414e-01
   outer loop
     vertex  5.777830e+02 -1.102248e+02  1.000000e+00
     vertex  5.801768e+02 -1.096856e+02  1.000000e+00
     vertex  5.788119e+02 -1.104001e+02  1.691636e+00
   endloop
 endfacet
 facet normal  1.416724e-01 -8.887142e-01 -4.360229e-01
   outer loop
     vertex  5.772213e+02 -1.104001e+02  1.174819e+00
     vertex  5.777830e+02 -1.102248e+02  1.000000e+00
     vertex  5.788119e+02 -1.104001e+02  1.691636e+00
   endloop
 endfacet
 facet normal  6.291851e-02 -7.985511e-01 -5.986296e-01
   outer loop
     vertex  5.755580e+02 -1.104001e+02  1.000000e+00
     vertex  5.777830e+02 -1.102248e+02  1.000000e+00
     vertex  5.772213e+02 -1.104001e+02  1.174819e+00
   endloop
 endfacet
 facet normal -6.291851e-02 -7.985511e-01 -5.986296e-01
   outer loop
     vertex  5.733330e+02 -1.102248e+02  1.000000e+00
     vertex  5.755580e+02 -1.104001e+02  1.000000e+00
     vertex  5.738947e+02 -1.104001e+02  1.174819e+00
   endloop
 endfacet
 facet normal -1.416724e-01 -8.887142e-01 -4.360229e-01
   outer loop
     vertex  5.723041e+02 -1.104001e+02  1.691636e+00
     vertex  5.733330e+02 -1.102248e+02  1.000000e+00
     vertex  5.738947e+02 -1.104001e+02  1.174819e+00
   endloop
 endfacet
 facet normal -2.435050e-01 -8.733963e-01 -4.217631e-01
   outer loop
     vertex  5.709392e+02 -1.096856e+02  1.000000e+00
     vertex  5.723041e+02 -1.104001e+02  1.691636e+00
     vertex  5.708557e+02 -1.104001e+02  2.527864e+00
   endloop
 endfacet
 facet normal -1.905683e-01 -8.460131e-01 -4.979414e-01
   outer loop
     vertex  5.709392e+02 -1.096856e+02  1.000000e+00
     vertex  5.733330e+02 -1.102248e+02  1.000000e+00
     vertex  5.723041e+02 -1.104001e+02  1.691636e+00
   endloop
 endfacet
 facet normal -3.359458e-01 -8.460131e-01 -4.140077e-01
   outer loop
     vertex  5.697423e+02 -1.102248e+02  3.073134e+00
     vertex  5.709392e+02 -1.096856e+02  1.000000e+00
     vertex  5.708557e+02 -1.104001e+02  2.527864e+00
   endloop
 endfacet
 facet normal -3.067707e-01 -8.887142e-01 -3.407034e-01
   outer loop
     vertex  5.696128e+02 -1.104001e+02  3.646955e+00
     vertex  5.697423e+02 -1.102248e+02  3.073134e+00
     vertex  5.708557e+02 -1.104001e+02  2.527864e+00
   endloop
 endfacet
 facet normal -4.869692e-01 -7.985511e-01 -3.538038e-01
   outer loop
     vertex  5.686298e+02 -1.104001e+02  5.000000e+00
     vertex  5.697423e+02 -1.102248e+02  3.073134e+00
     vertex  5.696128e+02 -1.104001e+02  3.646955e+00
   endloop
 endfacet
 facet normal  5.498877e-01 -7.985511e-01  2.448258e-01
   outer loop
     vertex  5.835987e+02 -1.102248e+02  1.107313e+01
     vertex  5.824862e+02 -1.104001e+02  1.300000e+01
     vertex  5.831665e+02 -1.104001e+02  1.147214e+01
   endloop
 endfacet
 facet normal  4.484431e-01 -8.887142e-01  9.531953e-02
   outer loop
     vertex  5.835142e+02 -1.104001e+02  9.836228e+00
     vertex  5.835987e+02 -1.102248e+02  1.107313e+01
     vertex  5.831665e+02 -1.104001e+02  1.147214e+01
   endloop
 endfacet
 facet normal  4.870101e-01 -8.733963e-01  1.320264e-17
   outer loop
     vertex  5.847956e+02 -1.096856e+02  9.000000e+00
     vertex  5.835142e+02 -1.104001e+02  9.836228e+00
     vertex  5.835142e+02 -1.104001e+02  8.163772e+00
   endloop
 endfacet
 facet normal  5.265140e-01 -8.460131e-01  8.393376e-02
   outer loop
     vertex  5.847956e+02 -1.096856e+02  9.000000e+00
     vertex  5.835987e+02 -1.102248e+02  1.107313e+01
     vertex  5.835142e+02 -1.104001e+02  9.836228e+00
   endloop
 endfacet
 facet normal  5.265140e-01 -8.460131e-01 -8.393376e-02
   outer loop
     vertex  5.835987e+02 -1.102248e+02  6.926866e+00
     vertex  5.847956e+02 -1.096856e+02  9.000000e+00
     vertex  5.835142e+02 -1.104001e+02  8.163772e+00
   endloop
 endfacet
 facet normal  4.484431e-01 -8.887142e-01 -9.531953e-02
   outer loop
     vertex  5.831665e+02 -1.104001e+02  6.527864e+00
     vertex  5.835987e+02 -1.102248e+02  6.926866e+00
     vertex  5.835142e+02 -1.104001e+02  8.163772e+00
   endloop
 endfacet
 facet normal  5.498877e-01 -7.985511e-01 -2.448258e-01
   outer loop
     vertex  5.824862e+02 -1.104001e+02  5.000000e+00
     vertex  5.835987e+02 -1.102248e+02  6.926866e+00
     vertex  5.831665e+02 -1.104001e+02  6.527864e+00
   endloop
 endfacet
 facet normal -5.498877e-01 -7.985511e-01 -2.448258e-01
   outer loop
     vertex  5.675173e+02 -1.102248e+02  6.926866e+00
     vertex  5.686298e+02 -1.104001e+02  5.000000e+00
     vertex  5.679495e+02 -1.104001e+02  6.527864e+00
   endloop
 endfacet
 facet normal -4.484431e-01 -8.887142e-01 -9.531953e-02
   outer loop
     vertex  5.676018e+02 -1.104001e+02  8.163772e+00
     vertex  5.675173e+02 -1.102248e+02  6.926866e+00
     vertex  5.679495e+02 -1.104001e+02  6.527864e+00
   endloop
 endfacet
 facet normal -4.870101e-01 -8.733963e-01 -1.527763e-17
   outer loop
     vertex  5.663204e+02 -1.096856e+02  9.000000e+00
     vertex  5.676018e+02 -1.104001e+02  8.163772e+00
     vertex  5.676018e+02 -1.104001e+02  9.836228e+00
   endloop
 endfacet
 facet normal -5.265140e-01 -8.460131e-01 -8.393376e-02
   outer loop
     vertex  5.663204e+02 -1.096856e+02  9.000000e+00
     vertex  5.675173e+02 -1.102248e+02  6.926866e+00
     vertex  5.676018e+02 -1.104001e+02  8.163772e+00
   endloop
 endfacet
 facet normal -5.265140e-01 -8.460131e-01  8.393376e-02
   outer loop
     vertex  5.675173e+02 -1.102248e+02  1.107313e+01
     vertex  5.663204e+02 -1.096856e+02  9.000000e+00
     vertex  5.676018e+02 -1.104001e+02  9.836228e+00
   endloop
 endfacet
 facet normal -4.484431e-01 -8.887142e-01  9.531953e-02
   outer loop
     vertex  5.679495e+02 -1.104001e+02  1.147214e+01
     vertex  5.675173e+02 -1.102248e+02  1.107313e+01
     vertex  5.676018e+02 -1.104001e+02  9.836228e+00
   endloop
 endfacet
 facet normal -5.498877e-01 -7.985511e-01  2.448258e-01
   outer loop
     vertex  5.686298e+02 -1.104001e+02  1.300000e+01
     vertex  5.675173e+02 -1.102248e+02  1.107313e+01
     vertex  5.679495e+02 -1.104001e+02  1.147214e+01
   endloop
 endfacet
 facet normal  6.291851e-02 -7.985511e-01  5.986296e-01
   outer loop
     vertex  5.777830e+02 -1.102248e+02  1.700000e+01
     vertex  5.755580e+02 -1.104001e+02  1.700000e+01
     vertex  5.772213e+02 -1.104001e+02  1.682518e+01
   endloop
 endfacet
 facet normal  1.416724e-01 -8.887142e-01  4.360229e-01
   outer loop
     vertex  5.788119e+02 -1.104001e+02  1.630836e+01
     vertex  5.777830e+02 -1.102248e+02  1.700000e+01
     vertex  5.772213e+02 -1.104001e+02  1.682518e+01
   endloop
 endfacet
 facet normal  2.435050e-01 -8.733963e-01  4.217631e-01
   outer loop
     vertex  5.801768e+02 -1.096856e+02  1.700000e+01
     vertex  5.788119e+02 -1.104001e+02  1.630836e+01
     vertex  5.802603e+02 -1.104001e+02  1.547214e+01
   endloop
 endfacet
 facet normal  1.905683e-01 -8.460131e-01  4.979414e-01
   outer loop
     vertex  5.801768e+02 -1.096856e+02  1.700000e+01
     vertex  5.777830e+02 -1.102248e+02  1.700000e+01
     vertex  5.788119e+02 -1.104001e+02  1.630836e+01
   endloop
 endfacet
 facet normal  3.359458e-01 -8.460131e-01  4.140077e-01
   outer loop
     vertex  5.813737e+02 -1.102248e+02  1.492687e+01
     vertex  5.801768e+02 -1.096856e+02  1.700000e+01
     vertex  5.802603e+02 -1.104001e+02  1.547214e+01
   endloop
 endfacet
 facet normal  3.067707e-01 -8.887142e-01  3.407034e-01
   outer loop
     vertex  5.815032e+02 -1.104001e+02  1.435304e+01
     vertex  5.813737e+02 -1.102248e+02  1.492687e+01
     vertex  5.802603e+02 -1.104001e+02  1.547214e+01
   endloop
 endfacet
 facet normal  4.869692e-01 -7.985511e-01  3.538038e-01
   outer loop
     vertex  5.824862e+02 -1.104001e+02  1.300000e+01
     vertex  5.813737e+02 -1.102248e+02  1.492687e+01
     vertex  5.815032e+02 -1.104001e+02  1.435304e+01
   endloop
 endfacet
 facet normal -4.869692e-01 -7.985511e-01  3.538038e-01
   outer loop
     vertex  5.697423e+02 -1.102248e+02  1.492687e+01
     vertex  5.686298e+02 -1.104001e+02  1.300000e+01
     vertex  5.696128e+02 -1.104001e+02  1.435304e+01
   endloop
 endfacet
 facet normal -3.067707e-01 -8.887142e-01  3.407034e-01
   outer loop
     vertex  5.708557e+02 -1.104001e+02  1.547214e+01
     vertex  5.697423e+02 -1.102248e+02  1.492687e+01
     vertex  5.696128e+02 -1.104001e+02  1.435304e+01
   endloop
 endfacet
 facet normal -2.435050e-01 -8.733963e-01  4.217631e-01
   outer loop
     vertex  5.709392e+02 -1.096856e+02  1.700000e+01
     vertex  5.708557e+02 -1.104001e+02  1.547214e+01
     vertex  5.723041e+02 -1.104001e+02  1.630836e+01
   endloop
 endfacet
 facet normal -3.359458e-01 -8.460131e-01  4.140077e-01
   outer loop
     vertex  5.709392e+02 -1.096856e+02  1.700000e+01
     vertex  5.697423e+02 -1.102248e+02  1.492687e+01
     vertex  5.708557e+02 -1.104001e+02  1.547214e+01
   endloop
 endfacet
 facet normal -1.905683e-01 -8.460131e-01  4.979414e-01
   outer loop
     vertex  5.733330e+02 -1.102248e+02  1.700000e+01
     vertex  5.709392e+02 -1.096856e+02  1.700000e+01
     vertex  5.723041e+02 -1.104001e+02  1.630836e+01
   endloop
 endfacet
 facet normal -1.416724e-01 -8.887142e-01  4.360229e-01
   outer loop
     vertex  5.738947e+02 -1.104001e+02  1.682518e+01
     vertex  5.733330e+02 -1.102248e+02  1.700000e+01
     vertex  5.723041e+02 -1.104001e+02  1.630836e+01
   endloop
 endfacet
 facet normal -6.291851e-02 -7.985511e-01  5.986296e-01
   outer loop
     vertex  5.755580e+02 -1.104001e+02  1.700000e+01
     vertex  5.733330e+02 -1.102248e+02  1.700000e+01
     vertex  5.738947e+02 -1.104001e+02  1.682518e+01
   endloop
 endfacet
 facet normal -1.344644e-14 -6.986010e-15  1.000000e+00
   outer loop
     vertex  5.733330e+02 -1.102248e+02  1.700000e+01
     vertex  5.709392e+02 -1.046001e+02  1.700000e+01
     vertex  5.709392e+02 -1.096856e+02  1.700000e+01
   endloop
 endfacet
 facet normal  1.922963e-15 -1.531342e-15  1.000000e+00
   outer loop
     vertex  5.755580e+02 -1.104001e+02  1.700000e+01
     vertex  5.801768e+02 -1.046001e+02  1.700000e+01
     vertex  5.709392e+02 -1.046001e+02  1.700000e+01
   endloop
 endfacet
 facet normal  4.853496e-15  8.023740e-16  1.000000e+00
   outer loop
     vertex  5.755580e+02 -1.104001e+02  1.700000e+01
     vertex  5.709392e+02 -1.046001e+02  1.700000e+01
     vertex  5.733330e+02 -1.102248e+02  1.700000e+01
   endloop
 endfacet
 facet normal  0.000000e+00 -0.000000e+00  1.000000e+00
   outer loop
     vertex  5.777830e+02 -1.102248e+02  1.700000e+01
     vertex  5.801768e+02 -1.046001e+02  1.700000e+01
     vertex  5.755580e+02 -1.104001e+02  1.700000e+01
   endloop
 endfacet
 facet normal  1.641464e-15 -6.986010e-16  1.000000e+00
   outer loop
     vertex  5.801768e+02 -1.096856e+02  1.700000e+01
     vertex  5.801768e+02 -1.046001e+02  1.700000e+01
     vertex  5.777830e+02 -1.102248e+02  1.700000e+01
   endloop
 endfacet
 facet normal  8.660254e-01 -3.493005e-16  5.000000e-01
   outer loop
     vertex  5.801768e+02 -1.046001e+02  1.700000e+01
     vertex  5.801768e+02 -1.096856e+02  1.700000e+01
     vertex  5.813737e+02 -1.102248e+02  1.492687e+01
   endloop
 endfacet
 facet normal  8.660254e-01  3.461972e-15  5.000000e-01
   outer loop
     vertex  5.801768e+02 -1.046001e+02  1.700000e+01
     vertex  5.813737e+02 -1.102248e+02  1.492687e+01
     vertex  5.824862e+02 -1.104001e+02  1.300000e+01
   endloop
 endfacet
 facet normal  8.660254e-01 -2.409969e-15  5.000000e-01
   outer loop
     vertex  5.847956e+02 -1.046001e+02  9.000000e+00
     vertex  5.824862e+02 -1.104001e+02  1.300000e+01
     vertex  5.835987e+02 -1.102248e+02  1.107313e+01
   endloop
 endfacet
 facet normal  8.660254e-01  3.493005e-16  5.000000e-01
   outer loop
     vertex  5.847956e+02 -1.046001e+02  9.000000e+00
     vertex  5.835987e+02 -1.102248e+02  1.107313e+01
     vertex  5.847956e+02 -1.096856e+02  9.000000e+00
   endloop
 endfacet
 facet normal  8.660254e-01 -4.641634e-16  5.000000e-01
   outer loop
     vertex  5.847956e+02 -1.046001e+02  9.000000e+00
     vertex  5.801768e+02 -1.046001e+02  1.700000e+01
     vertex  5.824862e+02 -1.104001e+02  1.300000e+01
   endloop
 endfacet
 facet normal  8.660254e-01  2.116236e-15 -5.000000e-01
   outer loop
     vertex  5.801768e+02 -1.046001e+02  1.000000e+00
     vertex  5.824862e+02 -1.104001e+02  5.000000e+00
     vertex  5.813737e+02 -1.102248e+02  3.073134e+00
   endloop
 endfacet
 facet normal  8.660254e-01  3.493005e-16 -5.000000e-01
   outer loop
     vertex  5.801768e+02 -1.046001e+02  1.000000e+00
     vertex  5.813737e+02 -1.102248e+02  3.073134e+00
     vertex  5.801768e+02 -1.096856e+02  1.000000e+00
   endloop
 endfacet
 facet normal  8.660254e-01 -3.493005e-16 -5.000000e-01
   outer loop
     vertex  5.847956e+02 -1.046001e+02  9.000000e+00
     vertex  5.847956e+02 -1.096856e+02  9.000000e+00
     vertex  5.835987e+02 -1.102248e+02  6.926866e+00
   endloop
 endfacet
 facet normal  8.660254e-01 -2.094731e-15 -5.000000e-01
   outer loop
     vertex  5.847956e+02 -1.046001e+02  9.000000e+00
     vertex  5.835987e+02 -1.102248e+02  6.926866e+00
     vertex  5.824862e+02 -1.104001e+02  5.000000e+00
   endloop
 endfacet
 facet normal  8.660254e-01  4.760776e-18 -5.000000e-01
   outer loop
     vertex  5.847956e+02 -1.046001e+02  9.000000e+00
     vertex  5.824862e+02 -1.104001e+02  5.000000e+00
     vertex  5.801768e+02 -1.046001e+02  1.000000e+00
   endloop
 endfacet
 facet normal  1.418382e-14  1.000000e+00  3.857799e-15
   outer loop
     vertex  5.714026e+02 -1.046001e+02  2.979873e+00
     vertex  5.709392e+02 -1.046001e+02  1.000000e+00
     vertex  5.700826e+02 -1.046001e+02  4.149258e+00
   endloop
 endfacet
 facet normal -2.341071e-14  1.000000e+00 -6.367386e-15
   outer loop
     vertex  5.690809e+02 -1.046001e+02  5.600550e+00
     vertex  5.700826e+02 -1.046001e+02  4.149258e+00
     vertex  5.709392e+02 -1.046001e+02  1.000000e+00
   endloop
 endfacet
 facet normal  3.354986e-15  1.000000e+00  6.392392e-15
   outer loop
     vertex  5.729641e+02 -1.046001e+02  2.160356e+00
     vertex  5.709392e+02 -1.046001e+02  1.000000e+00
     vertex  5.714026e+02 -1.046001e+02  2.979873e+00
   endloop
 endfacet
 facet normal  7.568920e-15  1.000000e+00  6.146275e-15
   outer loop
     vertex  5.663204e+02 -1.046001e+02  9.000000e+00
     vertex  5.690809e+02 -1.046001e+02  5.600550e+00
     vertex  5.709392e+02 -1.046001e+02  1.000000e+00
   endloop
 endfacet
 facet normal  0.000000e+00  1.000000e+00  0.000000e+00
   outer loop
     vertex  5.684556e+02 -1.046001e+02  7.249406e+00
     vertex  5.690809e+02 -1.046001e+02  5.600550e+00
     vertex  5.663204e+02 -1.046001e+02  9.000000e+00
   endloop
 endfacet
 facet normal  7.914286e-15  1.000000e+00 -1.563766e-15
   outer loop
     vertex  5.746763e+02 -1.046001e+02  1.738335e+00
     vertex  5.709392e+02 -1.046001e+02  1.000000e+00
     vertex  5.729641e+02 -1.046001e+02  2.160356e+00
   endloop
 endfacet
 facet normal  7.391461e-15  1.000000e+00  9.015218e-15
   outer loop
     vertex  5.682430e+02 -1.046001e+02  9.000000e+00
     vertex  5.684556e+02 -1.046001e+02  7.249406e+00
     vertex  5.663204e+02 -1.046001e+02  9.000000e+00
   endloop
 endfacet
 facet normal  7.391461e-15  1.000000e+00 -9.015218e-15
   outer loop
     vertex  5.684556e+02 -1.046001e+02  1.075059e+01
     vertex  5.682430e+02 -1.046001e+02  9.000000e+00
     vertex  5.663204e+02 -1.046001e+02  9.000000e+00
   endloop
 endfacet
 facet normal  0.000000e+00  1.000000e+00  0.000000e+00
   outer loop
     vertex  5.801768e+02 -1.046001e+02  1.000000e+00
     vertex  5.764397e+02 -1.046001e+02  1.738335e+00
     vertex  5.781519e+02 -1.046001e+02  2.160356e+00
   endloop
 endfacet
 facet normal  0.000000e+00  1.000000e+00  0.000000e+00
   outer loop
     vertex  5.801768e+02 -1.046001e+02  1.000000e+00
     vertex  5.746763e+02 -1.046001e+02  1.738335e+00
     vertex  5.764397e+02 -1.046001e+02  1.738335e+00
   endloop
 endfacet
 facet normal  3.076740e-15  1.000000e+00  2.292145e-14
   outer loop
     vertex  5.801768e+02 -1.046001e+02  1.000000e+00
     vertex  5.709392e+02 -1.046001e+02  1.000000e+00
     vertex  5.746763e+02 -1.046001e+02  1.738335e+00
   endloop
 endfacet
 facet normal  0.000000e+00  1.000000e+00  0.000000e+00
   outer loop
     vertex  5.690809e+02 -1.046001e+02  1.239945e+01
     vertex  5.684556e+02 -1.046001e+02  1.075059e+01
     vertex  5.663204e+02 -1.046001e+02  9.000000e+00
   endloop
 endfacet
 facet normal  0.000000e+00  1.000000e+00  0.000000e+00
   outer loop
     vertex  5.797134e+02 -1.046001e+02  2.979873e+00
     vertex  5.801768e+02 -1.046001e+02  1.000000e+00
     vertex  5.781519e+02 -1.046001e+02  2.160356e+00
   endloop
 endfacet
 facet normal -8.917071e-15  1.000000e+00 -2.087127e-15
   outer loop
     vertex  5.810334e+02 -1.046001e+02  4.149258e+00
     vertex  5.801768e+02 -1.046001e+02  1.000000e+00
     vertex  5.797134e+02 -1.046001e+02  2.979873e+00
   endloop
 endfacet
 facet normal  1.078851e-14  1.000000e+00 -7.446768e-15
   outer loop
     vertex  5.820351e+02 -1.046001e+02  5.600550e+00
     vertex  5.801768e+02 -1.046001e+02  1.000000e+00
     vertex  5.810334e+02 -1.046001e+02  4.149258e+00
   endloop
 endfacet
 facet normal  0.000000e+00  1.000000e+00  0.000000e+00
   outer loop
     vertex  5.709392e+02 -1.046001e+02  1.700000e+01
     vertex  5.700826e+02 -1.046001e+02  1.385074e+01
     vertex  5.690809e+02 -1.046001e+02  1.239945e+01
   endloop
 endfacet
 facet normal  0.000000e+00  1.000000e+00  0.000000e+00
   outer loop
     vertex  5.709392e+02 -1.046001e+02  1.700000e+01
     vertex  5.714026e+02 -1.046001e+02  1.502013e+01
     vertex  5.700826e+02 -1.046001e+02  1.385074e+01
   endloop
 endfacet
 facet normal  0.000000e+00  1.000000e+00  0.000000e+00
   outer loop
     vertex  5.709392e+02 -1.046001e+02  1.700000e+01
     vertex  5.690809e+02 -1.046001e+02  1.239945e+01
     vertex  5.663204e+02 -1.046001e+02  9.000000e+00
   endloop
 endfacet
 facet normal  0.000000e+00  1.000000e+00  0.000000e+00
   outer loop
     vertex  5.729641e+02 -1.046001e+02  1.583964e+01
     vertex  5.714026e+02 -1.046001e+02  1.502013e+01
     vertex  5.709392e+02 -1.046001e+02  1.700000e+01
   endloop
 endfacet
 facet normal  0.000000e+00  1.000000e+00  0.000000e+00
   outer loop
     vertex  5.746763e+02 -1.046001e+02  1.626167e+01
     vertex  5.729641e+02 -1.046001e+02  1.583964e+01
     vertex  5.709392e+02 -1.046001e+02  1.700000e+01
   endloop
 endfacet
 facet normal  0.000000e+00  1.000000e+00  0.000000e+00
   outer loop
     vertex  5.764397e+02 -1.046001e+02  1.626167e+01
     vertex  5.746763e+02 -1.046001e+02  1.626167e+01
     vertex  5.709392e+02 -1.046001e+02  1.700000e+01
   endloop
 endfacet
 facet normal -1.275040e-28  1.000000e+00 -8.117733e-15
   outer loop
     vertex  5.847956e+02 -1.046001e+02  9.000000e+00
     vertex  5.828730e+02 -1.046001e+02  9.000000e+00
     vertex  5.826604e+02 -1.046001e+02  1.075059e+01
   endloop
 endfacet
 facet normal  0.000000e+00  1.000000e+00  0.000000e+00
   outer loop
     vertex  5.847956e+02 -1.046001e+02  9.000000e+00
     vertex  5.826604e+02 -1.046001e+02  7.249406e+00
     vertex  5.828730e+02 -1.046001e+02  9.000000e+00
   endloop
 endfacet
 facet normal  0.000000e+00  1.000000e+00  0.000000e+00
   outer loop
     vertex  5.847956e+02 -1.046001e+02  9.000000e+00
     vertex  5.820351e+02 -1.046001e+02  5.600550e+00
     vertex  5.826604e+02 -1.046001e+02  7.249406e+00
   endloop
 endfacet
 facet normal  9.659021e-15  1.000000e+00  3.663183e-15
   outer loop
     vertex  5.820351e+02 -1.046001e+02  1.239945e+01
     vertex  5.847956e+02 -1.046001e+02  9.000000e+00
     vertex  5.826604e+02 -1.046001e+02  1.075059e+01
   endloop
 endfacet
 facet normal  2.110747e-15  1.000000e+00  8.563639e-15
   outer loop
     vertex  5.801768e+02 -1.046001e+02  1.700000e+01
     vertex  5.781519e+02 -1.046001e+02  1.583964e+01
     vertex  5.764397e+02 -1.046001e+02  1.626167e+01
   endloop
 endfacet
 facet normal  3.354986e-15  1.000000e+00  6.392392e-15
   outer loop
     vertex  5.801768e+02 -1.046001e+02  1.700000e+01
     vertex  5.797134e+02 -1.046001e+02  1.502013e+01
     vertex  5.781519e+02 -1.046001e+02  1.583964e+01
   endloop
 endfacet
 facet normal  1.418382e-14  1.000000e+00  3.857799e-15
   outer loop
     vertex  5.801768e+02 -1.046001e+02  1.700000e+01
     vertex  5.810334e+02 -1.046001e+02  1.385074e+01
     vertex  5.797134e+02 -1.046001e+02  1.502013e+01
   endloop
 endfacet
 facet normal -4.682143e-14  1.000000e+00 -1.273477e-14
   outer loop
     vertex  5.801768e+02 -1.046001e+02  1.700000e+01
     vertex  5.820351e+02 -1.046001e+02  1.239945e+01
     vertex  5.810334e+02 -1.046001e+02  1.385074e+01
   endloop
 endfacet
 facet normal  1.538370e-15  1.000000e+00  1.146072e-14
   outer loop
     vertex  5.801768e+02 -1.046001e+02  1.700000e+01
     vertex  5.764397e+02 -1.046001e+02  1.626167e+01
     vertex  5.709392e+02 -1.046001e+02  1.700000e+01
   endloop
 endfacet
 facet normal  7.568920e-15  1.000000e+00 -6.146275e-15
   outer loop
     vertex  5.847956e+02 -1.046001e+02  9.000000e+00
     vertex  5.801768e+02 -1.046001e+02  1.000000e+00
     vertex  5.820351e+02 -1.046001e+02  5.600550e+00
   endloop
 endfacet
 facet normal  2.538102e-14  1.000000e+00  1.643010e-14
   outer loop
     vertex  5.801768e+02 -1.046001e+02  1.700000e+01
     vertex  5.847956e+02 -1.046001e+02  9.000000e+00
     vertex  5.820351e+02 -1.046001e+02  1.239945e+01
   endloop
 endfacet
 facet normal -1.600668e-15 -4.961027e-17 -1.000000e+00
   outer loop
     vertex  5.709392e+02 -1.046001e+02  1.000000e+00
     vertex  5.755580e+02 -1.104001e+02  1.000000e+00
     vertex  5.733330e+02 -1.102248e+02  1.000000e+00
   endloop
 endfacet
 facet normal  1.573630e-16  6.986010e-16 -1.000000e+00
   outer loop
     vertex  5.709392e+02 -1.046001e+02  1.000000e+00
     vertex  5.733330e+02 -1.102248e+02  1.000000e+00
     vertex  5.709392e+02 -1.096856e+02  1.000000e+00
   endloop
 endfacet
 facet normal -1.641464e-15  6.986010e-16 -1.000000e+00
   outer loop
     vertex  5.801768e+02 -1.046001e+02  1.000000e+00
     vertex  5.801768e+02 -1.096856e+02  1.000000e+00
     vertex  5.777830e+02 -1.102248e+02  1.000000e+00
   endloop
 endfacet
 facet normal -3.717362e-15  1.582095e-15 -1.000000e+00
   outer loop
     vertex  5.801768e+02 -1.046001e+02  1.000000e+00
     vertex  5.777830e+02 -1.102248e+02  1.000000e+00
     vertex  5.755580e+02 -1.104001e+02  1.000000e+00
   endloop
 endfacet
 facet normal -1.634518e-15 -7.656711e-17 -1.000000e+00
   outer loop
     vertex  5.801768e+02 -1.046001e+02  1.000000e+00
     vertex  5.755580e+02 -1.104001e+02  1.000000e+00
     vertex  5.709392e+02 -1.046001e+02  1.000000e+00
   endloop
 endfacet
 facet normal -8.660254e-01  3.493005e-16 -5.000000e-01
   outer loop
     vertex  5.709392e+02 -1.046001e+02  1.000000e+00
     vertex  5.709392e+02 -1.096856e+02  1.000000e+00
     vertex  5.697423e+02 -1.102248e+02  3.073134e+00
   endloop
 endfacet
 facet normal -8.660254e-01  4.400789e-15 -5.000000e-01
   outer loop
     vertex  5.709392e+02 -1.046001e+02  1.000000e+00
     vertex  5.697423e+02 -1.102248e+02  3.073134e+00
     vertex  5.686298e+02 -1.104001e+02  5.000000e+00
   endloop
 endfacet
 facet normal -8.660254e-01 -3.128713e-15 -5.000000e-01
   outer loop
     vertex  5.663204e+02 -1.046001e+02  9.000000e+00
     vertex  5.686298e+02 -1.104001e+02  5.000000e+00
     vertex  5.675173e+02 -1.102248e+02  6.926866e+00
   endloop
 endfacet
 facet normal -8.660254e-01  2.794404e-15 -5.000000e-01
   outer loop
     vertex  5.663204e+02 -1.046001e+02  9.000000e+00
     vertex  5.675173e+02 -1.102248e+02  6.926866e+00
     vertex  5.663204e+02 -1.096856e+02  9.000000e+00
   endloop
 endfacet
 facet normal -8.660254e-01 -1.776746e-17 -5.000000e-01
   outer loop
     vertex  5.663204e+02 -1.046001e+02  9.000000e+00
     vertex  5.709392e+02 -1.046001e+02  1.000000e+00
     vertex  5.686298e+02 -1.104001e+02  5.000000e+00
   endloop
 endfacet
 facet normal -8.660254e-01 -2.809370e-15  5.000000e-01
   outer loop
     vertex  5.675173e+02 -1.102248e+02  1.107313e+01
     vertex  5.663204e+02 -1.046001e+02  9.000000e+00
     vertex  5.663204e+02 -1.096856e+02  9.000000e+00
   endloop
 endfacet
 facet normal -8.660254e-01 -5.509886e-16  5.000000e-01
   outer loop
     vertex  5.686298e+02 -1.104001e+02  1.300000e+01
     vertex  5.709392e+02 -1.046001e+02  1.700000e+01
     vertex  5.663204e+02 -1.046001e+02  9.000000e+00
   endloop
 endfacet
 facet normal -8.660254e-01 -1.037229e-15  5.000000e-01
   outer loop
     vertex  5.686298e+02 -1.104001e+02  1.300000e+01
     vertex  5.663204e+02 -1.046001e+02  9.000000e+00
     vertex  5.675173e+02 -1.102248e+02  1.107313e+01
   endloop
 endfacet
 facet normal -8.660254e-01  1.256182e-15  5.000000e-01
   outer loop
     vertex  5.697423e+02 -1.102248e+02  1.492687e+01
     vertex  5.709392e+02 -1.046001e+02  1.700000e+01
     vertex  5.686298e+02 -1.104001e+02  1.300000e+01
   endloop
 endfacet
 facet normal -8.660254e-01 -3.493005e-15  5.000000e-01
   outer loop
     vertex  5.709392e+02 -1.096856e+02  1.700000e+01
     vertex  5.709392e+02 -1.046001e+02  1.700000e+01
     vertex  5.697423e+02 -1.102248e+02  1.492687e+01
   endloop
 endfacet
 facet normal  0.000000e+00 -1.000000e+00  0.000000e+00
   outer loop
     vertex  5.723041e+02 -1.104001e+02  1.691636e+00
     vertex  5.696128e+02 -1.104001e+02  3.646955e+00
     vertex  5.708557e+02 -1.104001e+02  2.527864e+00
   endloop
 endfacet
 facet normal  0.000000e+00 -1.000000e+00  0.000000e+00
   outer loop
     vertex  5.676018e+02 -1.104001e+02  9.836228e+00
     vertex  5.676018e+02 -1.104001e+02  8.163772e+00
     vertex  5.679495e+02 -1.104001e+02  6.527864e+00
   endloop
 endfacet
 facet normal -1.172856e-13 -1.000000e+00  3.361664e-14
   outer loop
     vertex  5.686298e+02 -1.104001e+02  1.300000e+01
     vertex  5.679495e+02 -1.104001e+02  1.147214e+01
     vertex  5.676018e+02 -1.104001e+02  9.836228e+00
   endloop
 endfacet
 facet normal -1.044533e-14 -1.000000e+00 -1.097849e-15
   outer loop
     vertex  5.686298e+02 -1.104001e+02  1.300000e+01
     vertex  5.676018e+02 -1.104001e+02  9.836228e+00
     vertex  5.679495e+02 -1.104001e+02  6.527864e+00
   endloop
 endfacet
 facet normal  2.708497e-14 -1.000000e+00 -1.327362e-15
   outer loop
     vertex  5.696128e+02 -1.104001e+02  1.435304e+01
     vertex  5.686298e+02 -1.104001e+02  5.000000e+00
     vertex  5.696128e+02 -1.104001e+02  3.646955e+00
   endloop
 endfacet
 facet normal -1.414006e-14 -1.000000e+00  3.005563e-15
   outer loop
     vertex  5.696128e+02 -1.104001e+02  1.435304e+01
     vertex  5.679495e+02 -1.104001e+02  6.527864e+00
     vertex  5.686298e+02 -1.104001e+02  5.000000e+00
   endloop
 endfacet
 facet normal -9.643848e-16 -1.000000e+00 -1.327362e-15
   outer loop
     vertex  5.696128e+02 -1.104001e+02  1.435304e+01
     vertex  5.696128e+02 -1.104001e+02  3.646955e+00
     vertex  5.723041e+02 -1.104001e+02  1.691636e+00
   endloop
 endfacet
 facet normal  2.043416e-14 -1.000000e+00 -4.343414e-15
   outer loop
     vertex  5.696128e+02 -1.104001e+02  1.435304e+01
     vertex  5.686298e+02 -1.104001e+02  1.300000e+01
     vertex  5.679495e+02 -1.104001e+02  6.527864e+00
   endloop
 endfacet
 facet normal -4.778040e-14 -1.000000e+00  6.576408e-14
   outer loop
     vertex  5.815032e+02 -1.104001e+02  3.646955e+00
     vertex  5.788119e+02 -1.104001e+02  1.691636e+00
     vertex  5.802603e+02 -1.104001e+02  2.527864e+00
   endloop
 endfacet
 facet normal -9.250173e-15 -1.000000e+00 -9.722323e-16
   outer loop
     vertex  5.723041e+02 -1.104001e+02  1.630836e+01
     vertex  5.723041e+02 -1.104001e+02  1.691636e+00
     vertex  5.738947e+02 -1.104001e+02  1.174819e+00
   endloop
 endfacet
 facet normal -1.727848e-14 -1.000000e+00 -1.816042e-15
   outer loop
     vertex  5.723041e+02 -1.104001e+02  1.630836e+01
     vertex  5.738947e+02 -1.104001e+02  1.174819e+00
     vertex  5.755580e+02 -1.104001e+02  1.000000e+00
   endloop
 endfacet
 facet normal  0.000000e+00 -1.000000e+00  0.000000e+00
   outer loop
     vertex  5.723041e+02 -1.104001e+02  1.630836e+01
     vertex  5.708557e+02 -1.104001e+02  1.547214e+01
     vertex  5.696128e+02 -1.104001e+02  1.435304e+01
   endloop
 endfacet
 facet normal  7.063681e-16 -1.000000e+00 -9.722323e-16
   outer loop
     vertex  5.723041e+02 -1.104001e+02  1.630836e+01
     vertex  5.696128e+02 -1.104001e+02  1.435304e+01
     vertex  5.723041e+02 -1.104001e+02  1.691636e+00
   endloop
 endfacet
 facet normal -1.262900e-14 -1.000000e+00  3.886808e-14
   outer loop
     vertex  5.755580e+02 -1.104001e+02  1.700000e+01
     vertex  5.738947e+02 -1.104001e+02  1.682518e+01
     vertex  5.723041e+02 -1.104001e+02  1.630836e+01
   endloop
 endfacet
 facet normal -4.556127e-15 -1.000000e+00  8.881784e-16
   outer loop
     vertex  5.755580e+02 -1.104001e+02  1.700000e+01
     vertex  5.723041e+02 -1.104001e+02  1.630836e+01
     vertex  5.755580e+02 -1.104001e+02  1.000000e+00
   endloop
 endfacet
 facet normal  1.708761e-14 -1.000000e+00 -1.241272e-28
   outer loop
     vertex  5.772213e+02 -1.104001e+02  1.682518e+01
     vertex  5.755580e+02 -1.104001e+02  1.000000e+00
     vertex  5.772213e+02 -1.104001e+02  1.174819e+00
   endloop
 endfacet
 facet normal  8.637156e-15 -1.000000e+00  8.881784e-16
   outer loop
     vertex  5.772213e+02 -1.104001e+02  1.682518e+01
     vertex  5.755580e+02 -1.104001e+02  1.700000e+01
     vertex  5.755580e+02 -1.104001e+02  1.000000e+00
   endloop
 endfacet
 facet normal  0.000000e+00 -1.000000e+00  0.000000e+00
   outer loop
     vertex  5.831665e+02 -1.104001e+02  1.147214e+01
     vertex  5.831665e+02 -1.104001e+02  6.527864e+00
     vertex  5.835142e+02 -1.104001e+02  8.163772e+00
   endloop
 endfacet
 facet normal  0.000000e+00 -1.000000e+00  0.000000e+00
   outer loop
     vertex  5.831665e+02 -1.104001e+02  1.147214e+01
     vertex  5.835142e+02 -1.104001e+02  8.163772e+00
     vertex  5.835142e+02 -1.104001e+02  9.836228e+00
   endloop
 endfacet
 facet normal -8.934275e-15 -1.000000e+00  6.490007e-29
   outer loop
     vertex  5.788119e+02 -1.104001e+02  1.630836e+01
     vertex  5.772213e+02 -1.104001e+02  1.682518e+01
     vertex  5.772213e+02 -1.104001e+02  1.174819e+00
   endloop
 endfacet
 facet normal  2.488043e-14 -1.000000e+00 -1.776357e-15
   outer loop
     vertex  5.824862e+02 -1.104001e+02  1.300000e+01
     vertex  5.824862e+02 -1.104001e+02  5.000000e+00
     vertex  5.831665e+02 -1.104001e+02  6.527864e+00
   endloop
 endfacet
 facet normal -1.201102e-14 -1.000000e+00 -1.776357e-15
   outer loop
     vertex  5.824862e+02 -1.104001e+02  1.300000e+01
     vertex  5.815032e+02 -1.104001e+02  3.646955e+00
     vertex  5.824862e+02 -1.104001e+02  5.000000e+00
   endloop
 endfacet
 facet normal  4.178134e-14 -1.000000e+00  0.000000e+00
   outer loop
     vertex  5.824862e+02 -1.104001e+02  1.300000e+01
     vertex  5.831665e+02 -1.104001e+02  6.527864e+00
     vertex  5.831665e+02 -1.104001e+02  1.147214e+01
   endloop
 endfacet
 facet normal -2.043416e-14 -1.000000e+00 -3.539300e-14
   outer loop
     vertex  5.815032e+02 -1.104001e+02  1.435304e+01
     vertex  5.802603e+02 -1.104001e+02  1.547214e+01
     vertex  5.788119e+02 -1.104001e+02  1.630836e+01
   endloop
 endfacet
 facet normal  0.000000e+00 -1.000000e+00  0.000000e+00
   outer loop
     vertex  5.815032e+02 -1.104001e+02  1.435304e+01
     vertex  5.772213e+02 -1.104001e+02  1.174819e+00
     vertex  5.788119e+02 -1.104001e+02  1.691636e+00
   endloop
 endfacet
 facet normal  0.000000e+00 -1.000000e+00 -0.000000e+00
   outer loop
     vertex  5.815032e+02 -1.104001e+02  1.435304e+01
     vertex  5.788119e+02 -1.104001e+02  1.691636e+00
     vertex  5.815032e+02 -1.104001e+02  3.646955e+00
   endloop
 endfacet
 facet normal -2.891192e-14 -1.000000e+00 -0.000000e+00
   outer loop
     vertex  5.815032e+02 -1.104001e+02  1.435304e+01
     vertex  5.815032e+02 -1.104001e+02  3.646955e+00
     vertex  5.824862e+02 -1.104001e+02  1.300000e+01
   endloop
 endfacet
 facet normal  4.271902e-15 -1.000000e+00 -1.388025e-15
   outer loop
     vertex  5.815032e+02 -1.104001e+02  1.435304e+01
     vertex  5.788119e+02 -1.104001e+02  1.630836e+01
     vertex  5.772213e+02 -1.104001e+02  1.174819e+00
   endloop
 endfacet
 facet normal -9.927089e-01  8.978996e-18  1.205367e-01
   outer loop
     vertex  5.684556e+02 -1.040000e+02  1.075059e+01
     vertex  5.682430e+02 -1.040000e+02  9.000000e+00
     vertex  5.682430e+02 -1.046001e+02  9.000000e+00
   endloop
 endfacet
 facet normal -9.927089e-01 -3.568008e-16  1.205367e-01
   outer loop
     vertex  5.684556e+02 -1.040000e+02  1.075059e+01
     vertex  5.682430e+02 -1.046001e+02  9.000000e+00
     vertex  5.684556e+02 -1.046001e+02  1.075059e+01
   endloop
 endfacet
 facet normal -9.350162e-01  0.000000e+00  3.546049e-01
   outer loop
     vertex  5.690809e+02 -1.040000e+02  1.239945e+01
     vertex  5.684556e+02 -1.046001e+02  1.075059e+01
     vertex  5.690809e+02 -1.046001e+02  1.239945e+01
   endloop
 endfacet
 facet normal -9.350162e-01 -1.013110e-15  3.546049e-01
   outer loop
     vertex  5.690809e+02 -1.040000e+02  1.239945e+01
     vertex  5.684556e+02 -1.040000e+02  1.075059e+01
     vertex  5.684556e+02 -1.046001e+02  1.075059e+01
   endloop
 endfacet
 facet normal -8.229839e-01  0.000000e+00  5.680647e-01
   outer loop
     vertex  5.700826e+02 -1.040000e+02  1.385074e+01
     vertex  5.690809e+02 -1.046001e+02  1.239945e+01
     vertex  5.700826e+02 -1.046001e+02  1.385074e+01
   endloop
 endfacet
 facet normal -8.229839e-01 -5.024795e-17  5.680647e-01
   outer loop
     vertex  5.700826e+02 -1.040000e+02  1.385074e+01
     vertex  5.690809e+02 -1.040000e+02  1.239945e+01
     vertex  5.690809e+02 -1.046001e+02  1.239945e+01
   endloop
 endfacet
 facet normal -6.631227e-01  0.000000e+00  7.485107e-01
   outer loop
     vertex  5.714026e+02 -1.040000e+02  1.502013e+01
     vertex  5.700826e+02 -1.046001e+02  1.385074e+01
     vertex  5.714026e+02 -1.046001e+02  1.502013e+01
   endloop
 endfacet
 facet normal -6.631227e-01  5.010699e-18  7.485107e-01
   outer loop
     vertex  5.714026e+02 -1.040000e+02  1.502013e+01
     vertex  5.700826e+02 -1.040000e+02  1.385074e+01
     vertex  5.700826e+02 -1.046001e+02  1.385074e+01
   endloop
 endfacet
 facet normal -4.647232e-01  0.000000e+00  8.854560e-01
   outer loop
     vertex  5.729641e+02 -1.040000e+02  1.583964e+01
     vertex  5.714026e+02 -1.046001e+02  1.502013e+01
     vertex  5.729641e+02 -1.046001e+02  1.583964e+01
   endloop
 endfacet
 facet normal -4.647232e-01  9.528671e-17  8.854560e-01
   outer loop
     vertex  5.729641e+02 -1.040000e+02  1.583964e+01
     vertex  5.714026e+02 -1.040000e+02  1.502013e+01
     vertex  5.714026e+02 -1.046001e+02  1.502013e+01
   endloop
 endfacet
 facet normal -2.393157e-01 -5.748172e-15  9.709418e-01
   outer loop
     vertex  5.746763e+02 -1.040000e+02  1.626167e+01
     vertex  5.729641e+02 -1.046001e+02  1.583964e+01
     vertex  5.746763e+02 -1.046001e+02  1.626167e+01
   endloop
 endfacet
 facet normal -2.393157e-01  1.318456e-17  9.709418e-01
   outer loop
     vertex  5.746763e+02 -1.040000e+02  1.626167e+01
     vertex  5.729641e+02 -1.040000e+02  1.583964e+01
     vertex  5.729641e+02 -1.046001e+02  1.583964e+01
   endloop
 endfacet
 facet normal -2.014636e-15  0.000000e+00  1.000000e+00
   outer loop
     vertex  5.764397e+02 -1.040000e+02  1.626167e+01
     vertex  5.746763e+02 -1.046001e+02  1.626167e+01
     vertex  5.764397e+02 -1.046001e+02  1.626167e+01
   endloop
 endfacet
 facet normal  2.393157e-01  0.000000e+00  9.709418e-01
   outer loop
     vertex  5.764397e+02 -1.040000e+02  1.626167e+01
     vertex  5.764397e+02 -1.046001e+02  1.626167e+01
     vertex  5.781519e+02 -1.046001e+02  1.583964e+01
   endloop
 endfacet
 facet normal  0.000000e+00 -5.920203e-15  1.000000e+00
   outer loop
     vertex  5.764397e+02 -1.040000e+02  1.626167e+01
     vertex  5.746763e+02 -1.040000e+02  1.626167e+01
     vertex  5.746763e+02 -1.046001e+02  1.626167e+01
   endloop
 endfacet
 facet normal  2.393157e-01  0.000000e+00  9.709418e-01
   outer loop
     vertex  5.781519e+02 -1.040000e+02  1.583964e+01
     vertex  5.764397e+02 -1.040000e+02  1.626167e+01
     vertex  5.781519e+02 -1.046001e+02  1.583964e+01
   endloop
 endfacet
 facet normal  4.647232e-01  0.000000e+00  8.854560e-01
   outer loop
     vertex  5.797134e+02 -1.040000e+02  1.502013e+01
     vertex  5.781519e+02 -1.046001e+02  1.583964e+01
     vertex  5.797134e+02 -1.046001e+02  1.502013e+01
   endloop
 endfacet
 facet normal  4.647232e-01  7.877158e-18  8.854560e-01
   outer loop
     vertex  5.797134e+02 -1.040000e+02  1.502013e+01
     vertex  5.781519e+02 -1.040000e+02  1.583964e+01
     vertex  5.781519e+02 -1.046001e+02  1.583964e+01
   endloop
 endfacet
 facet normal  6.631227e-01 -4.431335e-15  7.485107e-01
   outer loop
     vertex  5.810334e+02 -1.040000e+02  1.385074e+01
     vertex  5.797134e+02 -1.046001e+02  1.502013e+01
     vertex  5.810334e+02 -1.046001e+02  1.385074e+01
   endloop
 endfacet
 facet normal  8.229839e-01 -3.363058e-15  5.680647e-01
   outer loop
     vertex  5.810334e+02 -1.040000e+02  1.385074e+01
     vertex  5.810334e+02 -1.046001e+02  1.385074e+01
     vertex  5.820351e+02 -1.046001e+02  1.239945e+01
   endloop
 endfacet
 facet normal  6.631227e-01  2.004217e-17  7.485107e-01
   outer loop
     vertex  5.810334e+02 -1.040000e+02  1.385074e+01
     vertex  5.797134e+02 -1.040000e+02  1.502013e+01
     vertex  5.797134e+02 -1.046001e+02  1.502013e+01
   endloop
 endfacet
 facet normal  8.229839e-01  0.000000e+00  5.680647e-01
   outer loop
     vertex  5.820351e+02 -1.040000e+02  1.239945e+01
     vertex  5.810334e+02 -1.040000e+02  1.385074e+01
     vertex  5.820351e+02 -1.046001e+02  1.239945e+01
   endloop
 endfacet
 facet normal  9.350162e-01 -3.600531e-17  3.546049e-01
   outer loop
     vertex  5.826604e+02 -1.040000e+02  1.075059e+01
     vertex  5.820351e+02 -1.040000e+02  1.239945e+01
     vertex  5.820351e+02 -1.046001e+02  1.239945e+01
   endloop
 endfacet
 facet normal  9.350162e-01  0.000000e+00  3.546049e-01
   outer loop
     vertex  5.826604e+02 -1.040000e+02  1.075059e+01
     vertex  5.820351e+02 -1.046001e+02  1.239945e+01
     vertex  5.826604e+02 -1.046001e+02  1.075059e+01
   endloop
 endfacet
 facet normal  9.927089e-01 -8.978996e-18  1.205367e-01
   outer loop
     vertex  5.828730e+02 -1.040000e+02  9.000000e+00
     vertex  5.826604e+02 -1.040000e+02  1.075059e+01
     vertex  5.826604e+02 -1.046001e+02  1.075059e+01
   endloop
 endfacet
 facet normal  9.927089e-01  0.000000e+00  1.205367e-01
   outer loop
     vertex  5.828730e+02 -1.040000e+02  9.000000e+00
     vertex  5.826604e+02 -1.046001e+02  1.075059e+01
     vertex  5.828730e+02 -1.046001e+02  9.000000e+00
   endloop
 endfacet
 facet normal  9.927089e-01 -1.410421e-18 -1.205367e-01
   outer loop
     vertex  5.826604e+02 -1.040000e+02  7.249406e+00
     vertex  5.828730e+02 -1.040000e+02  9.000000e+00
     vertex  5.828730e+02 -1.046001e+02  9.000000e+00
   endloop
 endfacet
 facet normal  9.927089e-01  0.000000e+00 -1.205367e-01
   outer loop
     vertex  5.826604e+02 -1.040000e+02  7.249406e+00
     vertex  5.828730e+02 -1.046001e+02  9.000000e+00
     vertex  5.826604e+02 -1.046001e+02  7.249406e+00
   endloop
 endfacet
 facet normal  9.350162e-01  0.000000e+00 -3.546049e-01
   outer loop
     vertex  5.826604e+02 -1.040000e+02  7.249406e+00
     vertex  5.826604e+02 -1.046001e+02  7.249406e+00
     vertex  5.820351e+02 -1.046001e+02  5.600550e+00
   endloop
 endfacet
 facet normal  9.350162e-01  1.049666e-15 -3.546049e-01
   outer loop
     vertex  5.820351e+02 -1.040000e+02  5.600550e+00
     vertex  5.826604e+02 -1.040000e+02  7.249406e+00
     vertex  5.820351e+02 -1.046001e+02  5.600550e+00
   endloop
 endfacet
 facet normal  8.229839e-01  1.645685e-15 -5.680647e-01
   outer loop
     vertex  5.810334e+02 -1.040000e+02  4.149258e+00
     vertex  5.820351e+02 -1.040000e+02  5.600550e+00
     vertex  5.820351e+02 -1.046001e+02  5.600550e+00
   endloop
 endfacet
 facet normal  8.229839e-01  1.681529e-15 -5.680647e-01
   outer loop
     vertex  5.810334e+02 -1.040000e+02  4.149258e+00
     vertex  5.820351e+02 -1.046001e+02  5.600550e+00
     vertex  5.810334e+02 -1.046001e+02  4.149258e+00
   endloop
 endfacet
 facet normal  6.631227e-01  2.215668e-15 -7.485107e-01
   outer loop
     vertex  5.810334e+02 -1.040000e+02  4.149258e+00
     vertex  5.810334e+02 -1.046001e+02  4.149258e+00
     vertex  5.797134e+02 -1.046001e+02  2.979873e+00
   endloop
 endfacet
 facet normal  6.631227e-01  1.107834e-15 -7.485107e-01
   outer loop
     vertex  5.797134e+02 -1.040000e+02  2.979873e+00
     vertex  5.810334e+02 -1.040000e+02  4.149258e+00
     vertex  5.797134e+02 -1.046001e+02  2.979873e+00
   endloop
 endfacet
 facet normal  4.647232e-01  1.316834e-15 -8.854560e-01
   outer loop
     vertex  5.781519e+02 -1.040000e+02  2.160356e+00
     vertex  5.797134e+02 -1.040000e+02  2.979873e+00
     vertex  5.797134e+02 -1.046001e+02  2.979873e+00
   endloop
 endfacet
 facet normal  4.647232e-01 -1.310520e-15 -8.854560e-01
   outer loop
     vertex  5.781519e+02 -1.040000e+02  2.160356e+00
     vertex  5.797134e+02 -1.046001e+02  2.979873e+00
     vertex  5.781519e+02 -1.046001e+02  2.160356e+00
   endloop
 endfacet
 facet normal  2.393157e-01 -1.437043e-15 -9.709418e-01
   outer loop
     vertex  5.781519e+02 -1.040000e+02  2.160356e+00
     vertex  5.781519e+02 -1.046001e+02  2.160356e+00
     vertex  5.764397e+02 -1.046001e+02  1.738335e+00
   endloop
 endfacet
 facet normal  2.393157e-01 -1.437043e-15 -9.709418e-01
   outer loop
     vertex  5.764397e+02 -1.040000e+02  1.738335e+00
     vertex  5.781519e+02 -1.040000e+02  2.160356e+00
     vertex  5.764397e+02 -1.046001e+02  1.738335e+00
   endloop
 endfacet
 facet normal  2.518295e-15 -1.480051e-15 -1.000000e+00
   outer loop
     vertex  5.746763e+02 -1.040000e+02  1.738335e+00
     vertex  5.764397e+02 -1.040000e+02  1.738335e+00
     vertex  5.764397e+02 -1.046001e+02  1.738335e+00
   endloop
 endfacet
 facet normal  4.029273e-15  2.960101e-15 -1.000000e+00
   outer loop
     vertex  5.746763e+02 -1.040000e+02  1.738335e+00
     vertex  5.764397e+02 -1.046001e+02  1.738335e+00
     vertex  5.746763e+02 -1.046001e+02  1.738335e+00
   endloop
 endfacet
 facet normal -2.393157e-01  2.874086e-15 -9.709418e-01
   outer loop
     vertex  5.746763e+02 -1.040000e+02  1.738335e+00
     vertex  5.746763e+02 -1.046001e+02  1.738335e+00
     vertex  5.729641e+02 -1.046001e+02  2.160356e+00
   endloop
 endfacet
 facet normal -2.393157e-01 -0.000000e+00 -9.709418e-01
   outer loop
     vertex  5.729641e+02 -1.040000e+02  2.160356e+00
     vertex  5.746763e+02 -1.040000e+02  1.738335e+00
     vertex  5.729641e+02 -1.046001e+02  2.160356e+00
   endloop
 endfacet
 facet normal -4.647232e-01  5.945909e-17 -8.854560e-01
   outer loop
     vertex  5.714026e+02 -1.040000e+02  2.979873e+00
     vertex  5.729641e+02 -1.040000e+02  2.160356e+00
     vertex  5.729641e+02 -1.046001e+02  2.160356e+00
   endloop
 endfacet
 facet normal -4.647232e-01 -0.000000e+00 -8.854560e-01
   outer loop
     vertex  5.714026e+02 -1.040000e+02  2.979873e+00
     vertex  5.729641e+02 -1.046001e+02  2.160356e+00
     vertex  5.714026e+02 -1.046001e+02  2.979873e+00
   endloop
 endfacet
 facet normal -6.631227e-01  8.737436e-17 -7.485107e-01
   outer loop
     vertex  5.700826e+02 -1.040000e+02  4.149258e+00
     vertex  5.714026e+02 -1.040000e+02  2.979873e+00
     vertex  5.714026e+02 -1.046001e+02  2.979873e+00
   endloop
 endfacet
 facet normal -6.631227e-01 -1.107834e-15 -7.485107e-01
   outer loop
     vertex  5.700826e+02 -1.040000e+02  4.149258e+00
     vertex  5.714026e+02 -1.046001e+02  2.979873e+00
     vertex  5.700826e+02 -1.046001e+02  4.149258e+00
   endloop
 endfacet
 facet normal -8.229839e-01 -8.407646e-16 -5.680647e-01
   outer loop
     vertex  5.700826e+02 -1.040000e+02  4.149258e+00
     vertex  5.700826e+02 -1.046001e+02  4.149258e+00
     vertex  5.690809e+02 -1.046001e+02  5.600550e+00
   endloop
 endfacet
 facet normal -8.229839e-01 -0.000000e+00 -5.680647e-01
   outer loop
     vertex  5.690809e+02 -1.040000e+02  5.600550e+00
     vertex  5.700826e+02 -1.040000e+02  4.149258e+00
     vertex  5.690809e+02 -1.046001e+02  5.600550e+00
   endloop
 endfacet
 facet normal -9.350162e-01 -0.000000e+00 -3.546049e-01
   outer loop
     vertex  5.684556e+02 -1.040000e+02  7.249406e+00
     vertex  5.690809e+02 -1.046001e+02  5.600550e+00
     vertex  5.684556e+02 -1.046001e+02  7.249406e+00
   endloop
 endfacet
 facet normal -9.350162e-01 -3.821142e-17 -3.546049e-01
   outer loop
     vertex  5.684556e+02 -1.040000e+02  7.249406e+00
     vertex  5.690809e+02 -1.040000e+02  5.600550e+00
     vertex  5.690809e+02 -1.046001e+02  5.600550e+00
   endloop
 endfacet
 facet normal -9.927089e-01 -0.000000e+00 -1.205367e-01
   outer loop
     vertex  5.682430e+02 -1.040000e+02  9.000000e+00
     vertex  5.684556e+02 -1.046001e+02  7.249406e+00
     vertex  5.682430e+02 -1.046001e+02  9.000000e+00
   endloop
 endfacet
 facet normal -9.927089e-01  9.017636e-19 -1.205367e-01
   outer loop
     vertex  5.682430e+02 -1.040000e+02  9.000000e+00
     vertex  5.684556e+02 -1.040000e+02  7.249406e+00
     vertex  5.684556e+02 -1.046001e+02  7.249406e+00
   endloop
 endfacet
 facet normal  9.483594e-15  1.000000e+00 -1.447656e-15
   outer loop
     vertex  5.718154e+02 -1.040000e+02  5.684387e+00
     vertex  5.714026e+02 -1.040000e+02  2.979873e+00
     vertex  5.700826e+02 -1.040000e+02  4.149258e+00
   endloop
 endfacet
 facet normal  0.000000e+00  1.000000e+00  0.000000e+00
   outer loop
     vertex  5.727177e+02 -1.040000e+02  4.885081e+00
     vertex  5.729641e+02 -1.040000e+02  2.160356e+00
     vertex  5.714026e+02 -1.040000e+02  2.979873e+00
   endloop
 endfacet
 facet normal  0.000000e+00  1.000000e+00  0.000000e+00
   outer loop
     vertex  5.727177e+02 -1.040000e+02  4.885081e+00
     vertex  5.714026e+02 -1.040000e+02  2.979873e+00
     vertex  5.718154e+02 -1.040000e+02  5.684387e+00
   endloop
 endfacet
 facet normal -3.772498e-15  1.000000e+00  7.187895e-15
   outer loop
     vertex  5.711307e+02 -1.040000e+02  6.676384e+00
     vertex  5.700826e+02 -1.040000e+02  4.149258e+00
     vertex  5.690809e+02 -1.040000e+02  5.600550e+00
   endloop
 endfacet
 facet normal  5.089072e-15  1.000000e+00  3.512733e-15
   outer loop
     vertex  5.711307e+02 -1.040000e+02  6.676384e+00
     vertex  5.718154e+02 -1.040000e+02  5.684387e+00
     vertex  5.700826e+02 -1.040000e+02  4.149258e+00
   endloop
 endfacet
 facet normal  0.000000e+00  1.000000e+00  0.000000e+00
   outer loop
     vertex  5.737850e+02 -1.040000e+02  4.324919e+00
     vertex  5.746763e+02 -1.040000e+02  1.738335e+00
     vertex  5.729641e+02 -1.040000e+02  2.160356e+00
   endloop
 endfacet
 facet normal  0.000000e+00  1.000000e+00  0.000000e+00
   outer loop
     vertex  5.737850e+02 -1.040000e+02  4.324919e+00
     vertex  5.729641e+02 -1.040000e+02  2.160356e+00
     vertex  5.727177e+02 -1.040000e+02  4.885081e+00
   endloop
 endfacet
 facet normal  0.000000e+00  1.000000e+00  0.000000e+00
   outer loop
     vertex  5.707033e+02 -1.040000e+02  7.803422e+00
     vertex  5.690809e+02 -1.040000e+02  5.600550e+00
     vertex  5.684556e+02 -1.040000e+02  7.249406e+00
   endloop
 endfacet
 facet normal  0.000000e+00  1.000000e+00  0.000000e+00
   outer loop
     vertex  5.707033e+02 -1.040000e+02  7.803422e+00
     vertex  5.711307e+02 -1.040000e+02  6.676384e+00
     vertex  5.690809e+02 -1.040000e+02  5.600550e+00
   endloop
 endfacet
 facet normal  0.000000e+00  1.000000e+00  0.000000e+00
   outer loop
     vertex  5.749553e+02 -1.040000e+02  4.036456e+00
     vertex  5.746763e+02 -1.040000e+02  1.738335e+00
     vertex  5.737850e+02 -1.040000e+02  4.324919e+00
   endloop
 endfacet
 facet normal -6.228937e-30  1.000000e+00 -8.117733e-15
   outer loop
     vertex  5.705580e+02 -1.040000e+02  9.000000e+00
     vertex  5.682430e+02 -1.040000e+02  9.000000e+00
     vertex  5.684556e+02 -1.040000e+02  1.075059e+01
   endloop
 endfacet
 facet normal  0.000000e+00  1.000000e+00  0.000000e+00
   outer loop
     vertex  5.705580e+02 -1.040000e+02  9.000000e+00
     vertex  5.684556e+02 -1.040000e+02  7.249406e+00
     vertex  5.682430e+02 -1.040000e+02  9.000000e+00
   endloop
 endfacet
 facet normal  0.000000e+00  1.000000e+00  0.000000e+00
   outer loop
     vertex  5.705580e+02 -1.040000e+02  9.000000e+00
     vertex  5.707033e+02 -1.040000e+02  7.803422e+00
     vertex  5.684556e+02 -1.040000e+02  7.249406e+00
   endloop
 endfacet
 facet normal  0.000000e+00  1.000000e+00  0.000000e+00
   outer loop
     vertex  5.761607e+02 -1.040000e+02  4.036456e+00
     vertex  5.764397e+02 -1.040000e+02  1.738335e+00
     vertex  5.746763e+02 -1.040000e+02  1.738335e+00
   endloop
 endfacet
 facet normal  0.000000e+00  1.000000e+00  0.000000e+00
   outer loop
     vertex  5.761607e+02 -1.040000e+02  4.036456e+00
     vertex  5.746763e+02 -1.040000e+02  1.738335e+00
     vertex  5.749553e+02 -1.040000e+02  4.036456e+00
   endloop
 endfacet
 facet normal  6.138598e-15  1.000000e+00 -7.453608e-16
   outer loop
     vertex  5.707033e+02 -1.040000e+02  1.019658e+01
     vertex  5.705580e+02 -1.040000e+02  9.000000e+00
     vertex  5.684556e+02 -1.040000e+02  1.075059e+01
   endloop
 endfacet
 facet normal  5.781845e-15  1.000000e+00 -2.192765e-15
   outer loop
     vertex  5.690809e+02 -1.040000e+02  1.239945e+01
     vertex  5.707033e+02 -1.040000e+02  1.019658e+01
     vertex  5.684556e+02 -1.040000e+02  1.075059e+01
   endloop
 endfacet
 facet normal  7.590212e-15  1.000000e+00  2.878588e-15
   outer loop
     vertex  5.773310e+02 -1.040000e+02  4.324919e+00
     vertex  5.781519e+02 -1.040000e+02  2.160356e+00
     vertex  5.764397e+02 -1.040000e+02  1.738335e+00
   endloop
 endfacet
 facet normal  1.178965e-14  1.000000e+00  1.431523e-15
   outer loop
     vertex  5.773310e+02 -1.040000e+02  4.324919e+00
     vertex  5.764397e+02 -1.040000e+02  1.738335e+00
     vertex  5.761607e+02 -1.040000e+02  4.036456e+00
   endloop
 endfacet
 facet normal  5.781845e-15  1.000000e+00 -2.192765e-15
   outer loop
     vertex  5.711307e+02 -1.040000e+02  1.132362e+01
     vertex  5.707033e+02 -1.040000e+02  1.019658e+01
     vertex  5.690809e+02 -1.040000e+02  1.239945e+01
   endloop
 endfacet
 facet normal  0.000000e+00  1.000000e+00  0.000000e+00
   outer loop
     vertex  5.783983e+02 -1.040000e+02  4.885081e+00
     vertex  5.797134e+02 -1.040000e+02  2.979873e+00
     vertex  5.781519e+02 -1.040000e+02  2.160356e+00
   endloop
 endfacet
 facet normal  0.000000e+00  1.000000e+00  0.000000e+00
   outer loop
     vertex  5.783983e+02 -1.040000e+02  4.885081e+00
     vertex  5.781519e+02 -1.040000e+02  2.160356e+00
     vertex  5.773310e+02 -1.040000e+02  4.324919e+00
   endloop
 endfacet
 facet normal  8.861571e-15  1.000000e+00  3.675162e-15
   outer loop
     vertex  5.700826e+02 -1.040000e+02  1.385074e+01
     vertex  5.711307e+02 -1.040000e+02  1.132362e+01
     vertex  5.690809e+02 -1.040000e+02  1.239945e+01
   endloop
 endfacet
 facet normal  0.000000e+00  1.000000e+00  0.000000e+00
   outer loop
     vertex  5.718154e+02 -1.040000e+02  1.231561e+01
     vertex  5.711307e+02 -1.040000e+02  1.132362e+01
     vertex  5.700826e+02 -1.040000e+02  1.385074e+01
   endloop
 endfacet
 facet normal -4.100541e-15  1.000000e+00  4.628554e-15
   outer loop
     vertex  5.810334e+02 -1.040000e+02  4.149258e+00
     vertex  5.783983e+02 -1.040000e+02  4.885081e+00
     vertex  5.793006e+02 -1.040000e+02  5.684387e+00
   endloop
 endfacet
 facet normal -6.680763e-15  1.000000e+00 -4.611398e-15
   outer loop
     vertex  5.810334e+02 -1.040000e+02  4.149258e+00
     vertex  5.797134e+02 -1.040000e+02  2.979873e+00
     vertex  5.783983e+02 -1.040000e+02  4.885081e+00
   endloop
 endfacet
 facet normal  0.000000e+00  1.000000e+00  0.000000e+00
   outer loop
     vertex  5.714026e+02 -1.040000e+02  1.502013e+01
     vertex  5.718154e+02 -1.040000e+02  1.231561e+01
     vertex  5.700826e+02 -1.040000e+02  1.385074e+01
   endloop
 endfacet
 facet normal  0.000000e+00  1.000000e+00  0.000000e+00
   outer loop
     vertex  5.714026e+02 -1.040000e+02  1.502013e+01
     vertex  5.727177e+02 -1.040000e+02  1.311492e+01
     vertex  5.718154e+02 -1.040000e+02  1.231561e+01
   endloop
 endfacet
 facet normal -5.089072e-15  1.000000e+00  3.512733e-15
   outer loop
     vertex  5.799853e+02 -1.040000e+02  6.676384e+00
     vertex  5.810334e+02 -1.040000e+02  4.149258e+00
     vertex  5.793006e+02 -1.040000e+02  5.684387e+00
   endloop
 endfacet
 facet normal -5.089072e-15  1.000000e+00  3.512733e-15
   outer loop
     vertex  5.820351e+02 -1.040000e+02  5.600550e+00
     vertex  5.810334e+02 -1.040000e+02  4.149258e+00
     vertex  5.799853e+02 -1.040000e+02  6.676384e+00
   endloop
 endfacet
 facet normal  0.000000e+00  1.000000e+00  0.000000e+00
   outer loop
     vertex  5.729641e+02 -1.040000e+02  1.583964e+01
     vertex  5.727177e+02 -1.040000e+02  1.311492e+01
     vertex  5.714026e+02 -1.040000e+02  1.502013e+01
   endloop
 endfacet
 facet normal  0.000000e+00  1.000000e+00  0.000000e+00
   outer loop
     vertex  5.729641e+02 -1.040000e+02  1.583964e+01
     vertex  5.737850e+02 -1.040000e+02  1.367508e+01
     vertex  5.727177e+02 -1.040000e+02  1.311492e+01
   endloop
 endfacet
 facet normal -5.781845e-15  1.000000e+00  2.192765e-15
   outer loop
     vertex  5.826604e+02 -1.040000e+02  7.249406e+00
     vertex  5.820351e+02 -1.040000e+02  5.600550e+00
     vertex  5.799853e+02 -1.040000e+02  6.676384e+00
   endloop
 endfacet
 facet normal -6.138598e-15  1.000000e+00  7.453608e-16
   outer loop
     vertex  5.826604e+02 -1.040000e+02  7.249406e+00
     vertex  5.804127e+02 -1.040000e+02  7.803422e+00
     vertex  5.805580e+02 -1.040000e+02  9.000000e+00
   endloop
 endfacet
 facet normal -5.781845e-15  1.000000e+00  2.192765e-15
   outer loop
     vertex  5.826604e+02 -1.040000e+02  7.249406e+00
     vertex  5.799853e+02 -1.040000e+02  6.676384e+00
     vertex  5.804127e+02 -1.040000e+02  7.803422e+00
   endloop
 endfacet
 facet normal  0.000000e+00  1.000000e+00  0.000000e+00
   outer loop
     vertex  5.746763e+02 -1.040000e+02  1.626167e+01
     vertex  5.737850e+02 -1.040000e+02  1.367508e+01
     vertex  5.729641e+02 -1.040000e+02  1.583964e+01
   endloop
 endfacet
 facet normal  0.000000e+00  1.000000e+00  0.000000e+00
   outer loop
     vertex  5.746763e+02 -1.040000e+02  1.626167e+01
     vertex  5.749553e+02 -1.040000e+02  1.396354e+01
     vertex  5.737850e+02 -1.040000e+02  1.367508e+01
   endloop
 endfacet
 facet normal -6.138598e-15  1.000000e+00  7.453608e-16
   outer loop
     vertex  5.828730e+02 -1.040000e+02  9.000000e+00
     vertex  5.826604e+02 -1.040000e+02  7.249406e+00
     vertex  5.805580e+02 -1.040000e+02  9.000000e+00
   endloop
 endfacet
 facet normal  0.000000e+00  1.000000e+00  0.000000e+00
   outer loop
     vertex  5.764397e+02 -1.040000e+02  1.626167e+01
     vertex  5.761607e+02 -1.040000e+02  1.396354e+01
     vertex  5.749553e+02 -1.040000e+02  1.396354e+01
   endloop
 endfacet
 facet normal  0.000000e+00  1.000000e+00  0.000000e+00
   outer loop
     vertex  5.764397e+02 -1.040000e+02  1.626167e+01
     vertex  5.749553e+02 -1.040000e+02  1.396354e+01
     vertex  5.746763e+02 -1.040000e+02  1.626167e+01
   endloop
 endfacet
 facet normal -6.138598e-15  1.000000e+00 -8.863093e-15
   outer loop
     vertex  5.826604e+02 -1.040000e+02  1.075059e+01
     vertex  5.828730e+02 -1.040000e+02  9.000000e+00
     vertex  5.805580e+02 -1.040000e+02  9.000000e+00
   endloop
 endfacet
 facet normal -1.227720e-14  1.000000e+00 -1.490722e-15
   outer loop
     vertex  5.826604e+02 -1.040000e+02  1.075059e+01
     vertex  5.805580e+02 -1.040000e+02  9.000000e+00
     vertex  5.804127e+02 -1.040000e+02  1.019658e+01
   endloop
 endfacet
 facet normal  0.000000e+00  1.000000e+00  0.000000e+00
   outer loop
     vertex  5.781519e+02 -1.040000e+02  1.583964e+01
     vertex  5.761607e+02 -1.040000e+02  1.396354e+01
     vertex  5.764397e+02 -1.040000e+02  1.626167e+01
   endloop
 endfacet
 facet normal  0.000000e+00  1.000000e+00  0.000000e+00
   outer loop
     vertex  5.781519e+02 -1.040000e+02  1.583964e+01
     vertex  5.773310e+02 -1.040000e+02  1.367508e+01
     vertex  5.761607e+02 -1.040000e+02  1.396354e+01
   endloop
 endfacet
 facet normal -2.626799e-16  1.000000e+00 -1.270866e-14
   outer loop
     vertex  5.820351e+02 -1.040000e+02  1.239945e+01
     vertex  5.804127e+02 -1.040000e+02  1.019658e+01
     vertex  5.799853e+02 -1.040000e+02  1.132362e+01
   endloop
 endfacet
 facet normal -1.156369e-14  1.000000e+00 -4.385529e-15
   outer loop
     vertex  5.820351e+02 -1.040000e+02  1.239945e+01
     vertex  5.826604e+02 -1.040000e+02  1.075059e+01
     vertex  5.804127e+02 -1.040000e+02  1.019658e+01
   endloop
 endfacet
 facet normal  0.000000e+00  1.000000e+00  0.000000e+00
   outer loop
     vertex  5.797134e+02 -1.040000e+02  1.502013e+01
     vertex  5.773310e+02 -1.040000e+02  1.367508e+01
     vertex  5.781519e+02 -1.040000e+02  1.583964e+01
   endloop
 endfacet
 facet normal  0.000000e+00  1.000000e+00  0.000000e+00
   outer loop
     vertex  5.797134e+02 -1.040000e+02  1.502013e+01
     vertex  5.783983e+02 -1.040000e+02  1.311492e+01
     vertex  5.773310e+02 -1.040000e+02  1.367508e+01
   endloop
 endfacet
 facet normal  0.000000e+00  1.000000e+00  0.000000e+00
   outer loop
     vertex  5.797134e+02 -1.040000e+02  1.502013e+01
     vertex  5.793006e+02 -1.040000e+02  1.231561e+01
     vertex  5.783983e+02 -1.040000e+02  1.311492e+01
   endloop
 endfacet
 facet normal  0.000000e+00  1.000000e+00  0.000000e+00
   outer loop
     vertex  5.810334e+02 -1.040000e+02  1.385074e+01
     vertex  5.793006e+02 -1.040000e+02  1.231561e+01
     vertex  5.797134e+02 -1.040000e+02  1.502013e+01
   endloop
 endfacet
 facet normal  0.000000e+00  1.000000e+00  0.000000e+00
   outer loop
     vertex  5.810334e+02 -1.040000e+02  1.385074e+01
     vertex  5.799853e+02 -1.040000e+02  1.132362e+01
     vertex  5.793006e+02 -1.040000e+02  1.231561e+01
   endloop
 endfacet
 facet normal -8.861571e-15  1.000000e+00  3.675162e-15
   outer loop
     vertex  5.810334e+02 -1.040000e+02  1.385074e+01
     vertex  5.820351e+02 -1.040000e+02  1.239945e+01
     vertex  5.799853e+02 -1.040000e+02  1.132362e+01
   endloop
 endfacet
endsolid
