solid 
 facet normal -8.928507e-01 -2.852048e-13 -4.503529e-01
   outer loop
     vertex  3.735235e+02  2.950000e+02 -2.585616e+02
     vertex  3.739795e+02  2.942000e+02 -2.594656e+02
     vertex  3.735235e+02  2.942000e+02 -2.585616e+02
   endloop
 endfacet
 facet normal -9.746825e-01 -3.462768e-13 -2.235933e-01
   outer loop
     vertex  3.739795e+02  2.950000e+02 -2.594656e+02
     vertex  3.742059e+02  2.942000e+02 -2.604525e+02
     vertex  3.739795e+02  2.942000e+02 -2.594656e+02
   endloop
 endfacet
 facet normal -8.928507e-01 -3.172043e-13 -4.503529e-01
   outer loop
     vertex  3.739795e+02  2.950000e+02 -2.594656e+02
     vertex  3.739795e+02  2.942000e+02 -2.594656e+02
     vertex  3.735235e+02  2.950000e+02 -2.585616e+02
   endloop
 endfacet
 facet normal -9.998694e-01 -3.563733e-13  1.616074e-02
   outer loop
     vertex  3.742059e+02  2.950000e+02 -2.604525e+02
     vertex  3.741896e+02  2.942000e+02 -2.614649e+02
     vertex  3.742059e+02  2.942000e+02 -2.604525e+02
   endloop
 endfacet
 facet normal -9.746825e-01 -3.303895e-13 -2.235933e-01
   outer loop
     vertex  3.742059e+02  2.950000e+02 -2.604525e+02
     vertex  3.742059e+02  2.942000e+02 -2.604525e+02
     vertex  3.739795e+02  2.950000e+02 -2.594656e+02
   endloop
 endfacet
 facet normal -9.669475e-01 -3.435288e-13  2.549755e-01
   outer loop
     vertex  3.741896e+02  2.950000e+02 -2.614649e+02
     vertex  3.739314e+02  2.942000e+02 -2.624439e+02
     vertex  3.741896e+02  2.942000e+02 -2.614649e+02
   endloop
 endfacet
 facet normal -9.998694e-01 -3.552250e-13  1.616074e-02
   outer loop
     vertex  3.741896e+02  2.950000e+02 -2.614649e+02
     vertex  3.741896e+02  2.942000e+02 -2.614649e+02
     vertex  3.742059e+02  2.950000e+02 -2.604525e+02
   endloop
 endfacet
 facet normal -8.778301e-01 -3.118679e-13  4.789721e-01
   outer loop
     vertex  3.739314e+02  2.950000e+02 -2.624439e+02
     vertex  3.734464e+02  2.942000e+02 -2.633327e+02
     vertex  3.739314e+02  2.942000e+02 -2.624439e+02
   endloop
 endfacet
 facet normal -9.669475e-01 -3.435288e-13  2.549755e-01
   outer loop
     vertex  3.739314e+02  2.950000e+02 -2.624439e+02
     vertex  3.739314e+02  2.942000e+02 -2.624439e+02
     vertex  3.741896e+02  2.950000e+02 -2.614649e+02
   endloop
 endfacet
 facet normal -7.376964e-01 -4.193319e-13  6.751325e-01
   outer loop
     vertex  3.734464e+02  2.950000e+02 -2.633327e+02
     vertex  3.727629e+02  2.942000e+02 -2.640796e+02
     vertex  3.734464e+02  2.942000e+02 -2.633327e+02
   endloop
 endfacet
 facet normal -8.778301e-01 -4.989887e-13  4.789721e-01
   outer loop
     vertex  3.734464e+02  2.950000e+02 -2.633327e+02
     vertex  3.734464e+02  2.942000e+02 -2.633327e+02
     vertex  3.739314e+02  2.950000e+02 -2.624439e+02
   endloop
 endfacet
 facet normal -5.546905e-01 -1.970657e-13  8.320567e-01
   outer loop
     vertex  3.727629e+02  2.950000e+02 -2.640796e+02
     vertex  3.719204e+02  2.942000e+02 -2.646413e+02
     vertex  3.727629e+02  2.942000e+02 -2.640796e+02
   endloop
 endfacet
 facet normal -7.376964e-01 -2.620824e-13  6.751325e-01
   outer loop
     vertex  3.727629e+02  2.950000e+02 -2.640796e+02
     vertex  3.727629e+02  2.942000e+02 -2.640796e+02
     vertex  3.734464e+02  2.950000e+02 -2.633327e+02
   endloop
 endfacet
 facet normal -3.394480e-01 -1.447154e-13  9.406248e-01
   outer loop
     vertex  3.719204e+02  2.950000e+02 -2.646413e+02
     vertex  3.709680e+02  2.942000e+02 -2.649850e+02
     vertex  3.719204e+02  2.942000e+02 -2.646413e+02
   endloop
 endfacet
 facet normal -5.546905e-01 -2.364788e-13  8.320567e-01
   outer loop
     vertex  3.719204e+02  2.950000e+02 -2.646413e+02
     vertex  3.719204e+02  2.942000e+02 -2.646413e+02
     vertex  3.727629e+02  2.950000e+02 -2.640796e+02
   endloop
 endfacet
 facet normal -1.044780e-01  3.852911e-15  9.945272e-01
   outer loop
     vertex  3.709680e+02  2.950000e+02 -2.649850e+02
     vertex  3.699610e+02  2.942000e+02 -2.650908e+02
     vertex  3.709680e+02  2.942000e+02 -2.649850e+02
   endloop
 endfacet
 facet normal -3.394480e-01 -1.502377e-13  9.406248e-01
   outer loop
     vertex  3.709680e+02  2.950000e+02 -2.649850e+02
     vertex  3.709680e+02  2.942000e+02 -2.649850e+02
     vertex  3.719204e+02  2.950000e+02 -2.646413e+02
   endloop
 endfacet
 facet normal  1.365638e-01 -2.187136e-14  9.906313e-01
   outer loop
     vertex  3.699610e+02  2.950000e+02 -2.650908e+02
     vertex  3.689580e+02  2.942000e+02 -2.649525e+02
     vertex  3.699610e+02  2.942000e+02 -2.650908e+02
   endloop
 endfacet
 facet normal -1.044780e-01 -1.077835e-13  9.945272e-01
   outer loop
     vertex  3.699610e+02  2.950000e+02 -2.650908e+02
     vertex  3.699610e+02  2.942000e+02 -2.650908e+02
     vertex  3.709680e+02  2.950000e+02 -2.649850e+02
   endloop
 endfacet
 facet normal  3.696691e-01  5.182393e-14  9.291635e-01
   outer loop
     vertex  3.689580e+02  2.950000e+02 -2.649525e+02
     vertex  3.680172e+02  2.942000e+02 -2.645782e+02
     vertex  3.689580e+02  2.942000e+02 -2.649525e+02
   endloop
 endfacet
 facet normal  1.365638e-01 -7.285306e-14  9.906313e-01
   outer loop
     vertex  3.689580e+02  2.950000e+02 -2.649525e+02
     vertex  3.689580e+02  2.942000e+02 -2.649525e+02
     vertex  3.699610e+02  2.950000e+02 -2.650908e+02
   endloop
 endfacet
 facet normal  3.696691e-01  1.313329e-13  9.291635e-01
   outer loop
     vertex  3.680172e+02  2.950000e+02 -2.645782e+02
     vertex  3.680172e+02  2.942000e+02 -2.645782e+02
     vertex  3.689580e+02  2.950000e+02 -2.649525e+02
   endloop
 endfacet
 facet normal  5.812906e-01  2.065159e-13  8.136960e-01
   outer loop
     vertex  3.680172e+02  2.950000e+02 -2.645782e+02
     vertex  3.671934e+02  2.942000e+02 -2.639896e+02
     vertex  3.680172e+02  2.942000e+02 -2.645782e+02
   endloop
 endfacet
 facet normal  5.812906e-01  3.304254e-13  8.136960e-01
   outer loop
     vertex  3.671934e+02  2.950000e+02 -2.639896e+02
     vertex  3.671934e+02  2.942000e+02 -2.639896e+02
     vertex  3.680172e+02  2.950000e+02 -2.645782e+02
   endloop
 endfacet
 facet normal  7.591295e-01  4.315152e-13  6.509396e-01
   outer loop
     vertex  3.671934e+02  2.950000e+02 -2.639896e+02
     vertex  3.665343e+02  2.942000e+02 -2.632210e+02
     vertex  3.671934e+02  2.942000e+02 -2.639896e+02
   endloop
 endfacet
 facet normal  7.591295e-01  2.234450e-13  6.509396e-01
   outer loop
     vertex  3.665343e+02  2.950000e+02 -2.632210e+02
     vertex  3.665343e+02  2.942000e+02 -2.632210e+02
     vertex  3.671934e+02  2.950000e+02 -2.639896e+02
   endloop
 endfacet
 facet normal  8.928507e-01  2.852048e-13  4.503529e-01
   outer loop
     vertex  3.665343e+02  2.950000e+02 -2.632210e+02
     vertex  3.660783e+02  2.942000e+02 -2.623170e+02
     vertex  3.665343e+02  2.942000e+02 -2.632210e+02
   endloop
 endfacet
 facet normal  8.928507e-01  1.577649e-13  4.503529e-01
   outer loop
     vertex  3.660783e+02  2.950000e+02 -2.623170e+02
     vertex  3.660783e+02  2.942000e+02 -2.623170e+02
     vertex  3.665343e+02  2.950000e+02 -2.632210e+02
   endloop
 endfacet
 facet normal  9.746825e-01  2.293690e-13  2.235933e-01
   outer loop
     vertex  3.658519e+02  2.950000e+02 -2.613301e+02
     vertex  3.660783e+02  2.942000e+02 -2.623170e+02
     vertex  3.660783e+02  2.950000e+02 -2.623170e+02
   endloop
 endfacet
 facet normal  9.746825e-01  1.918788e-13  2.235933e-01
   outer loop
     vertex  3.658519e+02  2.950000e+02 -2.613301e+02
     vertex  3.658519e+02  2.942000e+02 -2.613301e+02
     vertex  3.660783e+02  2.942000e+02 -2.623170e+02
   endloop
 endfacet
 facet normal  9.998694e-01  2.142833e-13 -1.616074e-02
   outer loop
     vertex  3.658519e+02  2.950000e+02 -2.613301e+02
     vertex  3.658683e+02  2.942000e+02 -2.603177e+02
     vertex  3.658519e+02  2.942000e+02 -2.613301e+02
   endloop
 endfacet
 facet normal  9.998694e-01  3.552250e-13 -1.616074e-02
   outer loop
     vertex  3.658683e+02  2.950000e+02 -2.603177e+02
     vertex  3.658683e+02  2.942000e+02 -2.603177e+02
     vertex  3.658519e+02  2.950000e+02 -2.613301e+02
   endloop
 endfacet
 facet normal  9.669475e-01  3.435288e-13 -2.549755e-01
   outer loop
     vertex  3.658683e+02  2.950000e+02 -2.603177e+02
     vertex  3.661264e+02  2.942000e+02 -2.593387e+02
     vertex  3.658683e+02  2.942000e+02 -2.603177e+02
   endloop
 endfacet
 facet normal  9.669475e-01  4.303516e-13 -2.549755e-01
   outer loop
     vertex  3.661264e+02  2.950000e+02 -2.593387e+02
     vertex  3.661264e+02  2.942000e+02 -2.593387e+02
     vertex  3.658683e+02  2.950000e+02 -2.603177e+02
   endloop
 endfacet
 facet normal  8.778301e-01  4.082745e-13 -4.789721e-01
   outer loop
     vertex  3.661264e+02  2.950000e+02 -2.593387e+02
     vertex  3.666114e+02  2.942000e+02 -2.584499e+02
     vertex  3.661264e+02  2.942000e+02 -2.593387e+02
   endloop
 endfacet
 facet normal  8.778301e-01  4.082745e-13 -4.789721e-01
   outer loop
     vertex  3.666114e+02  2.950000e+02 -2.584499e+02
     vertex  3.666114e+02  2.942000e+02 -2.584499e+02
     vertex  3.661264e+02  2.950000e+02 -2.593387e+02
   endloop
 endfacet
 facet normal  7.376964e-01  3.624700e-13 -6.751325e-01
   outer loop
     vertex  3.666114e+02  2.950000e+02 -2.584499e+02
     vertex  3.672950e+02  2.942000e+02 -2.577030e+02
     vertex  3.666114e+02  2.942000e+02 -2.584499e+02
   endloop
 endfacet
 facet normal  7.376964e-01  3.100535e-13 -6.751325e-01
   outer loop
     vertex  3.672950e+02  2.950000e+02 -2.577030e+02
     vertex  3.672950e+02  2.942000e+02 -2.577030e+02
     vertex  3.666114e+02  2.950000e+02 -2.584499e+02
   endloop
 endfacet
 facet normal  5.546905e-01  2.561869e-13 -8.320567e-01
   outer loop
     vertex  3.672950e+02  2.950000e+02 -2.577030e+02
     vertex  3.681374e+02  2.942000e+02 -2.571413e+02
     vertex  3.672950e+02  2.942000e+02 -2.577030e+02
   endloop
 endfacet
 facet normal  5.546905e-01  2.561869e-13 -8.320567e-01
   outer loop
     vertex  3.681374e+02  2.950000e+02 -2.571413e+02
     vertex  3.681374e+02  2.942000e+02 -2.571413e+02
     vertex  3.672950e+02  2.950000e+02 -2.577030e+02
   endloop
 endfacet
 facet normal  3.394480e-01  1.874316e-13 -9.406248e-01
   outer loop
     vertex  3.681374e+02  2.950000e+02 -2.571413e+02
     vertex  3.690898e+02  2.942000e+02 -2.567976e+02
     vertex  3.681374e+02  2.942000e+02 -2.571413e+02
   endloop
 endfacet
 facet normal  3.394480e-01  1.205962e-13 -9.406248e-01
   outer loop
     vertex  3.690898e+02  2.950000e+02 -2.567976e+02
     vertex  3.690898e+02  2.942000e+02 -2.567976e+02
     vertex  3.681374e+02  2.950000e+02 -2.571413e+02
   endloop
 endfacet
 facet normal  1.044780e-01  3.711076e-14 -9.945272e-01
   outer loop
     vertex  3.700968e+02  2.950000e+02 -2.566918e+02
     vertex  3.690898e+02  2.942000e+02 -2.567976e+02
     vertex  3.690898e+02  2.950000e+02 -2.567976e+02
   endloop
 endfacet
 facet normal  1.044780e-01  3.711805e-14 -9.945272e-01
   outer loop
     vertex  3.700968e+02  2.950000e+02 -2.566918e+02
     vertex  3.700968e+02  2.942000e+02 -2.566918e+02
     vertex  3.690898e+02  2.942000e+02 -2.567976e+02
   endloop
 endfacet
 facet normal -1.365638e-01 -4.851722e-14 -9.906313e-01
   outer loop
     vertex  3.700968e+02  2.950000e+02 -2.566918e+02
     vertex  3.710998e+02  2.942000e+02 -2.568301e+02
     vertex  3.700968e+02  2.942000e+02 -2.566918e+02
   endloop
 endfacet
 facet normal -1.365638e-01 -2.911033e-14 -9.906313e-01
   outer loop
     vertex  3.710998e+02  2.950000e+02 -2.568301e+02
     vertex  3.710998e+02  2.942000e+02 -2.568301e+02
     vertex  3.700968e+02  2.950000e+02 -2.566918e+02
   endloop
 endfacet
 facet normal -3.696691e-01 -7.879971e-14 -9.291635e-01
   outer loop
     vertex  3.710998e+02  2.950000e+02 -2.568301e+02
     vertex  3.720406e+02  2.942000e+02 -2.572044e+02
     vertex  3.710998e+02  2.942000e+02 -2.568301e+02
   endloop
 endfacet
 facet normal -3.696691e-01 -1.710873e-13 -9.291635e-01
   outer loop
     vertex  3.720406e+02  2.950000e+02 -2.572044e+02
     vertex  3.720406e+02  2.942000e+02 -2.572044e+02
     vertex  3.710998e+02  2.950000e+02 -2.568301e+02
   endloop
 endfacet
 facet normal -5.812906e-01 -2.065159e-13 -8.136960e-01
   outer loop
     vertex  3.728645e+02  2.950000e+02 -2.577930e+02
     vertex  3.728645e+02  2.942000e+02 -2.577930e+02
     vertex  3.720406e+02  2.942000e+02 -2.572044e+02
   endloop
 endfacet
 facet normal -7.591295e-01 -2.696970e-13 -6.509396e-01
   outer loop
     vertex  3.728645e+02  2.950000e+02 -2.577930e+02
     vertex  3.735235e+02  2.942000e+02 -2.585616e+02
     vertex  3.728645e+02  2.942000e+02 -2.577930e+02
   endloop
 endfacet
 facet normal -5.812906e-01 -2.229963e-13 -8.136960e-01
   outer loop
     vertex  3.728645e+02  2.950000e+02 -2.577930e+02
     vertex  3.720406e+02  2.942000e+02 -2.572044e+02
     vertex  3.720406e+02  2.950000e+02 -2.572044e+02
   endloop
 endfacet
 facet normal -7.591295e-01 -2.234450e-13 -6.509396e-01
   outer loop
     vertex  3.735235e+02  2.950000e+02 -2.585616e+02
     vertex  3.735235e+02  2.942000e+02 -2.585616e+02
     vertex  3.728645e+02  2.950000e+02 -2.577930e+02
   endloop
 endfacet
 facet normal  8.928507e-01  3.171892e-13  4.503529e-01
   outer loop
     vertex  3.761430e+02  2.950000e+02 -2.586849e+02
     vertex  3.754373e+02  2.950000e+02 -2.572858e+02
     vertex  3.754373e+02  2.942000e+02 -2.572858e+02
   endloop
 endfacet
 facet normal  8.928507e-01  2.852048e-13  4.503529e-01
   outer loop
     vertex  3.761430e+02  2.950000e+02 -2.586849e+02
     vertex  3.754373e+02  2.942000e+02 -2.572858e+02
     vertex  3.761430e+02  2.942000e+02 -2.586849e+02
   endloop
 endfacet
 facet normal  9.746825e-01  3.996449e-13  2.235933e-01
   outer loop
     vertex  3.764933e+02  2.950000e+02 -2.602122e+02
     vertex  3.761430e+02  2.942000e+02 -2.586849e+02
     vertex  3.764933e+02  2.942000e+02 -2.602122e+02
   endloop
 endfacet
 facet normal  9.746825e-01  3.304278e-13  2.235933e-01
   outer loop
     vertex  3.764933e+02  2.950000e+02 -2.602122e+02
     vertex  3.761430e+02  2.950000e+02 -2.586849e+02
     vertex  3.761430e+02  2.942000e+02 -2.586849e+02
   endloop
 endfacet
 facet normal  9.998694e-01  3.552250e-13 -1.616074e-02
   outer loop
     vertex  3.764680e+02  2.950000e+02 -2.617790e+02
     vertex  3.764933e+02  2.942000e+02 -2.602122e+02
     vertex  3.764680e+02  2.942000e+02 -2.617790e+02
   endloop
 endfacet
 facet normal  9.998694e-01  4.274188e-13 -1.616074e-02
   outer loop
     vertex  3.764680e+02  2.950000e+02 -2.617790e+02
     vertex  3.764933e+02  2.950000e+02 -2.602122e+02
     vertex  3.764933e+02  2.942000e+02 -2.602122e+02
   endloop
 endfacet
 facet normal  9.669475e-01  4.122345e-13 -2.549755e-01
   outer loop
     vertex  3.760685e+02  2.950000e+02 -2.632941e+02
     vertex  3.764680e+02  2.942000e+02 -2.617790e+02
     vertex  3.760685e+02  2.942000e+02 -2.632941e+02
   endloop
 endfacet
 facet normal  9.669475e-01  3.434935e-13 -2.549755e-01
   outer loop
     vertex  3.760685e+02  2.950000e+02 -2.632941e+02
     vertex  3.764680e+02  2.950000e+02 -2.617790e+02
     vertex  3.764680e+02  2.942000e+02 -2.617790e+02
   endloop
 endfacet
 facet normal  8.778301e-01  3.459009e-13 -4.789721e-01
   outer loop
     vertex  3.753179e+02  2.950000e+02 -2.646697e+02
     vertex  3.760685e+02  2.942000e+02 -2.632941e+02
     vertex  3.753179e+02  2.942000e+02 -2.646697e+02
   endloop
 endfacet
 facet normal  8.778301e-01  3.741956e-13 -4.789721e-01
   outer loop
     vertex  3.753179e+02  2.950000e+02 -2.646697e+02
     vertex  3.760685e+02  2.950000e+02 -2.632941e+02
     vertex  3.760685e+02  2.942000e+02 -2.632941e+02
   endloop
 endfacet
 facet normal  7.376964e-01  3.100535e-13 -6.751325e-01
   outer loop
     vertex  3.742600e+02  2.950000e+02 -2.658256e+02
     vertex  3.753179e+02  2.942000e+02 -2.646697e+02
     vertex  3.742600e+02  2.942000e+02 -2.658256e+02
   endloop
 endfacet
 facet normal  7.376964e-01  3.100400e-13 -6.751325e-01
   outer loop
     vertex  3.742600e+02  2.950000e+02 -2.658256e+02
     vertex  3.753179e+02  2.950000e+02 -2.646697e+02
     vertex  3.753179e+02  2.942000e+02 -2.646697e+02
   endloop
 endfacet
 facet normal  5.546905e-01  2.561869e-13 -8.320567e-01
   outer loop
     vertex  3.729562e+02  2.950000e+02 -2.666948e+02
     vertex  3.742600e+02  2.942000e+02 -2.658256e+02
     vertex  3.729562e+02  2.942000e+02 -2.666948e+02
   endloop
 endfacet
 facet normal  5.546905e-01  2.562223e-13 -8.320567e-01
   outer loop
     vertex  3.729562e+02  2.950000e+02 -2.666948e+02
     vertex  3.742600e+02  2.950000e+02 -2.658256e+02
     vertex  3.742600e+02  2.942000e+02 -2.658256e+02
   endloop
 endfacet
 facet normal  3.394480e-01  1.205962e-13 -9.406248e-01
   outer loop
     vertex  3.714823e+02  2.950000e+02 -2.672267e+02
     vertex  3.729562e+02  2.942000e+02 -2.666948e+02
     vertex  3.714823e+02  2.942000e+02 -2.672267e+02
   endloop
 endfacet
 facet normal  3.394480e-01  1.874124e-13 -9.406248e-01
   outer loop
     vertex  3.714823e+02  2.950000e+02 -2.672267e+02
     vertex  3.729562e+02  2.950000e+02 -2.666948e+02
     vertex  3.729562e+02  2.942000e+02 -2.666948e+02
   endloop
 endfacet
 facet normal  1.044780e-01  3.711805e-14 -9.945272e-01
   outer loop
     vertex  3.699239e+02  2.950000e+02 -2.673905e+02
     vertex  3.714823e+02  2.942000e+02 -2.672267e+02
     vertex  3.699239e+02  2.942000e+02 -2.673905e+02
   endloop
 endfacet
 facet normal  1.044780e-01  3.713895e-14 -9.945272e-01
   outer loop
     vertex  3.699239e+02  2.950000e+02 -2.673905e+02
     vertex  3.714823e+02  2.950000e+02 -2.672267e+02
     vertex  3.714823e+02  2.942000e+02 -2.672267e+02
   endloop
 endfacet
 facet normal -1.365638e-01  1.216792e-14 -9.906313e-01
   outer loop
     vertex  3.683716e+02  2.950000e+02 -2.671765e+02
     vertex  3.699239e+02  2.942000e+02 -2.673905e+02
     vertex  3.683716e+02  2.942000e+02 -2.671765e+02
   endloop
 endfacet
 facet normal -1.365638e-01 -4.850834e-14 -9.906313e-01
   outer loop
     vertex  3.683716e+02  2.950000e+02 -2.671765e+02
     vertex  3.699239e+02  2.950000e+02 -2.673905e+02
     vertex  3.699239e+02  2.942000e+02 -2.673905e+02
   endloop
 endfacet
 facet normal -3.696691e-01 -9.162144e-14 -9.291635e-01
   outer loop
     vertex  3.669156e+02  2.950000e+02 -2.665972e+02
     vertex  3.683716e+02  2.950000e+02 -2.671765e+02
     vertex  3.683716e+02  2.942000e+02 -2.671765e+02
   endloop
 endfacet
 facet normal -3.696691e-01 -1.313329e-13 -9.291635e-01
   outer loop
     vertex  3.669156e+02  2.950000e+02 -2.665972e+02
     vertex  3.683716e+02  2.942000e+02 -2.671765e+02
     vertex  3.669156e+02  2.942000e+02 -2.665972e+02
   endloop
 endfacet
 facet normal -5.812906e-01 -2.065123e-13 -8.136960e-01
   outer loop
     vertex  3.656405e+02  2.950000e+02 -2.656863e+02
     vertex  3.669156e+02  2.950000e+02 -2.665972e+02
     vertex  3.669156e+02  2.942000e+02 -2.665972e+02
   endloop
 endfacet
 facet normal -5.812906e-01 -1.486993e-13 -8.136960e-01
   outer loop
     vertex  3.656405e+02  2.950000e+02 -2.656863e+02
     vertex  3.669156e+02  2.942000e+02 -2.665972e+02
     vertex  3.656405e+02  2.942000e+02 -2.656863e+02
   endloop
 endfacet
 facet normal -7.591295e-01 -2.235047e-13 -6.509396e-01
   outer loop
     vertex  3.646205e+02  2.950000e+02 -2.644968e+02
     vertex  3.656405e+02  2.950000e+02 -2.656863e+02
     vertex  3.656405e+02  2.942000e+02 -2.656863e+02
   endloop
 endfacet
 facet normal -7.591295e-01 -2.234450e-13 -6.509396e-01
   outer loop
     vertex  3.646205e+02  2.950000e+02 -2.644968e+02
     vertex  3.656405e+02  2.942000e+02 -2.656863e+02
     vertex  3.646205e+02  2.942000e+02 -2.644968e+02
   endloop
 endfacet
 facet normal -8.928507e-01 -2.851898e-13 -4.503529e-01
   outer loop
     vertex  3.639148e+02  2.950000e+02 -2.630977e+02
     vertex  3.646205e+02  2.950000e+02 -2.644968e+02
     vertex  3.646205e+02  2.942000e+02 -2.644968e+02
   endloop
 endfacet
 facet normal -8.928507e-01 -3.492038e-13 -4.503529e-01
   outer loop
     vertex  3.639148e+02  2.950000e+02 -2.630977e+02
     vertex  3.646205e+02  2.942000e+02 -2.644968e+02
     vertex  3.639148e+02  2.942000e+02 -2.630977e+02
   endloop
 endfacet
 facet normal -9.746825e-01 -3.621223e-13 -2.235933e-01
   outer loop
     vertex  3.635645e+02  2.950000e+02 -2.615704e+02
     vertex  3.639148e+02  2.950000e+02 -2.630977e+02
     vertex  3.639148e+02  2.942000e+02 -2.630977e+02
   endloop
 endfacet
 facet normal -9.746825e-01 -3.303895e-13 -2.235933e-01
   outer loop
     vertex  3.635645e+02  2.950000e+02 -2.615704e+02
     vertex  3.639148e+02  2.942000e+02 -2.630977e+02
     vertex  3.635645e+02  2.942000e+02 -2.615704e+02
   endloop
 endfacet
 facet normal -9.998694e-01 -3.563758e-13  1.616074e-02
   outer loop
     vertex  3.635898e+02  2.950000e+02 -2.600036e+02
     vertex  3.635645e+02  2.950000e+02 -2.615704e+02
     vertex  3.635645e+02  2.942000e+02 -2.615704e+02
   endloop
 endfacet
 facet normal -9.998694e-01 -3.552250e-13  1.616074e-02
   outer loop
     vertex  3.635898e+02  2.950000e+02 -2.600036e+02
     vertex  3.635645e+02  2.942000e+02 -2.615704e+02
     vertex  3.635898e+02  2.942000e+02 -2.600036e+02
   endloop
 endfacet
 facet normal -9.669475e-01 -3.435441e-13  2.549755e-01
   outer loop
     vertex  3.639893e+02  2.950000e+02 -2.584885e+02
     vertex  3.635898e+02  2.950000e+02 -2.600036e+02
     vertex  3.635898e+02  2.942000e+02 -2.600036e+02
   endloop
 endfacet
 facet normal -9.669475e-01 -4.303516e-13  2.549755e-01
   outer loop
     vertex  3.639893e+02  2.950000e+02 -2.584885e+02
     vertex  3.635898e+02  2.942000e+02 -2.600036e+02
     vertex  3.639893e+02  2.942000e+02 -2.584885e+02
   endloop
 endfacet
 facet normal -8.778301e-01 -4.082715e-13  4.789721e-01
   outer loop
     vertex  3.647399e+02  2.950000e+02 -2.571129e+02
     vertex  3.639893e+02  2.950000e+02 -2.584885e+02
     vertex  3.639893e+02  2.942000e+02 -2.584885e+02
   endloop
 endfacet
 facet normal -7.376964e-01 -3.144989e-13  6.751325e-01
   outer loop
     vertex  3.647399e+02  2.950000e+02 -2.571129e+02
     vertex  3.647399e+02  2.942000e+02 -2.571129e+02
     vertex  3.657978e+02  2.942000e+02 -2.559570e+02
   endloop
 endfacet
 facet normal -8.778301e-01 -3.742415e-13  4.789721e-01
   outer loop
     vertex  3.647399e+02  2.950000e+02 -2.571129e+02
     vertex  3.639893e+02  2.942000e+02 -2.584885e+02
     vertex  3.647399e+02  2.942000e+02 -2.571129e+02
   endloop
 endfacet
 facet normal -7.376964e-01 -2.620824e-13  6.751325e-01
   outer loop
     vertex  3.657978e+02  2.950000e+02 -2.559570e+02
     vertex  3.647399e+02  2.950000e+02 -2.571129e+02
     vertex  3.657978e+02  2.942000e+02 -2.559570e+02
   endloop
 endfacet
 facet normal -3.394480e-01 -1.540139e-13  9.406248e-01
   outer loop
     vertex  3.671016e+02  2.950000e+02 -2.550878e+02
     vertex  3.671016e+02  2.942000e+02 -2.550878e+02
     vertex  3.685756e+02  2.942000e+02 -2.545559e+02
   endloop
 endfacet
 facet normal -5.546905e-01 -2.266263e-13  8.320567e-01
   outer loop
     vertex  3.671016e+02  2.950000e+02 -2.550878e+02
     vertex  3.657978e+02  2.942000e+02 -2.559570e+02
     vertex  3.671016e+02  2.942000e+02 -2.550878e+02
   endloop
 endfacet
 facet normal -5.546905e-01 -1.969833e-13  8.320567e-01
   outer loop
     vertex  3.671016e+02  2.950000e+02 -2.550878e+02
     vertex  3.657978e+02  2.950000e+02 -2.559570e+02
     vertex  3.657978e+02  2.942000e+02 -2.559570e+02
   endloop
 endfacet
 facet normal -3.394480e-01 -1.540139e-13  9.406248e-01
   outer loop
     vertex  3.685756e+02  2.950000e+02 -2.545559e+02
     vertex  3.671016e+02  2.950000e+02 -2.550878e+02
     vertex  3.685756e+02  2.942000e+02 -2.545559e+02
   endloop
 endfacet
 facet normal -1.044780e-01 -7.245076e-14  9.945272e-01
   outer loop
     vertex  3.701340e+02  2.950000e+02 -2.543921e+02
     vertex  3.685756e+02  2.942000e+02 -2.545559e+02
     vertex  3.701340e+02  2.942000e+02 -2.543921e+02
   endloop
 endfacet
 facet normal -1.044780e-01 -7.243859e-14  9.945272e-01
   outer loop
     vertex  3.701340e+02  2.950000e+02 -2.543921e+02
     vertex  3.685756e+02  2.950000e+02 -2.545559e+02
     vertex  3.685756e+02  2.942000e+02 -2.545559e+02
   endloop
 endfacet
 facet normal  3.696691e-01  9.832234e-14  9.291635e-01
   outer loop
     vertex  3.716862e+02  2.950000e+02 -2.546061e+02
     vertex  3.716862e+02  2.942000e+02 -2.546061e+02
     vertex  3.731422e+02  2.942000e+02 -2.551854e+02
   endloop
 endfacet
 facet normal  1.365638e-01  1.332293e-14  9.906313e-01
   outer loop
     vertex  3.716862e+02  2.950000e+02 -2.546061e+02
     vertex  3.701340e+02  2.942000e+02 -2.543921e+02
     vertex  3.716862e+02  2.942000e+02 -2.546061e+02
   endloop
 endfacet
 facet normal  1.365638e-01  1.334175e-14  9.906313e-01
   outer loop
     vertex  3.716862e+02  2.950000e+02 -2.546061e+02
     vertex  3.701340e+02  2.950000e+02 -2.543921e+02
     vertex  3.701340e+02  2.942000e+02 -2.543921e+02
   endloop
 endfacet
 facet normal  3.696691e-01  9.832234e-14  9.291635e-01
   outer loop
     vertex  3.731422e+02  2.950000e+02 -2.551854e+02
     vertex  3.716862e+02  2.950000e+02 -2.546061e+02
     vertex  3.731422e+02  2.942000e+02 -2.551854e+02
   endloop
 endfacet
 facet normal  5.812906e-01  1.486993e-13  8.136960e-01
   outer loop
     vertex  3.744173e+02  2.950000e+02 -2.560963e+02
     vertex  3.731422e+02  2.942000e+02 -2.551854e+02
     vertex  3.744173e+02  2.942000e+02 -2.560963e+02
   endloop
 endfacet
 facet normal  5.812906e-01  1.776840e-13  8.136960e-01
   outer loop
     vertex  3.744173e+02  2.950000e+02 -2.560963e+02
     vertex  3.731422e+02  2.950000e+02 -2.551854e+02
     vertex  3.731422e+02  2.942000e+02 -2.551854e+02
   endloop
 endfacet
 facet normal  7.591295e-01  2.696970e-13  6.509396e-01
   outer loop
     vertex  3.754373e+02  2.950000e+02 -2.572858e+02
     vertex  3.744173e+02  2.942000e+02 -2.560963e+02
     vertex  3.754373e+02  2.942000e+02 -2.572858e+02
   endloop
 endfacet
 facet normal  7.591295e-01  2.234145e-13  6.509396e-01
   outer loop
     vertex  3.754373e+02  2.950000e+02 -2.572858e+02
     vertex  3.744173e+02  2.950000e+02 -2.560963e+02
     vertex  3.744173e+02  2.942000e+02 -2.560963e+02
   endloop
 endfacet
 facet normal -3.684016e-13  1.000000e+00  4.223501e-14
   outer loop
     vertex  3.658683e+02  2.950000e+02 -2.603177e+02
     vertex  3.635645e+02  2.950000e+02 -2.615704e+02
     vertex  3.635898e+02  2.950000e+02 -2.600036e+02
   endloop
 endfacet
 facet normal -3.881147e-13  1.000000e+00  2.731075e-14
   outer loop
     vertex  3.661264e+02  2.950000e+02 -2.593387e+02
     vertex  3.635898e+02  2.950000e+02 -2.600036e+02
     vertex  3.639893e+02  2.950000e+02 -2.584885e+02
   endloop
 endfacet
 facet normal -3.765439e-13  1.000000e+00 -1.682915e-14
   outer loop
     vertex  3.661264e+02  2.950000e+02 -2.593387e+02
     vertex  3.658683e+02  2.950000e+02 -2.603177e+02
     vertex  3.635898e+02  2.950000e+02 -2.600036e+02
   endloop
 endfacet
 facet normal -3.754398e-13  1.000000e+00  2.552805e-14
   outer loop
     vertex  3.658519e+02  2.950000e+02 -2.613301e+02
     vertex  3.639148e+02  2.950000e+02 -2.630977e+02
     vertex  3.635645e+02  2.950000e+02 -2.615704e+02
   endloop
 endfacet
 facet normal -3.793006e-13  1.000000e+00  6.227911e-14
   outer loop
     vertex  3.658519e+02  2.950000e+02 -2.613301e+02
     vertex  3.635645e+02  2.950000e+02 -2.615704e+02
     vertex  3.658683e+02  2.950000e+02 -2.603177e+02
   endloop
 endfacet
 facet normal -3.690753e-13  1.000000e+00  3.608142e-14
   outer loop
     vertex  3.666114e+02  2.950000e+02 -2.584499e+02
     vertex  3.639893e+02  2.950000e+02 -2.584885e+02
     vertex  3.647399e+02  2.950000e+02 -2.571129e+02
   endloop
 endfacet
 facet normal -3.696297e-13  1.000000e+00  7.377274e-14
   outer loop
     vertex  3.666114e+02  2.950000e+02 -2.584499e+02
     vertex  3.661264e+02  2.950000e+02 -2.593387e+02
     vertex  3.639893e+02  2.950000e+02 -2.584885e+02
   endloop
 endfacet
 facet normal -3.781144e-13  1.000000e+00  2.845907e-14
   outer loop
     vertex  3.660783e+02  2.950000e+02 -2.623170e+02
     vertex  3.639148e+02  2.950000e+02 -2.630977e+02
     vertex  3.658519e+02  2.950000e+02 -2.613301e+02
   endloop
 endfacet
 facet normal -3.684650e-13  1.000000e+00  4.216855e-14
   outer loop
     vertex  3.672950e+02  2.950000e+02 -2.577030e+02
     vertex  3.647399e+02  2.950000e+02 -2.571129e+02
     vertex  3.657978e+02  2.950000e+02 -2.559570e+02
   endloop
 endfacet
 facet normal -3.702506e-13  1.000000e+00  3.443618e-14
   outer loop
     vertex  3.672950e+02  2.950000e+02 -2.577030e+02
     vertex  3.666114e+02  2.950000e+02 -2.584499e+02
     vertex  3.647399e+02  2.950000e+02 -2.571129e+02
   endloop
 endfacet
 facet normal -3.883594e-13  1.000000e+00  4.788744e-14
   outer loop
     vertex  3.665343e+02  2.950000e+02 -2.632210e+02
     vertex  3.646205e+02  2.950000e+02 -2.644968e+02
     vertex  3.639148e+02  2.950000e+02 -2.630977e+02
   endloop
 endfacet
 facet normal -3.879863e-13  1.000000e+00  5.581454e-14
   outer loop
     vertex  3.665343e+02  2.950000e+02 -2.632210e+02
     vertex  3.639148e+02  2.950000e+02 -2.630977e+02
     vertex  3.660783e+02  2.950000e+02 -2.623170e+02
   endloop
 endfacet
 facet normal -3.714913e-13  1.000000e+00  3.406403e-14
   outer loop
     vertex  3.681374e+02  2.950000e+02 -2.571413e+02
     vertex  3.657978e+02  2.950000e+02 -2.559570e+02
     vertex  3.671016e+02  2.950000e+02 -2.550878e+02
   endloop
 endfacet
 facet normal -3.665629e-13  1.000000e+00  4.379951e-14
   outer loop
     vertex  3.681374e+02  2.950000e+02 -2.571413e+02
     vertex  3.672950e+02  2.950000e+02 -2.577030e+02
     vertex  3.657978e+02  2.950000e+02 -2.559570e+02
   endloop
 endfacet
 facet normal -3.587937e-13  1.000000e+00  2.684379e-14
   outer loop
     vertex  3.671934e+02  2.950000e+02 -2.639896e+02
     vertex  3.656405e+02  2.950000e+02 -2.656863e+02
     vertex  3.646205e+02  2.950000e+02 -2.644968e+02
   endloop
 endfacet
 facet normal -3.522708e-13  1.000000e+00 -6.246885e-15
   outer loop
     vertex  3.671934e+02  2.950000e+02 -2.639896e+02
     vertex  3.646205e+02  2.950000e+02 -2.644968e+02
     vertex  3.665343e+02  2.950000e+02 -2.632210e+02
   endloop
 endfacet
 facet normal -3.899749e-13  1.000000e+00  1.196528e-14
   outer loop
     vertex  3.690898e+02  2.950000e+02 -2.567976e+02
     vertex  3.671016e+02  2.950000e+02 -2.550878e+02
     vertex  3.685756e+02  2.950000e+02 -2.545559e+02
   endloop
 endfacet
 facet normal -3.705705e-13  1.000000e+00  3.452846e-14
   outer loop
     vertex  3.690898e+02  2.950000e+02 -2.567976e+02
     vertex  3.681374e+02  2.950000e+02 -2.571413e+02
     vertex  3.671016e+02  2.950000e+02 -2.550878e+02
   endloop
 endfacet
 facet normal -3.755323e-13  1.000000e+00  3.597771e-14
   outer loop
     vertex  3.680172e+02  2.950000e+02 -2.645782e+02
     vertex  3.669156e+02  2.950000e+02 -2.665972e+02
     vertex  3.656405e+02  2.950000e+02 -2.656863e+02
   endloop
 endfacet
 facet normal -3.805626e-13  1.000000e+00  4.676644e-14
   outer loop
     vertex  3.680172e+02  2.950000e+02 -2.645782e+02
     vertex  3.656405e+02  2.950000e+02 -2.656863e+02
     vertex  3.671934e+02  2.950000e+02 -2.639896e+02
   endloop
 endfacet
 facet normal -3.665756e-13  1.000000e+00  1.733310e-14
   outer loop
     vertex  3.701340e+02  2.950000e+02 -2.543921e+02
     vertex  3.690898e+02  2.950000e+02 -2.567976e+02
     vertex  3.685756e+02  2.950000e+02 -2.545559e+02
   endloop
 endfacet
 facet normal -3.984242e-13  1.000000e+00  3.115743e-14
   outer loop
     vertex  3.700968e+02  2.950000e+02 -2.566918e+02
     vertex  3.690898e+02  2.950000e+02 -2.567976e+02
     vertex  3.701340e+02  2.950000e+02 -2.543921e+02
   endloop
 endfacet
 facet normal -3.717513e-13  1.000000e+00  4.690889e-14
   outer loop
     vertex  3.689580e+02  2.950000e+02 -2.649525e+02
     vertex  3.683716e+02  2.950000e+02 -2.671765e+02
     vertex  3.669156e+02  2.950000e+02 -2.665972e+02
   endloop
 endfacet
 facet normal -3.530862e-13  1.000000e+00  2.373040e-14
   outer loop
     vertex  3.689580e+02  2.950000e+02 -2.649525e+02
     vertex  3.669156e+02  2.950000e+02 -2.665972e+02
     vertex  3.680172e+02  2.950000e+02 -2.645782e+02
   endloop
 endfacet
 facet normal -3.895899e-13  1.000000e+00  5.161277e-14
   outer loop
     vertex  3.716862e+02  2.950000e+02 -2.546061e+02
     vertex  3.710998e+02  2.950000e+02 -2.568301e+02
     vertex  3.700968e+02  2.950000e+02 -2.566918e+02
   endloop
 endfacet
 facet normal -3.619752e-13  1.000000e+00  3.056831e-14
   outer loop
     vertex  3.716862e+02  2.950000e+02 -2.546061e+02
     vertex  3.700968e+02  2.950000e+02 -2.566918e+02
     vertex  3.701340e+02  2.950000e+02 -2.543921e+02
   endloop
 endfacet
 facet normal -3.895899e-13  1.000000e+00  5.161277e-14
   outer loop
     vertex  3.699610e+02  2.950000e+02 -2.650908e+02
     vertex  3.683716e+02  2.950000e+02 -2.671765e+02
     vertex  3.689580e+02  2.950000e+02 -2.649525e+02
   endloop
 endfacet
 facet normal -3.619752e-13  1.000000e+00  3.056831e-14
   outer loop
     vertex  3.699239e+02  2.950000e+02 -2.673905e+02
     vertex  3.683716e+02  2.950000e+02 -2.671765e+02
     vertex  3.699610e+02  2.950000e+02 -2.650908e+02
   endloop
 endfacet
 facet normal -3.717513e-13  1.000000e+00  4.690889e-14
   outer loop
     vertex  3.731422e+02  2.950000e+02 -2.551854e+02
     vertex  3.710998e+02  2.950000e+02 -2.568301e+02
     vertex  3.716862e+02  2.950000e+02 -2.546061e+02
   endloop
 endfacet
 facet normal -3.530862e-13  1.000000e+00  2.373040e-14
   outer loop
     vertex  3.731422e+02  2.950000e+02 -2.551854e+02
     vertex  3.720406e+02  2.950000e+02 -2.572044e+02
     vertex  3.710998e+02  2.950000e+02 -2.568301e+02
   endloop
 endfacet
 facet normal -3.962566e-13  1.000000e+00  1.052426e-14
   outer loop
     vertex  3.714823e+02  2.950000e+02 -2.672267e+02
     vertex  3.699610e+02  2.950000e+02 -2.650908e+02
     vertex  3.709680e+02  2.950000e+02 -2.649850e+02
   endloop
 endfacet
 facet normal -3.679762e-13  1.000000e+00  3.066530e-14
   outer loop
     vertex  3.714823e+02  2.950000e+02 -2.672267e+02
     vertex  3.699239e+02  2.950000e+02 -2.673905e+02
     vertex  3.699610e+02  2.950000e+02 -2.650908e+02
   endloop
 endfacet
 facet normal -3.755323e-13  1.000000e+00  3.597771e-14
   outer loop
     vertex  3.744173e+02  2.950000e+02 -2.560963e+02
     vertex  3.720406e+02  2.950000e+02 -2.572044e+02
     vertex  3.731422e+02  2.950000e+02 -2.551854e+02
   endloop
 endfacet
 facet normal -3.805626e-13  1.000000e+00  4.676644e-14
   outer loop
     vertex  3.744173e+02  2.950000e+02 -2.560963e+02
     vertex  3.728645e+02  2.950000e+02 -2.577930e+02
     vertex  3.720406e+02  2.950000e+02 -2.572044e+02
   endloop
 endfacet
 facet normal -3.899749e-13  1.000000e+00  1.196528e-14
   outer loop
     vertex  3.729562e+02  2.950000e+02 -2.666948e+02
     vertex  3.714823e+02  2.950000e+02 -2.672267e+02
     vertex  3.709680e+02  2.950000e+02 -2.649850e+02
   endloop
 endfacet
 facet normal -3.705705e-13  1.000000e+00  3.452846e-14
   outer loop
     vertex  3.729562e+02  2.950000e+02 -2.666948e+02
     vertex  3.709680e+02  2.950000e+02 -2.649850e+02
     vertex  3.719204e+02  2.950000e+02 -2.646413e+02
   endloop
 endfacet
 facet normal -3.629461e-13  1.000000e+00  3.837417e-14
   outer loop
     vertex  3.729562e+02  2.950000e+02 -2.666948e+02
     vertex  3.719204e+02  2.950000e+02 -2.646413e+02
     vertex  3.727629e+02  2.950000e+02 -2.640796e+02
   endloop
 endfacet
 facet normal -3.522708e-13  1.000000e+00 -6.246885e-15
   outer loop
     vertex  3.754373e+02  2.950000e+02 -2.572858e+02
     vertex  3.735235e+02  2.950000e+02 -2.585616e+02
     vertex  3.728645e+02  2.950000e+02 -2.577930e+02
   endloop
 endfacet
 facet normal -3.587937e-13  1.000000e+00  2.684379e-14
   outer loop
     vertex  3.754373e+02  2.950000e+02 -2.572858e+02
     vertex  3.728645e+02  2.950000e+02 -2.577930e+02
     vertex  3.744173e+02  2.950000e+02 -2.560963e+02
   endloop
 endfacet
 facet normal -3.738283e-13  1.000000e+00  3.756963e-14
   outer loop
     vertex  3.742600e+02  2.950000e+02 -2.658256e+02
     vertex  3.729562e+02  2.950000e+02 -2.666948e+02
     vertex  3.727629e+02  2.950000e+02 -2.640796e+02
   endloop
 endfacet
 facet normal -3.883594e-13  1.000000e+00  4.788744e-14
   outer loop
     vertex  3.761430e+02  2.950000e+02 -2.586849e+02
     vertex  3.735235e+02  2.950000e+02 -2.585616e+02
     vertex  3.754373e+02  2.950000e+02 -2.572858e+02
   endloop
 endfacet
 facet normal -3.781144e-13  1.000000e+00  2.845907e-14
   outer loop
     vertex  3.761430e+02  2.950000e+02 -2.586849e+02
     vertex  3.742059e+02  2.950000e+02 -2.604525e+02
     vertex  3.739795e+02  2.950000e+02 -2.594656e+02
   endloop
 endfacet
 facet normal -3.879863e-13  1.000000e+00  5.581454e-14
   outer loop
     vertex  3.761430e+02  2.950000e+02 -2.586849e+02
     vertex  3.739795e+02  2.950000e+02 -2.594656e+02
     vertex  3.735235e+02  2.950000e+02 -2.585616e+02
   endloop
 endfacet
 facet normal -3.684650e-13  1.000000e+00  4.216855e-14
   outer loop
     vertex  3.753179e+02  2.950000e+02 -2.646697e+02
     vertex  3.742600e+02  2.950000e+02 -2.658256e+02
     vertex  3.727629e+02  2.950000e+02 -2.640796e+02
   endloop
 endfacet
 facet normal -3.702506e-13  1.000000e+00  3.443618e-14
   outer loop
     vertex  3.753179e+02  2.950000e+02 -2.646697e+02
     vertex  3.727629e+02  2.950000e+02 -2.640796e+02
     vertex  3.734464e+02  2.950000e+02 -2.633327e+02
   endloop
 endfacet
 facet normal -3.754398e-13  1.000000e+00  2.552805e-14
   outer loop
     vertex  3.764933e+02  2.950000e+02 -2.602122e+02
     vertex  3.742059e+02  2.950000e+02 -2.604525e+02
     vertex  3.761430e+02  2.950000e+02 -2.586849e+02
   endloop
 endfacet
 facet normal -3.696297e-13  1.000000e+00  7.377274e-14
   outer loop
     vertex  3.760685e+02  2.950000e+02 -2.632941e+02
     vertex  3.734464e+02  2.950000e+02 -2.633327e+02
     vertex  3.739314e+02  2.950000e+02 -2.624439e+02
   endloop
 endfacet
 facet normal -3.690753e-13  1.000000e+00  3.608142e-14
   outer loop
     vertex  3.760685e+02  2.950000e+02 -2.632941e+02
     vertex  3.753179e+02  2.950000e+02 -2.646697e+02
     vertex  3.734464e+02  2.950000e+02 -2.633327e+02
   endloop
 endfacet
 facet normal -3.765439e-13  1.000000e+00 -1.682915e-14
   outer loop
     vertex  3.764680e+02  2.950000e+02 -2.617790e+02
     vertex  3.739314e+02  2.950000e+02 -2.624439e+02
     vertex  3.741896e+02  2.950000e+02 -2.614649e+02
   endloop
 endfacet
 facet normal -3.656688e-13  1.000000e+00  6.205878e-14
   outer loop
     vertex  3.764680e+02  2.950000e+02 -2.617790e+02
     vertex  3.741896e+02  2.950000e+02 -2.614649e+02
     vertex  3.742059e+02  2.950000e+02 -2.604525e+02
   endloop
 endfacet
 facet normal -3.881147e-13  1.000000e+00  2.731075e-14
   outer loop
     vertex  3.764680e+02  2.950000e+02 -2.617790e+02
     vertex  3.760685e+02  2.950000e+02 -2.632941e+02
     vertex  3.739314e+02  2.950000e+02 -2.624439e+02
   endloop
 endfacet
 facet normal -3.772098e-13  1.000000e+00  4.237737e-14
   outer loop
     vertex  3.764680e+02  2.950000e+02 -2.617790e+02
     vertex  3.742059e+02  2.950000e+02 -2.604525e+02
     vertex  3.764933e+02  2.950000e+02 -2.602122e+02
   endloop
 endfacet
 facet normal  3.684016e-13 -1.000000e+00 -4.223501e-14
   outer loop
     vertex  3.658683e+02  2.942000e+02 -2.603177e+02
     vertex  3.635898e+02  2.942000e+02 -2.600036e+02
     vertex  3.635645e+02  2.942000e+02 -2.615704e+02
   endloop
 endfacet
 facet normal  3.881147e-13 -1.000000e+00 -2.731075e-14
   outer loop
     vertex  3.661264e+02  2.942000e+02 -2.593387e+02
     vertex  3.639893e+02  2.942000e+02 -2.584885e+02
     vertex  3.635898e+02  2.942000e+02 -2.600036e+02
   endloop
 endfacet
 facet normal  3.765439e-13 -1.000000e+00  1.682915e-14
   outer loop
     vertex  3.661264e+02  2.942000e+02 -2.593387e+02
     vertex  3.635898e+02  2.942000e+02 -2.600036e+02
     vertex  3.658683e+02  2.942000e+02 -2.603177e+02
   endloop
 endfacet
 facet normal  3.754398e-13 -1.000000e+00 -2.552805e-14
   outer loop
     vertex  3.658519e+02  2.942000e+02 -2.613301e+02
     vertex  3.635645e+02  2.942000e+02 -2.615704e+02
     vertex  3.639148e+02  2.942000e+02 -2.630977e+02
   endloop
 endfacet
 facet normal  3.793006e-13 -1.000000e+00 -6.227911e-14
   outer loop
     vertex  3.658519e+02  2.942000e+02 -2.613301e+02
     vertex  3.658683e+02  2.942000e+02 -2.603177e+02
     vertex  3.635645e+02  2.942000e+02 -2.615704e+02
   endloop
 endfacet
 facet normal  3.690753e-13 -1.000000e+00 -3.608142e-14
   outer loop
     vertex  3.666114e+02  2.942000e+02 -2.584499e+02
     vertex  3.647399e+02  2.942000e+02 -2.571129e+02
     vertex  3.639893e+02  2.942000e+02 -2.584885e+02
   endloop
 endfacet
 facet normal  3.696297e-13 -1.000000e+00 -7.377274e-14
   outer loop
     vertex  3.666114e+02  2.942000e+02 -2.584499e+02
     vertex  3.639893e+02  2.942000e+02 -2.584885e+02
     vertex  3.661264e+02  2.942000e+02 -2.593387e+02
   endloop
 endfacet
 facet normal  3.856236e-13 -1.000000e+00 -4.926738e-14
   outer loop
     vertex  3.660783e+02  2.942000e+02 -2.623170e+02
     vertex  3.639148e+02  2.942000e+02 -2.630977e+02
     vertex  3.646205e+02  2.942000e+02 -2.644968e+02
   endloop
 endfacet
 facet normal  3.781144e-13 -1.000000e+00 -2.845907e-14
   outer loop
     vertex  3.660783e+02  2.942000e+02 -2.623170e+02
     vertex  3.658519e+02  2.942000e+02 -2.613301e+02
     vertex  3.639148e+02  2.942000e+02 -2.630977e+02
   endloop
 endfacet
 facet normal  3.684650e-13 -1.000000e+00 -4.216855e-14
   outer loop
     vertex  3.672950e+02  2.942000e+02 -2.577030e+02
     vertex  3.657978e+02  2.942000e+02 -2.559570e+02
     vertex  3.647399e+02  2.942000e+02 -2.571129e+02
   endloop
 endfacet
 facet normal  3.702506e-13 -1.000000e+00 -3.443618e-14
   outer loop
     vertex  3.672950e+02  2.942000e+02 -2.577030e+02
     vertex  3.647399e+02  2.942000e+02 -2.571129e+02
     vertex  3.666114e+02  2.942000e+02 -2.584499e+02
   endloop
 endfacet
 facet normal  3.686795e-13 -1.000000e+00 -1.836689e-14
   outer loop
     vertex  3.665343e+02  2.942000e+02 -2.632210e+02
     vertex  3.646205e+02  2.942000e+02 -2.644968e+02
     vertex  3.656405e+02  2.942000e+02 -2.656863e+02
   endloop
 endfacet
 facet normal  3.922203e-13 -1.000000e+00 -5.367892e-14
   outer loop
     vertex  3.665343e+02  2.942000e+02 -2.632210e+02
     vertex  3.660783e+02  2.942000e+02 -2.623170e+02
     vertex  3.646205e+02  2.942000e+02 -2.644968e+02
   endloop
 endfacet
 facet normal  3.714913e-13 -1.000000e+00 -3.406403e-14
   outer loop
     vertex  3.681374e+02  2.942000e+02 -2.571413e+02
     vertex  3.671016e+02  2.942000e+02 -2.550878e+02
     vertex  3.657978e+02  2.942000e+02 -2.559570e+02
   endloop
 endfacet
 facet normal  3.665629e-13 -1.000000e+00 -4.379951e-14
   outer loop
     vertex  3.681374e+02  2.942000e+02 -2.571413e+02
     vertex  3.657978e+02  2.942000e+02 -2.559570e+02
     vertex  3.672950e+02  2.942000e+02 -2.577030e+02
   endloop
 endfacet
 facet normal  3.369713e-13 -1.000000e+00 -6.872115e-15
   outer loop
     vertex  3.671934e+02  2.942000e+02 -2.639896e+02
     vertex  3.665343e+02  2.942000e+02 -2.632210e+02
     vertex  3.656405e+02  2.942000e+02 -2.656863e+02
   endloop
 endfacet
 facet normal  3.728606e-13 -1.000000e+00 -3.971762e-14
   outer loop
     vertex  3.669156e+02  2.942000e+02 -2.665972e+02
     vertex  3.671934e+02  2.942000e+02 -2.639896e+02
     vertex  3.656405e+02  2.942000e+02 -2.656863e+02
   endloop
 endfacet
 facet normal  3.899749e-13 -1.000000e+00 -1.196528e-14
   outer loop
     vertex  3.690898e+02  2.942000e+02 -2.567976e+02
     vertex  3.685756e+02  2.942000e+02 -2.545559e+02
     vertex  3.671016e+02  2.942000e+02 -2.550878e+02
   endloop
 endfacet
 facet normal  3.705705e-13 -1.000000e+00 -3.452846e-14
   outer loop
     vertex  3.690898e+02  2.942000e+02 -2.567976e+02
     vertex  3.671016e+02  2.942000e+02 -2.550878e+02
     vertex  3.681374e+02  2.942000e+02 -2.571413e+02
   endloop
 endfacet
 facet normal  3.846974e-13 -1.000000e+00 -4.097849e-14
   outer loop
     vertex  3.680172e+02  2.942000e+02 -2.645782e+02
     vertex  3.671934e+02  2.942000e+02 -2.639896e+02
     vertex  3.669156e+02  2.942000e+02 -2.665972e+02
   endloop
 endfacet
 facet normal  3.679762e-13 -1.000000e+00 -3.066530e-14
   outer loop
     vertex  3.700968e+02  2.942000e+02 -2.566918e+02
     vertex  3.701340e+02  2.942000e+02 -2.543921e+02
     vertex  3.685756e+02  2.942000e+02 -2.545559e+02
   endloop
 endfacet
 facet normal  3.962566e-13 -1.000000e+00 -1.052426e-14
   outer loop
     vertex  3.700968e+02  2.942000e+02 -2.566918e+02
     vertex  3.685756e+02  2.942000e+02 -2.545559e+02
     vertex  3.690898e+02  2.942000e+02 -2.567976e+02
   endloop
 endfacet
 facet normal  3.759990e-13 -1.000000e+00 -3.623235e-14
   outer loop
     vertex  3.683716e+02  2.942000e+02 -2.671765e+02
     vertex  3.680172e+02  2.942000e+02 -2.645782e+02
     vertex  3.669156e+02  2.942000e+02 -2.665972e+02
   endloop
 endfacet
 facet normal  3.465124e-13 -1.000000e+00 -4.025361e-14
   outer loop
     vertex  3.689580e+02  2.942000e+02 -2.649525e+02
     vertex  3.680172e+02  2.942000e+02 -2.645782e+02
     vertex  3.683716e+02  2.942000e+02 -2.671765e+02
   endloop
 endfacet
 facet normal  3.924232e-13 -1.000000e+00 -3.106043e-14
   outer loop
     vertex  3.710998e+02  2.942000e+02 -2.568301e+02
     vertex  3.701340e+02  2.942000e+02 -2.543921e+02
     vertex  3.700968e+02  2.942000e+02 -2.566918e+02
   endloop
 endfacet
 facet normal  3.601445e-13 -1.000000e+00 -4.384828e-14
   outer loop
     vertex  3.716862e+02  2.942000e+02 -2.546061e+02
     vertex  3.701340e+02  2.942000e+02 -2.543921e+02
     vertex  3.710998e+02  2.942000e+02 -2.568301e+02
   endloop
 endfacet
 facet normal  3.601445e-13 -1.000000e+00 -4.384828e-14
   outer loop
     vertex  3.699239e+02  2.942000e+02 -2.673905e+02
     vertex  3.689580e+02  2.942000e+02 -2.649525e+02
     vertex  3.683716e+02  2.942000e+02 -2.671765e+02
   endloop
 endfacet
 facet normal  3.924232e-13 -1.000000e+00 -3.106043e-14
   outer loop
     vertex  3.699239e+02  2.942000e+02 -2.673905e+02
     vertex  3.699610e+02  2.942000e+02 -2.650908e+02
     vertex  3.689580e+02  2.942000e+02 -2.649525e+02
   endloop
 endfacet
 facet normal  3.465124e-13 -1.000000e+00 -4.025361e-14
   outer loop
     vertex  3.720406e+02  2.942000e+02 -2.572044e+02
     vertex  3.716862e+02  2.942000e+02 -2.546061e+02
     vertex  3.710998e+02  2.942000e+02 -2.568301e+02
   endloop
 endfacet
 facet normal  3.759990e-13 -1.000000e+00 -3.623235e-14
   outer loop
     vertex  3.731422e+02  2.942000e+02 -2.551854e+02
     vertex  3.716862e+02  2.942000e+02 -2.546061e+02
     vertex  3.720406e+02  2.942000e+02 -2.572044e+02
   endloop
 endfacet
 facet normal  3.846974e-13 -1.000000e+00 -4.097849e-14
   outer loop
     vertex  3.728645e+02  2.942000e+02 -2.577930e+02
     vertex  3.731422e+02  2.942000e+02 -2.551854e+02
     vertex  3.720406e+02  2.942000e+02 -2.572044e+02
   endloop
 endfacet
 facet normal  3.679762e-13 -1.000000e+00 -3.066530e-14
   outer loop
     vertex  3.714823e+02  2.942000e+02 -2.672267e+02
     vertex  3.699610e+02  2.942000e+02 -2.650908e+02
     vertex  3.699239e+02  2.942000e+02 -2.673905e+02
   endloop
 endfacet
 facet normal  3.962566e-13 -1.000000e+00 -1.052426e-14
   outer loop
     vertex  3.714823e+02  2.942000e+02 -2.672267e+02
     vertex  3.709680e+02  2.942000e+02 -2.649850e+02
     vertex  3.699610e+02  2.942000e+02 -2.650908e+02
   endloop
 endfacet
 facet normal  3.728606e-13 -1.000000e+00 -3.971762e-14
   outer loop
     vertex  3.744173e+02  2.942000e+02 -2.560963e+02
     vertex  3.731422e+02  2.942000e+02 -2.551854e+02
     vertex  3.728645e+02  2.942000e+02 -2.577930e+02
   endloop
 endfacet
 facet normal  3.899749e-13 -1.000000e+00 -1.196528e-14
   outer loop
     vertex  3.729562e+02  2.942000e+02 -2.666948e+02
     vertex  3.709680e+02  2.942000e+02 -2.649850e+02
     vertex  3.714823e+02  2.942000e+02 -2.672267e+02
   endloop
 endfacet
 facet normal  3.705705e-13 -1.000000e+00 -3.452846e-14
   outer loop
     vertex  3.729562e+02  2.942000e+02 -2.666948e+02
     vertex  3.719204e+02  2.942000e+02 -2.646413e+02
     vertex  3.709680e+02  2.942000e+02 -2.649850e+02
   endloop
 endfacet
 facet normal  3.922203e-13 -1.000000e+00 -5.367892e-14
   outer loop
     vertex  3.754373e+02  2.942000e+02 -2.572858e+02
     vertex  3.735235e+02  2.942000e+02 -2.585616e+02
     vertex  3.739795e+02  2.942000e+02 -2.594656e+02
   endloop
 endfacet
 facet normal  3.522708e-13 -1.000000e+00  6.246885e-15
   outer loop
     vertex  3.754373e+02  2.942000e+02 -2.572858e+02
     vertex  3.728645e+02  2.942000e+02 -2.577930e+02
     vertex  3.735235e+02  2.942000e+02 -2.585616e+02
   endloop
 endfacet
 facet normal  3.587937e-13 -1.000000e+00 -2.684379e-14
   outer loop
     vertex  3.754373e+02  2.942000e+02 -2.572858e+02
     vertex  3.744173e+02  2.942000e+02 -2.560963e+02
     vertex  3.728645e+02  2.942000e+02 -2.577930e+02
   endloop
 endfacet
 facet normal  3.665629e-13 -1.000000e+00 -4.379951e-14
   outer loop
     vertex  3.742600e+02  2.942000e+02 -2.658256e+02
     vertex  3.727629e+02  2.942000e+02 -2.640796e+02
     vertex  3.719204e+02  2.942000e+02 -2.646413e+02
   endloop
 endfacet
 facet normal  3.714913e-13 -1.000000e+00 -3.406403e-14
   outer loop
     vertex  3.742600e+02  2.942000e+02 -2.658256e+02
     vertex  3.719204e+02  2.942000e+02 -2.646413e+02
     vertex  3.729562e+02  2.942000e+02 -2.666948e+02
   endloop
 endfacet
 facet normal  3.856236e-13 -1.000000e+00 -4.926738e-14
   outer loop
     vertex  3.761430e+02  2.942000e+02 -2.586849e+02
     vertex  3.754373e+02  2.942000e+02 -2.572858e+02
     vertex  3.739795e+02  2.942000e+02 -2.594656e+02
   endloop
 endfacet
 facet normal  3.684650e-13 -1.000000e+00 -4.216855e-14
   outer loop
     vertex  3.753179e+02  2.942000e+02 -2.646697e+02
     vertex  3.727629e+02  2.942000e+02 -2.640796e+02
     vertex  3.742600e+02  2.942000e+02 -2.658256e+02
   endloop
 endfacet
 facet normal  3.702506e-13 -1.000000e+00 -3.443618e-14
   outer loop
     vertex  3.753179e+02  2.942000e+02 -2.646697e+02
     vertex  3.734464e+02  2.942000e+02 -2.633327e+02
     vertex  3.727629e+02  2.942000e+02 -2.640796e+02
   endloop
 endfacet
 facet normal  3.758034e-13 -1.000000e+00 -2.898922e-14
   outer loop
     vertex  3.764933e+02  2.942000e+02 -2.602122e+02
     vertex  3.739795e+02  2.942000e+02 -2.594656e+02
     vertex  3.742059e+02  2.942000e+02 -2.604525e+02
   endloop
 endfacet
 facet normal  3.793006e-13 -1.000000e+00 -6.227911e-14
   outer loop
     vertex  3.764933e+02  2.942000e+02 -2.602122e+02
     vertex  3.742059e+02  2.942000e+02 -2.604525e+02
     vertex  3.741896e+02  2.942000e+02 -2.614649e+02
   endloop
 endfacet
 facet normal  3.769331e-13 -1.000000e+00 -2.518549e-14
   outer loop
     vertex  3.764933e+02  2.942000e+02 -2.602122e+02
     vertex  3.761430e+02  2.942000e+02 -2.586849e+02
     vertex  3.739795e+02  2.942000e+02 -2.594656e+02
   endloop
 endfacet
 facet normal  3.696297e-13 -1.000000e+00 -7.377274e-14
   outer loop
     vertex  3.760685e+02  2.942000e+02 -2.632941e+02
     vertex  3.739314e+02  2.942000e+02 -2.624439e+02
     vertex  3.734464e+02  2.942000e+02 -2.633327e+02
   endloop
 endfacet
 facet normal  3.690753e-13 -1.000000e+00 -3.608142e-14
   outer loop
     vertex  3.760685e+02  2.942000e+02 -2.632941e+02
     vertex  3.734464e+02  2.942000e+02 -2.633327e+02
     vertex  3.753179e+02  2.942000e+02 -2.646697e+02
   endloop
 endfacet
 facet normal  3.881147e-13 -1.000000e+00 -2.731075e-14
   outer loop
     vertex  3.764680e+02  2.942000e+02 -2.617790e+02
     vertex  3.739314e+02  2.942000e+02 -2.624439e+02
     vertex  3.760685e+02  2.942000e+02 -2.632941e+02
   endloop
 endfacet
 facet normal  3.765439e-13 -1.000000e+00  1.682915e-14
   outer loop
     vertex  3.764680e+02  2.942000e+02 -2.617790e+02
     vertex  3.741896e+02  2.942000e+02 -2.614649e+02
     vertex  3.739314e+02  2.942000e+02 -2.624439e+02
   endloop
 endfacet
 facet normal  3.684016e-13 -1.000000e+00 -4.223501e-14
   outer loop
     vertex  3.764680e+02  2.942000e+02 -2.617790e+02
     vertex  3.764933e+02  2.942000e+02 -2.602122e+02
     vertex  3.741896e+02  2.942000e+02 -2.614649e+02
   endloop
 endfacet
endsolid
