solid 
 facet normal -9.927089e-01 -1.205367e-01  2.283906e-15
   outer loop
     vertex -5.580000e+02  4.651505e+02 -2.199646e+01
     vertex -5.581308e+02  4.662274e+02 -2.499646e+01
     vertex -5.580000e+02  4.651505e+02 -2.499646e+01
   endloop
 endfacet
 facet normal -9.350162e-01 -3.546049e-01 -2.871403e-14
   outer loop
     vertex -5.581308e+02  4.662274e+02 -2.199646e+01
     vertex -5.585154e+02  4.672417e+02 -2.499646e+01
     vertex -5.581308e+02  4.662274e+02 -2.499646e+01
   endloop
 endfacet
 facet normal -9.927089e-01 -1.205367e-01 -3.533541e-14
   outer loop
     vertex -5.581308e+02  4.662274e+02 -2.199646e+01
     vertex -5.581308e+02  4.662274e+02 -2.499646e+01
     vertex -5.580000e+02  4.651505e+02 -2.199646e+01
   endloop
 endfacet
 facet normal -8.229839e-01 -5.680647e-01 -2.042390e-14
   outer loop
     vertex -5.585154e+02  4.672417e+02 -2.199646e+01
     vertex -5.591317e+02  4.681345e+02 -2.499646e+01
     vertex -5.585154e+02  4.672417e+02 -2.499646e+01
   endloop
 endfacet
 facet normal -9.350162e-01 -3.546049e-01 -2.871403e-14
   outer loop
     vertex -5.585154e+02  4.672417e+02 -2.199646e+01
     vertex -5.585154e+02  4.672417e+02 -2.499646e+01
     vertex -5.581308e+02  4.662274e+02 -2.199646e+01
   endloop
 endfacet
 facet normal -6.631227e-01 -7.485107e-01  3.235834e-15
   outer loop
     vertex -5.591317e+02  4.681345e+02 -2.199646e+01
     vertex -5.599437e+02  4.688539e+02 -2.499646e+01
     vertex -5.591317e+02  4.681345e+02 -2.499646e+01
   endloop
 endfacet
 facet normal -8.229839e-01 -5.680647e-01 -9.660316e-15
   outer loop
     vertex -5.591317e+02  4.681345e+02 -2.199646e+01
     vertex -5.591317e+02  4.681345e+02 -2.499646e+01
     vertex -5.585154e+02  4.672417e+02 -2.199646e+01
   endloop
 endfacet
 facet normal -4.647232e-01 -8.854560e-01 -8.335200e-16
   outer loop
     vertex -5.599437e+02  4.688539e+02 -2.199646e+01
     vertex -5.609043e+02  4.693580e+02 -2.499646e+01
     vertex -5.599437e+02  4.688539e+02 -2.499646e+01
   endloop
 endfacet
 facet normal -6.631227e-01 -7.485107e-01 -1.094680e-14
   outer loop
     vertex -5.599437e+02  4.688539e+02 -2.199646e+01
     vertex -5.599437e+02  4.688539e+02 -2.499646e+01
     vertex -5.591317e+02  4.681345e+02 -2.199646e+01
   endloop
 endfacet
 facet normal -2.393157e-01 -9.709418e-01  2.772542e-14
   outer loop
     vertex -5.609043e+02  4.693580e+02 -2.199646e+01
     vertex -5.619576e+02  4.696177e+02 -2.499646e+01
     vertex -5.609043e+02  4.693580e+02 -2.499646e+01
   endloop
 endfacet
 facet normal -4.647232e-01 -8.854560e-01  1.594393e-14
   outer loop
     vertex -5.609043e+02  4.693580e+02 -2.199646e+01
     vertex -5.609043e+02  4.693580e+02 -2.499646e+01
     vertex -5.599437e+02  4.688539e+02 -2.199646e+01
   endloop
 endfacet
 facet normal -6.205223e-28 -1.000000e+00  1.894781e-14
   outer loop
     vertex -5.619576e+02  4.696177e+02 -2.199646e+01
     vertex -5.630424e+02  4.696177e+02 -2.499646e+01
     vertex -5.619576e+02  4.696177e+02 -2.499646e+01
   endloop
 endfacet
 facet normal -2.393157e-01 -9.709418e-01  2.591901e-16
   outer loop
     vertex -5.619576e+02  4.696177e+02 -2.199646e+01
     vertex -5.619576e+02  4.696177e+02 -2.499646e+01
     vertex -5.609043e+02  4.693580e+02 -2.199646e+01
   endloop
 endfacet
 facet normal  2.393157e-01 -9.709418e-01  2.746623e-14
   outer loop
     vertex -5.630424e+02  4.696177e+02 -2.199646e+01
     vertex -5.640957e+02  4.693580e+02 -2.499646e+01
     vertex -5.630424e+02  4.696177e+02 -2.499646e+01
   endloop
 endfacet
 facet normal -6.205223e-28 -1.000000e+00  1.894781e-14
   outer loop
     vertex -5.630424e+02  4.696177e+02 -2.199646e+01
     vertex -5.630424e+02  4.696177e+02 -2.499646e+01
     vertex -5.619576e+02  4.696177e+02 -2.199646e+01
   endloop
 endfacet
 facet normal  4.647232e-01 -8.854560e-01  1.761097e-14
   outer loop
     vertex -5.640957e+02  4.693580e+02 -2.199646e+01
     vertex -5.650563e+02  4.688539e+02 -2.499646e+01
     vertex -5.640957e+02  4.693580e+02 -2.499646e+01
   endloop
 endfacet
 facet normal  2.393157e-01 -9.709418e-01  9.069014e-15
   outer loop
     vertex -5.640957e+02  4.693580e+02 -2.199646e+01
     vertex -5.640957e+02  4.693580e+02 -2.499646e+01
     vertex -5.630424e+02  4.696177e+02 -2.199646e+01
   endloop
 endfacet
 facet normal  6.631227e-01 -7.485107e-01  3.931208e-14
   outer loop
     vertex -5.650563e+02  4.688539e+02 -2.199646e+01
     vertex -5.658683e+02  4.681345e+02 -2.499646e+01
     vertex -5.650563e+02  4.688539e+02 -2.499646e+01
   endloop
 endfacet
 facet normal  4.647232e-01 -8.854560e-01  3.438842e-14
   outer loop
     vertex -5.650563e+02  4.688539e+02 -2.199646e+01
     vertex -5.650563e+02  4.688539e+02 -2.499646e+01
     vertex -5.640957e+02  4.693580e+02 -2.199646e+01
   endloop
 endfacet
 facet normal  8.229839e-01 -5.680647e-01  3.118748e-14
   outer loop
     vertex -5.658683e+02  4.681345e+02 -2.199646e+01
     vertex -5.664846e+02  4.672417e+02 -2.499646e+01
     vertex -5.658683e+02  4.681345e+02 -2.499646e+01
   endloop
 endfacet
 facet normal  6.631227e-01 -7.485107e-01  2.512944e-14
   outer loop
     vertex -5.658683e+02  4.681345e+02 -2.199646e+01
     vertex -5.658683e+02  4.681345e+02 -2.499646e+01
     vertex -5.650563e+02  4.688539e+02 -2.199646e+01
   endloop
 endfacet
 facet normal  8.229839e-01 -5.680647e-01  3.118748e-14
   outer loop
     vertex -5.664846e+02  4.672417e+02 -2.199646e+01
     vertex -5.664846e+02  4.672417e+02 -2.499646e+01
     vertex -5.658683e+02  4.681345e+02 -2.199646e+01
   endloop
 endfacet
 facet normal  9.350162e-01 -3.546049e-01  3.543301e-14
   outer loop
     vertex -5.664846e+02  4.672417e+02 -2.199646e+01
     vertex -5.668692e+02  4.662274e+02 -2.499646e+01
     vertex -5.664846e+02  4.672417e+02 -2.499646e+01
   endloop
 endfacet
 facet normal  9.350162e-01 -3.546049e-01  3.543301e-14
   outer loop
     vertex -5.668692e+02  4.662274e+02 -2.199646e+01
     vertex -5.668692e+02  4.662274e+02 -2.499646e+01
     vertex -5.664846e+02  4.672417e+02 -2.199646e+01
   endloop
 endfacet
 facet normal  9.927089e-01 -1.205367e-01  3.761931e-14
   outer loop
     vertex -5.668692e+02  4.662274e+02 -2.199646e+01
     vertex -5.670000e+02  4.651505e+02 -2.499646e+01
     vertex -5.668692e+02  4.662274e+02 -2.499646e+01
   endloop
 endfacet
 facet normal  9.927089e-01 -1.205367e-01  0.000000e+00
   outer loop
     vertex -5.670000e+02  4.651505e+02 -2.199646e+01
     vertex -5.670000e+02  4.651505e+02 -2.499646e+01
     vertex -5.668692e+02  4.662274e+02 -2.199646e+01
   endloop
 endfacet
 facet normal  9.927089e-01  1.205367e-01  0.000000e+00
   outer loop
     vertex -5.670000e+02  4.651505e+02 -2.199646e+01
     vertex -5.668692e+02  4.640735e+02 -2.499646e+01
     vertex -5.670000e+02  4.651505e+02 -2.499646e+01
   endloop
 endfacet
 facet normal  9.927089e-01  1.205367e-01  3.533541e-14
   outer loop
     vertex -5.668692e+02  4.640735e+02 -2.199646e+01
     vertex -5.668692e+02  4.640735e+02 -2.499646e+01
     vertex -5.670000e+02  4.651505e+02 -2.199646e+01
   endloop
 endfacet
 facet normal  9.350162e-01  3.546049e-01  2.871403e-14
   outer loop
     vertex -5.668692e+02  4.640735e+02 -2.199646e+01
     vertex -5.664846e+02  4.630592e+02 -2.499646e+01
     vertex -5.668692e+02  4.640735e+02 -2.499646e+01
   endloop
 endfacet
 facet normal  9.350162e-01  3.546049e-01  3.543301e-14
   outer loop
     vertex -5.664846e+02  4.630592e+02 -2.199646e+01
     vertex -5.664846e+02  4.630592e+02 -2.499646e+01
     vertex -5.668692e+02  4.640735e+02 -2.199646e+01
   endloop
 endfacet
 facet normal  8.229839e-01  5.680647e-01  3.118748e-14
   outer loop
     vertex -5.664846e+02  4.630592e+02 -2.199646e+01
     vertex -5.658683e+02  4.621664e+02 -2.499646e+01
     vertex -5.664846e+02  4.630592e+02 -2.499646e+01
   endloop
 endfacet
 facet normal  8.229839e-01  5.680647e-01  3.118748e-14
   outer loop
     vertex -5.658683e+02  4.621664e+02 -2.199646e+01
     vertex -5.658683e+02  4.621664e+02 -2.499646e+01
     vertex -5.664846e+02  4.630592e+02 -2.199646e+01
   endloop
 endfacet
 facet normal  6.631227e-01  7.485107e-01  2.512944e-14
   outer loop
     vertex -5.658683e+02  4.621664e+02 -2.199646e+01
     vertex -5.650563e+02  4.614470e+02 -2.499646e+01
     vertex -5.658683e+02  4.621664e+02 -2.499646e+01
   endloop
 endfacet
 facet normal  6.631227e-01  7.485107e-01  1.094680e-14
   outer loop
     vertex -5.650563e+02  4.614470e+02 -2.199646e+01
     vertex -5.650563e+02  4.614470e+02 -2.499646e+01
     vertex -5.658683e+02  4.621664e+02 -2.199646e+01
   endloop
 endfacet
 facet normal  4.647232e-01  8.854560e-01  8.335200e-16
   outer loop
     vertex -5.650563e+02  4.614470e+02 -2.199646e+01
     vertex -5.640957e+02  4.609429e+02 -2.499646e+01
     vertex -5.650563e+02  4.614470e+02 -2.499646e+01
   endloop
 endfacet
 facet normal  4.647232e-01  8.854560e-01  8.335200e-16
   outer loop
     vertex -5.640957e+02  4.609429e+02 -2.199646e+01
     vertex -5.640957e+02  4.609429e+02 -2.499646e+01
     vertex -5.650563e+02  4.614470e+02 -2.199646e+01
   endloop
 endfacet
 facet normal  2.393157e-01  9.709418e-01 -9.328204e-15
   outer loop
     vertex -5.640957e+02  4.609429e+02 -2.199646e+01
     vertex -5.630424e+02  4.606833e+02 -2.499646e+01
     vertex -5.640957e+02  4.609429e+02 -2.499646e+01
   endloop
 endfacet
 facet normal  2.393157e-01  9.709418e-01 -9.328204e-15
   outer loop
     vertex -5.630424e+02  4.606833e+02 -2.199646e+01
     vertex -5.630424e+02  4.606833e+02 -2.499646e+01
     vertex -5.640957e+02  4.609429e+02 -2.199646e+01
   endloop
 endfacet
 facet normal  7.446268e-28  1.000000e+00 -1.894781e-14
   outer loop
     vertex -5.630424e+02  4.606833e+02 -2.199646e+01
     vertex -5.619576e+02  4.606833e+02 -2.499646e+01
     vertex -5.630424e+02  4.606833e+02 -2.499646e+01
   endloop
 endfacet
 facet normal  6.825746e-28  1.000000e+00 -1.894781e-14
   outer loop
     vertex -5.619576e+02  4.606833e+02 -2.199646e+01
     vertex -5.619576e+02  4.606833e+02 -2.499646e+01
     vertex -5.630424e+02  4.606833e+02 -2.199646e+01
   endloop
 endfacet
 facet normal -2.393157e-01  9.709418e-01 -1.839722e-14
   outer loop
     vertex -5.619576e+02  4.606833e+02 -2.199646e+01
     vertex -5.609043e+02  4.609429e+02 -2.499646e+01
     vertex -5.619576e+02  4.606833e+02 -2.499646e+01
   endloop
 endfacet
 facet normal -2.393157e-01  9.709418e-01 -2.746623e-14
   outer loop
     vertex -5.609043e+02  4.609429e+02 -2.199646e+01
     vertex -5.609043e+02  4.609429e+02 -2.499646e+01
     vertex -5.619576e+02  4.606833e+02 -2.199646e+01
   endloop
 endfacet
 facet normal -4.647232e-01  8.854560e-01 -3.439301e-14
   outer loop
     vertex -5.599437e+02  4.614470e+02 -2.199646e+01
     vertex -5.609043e+02  4.609429e+02 -2.499646e+01
     vertex -5.609043e+02  4.609429e+02 -2.199646e+01
   endloop
 endfacet
 facet normal -4.647232e-01  8.854560e-01 -3.438842e-14
   outer loop
     vertex -5.599437e+02  4.614470e+02 -2.199646e+01
     vertex -5.599437e+02  4.614470e+02 -2.499646e+01
     vertex -5.609043e+02  4.609429e+02 -2.499646e+01
   endloop
 endfacet
 facet normal -6.631227e-01  7.485107e-01 -3.931208e-14
   outer loop
     vertex -5.599437e+02  4.614470e+02 -2.199646e+01
     vertex -5.591317e+02  4.621664e+02 -2.499646e+01
     vertex -5.599437e+02  4.614470e+02 -2.499646e+01
   endloop
 endfacet
 facet normal -6.631227e-01  7.485107e-01 -3.931208e-14
   outer loop
     vertex -5.591317e+02  4.621664e+02 -2.199646e+01
     vertex -5.591317e+02  4.621664e+02 -2.499646e+01
     vertex -5.599437e+02  4.614470e+02 -2.199646e+01
   endloop
 endfacet
 facet normal -8.229839e-01  5.680647e-01 -4.195106e-14
   outer loop
     vertex -5.591317e+02  4.621664e+02 -2.199646e+01
     vertex -5.585154e+02  4.630592e+02 -2.499646e+01
     vertex -5.591317e+02  4.621664e+02 -2.499646e+01
   endloop
 endfacet
 facet normal -8.229839e-01  5.680647e-01 -5.271464e-14
   outer loop
     vertex -5.585154e+02  4.630592e+02 -2.199646e+01
     vertex -5.585154e+02  4.630592e+02 -2.499646e+01
     vertex -5.591317e+02  4.621664e+02 -2.199646e+01
   endloop
 endfacet
 facet normal -9.350162e-01  3.546049e-01 -4.887098e-14
   outer loop
     vertex -5.585154e+02  4.630592e+02 -2.199646e+01
     vertex -5.581308e+02  4.640735e+02 -2.499646e+01
     vertex -5.585154e+02  4.630592e+02 -2.499646e+01
   endloop
 endfacet
 facet normal -9.350162e-01  3.546049e-01 -4.215200e-14
   outer loop
     vertex -5.581308e+02  4.640735e+02 -2.199646e+01
     vertex -5.581308e+02  4.640735e+02 -2.499646e+01
     vertex -5.585154e+02  4.630592e+02 -2.199646e+01
   endloop
 endfacet
 facet normal -9.927089e-01  1.205367e-01 -2.283906e-15
   outer loop
     vertex -5.580000e+02  4.651505e+02 -2.199646e+01
     vertex -5.580000e+02  4.651505e+02 -2.499646e+01
     vertex -5.581308e+02  4.640735e+02 -2.499646e+01
   endloop
 endfacet
 facet normal -9.927089e-01  1.205367e-01 -3.990154e-14
   outer loop
     vertex -5.580000e+02  4.651505e+02 -2.199646e+01
     vertex -5.581308e+02  4.640735e+02 -2.499646e+01
     vertex -5.581308e+02  4.640735e+02 -2.199646e+01
   endloop
 endfacet
 facet normal -9.927089e-01 -1.205367e-01 -3.533541e-14
   outer loop
     vertex  1.545000e+02  4.651505e+02 -2.199646e+01
     vertex  1.543692e+02  4.662274e+02 -2.499646e+01
     vertex  1.545000e+02  4.651505e+02 -2.499646e+01
   endloop
 endfacet
 facet normal -9.350162e-01 -3.546049e-01 -2.871403e-14
   outer loop
     vertex  1.543692e+02  4.662274e+02 -2.199646e+01
     vertex  1.539846e+02  4.672417e+02 -2.499646e+01
     vertex  1.543692e+02  4.662274e+02 -2.499646e+01
   endloop
 endfacet
 facet normal -9.927089e-01 -1.205367e-01 -3.533541e-14
   outer loop
     vertex  1.543692e+02  4.662274e+02 -2.199646e+01
     vertex  1.543692e+02  4.662274e+02 -2.499646e+01
     vertex  1.545000e+02  4.651505e+02 -2.199646e+01
   endloop
 endfacet
 facet normal -8.229839e-01 -5.680647e-01 -2.042390e-14
   outer loop
     vertex  1.539846e+02  4.672417e+02 -2.199646e+01
     vertex  1.533683e+02  4.681345e+02 -2.499646e+01
     vertex  1.539846e+02  4.672417e+02 -2.499646e+01
   endloop
 endfacet
 facet normal -9.350162e-01 -3.546049e-01 -2.871403e-14
   outer loop
     vertex  1.539846e+02  4.672417e+02 -2.199646e+01
     vertex  1.539846e+02  4.672417e+02 -2.499646e+01
     vertex  1.543692e+02  4.662274e+02 -2.199646e+01
   endloop
 endfacet
 facet normal -6.631227e-01 -7.485107e-01 -1.094680e-14
   outer loop
     vertex  1.533683e+02  4.681345e+02 -2.199646e+01
     vertex  1.525563e+02  4.688539e+02 -2.499646e+01
     vertex  1.533683e+02  4.681345e+02 -2.499646e+01
   endloop
 endfacet
 facet normal -8.229839e-01 -5.680647e-01 -2.042390e-14
   outer loop
     vertex  1.533683e+02  4.681345e+02 -2.199646e+01
     vertex  1.533683e+02  4.681345e+02 -2.499646e+01
     vertex  1.539846e+02  4.672417e+02 -2.199646e+01
   endloop
 endfacet
 facet normal -4.647232e-01 -8.854560e-01 -8.335200e-16
   outer loop
     vertex  1.525563e+02  4.688539e+02 -2.199646e+01
     vertex  1.515957e+02  4.693580e+02 -2.499646e+01
     vertex  1.525563e+02  4.688539e+02 -2.499646e+01
   endloop
 endfacet
 facet normal -6.631227e-01 -7.485107e-01 -1.094680e-14
   outer loop
     vertex  1.525563e+02  4.688539e+02 -2.199646e+01
     vertex  1.525563e+02  4.688539e+02 -2.499646e+01
     vertex  1.533683e+02  4.681345e+02 -2.199646e+01
   endloop
 endfacet
 facet normal -2.393157e-01 -9.709418e-01  9.328204e-15
   outer loop
     vertex  1.515957e+02  4.693580e+02 -2.199646e+01
     vertex  1.505424e+02  4.696177e+02 -2.499646e+01
     vertex  1.515957e+02  4.693580e+02 -2.499646e+01
   endloop
 endfacet
 facet normal -4.647232e-01 -8.854560e-01 -8.335200e-16
   outer loop
     vertex  1.515957e+02  4.693580e+02 -2.199646e+01
     vertex  1.515957e+02  4.693580e+02 -2.499646e+01
     vertex  1.525563e+02  4.688539e+02 -2.199646e+01
   endloop
 endfacet
 facet normal -6.205223e-28 -1.000000e+00  1.894781e-14
   outer loop
     vertex  1.505424e+02  4.696177e+02 -2.199646e+01
     vertex  1.494576e+02  4.696177e+02 -2.499646e+01
     vertex  1.505424e+02  4.696177e+02 -2.499646e+01
   endloop
 endfacet
 facet normal -2.393157e-01 -9.709418e-01  9.328204e-15
   outer loop
     vertex  1.505424e+02  4.696177e+02 -2.199646e+01
     vertex  1.505424e+02  4.696177e+02 -2.499646e+01
     vertex  1.515957e+02  4.693580e+02 -2.199646e+01
   endloop
 endfacet
 facet normal  2.393157e-01 -9.709418e-01  2.746623e-14
   outer loop
     vertex  1.494576e+02  4.696177e+02 -2.199646e+01
     vertex  1.484043e+02  4.693580e+02 -2.499646e+01
     vertex  1.494576e+02  4.696177e+02 -2.499646e+01
   endloop
 endfacet
 facet normal -6.205223e-28 -1.000000e+00  1.894781e-14
   outer loop
     vertex  1.494576e+02  4.696177e+02 -2.199646e+01
     vertex  1.494576e+02  4.696177e+02 -2.499646e+01
     vertex  1.505424e+02  4.696177e+02 -2.199646e+01
   endloop
 endfacet
 facet normal  4.647232e-01 -8.854560e-01  3.438842e-14
   outer loop
     vertex  1.484043e+02  4.693580e+02 -2.199646e+01
     vertex  1.474437e+02  4.688539e+02 -2.499646e+01
     vertex  1.484043e+02  4.693580e+02 -2.499646e+01
   endloop
 endfacet
 facet normal  2.393157e-01 -9.709418e-01  2.746623e-14
   outer loop
     vertex  1.484043e+02  4.693580e+02 -2.199646e+01
     vertex  1.484043e+02  4.693580e+02 -2.499646e+01
     vertex  1.494576e+02  4.696177e+02 -2.199646e+01
   endloop
 endfacet
 facet normal  6.631227e-01 -7.485107e-01  2.512944e-14
   outer loop
     vertex  1.474437e+02  4.688539e+02 -2.199646e+01
     vertex  1.466317e+02  4.681345e+02 -2.499646e+01
     vertex  1.474437e+02  4.688539e+02 -2.499646e+01
   endloop
 endfacet
 facet normal  4.647232e-01 -8.854560e-01  1.761097e-14
   outer loop
     vertex  1.474437e+02  4.688539e+02 -2.199646e+01
     vertex  1.474437e+02  4.688539e+02 -2.499646e+01
     vertex  1.484043e+02  4.693580e+02 -2.199646e+01
   endloop
 endfacet
 facet normal  8.229839e-01 -5.680647e-01  4.195106e-14
   outer loop
     vertex  1.466317e+02  4.681345e+02 -2.199646e+01
     vertex  1.460154e+02  4.672417e+02 -2.499646e+01
     vertex  1.466317e+02  4.681345e+02 -2.499646e+01
   endloop
 endfacet
 facet normal  6.631227e-01 -7.485107e-01  3.931208e-14
   outer loop
     vertex  1.466317e+02  4.681345e+02 -2.199646e+01
     vertex  1.466317e+02  4.681345e+02 -2.499646e+01
     vertex  1.474437e+02  4.688539e+02 -2.199646e+01
   endloop
 endfacet
 facet normal  8.229839e-01 -5.680647e-01  4.195106e-14
   outer loop
     vertex  1.460154e+02  4.672417e+02 -2.199646e+01
     vertex  1.460154e+02  4.672417e+02 -2.499646e+01
     vertex  1.466317e+02  4.681345e+02 -2.199646e+01
   endloop
 endfacet
 facet normal  9.350162e-01 -3.546049e-01  4.215200e-14
   outer loop
     vertex  1.460154e+02  4.672417e+02 -2.199646e+01
     vertex  1.456308e+02  4.662274e+02 -2.499646e+01
     vertex  1.460154e+02  4.672417e+02 -2.499646e+01
   endloop
 endfacet
 facet normal  9.350162e-01 -3.546049e-01  3.543301e-14
   outer loop
     vertex  1.456308e+02  4.662274e+02 -2.199646e+01
     vertex  1.456308e+02  4.662274e+02 -2.499646e+01
     vertex  1.460154e+02  4.672417e+02 -2.199646e+01
   endloop
 endfacet
 facet normal  9.927089e-01 -1.205367e-01  3.761931e-14
   outer loop
     vertex  1.456308e+02  4.662274e+02 -2.199646e+01
     vertex  1.455000e+02  4.651505e+02 -2.499646e+01
     vertex  1.456308e+02  4.662274e+02 -2.499646e+01
   endloop
 endfacet
 facet normal  9.927089e-01 -1.205367e-01  3.990322e-14
   outer loop
     vertex  1.455000e+02  4.651505e+02 -2.199646e+01
     vertex  1.455000e+02  4.651505e+02 -2.499646e+01
     vertex  1.456308e+02  4.662274e+02 -2.199646e+01
   endloop
 endfacet
 facet normal  9.927089e-01  1.205367e-01  3.533541e-14
   outer loop
     vertex  1.455000e+02  4.651505e+02 -2.199646e+01
     vertex  1.456308e+02  4.640735e+02 -2.499646e+01
     vertex  1.455000e+02  4.651505e+02 -2.499646e+01
   endloop
 endfacet
 facet normal  9.927089e-01  1.205367e-01  3.533541e-14
   outer loop
     vertex  1.456308e+02  4.640735e+02 -2.199646e+01
     vertex  1.456308e+02  4.640735e+02 -2.499646e+01
     vertex  1.455000e+02  4.651505e+02 -2.199646e+01
   endloop
 endfacet
 facet normal  9.350162e-01  3.546049e-01  2.871403e-14
   outer loop
     vertex  1.456308e+02  4.640735e+02 -2.199646e+01
     vertex  1.460154e+02  4.630592e+02 -2.499646e+01
     vertex  1.456308e+02  4.640735e+02 -2.499646e+01
   endloop
 endfacet
 facet normal  9.350162e-01  3.546049e-01  2.871403e-14
   outer loop
     vertex  1.460154e+02  4.630592e+02 -2.199646e+01
     vertex  1.460154e+02  4.630592e+02 -2.499646e+01
     vertex  1.456308e+02  4.640735e+02 -2.199646e+01
   endloop
 endfacet
 facet normal  8.229839e-01  5.680647e-01  2.042390e-14
   outer loop
     vertex  1.460154e+02  4.630592e+02 -2.199646e+01
     vertex  1.466317e+02  4.621664e+02 -2.499646e+01
     vertex  1.460154e+02  4.630592e+02 -2.499646e+01
   endloop
 endfacet
 facet normal  8.229839e-01  5.680647e-01  2.042390e-14
   outer loop
     vertex  1.466317e+02  4.621664e+02 -2.199646e+01
     vertex  1.466317e+02  4.621664e+02 -2.499646e+01
     vertex  1.460154e+02  4.630592e+02 -2.199646e+01
   endloop
 endfacet
 facet normal  6.631227e-01  7.485107e-01  1.094680e-14
   outer loop
     vertex  1.466317e+02  4.621664e+02 -2.199646e+01
     vertex  1.474437e+02  4.614470e+02 -2.499646e+01
     vertex  1.466317e+02  4.621664e+02 -2.499646e+01
   endloop
 endfacet
 facet normal  6.631227e-01  7.485107e-01  2.512944e-14
   outer loop
     vertex  1.474437e+02  4.614470e+02 -2.199646e+01
     vertex  1.474437e+02  4.614470e+02 -2.499646e+01
     vertex  1.466317e+02  4.621664e+02 -2.199646e+01
   endloop
 endfacet
 facet normal  4.647232e-01  8.854560e-01  1.761097e-14
   outer loop
     vertex  1.474437e+02  4.614470e+02 -2.199646e+01
     vertex  1.484043e+02  4.609429e+02 -2.499646e+01
     vertex  1.474437e+02  4.614470e+02 -2.499646e+01
   endloop
 endfacet
 facet normal  4.647232e-01  8.854560e-01  8.335200e-16
   outer loop
     vertex  1.484043e+02  4.609429e+02 -2.199646e+01
     vertex  1.484043e+02  4.609429e+02 -2.499646e+01
     vertex  1.474437e+02  4.614470e+02 -2.199646e+01
   endloop
 endfacet
 facet normal  2.393157e-01  9.709418e-01 -9.328204e-15
   outer loop
     vertex  1.484043e+02  4.609429e+02 -2.199646e+01
     vertex  1.494576e+02  4.606833e+02 -2.499646e+01
     vertex  1.484043e+02  4.609429e+02 -2.499646e+01
   endloop
 endfacet
 facet normal  2.393157e-01  9.709418e-01 -9.328204e-15
   outer loop
     vertex  1.494576e+02  4.606833e+02 -2.199646e+01
     vertex  1.494576e+02  4.606833e+02 -2.499646e+01
     vertex  1.484043e+02  4.609429e+02 -2.199646e+01
   endloop
 endfacet
 facet normal  6.205223e-28  1.000000e+00 -1.894781e-14
   outer loop
     vertex  1.494576e+02  4.606833e+02 -2.199646e+01
     vertex  1.505424e+02  4.606833e+02 -2.499646e+01
     vertex  1.494576e+02  4.606833e+02 -2.499646e+01
   endloop
 endfacet
 facet normal  6.825746e-28  1.000000e+00 -1.894781e-14
   outer loop
     vertex  1.505424e+02  4.606833e+02 -2.199646e+01
     vertex  1.505424e+02  4.606833e+02 -2.499646e+01
     vertex  1.494576e+02  4.606833e+02 -2.199646e+01
   endloop
 endfacet
 facet normal -2.393157e-01  9.709418e-01 -2.746623e-14
   outer loop
     vertex  1.505424e+02  4.606833e+02 -2.199646e+01
     vertex  1.515957e+02  4.609429e+02 -2.499646e+01
     vertex  1.505424e+02  4.606833e+02 -2.499646e+01
   endloop
 endfacet
 facet normal -2.393157e-01  9.709418e-01 -2.746623e-14
   outer loop
     vertex  1.515957e+02  4.609429e+02 -2.199646e+01
     vertex  1.515957e+02  4.609429e+02 -2.499646e+01
     vertex  1.505424e+02  4.606833e+02 -2.199646e+01
   endloop
 endfacet
 facet normal -4.647232e-01  8.854560e-01 -3.438432e-14
   outer loop
     vertex  1.525563e+02  4.614470e+02 -2.199646e+01
     vertex  1.515957e+02  4.609429e+02 -2.499646e+01
     vertex  1.515957e+02  4.609429e+02 -2.199646e+01
   endloop
 endfacet
 facet normal -4.647232e-01  8.854560e-01 -3.438842e-14
   outer loop
     vertex  1.525563e+02  4.614470e+02 -2.199646e+01
     vertex  1.525563e+02  4.614470e+02 -2.499646e+01
     vertex  1.515957e+02  4.609429e+02 -2.499646e+01
   endloop
 endfacet
 facet normal -6.631227e-01  7.485107e-01 -3.931208e-14
   outer loop
     vertex  1.525563e+02  4.614470e+02 -2.199646e+01
     vertex  1.533683e+02  4.621664e+02 -2.499646e+01
     vertex  1.525563e+02  4.614470e+02 -2.499646e+01
   endloop
 endfacet
 facet normal -6.631227e-01  7.485107e-01 -3.931208e-14
   outer loop
     vertex  1.533683e+02  4.621664e+02 -2.199646e+01
     vertex  1.533683e+02  4.621664e+02 -2.499646e+01
     vertex  1.525563e+02  4.614470e+02 -2.199646e+01
   endloop
 endfacet
 facet normal -8.229839e-01  5.680647e-01 -4.195106e-14
   outer loop
     vertex  1.533683e+02  4.621664e+02 -2.199646e+01
     vertex  1.539846e+02  4.630592e+02 -2.499646e+01
     vertex  1.533683e+02  4.621664e+02 -2.499646e+01
   endloop
 endfacet
 facet normal -8.229839e-01  5.680647e-01 -4.195106e-14
   outer loop
     vertex  1.539846e+02  4.630592e+02 -2.199646e+01
     vertex  1.539846e+02  4.630592e+02 -2.499646e+01
     vertex  1.533683e+02  4.621664e+02 -2.199646e+01
   endloop
 endfacet
 facet normal -9.350162e-01  3.546049e-01 -4.215200e-14
   outer loop
     vertex  1.539846e+02  4.630592e+02 -2.199646e+01
     vertex  1.543692e+02  4.640735e+02 -2.499646e+01
     vertex  1.539846e+02  4.630592e+02 -2.499646e+01
   endloop
 endfacet
 facet normal -9.350162e-01  3.546049e-01 -4.215200e-14
   outer loop
     vertex  1.543692e+02  4.640735e+02 -2.199646e+01
     vertex  1.543692e+02  4.640735e+02 -2.499646e+01
     vertex  1.539846e+02  4.630592e+02 -2.199646e+01
   endloop
 endfacet
 facet normal -9.927089e-01  1.205367e-01 -3.990322e-14
   outer loop
     vertex  1.545000e+02  4.651505e+02 -2.199646e+01
     vertex  1.545000e+02  4.651505e+02 -2.499646e+01
     vertex  1.543692e+02  4.640735e+02 -2.499646e+01
   endloop
 endfacet
 facet normal -9.927089e-01  1.205367e-01 -3.990211e-14
   outer loop
     vertex  1.545000e+02  4.651505e+02 -2.199646e+01
     vertex  1.543692e+02  4.640735e+02 -2.499646e+01
     vertex  1.543692e+02  4.640735e+02 -2.199646e+01
   endloop
 endfacet
 facet normal -3.384727e-14 -1.305262e-01  9.914449e-01
   outer loop
     vertex  1.984824e+02  4.816328e+02 -5.064608e+00
     vertex  1.990000e+02  4.821505e+02 -4.996460e+00
     vertex -6.115000e+02  4.821505e+02 -4.996460e+00
   endloop
 endfacet
 facet normal -3.385404e-14 -1.305262e-01  9.914449e-01
   outer loop
     vertex  1.984824e+02  4.816328e+02 -5.064608e+00
     vertex -6.115000e+02  4.821505e+02 -4.996460e+00
     vertex -6.109824e+02  4.816328e+02 -5.064608e+00
   endloop
 endfacet
 facet normal -3.151911e-14 -3.826834e-01  9.238795e-01
   outer loop
     vertex  1.980000e+02  4.811505e+02 -5.264409e+00
     vertex -6.109824e+02  4.816328e+02 -5.064608e+00
     vertex -6.105000e+02  4.811505e+02 -5.264409e+00
   endloop
 endfacet
 facet normal -3.154694e-14 -3.826834e-01  9.238795e-01
   outer loop
     vertex  1.980000e+02  4.811505e+02 -5.264409e+00
     vertex  1.984824e+02  4.816328e+02 -5.064608e+00
     vertex -6.109824e+02  4.816328e+02 -5.064608e+00
   endloop
 endfacet
 facet normal -2.704794e-14 -6.087614e-01  7.933533e-01
   outer loop
     vertex  1.975858e+02  4.807363e+02 -5.582246e+00
     vertex -6.105000e+02  4.811505e+02 -5.264409e+00
     vertex -6.100858e+02  4.807363e+02 -5.582246e+00
   endloop
 endfacet
 facet normal -2.704637e-14 -6.087614e-01  7.933533e-01
   outer loop
     vertex  1.975858e+02  4.807363e+02 -5.582246e+00
     vertex  1.980000e+02  4.811505e+02 -5.264409e+00
     vertex -6.105000e+02  4.811505e+02 -5.264409e+00
   endloop
 endfacet
 facet normal -2.113922e-14 -7.853169e-01  6.190939e-01
   outer loop
     vertex  1.972947e+02  4.804452e+02 -5.951463e+00
     vertex -6.100858e+02  4.807363e+02 -5.582246e+00
     vertex -6.097947e+02  4.804452e+02 -5.951463e+00
   endloop
 endfacet
 facet normal -1.498577e-14 -8.985452e-01  4.388809e-01
   outer loop
     vertex  1.972947e+02  4.804452e+02 -5.951463e+00
     vertex -6.097947e+02  4.804452e+02 -5.951463e+00
     vertex -6.096275e+02  4.802779e+02 -6.293920e+00
   endloop
 endfacet
 facet normal -2.108505e-14 -7.853169e-01  6.190939e-01
   outer loop
     vertex  1.972947e+02  4.804452e+02 -5.951463e+00
     vertex  1.975858e+02  4.807363e+02 -5.582246e+00
     vertex -6.100858e+02  4.807363e+02 -5.582246e+00
   endloop
 endfacet
 facet normal -1.492287e-14 -8.985452e-01  4.388809e-01
   outer loop
     vertex  1.971275e+02  4.802779e+02 -6.293920e+00
     vertex  1.972947e+02  4.804452e+02 -5.951463e+00
     vertex -6.096275e+02  4.802779e+02 -6.293920e+00
   endloop
 endfacet
 facet normal -9.072037e-15 -9.629546e-01  2.696636e-01
   outer loop
     vertex  1.970349e+02  4.801854e+02 -6.624321e+00
     vertex -6.096275e+02  4.802779e+02 -6.293920e+00
     vertex -6.095349e+02  4.801854e+02 -6.624321e+00
   endloop
 endfacet
 facet normal -9.140179e-15 -9.629546e-01  2.696636e-01
   outer loop
     vertex  1.970349e+02  4.801854e+02 -6.624321e+00
     vertex  1.971275e+02  4.802779e+02 -6.293920e+00
     vertex -6.096275e+02  4.802779e+02 -6.293920e+00
   endloop
 endfacet
 facet normal -4.637701e-15 -9.901643e-01  1.399098e-01
   outer loop
     vertex  1.970088e+02  4.801592e+02 -6.809573e+00
     vertex -6.095349e+02  4.801854e+02 -6.624321e+00
     vertex -6.095088e+02  4.801592e+02 -6.809573e+00
   endloop
 endfacet
 facet normal -1.456278e-15 -9.989055e-01  4.677302e-02
   outer loop
     vertex  1.970088e+02  4.801592e+02 -6.809573e+00
     vertex -6.095088e+02  4.801592e+02 -6.809573e+00
     vertex -6.095000e+02  4.801505e+02 -6.996460e+00
   endloop
 endfacet
 facet normal -4.637706e-15 -9.901643e-01  1.399098e-01
   outer loop
     vertex  1.970088e+02  4.801592e+02 -6.809573e+00
     vertex  1.970349e+02  4.801854e+02 -6.624321e+00
     vertex -6.095349e+02  4.801854e+02 -6.624321e+00
   endloop
 endfacet
 facet normal -1.456206e-15 -9.989055e-01  4.677302e-02
   outer loop
     vertex  1.970000e+02  4.801505e+02 -6.996460e+00
     vertex  1.970088e+02  4.801592e+02 -6.809573e+00
     vertex -6.095000e+02  4.801505e+02 -6.996460e+00
   endloop
 endfacet
 facet normal -3.414540e-14  7.500052e-15  1.000000e+00
   outer loop
     vertex -6.125000e+02  4.831505e+02 -4.996460e+00
     vertex  1.990000e+02  4.821505e+02 -4.996460e+00
     vertex  2.000000e+02  4.831505e+02 -4.996460e+00
   endloop
 endfacet
 facet normal -3.414857e-14  4.931281e-15  1.000000e+00
   outer loop
     vertex -6.115000e+02  4.821505e+02 -4.996460e+00
     vertex  1.990000e+02  4.821505e+02 -4.996460e+00
     vertex -6.125000e+02  4.831505e+02 -4.996460e+00
   endloop
 endfacet
 facet normal -6.996113e-17  1.000000e+00 -5.684342e-15
   outer loop
     vertex -6.125000e+02  4.831505e+02 -4.996460e+00
     vertex  2.000000e+02  4.831505e+02 -4.996460e+00
     vertex  2.000000e+02  4.831505e+02 -2.499646e+01
   endloop
 endfacet
 facet normal  9.704708e-29  1.000000e+00 -2.842171e-15
   outer loop
     vertex -6.125000e+02  4.831505e+02 -4.996460e+00
     vertex  2.000000e+02  4.831505e+02 -2.499646e+01
     vertex -6.125000e+02  4.831505e+02 -2.499646e+01
   endloop
 endfacet
 facet normal  3.337194e-14 -8.037484e-15 -1.000000e+00
   outer loop
     vertex -5.650563e+02  4.688539e+02 -2.499646e+01
     vertex -5.658683e+02  4.681345e+02 -2.499646e+01
     vertex -6.125000e+02  4.831505e+02 -2.499646e+01
   endloop
 endfacet
 facet normal  3.595948e-14 -2.782027e-16 -1.000000e+00
   outer loop
     vertex -5.664846e+02  4.672417e+02 -2.499646e+01
     vertex -5.825000e+02  4.531505e+02 -2.499646e+01
     vertex -6.125000e+02  4.831505e+02 -2.499646e+01
   endloop
 endfacet
 facet normal  3.466261e-14 -4.029349e-15 -1.000000e+00
   outer loop
     vertex -5.664846e+02  4.672417e+02 -2.499646e+01
     vertex -6.125000e+02  4.831505e+02 -2.499646e+01
     vertex -5.658683e+02  4.681345e+02 -2.499646e+01
   endloop
 endfacet
 facet normal  3.622854e-14  1.442257e-15 -1.000000e+00
   outer loop
     vertex -5.640957e+02  4.693580e+02 -2.499646e+01
     vertex -5.650563e+02  4.688539e+02 -2.499646e+01
     vertex -6.125000e+02  4.831505e+02 -2.499646e+01
   endloop
 endfacet
 facet normal  3.972534e-14 -4.558307e-15 -1.000000e+00
   outer loop
     vertex -5.668692e+02  4.662274e+02 -2.499646e+01
     vertex -5.825000e+02  4.531505e+02 -2.499646e+01
     vertex -5.664846e+02  4.672417e+02 -2.499646e+01
   endloop
 endfacet
 facet normal  3.469778e-14 -3.929929e-15 -1.000000e+00
   outer loop
     vertex -5.630424e+02  4.696177e+02 -2.499646e+01
     vertex -5.640957e+02  4.693580e+02 -2.499646e+01
     vertex -6.125000e+02  4.831505e+02 -2.499646e+01
   endloop
 endfacet
 facet normal  3.382828e-14  2.490416e-15 -1.000000e+00
   outer loop
     vertex -5.670000e+02  4.651505e+02 -2.499646e+01
     vertex -5.825000e+02  4.531505e+02 -2.499646e+01
     vertex -5.668692e+02  4.662274e+02 -2.499646e+01
   endloop
 endfacet
 facet normal  3.274903e-14 -1.105191e-14 -1.000000e+00
   outer loop
     vertex -5.619576e+02  4.696177e+02 -2.499646e+01
     vertex -5.630424e+02  4.696177e+02 -2.499646e+01
     vertex -6.125000e+02  4.831505e+02 -2.499646e+01
   endloop
 endfacet
 facet normal  3.968764e-14 -5.077918e-15 -1.000000e+00
   outer loop
     vertex -5.668692e+02  4.640735e+02 -2.499646e+01
     vertex -5.825000e+02  4.531505e+02 -2.499646e+01
     vertex -5.670000e+02  4.651505e+02 -2.499646e+01
   endloop
 endfacet
 facet normal  1.079969e-14 -9.302843e-14 -1.000000e+00
   outer loop
     vertex -5.609043e+02  4.693580e+02 -2.499646e+01
     vertex -5.619576e+02  4.696177e+02 -2.499646e+01
     vertex -6.125000e+02  4.831505e+02 -2.499646e+01
   endloop
 endfacet
 facet normal  3.437234e-14  2.528183e-15 -1.000000e+00
   outer loop
     vertex -5.664846e+02  4.630592e+02 -2.499646e+01
     vertex -5.825000e+02  4.531505e+02 -2.499646e+01
     vertex -5.668692e+02  4.640735e+02 -2.499646e+01
   endloop
 endfacet
 facet normal  3.898405e-14 -4.925688e-15 -1.000000e+00
   outer loop
     vertex -5.658683e+02  4.621664e+02 -2.499646e+01
     vertex -5.825000e+02  4.531505e+02 -2.499646e+01
     vertex -5.664846e+02  4.630592e+02 -2.499646e+01
   endloop
 endfacet
 facet normal  3.581579e-14  9.187982e-16 -1.000000e+00
   outer loop
     vertex -5.650563e+02  4.614470e+02 -2.499646e+01
     vertex -5.825000e+02  4.531505e+02 -2.499646e+01
     vertex -5.658683e+02  4.621664e+02 -2.499646e+01
   endloop
 endfacet
 facet normal  3.308453e-14  6.661321e-15 -1.000000e+00
   outer loop
     vertex -5.640957e+02  4.609429e+02 -2.499646e+01
     vertex -5.825000e+02  4.531505e+02 -2.499646e+01
     vertex -5.650563e+02  4.614470e+02 -2.499646e+01
   endloop
 endfacet
 facet normal  3.452971e-14  3.248060e-15 -1.000000e+00
   outer loop
     vertex -5.630424e+02  4.606833e+02 -2.499646e+01
     vertex -5.825000e+02  4.531505e+02 -2.499646e+01
     vertex -5.640957e+02  4.609429e+02 -2.499646e+01
   endloop
 endfacet
 facet normal  3.929884e-14 -9.070800e-15 -1.000000e+00
   outer loop
     vertex -5.619576e+02  4.606833e+02 -2.499646e+01
     vertex -5.825000e+02  4.531505e+02 -2.499646e+01
     vertex -5.630424e+02  4.606833e+02 -2.499646e+01
   endloop
 endfacet
 facet normal  1.884114e-14  4.671856e-14 -1.000000e+00
   outer loop
     vertex -5.609043e+02  4.609429e+02 -2.499646e+01
     vertex -5.825000e+02  4.531505e+02 -2.499646e+01
     vertex -5.619576e+02  4.606833e+02 -2.499646e+01
   endloop
 endfacet
 facet normal  3.414467e-14 -3.074634e-16 -1.000000e+00
   outer loop
     vertex  1.466317e+02  4.681345e+02 -2.499646e+01
     vertex -5.585154e+02  4.672417e+02 -2.499646e+01
     vertex -5.591317e+02  4.681345e+02 -2.499646e+01
   endloop
 endfacet
 facet normal  3.414467e-14 -9.675060e-16 -1.000000e+00
   outer loop
     vertex  1.466317e+02  4.681345e+02 -2.499646e+01
     vertex -5.591317e+02  4.681345e+02 -2.499646e+01
     vertex -5.599437e+02  4.688539e+02 -2.499646e+01
   endloop
 endfacet
 facet normal  3.414664e-14  9.652848e-16 -1.000000e+00
   outer loop
     vertex  1.474437e+02  4.688539e+02 -2.499646e+01
     vertex  1.466317e+02  4.681345e+02 -2.499646e+01
     vertex -5.599437e+02  4.688539e+02 -2.499646e+01
   endloop
 endfacet
 facet normal  3.414893e-14 -3.674784e-15 -1.000000e+00
   outer loop
     vertex  1.460154e+02  4.672417e+02 -2.499646e+01
     vertex -5.585154e+02  4.672417e+02 -2.499646e+01
     vertex  1.466317e+02  4.681345e+02 -2.499646e+01
   endloop
 endfacet
 facet normal  3.414932e-14 -5.403894e-15 -1.000000e+00
   outer loop
     vertex  1.484043e+02  4.693580e+02 -2.499646e+01
     vertex -5.599437e+02  4.688539e+02 -2.499646e+01
     vertex -5.609043e+02  4.693580e+02 -2.499646e+01
   endloop
 endfacet
 facet normal  3.414664e-14 -1.637997e-15 -1.000000e+00
   outer loop
     vertex  1.484043e+02  4.693580e+02 -2.499646e+01
     vertex  1.474437e+02  4.688539e+02 -2.499646e+01
     vertex -5.599437e+02  4.688539e+02 -2.499646e+01
   endloop
 endfacet
 facet normal  3.414932e-14 -5.680442e-15 -1.000000e+00
   outer loop
     vertex  1.484043e+02  4.693580e+02 -2.499646e+01
     vertex -5.609043e+02  4.693580e+02 -2.499646e+01
     vertex -6.125000e+02  4.831505e+02 -2.499646e+01
   endloop
 endfacet
 facet normal  3.413578e-14 -8.069062e-15 -1.000000e+00
   outer loop
     vertex  1.456308e+02  4.662274e+02 -2.499646e+01
     vertex -5.581308e+02  4.662274e+02 -2.499646e+01
     vertex -5.585154e+02  4.672417e+02 -2.499646e+01
   endloop
 endfacet
 facet normal  3.414893e-14  1.059057e-15 -1.000000e+00
   outer loop
     vertex  1.456308e+02  4.662274e+02 -2.499646e+01
     vertex -5.585154e+02  4.672417e+02 -2.499646e+01
     vertex  1.460154e+02  4.672417e+02 -2.499646e+01
   endloop
 endfacet
 facet normal  3.414847e-14  4.146375e-15 -1.000000e+00
   outer loop
     vertex  1.455000e+02  4.651505e+02 -2.499646e+01
     vertex -5.580000e+02  4.651505e+02 -2.499646e+01
     vertex -5.581308e+02  4.662274e+02 -2.499646e+01
   endloop
 endfacet
 facet normal  3.413578e-14 -4.144834e-15 -1.000000e+00
   outer loop
     vertex  1.455000e+02  4.651505e+02 -2.499646e+01
     vertex -5.581308e+02  4.662274e+02 -2.499646e+01
     vertex  1.456308e+02  4.662274e+02 -2.499646e+01
   endloop
 endfacet
 facet normal  3.414847e-14 -5.750494e-15 -1.000000e+00
   outer loop
     vertex  1.456308e+02  4.640735e+02 -2.499646e+01
     vertex -5.580000e+02  4.651505e+02 -2.499646e+01
     vertex  1.455000e+02  4.651505e+02 -2.499646e+01
   endloop
 endfacet
 facet normal  3.415093e-14 -4.146673e-15 -1.000000e+00
   outer loop
     vertex  1.456308e+02  4.640735e+02 -2.499646e+01
     vertex -5.581308e+02  4.640735e+02 -2.499646e+01
     vertex -5.580000e+02  4.651505e+02 -2.499646e+01
   endloop
 endfacet
 facet normal  3.415093e-14  2.444210e-15 -1.000000e+00
   outer loop
     vertex  1.460154e+02  4.630592e+02 -2.499646e+01
     vertex -5.581308e+02  4.640735e+02 -2.499646e+01
     vertex  1.456308e+02  4.640735e+02 -2.499646e+01
   endloop
 endfacet
 facet normal  3.414389e-14 -2.441540e-15 -1.000000e+00
   outer loop
     vertex  1.460154e+02  4.630592e+02 -2.499646e+01
     vertex -5.585154e+02  4.630592e+02 -2.499646e+01
     vertex -5.581308e+02  4.640735e+02 -2.499646e+01
   endloop
 endfacet
 facet normal  3.414389e-14 -3.080013e-16 -1.000000e+00
   outer loop
     vertex  1.466317e+02  4.621664e+02 -2.499646e+01
     vertex -5.585154e+02  4.630592e+02 -2.499646e+01
     vertex  1.460154e+02  4.630592e+02 -2.499646e+01
   endloop
 endfacet
 facet normal  3.413963e-14 -3.668366e-15 -1.000000e+00
   outer loop
     vertex  1.466317e+02  4.621664e+02 -2.499646e+01
     vertex -5.591317e+02  4.621664e+02 -2.499646e+01
     vertex -5.585154e+02  4.630592e+02 -2.499646e+01
   endloop
 endfacet
 facet normal  3.028643e-14 -2.920474e-15 -1.000000e+00
   outer loop
     vertex  1.700000e+02  4.531505e+02 -2.499646e+01
     vertex  1.545000e+02  4.651505e+02 -2.499646e+01
     vertex  1.543692e+02  4.662274e+02 -2.499646e+01
   endloop
 endfacet
 facet normal  2.648033e-14 -7.469884e-15 -1.000000e+00
   outer loop
     vertex  1.700000e+02  4.531505e+02 -2.499646e+01
     vertex  1.543692e+02  4.662274e+02 -2.499646e+01
     vertex  1.539846e+02  4.672417e+02 -2.499646e+01
   endloop
 endfacet
 facet normal  4.650937e-14  3.816698e-14 -1.000000e+00
   outer loop
     vertex  1.700000e+02  4.531505e+02 -2.499646e+01
     vertex  1.484043e+02  4.609429e+02 -2.499646e+01
     vertex  1.494576e+02  4.606833e+02 -2.499646e+01
   endloop
 endfacet
 facet normal  3.274903e-14  6.417318e-16 -1.000000e+00
   outer loop
     vertex  1.700000e+02  4.531505e+02 -2.499646e+01
     vertex  1.494576e+02  4.606833e+02 -2.499646e+01
     vertex  1.505424e+02  4.606833e+02 -2.499646e+01
   endloop
 endfacet
 facet normal  3.325123e-14  1.938941e-15 -1.000000e+00
   outer loop
     vertex  1.700000e+02  4.531505e+02 -2.499646e+01
     vertex  1.505424e+02  4.606833e+02 -2.499646e+01
     vertex  1.515957e+02  4.609429e+02 -2.499646e+01
   endloop
 endfacet
 facet normal  3.281279e-14  9.034262e-16 -1.000000e+00
   outer loop
     vertex  1.700000e+02  4.531505e+02 -2.499646e+01
     vertex  1.515957e+02  4.609429e+02 -2.499646e+01
     vertex  1.525563e+02  4.614470e+02 -2.499646e+01
   endloop
 endfacet
 facet normal  3.329788e-14  1.923331e-15 -1.000000e+00
   outer loop
     vertex  1.700000e+02  4.531505e+02 -2.499646e+01
     vertex  1.525563e+02  4.614470e+02 -2.499646e+01
     vertex  1.533683e+02  4.621664e+02 -2.499646e+01
   endloop
 endfacet
 facet normal  3.289102e-14  1.172794e-15 -1.000000e+00
   outer loop
     vertex  1.700000e+02  4.531505e+02 -2.499646e+01
     vertex  1.533683e+02  4.621664e+02 -2.499646e+01
     vertex  1.539846e+02  4.630592e+02 -2.499646e+01
   endloop
 endfacet
 facet normal  3.131792e-14 -1.369793e-15 -1.000000e+00
   outer loop
     vertex  1.700000e+02  4.531505e+02 -2.499646e+01
     vertex  1.539846e+02  4.630592e+02 -2.499646e+01
     vertex  1.543692e+02  4.640735e+02 -2.499646e+01
   endloop
 endfacet
 facet normal  2.975075e-14 -3.612395e-15 -1.000000e+00
   outer loop
     vertex  1.700000e+02  4.531505e+02 -2.499646e+01
     vertex  1.543692e+02  4.640735e+02 -2.499646e+01
     vertex  1.545000e+02  4.651505e+02 -2.499646e+01
   endloop
 endfacet
 facet normal  3.414540e-14 -5.896223e-15 -1.000000e+00
   outer loop
     vertex  2.000000e+02  4.831505e+02 -2.499646e+01
     vertex  1.484043e+02  4.693580e+02 -2.499646e+01
     vertex -6.125000e+02  4.831505e+02 -2.499646e+01
   endloop
 endfacet
 facet normal  3.167066e-14  1.964159e-15 -1.000000e+00
   outer loop
     vertex  2.000000e+02  4.831505e+02 -2.499646e+01
     vertex  1.539846e+02  4.672417e+02 -2.499646e+01
     vertex  1.533683e+02  4.681345e+02 -2.499646e+01
   endloop
 endfacet
 facet normal  3.418890e-14 -5.856183e-15 -1.000000e+00
   outer loop
     vertex  2.000000e+02  4.831505e+02 -2.499646e+01
     vertex  1.533683e+02  4.681345e+02 -2.499646e+01
     vertex  1.525563e+02  4.688539e+02 -2.499646e+01
   endloop
 endfacet
 facet normal  3.408788e-14 -5.520944e-15 -1.000000e+00
   outer loop
     vertex  2.000000e+02  4.831505e+02 -2.499646e+01
     vertex  1.525563e+02  4.688539e+02 -2.499646e+01
     vertex  1.515957e+02  4.693580e+02 -2.499646e+01
   endloop
 endfacet
 facet normal  3.316589e-14 -2.285211e-15 -1.000000e+00
   outer loop
     vertex  2.000000e+02  4.831505e+02 -2.499646e+01
     vertex  1.515957e+02  4.693580e+02 -2.499646e+01
     vertex  1.505424e+02  4.696177e+02 -2.499646e+01
   endloop
 endfacet
 facet normal  3.274903e-14 -7.617600e-16 -1.000000e+00
   outer loop
     vertex  2.000000e+02  4.831505e+02 -2.499646e+01
     vertex  1.505424e+02  4.696177e+02 -2.499646e+01
     vertex  1.494576e+02  4.696177e+02 -2.499646e+01
   endloop
 endfacet
 facet normal  4.744782e-14 -5.565889e-14 -1.000000e+00
   outer loop
     vertex  2.000000e+02  4.831505e+02 -2.499646e+01
     vertex  1.494576e+02  4.696177e+02 -2.499646e+01
     vertex  1.484043e+02  4.693580e+02 -2.499646e+01
   endloop
 endfacet
 facet normal  3.254804e-14 -5.736142e-16 -1.000000e+00
   outer loop
     vertex  2.000000e+02  4.831505e+02 -2.499646e+01
     vertex  1.700000e+02  4.531505e+02 -2.499646e+01
     vertex  1.539846e+02  4.672417e+02 -2.499646e+01
   endloop
 endfacet
 facet normal  3.414854e-14  4.296023e-15 -1.000000e+00
   outer loop
     vertex  1.700000e+02  4.531505e+02 -2.499646e+01
     vertex -5.825000e+02  4.531505e+02 -2.499646e+01
     vertex -5.609043e+02  4.609429e+02 -2.499646e+01
   endloop
 endfacet
 facet normal  3.416013e-14  5.383282e-15 -1.000000e+00
   outer loop
     vertex  1.700000e+02  4.531505e+02 -2.499646e+01
     vertex -5.609043e+02  4.609429e+02 -2.499646e+01
     vertex -5.599437e+02  4.614470e+02 -2.499646e+01
   endloop
 endfacet
 facet normal  3.405496e-14 -3.869846e-15 -1.000000e+00
   outer loop
     vertex  1.700000e+02  4.531505e+02 -2.499646e+01
     vertex -5.599437e+02  4.614470e+02 -2.499646e+01
     vertex -5.591317e+02  4.621664e+02 -2.499646e+01
   endloop
 endfacet
 facet normal  3.415126e-14  3.918053e-15 -1.000000e+00
   outer loop
     vertex  1.700000e+02  4.531505e+02 -2.499646e+01
     vertex -5.591317e+02  4.621664e+02 -2.499646e+01
     vertex  1.484043e+02  4.609429e+02 -2.499646e+01
   endloop
 endfacet
 facet normal  3.415955e-14  8.709598e-15 -1.000000e+00
   outer loop
     vertex  1.484043e+02  4.609429e+02 -2.499646e+01
     vertex -5.591317e+02  4.621664e+02 -2.499646e+01
     vertex  1.474437e+02  4.614470e+02 -2.499646e+01
   endloop
 endfacet
 facet normal  3.413963e-14 -1.085041e-14 -1.000000e+00
   outer loop
     vertex  1.474437e+02  4.614470e+02 -2.499646e+01
     vertex -5.591317e+02  4.621664e+02 -2.499646e+01
     vertex  1.466317e+02  4.621664e+02 -2.499646e+01
   endloop
 endfacet
 facet normal -1.941120e-27 -1.000000e+00  5.684342e-14
   outer loop
     vertex  1.700000e+02  4.531505e+02 -2.399646e+01
     vertex -5.825000e+02  4.531505e+02 -2.399646e+01
     vertex -5.825000e+02  4.531505e+02 -2.499646e+01
   endloop
 endfacet
 facet normal -1.941120e-27 -1.000000e+00  5.684342e-14
   outer loop
     vertex  1.700000e+02  4.531505e+02 -2.399646e+01
     vertex -5.825000e+02  4.531505e+02 -2.499646e+01
     vertex  1.700000e+02  4.531505e+02 -2.499646e+01
   endloop
 endfacet
 facet normal -3.385431e-14 -1.305262e-01  9.914449e-01
   outer loop
     vertex  1.714824e+02  4.546328e+02 -2.206461e+01
     vertex  1.720000e+02  4.551505e+02 -2.199646e+01
     vertex -5.845000e+02  4.551505e+02 -2.199646e+01
   endloop
 endfacet
 facet normal -3.384426e-14 -1.305262e-01  9.914449e-01
   outer loop
     vertex  1.714824e+02  4.546328e+02 -2.206461e+01
     vertex -5.845000e+02  4.551505e+02 -2.199646e+01
     vertex -5.839824e+02  4.546328e+02 -2.206461e+01
   endloop
 endfacet
 facet normal -3.151819e-14 -3.826834e-01  9.238795e-01
   outer loop
     vertex  1.714824e+02  4.546328e+02 -2.206461e+01
     vertex -5.839824e+02  4.546328e+02 -2.206461e+01
     vertex -5.835000e+02  4.541505e+02 -2.226441e+01
   endloop
 endfacet
 facet normal -2.708729e-14 -6.087614e-01  7.933533e-01
   outer loop
     vertex  1.710000e+02  4.541505e+02 -2.226441e+01
     vertex -5.835000e+02  4.541505e+02 -2.226441e+01
     vertex -5.830858e+02  4.537363e+02 -2.258225e+01
   endloop
 endfacet
 facet normal -3.154381e-14 -3.826834e-01  9.238795e-01
   outer loop
     vertex  1.710000e+02  4.541505e+02 -2.226441e+01
     vertex  1.714824e+02  4.546328e+02 -2.206461e+01
     vertex -5.835000e+02  4.541505e+02 -2.226441e+01
   endloop
 endfacet
 facet normal -2.709088e-14 -6.087614e-01  7.933533e-01
   outer loop
     vertex  1.705858e+02  4.537363e+02 -2.258225e+01
     vertex  1.710000e+02  4.541505e+02 -2.226441e+01
     vertex -5.830858e+02  4.537363e+02 -2.258225e+01
   endloop
 endfacet
 facet normal -2.107994e-14 -7.853169e-01  6.190939e-01
   outer loop
     vertex  1.702947e+02  4.534452e+02 -2.295146e+01
     vertex -5.830858e+02  4.537363e+02 -2.258225e+01
     vertex -5.827947e+02  4.534452e+02 -2.295146e+01
   endloop
 endfacet
 facet normal -1.491794e-14 -8.985452e-01  4.388809e-01
   outer loop
     vertex  1.702947e+02  4.534452e+02 -2.295146e+01
     vertex -5.827947e+02  4.534452e+02 -2.295146e+01
     vertex -5.826275e+02  4.532779e+02 -2.329392e+01
   endloop
 endfacet
 facet normal -2.114041e-14 -7.853169e-01  6.190939e-01
   outer loop
     vertex  1.702947e+02  4.534452e+02 -2.295146e+01
     vertex  1.705858e+02  4.537363e+02 -2.258225e+01
     vertex -5.830858e+02  4.537363e+02 -2.258225e+01
   endloop
 endfacet
 facet normal -1.491422e-14 -8.985452e-01  4.388809e-01
   outer loop
     vertex  1.701275e+02  4.532779e+02 -2.329392e+01
     vertex  1.702947e+02  4.534452e+02 -2.295146e+01
     vertex -5.826275e+02  4.532779e+02 -2.329392e+01
   endloop
 endfacet
 facet normal -9.206491e-15 -9.629546e-01  2.696636e-01
   outer loop
     vertex  1.700349e+02  4.531854e+02 -2.362432e+01
     vertex -5.826275e+02  4.532779e+02 -2.329392e+01
     vertex -5.825349e+02  4.531854e+02 -2.362432e+01
   endloop
 endfacet
 facet normal -9.132789e-15 -9.629546e-01  2.696636e-01
   outer loop
     vertex  1.700349e+02  4.531854e+02 -2.362432e+01
     vertex  1.701275e+02  4.532779e+02 -2.329392e+01
     vertex -5.826275e+02  4.532779e+02 -2.329392e+01
   endloop
 endfacet
 facet normal -4.777604e-15 -9.901643e-01  1.399098e-01
   outer loop
     vertex  1.700088e+02  4.531592e+02 -2.380957e+01
     vertex -5.825349e+02  4.531854e+02 -2.362432e+01
     vertex -5.825088e+02  4.531592e+02 -2.380957e+01
   endloop
 endfacet
 facet normal -1.597193e-15 -9.989055e-01  4.677302e-02
   outer loop
     vertex  1.700088e+02  4.531592e+02 -2.380957e+01
     vertex -5.825088e+02  4.531592e+02 -2.380957e+01
     vertex -5.825000e+02  4.531505e+02 -2.399646e+01
   endloop
 endfacet
 facet normal -4.776612e-15 -9.901643e-01  1.399098e-01
   outer loop
     vertex  1.700088e+02  4.531592e+02 -2.380957e+01
     vertex  1.700349e+02  4.531854e+02 -2.362432e+01
     vertex -5.825349e+02  4.531854e+02 -2.362432e+01
   endloop
 endfacet
 facet normal -1.597231e-15 -9.989055e-01  4.677302e-02
   outer loop
     vertex  1.700000e+02  4.531505e+02 -2.399646e+01
     vertex  1.700088e+02  4.531592e+02 -2.380957e+01
     vertex -5.825000e+02  4.531505e+02 -2.399646e+01
   endloop
 endfacet
 facet normal -3.350885e-14  1.685201e-15  1.000000e+00
   outer loop
     vertex  1.525563e+02  4.688539e+02 -2.199646e+01
     vertex  1.533683e+02  4.681345e+02 -2.199646e+01
     vertex  1.930000e+02  4.761505e+02 -2.199646e+01
   endloop
 endfacet
 facet normal -3.349207e-14  1.517647e-15  1.000000e+00
   outer loop
     vertex  1.539846e+02  4.672417e+02 -2.199646e+01
     vertex  1.720000e+02  4.551505e+02 -2.199646e+01
     vertex  1.930000e+02  4.761505e+02 -2.199646e+01
   endloop
 endfacet
 facet normal -3.334221e-14  8.613575e-16  1.000000e+00
   outer loop
     vertex  1.539846e+02  4.672417e+02 -2.199646e+01
     vertex  1.930000e+02  4.761505e+02 -2.199646e+01
     vertex  1.533683e+02  4.681345e+02 -2.199646e+01
   endloop
 endfacet
 facet normal -3.417196e-14  5.360747e-15  1.000000e+00
   outer loop
     vertex  1.515957e+02  4.693580e+02 -2.199646e+01
     vertex  1.525563e+02  4.688539e+02 -2.199646e+01
     vertex  1.930000e+02  4.761505e+02 -2.199646e+01
   endloop
 endfacet
 facet normal -3.368067e-14  1.236646e-15  1.000000e+00
   outer loop
     vertex  1.543692e+02  4.662274e+02 -2.199646e+01
     vertex  1.720000e+02  4.551505e+02 -2.199646e+01
     vertex  1.539846e+02  4.672417e+02 -2.199646e+01
   endloop
 endfacet
 facet normal -3.346700e-14  1.063545e-15  1.000000e+00
   outer loop
     vertex  1.505424e+02  4.696177e+02 -2.199646e+01
     vertex  1.515957e+02  4.693580e+02 -2.199646e+01
     vertex  1.930000e+02  4.761505e+02 -2.199646e+01
   endloop
 endfacet
 facet normal -3.281571e-14  2.613364e-15  1.000000e+00
   outer loop
     vertex  1.545000e+02  4.651505e+02 -2.199646e+01
     vertex  1.720000e+02  4.551505e+02 -2.199646e+01
     vertex  1.543692e+02  4.662274e+02 -2.199646e+01
   endloop
 endfacet
 facet normal -3.274903e-14 -3.602618e-15  1.000000e+00
   outer loop
     vertex  1.494576e+02  4.696177e+02 -2.199646e+01
     vertex  1.505424e+02  4.696177e+02 -2.199646e+01
     vertex  1.930000e+02  4.761505e+02 -2.199646e+01
   endloop
 endfacet
 facet normal -3.208302e-14  3.895583e-15  1.000000e+00
   outer loop
     vertex  1.543692e+02  4.640735e+02 -2.199646e+01
     vertex  1.720000e+02  4.551505e+02 -2.199646e+01
     vertex  1.545000e+02  4.651505e+02 -2.199646e+01
   endloop
 endfacet
 facet normal -3.303228e-14  2.019964e-15  1.000000e+00
   outer loop
     vertex  1.539846e+02  4.630592e+02 -2.199646e+01
     vertex  1.720000e+02  4.551505e+02 -2.199646e+01
     vertex  1.543692e+02  4.640735e+02 -2.199646e+01
   endloop
 endfacet
 facet normal -3.407510e-14 -3.554829e-16  1.000000e+00
   outer loop
     vertex  1.533683e+02  4.621664e+02 -2.199646e+01
     vertex  1.720000e+02  4.551505e+02 -2.199646e+01
     vertex  1.539846e+02  4.630592e+02 -2.199646e+01
   endloop
 endfacet
 facet normal -3.295258e-14  2.625511e-15  1.000000e+00
   outer loop
     vertex  1.525563e+02  4.614470e+02 -2.199646e+01
     vertex  1.720000e+02  4.551505e+02 -2.199646e+01
     vertex  1.533683e+02  4.621664e+02 -2.199646e+01
   endloop
 endfacet
 facet normal -3.501725e-14 -3.750176e-15  1.000000e+00
   outer loop
     vertex  1.515957e+02  4.609429e+02 -2.199646e+01
     vertex  1.720000e+02  4.551505e+02 -2.199646e+01
     vertex  1.525563e+02  4.614470e+02 -2.199646e+01
   endloop
 endfacet
 facet normal -3.202761e-14  6.781076e-15  1.000000e+00
   outer loop
     vertex  1.505424e+02  4.606833e+02 -2.199646e+01
     vertex  1.720000e+02  4.551505e+02 -2.199646e+01
     vertex  1.515957e+02  4.609429e+02 -2.199646e+01
   endloop
 endfacet
 facet normal -3.602394e-14 -8.717644e-15  1.000000e+00
   outer loop
     vertex  1.494576e+02  4.606833e+02 -2.199646e+01
     vertex  1.720000e+02  4.551505e+02 -2.199646e+01
     vertex  1.505424e+02  4.606833e+02 -2.199646e+01
   endloop
 endfacet
 facet normal -3.414664e-14 -9.652848e-16  1.000000e+00
   outer loop
     vertex -5.599437e+02  4.688539e+02 -2.199646e+01
     vertex  1.466317e+02  4.681345e+02 -2.199646e+01
     vertex  1.474437e+02  4.688539e+02 -2.199646e+01
   endloop
 endfacet
 facet normal -3.414467e-14  9.675060e-16  1.000000e+00
   outer loop
     vertex -5.599437e+02  4.688539e+02 -2.199646e+01
     vertex -5.591317e+02  4.681345e+02 -2.199646e+01
     vertex  1.466317e+02  4.681345e+02 -2.199646e+01
   endloop
 endfacet
 facet normal -3.414893e-14  3.674784e-15  1.000000e+00
   outer loop
     vertex -5.585154e+02  4.672417e+02 -2.199646e+01
     vertex  1.460154e+02  4.672417e+02 -2.199646e+01
     vertex  1.466317e+02  4.681345e+02 -2.199646e+01
   endloop
 endfacet
 facet normal -3.414467e-14  3.074634e-16  1.000000e+00
   outer loop
     vertex -5.585154e+02  4.672417e+02 -2.199646e+01
     vertex  1.466317e+02  4.681345e+02 -2.199646e+01
     vertex -5.591317e+02  4.681345e+02 -2.199646e+01
   endloop
 endfacet
 facet normal -3.414932e-14  1.643104e-15  1.000000e+00
   outer loop
     vertex -5.609043e+02  4.693580e+02 -2.199646e+01
     vertex  1.474437e+02  4.688539e+02 -2.199646e+01
     vertex  1.484043e+02  4.693580e+02 -2.199646e+01
   endloop
 endfacet
 facet normal -3.414664e-14  5.409001e-15  1.000000e+00
   outer loop
     vertex -5.609043e+02  4.693580e+02 -2.199646e+01
     vertex -5.599437e+02  4.688539e+02 -2.199646e+01
     vertex  1.474437e+02  4.688539e+02 -2.199646e+01
   endloop
 endfacet
 facet normal -3.414893e-14  4.561566e-15  1.000000e+00
   outer loop
     vertex -5.581308e+02  4.662274e+02 -2.199646e+01
     vertex  1.460154e+02  4.672417e+02 -2.199646e+01
     vertex -5.585154e+02  4.672417e+02 -2.199646e+01
   endloop
 endfacet
 facet normal -3.414083e-14  4.145447e-15  1.000000e+00
   outer loop
     vertex -5.581308e+02  4.662274e+02 -2.199646e+01
     vertex  1.455000e+02  4.651505e+02 -2.199646e+01
     vertex  1.456308e+02  4.662274e+02 -2.199646e+01
   endloop
 endfacet
 facet normal -3.414083e-14 -1.062129e-15  1.000000e+00
   outer loop
     vertex -5.581308e+02  4.662274e+02 -2.199646e+01
     vertex  1.456308e+02  4.662274e+02 -2.199646e+01
     vertex  1.460154e+02  4.672417e+02 -2.199646e+01
   endloop
 endfacet
 facet normal -3.414807e-14  1.699673e-15  1.000000e+00
   outer loop
     vertex -5.619576e+02  4.696177e+02 -2.199646e+01
     vertex  1.484043e+02  4.693580e+02 -2.199646e+01
     vertex  1.494576e+02  4.696177e+02 -2.199646e+01
   endloop
 endfacet
 facet normal -3.414932e-14 -1.704721e-15  1.000000e+00
   outer loop
     vertex -5.619576e+02  4.696177e+02 -2.199646e+01
     vertex -5.609043e+02  4.693580e+02 -2.199646e+01
     vertex  1.484043e+02  4.693580e+02 -2.199646e+01
   endloop
 endfacet
 facet normal -3.414847e-14 -8.474188e-16  1.000000e+00
   outer loop
     vertex -5.580000e+02  4.651505e+02 -2.199646e+01
     vertex  1.455000e+02  4.651505e+02 -2.199646e+01
     vertex -5.581308e+02  4.662274e+02 -2.199646e+01
   endloop
 endfacet
 facet normal -3.414847e-14  4.146375e-15  1.000000e+00
   outer loop
     vertex -5.581308e+02  4.640735e+02 -2.199646e+01
     vertex  1.455000e+02  4.651505e+02 -2.199646e+01
     vertex -5.580000e+02  4.651505e+02 -2.199646e+01
   endloop
 endfacet
 facet normal -3.414588e-14  2.451852e-15  1.000000e+00
   outer loop
     vertex -5.581308e+02  4.640735e+02 -2.199646e+01
     vertex  1.456308e+02  4.640735e+02 -2.199646e+01
     vertex  1.455000e+02  4.651505e+02 -2.199646e+01
   endloop
 endfacet
 facet normal -3.414588e-14 -1.060214e-15  1.000000e+00
   outer loop
     vertex -5.585154e+02  4.630592e+02 -2.199646e+01
     vertex  1.456308e+02  4.640735e+02 -2.199646e+01
     vertex -5.581308e+02  4.640735e+02 -2.199646e+01
   endloop
 endfacet
 facet normal -3.414389e-14 -2.441540e-15  1.000000e+00
   outer loop
     vertex -5.585154e+02  4.630592e+02 -2.199646e+01
     vertex  1.460154e+02  4.630592e+02 -2.199646e+01
     vertex  1.456308e+02  4.640735e+02 -2.199646e+01
   endloop
 endfacet
 facet normal -3.414389e-14  3.671303e-15  1.000000e+00
   outer loop
     vertex -5.591317e+02  4.621664e+02 -2.199646e+01
     vertex  1.460154e+02  4.630592e+02 -2.199646e+01
     vertex -5.585154e+02  4.630592e+02 -2.199646e+01
   endloop
 endfacet
 facet normal -3.414467e-14  4.286768e-15  1.000000e+00
   outer loop
     vertex -5.591317e+02  4.621664e+02 -2.199646e+01
     vertex  1.466317e+02  4.621664e+02 -2.199646e+01
     vertex  1.460154e+02  4.630592e+02 -2.199646e+01
   endloop
 endfacet
 facet normal -3.428784e-14  3.770668e-15  1.000000e+00
   outer loop
     vertex -6.055000e+02  4.761505e+02 -2.199646e+01
     vertex -5.664846e+02  4.672417e+02 -2.199646e+01
     vertex -5.658683e+02  4.681345e+02 -2.199646e+01
   endloop
 endfacet
 facet normal -3.504145e-14  4.475263e-17  1.000000e+00
   outer loop
     vertex -6.055000e+02  4.761505e+02 -2.199646e+01
     vertex -5.658683e+02  4.681345e+02 -2.199646e+01
     vertex -5.650563e+02  4.688539e+02 -2.199646e+01
   endloop
 endfacet
 facet normal -3.459863e-14  2.499209e-15  1.000000e+00
   outer loop
     vertex -6.055000e+02  4.761505e+02 -2.199646e+01
     vertex -5.650563e+02  4.688539e+02 -2.199646e+01
     vertex -5.640957e+02  4.693580e+02 -2.199646e+01
   endloop
 endfacet
 facet normal -3.414807e-14  5.154283e-15  1.000000e+00
   outer loop
     vertex -6.055000e+02  4.761505e+02 -2.199646e+01
     vertex -5.619576e+02  4.696177e+02 -2.199646e+01
     vertex  1.494576e+02  4.696177e+02 -2.199646e+01
   endloop
 endfacet
 facet normal -3.449734e-14  3.116693e-15  1.000000e+00
   outer loop
     vertex -6.055000e+02  4.761505e+02 -2.199646e+01
     vertex -5.640957e+02  4.693580e+02 -2.199646e+01
     vertex -5.630424e+02  4.696177e+02 -2.199646e+01
   endloop
 endfacet
 facet normal -3.274903e-14  1.447914e-14  1.000000e+00
   outer loop
     vertex -6.055000e+02  4.761505e+02 -2.199646e+01
     vertex -5.630424e+02  4.696177e+02 -2.199646e+01
     vertex -5.619576e+02  4.696177e+02 -2.199646e+01
   endloop
 endfacet
 facet normal -3.414342e-14  5.691272e-15  1.000000e+00
   outer loop
     vertex -6.055000e+02  4.761505e+02 -2.199646e+01
     vertex  1.494576e+02  4.696177e+02 -2.199646e+01
     vertex  1.930000e+02  4.761505e+02 -2.199646e+01
   endloop
 endfacet
 facet normal -3.602394e-14  6.149174e-15  1.000000e+00
   outer loop
     vertex -5.845000e+02  4.551505e+02 -2.199646e+01
     vertex -5.619576e+02  4.606833e+02 -2.199646e+01
     vertex -5.630424e+02  4.606833e+02 -2.199646e+01
   endloop
 endfacet
 facet normal -3.407576e-14 -1.406310e-15  1.000000e+00
   outer loop
     vertex -5.845000e+02  4.551505e+02 -2.199646e+01
     vertex -5.630424e+02  4.606833e+02 -2.199646e+01
     vertex -5.640957e+02  4.609429e+02 -2.199646e+01
   endloop
 endfacet
 facet normal -3.405796e-14 -1.469035e-15  1.000000e+00
   outer loop
     vertex -5.845000e+02  4.551505e+02 -2.199646e+01
     vertex -5.640957e+02  4.609429e+02 -2.199646e+01
     vertex -5.650563e+02  4.614470e+02 -2.199646e+01
   endloop
 endfacet
 facet normal -3.465899e-14  3.869527e-16  1.000000e+00
   outer loop
     vertex -5.845000e+02  4.551505e+02 -2.199646e+01
     vertex -5.650563e+02  4.614470e+02 -2.199646e+01
     vertex -5.658683e+02  4.621664e+02 -2.199646e+01
   endloop
 endfacet
 facet normal -3.571845e-14  3.200465e-15  1.000000e+00
   outer loop
     vertex -5.845000e+02  4.551505e+02 -2.199646e+01
     vertex -5.658683e+02  4.621664e+02 -2.199646e+01
     vertex -5.664846e+02  4.630592e+02 -2.199646e+01
   endloop
 endfacet
 facet normal -3.468854e-14  8.544116e-16  1.000000e+00
   outer loop
     vertex -5.845000e+02  4.551505e+02 -2.199646e+01
     vertex -5.664846e+02  4.630592e+02 -2.199646e+01
     vertex -5.668692e+02  4.640735e+02 -2.199646e+01
   endloop
 endfacet
 facet normal -3.541879e-14  2.297293e-15  1.000000e+00
   outer loop
     vertex -5.845000e+02  4.551505e+02 -2.199646e+01
     vertex -5.668692e+02  4.640735e+02 -2.199646e+01
     vertex -5.670000e+02  4.651505e+02 -2.199646e+01
   endloop
 endfacet
 facet normal -3.462323e-14  9.050651e-16  1.000000e+00
   outer loop
     vertex -5.845000e+02  4.551505e+02 -2.199646e+01
     vertex -5.670000e+02  4.651505e+02 -2.199646e+01
     vertex -5.668692e+02  4.662274e+02 -2.199646e+01
   endloop
 endfacet
 facet normal -3.604046e-14  3.160814e-15  1.000000e+00
   outer loop
     vertex -5.845000e+02  4.551505e+02 -2.199646e+01
     vertex -5.668692e+02  4.662274e+02 -2.199646e+01
     vertex -5.664846e+02  4.672417e+02 -2.199646e+01
   endloop
 endfacet
 facet normal -3.483665e-14  1.367194e-15  1.000000e+00
   outer loop
     vertex -5.845000e+02  4.551505e+02 -2.199646e+01
     vertex -5.664846e+02  4.672417e+02 -2.199646e+01
     vertex -6.055000e+02  4.761505e+02 -2.199646e+01
   endloop
 endfacet
 facet normal -3.414644e-14 -1.068130e-15  1.000000e+00
   outer loop
     vertex -5.845000e+02  4.551505e+02 -2.199646e+01
     vertex  1.720000e+02  4.551505e+02 -2.199646e+01
     vertex  1.494576e+02  4.606833e+02 -2.199646e+01
   endloop
 endfacet
 facet normal -3.424196e-14  1.160384e-14  1.000000e+00
   outer loop
     vertex -5.845000e+02  4.551505e+02 -2.199646e+01
     vertex  1.494576e+02  4.606833e+02 -2.199646e+01
     vertex  1.484043e+02  4.609429e+02 -2.199646e+01
   endloop
 endfacet
 facet normal -3.408258e-14 -8.562944e-15  1.000000e+00
   outer loop
     vertex -5.845000e+02  4.551505e+02 -2.199646e+01
     vertex  1.484043e+02  4.609429e+02 -2.199646e+01
     vertex  1.474437e+02  4.614470e+02 -2.199646e+01
   endloop
 endfacet
 facet normal -3.420645e-14  5.836378e-15  1.000000e+00
   outer loop
     vertex -5.845000e+02  4.551505e+02 -2.199646e+01
     vertex  1.474437e+02  4.614470e+02 -2.199646e+01
     vertex  1.466317e+02  4.621664e+02 -2.199646e+01
   endloop
 endfacet
 facet normal -3.413562e-14 -1.544407e-15  1.000000e+00
   outer loop
     vertex -5.845000e+02  4.551505e+02 -2.199646e+01
     vertex  1.466317e+02  4.621664e+02 -2.199646e+01
     vertex -5.619576e+02  4.606833e+02 -2.199646e+01
   endloop
 endfacet
 facet normal -3.414236e-14  1.676520e-15  1.000000e+00
   outer loop
     vertex -5.619576e+02  4.606833e+02 -2.199646e+01
     vertex  1.466317e+02  4.621664e+02 -2.199646e+01
     vertex -5.609043e+02  4.609429e+02 -2.199646e+01
   endloop
 endfacet
 facet normal -3.414228e-14  1.629705e-15  1.000000e+00
   outer loop
     vertex -5.609043e+02  4.609429e+02 -2.199646e+01
     vertex  1.466317e+02  4.621664e+02 -2.199646e+01
     vertex -5.599437e+02  4.614470e+02 -2.199646e+01
   endloop
 endfacet
 facet normal -3.414467e-14  3.971103e-15  1.000000e+00
   outer loop
     vertex -5.599437e+02  4.614470e+02 -2.199646e+01
     vertex  1.466317e+02  4.621664e+02 -2.199646e+01
     vertex -5.591317e+02  4.621664e+02 -2.199646e+01
   endloop
 endfacet
 facet normal -3.403463e-14 -7.771525e-02  9.969756e-01
   outer loop
     vertex  1.936198e+02  4.767703e+02 -2.194814e+01
     vertex -6.055000e+02  4.761505e+02 -2.199646e+01
     vertex  1.930000e+02  4.761505e+02 -2.199646e+01
   endloop
 endfacet
 facet normal -3.320605e-14 -2.312682e-01  9.728900e-01
   outer loop
     vertex  1.936198e+02  4.767703e+02 -2.194814e+01
     vertex -6.067247e+02  4.773752e+02 -2.180436e+01
     vertex -6.061198e+02  4.767703e+02 -2.194814e+01
   endloop
 endfacet
 facet normal -3.403945e-14 -7.771525e-02  9.969756e-01
   outer loop
     vertex  1.936198e+02  4.767703e+02 -2.194814e+01
     vertex -6.061198e+02  4.767703e+02 -2.194814e+01
     vertex -6.055000e+02  4.761505e+02 -2.199646e+01
   endloop
 endfacet
 facet normal -3.322410e-14 -2.312682e-01  9.728900e-01
   outer loop
     vertex  1.942247e+02  4.773752e+02 -2.180436e+01
     vertex -6.067247e+02  4.773752e+02 -2.180436e+01
     vertex  1.936198e+02  4.767703e+02 -2.194814e+01
   endloop
 endfacet
 facet normal -3.106892e-14 -4.129455e-01  9.107557e-01
   outer loop
     vertex  1.950572e+02  4.782077e+02 -2.142689e+01
     vertex -6.075572e+02  4.782077e+02 -2.142689e+01
     vertex -6.067247e+02  4.773752e+02 -2.180436e+01
   endloop
 endfacet
 facet normal -3.110219e-14 -4.129455e-01  9.107557e-01
   outer loop
     vertex  1.950572e+02  4.782077e+02 -2.142689e+01
     vertex -6.067247e+02  4.773752e+02 -2.180436e+01
     vertex  1.942247e+02  4.773752e+02 -2.180436e+01
   endloop
 endfacet
 facet normal -2.762520e-14 -5.859729e-01  8.103307e-01
   outer loop
     vertex  1.956133e+02  4.787638e+02 -2.102478e+01
     vertex -6.081133e+02  4.787638e+02 -2.102478e+01
     vertex -6.075572e+02  4.782077e+02 -2.142689e+01
   endloop
 endfacet
 facet normal -2.762763e-14 -5.859729e-01  8.103307e-01
   outer loop
     vertex  1.956133e+02  4.787638e+02 -2.102478e+01
     vertex -6.075572e+02  4.782077e+02 -2.142689e+01
     vertex  1.950572e+02  4.782077e+02 -2.142689e+01
   endloop
 endfacet
 facet normal -2.378871e-14 -7.158542e-01  6.982498e-01
   outer loop
     vertex  1.960924e+02  4.792429e+02 -2.053355e+01
     vertex -6.085924e+02  4.792429e+02 -2.053355e+01
     vertex -6.081133e+02  4.787638e+02 -2.102478e+01
   endloop
 endfacet
 facet normal -2.378932e-14 -7.158542e-01  6.982498e-01
   outer loop
     vertex  1.960924e+02  4.792429e+02 -2.053355e+01
     vertex -6.081133e+02  4.787638e+02 -2.102478e+01
     vertex  1.956133e+02  4.787638e+02 -2.102478e+01
   endloop
 endfacet
 facet normal -1.925420e-14 -8.246671e-01  5.656185e-01
   outer loop
     vertex  1.964806e+02  4.796310e+02 -1.996764e+01
     vertex -6.089806e+02  4.796310e+02 -1.996764e+01
     vertex -6.085924e+02  4.792429e+02 -2.053355e+01
   endloop
 endfacet
 facet normal -1.925279e-14 -8.246671e-01  5.656185e-01
   outer loop
     vertex  1.964806e+02  4.796310e+02 -1.996764e+01
     vertex -6.085924e+02  4.792429e+02 -2.053355e+01
     vertex  1.960924e+02  4.792429e+02 -2.053355e+01
   endloop
 endfacet
 facet normal -8.700725e-15 -9.669915e-01  2.548087e-01
   outer loop
     vertex  1.967663e+02  4.799167e+02 -1.934372e+01
     vertex -6.094411e+02  4.800916e+02 -1.868015e+01
     vertex -6.092663e+02  4.799167e+02 -1.934372e+01
   endloop
 endfacet
 facet normal -1.421640e-14 -9.092089e-01  4.163403e-01
   outer loop
     vertex  1.967663e+02  4.799167e+02 -1.934372e+01
     vertex -6.092663e+02  4.799167e+02 -1.934372e+01
     vertex -6.089806e+02  4.796310e+02 -1.996764e+01
   endloop
 endfacet
 facet normal -1.415130e-14 -9.092089e-01  4.163403e-01
   outer loop
     vertex  1.967663e+02  4.799167e+02 -1.934372e+01
     vertex -6.089806e+02  4.796310e+02 -1.996764e+01
     vertex  1.964806e+02  4.796310e+02 -1.996764e+01
   endloop
 endfacet
 facet normal -8.700319e-15 -9.669915e-01  2.548087e-01
   outer loop
     vertex  1.969411e+02  4.800916e+02 -1.868015e+01
     vertex -6.094411e+02  4.800916e+02 -1.868015e+01
     vertex  1.967663e+02  4.799167e+02 -1.934372e+01
   endloop
 endfacet
 facet normal -2.858946e-15 -9.963143e-01  8.577775e-02
   outer loop
     vertex  1.970000e+02  4.801505e+02 -1.799646e+01
     vertex -6.095000e+02  4.801505e+02 -1.799646e+01
     vertex -6.094411e+02  4.800916e+02 -1.868015e+01
   endloop
 endfacet
 facet normal -2.928845e-15 -9.963143e-01  8.577775e-02
   outer loop
     vertex  1.970000e+02  4.801505e+02 -1.799646e+01
     vertex -6.094411e+02  4.800916e+02 -1.868015e+01
     vertex  1.969411e+02  4.800916e+02 -1.868015e+01
   endloop
 endfacet
 facet normal  7.048161e-17 -1.000000e+00  2.913757e-30
   outer loop
     vertex  1.970000e+02  4.801505e+02 -1.799646e+01
     vertex -6.095000e+02  4.801505e+02 -6.996460e+00
     vertex -6.095000e+02  4.801505e+02 -1.799646e+01
   endloop
 endfacet
 facet normal  1.409632e-16 -1.000000e+00  5.167584e-15
   outer loop
     vertex  1.970000e+02  4.801505e+02 -6.996460e+00
     vertex -6.095000e+02  4.801505e+02 -6.996460e+00
     vertex  1.970000e+02  4.801505e+02 -1.799646e+01
   endloop
 endfacet
 facet normal -7.071068e-01 -7.071068e-01 -5.169815e-14
   outer loop
     vertex -6.089806e+02  4.796310e+02 -1.996764e+01
     vertex -6.125000e+02  4.831505e+02 -2.499646e+01
     vertex -6.085924e+02  4.792429e+02 -2.053355e+01
   endloop
 endfacet
 facet normal -7.071068e-01 -7.071068e-01 -1.422499e-14
   outer loop
     vertex -6.081133e+02  4.787638e+02 -2.102478e+01
     vertex -6.085924e+02  4.792429e+02 -2.053355e+01
     vertex -6.125000e+02  4.831505e+02 -2.499646e+01
   endloop
 endfacet
 facet normal -7.071068e-01 -7.071068e-01 -1.264523e-14
   outer loop
     vertex -6.092663e+02  4.799167e+02 -1.934372e+01
     vertex -6.125000e+02  4.831505e+02 -2.499646e+01
     vertex -6.089806e+02  4.796310e+02 -1.996764e+01
   endloop
 endfacet
 facet normal -7.071068e-01 -7.071068e-01 -1.684642e-14
   outer loop
     vertex -6.075572e+02  4.782077e+02 -2.142689e+01
     vertex -6.081133e+02  4.787638e+02 -2.102478e+01
     vertex -6.125000e+02  4.831505e+02 -2.499646e+01
   endloop
 endfacet
 facet normal -7.071068e-01 -7.071068e-01  3.250237e-14
   outer loop
     vertex -6.094411e+02  4.800916e+02 -1.868015e+01
     vertex -6.125000e+02  4.831505e+02 -2.499646e+01
     vertex -6.092663e+02  4.799167e+02 -1.934372e+01
   endloop
 endfacet
 facet normal -7.071068e-01 -7.071068e-01 -5.279770e-14
   outer loop
     vertex -6.095000e+02  4.801505e+02 -1.799646e+01
     vertex -6.125000e+02  4.831505e+02 -2.499646e+01
     vertex -6.094411e+02  4.800916e+02 -1.868015e+01
   endloop
 endfacet
 facet normal -7.071068e-01 -7.071068e-01 -6.177199e-14
   outer loop
     vertex -6.067247e+02  4.773752e+02 -2.180436e+01
     vertex -6.075572e+02  4.782077e+02 -2.142689e+01
     vertex -6.125000e+02  4.831505e+02 -2.499646e+01
   endloop
 endfacet
 facet normal -7.071068e-01 -7.071068e-01 -1.756799e-14
   outer loop
     vertex -6.061198e+02  4.767703e+02 -2.194814e+01
     vertex -6.067247e+02  4.773752e+02 -2.180436e+01
     vertex -6.125000e+02  4.831505e+02 -2.499646e+01
   endloop
 endfacet
 facet normal -7.071068e-01 -7.071068e-01 -2.257537e-14
   outer loop
     vertex -6.055000e+02  4.761505e+02 -2.199646e+01
     vertex -6.061198e+02  4.767703e+02 -2.194814e+01
     vertex -6.125000e+02  4.831505e+02 -2.499646e+01
   endloop
 endfacet
 facet normal -7.071068e-01 -7.071068e-01 -2.210690e-14
   outer loop
     vertex -6.125000e+02  4.831505e+02 -4.996460e+00
     vertex -6.125000e+02  4.831505e+02 -2.499646e+01
     vertex -6.095000e+02  4.801505e+02 -1.799646e+01
   endloop
 endfacet
 facet normal -7.071068e-01 -7.071068e-01  2.009718e-14
   outer loop
     vertex -6.095000e+02  4.801505e+02 -6.996460e+00
     vertex -6.115000e+02  4.821505e+02 -4.996460e+00
     vertex -6.125000e+02  4.831505e+02 -4.996460e+00
   endloop
 endfacet
 facet normal -7.071068e-01 -7.071068e-01 -6.627804e-14
   outer loop
     vertex -6.095000e+02  4.801505e+02 -6.996460e+00
     vertex -6.109824e+02  4.816328e+02 -5.064608e+00
     vertex -6.115000e+02  4.821505e+02 -4.996460e+00
   endloop
 endfacet
 facet normal -7.071068e-01 -7.071068e-01 -2.923227e-14
   outer loop
     vertex -6.095000e+02  4.801505e+02 -6.996460e+00
     vertex -6.125000e+02  4.831505e+02 -4.996460e+00
     vertex -6.095000e+02  4.801505e+02 -1.799646e+01
   endloop
 endfacet
 facet normal -7.071068e-01 -7.071068e-01  9.373130e-14
   outer loop
     vertex -6.105000e+02  4.811505e+02 -5.264409e+00
     vertex -6.109824e+02  4.816328e+02 -5.064608e+00
     vertex -6.095000e+02  4.801505e+02 -6.996460e+00
   endloop
 endfacet
 facet normal -7.071068e-01 -7.071068e-01 -5.365716e-18
   outer loop
     vertex -6.095349e+02  4.801854e+02 -6.624321e+00
     vertex -6.095000e+02  4.801505e+02 -6.996460e+00
     vertex -6.095088e+02  4.801592e+02 -6.809573e+00
   endloop
 endfacet
 facet normal -7.071068e-01 -7.071068e-01 -6.132302e-14
   outer loop
     vertex -6.096275e+02  4.802779e+02 -6.293920e+00
     vertex -6.095000e+02  4.801505e+02 -6.996460e+00
     vertex -6.095349e+02  4.801854e+02 -6.624321e+00
   endloop
 endfacet
 facet normal -7.071068e-01 -7.071068e-01  4.167150e-14
   outer loop
     vertex -6.100858e+02  4.807363e+02 -5.582246e+00
     vertex -6.105000e+02  4.811505e+02 -5.264409e+00
     vertex -6.095000e+02  4.801505e+02 -6.996460e+00
   endloop
 endfacet
 facet normal -7.071068e-01 -7.071068e-01  2.167386e-14
   outer loop
     vertex -6.097947e+02  4.804452e+02 -5.951463e+00
     vertex -6.095000e+02  4.801505e+02 -6.996460e+00
     vertex -6.096275e+02  4.802779e+02 -6.293920e+00
   endloop
 endfacet
 facet normal -7.071068e-01 -7.071068e-01  1.804281e-13
   outer loop
     vertex -6.097947e+02  4.804452e+02 -5.951463e+00
     vertex -6.100858e+02  4.807363e+02 -5.582246e+00
     vertex -6.095000e+02  4.801505e+02 -6.996460e+00
   endloop
 endfacet
 facet normal -7.071068e-01 -7.071068e-01  1.467413e-14
   outer loop
     vertex -5.845000e+02  4.551505e+02 -2.199646e+01
     vertex -6.055000e+02  4.761505e+02 -2.199646e+01
     vertex -5.825000e+02  4.531505e+02 -2.499646e+01
   endloop
 endfacet
 facet normal -7.071068e-01 -7.071068e-01 -9.878398e-14
   outer loop
     vertex -5.839824e+02  4.546328e+02 -2.206461e+01
     vertex -5.845000e+02  4.551505e+02 -2.199646e+01
     vertex -5.825000e+02  4.531505e+02 -2.499646e+01
   endloop
 endfacet
 facet normal -7.071068e-01 -7.071068e-01  4.019437e-14
   outer loop
     vertex -5.835000e+02  4.541505e+02 -2.226441e+01
     vertex -5.825000e+02  4.531505e+02 -2.499646e+01
     vertex -5.825000e+02  4.531505e+02 -2.399646e+01
   endloop
 endfacet
 facet normal -7.071068e-01 -7.071068e-01  8.924304e-14
   outer loop
     vertex -5.835000e+02  4.541505e+02 -2.226441e+01
     vertex -5.839824e+02  4.546328e+02 -2.206461e+01
     vertex -5.825000e+02  4.531505e+02 -2.499646e+01
   endloop
 endfacet
 facet normal -7.071068e-01 -7.071068e-01 -5.365716e-18
   outer loop
     vertex -5.825349e+02  4.531854e+02 -2.362432e+01
     vertex -5.825000e+02  4.531505e+02 -2.399646e+01
     vertex -5.825088e+02  4.531592e+02 -2.380957e+01
   endloop
 endfacet
 facet normal -7.071068e-01 -7.071068e-01 -6.290928e-18
   outer loop
     vertex -5.826275e+02  4.532779e+02 -2.329392e+01
     vertex -5.825000e+02  4.531505e+02 -2.399646e+01
     vertex -5.825349e+02  4.531854e+02 -2.362432e+01
   endloop
 endfacet
 facet normal -7.071068e-01 -7.071068e-01  7.381613e-18
   outer loop
     vertex -5.830858e+02  4.537363e+02 -2.258225e+01
     vertex -5.835000e+02  4.541505e+02 -2.226441e+01
     vertex -5.825000e+02  4.531505e+02 -2.399646e+01
   endloop
 endfacet
 facet normal -7.071068e-01 -7.071068e-01 -2.429578e-17
   outer loop
     vertex -5.827947e+02  4.534452e+02 -2.295146e+01
     vertex -5.825000e+02  4.531505e+02 -2.399646e+01
     vertex -5.826275e+02  4.532779e+02 -2.329392e+01
   endloop
 endfacet
 facet normal -7.071068e-01 -7.071068e-01  1.788710e-17
   outer loop
     vertex -5.827947e+02  4.534452e+02 -2.295146e+01
     vertex -5.830858e+02  4.537363e+02 -2.258225e+01
     vertex -5.825000e+02  4.531505e+02 -2.399646e+01
   endloop
 endfacet
 facet normal -7.071068e-01 -7.071068e-01 -2.054379e-14
   outer loop
     vertex -5.825000e+02  4.531505e+02 -2.499646e+01
     vertex -6.055000e+02  4.761505e+02 -2.199646e+01
     vertex -6.125000e+02  4.831505e+02 -2.499646e+01
   endloop
 endfacet
 facet normal  7.071068e-01 -7.071068e-01 -2.399131e-14
   outer loop
     vertex  1.964806e+02  4.796310e+02 -1.996764e+01
     vertex  1.960924e+02  4.792429e+02 -2.053355e+01
     vertex  2.000000e+02  4.831505e+02 -2.499646e+01
   endloop
 endfacet
 facet normal  7.071068e-01 -7.071068e-01  1.902240e-14
   outer loop
     vertex  1.956133e+02  4.787638e+02 -2.102478e+01
     vertex  2.000000e+02  4.831505e+02 -2.499646e+01
     vertex  1.960924e+02  4.792429e+02 -2.053355e+01
   endloop
 endfacet
 facet normal  7.071068e-01 -7.071068e-01  4.841643e-14
   outer loop
     vertex  1.967663e+02  4.799167e+02 -1.934372e+01
     vertex  1.964806e+02  4.796310e+02 -1.996764e+01
     vertex  2.000000e+02  4.831505e+02 -2.499646e+01
   endloop
 endfacet
 facet normal  7.071068e-01 -7.071068e-01  2.250077e-14
   outer loop
     vertex  1.950572e+02  4.782077e+02 -2.142689e+01
     vertex  2.000000e+02  4.831505e+02 -2.499646e+01
     vertex  1.956133e+02  4.787638e+02 -2.102478e+01
   endloop
 endfacet
 facet normal  7.071068e-01 -7.071068e-01  5.044440e-14
   outer loop
     vertex  1.969411e+02  4.800916e+02 -1.868015e+01
     vertex  1.967663e+02  4.799167e+02 -1.934372e+01
     vertex  2.000000e+02  4.831505e+02 -2.499646e+01
   endloop
 endfacet
 facet normal  7.071068e-01 -7.071068e-01  4.801134e-15
   outer loop
     vertex  1.970000e+02  4.801505e+02 -1.799646e+01
     vertex  1.969411e+02  4.800916e+02 -1.868015e+01
     vertex  2.000000e+02  4.831505e+02 -2.499646e+01
   endloop
 endfacet
 facet normal  7.071068e-01 -7.071068e-01  1.097515e-13
   outer loop
     vertex  1.942247e+02  4.773752e+02 -2.180436e+01
     vertex  2.000000e+02  4.831505e+02 -2.499646e+01
     vertex  1.950572e+02  4.782077e+02 -2.142689e+01
   endloop
 endfacet
 facet normal  7.071068e-01 -7.071068e-01 -6.645409e-14
   outer loop
     vertex  1.936198e+02  4.767703e+02 -2.194814e+01
     vertex  2.000000e+02  4.831505e+02 -2.499646e+01
     vertex  1.942247e+02  4.773752e+02 -2.180436e+01
   endloop
 endfacet
 facet normal  7.071068e-01 -7.071068e-01  3.410302e-14
   outer loop
     vertex  1.930000e+02  4.761505e+02 -2.199646e+01
     vertex  2.000000e+02  4.831505e+02 -2.499646e+01
     vertex  1.936198e+02  4.767703e+02 -2.194814e+01
   endloop
 endfacet
 facet normal  7.071068e-01 -7.071068e-01  2.813606e-14
   outer loop
     vertex  2.000000e+02  4.831505e+02 -4.996460e+00
     vertex  1.970000e+02  4.801505e+02 -1.799646e+01
     vertex  2.000000e+02  4.831505e+02 -2.499646e+01
   endloop
 endfacet
 facet normal  7.071068e-01 -7.071068e-01  0.000000e+00
   outer loop
     vertex  1.970000e+02  4.801505e+02 -6.996460e+00
     vertex  2.000000e+02  4.831505e+02 -4.996460e+00
     vertex  1.990000e+02  4.821505e+02 -4.996460e+00
   endloop
 endfacet
 facet normal  7.071068e-01 -7.071068e-01 -1.788444e-13
   outer loop
     vertex  1.970000e+02  4.801505e+02 -6.996460e+00
     vertex  1.990000e+02  4.821505e+02 -4.996460e+00
     vertex  1.984824e+02  4.816328e+02 -5.064608e+00
   endloop
 endfacet
 facet normal  7.071068e-01 -7.071068e-01  3.288630e-14
   outer loop
     vertex  1.970000e+02  4.801505e+02 -6.996460e+00
     vertex  1.970000e+02  4.801505e+02 -1.799646e+01
     vertex  2.000000e+02  4.831505e+02 -4.996460e+00
   endloop
 endfacet
 facet normal  7.071068e-01 -7.071068e-01 -6.100050e-14
   outer loop
     vertex  1.980000e+02  4.811505e+02 -5.264409e+00
     vertex  1.970000e+02  4.801505e+02 -6.996460e+00
     vertex  1.984824e+02  4.816328e+02 -5.064608e+00
   endloop
 endfacet
 facet normal  7.071068e-01 -7.071068e-01  5.365716e-18
   outer loop
     vertex  1.970349e+02  4.801854e+02 -6.624321e+00
     vertex  1.970088e+02  4.801592e+02 -6.809573e+00
     vertex  1.970000e+02  4.801505e+02 -6.996460e+00
   endloop
 endfacet
 facet normal  7.071068e-01 -7.071068e-01  1.226398e-13
   outer loop
     vertex  1.971275e+02  4.802779e+02 -6.293920e+00
     vertex  1.970349e+02  4.801854e+02 -6.624321e+00
     vertex  1.970000e+02  4.801505e+02 -6.996460e+00
   endloop
 endfacet
 facet normal  7.071068e-01 -7.071068e-01 -8.333562e-14
   outer loop
     vertex  1.975858e+02  4.807363e+02 -5.582246e+00
     vertex  1.970000e+02  4.801505e+02 -6.996460e+00
     vertex  1.980000e+02  4.811505e+02 -5.264409e+00
   endloop
 endfacet
 facet normal  7.071068e-01 -7.071068e-01 -1.820466e-13
   outer loop
     vertex  1.972947e+02  4.804452e+02 -5.951463e+00
     vertex  1.971275e+02  4.802779e+02 -6.293920e+00
     vertex  1.970000e+02  4.801505e+02 -6.996460e+00
   endloop
 endfacet
 facet normal  7.071068e-01 -7.071068e-01 -1.197960e-13
   outer loop
     vertex  1.972947e+02  4.804452e+02 -5.951463e+00
     vertex  1.970000e+02  4.801505e+02 -6.996460e+00
     vertex  1.975858e+02  4.807363e+02 -5.582246e+00
   endloop
 endfacet
 facet normal  7.071068e-01 -7.071068e-01  4.019437e-14
   outer loop
     vertex  1.720000e+02  4.551505e+02 -2.199646e+01
     vertex  1.700000e+02  4.531505e+02 -2.499646e+01
     vertex  1.930000e+02  4.761505e+02 -2.199646e+01
   endloop
 endfacet
 facet normal  7.071068e-01 -7.071068e-01  1.007858e-13
   outer loop
     vertex  1.714824e+02  4.546328e+02 -2.206461e+01
     vertex  1.700000e+02  4.531505e+02 -2.499646e+01
     vertex  1.720000e+02  4.551505e+02 -2.199646e+01
   endloop
 endfacet
 facet normal  7.071068e-01 -7.071068e-01  4.019437e-14
   outer loop
     vertex  1.710000e+02  4.541505e+02 -2.226441e+01
     vertex  1.700000e+02  4.531505e+02 -2.399646e+01
     vertex  1.700000e+02  4.531505e+02 -2.499646e+01
   endloop
 endfacet
 facet normal  7.071068e-01 -7.071068e-01  1.607527e-14
   outer loop
     vertex  1.710000e+02  4.541505e+02 -2.226441e+01
     vertex  1.700000e+02  4.531505e+02 -2.499646e+01
     vertex  1.714824e+02  4.546328e+02 -2.206461e+01
   endloop
 endfacet
 facet normal  7.071068e-01 -7.071068e-01  5.365716e-18
   outer loop
     vertex  1.700349e+02  4.531854e+02 -2.362432e+01
     vertex  1.700088e+02  4.531592e+02 -2.380957e+01
     vertex  1.700000e+02  4.531505e+02 -2.399646e+01
   endloop
 endfacet
 facet normal  7.071068e-01 -7.071068e-01 -6.130120e-14
   outer loop
     vertex  1.701275e+02  4.532779e+02 -2.329392e+01
     vertex  1.700349e+02  4.531854e+02 -2.362432e+01
     vertex  1.700000e+02  4.531505e+02 -2.399646e+01
   endloop
 endfacet
 facet normal  7.071068e-01 -7.071068e-01  8.332085e-14
   outer loop
     vertex  1.705858e+02  4.537363e+02 -2.258225e+01
     vertex  1.700000e+02  4.531505e+02 -2.399646e+01
     vertex  1.710000e+02  4.541505e+02 -2.226441e+01
   endloop
 endfacet
 facet normal  7.071068e-01 -7.071068e-01  9.104391e-14
   outer loop
     vertex  1.702947e+02  4.534452e+02 -2.295146e+01
     vertex  1.701275e+02  4.532779e+02 -2.329392e+01
     vertex  1.700000e+02  4.531505e+02 -2.399646e+01
   endloop
 endfacet
 facet normal  7.071068e-01 -7.071068e-01 -7.627634e-16
   outer loop
     vertex  1.702947e+02  4.534452e+02 -2.295146e+01
     vertex  1.700000e+02  4.531505e+02 -2.399646e+01
     vertex  1.705858e+02  4.537363e+02 -2.258225e+01
   endloop
 endfacet
 facet normal  7.071068e-01 -7.071068e-01  4.019437e-14
   outer loop
     vertex  1.700000e+02  4.531505e+02 -2.499646e+01
     vertex  2.000000e+02  4.831505e+02 -2.499646e+01
     vertex  1.930000e+02  4.761505e+02 -2.199646e+01
   endloop
 endfacet
endsolid
