solid 
 facet normal  4.079581e-13 -9.927089e-01 -1.205367e-01
   outer loop
     vertex  6.757000e+02  3.232000e+02 -2.257836e+02
     vertex  6.750000e+02  3.231070e+02 -2.250178e+02
     vertex  6.750000e+02  3.232000e+02 -2.257836e+02
   endloop
 endfacet
 facet normal  3.940373e-13 -9.350162e-01 -3.546049e-01
   outer loop
     vertex  6.757000e+02  3.231070e+02 -2.250178e+02
     vertex  6.750000e+02  3.228335e+02 -2.242965e+02
     vertex  6.750000e+02  3.231070e+02 -2.250178e+02
   endloop
 endfacet
 facet normal  4.079581e-13 -9.927089e-01 -1.205367e-01
   outer loop
     vertex  6.757000e+02  3.231070e+02 -2.250178e+02
     vertex  6.750000e+02  3.231070e+02 -2.250178e+02
     vertex  6.757000e+02  3.232000e+02 -2.257836e+02
   endloop
 endfacet
 facet normal  3.572164e-13 -8.229839e-01 -5.680647e-01
   outer loop
     vertex  6.757000e+02  3.228335e+02 -2.242965e+02
     vertex  6.750000e+02  3.223952e+02 -2.236616e+02
     vertex  6.750000e+02  3.228335e+02 -2.242965e+02
   endloop
 endfacet
 facet normal  3.940373e-13 -9.350162e-01 -3.546049e-01
   outer loop
     vertex  6.757000e+02  3.228335e+02 -2.242965e+02
     vertex  6.750000e+02  3.228335e+02 -2.242965e+02
     vertex  6.757000e+02  3.231070e+02 -2.250178e+02
   endloop
 endfacet
 facet normal  3.300267e-13 -6.631227e-01 -7.485107e-01
   outer loop
     vertex  6.757000e+02  3.223952e+02 -2.236616e+02
     vertex  6.750000e+02  3.218178e+02 -2.231500e+02
     vertex  6.750000e+02  3.223952e+02 -2.236616e+02
   endloop
 endfacet
 facet normal  3.802812e-13 -8.229839e-01 -5.680647e-01
   outer loop
     vertex  6.757000e+02  3.223952e+02 -2.236616e+02
     vertex  6.750000e+02  3.223952e+02 -2.236616e+02
     vertex  6.757000e+02  3.228335e+02 -2.242965e+02
   endloop
 endfacet
 facet normal  2.246406e-13 -4.647232e-01 -8.854560e-01
   outer loop
     vertex  6.757000e+02  3.218178e+02 -2.231500e+02
     vertex  6.750000e+02  3.211347e+02 -2.227915e+02
     vertex  6.750000e+02  3.218178e+02 -2.231500e+02
   endloop
 endfacet
 facet normal  2.996354e-13 -6.631227e-01 -7.485107e-01
   outer loop
     vertex  6.757000e+02  3.218178e+02 -2.231500e+02
     vertex  6.750000e+02  3.218178e+02 -2.231500e+02
     vertex  6.757000e+02  3.223952e+02 -2.236616e+02
   endloop
 endfacet
 facet normal  1.171570e-13 -2.393157e-01 -9.709418e-01
   outer loop
     vertex  6.757000e+02  3.211347e+02 -2.227915e+02
     vertex  6.750000e+02  3.203857e+02 -2.226069e+02
     vertex  6.750000e+02  3.211347e+02 -2.227915e+02
   endloop
 endfacet
 facet normal  1.869028e-13 -4.647232e-01 -8.854560e-01
   outer loop
     vertex  6.757000e+02  3.211347e+02 -2.227915e+02
     vertex  6.750000e+02  3.211347e+02 -2.227915e+02
     vertex  6.757000e+02  3.218178e+02 -2.231500e+02
   endloop
 endfacet
 facet normal  4.060244e-14  1.196722e-26 -1.000000e+00
   outer loop
     vertex  6.757000e+02  3.203857e+02 -2.226069e+02
     vertex  6.750000e+02  3.196143e+02 -2.226069e+02
     vertex  6.750000e+02  3.203857e+02 -2.226069e+02
   endloop
 endfacet
 facet normal  1.365906e-13 -2.393157e-01 -9.709418e-01
   outer loop
     vertex  6.757000e+02  3.203857e+02 -2.226069e+02
     vertex  6.750000e+02  3.203857e+02 -2.226069e+02
     vertex  6.757000e+02  3.211347e+02 -2.227915e+02
   endloop
 endfacet
 facet normal -7.773440e-14  2.393157e-01 -9.709418e-01
   outer loop
     vertex  6.757000e+02  3.196143e+02 -2.226069e+02
     vertex  6.750000e+02  3.188653e+02 -2.227915e+02
     vertex  6.750000e+02  3.196143e+02 -2.226069e+02
   endloop
 endfacet
 facet normal -1.196722e-26  3.684266e-14 -1.000000e+00
   outer loop
     vertex  6.757000e+02  3.196143e+02 -2.226069e+02
     vertex  6.750000e+02  3.196143e+02 -2.226069e+02
     vertex  6.757000e+02  3.203857e+02 -2.226069e+02
   endloop
 endfacet
 facet normal -1.149995e-13  4.647232e-01 -8.854560e-01
   outer loop
     vertex  6.757000e+02  3.188653e+02 -2.227915e+02
     vertex  6.750000e+02  3.181822e+02 -2.231500e+02
     vertex  6.750000e+02  3.188653e+02 -2.227915e+02
   endloop
 endfacet
 facet normal -3.831179e-14  2.393157e-01 -9.709418e-01
   outer loop
     vertex  6.757000e+02  3.188653e+02 -2.227915e+02
     vertex  6.750000e+02  3.188653e+02 -2.227915e+02
     vertex  6.757000e+02  3.196143e+02 -2.226069e+02
   endloop
 endfacet
 facet normal -1.850038e-13  6.631227e-01 -7.485107e-01
   outer loop
     vertex  6.757000e+02  3.181822e+02 -2.231500e+02
     vertex  6.750000e+02  3.176048e+02 -2.236616e+02
     vertex  6.750000e+02  3.181822e+02 -2.231500e+02
   endloop
 endfacet
 facet normal -1.149995e-13  4.647232e-01 -8.854560e-01
   outer loop
     vertex  6.757000e+02  3.181822e+02 -2.231500e+02
     vertex  6.750000e+02  3.181822e+02 -2.231500e+02
     vertex  6.757000e+02  3.188653e+02 -2.227915e+02
   endloop
 endfacet
 facet normal -3.341515e-13  8.229839e-01 -5.680647e-01
   outer loop
     vertex  6.757000e+02  3.176048e+02 -2.236616e+02
     vertex  6.750000e+02  3.171665e+02 -2.242965e+02
     vertex  6.750000e+02  3.176048e+02 -2.236616e+02
   endloop
 endfacet
 facet normal -2.692440e-13  6.631227e-01 -7.485107e-01
   outer loop
     vertex  6.757000e+02  3.176048e+02 -2.236616e+02
     vertex  6.750000e+02  3.176048e+02 -2.236616e+02
     vertex  6.757000e+02  3.181822e+02 -2.231500e+02
   endloop
 endfacet
 facet normal -2.673212e-13  8.229839e-01 -5.680647e-01
   outer loop
     vertex  6.757000e+02  3.171665e+02 -2.242965e+02
     vertex  6.750000e+02  3.171665e+02 -2.242965e+02
     vertex  6.757000e+02  3.176048e+02 -2.236616e+02
   endloop
 endfacet
 facet normal -3.037115e-13  9.350162e-01 -3.546049e-01
   outer loop
     vertex  6.757000e+02  3.171665e+02 -2.242965e+02
     vertex  6.750000e+02  3.168930e+02 -2.250178e+02
     vertex  6.750000e+02  3.171665e+02 -2.242965e+02
   endloop
 endfacet
 facet normal -3.652416e-13  9.350162e-01 -3.546049e-01
   outer loop
     vertex  6.757000e+02  3.168930e+02 -2.250178e+02
     vertex  6.750000e+02  3.168930e+02 -2.250178e+02
     vertex  6.757000e+02  3.171665e+02 -2.242965e+02
   endloop
 endfacet
 facet normal -3.981700e-13  9.927089e-01 -1.205367e-01
   outer loop
     vertex  6.757000e+02  3.168930e+02 -2.250178e+02
     vertex  6.750000e+02  3.168000e+02 -2.257836e+02
     vertex  6.750000e+02  3.168930e+02 -2.250178e+02
   endloop
 endfacet
 facet normal -3.981700e-13  9.927089e-01 -1.205367e-01
   outer loop
     vertex  6.757000e+02  3.168000e+02 -2.257836e+02
     vertex  6.750000e+02  3.168000e+02 -2.257836e+02
     vertex  6.757000e+02  3.168930e+02 -2.250178e+02
   endloop
 endfacet
 facet normal -4.079581e-13  9.927089e-01  1.205367e-01
   outer loop
     vertex  6.757000e+02  3.168000e+02 -2.257836e+02
     vertex  6.750000e+02  3.168930e+02 -2.265494e+02
     vertex  6.750000e+02  3.168000e+02 -2.257836e+02
   endloop
 endfacet
 facet normal -4.030640e-13  9.927089e-01  1.205367e-01
   outer loop
     vertex  6.757000e+02  3.168930e+02 -2.265494e+02
     vertex  6.750000e+02  3.168930e+02 -2.265494e+02
     vertex  6.757000e+02  3.168000e+02 -2.257836e+02
   endloop
 endfacet
 facet normal -3.796175e-13  9.350162e-01  3.546049e-01
   outer loop
     vertex  6.757000e+02  3.171665e+02 -2.272707e+02
     vertex  6.750000e+02  3.168930e+02 -2.265494e+02
     vertex  6.757000e+02  3.168930e+02 -2.265494e+02
   endloop
 endfacet
 facet normal -4.555673e-13  9.350162e-01  3.546049e-01
   outer loop
     vertex  6.757000e+02  3.171665e+02 -2.272707e+02
     vertex  6.750000e+02  3.171665e+02 -2.272707e+02
     vertex  6.750000e+02  3.168930e+02 -2.265494e+02
   endloop
 endfacet
 facet normal -4.009819e-13  8.229839e-01  5.680647e-01
   outer loop
     vertex  6.757000e+02  3.171665e+02 -2.272707e+02
     vertex  6.750000e+02  3.176048e+02 -2.279056e+02
     vertex  6.750000e+02  3.171665e+02 -2.272707e+02
   endloop
 endfacet
 facet normal -3.341515e-13  8.229839e-01  5.680647e-01
   outer loop
     vertex  6.757000e+02  3.176048e+02 -2.279056e+02
     vertex  6.750000e+02  3.176048e+02 -2.279056e+02
     vertex  6.757000e+02  3.171665e+02 -2.272707e+02
   endloop
 endfacet
 facet normal -2.692440e-13  6.631227e-01  7.485107e-01
   outer loop
     vertex  6.757000e+02  3.176048e+02 -2.279056e+02
     vertex  6.750000e+02  3.181822e+02 -2.284171e+02
     vertex  6.750000e+02  3.176048e+02 -2.279056e+02
   endloop
 endfacet
 facet normal -3.534842e-13  6.631227e-01  7.485107e-01
   outer loop
     vertex  6.757000e+02  3.181822e+02 -2.284171e+02
     vertex  6.750000e+02  3.181822e+02 -2.284171e+02
     vertex  6.757000e+02  3.176048e+02 -2.279056e+02
   endloop
 endfacet
 facet normal -2.623784e-13  4.647232e-01  8.854560e-01
   outer loop
     vertex  6.757000e+02  3.181822e+02 -2.284171e+02
     vertex  6.750000e+02  3.188653e+02 -2.287756e+02
     vertex  6.750000e+02  3.181822e+02 -2.284171e+02
   endloop
 endfacet
 facet normal -2.623784e-13  4.647232e-01  8.854560e-01
   outer loop
     vertex  6.757000e+02  3.188653e+02 -2.287756e+02
     vertex  6.750000e+02  3.188653e+02 -2.287756e+02
     vertex  6.757000e+02  3.181822e+02 -2.284171e+02
   endloop
 endfacet
 facet normal -1.560242e-13  2.393157e-01  9.709418e-01
   outer loop
     vertex  6.757000e+02  3.188653e+02 -2.287756e+02
     vertex  6.750000e+02  3.196143e+02 -2.289602e+02
     vertex  6.750000e+02  3.188653e+02 -2.287756e+02
   endloop
 endfacet
 facet normal -1.166016e-13  2.393157e-01  9.709418e-01
   outer loop
     vertex  6.757000e+02  3.196143e+02 -2.289602e+02
     vertex  6.750000e+02  3.196143e+02 -2.289602e+02
     vertex  6.757000e+02  3.188653e+02 -2.287756e+02
   endloop
 endfacet
 facet normal -1.795082e-26  3.684266e-14  1.000000e+00
   outer loop
     vertex  6.757000e+02  3.196143e+02 -2.289602e+02
     vertex  6.750000e+02  3.203857e+02 -2.289602e+02
     vertex  6.750000e+02  3.196143e+02 -2.289602e+02
   endloop
 endfacet
 facet normal -4.060244e-14 -1.196722e-26  1.000000e+00
   outer loop
     vertex  6.757000e+02  3.203857e+02 -2.289602e+02
     vertex  6.750000e+02  3.203857e+02 -2.289602e+02
     vertex  6.757000e+02  3.196143e+02 -2.289602e+02
   endloop
 endfacet
 facet normal  5.776393e-14 -2.393157e-01  9.709418e-01
   outer loop
     vertex  6.757000e+02  3.211347e+02 -2.287756e+02
     vertex  6.750000e+02  3.203857e+02 -2.289602e+02
     vertex  6.757000e+02  3.203857e+02 -2.289602e+02
   endloop
 endfacet
 facet normal  7.717900e-14 -2.393157e-01  9.709418e-01
   outer loop
     vertex  6.757000e+02  3.211347e+02 -2.287756e+02
     vertex  6.750000e+02  3.211347e+02 -2.287756e+02
     vertex  6.750000e+02  3.203857e+02 -2.289602e+02
   endloop
 endfacet
 facet normal  1.904782e-13 -4.647232e-01  8.854560e-01
   outer loop
     vertex  6.757000e+02  3.218178e+02 -2.284171e+02
     vertex  6.750000e+02  3.211347e+02 -2.287756e+02
     vertex  6.757000e+02  3.211347e+02 -2.287756e+02
   endloop
 endfacet
 facet normal  1.527373e-13 -4.647232e-01  8.854560e-01
   outer loop
     vertex  6.757000e+02  3.218178e+02 -2.284171e+02
     vertex  6.750000e+02  3.218178e+02 -2.284171e+02
     vertex  6.750000e+02  3.211347e+02 -2.287756e+02
   endloop
 endfacet
 facet normal  2.388526e-13 -6.631227e-01  7.485107e-01
   outer loop
     vertex  6.757000e+02  3.218178e+02 -2.284171e+02
     vertex  6.750000e+02  3.223952e+02 -2.279056e+02
     vertex  6.750000e+02  3.218178e+02 -2.284171e+02
   endloop
 endfacet
 facet normal  2.084613e-13 -6.631227e-01  7.485107e-01
   outer loop
     vertex  6.757000e+02  3.223952e+02 -2.279056e+02
     vertex  6.750000e+02  3.223952e+02 -2.279056e+02
     vertex  6.757000e+02  3.218178e+02 -2.284171e+02
   endloop
 endfacet
 facet normal  3.110867e-13 -8.229839e-01  5.680647e-01
   outer loop
     vertex  6.757000e+02  3.228335e+02 -2.272707e+02
     vertex  6.750000e+02  3.228335e+02 -2.272707e+02
     vertex  6.750000e+02  3.223952e+02 -2.279056e+02
   endloop
 endfacet
 facet normal  2.880158e-13 -8.229839e-01  5.680647e-01
   outer loop
     vertex  6.757000e+02  3.228335e+02 -2.272707e+02
     vertex  6.750000e+02  3.223952e+02 -2.279056e+02
     vertex  6.757000e+02  3.223952e+02 -2.279056e+02
   endloop
 endfacet
 facet normal  3.652416e-13 -9.350162e-01  3.546049e-01
   outer loop
     vertex  6.757000e+02  3.231070e+02 -2.265494e+02
     vertex  6.750000e+02  3.231070e+02 -2.265494e+02
     vertex  6.750000e+02  3.228335e+02 -2.272707e+02
   endloop
 endfacet
 facet normal  3.981700e-13 -9.927089e-01  1.205367e-01
   outer loop
     vertex  6.757000e+02  3.231070e+02 -2.265494e+02
     vertex  6.750000e+02  3.232000e+02 -2.257836e+02
     vertex  6.750000e+02  3.231070e+02 -2.265494e+02
   endloop
 endfacet
 facet normal  3.652320e-13 -9.350162e-01  3.546049e-01
   outer loop
     vertex  6.757000e+02  3.231070e+02 -2.265494e+02
     vertex  6.750000e+02  3.228335e+02 -2.272707e+02
     vertex  6.757000e+02  3.228335e+02 -2.272707e+02
   endloop
 endfacet
 facet normal  3.981700e-13 -9.927089e-01  1.205367e-01
   outer loop
     vertex  6.757000e+02  3.232000e+02 -2.257836e+02
     vertex  6.750000e+02  3.232000e+02 -2.257836e+02
     vertex  6.757000e+02  3.231070e+02 -2.265494e+02
   endloop
 endfacet
 facet normal -4.079675e-13  9.927089e-01  1.205367e-01
   outer loop
     vertex  6.757000e+02  3.248547e+02 -2.245870e+02
     vertex  6.757000e+02  3.250000e+02 -2.257836e+02
     vertex  6.750000e+02  3.250000e+02 -2.257836e+02
   endloop
 endfacet
 facet normal -4.079581e-13  9.927089e-01  1.205367e-01
   outer loop
     vertex  6.757000e+02  3.248547e+02 -2.245870e+02
     vertex  6.750000e+02  3.250000e+02 -2.257836e+02
     vertex  6.750000e+02  3.248547e+02 -2.245870e+02
   endloop
 endfacet
 facet normal -3.940373e-13  9.350162e-01  3.546049e-01
   outer loop
     vertex  6.757000e+02  3.244273e+02 -2.234599e+02
     vertex  6.750000e+02  3.248547e+02 -2.245870e+02
     vertex  6.750000e+02  3.244273e+02 -2.234599e+02
   endloop
 endfacet
 facet normal -3.940447e-13  9.350162e-01  3.546049e-01
   outer loop
     vertex  6.757000e+02  3.244273e+02 -2.234599e+02
     vertex  6.757000e+02  3.248547e+02 -2.245870e+02
     vertex  6.750000e+02  3.248547e+02 -2.245870e+02
   endloop
 endfacet
 facet normal -3.572164e-13  8.229839e-01  5.680647e-01
   outer loop
     vertex  6.757000e+02  3.237426e+02 -2.224680e+02
     vertex  6.750000e+02  3.244273e+02 -2.234599e+02
     vertex  6.750000e+02  3.237426e+02 -2.224680e+02
   endloop
 endfacet
 facet normal -3.572058e-13  8.229839e-01  5.680647e-01
   outer loop
     vertex  6.757000e+02  3.237426e+02 -2.224680e+02
     vertex  6.757000e+02  3.244273e+02 -2.234599e+02
     vertex  6.750000e+02  3.244273e+02 -2.234599e+02
   endloop
 endfacet
 facet normal -2.996354e-13  6.631227e-01  7.485107e-01
   outer loop
     vertex  6.757000e+02  3.228403e+02 -2.216686e+02
     vertex  6.750000e+02  3.237426e+02 -2.224680e+02
     vertex  6.750000e+02  3.228403e+02 -2.216686e+02
   endloop
 endfacet
 facet normal -2.996738e-13  6.631227e-01  7.485107e-01
   outer loop
     vertex  6.757000e+02  3.228403e+02 -2.216686e+02
     vertex  6.757000e+02  3.237426e+02 -2.224680e+02
     vertex  6.750000e+02  3.237426e+02 -2.224680e+02
   endloop
 endfacet
 facet normal -2.246406e-13  4.647232e-01  8.854560e-01
   outer loop
     vertex  6.757000e+02  3.217730e+02 -2.211085e+02
     vertex  6.750000e+02  3.228403e+02 -2.216686e+02
     vertex  6.750000e+02  3.217730e+02 -2.211085e+02
   endloop
 endfacet
 facet normal -2.246432e-13  4.647232e-01  8.854560e-01
   outer loop
     vertex  6.757000e+02  3.217730e+02 -2.211085e+02
     vertex  6.757000e+02  3.228403e+02 -2.216686e+02
     vertex  6.750000e+02  3.228403e+02 -2.216686e+02
   endloop
 endfacet
 facet normal -1.365906e-13  2.393157e-01  9.709418e-01
   outer loop
     vertex  6.757000e+02  3.206027e+02 -2.208200e+02
     vertex  6.750000e+02  3.217730e+02 -2.211085e+02
     vertex  6.750000e+02  3.206027e+02 -2.208200e+02
   endloop
 endfacet
 facet normal -1.365681e-13  2.393157e-01  9.709418e-01
   outer loop
     vertex  6.757000e+02  3.206027e+02 -2.208200e+02
     vertex  6.757000e+02  3.217730e+02 -2.211085e+02
     vertex  6.750000e+02  3.217730e+02 -2.211085e+02
   endloop
 endfacet
 facet normal -4.060244e-14 -1.531804e-26  1.000000e+00
   outer loop
     vertex  6.757000e+02  3.193973e+02 -2.208200e+02
     vertex  6.750000e+02  3.206027e+02 -2.208200e+02
     vertex  6.750000e+02  3.193973e+02 -2.208200e+02
   endloop
 endfacet
 facet normal -4.060244e-14 -1.531804e-26  1.000000e+00
   outer loop
     vertex  6.757000e+02  3.193973e+02 -2.208200e+02
     vertex  6.757000e+02  3.206027e+02 -2.208200e+02
     vertex  6.750000e+02  3.206027e+02 -2.208200e+02
   endloop
 endfacet
 facet normal  5.774540e-14 -2.393157e-01  9.709418e-01
   outer loop
     vertex  6.757000e+02  3.182270e+02 -2.211085e+02
     vertex  6.750000e+02  3.193973e+02 -2.208200e+02
     vertex  6.750000e+02  3.182270e+02 -2.211085e+02
   endloop
 endfacet
 facet normal  5.777743e-14 -2.393157e-01  9.709418e-01
   outer loop
     vertex  6.757000e+02  3.182270e+02 -2.211085e+02
     vertex  6.757000e+02  3.193973e+02 -2.208200e+02
     vertex  6.750000e+02  3.193973e+02 -2.208200e+02
   endloop
 endfacet
 facet normal  1.527373e-13 -4.647232e-01  8.854560e-01
   outer loop
     vertex  6.757000e+02  3.171597e+02 -2.216686e+02
     vertex  6.750000e+02  3.182270e+02 -2.211085e+02
     vertex  6.750000e+02  3.171597e+02 -2.216686e+02
   endloop
 endfacet
 facet normal  1.527097e-13 -4.647232e-01  8.854560e-01
   outer loop
     vertex  6.757000e+02  3.171597e+02 -2.216686e+02
     vertex  6.757000e+02  3.182270e+02 -2.211085e+02
     vertex  6.750000e+02  3.182270e+02 -2.211085e+02
   endloop
 endfacet
 facet normal  3.110867e-13 -8.229839e-01  5.680647e-01
   outer loop
     vertex  6.757000e+02  3.162574e+02 -2.224680e+02
     vertex  6.750000e+02  3.162574e+02 -2.224680e+02
     vertex  6.750000e+02  3.155727e+02 -2.234599e+02
   endloop
 endfacet
 facet normal  2.388526e-13 -6.631227e-01  7.485107e-01
   outer loop
     vertex  6.757000e+02  3.162574e+02 -2.224680e+02
     vertex  6.750000e+02  3.171597e+02 -2.216686e+02
     vertex  6.750000e+02  3.162574e+02 -2.224680e+02
   endloop
 endfacet
 facet normal  2.388872e-13 -6.631227e-01  7.485107e-01
   outer loop
     vertex  6.757000e+02  3.162574e+02 -2.224680e+02
     vertex  6.757000e+02  3.171597e+02 -2.216686e+02
     vertex  6.750000e+02  3.171597e+02 -2.216686e+02
   endloop
 endfacet
 facet normal  3.652416e-13 -9.350162e-01  3.546049e-01
   outer loop
     vertex  6.757000e+02  3.155727e+02 -2.234599e+02
     vertex  6.750000e+02  3.155727e+02 -2.234599e+02
     vertex  6.750000e+02  3.151453e+02 -2.245870e+02
   endloop
 endfacet
 facet normal  3.110867e-13 -8.229839e-01  5.680647e-01
   outer loop
     vertex  6.757000e+02  3.155727e+02 -2.234599e+02
     vertex  6.757000e+02  3.162574e+02 -2.224680e+02
     vertex  6.750000e+02  3.155727e+02 -2.234599e+02
   endloop
 endfacet
 facet normal  3.652416e-13 -9.350162e-01  3.546049e-01
   outer loop
     vertex  6.757000e+02  3.151453e+02 -2.245870e+02
     vertex  6.757000e+02  3.155727e+02 -2.234599e+02
     vertex  6.750000e+02  3.151453e+02 -2.245870e+02
   endloop
 endfacet
 facet normal  3.981854e-13 -9.927089e-01  1.205367e-01
   outer loop
     vertex  6.757000e+02  3.150000e+02 -2.257836e+02
     vertex  6.757000e+02  3.151453e+02 -2.245870e+02
     vertex  6.750000e+02  3.151453e+02 -2.245870e+02
   endloop
 endfacet
 facet normal  3.981700e-13 -9.927089e-01  1.205367e-01
   outer loop
     vertex  6.757000e+02  3.150000e+02 -2.257836e+02
     vertex  6.750000e+02  3.151453e+02 -2.245870e+02
     vertex  6.750000e+02  3.150000e+02 -2.257836e+02
   endloop
 endfacet
 facet normal  4.079513e-13 -9.927089e-01 -1.205367e-01
   outer loop
     vertex  6.757000e+02  3.151453e+02 -2.269801e+02
     vertex  6.757000e+02  3.150000e+02 -2.257836e+02
     vertex  6.750000e+02  3.150000e+02 -2.257836e+02
   endloop
 endfacet
 facet normal  4.079581e-13 -9.927089e-01 -1.205367e-01
   outer loop
     vertex  6.757000e+02  3.151453e+02 -2.269801e+02
     vertex  6.750000e+02  3.150000e+02 -2.257836e+02
     vertex  6.750000e+02  3.151453e+02 -2.269801e+02
   endloop
 endfacet
 facet normal  3.940388e-13 -9.350162e-01 -3.546049e-01
   outer loop
     vertex  6.757000e+02  3.155727e+02 -2.281072e+02
     vertex  6.757000e+02  3.151453e+02 -2.269801e+02
     vertex  6.750000e+02  3.151453e+02 -2.269801e+02
   endloop
 endfacet
 facet normal  3.940373e-13 -9.350162e-01 -3.546049e-01
   outer loop
     vertex  6.757000e+02  3.155727e+02 -2.281072e+02
     vertex  6.750000e+02  3.151453e+02 -2.269801e+02
     vertex  6.750000e+02  3.155727e+02 -2.281072e+02
   endloop
 endfacet
 facet normal  3.572615e-13 -8.229839e-01 -5.680647e-01
   outer loop
     vertex  6.757000e+02  3.162574e+02 -2.290992e+02
     vertex  6.757000e+02  3.155727e+02 -2.281072e+02
     vertex  6.750000e+02  3.155727e+02 -2.281072e+02
   endloop
 endfacet
 facet normal  3.572164e-13 -8.229839e-01 -5.680647e-01
   outer loop
     vertex  6.757000e+02  3.162574e+02 -2.290992e+02
     vertex  6.750000e+02  3.155727e+02 -2.281072e+02
     vertex  6.750000e+02  3.162574e+02 -2.290992e+02
   endloop
 endfacet
 facet normal  2.996697e-13 -6.631227e-01 -7.485107e-01
   outer loop
     vertex  6.757000e+02  3.171597e+02 -2.298985e+02
     vertex  6.757000e+02  3.162574e+02 -2.290992e+02
     vertex  6.750000e+02  3.162574e+02 -2.290992e+02
   endloop
 endfacet
 facet normal  2.996354e-13 -6.631227e-01 -7.485107e-01
   outer loop
     vertex  6.757000e+02  3.171597e+02 -2.298985e+02
     vertex  6.750000e+02  3.162574e+02 -2.290992e+02
     vertex  6.750000e+02  3.171597e+02 -2.298985e+02
   endloop
 endfacet
 facet normal  2.246343e-13 -4.647232e-01 -8.854560e-01
   outer loop
     vertex  6.757000e+02  3.182270e+02 -2.304586e+02
     vertex  6.757000e+02  3.171597e+02 -2.298985e+02
     vertex  6.750000e+02  3.171597e+02 -2.298985e+02
   endloop
 endfacet
 facet normal  2.246406e-13 -4.647232e-01 -8.854560e-01
   outer loop
     vertex  6.757000e+02  3.182270e+02 -2.304586e+02
     vertex  6.750000e+02  3.171597e+02 -2.298985e+02
     vertex  6.750000e+02  3.182270e+02 -2.304586e+02
   endloop
 endfacet
 facet normal  1.365906e-13 -2.393157e-01 -9.709418e-01
   outer loop
     vertex  6.757000e+02  3.193973e+02 -2.307471e+02
     vertex  6.750000e+02  3.182270e+02 -2.304586e+02
     vertex  6.750000e+02  3.193973e+02 -2.307471e+02
   endloop
 endfacet
 facet normal  1.366221e-13 -2.393157e-01 -9.709418e-01
   outer loop
     vertex  6.757000e+02  3.193973e+02 -2.307471e+02
     vertex  6.757000e+02  3.182270e+02 -2.304586e+02
     vertex  6.750000e+02  3.182270e+02 -2.304586e+02
   endloop
 endfacet
 facet normal  4.060244e-14  1.531804e-26 -1.000000e+00
   outer loop
     vertex  6.757000e+02  3.206027e+02 -2.307471e+02
     vertex  6.757000e+02  3.193973e+02 -2.307471e+02
     vertex  6.750000e+02  3.193973e+02 -2.307471e+02
   endloop
 endfacet
 facet normal  4.060244e-14  1.531804e-26 -1.000000e+00
   outer loop
     vertex  6.757000e+02  3.206027e+02 -2.307471e+02
     vertex  6.750000e+02  3.193973e+02 -2.307471e+02
     vertex  6.750000e+02  3.206027e+02 -2.307471e+02
   endloop
 endfacet
 facet normal -5.774540e-14  2.393157e-01 -9.709418e-01
   outer loop
     vertex  6.757000e+02  3.217730e+02 -2.304586e+02
     vertex  6.750000e+02  3.206027e+02 -2.307471e+02
     vertex  6.750000e+02  3.217730e+02 -2.304586e+02
   endloop
 endfacet
 facet normal -5.772239e-14  2.393157e-01 -9.709418e-01
   outer loop
     vertex  6.757000e+02  3.217730e+02 -2.304586e+02
     vertex  6.757000e+02  3.206027e+02 -2.307471e+02
     vertex  6.750000e+02  3.206027e+02 -2.307471e+02
   endloop
 endfacet
 facet normal -1.527610e-13  4.647232e-01 -8.854560e-01
   outer loop
     vertex  6.757000e+02  3.228403e+02 -2.298985e+02
     vertex  6.757000e+02  3.217730e+02 -2.304586e+02
     vertex  6.750000e+02  3.217730e+02 -2.304586e+02
   endloop
 endfacet
 facet normal -1.527373e-13  4.647232e-01 -8.854560e-01
   outer loop
     vertex  6.757000e+02  3.228403e+02 -2.298985e+02
     vertex  6.750000e+02  3.217730e+02 -2.304586e+02
     vertex  6.750000e+02  3.228403e+02 -2.298985e+02
   endloop
 endfacet
 facet normal -2.692440e-13  6.631227e-01 -7.485107e-01
   outer loop
     vertex  6.757000e+02  3.237426e+02 -2.290992e+02
     vertex  6.750000e+02  3.228403e+02 -2.298985e+02
     vertex  6.750000e+02  3.237426e+02 -2.290992e+02
   endloop
 endfacet
 facet normal -2.388870e-13  6.631227e-01 -7.485107e-01
   outer loop
     vertex  6.757000e+02  3.237426e+02 -2.290992e+02
     vertex  6.757000e+02  3.228403e+02 -2.298985e+02
     vertex  6.750000e+02  3.228403e+02 -2.298985e+02
   endloop
 endfacet
 facet normal -3.110867e-13  8.229839e-01 -5.680647e-01
   outer loop
     vertex  6.757000e+02  3.244273e+02 -2.281072e+02
     vertex  6.750000e+02  3.237426e+02 -2.290992e+02
     vertex  6.750000e+02  3.244273e+02 -2.281072e+02
   endloop
 endfacet
 facet normal -3.341585e-13  8.229839e-01 -5.680647e-01
   outer loop
     vertex  6.757000e+02  3.244273e+02 -2.281072e+02
     vertex  6.757000e+02  3.237426e+02 -2.290992e+02
     vertex  6.750000e+02  3.237426e+02 -2.290992e+02
   endloop
 endfacet
 facet normal -3.981700e-13  9.927089e-01 -1.205367e-01
   outer loop
     vertex  6.757000e+02  3.248547e+02 -2.269801e+02
     vertex  6.750000e+02  3.248547e+02 -2.269801e+02
     vertex  6.750000e+02  3.250000e+02 -2.257836e+02
   endloop
 endfacet
 facet normal -3.652416e-13  9.350162e-01 -3.546049e-01
   outer loop
     vertex  6.757000e+02  3.248547e+02 -2.269801e+02
     vertex  6.750000e+02  3.244273e+02 -2.281072e+02
     vertex  6.750000e+02  3.248547e+02 -2.269801e+02
   endloop
 endfacet
 facet normal -3.652374e-13  9.350162e-01 -3.546049e-01
   outer loop
     vertex  6.757000e+02  3.248547e+02 -2.269801e+02
     vertex  6.757000e+02  3.244273e+02 -2.281072e+02
     vertex  6.750000e+02  3.244273e+02 -2.281072e+02
   endloop
 endfacet
 facet normal -3.981700e-13  9.927089e-01 -1.205367e-01
   outer loop
     vertex  6.757000e+02  3.250000e+02 -2.257836e+02
     vertex  6.757000e+02  3.248547e+02 -2.269801e+02
     vertex  6.750000e+02  3.250000e+02 -2.257836e+02
   endloop
 endfacet
 facet normal  1.000000e+00  3.999598e-13  2.476550e-14
   outer loop
     vertex  6.757000e+02  3.176048e+02 -2.279056e+02
     vertex  6.757000e+02  3.162574e+02 -2.290992e+02
     vertex  6.757000e+02  3.171597e+02 -2.298985e+02
   endloop
 endfacet
 facet normal  1.000000e+00  3.232765e-13  7.091345e-15
   outer loop
     vertex  6.757000e+02  3.181822e+02 -2.284171e+02
     vertex  6.757000e+02  3.171597e+02 -2.298985e+02
     vertex  6.757000e+02  3.182270e+02 -2.304586e+02
   endloop
 endfacet
 facet normal  1.000000e+00  2.487445e-13  5.853710e-14
   outer loop
     vertex  6.757000e+02  3.181822e+02 -2.284171e+02
     vertex  6.757000e+02  3.176048e+02 -2.279056e+02
     vertex  6.757000e+02  3.171597e+02 -2.298985e+02
   endloop
 endfacet
 facet normal  1.000000e+00  3.501111e-13  1.245634e-14
   outer loop
     vertex  6.757000e+02  3.171665e+02 -2.272707e+02
     vertex  6.757000e+02  3.155727e+02 -2.281072e+02
     vertex  6.757000e+02  3.162574e+02 -2.290992e+02
   endloop
 endfacet
 facet normal  1.000000e+00  4.586896e-13 -4.152679e-14
   outer loop
     vertex  6.757000e+02  3.171665e+02 -2.272707e+02
     vertex  6.757000e+02  3.162574e+02 -2.290992e+02
     vertex  6.757000e+02  3.176048e+02 -2.279056e+02
   endloop
 endfacet
 facet normal  1.000000e+00  5.051196e-13  1.108023e-14
   outer loop
     vertex  6.757000e+02  3.188653e+02 -2.287756e+02
     vertex  6.757000e+02  3.181822e+02 -2.284171e+02
     vertex  6.757000e+02  3.182270e+02 -2.304586e+02
   endloop
 endfacet
 facet normal  1.000000e+00  4.391587e-13  6.567865e-14
   outer loop
     vertex  6.757000e+02  3.168930e+02 -2.265494e+02
     vertex  6.757000e+02  3.151453e+02 -2.269801e+02
     vertex  6.757000e+02  3.155727e+02 -2.281072e+02
   endloop
 endfacet
 facet normal  1.000000e+00  2.284542e-13  2.442542e-13
   outer loop
     vertex  6.757000e+02  3.168930e+02 -2.265494e+02
     vertex  6.757000e+02  3.155727e+02 -2.281072e+02
     vertex  6.757000e+02  3.171665e+02 -2.272707e+02
   endloop
 endfacet
 facet normal  1.000000e+00  3.924949e-13  1.596573e-14
   outer loop
     vertex  6.757000e+02  3.196143e+02 -2.289602e+02
     vertex  6.757000e+02  3.182270e+02 -2.304586e+02
     vertex  6.757000e+02  3.193973e+02 -2.307471e+02
   endloop
 endfacet
 facet normal  1.000000e+00  3.232901e-13  8.003905e-14
   outer loop
     vertex  6.757000e+02  3.196143e+02 -2.289602e+02
     vertex  6.757000e+02  3.188653e+02 -2.287756e+02
     vertex  6.757000e+02  3.182270e+02 -2.304586e+02
   endloop
 endfacet
 facet normal  1.000000e+00  3.789561e-13  1.410235e-13
   outer loop
     vertex  6.757000e+02  3.168000e+02 -2.257836e+02
     vertex  6.757000e+02  3.150000e+02 -2.257836e+02
     vertex  6.757000e+02  3.151453e+02 -2.269801e+02
   endloop
 endfacet
 facet normal  1.000000e+00  4.421155e-13  5.368254e-14
   outer loop
     vertex  6.757000e+02  3.168000e+02 -2.257836e+02
     vertex  6.757000e+02  3.151453e+02 -2.269801e+02
     vertex  6.757000e+02  3.168930e+02 -2.265494e+02
   endloop
 endfacet
 facet normal  1.000000e+00  3.772689e-13 -1.781451e-14
   outer loop
     vertex  6.757000e+02  3.203857e+02 -2.289602e+02
     vertex  6.757000e+02  3.193973e+02 -2.307471e+02
     vertex  6.757000e+02  3.206027e+02 -2.307471e+02
   endloop
 endfacet
 facet normal  1.000000e+00  2.947413e-13  2.783517e-14
   outer loop
     vertex  6.757000e+02  3.203857e+02 -2.289602e+02
     vertex  6.757000e+02  3.196143e+02 -2.289602e+02
     vertex  6.757000e+02  3.193973e+02 -2.307471e+02
   endloop
 endfacet
 facet normal  1.000000e+00  3.385341e-13  5.390446e-14
   outer loop
     vertex  6.757000e+02  3.168930e+02 -2.250178e+02
     vertex  6.757000e+02  3.151453e+02 -2.245870e+02
     vertex  6.757000e+02  3.150000e+02 -2.257836e+02
   endloop
 endfacet
 facet normal  1.000000e+00  3.789561e-13 -4.601360e-14
   outer loop
     vertex  6.757000e+02  3.168930e+02 -2.250178e+02
     vertex  6.757000e+02  3.150000e+02 -2.257836e+02
     vertex  6.757000e+02  3.168000e+02 -2.257836e+02
   endloop
 endfacet
 facet normal  1.000000e+00  3.857954e-13  1.121503e-14
   outer loop
     vertex  6.757000e+02  3.211347e+02 -2.287756e+02
     vertex  6.757000e+02  3.206027e+02 -2.307471e+02
     vertex  6.757000e+02  3.217730e+02 -2.304586e+02
   endloop
 endfacet
 facet normal  1.000000e+00  4.573380e-13 -8.092355e-15
   outer loop
     vertex  6.757000e+02  3.211347e+02 -2.287756e+02
     vertex  6.757000e+02  3.203857e+02 -2.289602e+02
     vertex  6.757000e+02  3.206027e+02 -2.307471e+02
   endloop
 endfacet
 facet normal  1.000000e+00  3.415971e-13 -2.867843e-14
   outer loop
     vertex  6.757000e+02  3.171665e+02 -2.242965e+02
     vertex  6.757000e+02  3.155727e+02 -2.234599e+02
     vertex  6.757000e+02  3.151453e+02 -2.245870e+02
   endloop
 endfacet
 facet normal  1.000000e+00  3.329709e-13  3.133370e-14
   outer loop
     vertex  6.757000e+02  3.171665e+02 -2.242965e+02
     vertex  6.757000e+02  3.151453e+02 -2.245870e+02
     vertex  6.757000e+02  3.168930e+02 -2.250178e+02
   endloop
 endfacet
 facet normal  1.000000e+00  3.232765e-13 -7.091345e-15
   outer loop
     vertex  6.757000e+02  3.218178e+02 -2.284171e+02
     vertex  6.757000e+02  3.217730e+02 -2.304586e+02
     vertex  6.757000e+02  3.228403e+02 -2.298985e+02
   endloop
 endfacet
 facet normal  1.000000e+00  3.367464e-13 -7.386818e-15
   outer loop
     vertex  6.757000e+02  3.218178e+02 -2.284171e+02
     vertex  6.757000e+02  3.211347e+02 -2.287756e+02
     vertex  6.757000e+02  3.217730e+02 -2.304586e+02
   endloop
 endfacet
 facet normal  1.000000e+00  3.984533e-13  6.877941e-14
   outer loop
     vertex  6.757000e+02  3.176048e+02 -2.236616e+02
     vertex  6.757000e+02  3.162574e+02 -2.224680e+02
     vertex  6.757000e+02  3.155727e+02 -2.234599e+02
   endloop
 endfacet
 facet normal  1.000000e+00  3.997836e-13  8.218667e-14
   outer loop
     vertex  6.757000e+02  3.176048e+02 -2.236616e+02
     vertex  6.757000e+02  3.155727e+02 -2.234599e+02
     vertex  6.757000e+02  3.171665e+02 -2.242965e+02
   endloop
 endfacet
 facet normal  1.000000e+00  3.709189e-13  2.579384e-14
   outer loop
     vertex  6.757000e+02  3.223952e+02 -2.279056e+02
     vertex  6.757000e+02  3.218178e+02 -2.284171e+02
     vertex  6.757000e+02  3.228403e+02 -2.298985e+02
   endloop
 endfacet
 facet normal  1.000000e+00  3.577698e-13  2.285718e-14
   outer loop
     vertex  6.757000e+02  3.237426e+02 -2.290992e+02
     vertex  6.757000e+02  3.223952e+02 -2.279056e+02
     vertex  6.757000e+02  3.228403e+02 -2.298985e+02
   endloop
 endfacet
 facet normal  1.000000e+00  3.656452e-13  3.174667e-14
   outer loop
     vertex  6.757000e+02  3.181822e+02 -2.231500e+02
     vertex  6.757000e+02  3.162574e+02 -2.224680e+02
     vertex  6.757000e+02  3.176048e+02 -2.236616e+02
   endloop
 endfacet
 facet normal  1.000000e+00  3.611450e-13  1.904736e-14
   outer loop
     vertex  6.757000e+02  3.171597e+02 -2.216686e+02
     vertex  6.757000e+02  3.162574e+02 -2.224680e+02
     vertex  6.757000e+02  3.181822e+02 -2.231500e+02
   endloop
 endfacet
 facet normal  1.000000e+00  4.063287e-13  7.766891e-14
   outer loop
     vertex  6.757000e+02  3.228335e+02 -2.272707e+02
     vertex  6.757000e+02  3.223952e+02 -2.279056e+02
     vertex  6.757000e+02  3.237426e+02 -2.290992e+02
   endloop
 endfacet
 facet normal  1.000000e+00  3.942645e-13  7.167078e-14
   outer loop
     vertex  6.757000e+02  3.244273e+02 -2.281072e+02
     vertex  6.757000e+02  3.228335e+02 -2.272707e+02
     vertex  6.757000e+02  3.237426e+02 -2.290992e+02
   endloop
 endfacet
 facet normal  1.000000e+00  3.232765e-13 -7.091345e-15
   outer loop
     vertex  6.757000e+02  3.182270e+02 -2.211085e+02
     vertex  6.757000e+02  3.171597e+02 -2.216686e+02
     vertex  6.757000e+02  3.181822e+02 -2.231500e+02
   endloop
 endfacet
 facet normal  1.000000e+00  3.367464e-13 -7.386818e-15
   outer loop
     vertex  6.757000e+02  3.182270e+02 -2.211085e+02
     vertex  6.757000e+02  3.181822e+02 -2.231500e+02
     vertex  6.757000e+02  3.188653e+02 -2.227915e+02
   endloop
 endfacet
 facet normal  1.000000e+00  4.468701e-13  3.437759e-14
   outer loop
     vertex  6.757000e+02  3.182270e+02 -2.211085e+02
     vertex  6.757000e+02  3.188653e+02 -2.227915e+02
     vertex  6.757000e+02  3.196143e+02 -2.226069e+02
   endloop
 endfacet
 facet normal  1.000000e+00  3.415971e-13 -2.867843e-14
   outer loop
     vertex  6.757000e+02  3.248547e+02 -2.269801e+02
     vertex  6.757000e+02  3.228335e+02 -2.272707e+02
     vertex  6.757000e+02  3.244273e+02 -2.281072e+02
   endloop
 endfacet
 facet normal  1.000000e+00  3.090093e-13  1.980341e-13
   outer loop
     vertex  6.757000e+02  3.248547e+02 -2.269801e+02
     vertex  6.757000e+02  3.231070e+02 -2.265494e+02
     vertex  6.757000e+02  3.228335e+02 -2.272707e+02
   endloop
 endfacet
 facet normal  1.000000e+00  3.924949e-13 -1.596573e-14
   outer loop
     vertex  6.757000e+02  3.193973e+02 -2.208200e+02
     vertex  6.757000e+02  3.182270e+02 -2.211085e+02
     vertex  6.757000e+02  3.196143e+02 -2.226069e+02
   endloop
 endfacet
 facet normal  1.000000e+00  2.947413e-13 -2.783517e-14
   outer loop
     vertex  6.757000e+02  3.193973e+02 -2.208200e+02
     vertex  6.757000e+02  3.196143e+02 -2.226069e+02
     vertex  6.757000e+02  3.203857e+02 -2.226069e+02
   endloop
 endfacet
 facet normal  1.000000e+00  3.789561e-13 -4.601360e-14
   outer loop
     vertex  6.757000e+02  3.250000e+02 -2.257836e+02
     vertex  6.757000e+02  3.232000e+02 -2.257836e+02
     vertex  6.757000e+02  3.231070e+02 -2.265494e+02
   endloop
 endfacet
 facet normal  1.000000e+00  2.981122e-13  1.538225e-13
   outer loop
     vertex  6.757000e+02  3.250000e+02 -2.257836e+02
     vertex  6.757000e+02  3.231070e+02 -2.265494e+02
     vertex  6.757000e+02  3.248547e+02 -2.269801e+02
   endloop
 endfacet
 facet normal  1.000000e+00  3.772689e-13  1.781451e-14
   outer loop
     vertex  6.757000e+02  3.206027e+02 -2.208200e+02
     vertex  6.757000e+02  3.193973e+02 -2.208200e+02
     vertex  6.757000e+02  3.203857e+02 -2.226069e+02
   endloop
 endfacet
 facet normal  1.000000e+00  3.789561e-13  4.601360e-14
   outer loop
     vertex  6.757000e+02  3.248547e+02 -2.245870e+02
     vertex  6.757000e+02  3.232000e+02 -2.257836e+02
     vertex  6.757000e+02  3.250000e+02 -2.257836e+02
   endloop
 endfacet
 facet normal  1.000000e+00  3.789561e-13  4.601360e-14
   outer loop
     vertex  6.757000e+02  3.248547e+02 -2.245870e+02
     vertex  6.757000e+02  3.231070e+02 -2.250178e+02
     vertex  6.757000e+02  3.232000e+02 -2.257836e+02
   endloop
 endfacet
 facet normal  1.000000e+00  3.924949e-13  1.596573e-14
   outer loop
     vertex  6.757000e+02  3.217730e+02 -2.211085e+02
     vertex  6.757000e+02  3.206027e+02 -2.208200e+02
     vertex  6.757000e+02  3.203857e+02 -2.226069e+02
   endloop
 endfacet
 facet normal  1.000000e+00  3.232901e-13  8.003905e-14
   outer loop
     vertex  6.757000e+02  3.217730e+02 -2.211085e+02
     vertex  6.757000e+02  3.203857e+02 -2.226069e+02
     vertex  6.757000e+02  3.211347e+02 -2.227915e+02
   endloop
 endfacet
 facet normal  1.000000e+00  2.974438e-13  1.128056e-13
   outer loop
     vertex  6.757000e+02  3.244273e+02 -2.234599e+02
     vertex  6.757000e+02  3.228335e+02 -2.242965e+02
     vertex  6.757000e+02  3.231070e+02 -2.250178e+02
   endloop
 endfacet
 facet normal  1.000000e+00  3.796699e-13  4.311754e-14
   outer loop
     vertex  6.757000e+02  3.244273e+02 -2.234599e+02
     vertex  6.757000e+02  3.231070e+02 -2.250178e+02
     vertex  6.757000e+02  3.248547e+02 -2.245870e+02
   endloop
 endfacet
 facet normal  1.000000e+00  3.552091e-13  6.793377e-14
   outer loop
     vertex  6.757000e+02  3.228403e+02 -2.216686e+02
     vertex  6.757000e+02  3.217730e+02 -2.211085e+02
     vertex  6.757000e+02  3.211347e+02 -2.227915e+02
   endloop
 endfacet
 facet normal  1.000000e+00  4.552249e-13 -8.398607e-14
   outer loop
     vertex  6.757000e+02  3.228403e+02 -2.216686e+02
     vertex  6.757000e+02  3.211347e+02 -2.227915e+02
     vertex  6.757000e+02  3.218178e+02 -2.231500e+02
   endloop
 endfacet
 facet normal  1.000000e+00  3.093926e-13  1.269947e-13
   outer loop
     vertex  6.757000e+02  3.237426e+02 -2.224680e+02
     vertex  6.757000e+02  3.218178e+02 -2.231500e+02
     vertex  6.757000e+02  3.223952e+02 -2.236616e+02
   endloop
 endfacet
 facet normal  1.000000e+00  4.586896e-13 -4.152679e-14
   outer loop
     vertex  6.757000e+02  3.237426e+02 -2.224680e+02
     vertex  6.757000e+02  3.223952e+02 -2.236616e+02
     vertex  6.757000e+02  3.228335e+02 -2.242965e+02
   endloop
 endfacet
 facet normal  1.000000e+00  3.611450e-13 -1.904736e-14
   outer loop
     vertex  6.757000e+02  3.237426e+02 -2.224680e+02
     vertex  6.757000e+02  3.228403e+02 -2.216686e+02
     vertex  6.757000e+02  3.218178e+02 -2.231500e+02
   endloop
 endfacet
 facet normal  1.000000e+00  3.501111e-13  1.245634e-14
   outer loop
     vertex  6.757000e+02  3.237426e+02 -2.224680e+02
     vertex  6.757000e+02  3.228335e+02 -2.242965e+02
     vertex  6.757000e+02  3.244273e+02 -2.234599e+02
   endloop
 endfacet
 facet normal -1.000000e+00 -3.878110e-13 -3.847867e-14
   outer loop
     vertex  6.750000e+02  3.176048e+02 -2.279056e+02
     vertex  6.750000e+02  3.162574e+02 -2.290992e+02
     vertex  6.750000e+02  3.155727e+02 -2.281072e+02
   endloop
 endfacet
 facet normal -1.000000e+00 -3.611450e-13  1.904736e-14
   outer loop
     vertex  6.750000e+02  3.181822e+02 -2.284171e+02
     vertex  6.750000e+02  3.171597e+02 -2.298985e+02
     vertex  6.750000e+02  3.162574e+02 -2.290992e+02
   endloop
 endfacet
 facet normal -1.000000e+00 -3.093926e-13 -1.269947e-13
   outer loop
     vertex  6.750000e+02  3.181822e+02 -2.284171e+02
     vertex  6.750000e+02  3.162574e+02 -2.290992e+02
     vertex  6.750000e+02  3.176048e+02 -2.279056e+02
   endloop
 endfacet
 facet normal -1.000000e+00 -3.415971e-13 -2.867843e-14
   outer loop
     vertex  6.750000e+02  3.171665e+02 -2.272707e+02
     vertex  6.750000e+02  3.155727e+02 -2.281072e+02
     vertex  6.750000e+02  3.151453e+02 -2.269801e+02
   endloop
 endfacet
 facet normal -1.000000e+00 -3.997836e-13  8.218667e-14
   outer loop
     vertex  6.750000e+02  3.171665e+02 -2.272707e+02
     vertex  6.750000e+02  3.176048e+02 -2.279056e+02
     vertex  6.750000e+02  3.155727e+02 -2.281072e+02
   endloop
 endfacet
 facet normal -1.000000e+00 -3.552091e-13 -6.793377e-14
   outer loop
     vertex  6.750000e+02  3.188653e+02 -2.287756e+02
     vertex  6.750000e+02  3.182270e+02 -2.304586e+02
     vertex  6.750000e+02  3.171597e+02 -2.298985e+02
   endloop
 endfacet
 facet normal -1.000000e+00 -4.552249e-13  8.398607e-14
   outer loop
     vertex  6.750000e+02  3.188653e+02 -2.287756e+02
     vertex  6.750000e+02  3.171597e+02 -2.298985e+02
     vertex  6.750000e+02  3.181822e+02 -2.284171e+02
   endloop
 endfacet
 facet normal -1.000000e+00 -4.193781e-13 -1.459317e-13
   outer loop
     vertex  6.750000e+02  3.168930e+02 -2.265494e+02
     vertex  6.750000e+02  3.151453e+02 -2.269801e+02
     vertex  6.750000e+02  3.150000e+02 -2.257836e+02
   endloop
 endfacet
 facet normal -1.000000e+00 -3.808942e-13 -3.020670e-13
   outer loop
     vertex  6.750000e+02  3.168930e+02 -2.265494e+02
     vertex  6.750000e+02  3.171665e+02 -2.272707e+02
     vertex  6.750000e+02  3.151453e+02 -2.269801e+02
   endloop
 endfacet
 facet normal -1.000000e+00 -3.924949e-13 -1.596573e-14
   outer loop
     vertex  6.750000e+02  3.196143e+02 -2.289602e+02
     vertex  6.750000e+02  3.193973e+02 -2.307471e+02
     vertex  6.750000e+02  3.182270e+02 -2.304586e+02
   endloop
 endfacet
 facet normal -1.000000e+00 -3.232901e-13 -8.003905e-14
   outer loop
     vertex  6.750000e+02  3.196143e+02 -2.289602e+02
     vertex  6.750000e+02  3.182270e+02 -2.304586e+02
     vertex  6.750000e+02  3.188653e+02 -2.287756e+02
   endloop
 endfacet
 facet normal -1.000000e+00 -3.789561e-13 -4.899634e-14
   outer loop
     vertex  6.750000e+02  3.168000e+02 -2.257836e+02
     vertex  6.750000e+02  3.150000e+02 -2.257836e+02
     vertex  6.750000e+02  3.151453e+02 -2.245870e+02
   endloop
 endfacet
 facet normal -1.000000e+00 -3.789561e-13 -4.601360e-14
   outer loop
     vertex  6.750000e+02  3.168000e+02 -2.257836e+02
     vertex  6.750000e+02  3.168930e+02 -2.265494e+02
     vertex  6.750000e+02  3.150000e+02 -2.257836e+02
   endloop
 endfacet
 facet normal -1.000000e+00 -3.772689e-13  1.781451e-14
   outer loop
     vertex  6.750000e+02  3.203857e+02 -2.289602e+02
     vertex  6.750000e+02  3.206027e+02 -2.307471e+02
     vertex  6.750000e+02  3.193973e+02 -2.307471e+02
   endloop
 endfacet
 facet normal -1.000000e+00 -2.947413e-13 -2.783517e-14
   outer loop
     vertex  6.750000e+02  3.203857e+02 -2.289602e+02
     vertex  6.750000e+02  3.193973e+02 -2.307471e+02
     vertex  6.750000e+02  3.196143e+02 -2.289602e+02
   endloop
 endfacet
 facet normal -1.000000e+00 -3.157968e-13  3.834467e-14
   outer loop
     vertex  6.750000e+02  3.168930e+02 -2.250178e+02
     vertex  6.750000e+02  3.168000e+02 -2.257836e+02
     vertex  6.750000e+02  3.151453e+02 -2.245870e+02
   endloop
 endfacet
 facet normal -1.000000e+00 -3.201812e-13  2.055643e-14
   outer loop
     vertex  6.750000e+02  3.155727e+02 -2.234599e+02
     vertex  6.750000e+02  3.168930e+02 -2.250178e+02
     vertex  6.750000e+02  3.151453e+02 -2.245870e+02
   endloop
 endfacet
 facet normal -1.000000e+00 -3.857954e-13 -1.121503e-14
   outer loop
     vertex  6.750000e+02  3.211347e+02 -2.287756e+02
     vertex  6.750000e+02  3.217730e+02 -2.304586e+02
     vertex  6.750000e+02  3.206027e+02 -2.307471e+02
   endloop
 endfacet
 facet normal -1.000000e+00 -4.573380e-13  8.092355e-15
   outer loop
     vertex  6.750000e+02  3.211347e+02 -2.287756e+02
     vertex  6.750000e+02  3.206027e+02 -2.307471e+02
     vertex  6.750000e+02  3.203857e+02 -2.289602e+02
   endloop
 endfacet
 facet normal -1.000000e+00 -3.664334e-13 -1.864308e-14
   outer loop
     vertex  6.750000e+02  3.171665e+02 -2.242965e+02
     vertex  6.750000e+02  3.168930e+02 -2.250178e+02
     vertex  6.750000e+02  3.155727e+02 -2.234599e+02
   endloop
 endfacet
 facet normal -1.000000e+00 -3.232765e-13  7.091345e-15
   outer loop
     vertex  6.750000e+02  3.218178e+02 -2.284171e+02
     vertex  6.750000e+02  3.228403e+02 -2.298985e+02
     vertex  6.750000e+02  3.217730e+02 -2.304586e+02
   endloop
 endfacet
 facet normal -1.000000e+00 -3.367464e-13  7.386818e-15
   outer loop
     vertex  6.750000e+02  3.218178e+02 -2.284171e+02
     vertex  6.750000e+02  3.217730e+02 -2.304586e+02
     vertex  6.750000e+02  3.211347e+02 -2.287756e+02
   endloop
 endfacet
 facet normal -1.000000e+00 -3.942645e-13 -7.167078e-14
   outer loop
     vertex  6.750000e+02  3.162574e+02 -2.224680e+02
     vertex  6.750000e+02  3.171665e+02 -2.242965e+02
     vertex  6.750000e+02  3.155727e+02 -2.234599e+02
   endloop
 endfacet
 facet normal -1.000000e+00 -4.063287e-13 -7.766891e-14
   outer loop
     vertex  6.750000e+02  3.176048e+02 -2.236616e+02
     vertex  6.750000e+02  3.171665e+02 -2.242965e+02
     vertex  6.750000e+02  3.162574e+02 -2.224680e+02
   endloop
 endfacet
 facet normal -1.000000e+00 -3.709189e-13 -2.579384e-14
   outer loop
     vertex  6.750000e+02  3.223952e+02 -2.279056e+02
     vertex  6.750000e+02  3.228403e+02 -2.298985e+02
     vertex  6.750000e+02  3.218178e+02 -2.284171e+02
   endloop
 endfacet
 facet normal -1.000000e+00 -3.577698e-13 -2.285718e-14
   outer loop
     vertex  6.750000e+02  3.237426e+02 -2.290992e+02
     vertex  6.750000e+02  3.228403e+02 -2.298985e+02
     vertex  6.750000e+02  3.223952e+02 -2.279056e+02
   endloop
 endfacet
 facet normal -1.000000e+00 -3.577698e-13 -2.285718e-14
   outer loop
     vertex  6.750000e+02  3.171597e+02 -2.216686e+02
     vertex  6.750000e+02  3.176048e+02 -2.236616e+02
     vertex  6.750000e+02  3.162574e+02 -2.224680e+02
   endloop
 endfacet
 facet normal -1.000000e+00 -3.709189e-13 -2.579384e-14
   outer loop
     vertex  6.750000e+02  3.171597e+02 -2.216686e+02
     vertex  6.750000e+02  3.181822e+02 -2.231500e+02
     vertex  6.750000e+02  3.176048e+02 -2.236616e+02
   endloop
 endfacet
 facet normal -1.000000e+00 -4.063287e-13 -7.766891e-14
   outer loop
     vertex  6.750000e+02  3.228335e+02 -2.272707e+02
     vertex  6.750000e+02  3.237426e+02 -2.290992e+02
     vertex  6.750000e+02  3.223952e+02 -2.279056e+02
   endloop
 endfacet
 facet normal -1.000000e+00 -3.942645e-13 -7.167078e-14
   outer loop
     vertex  6.750000e+02  3.244273e+02 -2.281072e+02
     vertex  6.750000e+02  3.237426e+02 -2.290992e+02
     vertex  6.750000e+02  3.228335e+02 -2.272707e+02
   endloop
 endfacet
 facet normal -1.000000e+00 -4.354229e-13 -1.500917e-13
   outer loop
     vertex  6.750000e+02  3.231070e+02 -2.265494e+02
     vertex  6.750000e+02  3.244273e+02 -2.281072e+02
     vertex  6.750000e+02  3.228335e+02 -2.272707e+02
   endloop
 endfacet
 facet normal -1.000000e+00 -3.232765e-13  7.091345e-15
   outer loop
     vertex  6.750000e+02  3.182270e+02 -2.211085e+02
     vertex  6.750000e+02  3.181822e+02 -2.231500e+02
     vertex  6.750000e+02  3.171597e+02 -2.216686e+02
   endloop
 endfacet
 facet normal -1.000000e+00 -3.367464e-13  7.386818e-15
   outer loop
     vertex  6.750000e+02  3.182270e+02 -2.211085e+02
     vertex  6.750000e+02  3.188653e+02 -2.227915e+02
     vertex  6.750000e+02  3.181822e+02 -2.231500e+02
   endloop
 endfacet
 facet normal -1.000000e+00 -2.606924e-13 -2.004680e-15
   outer loop
     vertex  6.750000e+02  3.248547e+02 -2.269801e+02
     vertex  6.750000e+02  3.244273e+02 -2.281072e+02
     vertex  6.750000e+02  3.231070e+02 -2.265494e+02
   endloop
 endfacet
 facet normal -1.000000e+00 -3.857954e-13 -1.121503e-14
   outer loop
     vertex  6.750000e+02  3.193973e+02 -2.208200e+02
     vertex  6.750000e+02  3.188653e+02 -2.227915e+02
     vertex  6.750000e+02  3.182270e+02 -2.211085e+02
   endloop
 endfacet
 facet normal -1.000000e+00 -4.573380e-13  8.092355e-15
   outer loop
     vertex  6.750000e+02  3.193973e+02 -2.208200e+02
     vertex  6.750000e+02  3.196143e+02 -2.226069e+02
     vertex  6.750000e+02  3.188653e+02 -2.227915e+02
   endloop
 endfacet
 facet normal -1.000000e+00 -2.981122e-13 -1.538225e-13
   outer loop
     vertex  6.750000e+02  3.250000e+02 -2.257836e+02
     vertex  6.750000e+02  3.248547e+02 -2.269801e+02
     vertex  6.750000e+02  3.231070e+02 -2.265494e+02
   endloop
 endfacet
 facet normal -1.000000e+00 -3.789561e-13  4.601360e-14
   outer loop
     vertex  6.750000e+02  3.250000e+02 -2.257836e+02
     vertex  6.750000e+02  3.231070e+02 -2.265494e+02
     vertex  6.750000e+02  3.232000e+02 -2.257836e+02
   endloop
 endfacet
 facet normal -1.000000e+00 -2.947413e-13 -2.783517e-14
   outer loop
     vertex  6.750000e+02  3.206027e+02 -2.208200e+02
     vertex  6.750000e+02  3.203857e+02 -2.226069e+02
     vertex  6.750000e+02  3.196143e+02 -2.226069e+02
   endloop
 endfacet
 facet normal -1.000000e+00 -3.772689e-13  1.781451e-14
   outer loop
     vertex  6.750000e+02  3.206027e+02 -2.208200e+02
     vertex  6.750000e+02  3.196143e+02 -2.226069e+02
     vertex  6.750000e+02  3.193973e+02 -2.208200e+02
   endloop
 endfacet
 facet normal -1.000000e+00 -3.789561e-13 -4.601360e-14
   outer loop
     vertex  6.750000e+02  3.248547e+02 -2.245870e+02
     vertex  6.750000e+02  3.250000e+02 -2.257836e+02
     vertex  6.750000e+02  3.232000e+02 -2.257836e+02
   endloop
 endfacet
 facet normal -1.000000e+00 -3.789561e-13 -4.601360e-14
   outer loop
     vertex  6.750000e+02  3.248547e+02 -2.245870e+02
     vertex  6.750000e+02  3.232000e+02 -2.257836e+02
     vertex  6.750000e+02  3.231070e+02 -2.250178e+02
   endloop
 endfacet
 facet normal -1.000000e+00 -3.569326e-13 -1.353667e-13
   outer loop
     vertex  6.750000e+02  3.248547e+02 -2.245870e+02
     vertex  6.750000e+02  3.231070e+02 -2.250178e+02
     vertex  6.750000e+02  3.228335e+02 -2.242965e+02
   endloop
 endfacet
 facet normal -1.000000e+00 -3.924949e-13 -1.596573e-14
   outer loop
     vertex  6.750000e+02  3.217730e+02 -2.211085e+02
     vertex  6.750000e+02  3.203857e+02 -2.226069e+02
     vertex  6.750000e+02  3.206027e+02 -2.208200e+02
   endloop
 endfacet
 facet normal -1.000000e+00 -3.232901e-13 -8.003905e-14
   outer loop
     vertex  6.750000e+02  3.217730e+02 -2.211085e+02
     vertex  6.750000e+02  3.211347e+02 -2.227915e+02
     vertex  6.750000e+02  3.203857e+02 -2.226069e+02
   endloop
 endfacet
 facet normal -1.000000e+00 -3.415971e-13 -2.867843e-14
   outer loop
     vertex  6.750000e+02  3.244273e+02 -2.234599e+02
     vertex  6.750000e+02  3.248547e+02 -2.245870e+02
     vertex  6.750000e+02  3.228335e+02 -2.242965e+02
   endloop
 endfacet
 facet normal -1.000000e+00 -3.552091e-13 -6.793377e-14
   outer loop
     vertex  6.750000e+02  3.228403e+02 -2.216686e+02
     vertex  6.750000e+02  3.211347e+02 -2.227915e+02
     vertex  6.750000e+02  3.217730e+02 -2.211085e+02
   endloop
 endfacet
 facet normal -1.000000e+00 -4.552249e-13  8.398607e-14
   outer loop
     vertex  6.750000e+02  3.228403e+02 -2.216686e+02
     vertex  6.750000e+02  3.218178e+02 -2.231500e+02
     vertex  6.750000e+02  3.211347e+02 -2.227915e+02
   endloop
 endfacet
 facet normal -1.000000e+00 -4.586896e-13  4.152679e-14
   outer loop
     vertex  6.750000e+02  3.237426e+02 -2.224680e+02
     vertex  6.750000e+02  3.228335e+02 -2.242965e+02
     vertex  6.750000e+02  3.223952e+02 -2.236616e+02
   endloop
 endfacet
 facet normal -1.000000e+00 -3.093926e-13 -1.269947e-13
   outer loop
     vertex  6.750000e+02  3.237426e+02 -2.224680e+02
     vertex  6.750000e+02  3.223952e+02 -2.236616e+02
     vertex  6.750000e+02  3.218178e+02 -2.231500e+02
   endloop
 endfacet
 facet normal -1.000000e+00 -3.501111e-13 -1.245634e-14
   outer loop
     vertex  6.750000e+02  3.237426e+02 -2.224680e+02
     vertex  6.750000e+02  3.244273e+02 -2.234599e+02
     vertex  6.750000e+02  3.228335e+02 -2.242965e+02
   endloop
 endfacet
 facet normal -1.000000e+00 -3.611450e-13  1.904736e-14
   outer loop
     vertex  6.750000e+02  3.237426e+02 -2.224680e+02
     vertex  6.750000e+02  3.218178e+02 -2.231500e+02
     vertex  6.750000e+02  3.228403e+02 -2.216686e+02
   endloop
 endfacet
endsolid
