solid 
 facet normal  4.990811e-01 -8.644338e-01  6.059941e-02
   outer loop
     vertex  3.761162e+02 -5.043717e+02 -2.609538e+02
     vertex  3.766765e+02 -5.039810e+02 -2.599965e+02
     vertex  3.760000e+02 -5.043717e+02 -2.599965e+02
   endloop
 endfacet
 facet normal  4.990811e-01 -8.644338e-01  6.059941e-02
   outer loop
     vertex  3.761162e+02 -5.043717e+02 -2.609538e+02
     vertex  3.767731e+02 -5.039810e+02 -2.607919e+02
     vertex  3.766765e+02 -5.039810e+02 -2.599965e+02
   endloop
 endfacet
 facet normal  4.700763e-01 -8.644338e-01  1.782764e-01
   outer loop
     vertex  3.764581e+02 -5.043717e+02 -2.618555e+02
     vertex  3.770572e+02 -5.039810e+02 -2.615410e+02
     vertex  3.767731e+02 -5.039810e+02 -2.607919e+02
   endloop
 endfacet
 facet normal  4.700763e-01 -8.644338e-01  1.782764e-01
   outer loop
     vertex  3.764581e+02 -5.043717e+02 -2.618555e+02
     vertex  3.767731e+02 -5.039810e+02 -2.607919e+02
     vertex  3.761162e+02 -5.043717e+02 -2.609538e+02
   endloop
 endfacet
 facet normal  4.137524e-01 -8.644338e-01  2.855927e-01
   outer loop
     vertex  3.770059e+02 -5.043717e+02 -2.626491e+02
     vertex  3.775124e+02 -5.039810e+02 -2.622004e+02
     vertex  3.770572e+02 -5.039810e+02 -2.615410e+02
   endloop
 endfacet
 facet normal  4.137524e-01 -8.644338e-01  2.855927e-01
   outer loop
     vertex  3.770059e+02 -5.043717e+02 -2.626491e+02
     vertex  3.770572e+02 -5.039810e+02 -2.615410e+02
     vertex  3.764581e+02 -5.043717e+02 -2.618555e+02
   endloop
 endfacet
 facet normal  3.333827e-01 -8.644338e-01  3.763113e-01
   outer loop
     vertex  3.777277e+02 -5.043717e+02 -2.632885e+02
     vertex  3.781121e+02 -5.039810e+02 -2.627317e+02
     vertex  3.775124e+02 -5.039810e+02 -2.622004e+02
   endloop
 endfacet
 facet normal  3.333827e-01 -8.644338e-01  3.763113e-01
   outer loop
     vertex  3.777277e+02 -5.043717e+02 -2.632885e+02
     vertex  3.775124e+02 -5.039810e+02 -2.622004e+02
     vertex  3.770059e+02 -5.043717e+02 -2.626491e+02
   endloop
 endfacet
 facet normal  2.336380e-01 -8.644338e-01  4.451601e-01
   outer loop
     vertex  3.785816e+02 -5.043717e+02 -2.637367e+02
     vertex  3.788215e+02 -5.039810e+02 -2.631041e+02
     vertex  3.781121e+02 -5.039810e+02 -2.627317e+02
   endloop
 endfacet
 facet normal  2.336380e-01 -8.644338e-01  4.451601e-01
   outer loop
     vertex  3.785816e+02 -5.043717e+02 -2.637367e+02
     vertex  3.781121e+02 -5.039810e+02 -2.627317e+02
     vertex  3.777277e+02 -5.043717e+02 -2.632885e+02
   endloop
 endfacet
 facet normal  1.203152e-01 -8.644338e-01  4.881378e-01
   outer loop
     vertex  3.795179e+02 -5.043717e+02 -2.639675e+02
     vertex  3.795994e+02 -5.039810e+02 -2.632958e+02
     vertex  3.788215e+02 -5.039810e+02 -2.631041e+02
   endloop
 endfacet
 facet normal  1.203152e-01 -8.644338e-01  4.881378e-01
   outer loop
     vertex  3.795179e+02 -5.043717e+02 -2.639675e+02
     vertex  3.788215e+02 -5.039810e+02 -2.631041e+02
     vertex  3.785816e+02 -5.043717e+02 -2.637367e+02
   endloop
 endfacet
 facet normal  0.000000e+00 -8.644338e-01  5.027467e-01
   outer loop
     vertex  3.804822e+02 -5.043717e+02 -2.639675e+02
     vertex  3.804006e+02 -5.039810e+02 -2.632958e+02
     vertex  3.795994e+02 -5.039810e+02 -2.632958e+02
   endloop
 endfacet
 facet normal  0.000000e+00 -8.644338e-01  5.027467e-01
   outer loop
     vertex  3.804822e+02 -5.043717e+02 -2.639675e+02
     vertex  3.795994e+02 -5.039810e+02 -2.632958e+02
     vertex  3.795179e+02 -5.043717e+02 -2.639675e+02
   endloop
 endfacet
 facet normal -1.203152e-01 -8.644338e-01  4.881378e-01
   outer loop
     vertex  3.814185e+02 -5.043717e+02 -2.637367e+02
     vertex  3.811786e+02 -5.039810e+02 -2.631041e+02
     vertex  3.804006e+02 -5.039810e+02 -2.632958e+02
   endloop
 endfacet
 facet normal -1.203152e-01 -8.644338e-01  4.881378e-01
   outer loop
     vertex  3.814185e+02 -5.043717e+02 -2.637367e+02
     vertex  3.804006e+02 -5.039810e+02 -2.632958e+02
     vertex  3.804822e+02 -5.043717e+02 -2.639675e+02
   endloop
 endfacet
 facet normal -2.336380e-01 -8.644338e-01  4.451601e-01
   outer loop
     vertex  3.822723e+02 -5.043717e+02 -2.632885e+02
     vertex  3.818880e+02 -5.039810e+02 -2.627317e+02
     vertex  3.811786e+02 -5.039810e+02 -2.631041e+02
   endloop
 endfacet
 facet normal -2.336380e-01 -8.644338e-01  4.451601e-01
   outer loop
     vertex  3.822723e+02 -5.043717e+02 -2.632885e+02
     vertex  3.811786e+02 -5.039810e+02 -2.631041e+02
     vertex  3.814185e+02 -5.043717e+02 -2.637367e+02
   endloop
 endfacet
 facet normal -3.333827e-01 -8.644338e-01  3.763113e-01
   outer loop
     vertex  3.829941e+02 -5.043717e+02 -2.626491e+02
     vertex  3.824877e+02 -5.039810e+02 -2.622004e+02
     vertex  3.818880e+02 -5.039810e+02 -2.627317e+02
   endloop
 endfacet
 facet normal -3.333827e-01 -8.644338e-01  3.763113e-01
   outer loop
     vertex  3.829941e+02 -5.043717e+02 -2.626491e+02
     vertex  3.818880e+02 -5.039810e+02 -2.627317e+02
     vertex  3.822723e+02 -5.043717e+02 -2.632885e+02
   endloop
 endfacet
 facet normal -4.137524e-01 -8.644338e-01  2.855927e-01
   outer loop
     vertex  3.835419e+02 -5.043717e+02 -2.618555e+02
     vertex  3.829429e+02 -5.039810e+02 -2.615410e+02
     vertex  3.824877e+02 -5.039810e+02 -2.622004e+02
   endloop
 endfacet
 facet normal -4.137524e-01 -8.644338e-01  2.855927e-01
   outer loop
     vertex  3.835419e+02 -5.043717e+02 -2.618555e+02
     vertex  3.824877e+02 -5.039810e+02 -2.622004e+02
     vertex  3.829941e+02 -5.043717e+02 -2.626491e+02
   endloop
 endfacet
 facet normal -4.700763e-01 -8.644338e-01  1.782764e-01
   outer loop
     vertex  3.838839e+02 -5.043717e+02 -2.609538e+02
     vertex  3.829429e+02 -5.039810e+02 -2.615410e+02
     vertex  3.835419e+02 -5.043717e+02 -2.618555e+02
   endloop
 endfacet
 facet normal -4.700763e-01 -8.644338e-01  1.782764e-01
   outer loop
     vertex  3.838839e+02 -5.043717e+02 -2.609538e+02
     vertex  3.832270e+02 -5.039810e+02 -2.607919e+02
     vertex  3.829429e+02 -5.039810e+02 -2.615410e+02
   endloop
 endfacet
 facet normal -4.990811e-01 -8.644338e-01  6.059941e-02
   outer loop
     vertex  3.840001e+02 -5.043717e+02 -2.599965e+02
     vertex  3.832270e+02 -5.039810e+02 -2.607919e+02
     vertex  3.838839e+02 -5.043717e+02 -2.609538e+02
   endloop
 endfacet
 facet normal -4.990811e-01 -8.644338e-01  6.059941e-02
   outer loop
     vertex  3.840001e+02 -5.043717e+02 -2.599965e+02
     vertex  3.833235e+02 -5.039810e+02 -2.599965e+02
     vertex  3.832270e+02 -5.039810e+02 -2.607919e+02
   endloop
 endfacet
 facet normal -4.990811e-01 -8.644338e-01 -6.059941e-02
   outer loop
     vertex  3.838839e+02 -5.043717e+02 -2.590393e+02
     vertex  3.833235e+02 -5.039810e+02 -2.599965e+02
     vertex  3.840001e+02 -5.043717e+02 -2.599965e+02
   endloop
 endfacet
 facet normal -4.990811e-01 -8.644338e-01 -6.059941e-02
   outer loop
     vertex  3.838839e+02 -5.043717e+02 -2.590393e+02
     vertex  3.832270e+02 -5.039810e+02 -2.592012e+02
     vertex  3.833235e+02 -5.039810e+02 -2.599965e+02
   endloop
 endfacet
 facet normal -4.700763e-01 -8.644338e-01 -1.782764e-01
   outer loop
     vertex  3.835419e+02 -5.043717e+02 -2.581376e+02
     vertex  3.832270e+02 -5.039810e+02 -2.592012e+02
     vertex  3.838839e+02 -5.043717e+02 -2.590393e+02
   endloop
 endfacet
 facet normal -4.700763e-01 -8.644338e-01 -1.782764e-01
   outer loop
     vertex  3.835419e+02 -5.043717e+02 -2.581376e+02
     vertex  3.829429e+02 -5.039810e+02 -2.584520e+02
     vertex  3.832270e+02 -5.039810e+02 -2.592012e+02
   endloop
 endfacet
 facet normal -4.137524e-01 -8.644338e-01 -2.855927e-01
   outer loop
     vertex  3.829941e+02 -5.043717e+02 -2.573440e+02
     vertex  3.829429e+02 -5.039810e+02 -2.584520e+02
     vertex  3.835419e+02 -5.043717e+02 -2.581376e+02
   endloop
 endfacet
 facet normal -4.137524e-01 -8.644338e-01 -2.855927e-01
   outer loop
     vertex  3.829941e+02 -5.043717e+02 -2.573440e+02
     vertex  3.824877e+02 -5.039810e+02 -2.577927e+02
     vertex  3.829429e+02 -5.039810e+02 -2.584520e+02
   endloop
 endfacet
 facet normal -3.333827e-01 -8.644338e-01 -3.763113e-01
   outer loop
     vertex  3.822723e+02 -5.043717e+02 -2.567045e+02
     vertex  3.824877e+02 -5.039810e+02 -2.577927e+02
     vertex  3.829941e+02 -5.043717e+02 -2.573440e+02
   endloop
 endfacet
 facet normal -3.333827e-01 -8.644338e-01 -3.763113e-01
   outer loop
     vertex  3.822723e+02 -5.043717e+02 -2.567045e+02
     vertex  3.818880e+02 -5.039810e+02 -2.572614e+02
     vertex  3.824877e+02 -5.039810e+02 -2.577927e+02
   endloop
 endfacet
 facet normal -2.336380e-01 -8.644338e-01 -4.451601e-01
   outer loop
     vertex  3.814185e+02 -5.043717e+02 -2.562564e+02
     vertex  3.818880e+02 -5.039810e+02 -2.572614e+02
     vertex  3.822723e+02 -5.043717e+02 -2.567045e+02
   endloop
 endfacet
 facet normal -2.336380e-01 -8.644338e-01 -4.451601e-01
   outer loop
     vertex  3.814185e+02 -5.043717e+02 -2.562564e+02
     vertex  3.811786e+02 -5.039810e+02 -2.568890e+02
     vertex  3.818880e+02 -5.039810e+02 -2.572614e+02
   endloop
 endfacet
 facet normal -1.203152e-01 -8.644338e-01 -4.881378e-01
   outer loop
     vertex  3.804822e+02 -5.043717e+02 -2.560256e+02
     vertex  3.811786e+02 -5.039810e+02 -2.568890e+02
     vertex  3.814185e+02 -5.043717e+02 -2.562564e+02
   endloop
 endfacet
 facet normal -1.203152e-01 -8.644338e-01 -4.881378e-01
   outer loop
     vertex  3.804822e+02 -5.043717e+02 -2.560256e+02
     vertex  3.804006e+02 -5.039810e+02 -2.566973e+02
     vertex  3.811786e+02 -5.039810e+02 -2.568890e+02
   endloop
 endfacet
 facet normal  0.000000e+00 -8.644338e-01 -5.027467e-01
   outer loop
     vertex  3.795179e+02 -5.043717e+02 -2.560256e+02
     vertex  3.795994e+02 -5.039810e+02 -2.566973e+02
     vertex  3.804006e+02 -5.039810e+02 -2.566973e+02
   endloop
 endfacet
 facet normal  0.000000e+00 -8.644338e-01 -5.027467e-01
   outer loop
     vertex  3.795179e+02 -5.043717e+02 -2.560256e+02
     vertex  3.804006e+02 -5.039810e+02 -2.566973e+02
     vertex  3.804822e+02 -5.043717e+02 -2.560256e+02
   endloop
 endfacet
 facet normal  1.203152e-01 -8.644338e-01 -4.881378e-01
   outer loop
     vertex  3.785816e+02 -5.043717e+02 -2.562564e+02
     vertex  3.788215e+02 -5.039810e+02 -2.568890e+02
     vertex  3.795994e+02 -5.039810e+02 -2.566973e+02
   endloop
 endfacet
 facet normal  1.203152e-01 -8.644338e-01 -4.881378e-01
   outer loop
     vertex  3.785816e+02 -5.043717e+02 -2.562564e+02
     vertex  3.795994e+02 -5.039810e+02 -2.566973e+02
     vertex  3.795179e+02 -5.043717e+02 -2.560256e+02
   endloop
 endfacet
 facet normal  2.336380e-01 -8.644338e-01 -4.451601e-01
   outer loop
     vertex  3.777277e+02 -5.043717e+02 -2.567045e+02
     vertex  3.781121e+02 -5.039810e+02 -2.572614e+02
     vertex  3.788215e+02 -5.039810e+02 -2.568890e+02
   endloop
 endfacet
 facet normal  2.336380e-01 -8.644338e-01 -4.451601e-01
   outer loop
     vertex  3.777277e+02 -5.043717e+02 -2.567045e+02
     vertex  3.788215e+02 -5.039810e+02 -2.568890e+02
     vertex  3.785816e+02 -5.043717e+02 -2.562564e+02
   endloop
 endfacet
 facet normal  3.333827e-01 -8.644338e-01 -3.763113e-01
   outer loop
     vertex  3.770059e+02 -5.043717e+02 -2.573440e+02
     vertex  3.775124e+02 -5.039810e+02 -2.577927e+02
     vertex  3.781121e+02 -5.039810e+02 -2.572614e+02
   endloop
 endfacet
 facet normal  3.333827e-01 -8.644338e-01 -3.763113e-01
   outer loop
     vertex  3.770059e+02 -5.043717e+02 -2.573440e+02
     vertex  3.781121e+02 -5.039810e+02 -2.572614e+02
     vertex  3.777277e+02 -5.043717e+02 -2.567045e+02
   endloop
 endfacet
 facet normal  4.137524e-01 -8.644338e-01 -2.855927e-01
   outer loop
     vertex  3.764581e+02 -5.043717e+02 -2.581376e+02
     vertex  3.770572e+02 -5.039810e+02 -2.584520e+02
     vertex  3.775124e+02 -5.039810e+02 -2.577927e+02
   endloop
 endfacet
 facet normal  4.137524e-01 -8.644338e-01 -2.855927e-01
   outer loop
     vertex  3.764581e+02 -5.043717e+02 -2.581376e+02
     vertex  3.775124e+02 -5.039810e+02 -2.577927e+02
     vertex  3.770059e+02 -5.043717e+02 -2.573440e+02
   endloop
 endfacet
 facet normal  4.700763e-01 -8.644338e-01 -1.782764e-01
   outer loop
     vertex  3.761162e+02 -5.043717e+02 -2.590393e+02
     vertex  3.767731e+02 -5.039810e+02 -2.592012e+02
     vertex  3.770572e+02 -5.039810e+02 -2.584520e+02
   endloop
 endfacet
 facet normal  4.700763e-01 -8.644338e-01 -1.782764e-01
   outer loop
     vertex  3.761162e+02 -5.043717e+02 -2.590393e+02
     vertex  3.770572e+02 -5.039810e+02 -2.584520e+02
     vertex  3.764581e+02 -5.043717e+02 -2.581376e+02
   endloop
 endfacet
 facet normal  4.990811e-01 -8.644338e-01 -6.059941e-02
   outer loop
     vertex  3.766765e+02 -5.039810e+02 -2.599965e+02
     vertex  3.767731e+02 -5.039810e+02 -2.592012e+02
     vertex  3.761162e+02 -5.043717e+02 -2.590393e+02
   endloop
 endfacet
 facet normal  4.990811e-01 -8.644338e-01 -6.059941e-02
   outer loop
     vertex  3.760000e+02 -5.043717e+02 -2.599965e+02
     vertex  3.766765e+02 -5.039810e+02 -2.599965e+02
     vertex  3.761162e+02 -5.043717e+02 -2.590393e+02
   endloop
 endfacet
 facet normal  9.927089e-01 -9.375529e-15 -1.205367e-01
   outer loop
     vertex  3.766765e+02 -4.979623e+02 -2.599965e+02
     vertex  3.767731e+02 -5.039810e+02 -2.592012e+02
     vertex  3.766765e+02 -5.039810e+02 -2.599965e+02
   endloop
 endfacet
 facet normal  9.350162e-01  0.000000e+00 -3.546049e-01
   outer loop
     vertex  3.767731e+02 -4.979623e+02 -2.592012e+02
     vertex  3.770572e+02 -5.039810e+02 -2.584520e+02
     vertex  3.767731e+02 -5.039810e+02 -2.592012e+02
   endloop
 endfacet
 facet normal  9.927089e-01  0.000000e+00 -1.205367e-01
   outer loop
     vertex  3.767731e+02 -4.979623e+02 -2.592012e+02
     vertex  3.767731e+02 -5.039810e+02 -2.592012e+02
     vertex  3.766765e+02 -4.979623e+02 -2.599965e+02
   endloop
 endfacet
 facet normal  8.229839e-01  0.000000e+00 -5.680647e-01
   outer loop
     vertex  3.770572e+02 -4.979623e+02 -2.584520e+02
     vertex  3.775124e+02 -5.039810e+02 -2.577927e+02
     vertex  3.770572e+02 -5.039810e+02 -2.584520e+02
   endloop
 endfacet
 facet normal  9.350162e-01  0.000000e+00 -3.546049e-01
   outer loop
     vertex  3.770572e+02 -4.979623e+02 -2.584520e+02
     vertex  3.770572e+02 -5.039810e+02 -2.584520e+02
     vertex  3.767731e+02 -4.979623e+02 -2.592012e+02
   endloop
 endfacet
 facet normal  6.631227e-01 -6.262789e-15 -7.485107e-01
   outer loop
     vertex  3.775124e+02 -4.979623e+02 -2.577927e+02
     vertex  3.781121e+02 -5.039810e+02 -2.572614e+02
     vertex  3.775124e+02 -5.039810e+02 -2.577927e+02
   endloop
 endfacet
 facet normal  8.229839e-01 -7.772580e-15 -5.680647e-01
   outer loop
     vertex  3.775124e+02 -4.979623e+02 -2.577927e+02
     vertex  3.775124e+02 -5.039810e+02 -2.577927e+02
     vertex  3.770572e+02 -4.979623e+02 -2.584520e+02
   endloop
 endfacet
 facet normal  4.647232e-01 -1.275162e-14 -8.854560e-01
   outer loop
     vertex  3.781121e+02 -4.979623e+02 -2.572614e+02
     vertex  3.788215e+02 -5.039810e+02 -2.568890e+02
     vertex  3.781121e+02 -5.039810e+02 -2.572614e+02
   endloop
 endfacet
 facet normal  6.631227e-01 -1.333202e-14 -7.485107e-01
   outer loop
     vertex  3.781121e+02 -4.979623e+02 -2.572614e+02
     vertex  3.781121e+02 -5.039810e+02 -2.572614e+02
     vertex  3.775124e+02 -4.979623e+02 -2.577927e+02
   endloop
 endfacet
 facet normal  2.393157e-01 -2.260190e-15 -9.709418e-01
   outer loop
     vertex  3.788215e+02 -4.979623e+02 -2.568890e+02
     vertex  3.795994e+02 -5.039810e+02 -2.566973e+02
     vertex  3.788215e+02 -5.039810e+02 -2.568890e+02
   endloop
 endfacet
 facet normal  4.647232e-01 -4.389027e-15 -8.854560e-01
   outer loop
     vertex  3.788215e+02 -4.979623e+02 -2.568890e+02
     vertex  3.788215e+02 -5.039810e+02 -2.568890e+02
     vertex  3.781121e+02 -4.979623e+02 -2.572614e+02
   endloop
 endfacet
 facet normal  0.000000e+00 -0.000000e+00 -1.000000e+00
   outer loop
     vertex  3.795994e+02 -4.979623e+02 -2.566973e+02
     vertex  3.804006e+02 -5.039810e+02 -2.566973e+02
     vertex  3.795994e+02 -5.039810e+02 -2.566973e+02
   endloop
 endfacet
 facet normal  2.393157e-01 -2.260190e-15 -9.709418e-01
   outer loop
     vertex  3.795994e+02 -4.979623e+02 -2.566973e+02
     vertex  3.795994e+02 -5.039810e+02 -2.566973e+02
     vertex  3.788215e+02 -4.979623e+02 -2.568890e+02
   endloop
 endfacet
 facet normal -2.393157e-01 -6.909762e-15 -9.709418e-01
   outer loop
     vertex  3.804006e+02 -4.979623e+02 -2.566973e+02
     vertex  3.811786e+02 -5.039810e+02 -2.568890e+02
     vertex  3.804006e+02 -5.039810e+02 -2.566973e+02
   endloop
 endfacet
 facet normal -7.094720e-14 -9.444389e-15 -1.000000e+00
   outer loop
     vertex  3.804006e+02 -4.979623e+02 -2.566973e+02
     vertex  3.804006e+02 -5.039810e+02 -2.566973e+02
     vertex  3.795994e+02 -4.979623e+02 -2.566973e+02
   endloop
 endfacet
 facet normal -4.647232e-01 -8.362592e-15 -8.854560e-01
   outer loop
     vertex  3.811786e+02 -4.979623e+02 -2.568890e+02
     vertex  3.818880e+02 -5.039810e+02 -2.572614e+02
     vertex  3.811786e+02 -5.039810e+02 -2.568890e+02
   endloop
 endfacet
 facet normal -2.393157e-01 -9.169953e-15 -9.709418e-01
   outer loop
     vertex  3.811786e+02 -4.979623e+02 -2.568890e+02
     vertex  3.811786e+02 -5.039810e+02 -2.568890e+02
     vertex  3.804006e+02 -4.979623e+02 -2.566973e+02
   endloop
 endfacet
 facet normal -6.631227e-01 -0.000000e+00 -7.485107e-01
   outer loop
     vertex  3.818880e+02 -4.979623e+02 -2.572614e+02
     vertex  3.824877e+02 -5.039810e+02 -2.577927e+02
     vertex  3.818880e+02 -5.039810e+02 -2.572614e+02
   endloop
 endfacet
 facet normal -4.647232e-01 -0.000000e+00 -8.854560e-01
   outer loop
     vertex  3.818880e+02 -4.979623e+02 -2.572614e+02
     vertex  3.818880e+02 -5.039810e+02 -2.572614e+02
     vertex  3.811786e+02 -4.979623e+02 -2.568890e+02
   endloop
 endfacet
 facet normal -8.229839e-01  7.772580e-15 -5.680647e-01
   outer loop
     vertex  3.824877e+02 -4.979623e+02 -2.577927e+02
     vertex  3.829429e+02 -5.039810e+02 -2.584520e+02
     vertex  3.824877e+02 -5.039810e+02 -2.577927e+02
   endloop
 endfacet
 facet normal -6.631227e-01  6.262789e-15 -7.485107e-01
   outer loop
     vertex  3.824877e+02 -4.979623e+02 -2.577927e+02
     vertex  3.824877e+02 -5.039810e+02 -2.577927e+02
     vertex  3.818880e+02 -4.979623e+02 -2.572614e+02
   endloop
 endfacet
 facet normal -8.229839e-01  7.772580e-15 -5.680647e-01
   outer loop
     vertex  3.829429e+02 -4.979623e+02 -2.584520e+02
     vertex  3.829429e+02 -5.039810e+02 -2.584520e+02
     vertex  3.824877e+02 -4.979623e+02 -2.577927e+02
   endloop
 endfacet
 facet normal -9.350162e-01  8.830658e-15 -3.546049e-01
   outer loop
     vertex  3.829429e+02 -4.979623e+02 -2.584520e+02
     vertex  3.832270e+02 -5.039810e+02 -2.592012e+02
     vertex  3.829429e+02 -5.039810e+02 -2.584520e+02
   endloop
 endfacet
 facet normal -9.350162e-01  8.830658e-15 -3.546049e-01
   outer loop
     vertex  3.832270e+02 -4.979623e+02 -2.592012e+02
     vertex  3.832270e+02 -5.039810e+02 -2.592012e+02
     vertex  3.829429e+02 -4.979623e+02 -2.584520e+02
   endloop
 endfacet
 facet normal -9.927089e-01  9.375054e-15 -1.205367e-01
   outer loop
     vertex  3.833235e+02 -4.979623e+02 -2.599965e+02
     vertex  3.832270e+02 -5.039810e+02 -2.592012e+02
     vertex  3.832270e+02 -4.979623e+02 -2.592012e+02
   endloop
 endfacet
 facet normal -9.927089e-01 -1.138395e-15 -1.205367e-01
   outer loop
     vertex  3.833235e+02 -4.979623e+02 -2.599965e+02
     vertex  3.833235e+02 -5.039810e+02 -2.599965e+02
     vertex  3.832270e+02 -5.039810e+02 -2.592012e+02
   endloop
 endfacet
 facet normal -9.927089e-01  1.138395e-15  1.205367e-01
   outer loop
     vertex  3.833235e+02 -4.979623e+02 -2.599965e+02
     vertex  3.832270e+02 -5.039810e+02 -2.607919e+02
     vertex  3.833235e+02 -5.039810e+02 -2.599965e+02
   endloop
 endfacet
 facet normal -9.927089e-01  1.165232e-14  1.205367e-01
   outer loop
     vertex  3.832270e+02 -4.979623e+02 -2.607919e+02
     vertex  3.832270e+02 -5.039810e+02 -2.607919e+02
     vertex  3.833235e+02 -4.979623e+02 -2.599965e+02
   endloop
 endfacet
 facet normal -9.350162e-01  1.552871e-14  3.546049e-01
   outer loop
     vertex  3.832270e+02 -4.979623e+02 -2.607919e+02
     vertex  3.829429e+02 -5.039810e+02 -2.615410e+02
     vertex  3.832270e+02 -5.039810e+02 -2.607919e+02
   endloop
 endfacet
 facet normal -9.350162e-01  1.766132e-14  3.546049e-01
   outer loop
     vertex  3.829429e+02 -4.979623e+02 -2.615410e+02
     vertex  3.829429e+02 -5.039810e+02 -2.615410e+02
     vertex  3.832270e+02 -4.979623e+02 -2.607919e+02
   endloop
 endfacet
 facet normal -8.229839e-01  1.554516e-14  5.680647e-01
   outer loop
     vertex  3.829429e+02 -4.979623e+02 -2.615410e+02
     vertex  3.824877e+02 -5.039810e+02 -2.622004e+02
     vertex  3.829429e+02 -5.039810e+02 -2.615410e+02
   endloop
 endfacet
 facet normal -8.229839e-01  7.772580e-15  5.680647e-01
   outer loop
     vertex  3.824877e+02 -4.979623e+02 -2.622004e+02
     vertex  3.824877e+02 -5.039810e+02 -2.622004e+02
     vertex  3.829429e+02 -4.979623e+02 -2.615410e+02
   endloop
 endfacet
 facet normal -6.631227e-01  6.267568e-15  7.485107e-01
   outer loop
     vertex  3.818880e+02 -4.979623e+02 -2.627317e+02
     vertex  3.824877e+02 -5.039810e+02 -2.622004e+02
     vertex  3.824877e+02 -4.979623e+02 -2.622004e+02
   endloop
 endfacet
 facet normal -6.631227e-01  0.000000e+00  7.485107e-01
   outer loop
     vertex  3.818880e+02 -4.979623e+02 -2.627317e+02
     vertex  3.818880e+02 -5.039810e+02 -2.627317e+02
     vertex  3.824877e+02 -5.039810e+02 -2.622004e+02
   endloop
 endfacet
 facet normal -4.647232e-01  0.000000e+00  8.854560e-01
   outer loop
     vertex  3.818880e+02 -4.979623e+02 -2.627317e+02
     vertex  3.811786e+02 -5.039810e+02 -2.631041e+02
     vertex  3.818880e+02 -5.039810e+02 -2.627317e+02
   endloop
 endfacet
 facet normal -4.647232e-01  8.362592e-15  8.854560e-01
   outer loop
     vertex  3.811786e+02 -4.979623e+02 -2.631041e+02
     vertex  3.811786e+02 -5.039810e+02 -2.631041e+02
     vertex  3.818880e+02 -4.979623e+02 -2.627317e+02
   endloop
 endfacet
 facet normal -2.393157e-01  9.169873e-15  9.709418e-01
   outer loop
     vertex  3.804006e+02 -4.979623e+02 -2.632958e+02
     vertex  3.811786e+02 -5.039810e+02 -2.631041e+02
     vertex  3.811786e+02 -4.979623e+02 -2.631041e+02
   endloop
 endfacet
 facet normal -2.393157e-01  9.169953e-15  9.709418e-01
   outer loop
     vertex  3.804006e+02 -4.979623e+02 -2.632958e+02
     vertex  3.804006e+02 -5.039810e+02 -2.632958e+02
     vertex  3.811786e+02 -5.039810e+02 -2.631041e+02
   endloop
 endfacet
 facet normal  0.000000e+00  9.444389e-15  1.000000e+00
   outer loop
     vertex  3.804006e+02 -4.979623e+02 -2.632958e+02
     vertex  3.795994e+02 -5.039810e+02 -2.632958e+02
     vertex  3.804006e+02 -5.039810e+02 -2.632958e+02
   endloop
 endfacet
 facet normal  7.094720e-14  0.000000e+00  1.000000e+00
   outer loop
     vertex  3.795994e+02 -4.979623e+02 -2.632958e+02
     vertex  3.795994e+02 -5.039810e+02 -2.632958e+02
     vertex  3.804006e+02 -4.979623e+02 -2.632958e+02
   endloop
 endfacet
 facet normal  2.393157e-01  0.000000e+00  9.709418e-01
   outer loop
     vertex  3.795994e+02 -4.979623e+02 -2.632958e+02
     vertex  3.788215e+02 -5.039810e+02 -2.631041e+02
     vertex  3.795994e+02 -5.039810e+02 -2.632958e+02
   endloop
 endfacet
 facet normal  2.393157e-01 -2.260190e-15  9.709418e-01
   outer loop
     vertex  3.788215e+02 -4.979623e+02 -2.631041e+02
     vertex  3.788215e+02 -5.039810e+02 -2.631041e+02
     vertex  3.795994e+02 -4.979623e+02 -2.632958e+02
   endloop
 endfacet
 facet normal  4.647232e-01 -4.389027e-15  8.854560e-01
   outer loop
     vertex  3.788215e+02 -4.979623e+02 -2.631041e+02
     vertex  3.781121e+02 -5.039810e+02 -2.627317e+02
     vertex  3.788215e+02 -5.039810e+02 -2.631041e+02
   endloop
 endfacet
 facet normal  4.647232e-01  3.973565e-15  8.854560e-01
   outer loop
     vertex  3.781121e+02 -4.979623e+02 -2.627317e+02
     vertex  3.781121e+02 -5.039810e+02 -2.627317e+02
     vertex  3.788215e+02 -4.979623e+02 -2.631041e+02
   endloop
 endfacet
 facet normal  6.631227e-01  8.064384e-16  7.485107e-01
   outer loop
     vertex  3.781121e+02 -4.979623e+02 -2.627317e+02
     vertex  3.775124e+02 -5.039810e+02 -2.622004e+02
     vertex  3.781121e+02 -5.039810e+02 -2.627317e+02
   endloop
 endfacet
 facet normal  6.631227e-01  0.000000e+00  7.485107e-01
   outer loop
     vertex  3.775124e+02 -4.979623e+02 -2.622004e+02
     vertex  3.775124e+02 -5.039810e+02 -2.622004e+02
     vertex  3.781121e+02 -4.979623e+02 -2.627317e+02
   endloop
 endfacet
 facet normal  8.229839e-01 -7.772580e-15  5.680647e-01
   outer loop
     vertex  3.770572e+02 -4.979623e+02 -2.615410e+02
     vertex  3.770572e+02 -5.039810e+02 -2.615410e+02
     vertex  3.775124e+02 -5.039810e+02 -2.622004e+02
   endloop
 endfacet
 facet normal  8.229839e-01 -2.676855e-18  5.680647e-01
   outer loop
     vertex  3.770572e+02 -4.979623e+02 -2.615410e+02
     vertex  3.775124e+02 -5.039810e+02 -2.622004e+02
     vertex  3.775124e+02 -4.979623e+02 -2.622004e+02
   endloop
 endfacet
 facet normal  9.350162e-01 -6.698053e-15  3.546049e-01
   outer loop
     vertex  3.767731e+02 -4.979623e+02 -2.607919e+02
     vertex  3.767731e+02 -5.039810e+02 -2.607919e+02
     vertex  3.770572e+02 -5.039810e+02 -2.615410e+02
   endloop
 endfacet
 facet normal  9.927089e-01 -2.276791e-15  1.205367e-01
   outer loop
     vertex  3.767731e+02 -4.979623e+02 -2.607919e+02
     vertex  3.766765e+02 -5.039810e+02 -2.599965e+02
     vertex  3.767731e+02 -5.039810e+02 -2.607919e+02
   endloop
 endfacet
 facet normal  9.350162e-01 -8.831280e-15  3.546049e-01
   outer loop
     vertex  3.767731e+02 -4.979623e+02 -2.607919e+02
     vertex  3.770572e+02 -5.039810e+02 -2.615410e+02
     vertex  3.770572e+02 -4.979623e+02 -2.615410e+02
   endloop
 endfacet
 facet normal  9.927089e-01 -9.375529e-15  1.205367e-01
   outer loop
     vertex  3.766765e+02 -4.979623e+02 -2.599965e+02
     vertex  3.766765e+02 -5.039810e+02 -2.599965e+02
     vertex  3.767731e+02 -4.979623e+02 -2.607919e+02
   endloop
 endfacet
 facet normal  0.000000e+00 -1.000000e+00  0.000000e+00
   outer loop
     vertex  3.770059e+02 -5.043717e+02 -2.573440e+02
     vertex  3.761539e+02 -5.043717e+02 -2.556552e+02
     vertex  3.752267e+02 -5.043717e+02 -2.567018e+02
   endloop
 endfacet
 facet normal  0.000000e+00 -1.000000e+00  0.000000e+00
   outer loop
     vertex  3.777277e+02 -5.043717e+02 -2.567045e+02
     vertex  3.773046e+02 -5.043717e+02 -2.548609e+02
     vertex  3.761539e+02 -5.043717e+02 -2.556552e+02
   endloop
 endfacet
 facet normal -0.000000e+00 -1.000000e+00  0.000000e+00
   outer loop
     vertex  3.777277e+02 -5.043717e+02 -2.567045e+02
     vertex  3.761539e+02 -5.043717e+02 -2.556552e+02
     vertex  3.770059e+02 -5.043717e+02 -2.573440e+02
   endloop
 endfacet
 facet normal  0.000000e+00 -1.000000e+00  0.000000e+00
   outer loop
     vertex  3.764581e+02 -5.043717e+02 -2.581376e+02
     vertex  3.752267e+02 -5.043717e+02 -2.567018e+02
     vertex  3.745769e+02 -5.043717e+02 -2.579398e+02
   endloop
 endfacet
 facet normal  0.000000e+00 -1.000000e+00  0.000000e+00
   outer loop
     vertex  3.764581e+02 -5.043717e+02 -2.581376e+02
     vertex  3.770059e+02 -5.043717e+02 -2.573440e+02
     vertex  3.752267e+02 -5.043717e+02 -2.567018e+02
   endloop
 endfacet
 facet normal  0.000000e+00 -1.000000e+00  0.000000e+00
   outer loop
     vertex  3.785816e+02 -5.043717e+02 -2.562564e+02
     vertex  3.786120e+02 -5.043717e+02 -2.543651e+02
     vertex  3.773046e+02 -5.043717e+02 -2.548609e+02
   endloop
 endfacet
 facet normal -0.000000e+00 -1.000000e+00  0.000000e+00
   outer loop
     vertex  3.785816e+02 -5.043717e+02 -2.562564e+02
     vertex  3.773046e+02 -5.043717e+02 -2.548609e+02
     vertex  3.777277e+02 -5.043717e+02 -2.567045e+02
   endloop
 endfacet
 facet normal -0.000000e+00 -1.000000e+00  0.000000e+00
   outer loop
     vertex  3.761162e+02 -5.043717e+02 -2.590393e+02
     vertex  3.745769e+02 -5.043717e+02 -2.579398e+02
     vertex  3.742423e+02 -5.043717e+02 -2.592974e+02
   endloop
 endfacet
 facet normal  0.000000e+00 -1.000000e+00  0.000000e+00
   outer loop
     vertex  3.761162e+02 -5.043717e+02 -2.590393e+02
     vertex  3.764581e+02 -5.043717e+02 -2.581376e+02
     vertex  3.745769e+02 -5.043717e+02 -2.579398e+02
   endloop
 endfacet
 facet normal  0.000000e+00 -1.000000e+00  0.000000e+00
   outer loop
     vertex  3.795179e+02 -5.043717e+02 -2.560256e+02
     vertex  3.800000e+02 -5.043717e+02 -2.541965e+02
     vertex  3.786120e+02 -5.043717e+02 -2.543651e+02
   endloop
 endfacet
 facet normal -0.000000e+00 -1.000000e+00  0.000000e+00
   outer loop
     vertex  3.795179e+02 -5.043717e+02 -2.560256e+02
     vertex  3.786120e+02 -5.043717e+02 -2.543651e+02
     vertex  3.785816e+02 -5.043717e+02 -2.562564e+02
   endloop
 endfacet
 facet normal -0.000000e+00 -1.000000e+00  0.000000e+00
   outer loop
     vertex  3.760000e+02 -5.043717e+02 -2.599965e+02
     vertex  3.742423e+02 -5.043717e+02 -2.592974e+02
     vertex  3.742423e+02 -5.043717e+02 -2.606957e+02
   endloop
 endfacet
 facet normal  0.000000e+00 -1.000000e+00  0.000000e+00
   outer loop
     vertex  3.760000e+02 -5.043717e+02 -2.599965e+02
     vertex  3.761162e+02 -5.043717e+02 -2.590393e+02
     vertex  3.742423e+02 -5.043717e+02 -2.592974e+02
   endloop
 endfacet
 facet normal  0.000000e+00 -1.000000e+00  0.000000e+00
   outer loop
     vertex  3.804822e+02 -5.043717e+02 -2.560256e+02
     vertex  3.813881e+02 -5.043717e+02 -2.543651e+02
     vertex  3.800000e+02 -5.043717e+02 -2.541965e+02
   endloop
 endfacet
 facet normal  0.000000e+00 -1.000000e+00  0.000000e+00
   outer loop
     vertex  3.804822e+02 -5.043717e+02 -2.560256e+02
     vertex  3.800000e+02 -5.043717e+02 -2.541965e+02
     vertex  3.795179e+02 -5.043717e+02 -2.560256e+02
   endloop
 endfacet
 facet normal -0.000000e+00 -1.000000e+00  0.000000e+00
   outer loop
     vertex  3.761162e+02 -5.043717e+02 -2.609538e+02
     vertex  3.742423e+02 -5.043717e+02 -2.606957e+02
     vertex  3.745769e+02 -5.043717e+02 -2.620532e+02
   endloop
 endfacet
 facet normal  0.000000e+00 -1.000000e+00  0.000000e+00
   outer loop
     vertex  3.761162e+02 -5.043717e+02 -2.609538e+02
     vertex  3.760000e+02 -5.043717e+02 -2.599965e+02
     vertex  3.742423e+02 -5.043717e+02 -2.606957e+02
   endloop
 endfacet
 facet normal  0.000000e+00 -1.000000e+00  0.000000e+00
   outer loop
     vertex  3.814185e+02 -5.043717e+02 -2.562564e+02
     vertex  3.826954e+02 -5.043717e+02 -2.548609e+02
     vertex  3.813881e+02 -5.043717e+02 -2.543651e+02
   endloop
 endfacet
 facet normal  0.000000e+00 -1.000000e+00  0.000000e+00
   outer loop
     vertex  3.814185e+02 -5.043717e+02 -2.562564e+02
     vertex  3.813881e+02 -5.043717e+02 -2.543651e+02
     vertex  3.804822e+02 -5.043717e+02 -2.560256e+02
   endloop
 endfacet
 facet normal -0.000000e+00 -1.000000e+00  0.000000e+00
   outer loop
     vertex  3.764581e+02 -5.043717e+02 -2.618555e+02
     vertex  3.761162e+02 -5.043717e+02 -2.609538e+02
     vertex  3.745769e+02 -5.043717e+02 -2.620532e+02
   endloop
 endfacet
 facet normal  0.000000e+00 -1.000000e+00  0.000000e+00
   outer loop
     vertex  3.752267e+02 -5.043717e+02 -2.632913e+02
     vertex  3.764581e+02 -5.043717e+02 -2.618555e+02
     vertex  3.745769e+02 -5.043717e+02 -2.620532e+02
   endloop
 endfacet
 facet normal  0.000000e+00 -1.000000e+00  0.000000e+00
   outer loop
     vertex  3.822723e+02 -5.043717e+02 -2.567045e+02
     vertex  3.826954e+02 -5.043717e+02 -2.548609e+02
     vertex  3.814185e+02 -5.043717e+02 -2.562564e+02
   endloop
 endfacet
 facet normal -0.000000e+00 -1.000000e+00  0.000000e+00
   outer loop
     vertex  3.838462e+02 -5.043717e+02 -2.556552e+02
     vertex  3.826954e+02 -5.043717e+02 -2.548609e+02
     vertex  3.822723e+02 -5.043717e+02 -2.567045e+02
   endloop
 endfacet
 facet normal -0.000000e+00 -1.000000e+00  0.000000e+00
   outer loop
     vertex  3.770059e+02 -5.043717e+02 -2.626491e+02
     vertex  3.764581e+02 -5.043717e+02 -2.618555e+02
     vertex  3.752267e+02 -5.043717e+02 -2.632913e+02
   endloop
 endfacet
 facet normal  0.000000e+00 -1.000000e+00  0.000000e+00
   outer loop
     vertex  3.829941e+02 -5.043717e+02 -2.573440e+02
     vertex  3.838462e+02 -5.043717e+02 -2.556552e+02
     vertex  3.822723e+02 -5.043717e+02 -2.567045e+02
   endloop
 endfacet
 facet normal  0.000000e+00 -1.000000e+00  0.000000e+00
   outer loop
     vertex  3.761539e+02 -5.043717e+02 -2.643379e+02
     vertex  3.770059e+02 -5.043717e+02 -2.626491e+02
     vertex  3.752267e+02 -5.043717e+02 -2.632913e+02
   endloop
 endfacet
 facet normal -0.000000e+00 -1.000000e+00  0.000000e+00
   outer loop
     vertex  3.777277e+02 -5.043717e+02 -2.632885e+02
     vertex  3.770059e+02 -5.043717e+02 -2.626491e+02
     vertex  3.761539e+02 -5.043717e+02 -2.643379e+02
   endloop
 endfacet
 facet normal -0.000000e+00 -1.000000e+00  0.000000e+00
   outer loop
     vertex  3.847733e+02 -5.043717e+02 -2.567018e+02
     vertex  3.838462e+02 -5.043717e+02 -2.556552e+02
     vertex  3.829941e+02 -5.043717e+02 -2.573440e+02
   endloop
 endfacet
 facet normal  0.000000e+00 -1.000000e+00  0.000000e+00
   outer loop
     vertex  3.835419e+02 -5.043717e+02 -2.581376e+02
     vertex  3.847733e+02 -5.043717e+02 -2.567018e+02
     vertex  3.829941e+02 -5.043717e+02 -2.573440e+02
   endloop
 endfacet
 facet normal  0.000000e+00 -1.000000e+00  0.000000e+00
   outer loop
     vertex  3.773046e+02 -5.043717e+02 -2.651322e+02
     vertex  3.785816e+02 -5.043717e+02 -2.637367e+02
     vertex  3.777277e+02 -5.043717e+02 -2.632885e+02
   endloop
 endfacet
 facet normal  0.000000e+00 -1.000000e+00  0.000000e+00
   outer loop
     vertex  3.773046e+02 -5.043717e+02 -2.651322e+02
     vertex  3.777277e+02 -5.043717e+02 -2.632885e+02
     vertex  3.761539e+02 -5.043717e+02 -2.643379e+02
   endloop
 endfacet
 facet normal -0.000000e+00 -1.000000e+00  0.000000e+00
   outer loop
     vertex  3.854231e+02 -5.043717e+02 -2.579398e+02
     vertex  3.847733e+02 -5.043717e+02 -2.567018e+02
     vertex  3.835419e+02 -5.043717e+02 -2.581376e+02
   endloop
 endfacet
 facet normal  0.000000e+00 -1.000000e+00  0.000000e+00
   outer loop
     vertex  3.854231e+02 -5.043717e+02 -2.579398e+02
     vertex  3.835419e+02 -5.043717e+02 -2.581376e+02
     vertex  3.838839e+02 -5.043717e+02 -2.590393e+02
   endloop
 endfacet
 facet normal  0.000000e+00 -1.000000e+00  0.000000e+00
   outer loop
     vertex  3.786120e+02 -5.043717e+02 -2.656280e+02
     vertex  3.785816e+02 -5.043717e+02 -2.637367e+02
     vertex  3.773046e+02 -5.043717e+02 -2.651322e+02
   endloop
 endfacet
 facet normal  0.000000e+00 -1.000000e+00  0.000000e+00
   outer loop
     vertex  3.786120e+02 -5.043717e+02 -2.656280e+02
     vertex  3.795179e+02 -5.043717e+02 -2.639675e+02
     vertex  3.785816e+02 -5.043717e+02 -2.637367e+02
   endloop
 endfacet
 facet normal  0.000000e+00 -1.000000e+00  0.000000e+00
   outer loop
     vertex  3.857578e+02 -5.043717e+02 -2.592974e+02
     vertex  3.854231e+02 -5.043717e+02 -2.579398e+02
     vertex  3.838839e+02 -5.043717e+02 -2.590393e+02
   endloop
 endfacet
 facet normal -0.000000e+00 -1.000000e+00  0.000000e+00
   outer loop
     vertex  3.857578e+02 -5.043717e+02 -2.592974e+02
     vertex  3.838839e+02 -5.043717e+02 -2.590393e+02
     vertex  3.840001e+02 -5.043717e+02 -2.599965e+02
   endloop
 endfacet
 facet normal  0.000000e+00 -1.000000e+00  0.000000e+00
   outer loop
     vertex  3.800000e+02 -5.043717e+02 -2.657965e+02
     vertex  3.795179e+02 -5.043717e+02 -2.639675e+02
     vertex  3.786120e+02 -5.043717e+02 -2.656280e+02
   endloop
 endfacet
 facet normal  0.000000e+00 -1.000000e+00  0.000000e+00
   outer loop
     vertex  3.800000e+02 -5.043717e+02 -2.657965e+02
     vertex  3.804822e+02 -5.043717e+02 -2.639675e+02
     vertex  3.795179e+02 -5.043717e+02 -2.639675e+02
   endloop
 endfacet
 facet normal  0.000000e+00 -1.000000e+00  0.000000e+00
   outer loop
     vertex  3.857578e+02 -5.043717e+02 -2.606957e+02
     vertex  3.857578e+02 -5.043717e+02 -2.592974e+02
     vertex  3.840001e+02 -5.043717e+02 -2.599965e+02
   endloop
 endfacet
 facet normal -0.000000e+00 -1.000000e+00  0.000000e+00
   outer loop
     vertex  3.857578e+02 -5.043717e+02 -2.606957e+02
     vertex  3.840001e+02 -5.043717e+02 -2.599965e+02
     vertex  3.838839e+02 -5.043717e+02 -2.609538e+02
   endloop
 endfacet
 facet normal -0.000000e+00 -1.000000e+00  0.000000e+00
   outer loop
     vertex  3.813881e+02 -5.043717e+02 -2.656280e+02
     vertex  3.804822e+02 -5.043717e+02 -2.639675e+02
     vertex  3.800000e+02 -5.043717e+02 -2.657965e+02
   endloop
 endfacet
 facet normal  0.000000e+00 -1.000000e+00  0.000000e+00
   outer loop
     vertex  3.813881e+02 -5.043717e+02 -2.656280e+02
     vertex  3.814185e+02 -5.043717e+02 -2.637367e+02
     vertex  3.804822e+02 -5.043717e+02 -2.639675e+02
   endloop
 endfacet
 facet normal  0.000000e+00 -1.000000e+00  0.000000e+00
   outer loop
     vertex  3.854231e+02 -5.043717e+02 -2.620532e+02
     vertex  3.838839e+02 -5.043717e+02 -2.609538e+02
     vertex  3.835419e+02 -5.043717e+02 -2.618555e+02
   endloop
 endfacet
 facet normal  0.000000e+00 -1.000000e+00  0.000000e+00
   outer loop
     vertex  3.854231e+02 -5.043717e+02 -2.620532e+02
     vertex  3.857578e+02 -5.043717e+02 -2.606957e+02
     vertex  3.838839e+02 -5.043717e+02 -2.609538e+02
   endloop
 endfacet
 facet normal  0.000000e+00 -1.000000e+00  0.000000e+00
   outer loop
     vertex  3.826954e+02 -5.043717e+02 -2.651322e+02
     vertex  3.822723e+02 -5.043717e+02 -2.632885e+02
     vertex  3.814185e+02 -5.043717e+02 -2.637367e+02
   endloop
 endfacet
 facet normal -0.000000e+00 -1.000000e+00  0.000000e+00
   outer loop
     vertex  3.826954e+02 -5.043717e+02 -2.651322e+02
     vertex  3.814185e+02 -5.043717e+02 -2.637367e+02
     vertex  3.813881e+02 -5.043717e+02 -2.656280e+02
   endloop
 endfacet
 facet normal  0.000000e+00 -1.000000e+00  0.000000e+00
   outer loop
     vertex  3.847733e+02 -5.043717e+02 -2.632913e+02
     vertex  3.854231e+02 -5.043717e+02 -2.620532e+02
     vertex  3.835419e+02 -5.043717e+02 -2.618555e+02
   endloop
 endfacet
 facet normal  0.000000e+00 -1.000000e+00  0.000000e+00
   outer loop
     vertex  3.847733e+02 -5.043717e+02 -2.632913e+02
     vertex  3.835419e+02 -5.043717e+02 -2.618555e+02
     vertex  3.829941e+02 -5.043717e+02 -2.626491e+02
   endloop
 endfacet
 facet normal  0.000000e+00 -1.000000e+00  0.000000e+00
   outer loop
     vertex  3.838462e+02 -5.043717e+02 -2.643379e+02
     vertex  3.847733e+02 -5.043717e+02 -2.632913e+02
     vertex  3.829941e+02 -5.043717e+02 -2.626491e+02
   endloop
 endfacet
 facet normal  0.000000e+00 -1.000000e+00  0.000000e+00
   outer loop
     vertex  3.838462e+02 -5.043717e+02 -2.643379e+02
     vertex  3.829941e+02 -5.043717e+02 -2.626491e+02
     vertex  3.822723e+02 -5.043717e+02 -2.632885e+02
   endloop
 endfacet
 facet normal -0.000000e+00 -1.000000e+00  0.000000e+00
   outer loop
     vertex  3.838462e+02 -5.043717e+02 -2.643379e+02
     vertex  3.822723e+02 -5.043717e+02 -2.632885e+02
     vertex  3.826954e+02 -5.043717e+02 -2.651322e+02
   endloop
 endfacet
 facet normal -4.990811e-01  8.644338e-01  6.059941e-02
   outer loop
     vertex  3.838839e+02 -4.975717e+02 -2.609538e+02
     vertex  3.833235e+02 -4.979623e+02 -2.599965e+02
     vertex  3.840001e+02 -4.975717e+02 -2.599965e+02
   endloop
 endfacet
 facet normal -4.990811e-01  8.644338e-01  6.059941e-02
   outer loop
     vertex  3.838839e+02 -4.975717e+02 -2.609538e+02
     vertex  3.832270e+02 -4.979623e+02 -2.607919e+02
     vertex  3.833235e+02 -4.979623e+02 -2.599965e+02
   endloop
 endfacet
 facet normal -4.700763e-01  8.644338e-01  1.782764e-01
   outer loop
     vertex  3.835419e+02 -4.975717e+02 -2.618555e+02
     vertex  3.829429e+02 -4.979623e+02 -2.615410e+02
     vertex  3.832270e+02 -4.979623e+02 -2.607919e+02
   endloop
 endfacet
 facet normal -4.700763e-01  8.644338e-01  1.782764e-01
   outer loop
     vertex  3.835419e+02 -4.975717e+02 -2.618555e+02
     vertex  3.832270e+02 -4.979623e+02 -2.607919e+02
     vertex  3.838839e+02 -4.975717e+02 -2.609538e+02
   endloop
 endfacet
 facet normal -4.137524e-01  8.644338e-01  2.855927e-01
   outer loop
     vertex  3.829941e+02 -4.975717e+02 -2.626491e+02
     vertex  3.824877e+02 -4.979623e+02 -2.622004e+02
     vertex  3.829429e+02 -4.979623e+02 -2.615410e+02
   endloop
 endfacet
 facet normal -4.137524e-01  8.644338e-01  2.855927e-01
   outer loop
     vertex  3.829941e+02 -4.975717e+02 -2.626491e+02
     vertex  3.829429e+02 -4.979623e+02 -2.615410e+02
     vertex  3.835419e+02 -4.975717e+02 -2.618555e+02
   endloop
 endfacet
 facet normal -3.333827e-01  8.644338e-01  3.763113e-01
   outer loop
     vertex  3.822723e+02 -4.975717e+02 -2.632885e+02
     vertex  3.818880e+02 -4.979623e+02 -2.627317e+02
     vertex  3.824877e+02 -4.979623e+02 -2.622004e+02
   endloop
 endfacet
 facet normal -3.333827e-01  8.644338e-01  3.763113e-01
   outer loop
     vertex  3.822723e+02 -4.975717e+02 -2.632885e+02
     vertex  3.824877e+02 -4.979623e+02 -2.622004e+02
     vertex  3.829941e+02 -4.975717e+02 -2.626491e+02
   endloop
 endfacet
 facet normal -2.336380e-01  8.644338e-01  4.451601e-01
   outer loop
     vertex  3.814185e+02 -4.975717e+02 -2.637367e+02
     vertex  3.811786e+02 -4.979623e+02 -2.631041e+02
     vertex  3.818880e+02 -4.979623e+02 -2.627317e+02
   endloop
 endfacet
 facet normal -2.336380e-01  8.644338e-01  4.451601e-01
   outer loop
     vertex  3.814185e+02 -4.975717e+02 -2.637367e+02
     vertex  3.818880e+02 -4.979623e+02 -2.627317e+02
     vertex  3.822723e+02 -4.975717e+02 -2.632885e+02
   endloop
 endfacet
 facet normal -1.203152e-01  8.644338e-01  4.881378e-01
   outer loop
     vertex  3.804822e+02 -4.975717e+02 -2.639675e+02
     vertex  3.804006e+02 -4.979623e+02 -2.632958e+02
     vertex  3.811786e+02 -4.979623e+02 -2.631041e+02
   endloop
 endfacet
 facet normal -1.203152e-01  8.644338e-01  4.881378e-01
   outer loop
     vertex  3.804822e+02 -4.975717e+02 -2.639675e+02
     vertex  3.811786e+02 -4.979623e+02 -2.631041e+02
     vertex  3.814185e+02 -4.975717e+02 -2.637367e+02
   endloop
 endfacet
 facet normal  3.566847e-14  8.644338e-01  5.027467e-01
   outer loop
     vertex  3.795179e+02 -4.975717e+02 -2.639675e+02
     vertex  3.795994e+02 -4.979623e+02 -2.632958e+02
     vertex  3.804006e+02 -4.979623e+02 -2.632958e+02
   endloop
 endfacet
 facet normal  2.963543e-14  8.644338e-01  5.027467e-01
   outer loop
     vertex  3.795179e+02 -4.975717e+02 -2.639675e+02
     vertex  3.804006e+02 -4.979623e+02 -2.632958e+02
     vertex  3.804822e+02 -4.975717e+02 -2.639675e+02
   endloop
 endfacet
 facet normal  1.203152e-01  8.644338e-01  4.881378e-01
   outer loop
     vertex  3.785816e+02 -4.975717e+02 -2.637367e+02
     vertex  3.788215e+02 -4.979623e+02 -2.631041e+02
     vertex  3.795994e+02 -4.979623e+02 -2.632958e+02
   endloop
 endfacet
 facet normal  1.203152e-01  8.644338e-01  4.881378e-01
   outer loop
     vertex  3.785816e+02 -4.975717e+02 -2.637367e+02
     vertex  3.795994e+02 -4.979623e+02 -2.632958e+02
     vertex  3.795179e+02 -4.975717e+02 -2.639675e+02
   endloop
 endfacet
 facet normal  2.336380e-01  8.644338e-01  4.451601e-01
   outer loop
     vertex  3.777277e+02 -4.975717e+02 -2.632885e+02
     vertex  3.781121e+02 -4.979623e+02 -2.627317e+02
     vertex  3.788215e+02 -4.979623e+02 -2.631041e+02
   endloop
 endfacet
 facet normal  2.336380e-01  8.644338e-01  4.451601e-01
   outer loop
     vertex  3.777277e+02 -4.975717e+02 -2.632885e+02
     vertex  3.788215e+02 -4.979623e+02 -2.631041e+02
     vertex  3.785816e+02 -4.975717e+02 -2.637367e+02
   endloop
 endfacet
 facet normal  3.333827e-01  8.644338e-01  3.763113e-01
   outer loop
     vertex  3.770059e+02 -4.975717e+02 -2.626491e+02
     vertex  3.775124e+02 -4.979623e+02 -2.622004e+02
     vertex  3.781121e+02 -4.979623e+02 -2.627317e+02
   endloop
 endfacet
 facet normal  3.333827e-01  8.644338e-01  3.763113e-01
   outer loop
     vertex  3.770059e+02 -4.975717e+02 -2.626491e+02
     vertex  3.781121e+02 -4.979623e+02 -2.627317e+02
     vertex  3.777277e+02 -4.975717e+02 -2.632885e+02
   endloop
 endfacet
 facet normal  4.137524e-01  8.644338e-01  2.855927e-01
   outer loop
     vertex  3.764581e+02 -4.975717e+02 -2.618555e+02
     vertex  3.770572e+02 -4.979623e+02 -2.615410e+02
     vertex  3.775124e+02 -4.979623e+02 -2.622004e+02
   endloop
 endfacet
 facet normal  4.137524e-01  8.644338e-01  2.855927e-01
   outer loop
     vertex  3.764581e+02 -4.975717e+02 -2.618555e+02
     vertex  3.775124e+02 -4.979623e+02 -2.622004e+02
     vertex  3.770059e+02 -4.975717e+02 -2.626491e+02
   endloop
 endfacet
 facet normal  4.700763e-01  8.644338e-01  1.782764e-01
   outer loop
     vertex  3.761162e+02 -4.975717e+02 -2.609538e+02
     vertex  3.770572e+02 -4.979623e+02 -2.615410e+02
     vertex  3.764581e+02 -4.975717e+02 -2.618555e+02
   endloop
 endfacet
 facet normal  4.700763e-01  8.644338e-01  1.782764e-01
   outer loop
     vertex  3.761162e+02 -4.975717e+02 -2.609538e+02
     vertex  3.767731e+02 -4.979623e+02 -2.607919e+02
     vertex  3.770572e+02 -4.979623e+02 -2.615410e+02
   endloop
 endfacet
 facet normal  4.990811e-01  8.644338e-01  6.059941e-02
   outer loop
     vertex  3.760000e+02 -4.975717e+02 -2.599965e+02
     vertex  3.767731e+02 -4.979623e+02 -2.607919e+02
     vertex  3.761162e+02 -4.975717e+02 -2.609538e+02
   endloop
 endfacet
 facet normal  4.990811e-01  8.644338e-01  6.059941e-02
   outer loop
     vertex  3.760000e+02 -4.975717e+02 -2.599965e+02
     vertex  3.766765e+02 -4.979623e+02 -2.599965e+02
     vertex  3.767731e+02 -4.979623e+02 -2.607919e+02
   endloop
 endfacet
 facet normal  4.990811e-01  8.644338e-01 -6.059941e-02
   outer loop
     vertex  3.761162e+02 -4.975717e+02 -2.590393e+02
     vertex  3.766765e+02 -4.979623e+02 -2.599965e+02
     vertex  3.760000e+02 -4.975717e+02 -2.599965e+02
   endloop
 endfacet
 facet normal  4.990811e-01  8.644338e-01 -6.059941e-02
   outer loop
     vertex  3.761162e+02 -4.975717e+02 -2.590393e+02
     vertex  3.767731e+02 -4.979623e+02 -2.592012e+02
     vertex  3.766765e+02 -4.979623e+02 -2.599965e+02
   endloop
 endfacet
 facet normal  4.700763e-01  8.644338e-01 -1.782764e-01
   outer loop
     vertex  3.764581e+02 -4.975717e+02 -2.581376e+02
     vertex  3.767731e+02 -4.979623e+02 -2.592012e+02
     vertex  3.761162e+02 -4.975717e+02 -2.590393e+02
   endloop
 endfacet
 facet normal  4.700763e-01  8.644338e-01 -1.782764e-01
   outer loop
     vertex  3.764581e+02 -4.975717e+02 -2.581376e+02
     vertex  3.770572e+02 -4.979623e+02 -2.584520e+02
     vertex  3.767731e+02 -4.979623e+02 -2.592012e+02
   endloop
 endfacet
 facet normal  4.137524e-01  8.644338e-01 -2.855927e-01
   outer loop
     vertex  3.770059e+02 -4.975717e+02 -2.573440e+02
     vertex  3.770572e+02 -4.979623e+02 -2.584520e+02
     vertex  3.764581e+02 -4.975717e+02 -2.581376e+02
   endloop
 endfacet
 facet normal  4.137524e-01  8.644338e-01 -2.855927e-01
   outer loop
     vertex  3.770059e+02 -4.975717e+02 -2.573440e+02
     vertex  3.775124e+02 -4.979623e+02 -2.577927e+02
     vertex  3.770572e+02 -4.979623e+02 -2.584520e+02
   endloop
 endfacet
 facet normal  3.333827e-01  8.644338e-01 -3.763113e-01
   outer loop
     vertex  3.777277e+02 -4.975717e+02 -2.567045e+02
     vertex  3.775124e+02 -4.979623e+02 -2.577927e+02
     vertex  3.770059e+02 -4.975717e+02 -2.573440e+02
   endloop
 endfacet
 facet normal  3.333827e-01  8.644338e-01 -3.763113e-01
   outer loop
     vertex  3.777277e+02 -4.975717e+02 -2.567045e+02
     vertex  3.781121e+02 -4.979623e+02 -2.572614e+02
     vertex  3.775124e+02 -4.979623e+02 -2.577927e+02
   endloop
 endfacet
 facet normal  2.336380e-01  8.644338e-01 -4.451601e-01
   outer loop
     vertex  3.785816e+02 -4.975717e+02 -2.562564e+02
     vertex  3.781121e+02 -4.979623e+02 -2.572614e+02
     vertex  3.777277e+02 -4.975717e+02 -2.567045e+02
   endloop
 endfacet
 facet normal  2.336380e-01  8.644338e-01 -4.451601e-01
   outer loop
     vertex  3.785816e+02 -4.975717e+02 -2.562564e+02
     vertex  3.788215e+02 -4.979623e+02 -2.568890e+02
     vertex  3.781121e+02 -4.979623e+02 -2.572614e+02
   endloop
 endfacet
 facet normal  1.203152e-01  8.644338e-01 -4.881378e-01
   outer loop
     vertex  3.795179e+02 -4.975717e+02 -2.560256e+02
     vertex  3.788215e+02 -4.979623e+02 -2.568890e+02
     vertex  3.785816e+02 -4.975717e+02 -2.562564e+02
   endloop
 endfacet
 facet normal  1.203152e-01  8.644338e-01 -4.881378e-01
   outer loop
     vertex  3.795179e+02 -4.975717e+02 -2.560256e+02
     vertex  3.795994e+02 -4.979623e+02 -2.566973e+02
     vertex  3.788215e+02 -4.979623e+02 -2.568890e+02
   endloop
 endfacet
 facet normal -2.963543e-14  8.644338e-01 -5.027467e-01
   outer loop
     vertex  3.804822e+02 -4.975717e+02 -2.560256e+02
     vertex  3.795994e+02 -4.979623e+02 -2.566973e+02
     vertex  3.795179e+02 -4.975717e+02 -2.560256e+02
   endloop
 endfacet
 facet normal -3.566847e-14  8.644338e-01 -5.027467e-01
   outer loop
     vertex  3.804822e+02 -4.975717e+02 -2.560256e+02
     vertex  3.804006e+02 -4.979623e+02 -2.566973e+02
     vertex  3.795994e+02 -4.979623e+02 -2.566973e+02
   endloop
 endfacet
 facet normal -1.203152e-01  8.644338e-01 -4.881378e-01
   outer loop
     vertex  3.814185e+02 -4.975717e+02 -2.562564e+02
     vertex  3.804006e+02 -4.979623e+02 -2.566973e+02
     vertex  3.804822e+02 -4.975717e+02 -2.560256e+02
   endloop
 endfacet
 facet normal -1.203152e-01  8.644338e-01 -4.881378e-01
   outer loop
     vertex  3.814185e+02 -4.975717e+02 -2.562564e+02
     vertex  3.811786e+02 -4.979623e+02 -2.568890e+02
     vertex  3.804006e+02 -4.979623e+02 -2.566973e+02
   endloop
 endfacet
 facet normal -2.336380e-01  8.644338e-01 -4.451601e-01
   outer loop
     vertex  3.822723e+02 -4.975717e+02 -2.567045e+02
     vertex  3.811786e+02 -4.979623e+02 -2.568890e+02
     vertex  3.814185e+02 -4.975717e+02 -2.562564e+02
   endloop
 endfacet
 facet normal -2.336380e-01  8.644338e-01 -4.451601e-01
   outer loop
     vertex  3.822723e+02 -4.975717e+02 -2.567045e+02
     vertex  3.818880e+02 -4.979623e+02 -2.572614e+02
     vertex  3.811786e+02 -4.979623e+02 -2.568890e+02
   endloop
 endfacet
 facet normal -3.333827e-01  8.644338e-01 -3.763113e-01
   outer loop
     vertex  3.829941e+02 -4.975717e+02 -2.573440e+02
     vertex  3.824877e+02 -4.979623e+02 -2.577927e+02
     vertex  3.818880e+02 -4.979623e+02 -2.572614e+02
   endloop
 endfacet
 facet normal -3.333827e-01  8.644338e-01 -3.763113e-01
   outer loop
     vertex  3.829941e+02 -4.975717e+02 -2.573440e+02
     vertex  3.818880e+02 -4.979623e+02 -2.572614e+02
     vertex  3.822723e+02 -4.975717e+02 -2.567045e+02
   endloop
 endfacet
 facet normal -4.137524e-01  8.644338e-01 -2.855927e-01
   outer loop
     vertex  3.829429e+02 -4.979623e+02 -2.584520e+02
     vertex  3.824877e+02 -4.979623e+02 -2.577927e+02
     vertex  3.829941e+02 -4.975717e+02 -2.573440e+02
   endloop
 endfacet
 facet normal -4.137524e-01  8.644338e-01 -2.855927e-01
   outer loop
     vertex  3.835419e+02 -4.975717e+02 -2.581376e+02
     vertex  3.829429e+02 -4.979623e+02 -2.584520e+02
     vertex  3.829941e+02 -4.975717e+02 -2.573440e+02
   endloop
 endfacet
 facet normal -4.700763e-01  8.644338e-01 -1.782764e-01
   outer loop
     vertex  3.838839e+02 -4.975717e+02 -2.590393e+02
     vertex  3.832270e+02 -4.979623e+02 -2.592012e+02
     vertex  3.829429e+02 -4.979623e+02 -2.584520e+02
   endloop
 endfacet
 facet normal -4.700763e-01  8.644338e-01 -1.782764e-01
   outer loop
     vertex  3.838839e+02 -4.975717e+02 -2.590393e+02
     vertex  3.829429e+02 -4.979623e+02 -2.584520e+02
     vertex  3.835419e+02 -4.975717e+02 -2.581376e+02
   endloop
 endfacet
 facet normal -4.990811e-01  8.644338e-01 -6.059941e-02
   outer loop
     vertex  3.833235e+02 -4.979623e+02 -2.599965e+02
     vertex  3.832270e+02 -4.979623e+02 -2.592012e+02
     vertex  3.838839e+02 -4.975717e+02 -2.590393e+02
   endloop
 endfacet
 facet normal -4.990811e-01  8.644338e-01 -6.059941e-02
   outer loop
     vertex  3.840001e+02 -4.975717e+02 -2.599965e+02
     vertex  3.833235e+02 -4.979623e+02 -2.599965e+02
     vertex  3.838839e+02 -4.975717e+02 -2.590393e+02
   endloop
 endfacet
 facet normal  0.000000e+00  1.000000e+00  0.000000e+00
   outer loop
     vertex  3.770059e+02 -4.975717e+02 -2.573440e+02
     vertex  3.752267e+02 -4.975717e+02 -2.567018e+02
     vertex  3.761539e+02 -4.975717e+02 -2.556552e+02
   endloop
 endfacet
 facet normal  0.000000e+00  1.000000e+00  0.000000e+00
   outer loop
     vertex  3.777277e+02 -4.975717e+02 -2.567045e+02
     vertex  3.761539e+02 -4.975717e+02 -2.556552e+02
     vertex  3.773046e+02 -4.975717e+02 -2.548609e+02
   endloop
 endfacet
 facet normal  0.000000e+00  1.000000e+00  0.000000e+00
   outer loop
     vertex  3.777277e+02 -4.975717e+02 -2.567045e+02
     vertex  3.770059e+02 -4.975717e+02 -2.573440e+02
     vertex  3.761539e+02 -4.975717e+02 -2.556552e+02
   endloop
 endfacet
 facet normal  0.000000e+00  1.000000e+00  0.000000e+00
   outer loop
     vertex  3.764581e+02 -4.975717e+02 -2.581376e+02
     vertex  3.745769e+02 -4.975717e+02 -2.579398e+02
     vertex  3.752267e+02 -4.975717e+02 -2.567018e+02
   endloop
 endfacet
 facet normal  0.000000e+00  1.000000e+00 -0.000000e+00
   outer loop
     vertex  3.764581e+02 -4.975717e+02 -2.581376e+02
     vertex  3.752267e+02 -4.975717e+02 -2.567018e+02
     vertex  3.770059e+02 -4.975717e+02 -2.573440e+02
   endloop
 endfacet
 facet normal  0.000000e+00  1.000000e+00 -0.000000e+00
   outer loop
     vertex  3.785816e+02 -4.975717e+02 -2.562564e+02
     vertex  3.773046e+02 -4.975717e+02 -2.548609e+02
     vertex  3.786120e+02 -4.975717e+02 -2.543651e+02
   endloop
 endfacet
 facet normal  0.000000e+00  1.000000e+00  0.000000e+00
   outer loop
     vertex  3.785816e+02 -4.975717e+02 -2.562564e+02
     vertex  3.777277e+02 -4.975717e+02 -2.567045e+02
     vertex  3.773046e+02 -4.975717e+02 -2.548609e+02
   endloop
 endfacet
 facet normal  0.000000e+00  1.000000e+00  0.000000e+00
   outer loop
     vertex  3.761162e+02 -4.975717e+02 -2.590393e+02
     vertex  3.742423e+02 -4.975717e+02 -2.592974e+02
     vertex  3.745769e+02 -4.975717e+02 -2.579398e+02
   endloop
 endfacet
 facet normal  0.000000e+00  1.000000e+00 -0.000000e+00
   outer loop
     vertex  3.761162e+02 -4.975717e+02 -2.590393e+02
     vertex  3.745769e+02 -4.975717e+02 -2.579398e+02
     vertex  3.764581e+02 -4.975717e+02 -2.581376e+02
   endloop
 endfacet
 facet normal  0.000000e+00  1.000000e+00 -0.000000e+00
   outer loop
     vertex  3.795179e+02 -4.975717e+02 -2.560256e+02
     vertex  3.786120e+02 -4.975717e+02 -2.543651e+02
     vertex  3.800000e+02 -4.975717e+02 -2.541965e+02
   endloop
 endfacet
 facet normal  0.000000e+00  1.000000e+00  0.000000e+00
   outer loop
     vertex  3.795179e+02 -4.975717e+02 -2.560256e+02
     vertex  3.785816e+02 -4.975717e+02 -2.562564e+02
     vertex  3.786120e+02 -4.975717e+02 -2.543651e+02
   endloop
 endfacet
 facet normal  0.000000e+00  1.000000e+00  0.000000e+00
   outer loop
     vertex  3.760000e+02 -4.975717e+02 -2.599965e+02
     vertex  3.742423e+02 -4.975717e+02 -2.606957e+02
     vertex  3.742423e+02 -4.975717e+02 -2.592974e+02
   endloop
 endfacet
 facet normal  0.000000e+00  1.000000e+00 -0.000000e+00
   outer loop
     vertex  3.760000e+02 -4.975717e+02 -2.599965e+02
     vertex  3.742423e+02 -4.975717e+02 -2.592974e+02
     vertex  3.761162e+02 -4.975717e+02 -2.590393e+02
   endloop
 endfacet
 facet normal  0.000000e+00  1.000000e+00 -0.000000e+00
   outer loop
     vertex  3.804822e+02 -4.975717e+02 -2.560256e+02
     vertex  3.800000e+02 -4.975717e+02 -2.541965e+02
     vertex  3.813881e+02 -4.975717e+02 -2.543651e+02
   endloop
 endfacet
 facet normal  0.000000e+00  1.000000e+00  0.000000e+00
   outer loop
     vertex  3.804822e+02 -4.975717e+02 -2.560256e+02
     vertex  3.795179e+02 -4.975717e+02 -2.560256e+02
     vertex  3.800000e+02 -4.975717e+02 -2.541965e+02
   endloop
 endfacet
 facet normal  0.000000e+00  1.000000e+00  0.000000e+00
   outer loop
     vertex  3.761162e+02 -4.975717e+02 -2.609538e+02
     vertex  3.745769e+02 -4.975717e+02 -2.620532e+02
     vertex  3.742423e+02 -4.975717e+02 -2.606957e+02
   endloop
 endfacet
 facet normal  0.000000e+00  1.000000e+00  0.000000e+00
   outer loop
     vertex  3.761162e+02 -4.975717e+02 -2.609538e+02
     vertex  3.742423e+02 -4.975717e+02 -2.606957e+02
     vertex  3.760000e+02 -4.975717e+02 -2.599965e+02
   endloop
 endfacet
 facet normal  0.000000e+00  1.000000e+00 -0.000000e+00
   outer loop
     vertex  3.814185e+02 -4.975717e+02 -2.562564e+02
     vertex  3.813881e+02 -4.975717e+02 -2.543651e+02
     vertex  3.826954e+02 -4.975717e+02 -2.548609e+02
   endloop
 endfacet
 facet normal  0.000000e+00  1.000000e+00  0.000000e+00
   outer loop
     vertex  3.814185e+02 -4.975717e+02 -2.562564e+02
     vertex  3.804822e+02 -4.975717e+02 -2.560256e+02
     vertex  3.813881e+02 -4.975717e+02 -2.543651e+02
   endloop
 endfacet
 facet normal  0.000000e+00  1.000000e+00  0.000000e+00
   outer loop
     vertex  3.764581e+02 -4.975717e+02 -2.618555e+02
     vertex  3.745769e+02 -4.975717e+02 -2.620532e+02
     vertex  3.761162e+02 -4.975717e+02 -2.609538e+02
   endloop
 endfacet
 facet normal  0.000000e+00  1.000000e+00 -0.000000e+00
   outer loop
     vertex  3.752267e+02 -4.975717e+02 -2.632913e+02
     vertex  3.745769e+02 -4.975717e+02 -2.620532e+02
     vertex  3.764581e+02 -4.975717e+02 -2.618555e+02
   endloop
 endfacet
 facet normal  0.000000e+00  1.000000e+00 -0.000000e+00
   outer loop
     vertex  3.822723e+02 -4.975717e+02 -2.567045e+02
     vertex  3.814185e+02 -4.975717e+02 -2.562564e+02
     vertex  3.826954e+02 -4.975717e+02 -2.548609e+02
   endloop
 endfacet
 facet normal  0.000000e+00  1.000000e+00  0.000000e+00
   outer loop
     vertex  3.838462e+02 -4.975717e+02 -2.556552e+02
     vertex  3.822723e+02 -4.975717e+02 -2.567045e+02
     vertex  3.826954e+02 -4.975717e+02 -2.548609e+02
   endloop
 endfacet
 facet normal  0.000000e+00  1.000000e+00  0.000000e+00
   outer loop
     vertex  3.770059e+02 -4.975717e+02 -2.626491e+02
     vertex  3.752267e+02 -4.975717e+02 -2.632913e+02
     vertex  3.764581e+02 -4.975717e+02 -2.618555e+02
   endloop
 endfacet
 facet normal  0.000000e+00  1.000000e+00 -0.000000e+00
   outer loop
     vertex  3.829941e+02 -4.975717e+02 -2.573440e+02
     vertex  3.822723e+02 -4.975717e+02 -2.567045e+02
     vertex  3.838462e+02 -4.975717e+02 -2.556552e+02
   endloop
 endfacet
 facet normal  0.000000e+00  1.000000e+00 -0.000000e+00
   outer loop
     vertex  3.761539e+02 -4.975717e+02 -2.643379e+02
     vertex  3.752267e+02 -4.975717e+02 -2.632913e+02
     vertex  3.770059e+02 -4.975717e+02 -2.626491e+02
   endloop
 endfacet
 facet normal  0.000000e+00  1.000000e+00  0.000000e+00
   outer loop
     vertex  3.777277e+02 -4.975717e+02 -2.632885e+02
     vertex  3.761539e+02 -4.975717e+02 -2.643379e+02
     vertex  3.770059e+02 -4.975717e+02 -2.626491e+02
   endloop
 endfacet
 facet normal  0.000000e+00  1.000000e+00  0.000000e+00
   outer loop
     vertex  3.847733e+02 -4.975717e+02 -2.567018e+02
     vertex  3.829941e+02 -4.975717e+02 -2.573440e+02
     vertex  3.838462e+02 -4.975717e+02 -2.556552e+02
   endloop
 endfacet
 facet normal  0.000000e+00  1.000000e+00 -0.000000e+00
   outer loop
     vertex  3.835419e+02 -4.975717e+02 -2.581376e+02
     vertex  3.829941e+02 -4.975717e+02 -2.573440e+02
     vertex  3.847733e+02 -4.975717e+02 -2.567018e+02
   endloop
 endfacet
 facet normal  0.000000e+00  1.000000e+00 -0.000000e+00
   outer loop
     vertex  3.773046e+02 -4.975717e+02 -2.651322e+02
     vertex  3.761539e+02 -4.975717e+02 -2.643379e+02
     vertex  3.777277e+02 -4.975717e+02 -2.632885e+02
   endloop
 endfacet
 facet normal  0.000000e+00  1.000000e+00  0.000000e+00
   outer loop
     vertex  3.773046e+02 -4.975717e+02 -2.651322e+02
     vertex  3.777277e+02 -4.975717e+02 -2.632885e+02
     vertex  3.785816e+02 -4.975717e+02 -2.637367e+02
   endloop
 endfacet
 facet normal  0.000000e+00  1.000000e+00  0.000000e+00
   outer loop
     vertex  3.854231e+02 -4.975717e+02 -2.579398e+02
     vertex  3.835419e+02 -4.975717e+02 -2.581376e+02
     vertex  3.847733e+02 -4.975717e+02 -2.567018e+02
   endloop
 endfacet
 facet normal  0.000000e+00  1.000000e+00  0.000000e+00
   outer loop
     vertex  3.854231e+02 -4.975717e+02 -2.579398e+02
     vertex  3.838839e+02 -4.975717e+02 -2.590393e+02
     vertex  3.835419e+02 -4.975717e+02 -2.581376e+02
   endloop
 endfacet
 facet normal  0.000000e+00  1.000000e+00  0.000000e+00
   outer loop
     vertex  3.786120e+02 -4.975717e+02 -2.656280e+02
     vertex  3.773046e+02 -4.975717e+02 -2.651322e+02
     vertex  3.785816e+02 -4.975717e+02 -2.637367e+02
   endloop
 endfacet
 facet normal  0.000000e+00  1.000000e+00 -0.000000e+00
   outer loop
     vertex  3.786120e+02 -4.975717e+02 -2.656280e+02
     vertex  3.785816e+02 -4.975717e+02 -2.637367e+02
     vertex  3.795179e+02 -4.975717e+02 -2.639675e+02
   endloop
 endfacet
 facet normal  0.000000e+00  1.000000e+00  0.000000e+00
   outer loop
     vertex  3.857578e+02 -4.975717e+02 -2.592974e+02
     vertex  3.838839e+02 -4.975717e+02 -2.590393e+02
     vertex  3.854231e+02 -4.975717e+02 -2.579398e+02
   endloop
 endfacet
 facet normal  0.000000e+00  1.000000e+00  0.000000e+00
   outer loop
     vertex  3.857578e+02 -4.975717e+02 -2.592974e+02
     vertex  3.840001e+02 -4.975717e+02 -2.599965e+02
     vertex  3.838839e+02 -4.975717e+02 -2.590393e+02
   endloop
 endfacet
 facet normal  3.840842e-14  1.000000e+00 -2.095288e-14
   outer loop
     vertex  3.800000e+02 -4.975717e+02 -2.657965e+02
     vertex  3.786120e+02 -4.975717e+02 -2.656280e+02
     vertex  3.795179e+02 -4.975717e+02 -2.639675e+02
   endloop
 endfacet
 facet normal -1.831930e-27  1.000000e+00 -3.107755e-14
   outer loop
     vertex  3.800000e+02 -4.975717e+02 -2.657965e+02
     vertex  3.795179e+02 -4.975717e+02 -2.639675e+02
     vertex  3.804822e+02 -4.975717e+02 -2.639675e+02
   endloop
 endfacet
 facet normal  0.000000e+00  1.000000e+00  0.000000e+00
   outer loop
     vertex  3.857578e+02 -4.975717e+02 -2.606957e+02
     vertex  3.838839e+02 -4.975717e+02 -2.609538e+02
     vertex  3.840001e+02 -4.975717e+02 -2.599965e+02
   endloop
 endfacet
 facet normal  0.000000e+00  1.000000e+00 -0.000000e+00
   outer loop
     vertex  3.857578e+02 -4.975717e+02 -2.606957e+02
     vertex  3.840001e+02 -4.975717e+02 -2.599965e+02
     vertex  3.857578e+02 -4.975717e+02 -2.592974e+02
   endloop
 endfacet
 facet normal  7.437346e-15  1.000000e+00 -3.017450e-14
   outer loop
     vertex  3.813881e+02 -4.975717e+02 -2.656280e+02
     vertex  3.804822e+02 -4.975717e+02 -2.639675e+02
     vertex  3.814185e+02 -4.975717e+02 -2.637367e+02
   endloop
 endfacet
 facet normal  3.898272e-15  1.000000e+00 -3.210516e-14
   outer loop
     vertex  3.813881e+02 -4.975717e+02 -2.656280e+02
     vertex  3.800000e+02 -4.975717e+02 -2.657965e+02
     vertex  3.804822e+02 -4.975717e+02 -2.639675e+02
   endloop
 endfacet
 facet normal  0.000000e+00  1.000000e+00 -0.000000e+00
   outer loop
     vertex  3.854231e+02 -4.975717e+02 -2.620532e+02
     vertex  3.838839e+02 -4.975717e+02 -2.609538e+02
     vertex  3.857578e+02 -4.975717e+02 -2.606957e+02
   endloop
 endfacet
 facet normal  0.000000e+00  1.000000e+00  0.000000e+00
   outer loop
     vertex  3.854231e+02 -4.975717e+02 -2.620532e+02
     vertex  3.835419e+02 -4.975717e+02 -2.618555e+02
     vertex  3.838839e+02 -4.975717e+02 -2.609538e+02
   endloop
 endfacet
 facet normal  1.146826e-14  1.000000e+00 -3.023933e-14
   outer loop
     vertex  3.826954e+02 -4.975717e+02 -2.651322e+02
     vertex  3.813881e+02 -4.975717e+02 -2.656280e+02
     vertex  3.814185e+02 -4.975717e+02 -2.637367e+02
   endloop
 endfacet
 facet normal  1.444246e-14  1.000000e+00 -2.751781e-14
   outer loop
     vertex  3.826954e+02 -4.975717e+02 -2.651322e+02
     vertex  3.814185e+02 -4.975717e+02 -2.637367e+02
     vertex  3.822723e+02 -4.975717e+02 -2.632885e+02
   endloop
 endfacet
 facet normal  2.557633e-14  1.000000e+00 -1.765406e-14
   outer loop
     vertex  3.847733e+02 -4.975717e+02 -2.632913e+02
     vertex  3.829941e+02 -4.975717e+02 -2.626491e+02
     vertex  3.835419e+02 -4.975717e+02 -2.618555e+02
   endloop
 endfacet
 facet normal -4.574592e-15  1.000000e+00 -4.351210e-14
   outer loop
     vertex  3.847733e+02 -4.975717e+02 -2.632913e+02
     vertex  3.835419e+02 -4.975717e+02 -2.618555e+02
     vertex  3.854231e+02 -4.975717e+02 -2.620532e+02
   endloop
 endfacet
 facet normal -2.427168e-14  1.000000e+00 -3.640213e-14
   outer loop
     vertex  3.838462e+02 -4.975717e+02 -2.643379e+02
     vertex  3.826954e+02 -4.975717e+02 -2.651322e+02
     vertex  3.822723e+02 -4.975717e+02 -2.632885e+02
   endloop
 endfacet
 facet normal  0.000000e+00  1.000000e+00  0.000000e+00
   outer loop
     vertex  3.838462e+02 -4.975717e+02 -2.643379e+02
     vertex  3.822723e+02 -4.975717e+02 -2.632885e+02
     vertex  3.829941e+02 -4.975717e+02 -2.626491e+02
   endloop
 endfacet
 facet normal  3.906235e-14  1.000000e+00  1.970692e-14
   outer loop
     vertex  3.838462e+02 -4.975717e+02 -2.643379e+02
     vertex  3.829941e+02 -4.975717e+02 -2.626491e+02
     vertex  3.847733e+02 -4.975717e+02 -2.632913e+02
   endloop
 endfacet
 facet normal  6.059941e-02 -8.644338e-01  4.990811e-01
   outer loop
     vertex  3.800000e+02 -5.033870e+02 -2.524910e+02
     vertex  3.800000e+02 -5.043717e+02 -2.541965e+02
     vertex  3.813881e+02 -5.043717e+02 -2.543651e+02
   endloop
 endfacet
 facet normal  1.706858e-01 -8.765335e-01  4.500616e-01
   outer loop
     vertex  3.822364e+02 -5.039072e+02 -2.537821e+02
     vertex  3.813881e+02 -5.043717e+02 -2.543651e+02
     vertex  3.826954e+02 -5.043717e+02 -2.548609e+02
   endloop
 endfacet
 facet normal  1.046118e-01 -8.463855e-01  5.221954e-01
   outer loop
     vertex  3.822364e+02 -5.039072e+02 -2.537821e+02
     vertex  3.800000e+02 -5.033870e+02 -2.524910e+02
     vertex  3.813881e+02 -5.043717e+02 -2.543651e+02
   endloop
 endfacet
 facet normal  2.811829e-01 -8.689022e-01  4.073637e-01
   outer loop
     vertex  3.842637e+02 -5.039072e+02 -2.549526e+02
     vertex  3.826954e+02 -5.043717e+02 -2.548609e+02
     vertex  3.838462e+02 -5.043717e+02 -2.556552e+02
   endloop
 endfacet
 facet normal  2.751723e-01 -8.349377e-01  4.766124e-01
   outer loop
     vertex  3.842637e+02 -5.039072e+02 -2.549526e+02
     vertex  3.822364e+02 -5.039072e+02 -2.537821e+02
     vertex  3.826954e+02 -5.043717e+02 -2.548609e+02
   endloop
 endfacet
 facet normal  3.835562e-01 -8.587316e-01  3.398011e-01
   outer loop
     vertex  3.847733e+02 -5.043717e+02 -2.567018e+02
     vertex  3.842637e+02 -5.039072e+02 -2.549526e+02
     vertex  3.838462e+02 -5.043717e+02 -2.556552e+02
   endloop
 endfacet
 facet normal  4.357727e-01 -8.705133e-01  2.287112e-01
   outer loop
     vertex  3.865000e+02 -5.033870e+02 -2.562438e+02
     vertex  3.847733e+02 -5.043717e+02 -2.567018e+02
     vertex  3.854231e+02 -5.043717e+02 -2.579398e+02
   endloop
 endfacet
 facet normal  3.955597e-01 -8.525295e-01  3.416517e-01
   outer loop
     vertex  3.865000e+02 -5.033870e+02 -2.562438e+02
     vertex  3.842637e+02 -5.039072e+02 -2.549526e+02
     vertex  3.847733e+02 -5.043717e+02 -2.567018e+02
   endloop
 endfacet
 facet normal  4.726475e-01 -8.735175e-01  1.164971e-01
   outer loop
     vertex  3.865000e+02 -5.039072e+02 -2.588261e+02
     vertex  3.854231e+02 -5.043717e+02 -2.579398e+02
     vertex  3.857578e+02 -5.043717e+02 -2.592974e+02
   endloop
 endfacet
 facet normal  5.051720e-01 -8.460233e-01  1.704283e-01
   outer loop
     vertex  3.865000e+02 -5.039072e+02 -2.588261e+02
     vertex  3.865000e+02 -5.033870e+02 -2.562438e+02
     vertex  3.854231e+02 -5.043717e+02 -2.579398e+02
   endloop
 endfacet
 facet normal  5.304680e-01 -8.477050e-01  1.943520e-17
   outer loop
     vertex  3.865000e+02 -5.039072e+02 -2.611670e+02
     vertex  3.857578e+02 -5.043717e+02 -2.592974e+02
     vertex  3.857578e+02 -5.043717e+02 -2.606957e+02
   endloop
 endfacet
 facet normal  5.304680e-01 -8.477050e-01  2.058458e-14
   outer loop
     vertex  3.865000e+02 -5.039072e+02 -2.611670e+02
     vertex  3.865000e+02 -5.039072e+02 -2.588261e+02
     vertex  3.857578e+02 -5.043717e+02 -2.592974e+02
   endloop
 endfacet
 facet normal  4.726475e-01 -8.735175e-01 -1.164971e-01
   outer loop
     vertex  3.854231e+02 -5.043717e+02 -2.620532e+02
     vertex  3.865000e+02 -5.039072e+02 -2.611670e+02
     vertex  3.857578e+02 -5.043717e+02 -2.606957e+02
   endloop
 endfacet
 facet normal  4.357727e-01 -8.705133e-01 -2.287112e-01
   outer loop
     vertex  3.865000e+02 -5.033870e+02 -2.637493e+02
     vertex  3.854231e+02 -5.043717e+02 -2.620532e+02
     vertex  3.847733e+02 -5.043717e+02 -2.632913e+02
   endloop
 endfacet
 facet normal  5.051720e-01 -8.460233e-01 -1.704283e-01
   outer loop
     vertex  3.865000e+02 -5.033870e+02 -2.637493e+02
     vertex  3.865000e+02 -5.039072e+02 -2.611670e+02
     vertex  3.854231e+02 -5.043717e+02 -2.620532e+02
   endloop
 endfacet
 facet normal  3.835562e-01 -8.587316e-01 -3.398011e-01
   outer loop
     vertex  3.842637e+02 -5.039072e+02 -2.650405e+02
     vertex  3.847733e+02 -5.043717e+02 -2.632913e+02
     vertex  3.838462e+02 -5.043717e+02 -2.643379e+02
   endloop
 endfacet
 facet normal  3.955597e-01 -8.525295e-01 -3.416517e-01
   outer loop
     vertex  3.842637e+02 -5.039072e+02 -2.650405e+02
     vertex  3.865000e+02 -5.033870e+02 -2.637493e+02
     vertex  3.847733e+02 -5.043717e+02 -2.632913e+02
   endloop
 endfacet
 facet normal  2.811829e-01 -8.689022e-01 -4.073637e-01
   outer loop
     vertex  3.826954e+02 -5.043717e+02 -2.651322e+02
     vertex  3.842637e+02 -5.039072e+02 -2.650405e+02
     vertex  3.838462e+02 -5.043717e+02 -2.643379e+02
   endloop
 endfacet
 facet normal  1.706858e-01 -8.765335e-01 -4.500616e-01
   outer loop
     vertex  3.822364e+02 -5.039072e+02 -2.662109e+02
     vertex  3.826954e+02 -5.043717e+02 -2.651322e+02
     vertex  3.813881e+02 -5.043717e+02 -2.656280e+02
   endloop
 endfacet
 facet normal  2.751723e-01 -8.349377e-01 -4.766124e-01
   outer loop
     vertex  3.822364e+02 -5.039072e+02 -2.662109e+02
     vertex  3.842637e+02 -5.039072e+02 -2.650405e+02
     vertex  3.826954e+02 -5.043717e+02 -2.651322e+02
   endloop
 endfacet
 facet normal -6.059941e-02 -8.644338e-01 -4.990811e-01
   outer loop
     vertex  3.800000e+02 -5.033870e+02 -2.675021e+02
     vertex  3.800000e+02 -5.043717e+02 -2.657965e+02
     vertex  3.786120e+02 -5.043717e+02 -2.656280e+02
   endloop
 endfacet
 facet normal  6.059941e-02 -8.644338e-01 -4.990811e-01
   outer loop
     vertex  3.800000e+02 -5.033870e+02 -2.675021e+02
     vertex  3.813881e+02 -5.043717e+02 -2.656280e+02
     vertex  3.800000e+02 -5.043717e+02 -2.657965e+02
   endloop
 endfacet
 facet normal  1.046118e-01 -8.463855e-01 -5.221954e-01
   outer loop
     vertex  3.800000e+02 -5.033870e+02 -2.675021e+02
     vertex  3.822364e+02 -5.039072e+02 -2.662109e+02
     vertex  3.813881e+02 -5.043717e+02 -2.656280e+02
   endloop
 endfacet
 facet normal -1.706858e-01 -8.765335e-01 -4.500616e-01
   outer loop
     vertex  3.777637e+02 -5.039072e+02 -2.662109e+02
     vertex  3.786120e+02 -5.043717e+02 -2.656280e+02
     vertex  3.773046e+02 -5.043717e+02 -2.651322e+02
   endloop
 endfacet
 facet normal -1.046118e-01 -8.463855e-01 -5.221954e-01
   outer loop
     vertex  3.777637e+02 -5.039072e+02 -2.662109e+02
     vertex  3.800000e+02 -5.033870e+02 -2.675021e+02
     vertex  3.786120e+02 -5.043717e+02 -2.656280e+02
   endloop
 endfacet
 facet normal -2.751723e-01 -8.349377e-01 -4.766124e-01
   outer loop
     vertex  3.757364e+02 -5.039072e+02 -2.650405e+02
     vertex  3.777637e+02 -5.039072e+02 -2.662109e+02
     vertex  3.773046e+02 -5.043717e+02 -2.651322e+02
   endloop
 endfacet
 facet normal -2.811829e-01 -8.689022e-01 -4.073637e-01
   outer loop
     vertex  3.757364e+02 -5.039072e+02 -2.650405e+02
     vertex  3.773046e+02 -5.043717e+02 -2.651322e+02
     vertex  3.761539e+02 -5.043717e+02 -2.643379e+02
   endloop
 endfacet
 facet normal -3.835562e-01 -8.587316e-01 -3.398011e-01
   outer loop
     vertex  3.752267e+02 -5.043717e+02 -2.632913e+02
     vertex  3.757364e+02 -5.039072e+02 -2.650405e+02
     vertex  3.761539e+02 -5.043717e+02 -2.643379e+02
   endloop
 endfacet
 facet normal -3.955597e-01 -8.525295e-01 -3.416517e-01
   outer loop
     vertex  3.735000e+02 -5.033870e+02 -2.637493e+02
     vertex  3.757364e+02 -5.039072e+02 -2.650405e+02
     vertex  3.752267e+02 -5.043717e+02 -2.632913e+02
   endloop
 endfacet
 facet normal -4.357727e-01 -8.705133e-01 -2.287112e-01
   outer loop
     vertex  3.735000e+02 -5.033870e+02 -2.637493e+02
     vertex  3.752267e+02 -5.043717e+02 -2.632913e+02
     vertex  3.745769e+02 -5.043717e+02 -2.620532e+02
   endloop
 endfacet
 facet normal -5.051720e-01 -8.460233e-01 -1.704283e-01
   outer loop
     vertex  3.735000e+02 -5.039072e+02 -2.611670e+02
     vertex  3.735000e+02 -5.033870e+02 -2.637493e+02
     vertex  3.745769e+02 -5.043717e+02 -2.620532e+02
   endloop
 endfacet
 facet normal -4.726475e-01 -8.735175e-01 -1.164971e-01
   outer loop
     vertex  3.735000e+02 -5.039072e+02 -2.611670e+02
     vertex  3.745769e+02 -5.043717e+02 -2.620532e+02
     vertex  3.742423e+02 -5.043717e+02 -2.606957e+02
   endloop
 endfacet
 facet normal -5.304680e-01 -8.477050e-01 -0.000000e+00
   outer loop
     vertex  3.735000e+02 -5.039072e+02 -2.588261e+02
     vertex  3.735000e+02 -5.039072e+02 -2.611670e+02
     vertex  3.742423e+02 -5.043717e+02 -2.606957e+02
   endloop
 endfacet
 facet normal -5.304680e-01 -8.477050e-01  2.121354e-17
   outer loop
     vertex  3.735000e+02 -5.039072e+02 -2.588261e+02
     vertex  3.742423e+02 -5.043717e+02 -2.606957e+02
     vertex  3.742423e+02 -5.043717e+02 -2.592974e+02
   endloop
 endfacet
 facet normal -4.726475e-01 -8.735175e-01  1.164971e-01
   outer loop
     vertex  3.745769e+02 -5.043717e+02 -2.579398e+02
     vertex  3.735000e+02 -5.039072e+02 -2.588261e+02
     vertex  3.742423e+02 -5.043717e+02 -2.592974e+02
   endloop
 endfacet
 facet normal -5.051720e-01 -8.460233e-01  1.704283e-01
   outer loop
     vertex  3.735000e+02 -5.033870e+02 -2.562438e+02
     vertex  3.735000e+02 -5.039072e+02 -2.588261e+02
     vertex  3.745769e+02 -5.043717e+02 -2.579398e+02
   endloop
 endfacet
 facet normal -4.357727e-01 -8.705133e-01  2.287112e-01
   outer loop
     vertex  3.735000e+02 -5.033870e+02 -2.562438e+02
     vertex  3.745769e+02 -5.043717e+02 -2.579398e+02
     vertex  3.752267e+02 -5.043717e+02 -2.567018e+02
   endloop
 endfacet
 facet normal -3.835562e-01 -8.587316e-01  3.398011e-01
   outer loop
     vertex  3.757364e+02 -5.039072e+02 -2.549526e+02
     vertex  3.752267e+02 -5.043717e+02 -2.567018e+02
     vertex  3.761539e+02 -5.043717e+02 -2.556552e+02
   endloop
 endfacet
 facet normal -3.955597e-01 -8.525295e-01  3.416517e-01
   outer loop
     vertex  3.757364e+02 -5.039072e+02 -2.549526e+02
     vertex  3.735000e+02 -5.033870e+02 -2.562438e+02
     vertex  3.752267e+02 -5.043717e+02 -2.567018e+02
   endloop
 endfacet
 facet normal -2.811829e-01 -8.689022e-01  4.073637e-01
   outer loop
     vertex  3.773046e+02 -5.043717e+02 -2.548609e+02
     vertex  3.757364e+02 -5.039072e+02 -2.549526e+02
     vertex  3.761539e+02 -5.043717e+02 -2.556552e+02
   endloop
 endfacet
 facet normal -1.706858e-01 -8.765335e-01  4.500616e-01
   outer loop
     vertex  3.777637e+02 -5.039072e+02 -2.537821e+02
     vertex  3.773046e+02 -5.043717e+02 -2.548609e+02
     vertex  3.786120e+02 -5.043717e+02 -2.543651e+02
   endloop
 endfacet
 facet normal -2.751723e-01 -8.349377e-01  4.766124e-01
   outer loop
     vertex  3.777637e+02 -5.039072e+02 -2.537821e+02
     vertex  3.757364e+02 -5.039072e+02 -2.549526e+02
     vertex  3.773046e+02 -5.043717e+02 -2.548609e+02
   endloop
 endfacet
 facet normal -6.059941e-02 -8.644338e-01  4.990811e-01
   outer loop
     vertex  3.800000e+02 -5.033870e+02 -2.524910e+02
     vertex  3.786120e+02 -5.043717e+02 -2.543651e+02
     vertex  3.800000e+02 -5.043717e+02 -2.541965e+02
   endloop
 endfacet
 facet normal -1.046118e-01 -8.463855e-01  5.221954e-01
   outer loop
     vertex  3.800000e+02 -5.033870e+02 -2.524910e+02
     vertex  3.777637e+02 -5.039072e+02 -2.537821e+02
     vertex  3.786120e+02 -5.043717e+02 -2.543651e+02
   endloop
 endfacet
 facet normal -6.059941e-02  8.644338e-01  4.990811e-01
   outer loop
     vertex  3.800000e+02 -4.985564e+02 -2.524910e+02
     vertex  3.800000e+02 -4.975717e+02 -2.541965e+02
     vertex  3.786120e+02 -4.975717e+02 -2.543651e+02
   endloop
 endfacet
 facet normal -1.706858e-01  8.765335e-01  4.500616e-01
   outer loop
     vertex  3.777637e+02 -4.980362e+02 -2.537821e+02
     vertex  3.786120e+02 -4.975717e+02 -2.543651e+02
     vertex  3.773046e+02 -4.975717e+02 -2.548609e+02
   endloop
 endfacet
 facet normal -1.046118e-01  8.463855e-01  5.221954e-01
   outer loop
     vertex  3.777637e+02 -4.980362e+02 -2.537821e+02
     vertex  3.800000e+02 -4.985564e+02 -2.524910e+02
     vertex  3.786120e+02 -4.975717e+02 -2.543651e+02
   endloop
 endfacet
 facet normal -2.811829e-01  8.689022e-01  4.073637e-01
   outer loop
     vertex  3.757364e+02 -4.980362e+02 -2.549526e+02
     vertex  3.773046e+02 -4.975717e+02 -2.548609e+02
     vertex  3.761539e+02 -4.975717e+02 -2.556552e+02
   endloop
 endfacet
 facet normal -2.751723e-01  8.349377e-01  4.766124e-01
   outer loop
     vertex  3.757364e+02 -4.980362e+02 -2.549526e+02
     vertex  3.777637e+02 -4.980362e+02 -2.537821e+02
     vertex  3.773046e+02 -4.975717e+02 -2.548609e+02
   endloop
 endfacet
 facet normal -3.835562e-01  8.587316e-01  3.398011e-01
   outer loop
     vertex  3.752267e+02 -4.975717e+02 -2.567018e+02
     vertex  3.757364e+02 -4.980362e+02 -2.549526e+02
     vertex  3.761539e+02 -4.975717e+02 -2.556552e+02
   endloop
 endfacet
 facet normal -4.357727e-01  8.705133e-01  2.287112e-01
   outer loop
     vertex  3.735000e+02 -4.985564e+02 -2.562438e+02
     vertex  3.752267e+02 -4.975717e+02 -2.567018e+02
     vertex  3.745769e+02 -4.975717e+02 -2.579398e+02
   endloop
 endfacet
 facet normal -3.955597e-01  8.525295e-01  3.416517e-01
   outer loop
     vertex  3.735000e+02 -4.985564e+02 -2.562438e+02
     vertex  3.757364e+02 -4.980362e+02 -2.549526e+02
     vertex  3.752267e+02 -4.975717e+02 -2.567018e+02
   endloop
 endfacet
 facet normal -4.726475e-01  8.735175e-01  1.164971e-01
   outer loop
     vertex  3.735000e+02 -4.980362e+02 -2.588261e+02
     vertex  3.745769e+02 -4.975717e+02 -2.579398e+02
     vertex  3.742423e+02 -4.975717e+02 -2.592974e+02
   endloop
 endfacet
 facet normal -5.051720e-01  8.460233e-01  1.704283e-01
   outer loop
     vertex  3.735000e+02 -4.980362e+02 -2.588261e+02
     vertex  3.735000e+02 -4.985564e+02 -2.562438e+02
     vertex  3.745769e+02 -4.975717e+02 -2.579398e+02
   endloop
 endfacet
 facet normal -5.304680e-01  8.477050e-01 -2.121354e-17
   outer loop
     vertex  3.735000e+02 -4.980362e+02 -2.611670e+02
     vertex  3.742423e+02 -4.975717e+02 -2.592974e+02
     vertex  3.742423e+02 -4.975717e+02 -2.606957e+02
   endloop
 endfacet
 facet normal -5.304680e-01  8.477050e-01  2.576240e-14
   outer loop
     vertex  3.735000e+02 -4.980362e+02 -2.611670e+02
     vertex  3.735000e+02 -4.980362e+02 -2.588261e+02
     vertex  3.742423e+02 -4.975717e+02 -2.592974e+02
   endloop
 endfacet
 facet normal -4.726475e-01  8.735175e-01 -1.164971e-01
   outer loop
     vertex  3.745769e+02 -4.975717e+02 -2.620532e+02
     vertex  3.735000e+02 -4.980362e+02 -2.611670e+02
     vertex  3.742423e+02 -4.975717e+02 -2.606957e+02
   endloop
 endfacet
 facet normal -4.357727e-01  8.705133e-01 -2.287112e-01
   outer loop
     vertex  3.735000e+02 -4.985564e+02 -2.637493e+02
     vertex  3.745769e+02 -4.975717e+02 -2.620532e+02
     vertex  3.752267e+02 -4.975717e+02 -2.632913e+02
   endloop
 endfacet
 facet normal -5.051720e-01  8.460233e-01 -1.704283e-01
   outer loop
     vertex  3.735000e+02 -4.985564e+02 -2.637493e+02
     vertex  3.735000e+02 -4.980362e+02 -2.611670e+02
     vertex  3.745769e+02 -4.975717e+02 -2.620532e+02
   endloop
 endfacet
 facet normal -3.835562e-01  8.587316e-01 -3.398011e-01
   outer loop
     vertex  3.757364e+02 -4.980362e+02 -2.650405e+02
     vertex  3.752267e+02 -4.975717e+02 -2.632913e+02
     vertex  3.761539e+02 -4.975717e+02 -2.643379e+02
   endloop
 endfacet
 facet normal -3.955597e-01  8.525295e-01 -3.416517e-01
   outer loop
     vertex  3.757364e+02 -4.980362e+02 -2.650405e+02
     vertex  3.735000e+02 -4.985564e+02 -2.637493e+02
     vertex  3.752267e+02 -4.975717e+02 -2.632913e+02
   endloop
 endfacet
 facet normal -2.811829e-01  8.689022e-01 -4.073637e-01
   outer loop
     vertex  3.773046e+02 -4.975717e+02 -2.651322e+02
     vertex  3.757364e+02 -4.980362e+02 -2.650405e+02
     vertex  3.761539e+02 -4.975717e+02 -2.643379e+02
   endloop
 endfacet
 facet normal -1.706858e-01  8.765335e-01 -4.500616e-01
   outer loop
     vertex  3.777637e+02 -4.980362e+02 -2.662109e+02
     vertex  3.773046e+02 -4.975717e+02 -2.651322e+02
     vertex  3.786120e+02 -4.975717e+02 -2.656280e+02
   endloop
 endfacet
 facet normal -2.751723e-01  8.349377e-01 -4.766124e-01
   outer loop
     vertex  3.777637e+02 -4.980362e+02 -2.662109e+02
     vertex  3.757364e+02 -4.980362e+02 -2.650405e+02
     vertex  3.773046e+02 -4.975717e+02 -2.651322e+02
   endloop
 endfacet
 facet normal  6.059941e-02  8.644338e-01 -4.990811e-01
   outer loop
     vertex  3.800000e+02 -4.985564e+02 -2.675021e+02
     vertex  3.800000e+02 -4.975717e+02 -2.657965e+02
     vertex  3.813881e+02 -4.975717e+02 -2.656280e+02
   endloop
 endfacet
 facet normal -6.059941e-02  8.644338e-01 -4.990811e-01
   outer loop
     vertex  3.800000e+02 -4.985564e+02 -2.675021e+02
     vertex  3.786120e+02 -4.975717e+02 -2.656280e+02
     vertex  3.800000e+02 -4.975717e+02 -2.657965e+02
   endloop
 endfacet
 facet normal -1.046118e-01  8.463855e-01 -5.221954e-01
   outer loop
     vertex  3.800000e+02 -4.985564e+02 -2.675021e+02
     vertex  3.777637e+02 -4.980362e+02 -2.662109e+02
     vertex  3.786120e+02 -4.975717e+02 -2.656280e+02
   endloop
 endfacet
 facet normal  1.706858e-01  8.765335e-01 -4.500616e-01
   outer loop
     vertex  3.822364e+02 -4.980362e+02 -2.662109e+02
     vertex  3.813881e+02 -4.975717e+02 -2.656280e+02
     vertex  3.826954e+02 -4.975717e+02 -2.651322e+02
   endloop
 endfacet
 facet normal  1.046118e-01  8.463855e-01 -5.221954e-01
   outer loop
     vertex  3.822364e+02 -4.980362e+02 -2.662109e+02
     vertex  3.800000e+02 -4.985564e+02 -2.675021e+02
     vertex  3.813881e+02 -4.975717e+02 -2.656280e+02
   endloop
 endfacet
 facet normal  2.751723e-01  8.349377e-01 -4.766124e-01
   outer loop
     vertex  3.842637e+02 -4.980362e+02 -2.650405e+02
     vertex  3.822364e+02 -4.980362e+02 -2.662109e+02
     vertex  3.826954e+02 -4.975717e+02 -2.651322e+02
   endloop
 endfacet
 facet normal  2.811829e-01  8.689022e-01 -4.073637e-01
   outer loop
     vertex  3.842637e+02 -4.980362e+02 -2.650405e+02
     vertex  3.826954e+02 -4.975717e+02 -2.651322e+02
     vertex  3.838462e+02 -4.975717e+02 -2.643379e+02
   endloop
 endfacet
 facet normal  3.835562e-01  8.587316e-01 -3.398011e-01
   outer loop
     vertex  3.847733e+02 -4.975717e+02 -2.632913e+02
     vertex  3.842637e+02 -4.980362e+02 -2.650405e+02
     vertex  3.838462e+02 -4.975717e+02 -2.643379e+02
   endloop
 endfacet
 facet normal  3.955597e-01  8.525295e-01 -3.416517e-01
   outer loop
     vertex  3.865000e+02 -4.985564e+02 -2.637493e+02
     vertex  3.842637e+02 -4.980362e+02 -2.650405e+02
     vertex  3.847733e+02 -4.975717e+02 -2.632913e+02
   endloop
 endfacet
 facet normal  4.357727e-01  8.705133e-01 -2.287112e-01
   outer loop
     vertex  3.865000e+02 -4.985564e+02 -2.637493e+02
     vertex  3.847733e+02 -4.975717e+02 -2.632913e+02
     vertex  3.854231e+02 -4.975717e+02 -2.620532e+02
   endloop
 endfacet
 facet normal  5.051720e-01  8.460233e-01 -1.704283e-01
   outer loop
     vertex  3.865000e+02 -4.980362e+02 -2.611670e+02
     vertex  3.865000e+02 -4.985564e+02 -2.637493e+02
     vertex  3.854231e+02 -4.975717e+02 -2.620532e+02
   endloop
 endfacet
 facet normal  4.726475e-01  8.735175e-01 -1.164971e-01
   outer loop
     vertex  3.865000e+02 -4.980362e+02 -2.611670e+02
     vertex  3.854231e+02 -4.975717e+02 -2.620532e+02
     vertex  3.857578e+02 -4.975717e+02 -2.606957e+02
   endloop
 endfacet
 facet normal  5.304680e-01  8.477050e-01 -1.288120e-14
   outer loop
     vertex  3.865000e+02 -4.980362e+02 -2.588261e+02
     vertex  3.865000e+02 -4.980362e+02 -2.611670e+02
     vertex  3.857578e+02 -4.975717e+02 -2.606957e+02
   endloop
 endfacet
 facet normal  5.304680e-01  8.477050e-01 -8.241601e-18
   outer loop
     vertex  3.865000e+02 -4.980362e+02 -2.588261e+02
     vertex  3.857578e+02 -4.975717e+02 -2.606957e+02
     vertex  3.857578e+02 -4.975717e+02 -2.592974e+02
   endloop
 endfacet
 facet normal  4.726475e-01  8.735175e-01  1.164971e-01
   outer loop
     vertex  3.854231e+02 -4.975717e+02 -2.579398e+02
     vertex  3.865000e+02 -4.980362e+02 -2.588261e+02
     vertex  3.857578e+02 -4.975717e+02 -2.592974e+02
   endloop
 endfacet
 facet normal  5.051720e-01  8.460233e-01  1.704283e-01
   outer loop
     vertex  3.865000e+02 -4.985564e+02 -2.562438e+02
     vertex  3.865000e+02 -4.980362e+02 -2.588261e+02
     vertex  3.854231e+02 -4.975717e+02 -2.579398e+02
   endloop
 endfacet
 facet normal  4.357727e-01  8.705133e-01  2.287112e-01
   outer loop
     vertex  3.865000e+02 -4.985564e+02 -2.562438e+02
     vertex  3.854231e+02 -4.975717e+02 -2.579398e+02
     vertex  3.847733e+02 -4.975717e+02 -2.567018e+02
   endloop
 endfacet
 facet normal  3.835562e-01  8.587316e-01  3.398011e-01
   outer loop
     vertex  3.842637e+02 -4.980362e+02 -2.549526e+02
     vertex  3.847733e+02 -4.975717e+02 -2.567018e+02
     vertex  3.838462e+02 -4.975717e+02 -2.556552e+02
   endloop
 endfacet
 facet normal  3.955597e-01  8.525295e-01  3.416517e-01
   outer loop
     vertex  3.842637e+02 -4.980362e+02 -2.549526e+02
     vertex  3.865000e+02 -4.985564e+02 -2.562438e+02
     vertex  3.847733e+02 -4.975717e+02 -2.567018e+02
   endloop
 endfacet
 facet normal  2.811829e-01  8.689022e-01  4.073637e-01
   outer loop
     vertex  3.826954e+02 -4.975717e+02 -2.548609e+02
     vertex  3.842637e+02 -4.980362e+02 -2.549526e+02
     vertex  3.838462e+02 -4.975717e+02 -2.556552e+02
   endloop
 endfacet
 facet normal  1.706858e-01  8.765335e-01  4.500616e-01
   outer loop
     vertex  3.822364e+02 -4.980362e+02 -2.537821e+02
     vertex  3.826954e+02 -4.975717e+02 -2.548609e+02
     vertex  3.813881e+02 -4.975717e+02 -2.543651e+02
   endloop
 endfacet
 facet normal  2.751723e-01  8.349377e-01  4.766124e-01
   outer loop
     vertex  3.822364e+02 -4.980362e+02 -2.537821e+02
     vertex  3.842637e+02 -4.980362e+02 -2.549526e+02
     vertex  3.826954e+02 -4.975717e+02 -2.548609e+02
   endloop
 endfacet
 facet normal  6.059941e-02  8.644338e-01  4.990811e-01
   outer loop
     vertex  3.800000e+02 -4.985564e+02 -2.524910e+02
     vertex  3.813881e+02 -4.975717e+02 -2.543651e+02
     vertex  3.800000e+02 -4.975717e+02 -2.541965e+02
   endloop
 endfacet
 facet normal  1.046118e-01  8.463855e-01  5.221954e-01
   outer loop
     vertex  3.800000e+02 -4.985564e+02 -2.524910e+02
     vertex  3.822364e+02 -4.980362e+02 -2.537821e+02
     vertex  3.813881e+02 -4.975717e+02 -2.543651e+02
   endloop
 endfacet
 facet normal  5.000000e-01 -4.841036e-15 -8.660254e-01
   outer loop
     vertex  3.842637e+02 -4.980362e+02 -2.650405e+02
     vertex  3.865000e+02 -5.033870e+02 -2.637493e+02
     vertex  3.842637e+02 -5.039072e+02 -2.650405e+02
   endloop
 endfacet
 facet normal  5.000000e-01 -1.018333e-14 -8.660254e-01
   outer loop
     vertex  3.842637e+02 -4.980362e+02 -2.650405e+02
     vertex  3.865000e+02 -4.985564e+02 -2.637493e+02
     vertex  3.865000e+02 -5.033870e+02 -2.637493e+02
   endloop
 endfacet
 facet normal  5.000000e-01  0.000000e+00 -8.660254e-01
   outer loop
     vertex  3.822364e+02 -4.980362e+02 -2.662109e+02
     vertex  3.842637e+02 -5.039072e+02 -2.650405e+02
     vertex  3.822364e+02 -5.039072e+02 -2.662109e+02
   endloop
 endfacet
 facet normal  5.000000e-01  0.000000e+00 -8.660254e-01
   outer loop
     vertex  3.822364e+02 -4.980362e+02 -2.662109e+02
     vertex  3.822364e+02 -5.039072e+02 -2.662109e+02
     vertex  3.800000e+02 -5.033870e+02 -2.675021e+02
   endloop
 endfacet
 facet normal  5.000000e-01 -4.836934e-15 -8.660254e-01
   outer loop
     vertex  3.822364e+02 -4.980362e+02 -2.662109e+02
     vertex  3.842637e+02 -4.980362e+02 -2.650405e+02
     vertex  3.842637e+02 -5.039072e+02 -2.650405e+02
   endloop
 endfacet
 facet normal  5.000000e-01 -5.883685e-15 -8.660254e-01
   outer loop
     vertex  3.800000e+02 -4.985564e+02 -2.675021e+02
     vertex  3.822364e+02 -4.980362e+02 -2.662109e+02
     vertex  3.800000e+02 -5.033870e+02 -2.675021e+02
   endloop
 endfacet
 facet normal  1.000000e+00 -1.176737e-14 -2.370494e-15
   outer loop
     vertex  3.865000e+02 -5.033870e+02 -2.562438e+02
     vertex  3.865000e+02 -4.980362e+02 -2.588261e+02
     vertex  3.865000e+02 -4.985564e+02 -2.562438e+02
   endloop
 endfacet
 facet normal  1.000000e+00 -1.936415e-14 -1.811165e-14
   outer loop
     vertex  3.865000e+02 -5.039072e+02 -2.588261e+02
     vertex  3.865000e+02 -4.980362e+02 -2.588261e+02
     vertex  3.865000e+02 -5.033870e+02 -2.562438e+02
   endloop
 endfacet
 facet normal  1.000000e+00 -9.682073e-15 -4.207455e-14
   outer loop
     vertex  3.865000e+02 -5.039072e+02 -2.611670e+02
     vertex  3.865000e+02 -4.985564e+02 -2.637493e+02
     vertex  3.865000e+02 -4.980362e+02 -2.611670e+02
   endloop
 endfacet
 facet normal  1.000000e+00 -9.682073e-15 -2.428271e-14
   outer loop
     vertex  3.865000e+02 -5.039072e+02 -2.611670e+02
     vertex  3.865000e+02 -4.980362e+02 -2.611670e+02
     vertex  3.865000e+02 -4.980362e+02 -2.588261e+02
   endloop
 endfacet
 facet normal  1.000000e+00 -1.936415e-14  4.702140e-28
   outer loop
     vertex  3.865000e+02 -5.039072e+02 -2.611670e+02
     vertex  3.865000e+02 -4.980362e+02 -2.588261e+02
     vertex  3.865000e+02 -5.039072e+02 -2.588261e+02
   endloop
 endfacet
 facet normal  1.000000e+00 -2.590291e-28 -2.201248e-14
   outer loop
     vertex  3.865000e+02 -5.033870e+02 -2.637493e+02
     vertex  3.865000e+02 -4.985564e+02 -2.637493e+02
     vertex  3.865000e+02 -5.039072e+02 -2.611670e+02
   endloop
 endfacet
 facet normal -5.000000e-01 -0.000000e+00 -8.660254e-01
   outer loop
     vertex  3.757364e+02 -4.980362e+02 -2.650405e+02
     vertex  3.757364e+02 -5.039072e+02 -2.650405e+02
     vertex  3.735000e+02 -5.033870e+02 -2.637493e+02
   endloop
 endfacet
 facet normal -5.000000e-01  1.111137e-17 -8.660254e-01
   outer loop
     vertex  3.757364e+02 -4.980362e+02 -2.650405e+02
     vertex  3.735000e+02 -5.033870e+02 -2.637493e+02
     vertex  3.735000e+02 -4.985564e+02 -2.637493e+02
   endloop
 endfacet
 facet normal -5.000000e-01 -8.384921e-15 -8.660254e-01
   outer loop
     vertex  3.777637e+02 -4.980362e+02 -2.662109e+02
     vertex  3.800000e+02 -5.033870e+02 -2.675021e+02
     vertex  3.777637e+02 -5.039072e+02 -2.662109e+02
   endloop
 endfacet
 facet normal -5.000000e-01 -8.384921e-15 -8.660254e-01
   outer loop
     vertex  3.777637e+02 -4.980362e+02 -2.662109e+02
     vertex  3.777637e+02 -5.039072e+02 -2.662109e+02
     vertex  3.757364e+02 -5.039072e+02 -2.650405e+02
   endloop
 endfacet
 facet normal -5.000000e-01 -8.930957e-18 -8.660254e-01
   outer loop
     vertex  3.777637e+02 -4.980362e+02 -2.662109e+02
     vertex  3.757364e+02 -5.039072e+02 -2.650405e+02
     vertex  3.757364e+02 -4.980362e+02 -2.650405e+02
   endloop
 endfacet
 facet normal -5.000000e-01  5.883685e-15 -8.660254e-01
   outer loop
     vertex  3.800000e+02 -4.985564e+02 -2.675021e+02
     vertex  3.800000e+02 -5.033870e+02 -2.675021e+02
     vertex  3.777637e+02 -4.980362e+02 -2.662109e+02
   endloop
 endfacet
 facet normal -1.000000e+00  1.936415e-14  1.811165e-14
   outer loop
     vertex  3.735000e+02 -4.980362e+02 -2.588261e+02
     vertex  3.735000e+02 -5.039072e+02 -2.588261e+02
     vertex  3.735000e+02 -5.033870e+02 -2.562438e+02
   endloop
 endfacet
 facet normal -1.000000e+00  1.176737e-14  2.370494e-15
   outer loop
     vertex  3.735000e+02 -4.980362e+02 -2.588261e+02
     vertex  3.735000e+02 -5.033870e+02 -2.562438e+02
     vertex  3.735000e+02 -4.985564e+02 -2.562438e+02
   endloop
 endfacet
 facet normal -1.000000e+00  0.000000e+00  0.000000e+00
   outer loop
     vertex  3.735000e+02 -4.980362e+02 -2.611670e+02
     vertex  3.735000e+02 -5.039072e+02 -2.611670e+02
     vertex  3.735000e+02 -5.039072e+02 -2.588261e+02
   endloop
 endfacet
 facet normal -1.000000e+00  1.936415e-14  4.856543e-14
   outer loop
     vertex  3.735000e+02 -4.980362e+02 -2.611670e+02
     vertex  3.735000e+02 -5.039072e+02 -2.588261e+02
     vertex  3.735000e+02 -4.980362e+02 -2.588261e+02
   endloop
 endfacet
 facet normal -1.000000e+00  0.000000e+00  2.201248e-14
   outer loop
     vertex  3.735000e+02 -4.985564e+02 -2.637493e+02
     vertex  3.735000e+02 -5.033870e+02 -2.637493e+02
     vertex  3.735000e+02 -5.039072e+02 -2.611670e+02
   endloop
 endfacet
 facet normal -1.000000e+00  0.000000e+00  2.201248e-14
   outer loop
     vertex  3.735000e+02 -4.985564e+02 -2.637493e+02
     vertex  3.735000e+02 -5.039072e+02 -2.611670e+02
     vertex  3.735000e+02 -4.980362e+02 -2.611670e+02
   endloop
 endfacet
 facet normal  5.000000e-01 -7.882644e-16  8.660254e-01
   outer loop
     vertex  3.800000e+02 -5.033870e+02 -2.524910e+02
     vertex  3.822364e+02 -4.980362e+02 -2.537821e+02
     vertex  3.800000e+02 -4.985564e+02 -2.524910e+02
   endloop
 endfacet
 facet normal  5.000000e-01 -0.000000e+00  8.660254e-01
   outer loop
     vertex  3.822364e+02 -5.039072e+02 -2.537821e+02
     vertex  3.822364e+02 -4.980362e+02 -2.537821e+02
     vertex  3.800000e+02 -5.033870e+02 -2.524910e+02
   endloop
 endfacet
 facet normal  5.000000e-01 -6.485759e-16  8.660254e-01
   outer loop
     vertex  3.842637e+02 -5.039072e+02 -2.549526e+02
     vertex  3.842637e+02 -4.980362e+02 -2.549526e+02
     vertex  3.822364e+02 -4.980362e+02 -2.537821e+02
   endloop
 endfacet
 facet normal  5.000000e-01  1.517073e-17  8.660254e-01
   outer loop
     vertex  3.842637e+02 -5.039072e+02 -2.549526e+02
     vertex  3.822364e+02 -4.980362e+02 -2.537821e+02
     vertex  3.822364e+02 -5.039072e+02 -2.537821e+02
   endloop
 endfacet
 facet normal  5.000000e-01  4.307157e-15  8.660254e-01
   outer loop
     vertex  3.865000e+02 -5.033870e+02 -2.562438e+02
     vertex  3.865000e+02 -4.985564e+02 -2.562438e+02
     vertex  3.842637e+02 -4.980362e+02 -2.549526e+02
   endloop
 endfacet
 facet normal  5.000000e-01 -6.571274e-16  8.660254e-01
   outer loop
     vertex  3.865000e+02 -5.033870e+02 -2.562438e+02
     vertex  3.842637e+02 -4.980362e+02 -2.549526e+02
     vertex  3.842637e+02 -5.039072e+02 -2.549526e+02
   endloop
 endfacet
 facet normal -5.000000e-01  4.192461e-15  8.660254e-01
   outer loop
     vertex  3.757364e+02 -4.980362e+02 -2.549526e+02
     vertex  3.735000e+02 -5.033870e+02 -2.562438e+02
     vertex  3.757364e+02 -5.039072e+02 -2.549526e+02
   endloop
 endfacet
 facet normal -5.000000e-01  4.192461e-15  8.660254e-01
   outer loop
     vertex  3.757364e+02 -4.980362e+02 -2.549526e+02
     vertex  3.757364e+02 -5.039072e+02 -2.549526e+02
     vertex  3.777637e+02 -5.039072e+02 -2.537821e+02
   endloop
 endfacet
 facet normal -5.000000e-01  5.882147e-15  8.660254e-01
   outer loop
     vertex  3.757364e+02 -4.980362e+02 -2.549526e+02
     vertex  3.735000e+02 -4.985564e+02 -2.562438e+02
     vertex  3.735000e+02 -5.033870e+02 -2.562438e+02
   endloop
 endfacet
 facet normal -5.000000e-01  9.033497e-15  8.660254e-01
   outer loop
     vertex  3.777637e+02 -4.980362e+02 -2.537821e+02
     vertex  3.777637e+02 -5.039072e+02 -2.537821e+02
     vertex  3.800000e+02 -5.033870e+02 -2.524910e+02
   endloop
 endfacet
 facet normal -5.000000e-01  9.033497e-15  8.660254e-01
   outer loop
     vertex  3.777637e+02 -4.980362e+02 -2.537821e+02
     vertex  3.757364e+02 -4.980362e+02 -2.549526e+02
     vertex  3.777637e+02 -5.039072e+02 -2.537821e+02
   endloop
 endfacet
 facet normal -5.000000e-01  1.097911e-14  8.660254e-01
   outer loop
     vertex  3.800000e+02 -4.985564e+02 -2.524910e+02
     vertex  3.777637e+02 -4.980362e+02 -2.537821e+02
     vertex  3.800000e+02 -5.033870e+02 -2.524910e+02
   endloop
 endfacet
endsolid
