solid 
 facet normal  7.045528e-01 -7.044763e-01 -8.554820e-02
   outer loop
     vertex  5.805580e+02  4.749203e+02  9.000000e+00
     vertex  5.796378e+02  4.740000e+02  9.000000e+00
     vertex  5.795193e+02  4.740000e+02  8.023634e+00
   endloop
 endfacet
 facet normal  6.636068e-01 -7.044763e-01 -2.516729e-01
   outer loop
     vertex  5.804127e+02  4.749203e+02  7.803422e+00
     vertex  5.795193e+02  4.740000e+02  8.023634e+00
     vertex  5.791705e+02  4.740000e+02  7.104011e+00
   endloop
 endfacet
 facet normal  7.045528e-01 -7.044763e-01 -8.554820e-02
   outer loop
     vertex  5.804127e+02  4.749203e+02  7.803422e+00
     vertex  5.805580e+02  4.749203e+02  9.000000e+00
     vertex  5.795193e+02  4.740000e+02  8.023634e+00
   endloop
 endfacet
 facet normal  5.840943e-01 -7.044763e-01 -4.031712e-01
   outer loop
     vertex  5.799853e+02  4.749203e+02  6.676384e+00
     vertex  5.791705e+02  4.740000e+02  7.104011e+00
     vertex  5.786118e+02  4.740000e+02  6.294576e+00
   endloop
 endfacet
 facet normal  6.636068e-01 -7.044763e-01 -2.516729e-01
   outer loop
     vertex  5.799853e+02  4.749203e+02  6.676384e+00
     vertex  5.804127e+02  4.749203e+02  7.803422e+00
     vertex  5.791705e+02  4.740000e+02  7.104011e+00
   endloop
 endfacet
 facet normal  4.706364e-01 -7.044763e-01 -5.312387e-01
   outer loop
     vertex  5.793006e+02  4.749203e+02  5.684387e+00
     vertex  5.786118e+02  4.740000e+02  6.294576e+00
     vertex  5.778756e+02  4.740000e+02  5.642370e+00
   endloop
 endfacet
 facet normal  5.840943e-01 -7.044763e-01 -4.031712e-01
   outer loop
     vertex  5.793006e+02  4.749203e+02  5.684387e+00
     vertex  5.799853e+02  4.749203e+02  6.676384e+00
     vertex  5.786118e+02  4.740000e+02  6.294576e+00
   endloop
 endfacet
 facet normal  3.298268e-01 -7.044763e-01 -6.284325e-01
   outer loop
     vertex  5.783983e+02  4.749203e+02  4.885081e+00
     vertex  5.778756e+02  4.740000e+02  5.642370e+00
     vertex  5.770047e+02  4.740000e+02  5.185297e+00
   endloop
 endfacet
 facet normal  4.706364e-01 -7.044763e-01 -5.312387e-01
   outer loop
     vertex  5.783983e+02  4.749203e+02  4.885081e+00
     vertex  5.793006e+02  4.749203e+02  5.684387e+00
     vertex  5.778756e+02  4.740000e+02  5.642370e+00
   endloop
 endfacet
 facet normal  1.698489e-01 -7.044763e-01 -6.891041e-01
   outer loop
     vertex  5.773310e+02  4.749203e+02  4.324919e+00
     vertex  5.770047e+02  4.740000e+02  5.185297e+00
     vertex  5.760498e+02  4.740000e+02  4.949922e+00
   endloop
 endfacet
 facet normal  3.298268e-01 -7.044763e-01 -6.284325e-01
   outer loop
     vertex  5.773310e+02  4.749203e+02  4.324919e+00
     vertex  5.783983e+02  4.749203e+02  4.885081e+00
     vertex  5.770047e+02  4.740000e+02  5.185297e+00
   endloop
 endfacet
 facet normal  1.241512e-15 -7.044763e-01 -7.097275e-01
   outer loop
     vertex  5.761607e+02  4.749203e+02  4.036456e+00
     vertex  5.760498e+02  4.740000e+02  4.949922e+00
     vertex  5.750662e+02  4.740000e+02  4.949922e+00
   endloop
 endfacet
 facet normal  1.698489e-01 -7.044763e-01 -6.891041e-01
   outer loop
     vertex  5.761607e+02  4.749203e+02  4.036456e+00
     vertex  5.773310e+02  4.749203e+02  4.324919e+00
     vertex  5.760498e+02  4.740000e+02  4.949922e+00
   endloop
 endfacet
 facet normal -1.698489e-01 -7.044763e-01 -6.891041e-01
   outer loop
     vertex  5.749553e+02  4.749203e+02  4.036456e+00
     vertex  5.750662e+02  4.740000e+02  4.949922e+00
     vertex  5.741113e+02  4.740000e+02  5.185297e+00
   endloop
 endfacet
 facet normal  0.000000e+00 -7.044763e-01 -7.097275e-01
   outer loop
     vertex  5.749553e+02  4.749203e+02  4.036456e+00
     vertex  5.761607e+02  4.749203e+02  4.036456e+00
     vertex  5.750662e+02  4.740000e+02  4.949922e+00
   endloop
 endfacet
 facet normal -3.298268e-01 -7.044763e-01 -6.284325e-01
   outer loop
     vertex  5.737850e+02  4.749203e+02  4.324919e+00
     vertex  5.741113e+02  4.740000e+02  5.185297e+00
     vertex  5.732404e+02  4.740000e+02  5.642370e+00
   endloop
 endfacet
 facet normal -1.698489e-01 -7.044763e-01 -6.891041e-01
   outer loop
     vertex  5.737850e+02  4.749203e+02  4.324919e+00
     vertex  5.749553e+02  4.749203e+02  4.036456e+00
     vertex  5.741113e+02  4.740000e+02  5.185297e+00
   endloop
 endfacet
 facet normal -4.706364e-01 -7.044763e-01 -5.312387e-01
   outer loop
     vertex  5.727177e+02  4.749203e+02  4.885081e+00
     vertex  5.732404e+02  4.740000e+02  5.642370e+00
     vertex  5.725042e+02  4.740000e+02  6.294576e+00
   endloop
 endfacet
 facet normal -3.298268e-01 -7.044763e-01 -6.284325e-01
   outer loop
     vertex  5.727177e+02  4.749203e+02  4.885081e+00
     vertex  5.737850e+02  4.749203e+02  4.324919e+00
     vertex  5.732404e+02  4.740000e+02  5.642370e+00
   endloop
 endfacet
 facet normal -4.706364e-01 -7.044763e-01 -5.312387e-01
   outer loop
     vertex  5.718154e+02  4.749203e+02  5.684387e+00
     vertex  5.727177e+02  4.749203e+02  4.885081e+00
     vertex  5.725042e+02  4.740000e+02  6.294576e+00
   endloop
 endfacet
 facet normal -5.840943e-01 -7.044763e-01 -4.031712e-01
   outer loop
     vertex  5.711307e+02  4.749203e+02  6.676384e+00
     vertex  5.718154e+02  4.749203e+02  5.684387e+00
     vertex  5.725042e+02  4.740000e+02  6.294576e+00
   endloop
 endfacet
 facet normal -5.840943e-01 -7.044763e-01 -4.031712e-01
   outer loop
     vertex  5.711307e+02  4.749203e+02  6.676384e+00
     vertex  5.725042e+02  4.740000e+02  6.294576e+00
     vertex  5.719455e+02  4.740000e+02  7.104011e+00
   endloop
 endfacet
 facet normal -6.636068e-01 -7.044763e-01 -2.516729e-01
   outer loop
     vertex  5.711307e+02  4.749203e+02  6.676384e+00
     vertex  5.719455e+02  4.740000e+02  7.104011e+00
     vertex  5.715967e+02  4.740000e+02  8.023634e+00
   endloop
 endfacet
 facet normal -6.636068e-01 -7.044763e-01 -2.516729e-01
   outer loop
     vertex  5.707033e+02  4.749203e+02  7.803422e+00
     vertex  5.711307e+02  4.749203e+02  6.676384e+00
     vertex  5.715967e+02  4.740000e+02  8.023634e+00
   endloop
 endfacet
 facet normal -7.045528e-01 -7.044763e-01 -8.554820e-02
   outer loop
     vertex  5.705580e+02  4.749203e+02  9.000000e+00
     vertex  5.707033e+02  4.749203e+02  7.803422e+00
     vertex  5.715967e+02  4.740000e+02  8.023634e+00
   endloop
 endfacet
 facet normal -7.045528e-01 -7.044763e-01 -8.554820e-02
   outer loop
     vertex  5.705580e+02  4.749203e+02  9.000000e+00
     vertex  5.715967e+02  4.740000e+02  8.023634e+00
     vertex  5.714782e+02  4.740000e+02  9.000000e+00
   endloop
 endfacet
 facet normal -7.045528e-01 -7.044763e-01  8.554820e-02
   outer loop
     vertex  5.705580e+02  4.749203e+02  9.000000e+00
     vertex  5.714782e+02  4.740000e+02  9.000000e+00
     vertex  5.715967e+02  4.740000e+02  9.976366e+00
   endloop
 endfacet
 facet normal -7.045528e-01 -7.044763e-01  8.554820e-02
   outer loop
     vertex  5.707033e+02  4.749203e+02  1.019658e+01
     vertex  5.705580e+02  4.749203e+02  9.000000e+00
     vertex  5.715967e+02  4.740000e+02  9.976366e+00
   endloop
 endfacet
 facet normal -6.636068e-01 -7.044763e-01  2.516729e-01
   outer loop
     vertex  5.707033e+02  4.749203e+02  1.019658e+01
     vertex  5.715967e+02  4.740000e+02  9.976366e+00
     vertex  5.719455e+02  4.740000e+02  1.089599e+01
   endloop
 endfacet
 facet normal -6.636068e-01 -7.044763e-01  2.516729e-01
   outer loop
     vertex  5.711307e+02  4.749203e+02  1.132362e+01
     vertex  5.707033e+02  4.749203e+02  1.019658e+01
     vertex  5.719455e+02  4.740000e+02  1.089599e+01
   endloop
 endfacet
 facet normal -5.840943e-01 -7.044763e-01  4.031712e-01
   outer loop
     vertex  5.711307e+02  4.749203e+02  1.132362e+01
     vertex  5.719455e+02  4.740000e+02  1.089599e+01
     vertex  5.725042e+02  4.740000e+02  1.170542e+01
   endloop
 endfacet
 facet normal -5.840943e-01 -7.044763e-01  4.031712e-01
   outer loop
     vertex  5.718154e+02  4.749203e+02  1.231561e+01
     vertex  5.711307e+02  4.749203e+02  1.132362e+01
     vertex  5.725042e+02  4.740000e+02  1.170542e+01
   endloop
 endfacet
 facet normal -4.706364e-01 -7.044763e-01  5.312387e-01
   outer loop
     vertex  5.727177e+02  4.749203e+02  1.311492e+01
     vertex  5.718154e+02  4.749203e+02  1.231561e+01
     vertex  5.725042e+02  4.740000e+02  1.170542e+01
   endloop
 endfacet
 facet normal -4.706364e-01 -7.044763e-01  5.312387e-01
   outer loop
     vertex  5.727177e+02  4.749203e+02  1.311492e+01
     vertex  5.725042e+02  4.740000e+02  1.170542e+01
     vertex  5.732404e+02  4.740000e+02  1.235763e+01
   endloop
 endfacet
 facet normal -3.298268e-01 -7.044763e-01  6.284325e-01
   outer loop
     vertex  5.727177e+02  4.749203e+02  1.311492e+01
     vertex  5.732404e+02  4.740000e+02  1.235763e+01
     vertex  5.741113e+02  4.740000e+02  1.281470e+01
   endloop
 endfacet
 facet normal -3.298268e-01 -7.044763e-01  6.284325e-01
   outer loop
     vertex  5.737850e+02  4.749203e+02  1.367508e+01
     vertex  5.727177e+02  4.749203e+02  1.311492e+01
     vertex  5.741113e+02  4.740000e+02  1.281470e+01
   endloop
 endfacet
 facet normal -1.698489e-01 -7.044763e-01  6.891041e-01
   outer loop
     vertex  5.737850e+02  4.749203e+02  1.367508e+01
     vertex  5.741113e+02  4.740000e+02  1.281470e+01
     vertex  5.750662e+02  4.740000e+02  1.305008e+01
   endloop
 endfacet
 facet normal -1.698489e-01 -7.044763e-01  6.891041e-01
   outer loop
     vertex  5.749553e+02  4.749203e+02  1.396354e+01
     vertex  5.737850e+02  4.749203e+02  1.367508e+01
     vertex  5.750662e+02  4.740000e+02  1.305008e+01
   endloop
 endfacet
 facet normal -3.829168e-15 -7.044763e-01  7.097275e-01
   outer loop
     vertex  5.749553e+02  4.749203e+02  1.396354e+01
     vertex  5.750662e+02  4.740000e+02  1.305008e+01
     vertex  5.760498e+02  4.740000e+02  1.305008e+01
   endloop
 endfacet
 facet normal  1.045930e-15 -7.044763e-01  7.097275e-01
   outer loop
     vertex  5.761607e+02  4.749203e+02  1.396354e+01
     vertex  5.749553e+02  4.749203e+02  1.396354e+01
     vertex  5.760498e+02  4.740000e+02  1.305008e+01
   endloop
 endfacet
 facet normal  1.698489e-01 -7.044763e-01  6.891041e-01
   outer loop
     vertex  5.761607e+02  4.749203e+02  1.396354e+01
     vertex  5.760498e+02  4.740000e+02  1.305008e+01
     vertex  5.770047e+02  4.740000e+02  1.281470e+01
   endloop
 endfacet
 facet normal  3.298268e-01 -7.044763e-01  6.284325e-01
   outer loop
     vertex  5.773310e+02  4.749203e+02  1.367508e+01
     vertex  5.770047e+02  4.740000e+02  1.281470e+01
     vertex  5.778756e+02  4.740000e+02  1.235763e+01
   endloop
 endfacet
 facet normal  1.698489e-01 -7.044763e-01  6.891041e-01
   outer loop
     vertex  5.773310e+02  4.749203e+02  1.367508e+01
     vertex  5.761607e+02  4.749203e+02  1.396354e+01
     vertex  5.770047e+02  4.740000e+02  1.281470e+01
   endloop
 endfacet
 facet normal  3.298268e-01 -7.044763e-01  6.284325e-01
   outer loop
     vertex  5.783983e+02  4.749203e+02  1.311492e+01
     vertex  5.773310e+02  4.749203e+02  1.367508e+01
     vertex  5.778756e+02  4.740000e+02  1.235763e+01
   endloop
 endfacet
 facet normal  4.706364e-01 -7.044763e-01  5.312387e-01
   outer loop
     vertex  5.793006e+02  4.749203e+02  1.231561e+01
     vertex  5.778756e+02  4.740000e+02  1.235763e+01
     vertex  5.786118e+02  4.740000e+02  1.170542e+01
   endloop
 endfacet
 facet normal  4.706364e-01 -7.044763e-01  5.312387e-01
   outer loop
     vertex  5.793006e+02  4.749203e+02  1.231561e+01
     vertex  5.783983e+02  4.749203e+02  1.311492e+01
     vertex  5.778756e+02  4.740000e+02  1.235763e+01
   endloop
 endfacet
 facet normal  5.840943e-01 -7.044763e-01  4.031712e-01
   outer loop
     vertex  5.799853e+02  4.749203e+02  1.132362e+01
     vertex  5.786118e+02  4.740000e+02  1.170542e+01
     vertex  5.791705e+02  4.740000e+02  1.089599e+01
   endloop
 endfacet
 facet normal  5.840943e-01 -7.044763e-01  4.031712e-01
   outer loop
     vertex  5.799853e+02  4.749203e+02  1.132362e+01
     vertex  5.793006e+02  4.749203e+02  1.231561e+01
     vertex  5.786118e+02  4.740000e+02  1.170542e+01
   endloop
 endfacet
 facet normal  6.636068e-01 -7.044763e-01  2.516729e-01
   outer loop
     vertex  5.804127e+02  4.749203e+02  1.019658e+01
     vertex  5.791705e+02  4.740000e+02  1.089599e+01
     vertex  5.795193e+02  4.740000e+02  9.976366e+00
   endloop
 endfacet
 facet normal  6.636068e-01 -7.044763e-01  2.516729e-01
   outer loop
     vertex  5.804127e+02  4.749203e+02  1.019658e+01
     vertex  5.799853e+02  4.749203e+02  1.132362e+01
     vertex  5.791705e+02  4.740000e+02  1.089599e+01
   endloop
 endfacet
 facet normal  7.045528e-01 -7.044763e-01  8.554820e-02
   outer loop
     vertex  5.805580e+02  4.749203e+02  9.000000e+00
     vertex  5.795193e+02  4.740000e+02  9.976366e+00
     vertex  5.796378e+02  4.740000e+02  9.000000e+00
   endloop
 endfacet
 facet normal  7.045528e-01 -7.044763e-01  8.554820e-02
   outer loop
     vertex  5.805580e+02  4.749203e+02  9.000000e+00
     vertex  5.804127e+02  4.749203e+02  1.019658e+01
     vertex  5.795193e+02  4.740000e+02  9.976366e+00
   endloop
 endfacet
 facet normal -9.927089e-01  3.880871e-15 -1.205367e-01
   outer loop
     vertex  5.707033e+02  4.749203e+02  7.803422e+00
     vertex  5.705580e+02  4.749203e+02  9.000000e+00
     vertex  5.705580e+02  5.040000e+02  9.000000e+00
   endloop
 endfacet
 facet normal -9.927089e-01  3.888347e-15 -1.205367e-01
   outer loop
     vertex  5.707033e+02  4.749203e+02  7.803422e+00
     vertex  5.705580e+02  5.040000e+02  9.000000e+00
     vertex  5.707033e+02  5.040000e+02  7.803422e+00
   endloop
 endfacet
 facet normal -9.350162e-01  3.677096e-15 -3.546049e-01
   outer loop
     vertex  5.707033e+02  4.749203e+02  7.803422e+00
     vertex  5.707033e+02  5.040000e+02  7.803422e+00
     vertex  5.711307e+02  5.040000e+02  6.676384e+00
   endloop
 endfacet
 facet normal -8.229839e-01  3.252146e-15 -5.680647e-01
   outer loop
     vertex  5.711307e+02  4.749203e+02  6.676384e+00
     vertex  5.711307e+02  5.040000e+02  6.676384e+00
     vertex  5.718154e+02  5.040000e+02  5.684387e+00
   endloop
 endfacet
 facet normal -9.350162e-01  3.677096e-15 -3.546049e-01
   outer loop
     vertex  5.711307e+02  4.749203e+02  6.676384e+00
     vertex  5.707033e+02  4.749203e+02  7.803422e+00
     vertex  5.711307e+02  5.040000e+02  6.676384e+00
   endloop
 endfacet
 facet normal -6.631227e-01  9.144668e-17 -7.485107e-01
   outer loop
     vertex  5.718154e+02  4.749203e+02  5.684387e+00
     vertex  5.718154e+02  5.040000e+02  5.684387e+00
     vertex  5.727177e+02  5.040000e+02  4.885081e+00
   endloop
 endfacet
 facet normal -8.229839e-01  6.940132e-17 -5.680647e-01
   outer loop
     vertex  5.718154e+02  4.749203e+02  5.684387e+00
     vertex  5.711307e+02  4.749203e+02  6.676384e+00
     vertex  5.718154e+02  5.040000e+02  5.684387e+00
   endloop
 endfacet
 facet normal -4.647232e-01  1.925007e-15 -8.854560e-01
   outer loop
     vertex  5.727177e+02  4.749203e+02  4.885081e+00
     vertex  5.727177e+02  5.040000e+02  4.885081e+00
     vertex  5.737850e+02  5.040000e+02  4.324919e+00
   endloop
 endfacet
 facet normal -6.631227e-01  2.683917e-15 -7.485107e-01
   outer loop
     vertex  5.727177e+02  4.749203e+02  4.885081e+00
     vertex  5.718154e+02  4.749203e+02  5.684387e+00
     vertex  5.727177e+02  5.040000e+02  4.885081e+00
   endloop
 endfacet
 facet normal -2.393157e-01  5.931071e-17 -9.709418e-01
   outer loop
     vertex  5.737850e+02  4.749203e+02  4.324919e+00
     vertex  5.737850e+02  5.040000e+02  4.324919e+00
     vertex  5.749553e+02  5.040000e+02  4.036456e+00
   endloop
 endfacet
 facet normal -4.647232e-01  5.408875e-17 -8.854560e-01
   outer loop
     vertex  5.737850e+02  4.749203e+02  4.324919e+00
     vertex  5.727177e+02  4.749203e+02  4.885081e+00
     vertex  5.737850e+02  5.040000e+02  4.324919e+00
   endloop
 endfacet
 facet normal -2.947413e-15  6.108575e-17 -1.000000e+00
   outer loop
     vertex  5.749553e+02  4.749203e+02  4.036456e+00
     vertex  5.749553e+02  5.040000e+02  4.036456e+00
     vertex  5.761607e+02  5.040000e+02  4.036456e+00
   endloop
 endfacet
 facet normal -2.393157e-01  9.949124e-16 -9.709418e-01
   outer loop
     vertex  5.749553e+02  4.749203e+02  4.036456e+00
     vertex  5.737850e+02  4.749203e+02  4.324919e+00
     vertex  5.749553e+02  5.040000e+02  4.036456e+00
   endloop
 endfacet
 facet normal  2.393157e-01 -9.949124e-16 -9.709418e-01
   outer loop
     vertex  5.761607e+02  4.749203e+02  4.036456e+00
     vertex  5.761607e+02  5.040000e+02  4.036456e+00
     vertex  5.773310e+02  5.040000e+02  4.324919e+00
   endloop
 endfacet
 facet normal -0.000000e+00 -6.108575e-17 -1.000000e+00
   outer loop
     vertex  5.761607e+02  4.749203e+02  4.036456e+00
     vertex  5.749553e+02  4.749203e+02  4.036456e+00
     vertex  5.761607e+02  5.040000e+02  4.036456e+00
   endloop
 endfacet
 facet normal  2.393157e-01 -1.779321e-16 -9.709418e-01
   outer loop
     vertex  5.773310e+02  4.749203e+02  4.324919e+00
     vertex  5.761607e+02  4.749203e+02  4.036456e+00
     vertex  5.773310e+02  5.040000e+02  4.324919e+00
   endloop
 endfacet
 facet normal  4.647232e-01 -1.622662e-16 -8.854560e-01
   outer loop
     vertex  5.783983e+02  4.749203e+02  4.885081e+00
     vertex  5.773310e+02  5.040000e+02  4.324919e+00
     vertex  5.783983e+02  5.040000e+02  4.885081e+00
   endloop
 endfacet
 facet normal  6.631227e-01 -1.371700e-16 -7.485107e-01
   outer loop
     vertex  5.783983e+02  4.749203e+02  4.885081e+00
     vertex  5.783983e+02  5.040000e+02  4.885081e+00
     vertex  5.793006e+02  5.040000e+02  5.684387e+00
   endloop
 endfacet
 facet normal  4.647232e-01 -1.611815e-16 -8.854560e-01
   outer loop
     vertex  5.783983e+02  4.749203e+02  4.885081e+00
     vertex  5.773310e+02  4.749203e+02  4.324919e+00
     vertex  5.773310e+02  5.040000e+02  4.324919e+00
   endloop
 endfacet
 facet normal  6.631227e-01 -1.371700e-16 -7.485107e-01
   outer loop
     vertex  5.793006e+02  4.749203e+02  5.684387e+00
     vertex  5.783983e+02  4.749203e+02  4.885081e+00
     vertex  5.793006e+02  5.040000e+02  5.684387e+00
   endloop
 endfacet
 facet normal  8.229839e-01 -1.044638e-16 -5.680647e-01
   outer loop
     vertex  5.799853e+02  4.749203e+02  6.676384e+00
     vertex  5.793006e+02  4.749203e+02  5.684387e+00
     vertex  5.793006e+02  5.040000e+02  5.684387e+00
   endloop
 endfacet
 facet normal  8.229839e-01 -3.390949e-15 -5.680647e-01
   outer loop
     vertex  5.799853e+02  4.749203e+02  6.676384e+00
     vertex  5.793006e+02  5.040000e+02  5.684387e+00
     vertex  5.799853e+02  5.040000e+02  6.676384e+00
   endloop
 endfacet
 facet normal  9.350162e-01 -3.763847e-15 -3.546049e-01
   outer loop
     vertex  5.804127e+02  4.749203e+02  7.803422e+00
     vertex  5.799853e+02  4.749203e+02  6.676384e+00
     vertex  5.799853e+02  5.040000e+02  6.676384e+00
   endloop
 endfacet
 facet normal  9.350162e-01 -3.763741e-15 -3.546049e-01
   outer loop
     vertex  5.804127e+02  4.749203e+02  7.803422e+00
     vertex  5.799853e+02  5.040000e+02  6.676384e+00
     vertex  5.804127e+02  5.040000e+02  7.803422e+00
   endloop
 endfacet
 facet normal  9.927089e-01 -3.917799e-15 -1.205367e-01
   outer loop
     vertex  5.804127e+02  4.749203e+02  7.803422e+00
     vertex  5.804127e+02  5.040000e+02  7.803422e+00
     vertex  5.805580e+02  5.040000e+02  9.000000e+00
   endloop
 endfacet
 facet normal  9.927089e-01 -3.939888e-15 -1.205367e-01
   outer loop
     vertex  5.805580e+02  4.749203e+02  9.000000e+00
     vertex  5.804127e+02  4.749203e+02  7.803422e+00
     vertex  5.805580e+02  5.040000e+02  9.000000e+00
   endloop
 endfacet
 facet normal  9.927089e-01 -3.822079e-15  1.205367e-01
   outer loop
     vertex  5.805580e+02  4.749203e+02  9.000000e+00
     vertex  5.805580e+02  5.040000e+02  9.000000e+00
     vertex  5.804127e+02  5.040000e+02  1.019658e+01
   endloop
 endfacet
 facet normal  9.927089e-01 -3.822079e-15  1.205367e-01
   outer loop
     vertex  5.804127e+02  4.749203e+02  1.019658e+01
     vertex  5.805580e+02  4.749203e+02  9.000000e+00
     vertex  5.804127e+02  5.040000e+02  1.019658e+01
   endloop
 endfacet
 facet normal  9.350162e-01 -3.482144e-15  3.546049e-01
   outer loop
     vertex  5.804127e+02  4.749203e+02  1.019658e+01
     vertex  5.804127e+02  5.040000e+02  1.019658e+01
     vertex  5.799853e+02  5.040000e+02  1.132362e+01
   endloop
 endfacet
 facet normal  9.350162e-01 -3.482144e-15  3.546049e-01
   outer loop
     vertex  5.799853e+02  4.749203e+02  1.132362e+01
     vertex  5.804127e+02  4.749203e+02  1.019658e+01
     vertex  5.799853e+02  5.040000e+02  1.132362e+01
   endloop
 endfacet
 facet normal  8.229839e-01 -2.939840e-15  5.680647e-01
   outer loop
     vertex  5.799853e+02  4.749203e+02  1.132362e+01
     vertex  5.799853e+02  5.040000e+02  1.132362e+01
     vertex  5.793006e+02  5.040000e+02  1.231561e+01
   endloop
 endfacet
 facet normal  8.229839e-01 -3.009242e-15  5.680647e-01
   outer loop
     vertex  5.793006e+02  4.749203e+02  1.231561e+01
     vertex  5.799853e+02  4.749203e+02  1.132362e+01
     vertex  5.793006e+02  5.040000e+02  1.231561e+01
   endloop
 endfacet
 facet normal  6.631227e-01 -2.316911e-15  7.485107e-01
   outer loop
     vertex  5.783983e+02  4.749203e+02  1.311492e+01
     vertex  5.793006e+02  4.749203e+02  1.231561e+01
     vertex  5.793006e+02  5.040000e+02  1.231561e+01
   endloop
 endfacet
 facet normal  6.631227e-01  1.828934e-16  7.485107e-01
   outer loop
     vertex  5.783983e+02  4.749203e+02  1.311492e+01
     vertex  5.793006e+02  5.040000e+02  1.231561e+01
     vertex  5.783983e+02  5.040000e+02  1.311492e+01
   endloop
 endfacet
 facet normal  4.647232e-01 -1.600475e-15  8.854560e-01
   outer loop
     vertex  5.773310e+02  4.749203e+02  1.367508e+01
     vertex  5.783983e+02  5.040000e+02  1.311492e+01
     vertex  5.773310e+02  5.040000e+02  1.367508e+01
   endloop
 endfacet
 facet normal  4.647232e-01  2.177080e-16  8.854560e-01
   outer loop
     vertex  5.773310e+02  4.749203e+02  1.367508e+01
     vertex  5.783983e+02  4.749203e+02  1.311492e+01
     vertex  5.783983e+02  5.040000e+02  1.311492e+01
   endloop
 endfacet
 facet normal  2.393157e-01 -6.983589e-16  9.709418e-01
   outer loop
     vertex  5.773310e+02  4.749203e+02  1.367508e+01
     vertex  5.773310e+02  5.040000e+02  1.367508e+01
     vertex  5.761607e+02  5.040000e+02  1.396354e+01
   endloop
 endfacet
 facet normal  2.393157e-01 -8.762910e-16  9.709418e-01
   outer loop
     vertex  5.761607e+02  4.749203e+02  1.396354e+01
     vertex  5.773310e+02  4.749203e+02  1.367508e+01
     vertex  5.761607e+02  5.040000e+02  1.396354e+01
   endloop
 endfacet
 facet normal  4.421119e-15 -6.108575e-17  1.000000e+00
   outer loop
     vertex  5.749553e+02  4.749203e+02  1.396354e+01
     vertex  5.761607e+02  5.040000e+02  1.396354e+01
     vertex  5.749553e+02  5.040000e+02  1.396354e+01
   endloop
 endfacet
 facet normal -2.393157e-01  8.762910e-16  9.709418e-01
   outer loop
     vertex  5.749553e+02  4.749203e+02  1.396354e+01
     vertex  5.749553e+02  5.040000e+02  1.396354e+01
     vertex  5.737850e+02  5.040000e+02  1.367508e+01
   endloop
 endfacet
 facet normal  1.473706e-15  6.108575e-17  1.000000e+00
   outer loop
     vertex  5.749553e+02  4.749203e+02  1.396354e+01
     vertex  5.761607e+02  4.749203e+02  1.396354e+01
     vertex  5.761607e+02  5.040000e+02  1.396354e+01
   endloop
 endfacet
 facet normal -2.393157e-01  8.169803e-16  9.709418e-01
   outer loop
     vertex  5.737850e+02  4.749203e+02  1.367508e+01
     vertex  5.749553e+02  4.749203e+02  1.396354e+01
     vertex  5.737850e+02  5.040000e+02  1.367508e+01
   endloop
 endfacet
 facet normal -4.647232e-01  1.708652e-15  8.854560e-01
   outer loop
     vertex  5.737850e+02  4.749203e+02  1.367508e+01
     vertex  5.737850e+02  5.040000e+02  1.367508e+01
     vertex  5.727177e+02  5.040000e+02  1.311492e+01
   endloop
 endfacet
 facet normal -6.631227e-01  2.501023e-15  7.485107e-01
   outer loop
     vertex  5.727177e+02  4.749203e+02  1.311492e+01
     vertex  5.727177e+02  5.040000e+02  1.311492e+01
     vertex  5.718154e+02  5.040000e+02  1.231561e+01
   endloop
 endfacet
 facet normal -4.647232e-01  1.708652e-15  8.854560e-01
   outer loop
     vertex  5.727177e+02  4.749203e+02  1.311492e+01
     vertex  5.737850e+02  4.749203e+02  1.367508e+01
     vertex  5.727177e+02  5.040000e+02  1.311492e+01
   endloop
 endfacet
 facet normal -8.229839e-01 -3.470066e-17  5.680647e-01
   outer loop
     vertex  5.718154e+02  4.749203e+02  1.231561e+01
     vertex  5.718154e+02  5.040000e+02  1.231561e+01
     vertex  5.711307e+02  5.040000e+02  1.132362e+01
   endloop
 endfacet
 facet normal -6.631227e-01 -4.572334e-17  7.485107e-01
   outer loop
     vertex  5.718154e+02  4.749203e+02  1.231561e+01
     vertex  5.727177e+02  4.749203e+02  1.311492e+01
     vertex  5.718154e+02  5.040000e+02  1.231561e+01
   endloop
 endfacet
 facet normal -8.229839e-01  3.286847e-15  5.680647e-01
   outer loop
     vertex  5.711307e+02  4.749203e+02  1.132362e+01
     vertex  5.718154e+02  4.749203e+02  1.231561e+01
     vertex  5.711307e+02  5.040000e+02  1.132362e+01
   endloop
 endfacet
 facet normal -9.350162e-01  3.742080e-15  3.546049e-01
   outer loop
     vertex  5.707033e+02  4.749203e+02  1.019658e+01
     vertex  5.711307e+02  5.040000e+02  1.132362e+01
     vertex  5.707033e+02  5.040000e+02  1.019658e+01
   endloop
 endfacet
 facet normal -9.927089e-01  3.910436e-15  1.205367e-01
   outer loop
     vertex  5.707033e+02  4.749203e+02  1.019658e+01
     vertex  5.707033e+02  5.040000e+02  1.019658e+01
     vertex  5.705580e+02  5.040000e+02  9.000000e+00
   endloop
 endfacet
 facet normal -9.350162e-01  3.699057e-15  3.546049e-01
   outer loop
     vertex  5.707033e+02  4.749203e+02  1.019658e+01
     vertex  5.711307e+02  4.749203e+02  1.132362e+01
     vertex  5.711307e+02  5.040000e+02  1.132362e+01
   endloop
 endfacet
 facet normal -9.927089e-01  3.880983e-15  1.205367e-01
   outer loop
     vertex  5.705580e+02  4.749203e+02  9.000000e+00
     vertex  5.707033e+02  4.749203e+02  1.019658e+01
     vertex  5.705580e+02  5.040000e+02  9.000000e+00
   endloop
 endfacet
 facet normal  0.000000e+00 -1.000000e+00  0.000000e+00
   outer loop
     vertex  5.719455e+02  4.740000e+02  7.104011e+00
     vertex  5.714782e+02  4.740000e+02  9.000000e+00
     vertex  5.715967e+02  4.740000e+02  8.023634e+00
   endloop
 endfacet
 facet normal  0.000000e+00 -1.000000e+00  0.000000e+00
   outer loop
     vertex  5.719455e+02  4.740000e+02  7.104011e+00
     vertex  5.715967e+02  4.740000e+02  9.976366e+00
     vertex  5.714782e+02  4.740000e+02  9.000000e+00
   endloop
 endfacet
 facet normal  0.000000e+00 -1.000000e+00  0.000000e+00
   outer loop
     vertex  5.719455e+02  4.740000e+02  7.104011e+00
     vertex  5.719455e+02  4.740000e+02  1.089599e+01
     vertex  5.715967e+02  4.740000e+02  9.976366e+00
   endloop
 endfacet
 facet normal  0.000000e+00 -1.000000e+00  0.000000e+00
   outer loop
     vertex  5.725042e+02  4.740000e+02  6.294576e+00
     vertex  5.725042e+02  4.740000e+02  1.170542e+01
     vertex  5.719455e+02  4.740000e+02  1.089599e+01
   endloop
 endfacet
 facet normal  0.000000e+00 -1.000000e+00  0.000000e+00
   outer loop
     vertex  5.725042e+02  4.740000e+02  6.294576e+00
     vertex  5.732404e+02  4.740000e+02  1.235763e+01
     vertex  5.725042e+02  4.740000e+02  1.170542e+01
   endloop
 endfacet
 facet normal  0.000000e+00 -1.000000e+00  0.000000e+00
   outer loop
     vertex  5.725042e+02  4.740000e+02  6.294576e+00
     vertex  5.719455e+02  4.740000e+02  1.089599e+01
     vertex  5.719455e+02  4.740000e+02  7.104011e+00
   endloop
 endfacet
 facet normal  0.000000e+00 -1.000000e+00  0.000000e+00
   outer loop
     vertex  5.732404e+02  4.740000e+02  5.642370e+00
     vertex  5.732404e+02  4.740000e+02  1.235763e+01
     vertex  5.725042e+02  4.740000e+02  6.294576e+00
   endloop
 endfacet
 facet normal  0.000000e+00 -1.000000e+00  0.000000e+00
   outer loop
     vertex  5.741113e+02  4.740000e+02  5.185297e+00
     vertex  5.741113e+02  4.740000e+02  1.281470e+01
     vertex  5.732404e+02  4.740000e+02  1.235763e+01
   endloop
 endfacet
 facet normal  0.000000e+00 -1.000000e+00  0.000000e+00
   outer loop
     vertex  5.741113e+02  4.740000e+02  5.185297e+00
     vertex  5.732404e+02  4.740000e+02  1.235763e+01
     vertex  5.732404e+02  4.740000e+02  5.642370e+00
   endloop
 endfacet
 facet normal  0.000000e+00 -1.000000e+00  0.000000e+00
   outer loop
     vertex  5.750662e+02  4.740000e+02  4.949922e+00
     vertex  5.741113e+02  4.740000e+02  1.281470e+01
     vertex  5.741113e+02  4.740000e+02  5.185297e+00
   endloop
 endfacet
 facet normal  0.000000e+00 -1.000000e+00  0.000000e+00
   outer loop
     vertex  5.796378e+02  4.740000e+02  9.000000e+00
     vertex  5.795193e+02  4.740000e+02  9.976366e+00
     vertex  5.791705e+02  4.740000e+02  1.089599e+01
   endloop
 endfacet
 facet normal  0.000000e+00 -1.000000e+00  0.000000e+00
   outer loop
     vertex  5.760498e+02  4.740000e+02  4.949922e+00
     vertex  5.750662e+02  4.740000e+02  1.305008e+01
     vertex  5.741113e+02  4.740000e+02  1.281470e+01
   endloop
 endfacet
 facet normal  0.000000e+00 -1.000000e+00  0.000000e+00
   outer loop
     vertex  5.760498e+02  4.740000e+02  4.949922e+00
     vertex  5.760498e+02  4.740000e+02  1.305008e+01
     vertex  5.750662e+02  4.740000e+02  1.305008e+01
   endloop
 endfacet
 facet normal -0.000000e+00 -1.000000e+00  0.000000e+00
   outer loop
     vertex  5.760498e+02  4.740000e+02  4.949922e+00
     vertex  5.741113e+02  4.740000e+02  1.281470e+01
     vertex  5.750662e+02  4.740000e+02  4.949922e+00
   endloop
 endfacet
 facet normal  0.000000e+00 -1.000000e+00  0.000000e+00
   outer loop
     vertex  5.770047e+02  4.740000e+02  5.185297e+00
     vertex  5.770047e+02  4.740000e+02  1.281470e+01
     vertex  5.760498e+02  4.740000e+02  1.305008e+01
   endloop
 endfacet
 facet normal -0.000000e+00 -1.000000e+00  0.000000e+00
   outer loop
     vertex  5.770047e+02  4.740000e+02  5.185297e+00
     vertex  5.760498e+02  4.740000e+02  1.305008e+01
     vertex  5.760498e+02  4.740000e+02  4.949922e+00
   endloop
 endfacet
 facet normal  0.000000e+00 -1.000000e+00  0.000000e+00
   outer loop
     vertex  5.791705e+02  4.740000e+02  7.104011e+00
     vertex  5.795193e+02  4.740000e+02  8.023634e+00
     vertex  5.796378e+02  4.740000e+02  9.000000e+00
   endloop
 endfacet
 facet normal  0.000000e+00 -1.000000e+00  0.000000e+00
   outer loop
     vertex  5.778756e+02  4.740000e+02  5.642370e+00
     vertex  5.778756e+02  4.740000e+02  1.235763e+01
     vertex  5.770047e+02  4.740000e+02  1.281470e+01
   endloop
 endfacet
 facet normal  0.000000e+00 -1.000000e+00  0.000000e+00
   outer loop
     vertex  5.778756e+02  4.740000e+02  5.642370e+00
     vertex  5.786118e+02  4.740000e+02  1.170542e+01
     vertex  5.778756e+02  4.740000e+02  1.235763e+01
   endloop
 endfacet
 facet normal -0.000000e+00 -1.000000e+00  0.000000e+00
   outer loop
     vertex  5.778756e+02  4.740000e+02  5.642370e+00
     vertex  5.770047e+02  4.740000e+02  1.281470e+01
     vertex  5.770047e+02  4.740000e+02  5.185297e+00
   endloop
 endfacet
 facet normal  0.000000e+00 -1.000000e+00  0.000000e+00
   outer loop
     vertex  5.786118e+02  4.740000e+02  6.294576e+00
     vertex  5.791705e+02  4.740000e+02  1.089599e+01
     vertex  5.786118e+02  4.740000e+02  1.170542e+01
   endloop
 endfacet
 facet normal  0.000000e+00 -1.000000e+00  0.000000e+00
   outer loop
     vertex  5.786118e+02  4.740000e+02  6.294576e+00
     vertex  5.796378e+02  4.740000e+02  9.000000e+00
     vertex  5.791705e+02  4.740000e+02  1.089599e+01
   endloop
 endfacet
 facet normal -0.000000e+00 -1.000000e+00  0.000000e+00
   outer loop
     vertex  5.786118e+02  4.740000e+02  6.294576e+00
     vertex  5.786118e+02  4.740000e+02  1.170542e+01
     vertex  5.778756e+02  4.740000e+02  5.642370e+00
   endloop
 endfacet
 facet normal  0.000000e+00 -1.000000e+00  0.000000e+00
   outer loop
     vertex  5.786118e+02  4.740000e+02  6.294576e+00
     vertex  5.791705e+02  4.740000e+02  7.104011e+00
     vertex  5.796378e+02  4.740000e+02  9.000000e+00
   endloop
 endfacet
 facet normal  4.869692e-01  7.985511e-01  3.538038e-01
   outer loop
     vertex  5.813737e+02  5.102248e+02  1.492687e+01
     vertex  5.824862e+02  5.104001e+02  1.300000e+01
     vertex  5.815032e+02  5.104001e+02  1.435304e+01
   endloop
 endfacet
 facet normal  3.067707e-01  8.887142e-01  3.407034e-01
   outer loop
     vertex  5.802603e+02  5.104001e+02  1.547214e+01
     vertex  5.813737e+02  5.102248e+02  1.492687e+01
     vertex  5.815032e+02  5.104001e+02  1.435304e+01
   endloop
 endfacet
 facet normal  2.435050e-01  8.733963e-01  4.217631e-01
   outer loop
     vertex  5.801768e+02  5.096856e+02  1.700000e+01
     vertex  5.802603e+02  5.104001e+02  1.547214e+01
     vertex  5.788119e+02  5.104001e+02  1.630836e+01
   endloop
 endfacet
 facet normal  3.359458e-01  8.460131e-01  4.140077e-01
   outer loop
     vertex  5.801768e+02  5.096856e+02  1.700000e+01
     vertex  5.813737e+02  5.102248e+02  1.492687e+01
     vertex  5.802603e+02  5.104001e+02  1.547214e+01
   endloop
 endfacet
 facet normal  1.905683e-01  8.460131e-01  4.979414e-01
   outer loop
     vertex  5.777830e+02  5.102248e+02  1.700000e+01
     vertex  5.801768e+02  5.096856e+02  1.700000e+01
     vertex  5.788119e+02  5.104001e+02  1.630836e+01
   endloop
 endfacet
 facet normal  1.416724e-01  8.887142e-01  4.360229e-01
   outer loop
     vertex  5.772213e+02  5.104001e+02  1.682518e+01
     vertex  5.777830e+02  5.102248e+02  1.700000e+01
     vertex  5.788119e+02  5.104001e+02  1.630836e+01
   endloop
 endfacet
 facet normal  6.291851e-02  7.985511e-01  5.986296e-01
   outer loop
     vertex  5.755580e+02  5.104001e+02  1.700000e+01
     vertex  5.777830e+02  5.102248e+02  1.700000e+01
     vertex  5.772213e+02  5.104001e+02  1.682518e+01
   endloop
 endfacet
 facet normal -6.291851e-02  7.985511e-01  5.986296e-01
   outer loop
     vertex  5.733330e+02  5.102248e+02  1.700000e+01
     vertex  5.755580e+02  5.104001e+02  1.700000e+01
     vertex  5.738947e+02  5.104001e+02  1.682518e+01
   endloop
 endfacet
 facet normal -1.416724e-01  8.887142e-01  4.360229e-01
   outer loop
     vertex  5.723041e+02  5.104001e+02  1.630836e+01
     vertex  5.733330e+02  5.102248e+02  1.700000e+01
     vertex  5.738947e+02  5.104001e+02  1.682518e+01
   endloop
 endfacet
 facet normal -2.435050e-01  8.733963e-01  4.217631e-01
   outer loop
     vertex  5.709392e+02  5.096856e+02  1.700000e+01
     vertex  5.723041e+02  5.104001e+02  1.630836e+01
     vertex  5.708557e+02  5.104001e+02  1.547214e+01
   endloop
 endfacet
 facet normal -1.905683e-01  8.460131e-01  4.979414e-01
   outer loop
     vertex  5.709392e+02  5.096856e+02  1.700000e+01
     vertex  5.733330e+02  5.102248e+02  1.700000e+01
     vertex  5.723041e+02  5.104001e+02  1.630836e+01
   endloop
 endfacet
 facet normal -3.359458e-01  8.460131e-01  4.140077e-01
   outer loop
     vertex  5.697423e+02  5.102248e+02  1.492687e+01
     vertex  5.709392e+02  5.096856e+02  1.700000e+01
     vertex  5.708557e+02  5.104001e+02  1.547214e+01
   endloop
 endfacet
 facet normal -3.067707e-01  8.887142e-01  3.407034e-01
   outer loop
     vertex  5.696128e+02  5.104001e+02  1.435304e+01
     vertex  5.697423e+02  5.102248e+02  1.492687e+01
     vertex  5.708557e+02  5.104001e+02  1.547214e+01
   endloop
 endfacet
 facet normal -4.869692e-01  7.985511e-01  3.538038e-01
   outer loop
     vertex  5.686298e+02  5.104001e+02  1.300000e+01
     vertex  5.697423e+02  5.102248e+02  1.492687e+01
     vertex  5.696128e+02  5.104001e+02  1.435304e+01
   endloop
 endfacet
 facet normal  5.498877e-01  7.985511e-01 -2.448258e-01
   outer loop
     vertex  5.835987e+02  5.102248e+02  6.926866e+00
     vertex  5.824862e+02  5.104001e+02  5.000000e+00
     vertex  5.831665e+02  5.104001e+02  6.527864e+00
   endloop
 endfacet
 facet normal  4.484431e-01  8.887142e-01 -9.531953e-02
   outer loop
     vertex  5.835142e+02  5.104001e+02  8.163772e+00
     vertex  5.835987e+02  5.102248e+02  6.926866e+00
     vertex  5.831665e+02  5.104001e+02  6.527864e+00
   endloop
 endfacet
 facet normal  4.870101e-01  8.733963e-01 -1.320264e-17
   outer loop
     vertex  5.847956e+02  5.096856e+02  9.000000e+00
     vertex  5.835142e+02  5.104001e+02  8.163772e+00
     vertex  5.835142e+02  5.104001e+02  9.836228e+00
   endloop
 endfacet
 facet normal  5.265140e-01  8.460131e-01 -8.393376e-02
   outer loop
     vertex  5.847956e+02  5.096856e+02  9.000000e+00
     vertex  5.835987e+02  5.102248e+02  6.926866e+00
     vertex  5.835142e+02  5.104001e+02  8.163772e+00
   endloop
 endfacet
 facet normal  5.265140e-01  8.460131e-01  8.393376e-02
   outer loop
     vertex  5.835987e+02  5.102248e+02  1.107313e+01
     vertex  5.847956e+02  5.096856e+02  9.000000e+00
     vertex  5.835142e+02  5.104001e+02  9.836228e+00
   endloop
 endfacet
 facet normal  4.484431e-01  8.887142e-01  9.531953e-02
   outer loop
     vertex  5.831665e+02  5.104001e+02  1.147214e+01
     vertex  5.835987e+02  5.102248e+02  1.107313e+01
     vertex  5.835142e+02  5.104001e+02  9.836228e+00
   endloop
 endfacet
 facet normal  5.498877e-01  7.985511e-01  2.448258e-01
   outer loop
     vertex  5.824862e+02  5.104001e+02  1.300000e+01
     vertex  5.835987e+02  5.102248e+02  1.107313e+01
     vertex  5.831665e+02  5.104001e+02  1.147214e+01
   endloop
 endfacet
 facet normal -5.498877e-01  7.985511e-01  2.448258e-01
   outer loop
     vertex  5.675173e+02  5.102248e+02  1.107313e+01
     vertex  5.686298e+02  5.104001e+02  1.300000e+01
     vertex  5.679495e+02  5.104001e+02  1.147214e+01
   endloop
 endfacet
 facet normal -4.484431e-01  8.887142e-01  9.531953e-02
   outer loop
     vertex  5.676018e+02  5.104001e+02  9.836228e+00
     vertex  5.675173e+02  5.102248e+02  1.107313e+01
     vertex  5.679495e+02  5.104001e+02  1.147214e+01
   endloop
 endfacet
 facet normal -4.870101e-01  8.733963e-01  1.735261e-17
   outer loop
     vertex  5.663204e+02  5.096856e+02  9.000000e+00
     vertex  5.676018e+02  5.104001e+02  9.836228e+00
     vertex  5.676018e+02  5.104001e+02  8.163772e+00
   endloop
 endfacet
 facet normal -5.265140e-01  8.460131e-01  8.393376e-02
   outer loop
     vertex  5.663204e+02  5.096856e+02  9.000000e+00
     vertex  5.675173e+02  5.102248e+02  1.107313e+01
     vertex  5.676018e+02  5.104001e+02  9.836228e+00
   endloop
 endfacet
 facet normal -5.265140e-01  8.460131e-01 -8.393376e-02
   outer loop
     vertex  5.675173e+02  5.102248e+02  6.926866e+00
     vertex  5.663204e+02  5.096856e+02  9.000000e+00
     vertex  5.676018e+02  5.104001e+02  8.163772e+00
   endloop
 endfacet
 facet normal -4.484431e-01  8.887142e-01 -9.531953e-02
   outer loop
     vertex  5.679495e+02  5.104001e+02  6.527864e+00
     vertex  5.675173e+02  5.102248e+02  6.926866e+00
     vertex  5.676018e+02  5.104001e+02  8.163772e+00
   endloop
 endfacet
 facet normal -5.498877e-01  7.985511e-01 -2.448258e-01
   outer loop
     vertex  5.686298e+02  5.104001e+02  5.000000e+00
     vertex  5.675173e+02  5.102248e+02  6.926866e+00
     vertex  5.679495e+02  5.104001e+02  6.527864e+00
   endloop
 endfacet
 facet normal  6.291851e-02  7.985511e-01 -5.986296e-01
   outer loop
     vertex  5.777830e+02  5.102248e+02  1.000000e+00
     vertex  5.755580e+02  5.104001e+02  1.000000e+00
     vertex  5.772213e+02  5.104001e+02  1.174819e+00
   endloop
 endfacet
 facet normal  1.416724e-01  8.887142e-01 -4.360229e-01
   outer loop
     vertex  5.788119e+02  5.104001e+02  1.691636e+00
     vertex  5.777830e+02  5.102248e+02  1.000000e+00
     vertex  5.772213e+02  5.104001e+02  1.174819e+00
   endloop
 endfacet
 facet normal  2.435050e-01  8.733963e-01 -4.217631e-01
   outer loop
     vertex  5.801768e+02  5.096856e+02  1.000000e+00
     vertex  5.788119e+02  5.104001e+02  1.691636e+00
     vertex  5.802603e+02  5.104001e+02  2.527864e+00
   endloop
 endfacet
 facet normal  1.905683e-01  8.460131e-01 -4.979414e-01
   outer loop
     vertex  5.801768e+02  5.096856e+02  1.000000e+00
     vertex  5.777830e+02  5.102248e+02  1.000000e+00
     vertex  5.788119e+02  5.104001e+02  1.691636e+00
   endloop
 endfacet
 facet normal  3.359458e-01  8.460131e-01 -4.140077e-01
   outer loop
     vertex  5.813737e+02  5.102248e+02  3.073134e+00
     vertex  5.801768e+02  5.096856e+02  1.000000e+00
     vertex  5.802603e+02  5.104001e+02  2.527864e+00
   endloop
 endfacet
 facet normal  3.067707e-01  8.887142e-01 -3.407034e-01
   outer loop
     vertex  5.815032e+02  5.104001e+02  3.646955e+00
     vertex  5.813737e+02  5.102248e+02  3.073134e+00
     vertex  5.802603e+02  5.104001e+02  2.527864e+00
   endloop
 endfacet
 facet normal  4.869692e-01  7.985511e-01 -3.538038e-01
   outer loop
     vertex  5.824862e+02  5.104001e+02  5.000000e+00
     vertex  5.813737e+02  5.102248e+02  3.073134e+00
     vertex  5.815032e+02  5.104001e+02  3.646955e+00
   endloop
 endfacet
 facet normal -4.869692e-01  7.985511e-01 -3.538038e-01
   outer loop
     vertex  5.697423e+02  5.102248e+02  3.073134e+00
     vertex  5.686298e+02  5.104001e+02  5.000000e+00
     vertex  5.696128e+02  5.104001e+02  3.646955e+00
   endloop
 endfacet
 facet normal -3.067707e-01  8.887142e-01 -3.407034e-01
   outer loop
     vertex  5.708557e+02  5.104001e+02  2.527864e+00
     vertex  5.697423e+02  5.102248e+02  3.073134e+00
     vertex  5.696128e+02  5.104001e+02  3.646955e+00
   endloop
 endfacet
 facet normal -2.435050e-01  8.733963e-01 -4.217631e-01
   outer loop
     vertex  5.709392e+02  5.096856e+02  1.000000e+00
     vertex  5.708557e+02  5.104001e+02  2.527864e+00
     vertex  5.723041e+02  5.104001e+02  1.691636e+00
   endloop
 endfacet
 facet normal -3.359458e-01  8.460131e-01 -4.140077e-01
   outer loop
     vertex  5.709392e+02  5.096856e+02  1.000000e+00
     vertex  5.697423e+02  5.102248e+02  3.073134e+00
     vertex  5.708557e+02  5.104001e+02  2.527864e+00
   endloop
 endfacet
 facet normal -1.905683e-01  8.460131e-01 -4.979414e-01
   outer loop
     vertex  5.733330e+02  5.102248e+02  1.000000e+00
     vertex  5.709392e+02  5.096856e+02  1.000000e+00
     vertex  5.723041e+02  5.104001e+02  1.691636e+00
   endloop
 endfacet
 facet normal -1.416724e-01  8.887142e-01 -4.360229e-01
   outer loop
     vertex  5.738947e+02  5.104001e+02  1.174819e+00
     vertex  5.733330e+02  5.102248e+02  1.000000e+00
     vertex  5.723041e+02  5.104001e+02  1.691636e+00
   endloop
 endfacet
 facet normal -6.291851e-02  7.985511e-01 -5.986296e-01
   outer loop
     vertex  5.755580e+02  5.104001e+02  1.000000e+00
     vertex  5.733330e+02  5.102248e+02  1.000000e+00
     vertex  5.738947e+02  5.104001e+02  1.174819e+00
   endloop
 endfacet
 facet normal -1.477318e-14  6.287409e-15 -1.000000e+00
   outer loop
     vertex  5.733330e+02  5.102248e+02  1.000000e+00
     vertex  5.709392e+02  5.046001e+02  1.000000e+00
     vertex  5.709392e+02  5.096856e+02  1.000000e+00
   endloop
 endfacet
 facet normal  1.538370e-15  9.188053e-16 -1.000000e+00
   outer loop
     vertex  5.755580e+02  5.104001e+02  1.000000e+00
     vertex  5.801768e+02  5.046001e+02  1.000000e+00
     vertex  5.709392e+02  5.046001e+02  1.000000e+00
   endloop
 endfacet
 facet normal  5.782563e-15 -2.461037e-15 -1.000000e+00
   outer loop
     vertex  5.755580e+02  5.104001e+02  1.000000e+00
     vertex  5.709392e+02  5.046001e+02  1.000000e+00
     vertex  5.733330e+02  5.102248e+02  1.000000e+00
   endloop
 endfacet
 facet normal -1.303487e-15 -1.344294e-15 -1.000000e+00
   outer loop
     vertex  5.777830e+02  5.102248e+02  1.000000e+00
     vertex  5.801768e+02  5.046001e+02  1.000000e+00
     vertex  5.755580e+02  5.104001e+02  1.000000e+00
   endloop
 endfacet
 facet normal  1.855126e-15  0.000000e+00 -1.000000e+00
   outer loop
     vertex  5.801768e+02  5.096856e+02  1.000000e+00
     vertex  5.801768e+02  5.046001e+02  1.000000e+00
     vertex  5.777830e+02  5.102248e+02  1.000000e+00
   endloop
 endfacet
 facet normal  8.660254e-01  0.000000e+00 -5.000000e-01
   outer loop
     vertex  5.801768e+02  5.046001e+02  1.000000e+00
     vertex  5.801768e+02  5.096856e+02  1.000000e+00
     vertex  5.813737e+02  5.102248e+02  3.073134e+00
   endloop
 endfacet
 facet normal  8.660254e-01 -3.603566e-15 -5.000000e-01
   outer loop
     vertex  5.801768e+02  5.046001e+02  1.000000e+00
     vertex  5.813737e+02  5.102248e+02  3.073134e+00
     vertex  5.824862e+02  5.104001e+02  5.000000e+00
   endloop
 endfacet
 facet normal  8.660254e-01  2.292024e-15 -5.000000e-01
   outer loop
     vertex  5.847956e+02  5.046001e+02  9.000000e+00
     vertex  5.824862e+02  5.104001e+02  5.000000e+00
     vertex  5.835987e+02  5.102248e+02  6.926866e+00
   endloop
 endfacet
 facet normal  8.660254e-01 -6.986010e-16 -5.000000e-01
   outer loop
     vertex  5.847956e+02  5.046001e+02  9.000000e+00
     vertex  5.835987e+02  5.102248e+02  6.926866e+00
     vertex  5.847956e+02  5.096856e+02  9.000000e+00
   endloop
 endfacet
 facet normal  8.660254e-01  2.549782e-16 -5.000000e-01
   outer loop
     vertex  5.847956e+02  5.046001e+02  9.000000e+00
     vertex  5.801768e+02  5.046001e+02  1.000000e+00
     vertex  5.824862e+02  5.104001e+02  5.000000e+00
   endloop
 endfacet
 facet normal  8.660254e-01 -1.924858e-15  5.000000e-01
   outer loop
     vertex  5.801768e+02  5.046001e+02  1.700000e+01
     vertex  5.824862e+02  5.104001e+02  1.300000e+01
     vertex  5.813737e+02  5.102248e+02  1.492687e+01
   endloop
 endfacet
 facet normal  8.660254e-01 -0.000000e+00  5.000000e-01
   outer loop
     vertex  5.801768e+02  5.046001e+02  1.700000e+01
     vertex  5.813737e+02  5.102248e+02  1.492687e+01
     vertex  5.801768e+02  5.096856e+02  1.700000e+01
   endloop
 endfacet
 facet normal  8.660254e-01  6.986010e-16  5.000000e-01
   outer loop
     vertex  5.847956e+02  5.046001e+02  9.000000e+00
     vertex  5.847956e+02  5.096856e+02  9.000000e+00
     vertex  5.835987e+02  5.102248e+02  1.107313e+01
   endloop
 endfacet
 facet normal  8.660254e-01  2.213605e-15  5.000000e-01
   outer loop
     vertex  5.847956e+02  5.046001e+02  9.000000e+00
     vertex  5.835987e+02  5.102248e+02  1.107313e+01
     vertex  5.824862e+02  5.104001e+02  1.300000e+01
   endloop
 endfacet
 facet normal  8.660254e-01  1.483734e-16  5.000000e-01
   outer loop
     vertex  5.847956e+02  5.046001e+02  9.000000e+00
     vertex  5.824862e+02  5.104001e+02  1.300000e+01
     vertex  5.801768e+02  5.046001e+02  1.700000e+01
   endloop
 endfacet
 facet normal -0.000000e+00 -1.000000e+00  0.000000e+00
   outer loop
     vertex  5.714026e+02  5.046001e+02  1.502013e+01
     vertex  5.709392e+02  5.046001e+02  1.700000e+01
     vertex  5.700826e+02  5.046001e+02  1.385074e+01
   endloop
 endfacet
 facet normal  0.000000e+00 -1.000000e+00  0.000000e+00
   outer loop
     vertex  5.690809e+02  5.046001e+02  1.239945e+01
     vertex  5.700826e+02  5.046001e+02  1.385074e+01
     vertex  5.709392e+02  5.046001e+02  1.700000e+01
   endloop
 endfacet
 facet normal -0.000000e+00 -1.000000e+00  0.000000e+00
   outer loop
     vertex  5.729641e+02  5.046001e+02  1.583964e+01
     vertex  5.709392e+02  5.046001e+02  1.700000e+01
     vertex  5.714026e+02  5.046001e+02  1.502013e+01
   endloop
 endfacet
 facet normal  0.000000e+00 -1.000000e+00  0.000000e+00
   outer loop
     vertex  5.663204e+02  5.046001e+02  9.000000e+00
     vertex  5.690809e+02  5.046001e+02  1.239945e+01
     vertex  5.709392e+02  5.046001e+02  1.700000e+01
   endloop
 endfacet
 facet normal -0.000000e+00 -1.000000e+00  0.000000e+00
   outer loop
     vertex  5.684556e+02  5.046001e+02  1.075059e+01
     vertex  5.690809e+02  5.046001e+02  1.239945e+01
     vertex  5.663204e+02  5.046001e+02  9.000000e+00
   endloop
 endfacet
 facet normal -0.000000e+00 -1.000000e+00  0.000000e+00
   outer loop
     vertex  5.746763e+02  5.046001e+02  1.626167e+01
     vertex  5.709392e+02  5.046001e+02  1.700000e+01
     vertex  5.729641e+02  5.046001e+02  1.583964e+01
   endloop
 endfacet
 facet normal -0.000000e+00 -1.000000e+00  0.000000e+00
   outer loop
     vertex  5.682430e+02  5.046001e+02  9.000000e+00
     vertex  5.684556e+02  5.046001e+02  1.075059e+01
     vertex  5.663204e+02  5.046001e+02  9.000000e+00
   endloop
 endfacet
 facet normal  0.000000e+00 -1.000000e+00  0.000000e+00
   outer loop
     vertex  5.684556e+02  5.046001e+02  7.249406e+00
     vertex  5.682430e+02  5.046001e+02  9.000000e+00
     vertex  5.663204e+02  5.046001e+02  9.000000e+00
   endloop
 endfacet
 facet normal  0.000000e+00 -1.000000e+00  0.000000e+00
   outer loop
     vertex  5.801768e+02  5.046001e+02  1.700000e+01
     vertex  5.764397e+02  5.046001e+02  1.626167e+01
     vertex  5.781519e+02  5.046001e+02  1.583964e+01
   endloop
 endfacet
 facet normal  0.000000e+00 -1.000000e+00  0.000000e+00
   outer loop
     vertex  5.801768e+02  5.046001e+02  1.700000e+01
     vertex  5.746763e+02  5.046001e+02  1.626167e+01
     vertex  5.764397e+02  5.046001e+02  1.626167e+01
   endloop
 endfacet
 facet normal  0.000000e+00 -1.000000e+00  0.000000e+00
   outer loop
     vertex  5.801768e+02  5.046001e+02  1.700000e+01
     vertex  5.709392e+02  5.046001e+02  1.700000e+01
     vertex  5.746763e+02  5.046001e+02  1.626167e+01
   endloop
 endfacet
 facet normal  0.000000e+00 -1.000000e+00  0.000000e+00
   outer loop
     vertex  5.690809e+02  5.046001e+02  5.600550e+00
     vertex  5.684556e+02  5.046001e+02  7.249406e+00
     vertex  5.663204e+02  5.046001e+02  9.000000e+00
   endloop
 endfacet
 facet normal  0.000000e+00 -1.000000e+00  0.000000e+00
   outer loop
     vertex  5.797134e+02  5.046001e+02  1.502013e+01
     vertex  5.801768e+02  5.046001e+02  1.700000e+01
     vertex  5.781519e+02  5.046001e+02  1.583964e+01
   endloop
 endfacet
 facet normal  0.000000e+00 -1.000000e+00  0.000000e+00
   outer loop
     vertex  5.810334e+02  5.046001e+02  1.385074e+01
     vertex  5.801768e+02  5.046001e+02  1.700000e+01
     vertex  5.797134e+02  5.046001e+02  1.502013e+01
   endloop
 endfacet
 facet normal  0.000000e+00 -1.000000e+00  0.000000e+00
   outer loop
     vertex  5.820351e+02  5.046001e+02  1.239945e+01
     vertex  5.801768e+02  5.046001e+02  1.700000e+01
     vertex  5.810334e+02  5.046001e+02  1.385074e+01
   endloop
 endfacet
 facet normal  0.000000e+00 -1.000000e+00  0.000000e+00
   outer loop
     vertex  5.709392e+02  5.046001e+02  1.000000e+00
     vertex  5.700826e+02  5.046001e+02  4.149258e+00
     vertex  5.690809e+02  5.046001e+02  5.600550e+00
   endloop
 endfacet
 facet normal  0.000000e+00 -1.000000e+00  0.000000e+00
   outer loop
     vertex  5.709392e+02  5.046001e+02  1.000000e+00
     vertex  5.714026e+02  5.046001e+02  2.979873e+00
     vertex  5.700826e+02  5.046001e+02  4.149258e+00
   endloop
 endfacet
 facet normal  0.000000e+00 -1.000000e+00  0.000000e+00
   outer loop
     vertex  5.709392e+02  5.046001e+02  1.000000e+00
     vertex  5.690809e+02  5.046001e+02  5.600550e+00
     vertex  5.663204e+02  5.046001e+02  9.000000e+00
   endloop
 endfacet
 facet normal -0.000000e+00 -1.000000e+00  0.000000e+00
   outer loop
     vertex  5.729641e+02  5.046001e+02  2.160356e+00
     vertex  5.714026e+02  5.046001e+02  2.979873e+00
     vertex  5.709392e+02  5.046001e+02  1.000000e+00
   endloop
 endfacet
 facet normal -0.000000e+00 -1.000000e+00  0.000000e+00
   outer loop
     vertex  5.746763e+02  5.046001e+02  1.738335e+00
     vertex  5.729641e+02  5.046001e+02  2.160356e+00
     vertex  5.709392e+02  5.046001e+02  1.000000e+00
   endloop
 endfacet
 facet normal -0.000000e+00 -1.000000e+00  0.000000e+00
   outer loop
     vertex  5.764397e+02  5.046001e+02  1.738335e+00
     vertex  5.746763e+02  5.046001e+02  1.738335e+00
     vertex  5.709392e+02  5.046001e+02  1.000000e+00
   endloop
 endfacet
 facet normal -4.800152e-28 -1.000000e+00  3.247093e-14
   outer loop
     vertex  5.847956e+02  5.046001e+02  9.000000e+00
     vertex  5.828730e+02  5.046001e+02  9.000000e+00
     vertex  5.826604e+02  5.046001e+02  7.249406e+00
   endloop
 endfacet
 facet normal -0.000000e+00 -1.000000e+00  0.000000e+00
   outer loop
     vertex  5.847956e+02  5.046001e+02  9.000000e+00
     vertex  5.826604e+02  5.046001e+02  1.075059e+01
     vertex  5.828730e+02  5.046001e+02  9.000000e+00
   endloop
 endfacet
 facet normal  0.000000e+00 -1.000000e+00  0.000000e+00
   outer loop
     vertex  5.847956e+02  5.046001e+02  9.000000e+00
     vertex  5.820351e+02  5.046001e+02  1.239945e+01
     vertex  5.826604e+02  5.046001e+02  1.075059e+01
   endloop
 endfacet
 facet normal  3.863608e-14 -1.000000e+00 -1.465273e-14
   outer loop
     vertex  5.820351e+02  5.046001e+02  5.600550e+00
     vertex  5.847956e+02  5.046001e+02  9.000000e+00
     vertex  5.826604e+02  5.046001e+02  7.249406e+00
   endloop
 endfacet
 facet normal  0.000000e+00 -1.000000e+00  0.000000e+00
   outer loop
     vertex  5.801768e+02  5.046001e+02  1.000000e+00
     vertex  5.781519e+02  5.046001e+02  2.160356e+00
     vertex  5.764397e+02  5.046001e+02  1.738335e+00
   endloop
 endfacet
 facet normal  0.000000e+00 -1.000000e+00  0.000000e+00
   outer loop
     vertex  5.801768e+02  5.046001e+02  1.000000e+00
     vertex  5.797134e+02  5.046001e+02  2.979873e+00
     vertex  5.781519e+02  5.046001e+02  2.160356e+00
   endloop
 endfacet
 facet normal  0.000000e+00 -1.000000e+00  0.000000e+00
   outer loop
     vertex  5.801768e+02  5.046001e+02  1.000000e+00
     vertex  5.810334e+02  5.046001e+02  4.149258e+00
     vertex  5.797134e+02  5.046001e+02  2.979873e+00
   endloop
 endfacet
 facet normal -9.364285e-14 -1.000000e+00  2.546954e-14
   outer loop
     vertex  5.801768e+02  5.046001e+02  1.000000e+00
     vertex  5.820351e+02  5.046001e+02  5.600550e+00
     vertex  5.810334e+02  5.046001e+02  4.149258e+00
   endloop
 endfacet
 facet normal -0.000000e+00 -1.000000e+00  0.000000e+00
   outer loop
     vertex  5.801768e+02  5.046001e+02  1.000000e+00
     vertex  5.764397e+02  5.046001e+02  1.738335e+00
     vertex  5.709392e+02  5.046001e+02  1.000000e+00
   endloop
 endfacet
 facet normal  0.000000e+00 -1.000000e+00  0.000000e+00
   outer loop
     vertex  5.847956e+02  5.046001e+02  9.000000e+00
     vertex  5.801768e+02  5.046001e+02  1.700000e+01
     vertex  5.820351e+02  5.046001e+02  1.239945e+01
   endloop
 endfacet
 facet normal  7.124842e-14 -1.000000e+00 -4.113529e-14
   outer loop
     vertex  5.801768e+02  5.046001e+02  1.000000e+00
     vertex  5.847956e+02  5.046001e+02  9.000000e+00
     vertex  5.820351e+02  5.046001e+02  5.600550e+00
   endloop
 endfacet
 facet normal -1.652161e-15  7.031535e-16  1.000000e+00
   outer loop
     vertex  5.709392e+02  5.046001e+02  1.700000e+01
     vertex  5.755580e+02  5.104001e+02  1.700000e+01
     vertex  5.733330e+02  5.102248e+02  1.700000e+01
   endloop
 endfacet
 facet normal  0.000000e+00  0.000000e+00  1.000000e+00
   outer loop
     vertex  5.709392e+02  5.046001e+02  1.700000e+01
     vertex  5.733330e+02  5.102248e+02  1.700000e+01
     vertex  5.709392e+02  5.096856e+02  1.700000e+01
   endloop
 endfacet
 facet normal  0.000000e+00 -0.000000e+00  1.000000e+00
   outer loop
     vertex  5.801768e+02  5.046001e+02  1.700000e+01
     vertex  5.801768e+02  5.096856e+02  1.700000e+01
     vertex  5.777830e+02  5.102248e+02  1.700000e+01
   endloop
 endfacet
 facet normal -3.304322e-15 -1.406307e-15  1.000000e+00
   outer loop
     vertex  5.801768e+02  5.046001e+02  1.700000e+01
     vertex  5.777830e+02  5.102248e+02  1.700000e+01
     vertex  5.755580e+02  5.104001e+02  1.700000e+01
   endloop
 endfacet
 facet normal -1.153778e-15  3.062684e-16  1.000000e+00
   outer loop
     vertex  5.801768e+02  5.046001e+02  1.700000e+01
     vertex  5.755580e+02  5.104001e+02  1.700000e+01
     vertex  5.709392e+02  5.046001e+02  1.700000e+01
   endloop
 endfacet
 facet normal -8.660254e-01  0.000000e+00  5.000000e-01
   outer loop
     vertex  5.709392e+02  5.046001e+02  1.700000e+01
     vertex  5.709392e+02  5.096856e+02  1.700000e+01
     vertex  5.697423e+02  5.102248e+02  1.492687e+01
   endloop
 endfacet
 facet normal -8.660254e-01 -3.773154e-15  5.000000e-01
   outer loop
     vertex  5.709392e+02  5.046001e+02  1.700000e+01
     vertex  5.697423e+02  5.102248e+02  1.492687e+01
     vertex  5.686298e+02  5.104001e+02  1.300000e+01
   endloop
 endfacet
 facet normal -8.660254e-01  3.438037e-15  5.000000e-01
   outer loop
     vertex  5.663204e+02  5.046001e+02  9.000000e+00
     vertex  5.686298e+02  5.104001e+02  1.300000e+01
     vertex  5.675173e+02  5.102248e+02  1.107313e+01
   endloop
 endfacet
 facet normal -8.660254e-01 -2.445104e-15  5.000000e-01
   outer loop
     vertex  5.663204e+02  5.046001e+02  9.000000e+00
     vertex  5.675173e+02  5.102248e+02  1.107313e+01
     vertex  5.663204e+02  5.096856e+02  9.000000e+00
   endloop
 endfacet
 facet normal -8.660254e-01  3.110292e-16  5.000000e-01
   outer loop
     vertex  5.663204e+02  5.046001e+02  9.000000e+00
     vertex  5.709392e+02  5.046001e+02  1.700000e+01
     vertex  5.686298e+02  5.104001e+02  1.300000e+01
   endloop
 endfacet
 facet normal -8.660254e-01  2.460070e-15 -5.000000e-01
   outer loop
     vertex  5.675173e+02  5.102248e+02  6.926866e+00
     vertex  5.663204e+02  5.046001e+02  9.000000e+00
     vertex  5.663204e+02  5.096856e+02  9.000000e+00
   endloop
 endfacet
 facet normal -8.660254e-01  8.920554e-17 -5.000000e-01
   outer loop
     vertex  5.686298e+02  5.104001e+02  5.000000e+00
     vertex  5.709392e+02  5.046001e+02  1.000000e+00
     vertex  5.663204e+02  5.046001e+02  9.000000e+00
   endloop
 endfacet
 facet normal -8.660254e-01  9.142385e-16 -5.000000e-01
   outer loop
     vertex  5.686298e+02  5.104001e+02  5.000000e+00
     vertex  5.663204e+02  5.046001e+02  9.000000e+00
     vertex  5.675173e+02  5.102248e+02  6.926866e+00
   endloop
 endfacet
 facet normal -8.660254e-01 -1.591213e-15 -5.000000e-01
   outer loop
     vertex  5.697423e+02  5.102248e+02  3.073134e+00
     vertex  5.709392e+02  5.046001e+02  1.000000e+00
     vertex  5.686298e+02  5.104001e+02  5.000000e+00
   endloop
 endfacet
 facet normal -8.660254e-01  3.143705e-15 -5.000000e-01
   outer loop
     vertex  5.709392e+02  5.096856e+02  1.000000e+00
     vertex  5.709392e+02  5.046001e+02  1.000000e+00
     vertex  5.697423e+02  5.102248e+02  3.073134e+00
   endloop
 endfacet
 facet normal  0.000000e+00  1.000000e+00  0.000000e+00
   outer loop
     vertex  5.723041e+02  5.104001e+02  1.630836e+01
     vertex  5.696128e+02  5.104001e+02  1.435304e+01
     vertex  5.708557e+02  5.104001e+02  1.547214e+01
   endloop
 endfacet
 facet normal  0.000000e+00  1.000000e+00  0.000000e+00
   outer loop
     vertex  5.676018e+02  5.104001e+02  8.163772e+00
     vertex  5.676018e+02  5.104001e+02  9.836228e+00
     vertex  5.679495e+02  5.104001e+02  1.147214e+01
   endloop
 endfacet
 facet normal -3.092412e-13  1.000000e+00 -1.004786e-13
   outer loop
     vertex  5.686298e+02  5.104001e+02  5.000000e+00
     vertex  5.679495e+02  5.104001e+02  6.527864e+00
     vertex  5.676018e+02  5.104001e+02  8.163772e+00
   endloop
 endfacet
 facet normal  0.000000e+00  1.000000e+00  0.000000e+00
   outer loop
     vertex  5.686298e+02  5.104001e+02  5.000000e+00
     vertex  5.676018e+02  5.104001e+02  8.163772e+00
     vertex  5.679495e+02  5.104001e+02  1.147214e+01
   endloop
 endfacet
 facet normal  0.000000e+00  1.000000e+00 -0.000000e+00
   outer loop
     vertex  5.696128e+02  5.104001e+02  3.646955e+00
     vertex  5.686298e+02  5.104001e+02  1.300000e+01
     vertex  5.696128e+02  5.104001e+02  1.435304e+01
   endloop
 endfacet
 facet normal  0.000000e+00  1.000000e+00  0.000000e+00
   outer loop
     vertex  5.696128e+02  5.104001e+02  3.646955e+00
     vertex  5.679495e+02  5.104001e+02  1.147214e+01
     vertex  5.686298e+02  5.104001e+02  1.300000e+01
   endloop
 endfacet
 facet normal  0.000000e+00  1.000000e+00  0.000000e+00
   outer loop
     vertex  5.696128e+02  5.104001e+02  3.646955e+00
     vertex  5.696128e+02  5.104001e+02  1.435304e+01
     vertex  5.723041e+02  5.104001e+02  1.630836e+01
   endloop
 endfacet
 facet normal  0.000000e+00  1.000000e+00  0.000000e+00
   outer loop
     vertex  5.696128e+02  5.104001e+02  3.646955e+00
     vertex  5.686298e+02  5.104001e+02  5.000000e+00
     vertex  5.679495e+02  5.104001e+02  1.147214e+01
   endloop
 endfacet
 facet normal -1.911216e-13  1.000000e+00 -2.630563e-13
   outer loop
     vertex  5.815032e+02  5.104001e+02  1.435304e+01
     vertex  5.788119e+02  5.104001e+02  1.630836e+01
     vertex  5.802603e+02  5.104001e+02  1.547214e+01
   endloop
 endfacet
 facet normal  0.000000e+00  1.000000e+00  0.000000e+00
   outer loop
     vertex  5.723041e+02  5.104001e+02  1.691636e+00
     vertex  5.723041e+02  5.104001e+02  1.630836e+01
     vertex  5.738947e+02  5.104001e+02  1.682518e+01
   endloop
 endfacet
 facet normal  0.000000e+00  1.000000e+00  0.000000e+00
   outer loop
     vertex  5.723041e+02  5.104001e+02  1.691636e+00
     vertex  5.738947e+02  5.104001e+02  1.682518e+01
     vertex  5.755580e+02  5.104001e+02  1.700000e+01
   endloop
 endfacet
 facet normal  0.000000e+00  1.000000e+00  0.000000e+00
   outer loop
     vertex  5.723041e+02  5.104001e+02  1.691636e+00
     vertex  5.708557e+02  5.104001e+02  2.527864e+00
     vertex  5.696128e+02  5.104001e+02  3.646955e+00
   endloop
 endfacet
 facet normal  0.000000e+00  1.000000e+00 -0.000000e+00
   outer loop
     vertex  5.723041e+02  5.104001e+02  1.691636e+00
     vertex  5.696128e+02  5.104001e+02  3.646955e+00
     vertex  5.723041e+02  5.104001e+02  1.630836e+01
   endloop
 endfacet
 facet normal  0.000000e+00  1.000000e+00  0.000000e+00
   outer loop
     vertex  5.755580e+02  5.104001e+02  1.000000e+00
     vertex  5.738947e+02  5.104001e+02  1.174819e+00
     vertex  5.723041e+02  5.104001e+02  1.691636e+00
   endloop
 endfacet
 facet normal  0.000000e+00  1.000000e+00 -0.000000e+00
   outer loop
     vertex  5.755580e+02  5.104001e+02  1.000000e+00
     vertex  5.723041e+02  5.104001e+02  1.691636e+00
     vertex  5.755580e+02  5.104001e+02  1.700000e+01
   endloop
 endfacet
 facet normal  3.417522e-14  1.000000e+00  2.482545e-28
   outer loop
     vertex  5.772213e+02  5.104001e+02  1.174819e+00
     vertex  5.755580e+02  5.104001e+02  1.700000e+01
     vertex  5.772213e+02  5.104001e+02  1.682518e+01
   endloop
 endfacet
 facet normal  3.417522e-14  1.000000e+00  0.000000e+00
   outer loop
     vertex  5.772213e+02  5.104001e+02  1.174819e+00
     vertex  5.755580e+02  5.104001e+02  1.000000e+00
     vertex  5.755580e+02  5.104001e+02  1.700000e+01
   endloop
 endfacet
 facet normal  0.000000e+00  1.000000e+00  0.000000e+00
   outer loop
     vertex  5.831665e+02  5.104001e+02  6.527864e+00
     vertex  5.831665e+02  5.104001e+02  1.147214e+01
     vertex  5.835142e+02  5.104001e+02  9.836228e+00
   endloop
 endfacet
 facet normal  0.000000e+00  1.000000e+00  0.000000e+00
   outer loop
     vertex  5.831665e+02  5.104001e+02  6.527864e+00
     vertex  5.835142e+02  5.104001e+02  9.836228e+00
     vertex  5.835142e+02  5.104001e+02  8.163772e+00
   endloop
 endfacet
 facet normal  0.000000e+00  1.000000e+00  0.000000e+00
   outer loop
     vertex  5.788119e+02  5.104001e+02  1.691636e+00
     vertex  5.772213e+02  5.104001e+02  1.174819e+00
     vertex  5.772213e+02  5.104001e+02  1.682518e+01
   endloop
 endfacet
 facet normal  8.356268e-14  1.000000e+00 -0.000000e+00
   outer loop
     vertex  5.824862e+02  5.104001e+02  5.000000e+00
     vertex  5.824862e+02  5.104001e+02  1.300000e+01
     vertex  5.831665e+02  5.104001e+02  1.147214e+01
   endloop
 endfacet
 facet normal -5.782384e-14  1.000000e+00  0.000000e+00
   outer loop
     vertex  5.824862e+02  5.104001e+02  5.000000e+00
     vertex  5.815032e+02  5.104001e+02  1.435304e+01
     vertex  5.824862e+02  5.104001e+02  1.300000e+01
   endloop
 endfacet
 facet normal  8.356268e-14  1.000000e+00  0.000000e+00
   outer loop
     vertex  5.824862e+02  5.104001e+02  5.000000e+00
     vertex  5.831665e+02  5.104001e+02  1.147214e+01
     vertex  5.831665e+02  5.104001e+02  6.527864e+00
   endloop
 endfacet
 facet normal  0.000000e+00  1.000000e+00  0.000000e+00
   outer loop
     vertex  5.815032e+02  5.104001e+02  3.646955e+00
     vertex  5.802603e+02  5.104001e+02  2.527864e+00
     vertex  5.788119e+02  5.104001e+02  1.691636e+00
   endloop
 endfacet
 facet normal  0.000000e+00  1.000000e+00  0.000000e+00
   outer loop
     vertex  5.815032e+02  5.104001e+02  3.646955e+00
     vertex  5.772213e+02  5.104001e+02  1.682518e+01
     vertex  5.788119e+02  5.104001e+02  1.630836e+01
   endloop
 endfacet
 facet normal  0.000000e+00  1.000000e+00 -0.000000e+00
   outer loop
     vertex  5.815032e+02  5.104001e+02  3.646955e+00
     vertex  5.788119e+02  5.104001e+02  1.630836e+01
     vertex  5.815032e+02  5.104001e+02  1.435304e+01
   endloop
 endfacet
 facet normal -5.782384e-14  1.000000e+00  0.000000e+00
   outer loop
     vertex  5.815032e+02  5.104001e+02  3.646955e+00
     vertex  5.815032e+02  5.104001e+02  1.435304e+01
     vertex  5.824862e+02  5.104001e+02  5.000000e+00
   endloop
 endfacet
 facet normal  0.000000e+00  1.000000e+00  0.000000e+00
   outer loop
     vertex  5.815032e+02  5.104001e+02  3.646955e+00
     vertex  5.788119e+02  5.104001e+02  1.691636e+00
     vertex  5.772213e+02  5.104001e+02  1.682518e+01
   endloop
 endfacet
 facet normal -9.927089e-01 -8.978996e-18 -1.205367e-01
   outer loop
     vertex  5.684556e+02  5.040000e+02  7.249406e+00
     vertex  5.682430e+02  5.040000e+02  9.000000e+00
     vertex  5.682430e+02  5.046001e+02  9.000000e+00
   endloop
 endfacet
 facet normal -9.927089e-01  3.568008e-16 -1.205367e-01
   outer loop
     vertex  5.684556e+02  5.040000e+02  7.249406e+00
     vertex  5.682430e+02  5.046001e+02  9.000000e+00
     vertex  5.684556e+02  5.046001e+02  7.249406e+00
   endloop
 endfacet
 facet normal -9.350162e-01 -1.049666e-15 -3.546049e-01
   outer loop
     vertex  5.690809e+02  5.040000e+02  5.600550e+00
     vertex  5.684556e+02  5.046001e+02  7.249406e+00
     vertex  5.690809e+02  5.046001e+02  5.600550e+00
   endloop
 endfacet
 facet normal -9.350162e-01  1.013110e-15 -3.546049e-01
   outer loop
     vertex  5.690809e+02  5.040000e+02  5.600550e+00
     vertex  5.684556e+02  5.040000e+02  7.249406e+00
     vertex  5.684556e+02  5.046001e+02  7.249406e+00
   endloop
 endfacet
 facet normal -8.229839e-01  0.000000e+00 -5.680647e-01
   outer loop
     vertex  5.700826e+02  5.040000e+02  4.149258e+00
     vertex  5.690809e+02  5.046001e+02  5.600550e+00
     vertex  5.700826e+02  5.046001e+02  4.149258e+00
   endloop
 endfacet
 facet normal -8.229839e-01 -1.629809e-15 -5.680647e-01
   outer loop
     vertex  5.700826e+02  5.040000e+02  4.149258e+00
     vertex  5.690809e+02  5.040000e+02  5.600550e+00
     vertex  5.690809e+02  5.046001e+02  5.600550e+00
   endloop
 endfacet
 facet normal -6.631227e-01  0.000000e+00 -7.485107e-01
   outer loop
     vertex  5.714026e+02  5.040000e+02  2.979873e+00
     vertex  5.700826e+02  5.046001e+02  4.149258e+00
     vertex  5.714026e+02  5.046001e+02  2.979873e+00
   endloop
 endfacet
 facet normal -6.631227e-01  5.370826e-17 -7.485107e-01
   outer loop
     vertex  5.714026e+02  5.040000e+02  2.979873e+00
     vertex  5.700826e+02  5.040000e+02  4.149258e+00
     vertex  5.700826e+02  5.046001e+02  4.149258e+00
   endloop
 endfacet
 facet normal -4.647232e-01  0.000000e+00 -8.854560e-01
   outer loop
     vertex  5.729641e+02  5.040000e+02  2.160356e+00
     vertex  5.714026e+02  5.046001e+02  2.979873e+00
     vertex  5.729641e+02  5.046001e+02  2.160356e+00
   endloop
 endfacet
 facet normal -4.647232e-01  6.295433e-17 -8.854560e-01
   outer loop
     vertex  5.729641e+02  5.040000e+02  2.160356e+00
     vertex  5.714026e+02  5.040000e+02  2.979873e+00
     vertex  5.714026e+02  5.046001e+02  2.979873e+00
   endloop
 endfacet
 facet normal -2.393157e-01  5.748172e-15 -9.709418e-01
   outer loop
     vertex  5.746763e+02  5.040000e+02  1.738335e+00
     vertex  5.729641e+02  5.046001e+02  2.160356e+00
     vertex  5.746763e+02  5.046001e+02  1.738335e+00
   endloop
 endfacet
 facet normal -2.393157e-01  1.853317e-17 -9.709418e-01
   outer loop
     vertex  5.746763e+02  5.040000e+02  1.738335e+00
     vertex  5.729641e+02  5.040000e+02  2.160356e+00
     vertex  5.729641e+02  5.046001e+02  2.160356e+00
   endloop
 endfacet
 facet normal -2.014636e-15  0.000000e+00 -1.000000e+00
   outer loop
     vertex  5.764397e+02  5.040000e+02  1.738335e+00
     vertex  5.746763e+02  5.046001e+02  1.738335e+00
     vertex  5.764397e+02  5.046001e+02  1.738335e+00
   endloop
 endfacet
 facet normal  2.393157e-01  0.000000e+00 -9.709418e-01
   outer loop
     vertex  5.764397e+02  5.040000e+02  1.738335e+00
     vertex  5.764397e+02  5.046001e+02  1.738335e+00
     vertex  5.781519e+02  5.046001e+02  2.160356e+00
   endloop
 endfacet
 facet normal  0.000000e+00  5.920203e-15 -1.000000e+00
   outer loop
     vertex  5.764397e+02  5.040000e+02  1.738335e+00
     vertex  5.746763e+02  5.040000e+02  1.738335e+00
     vertex  5.746763e+02  5.046001e+02  1.738335e+00
   endloop
 endfacet
 facet normal  2.393157e-01  0.000000e+00 -9.709418e-01
   outer loop
     vertex  5.781519e+02  5.040000e+02  2.160356e+00
     vertex  5.764397e+02  5.040000e+02  1.738335e+00
     vertex  5.781519e+02  5.046001e+02  2.160356e+00
   endloop
 endfacet
 facet normal  4.647232e-01  0.000000e+00 -8.854560e-01
   outer loop
     vertex  5.797134e+02  5.040000e+02  2.979873e+00
     vertex  5.781519e+02  5.046001e+02  2.160356e+00
     vertex  5.797134e+02  5.046001e+02  2.979873e+00
   endloop
 endfacet
 facet normal  4.647232e-01 -5.945909e-17 -8.854560e-01
   outer loop
     vertex  5.797134e+02  5.040000e+02  2.979873e+00
     vertex  5.781519e+02  5.040000e+02  2.160356e+00
     vertex  5.781519e+02  5.046001e+02  2.160356e+00
   endloop
 endfacet
 facet normal  6.631227e-01  2.215668e-15 -7.485107e-01
   outer loop
     vertex  5.810334e+02  5.040000e+02  4.149258e+00
     vertex  5.797134e+02  5.046001e+02  2.979873e+00
     vertex  5.810334e+02  5.046001e+02  4.149258e+00
   endloop
 endfacet
 facet normal  8.229839e-01  1.681529e-15 -5.680647e-01
   outer loop
     vertex  5.810334e+02  5.040000e+02  4.149258e+00
     vertex  5.810334e+02  5.046001e+02  4.149258e+00
     vertex  5.820351e+02  5.046001e+02  5.600550e+00
   endloop
 endfacet
 facet normal  6.631227e-01  3.867679e-17 -7.485107e-01
   outer loop
     vertex  5.810334e+02  5.040000e+02  4.149258e+00
     vertex  5.797134e+02  5.040000e+02  2.979873e+00
     vertex  5.797134e+02  5.046001e+02  2.979873e+00
   endloop
 endfacet
 facet normal  8.229839e-01 -1.681529e-15 -5.680647e-01
   outer loop
     vertex  5.820351e+02  5.040000e+02  5.600550e+00
     vertex  5.810334e+02  5.040000e+02  4.149258e+00
     vertex  5.820351e+02  5.046001e+02  5.600550e+00
   endloop
 endfacet
 facet normal  9.350162e-01 -1.013661e-15 -3.546049e-01
   outer loop
     vertex  5.826604e+02  5.040000e+02  7.249406e+00
     vertex  5.820351e+02  5.040000e+02  5.600550e+00
     vertex  5.820351e+02  5.046001e+02  5.600550e+00
   endloop
 endfacet
 facet normal  9.350162e-01  0.000000e+00 -3.546049e-01
   outer loop
     vertex  5.826604e+02  5.040000e+02  7.249406e+00
     vertex  5.820351e+02  5.046001e+02  5.600550e+00
     vertex  5.826604e+02  5.046001e+02  7.249406e+00
   endloop
 endfacet
 facet normal  9.927089e-01  8.978996e-18 -1.205367e-01
   outer loop
     vertex  5.828730e+02  5.040000e+02  9.000000e+00
     vertex  5.826604e+02  5.040000e+02  7.249406e+00
     vertex  5.826604e+02  5.046001e+02  7.249406e+00
   endloop
 endfacet
 facet normal  9.927089e-01  0.000000e+00 -1.205367e-01
   outer loop
     vertex  5.828730e+02  5.040000e+02  9.000000e+00
     vertex  5.826604e+02  5.046001e+02  7.249406e+00
     vertex  5.828730e+02  5.046001e+02  9.000000e+00
   endloop
 endfacet
 facet normal  9.927089e-01  1.410421e-18  1.205367e-01
   outer loop
     vertex  5.826604e+02  5.040000e+02  1.075059e+01
     vertex  5.828730e+02  5.040000e+02  9.000000e+00
     vertex  5.828730e+02  5.046001e+02  9.000000e+00
   endloop
 endfacet
 facet normal  9.927089e-01 -0.000000e+00  1.205367e-01
   outer loop
     vertex  5.826604e+02  5.040000e+02  1.075059e+01
     vertex  5.828730e+02  5.046001e+02  9.000000e+00
     vertex  5.826604e+02  5.046001e+02  1.075059e+01
   endloop
 endfacet
 facet normal  9.350162e-01 -0.000000e+00  3.546049e-01
   outer loop
     vertex  5.826604e+02  5.040000e+02  1.075059e+01
     vertex  5.826604e+02  5.046001e+02  1.075059e+01
     vertex  5.820351e+02  5.046001e+02  1.239945e+01
   endloop
 endfacet
 facet normal  9.350162e-01 -1.049666e-15  3.546049e-01
   outer loop
     vertex  5.820351e+02  5.040000e+02  1.239945e+01
     vertex  5.826604e+02  5.040000e+02  1.075059e+01
     vertex  5.820351e+02  5.046001e+02  1.239945e+01
   endloop
 endfacet
 facet normal  8.229839e-01 -1.647158e-15  5.680647e-01
   outer loop
     vertex  5.810334e+02  5.040000e+02  1.385074e+01
     vertex  5.820351e+02  5.040000e+02  1.239945e+01
     vertex  5.820351e+02  5.046001e+02  1.239945e+01
   endloop
 endfacet
 facet normal  8.229839e-01 -1.681529e-15  5.680647e-01
   outer loop
     vertex  5.810334e+02  5.040000e+02  1.385074e+01
     vertex  5.820351e+02  5.046001e+02  1.239945e+01
     vertex  5.810334e+02  5.046001e+02  1.385074e+01
   endloop
 endfacet
 facet normal  6.631227e-01 -2.215668e-15  7.485107e-01
   outer loop
     vertex  5.810334e+02  5.040000e+02  1.385074e+01
     vertex  5.810334e+02  5.046001e+02  1.385074e+01
     vertex  5.797134e+02  5.046001e+02  1.502013e+01
   endloop
 endfacet
 facet normal  6.631227e-01 -0.000000e+00  7.485107e-01
   outer loop
     vertex  5.797134e+02  5.040000e+02  1.502013e+01
     vertex  5.810334e+02  5.040000e+02  1.385074e+01
     vertex  5.797134e+02  5.046001e+02  1.502013e+01
   endloop
 endfacet
 facet normal  4.647232e-01 -6.313824e-18  8.854560e-01
   outer loop
     vertex  5.781519e+02  5.040000e+02  1.583964e+01
     vertex  5.797134e+02  5.040000e+02  1.502013e+01
     vertex  5.797134e+02  5.046001e+02  1.502013e+01
   endloop
 endfacet
 facet normal  4.647232e-01 -0.000000e+00  8.854560e-01
   outer loop
     vertex  5.781519e+02  5.040000e+02  1.583964e+01
     vertex  5.797134e+02  5.046001e+02  1.502013e+01
     vertex  5.781519e+02  5.046001e+02  1.583964e+01
   endloop
 endfacet
 facet normal  2.393157e-01 -0.000000e+00  9.709418e-01
   outer loop
     vertex  5.781519e+02  5.040000e+02  1.583964e+01
     vertex  5.781519e+02  5.046001e+02  1.583964e+01
     vertex  5.764397e+02  5.046001e+02  1.626167e+01
   endloop
 endfacet
 facet normal  2.393157e-01 -0.000000e+00  9.709418e-01
   outer loop
     vertex  5.764397e+02  5.040000e+02  1.626167e+01
     vertex  5.781519e+02  5.040000e+02  1.583964e+01
     vertex  5.764397e+02  5.046001e+02  1.626167e+01
   endloop
 endfacet
 facet normal  4.029273e-15  0.000000e+00  1.000000e+00
   outer loop
     vertex  5.746763e+02  5.040000e+02  1.626167e+01
     vertex  5.764397e+02  5.040000e+02  1.626167e+01
     vertex  5.764397e+02  5.046001e+02  1.626167e+01
   endloop
 endfacet
 facet normal  4.029273e-15 -0.000000e+00  1.000000e+00
   outer loop
     vertex  5.746763e+02  5.040000e+02  1.626167e+01
     vertex  5.764397e+02  5.046001e+02  1.626167e+01
     vertex  5.746763e+02  5.046001e+02  1.626167e+01
   endloop
 endfacet
 facet normal -2.393157e-01  0.000000e+00  9.709418e-01
   outer loop
     vertex  5.746763e+02  5.040000e+02  1.626167e+01
     vertex  5.746763e+02  5.046001e+02  1.626167e+01
     vertex  5.729641e+02  5.046001e+02  1.583964e+01
   endloop
 endfacet
 facet normal -2.393157e-01  0.000000e+00  9.709418e-01
   outer loop
     vertex  5.729641e+02  5.040000e+02  1.583964e+01
     vertex  5.746763e+02  5.040000e+02  1.626167e+01
     vertex  5.729641e+02  5.046001e+02  1.583964e+01
   endloop
 endfacet
 facet normal -4.647232e-01  9.878195e-17  8.854560e-01
   outer loop
     vertex  5.714026e+02  5.040000e+02  1.502013e+01
     vertex  5.729641e+02  5.040000e+02  1.583964e+01
     vertex  5.729641e+02  5.046001e+02  1.583964e+01
   endloop
 endfacet
 facet normal -4.647232e-01  0.000000e+00  8.854560e-01
   outer loop
     vertex  5.714026e+02  5.040000e+02  1.502013e+01
     vertex  5.729641e+02  5.046001e+02  1.583964e+01
     vertex  5.714026e+02  5.046001e+02  1.502013e+01
   endloop
 endfacet
 facet normal -6.631227e-01 -8.737436e-17  7.485107e-01
   outer loop
     vertex  5.700826e+02  5.040000e+02  1.385074e+01
     vertex  5.714026e+02  5.040000e+02  1.502013e+01
     vertex  5.714026e+02  5.046001e+02  1.502013e+01
   endloop
 endfacet
 facet normal -6.631227e-01  2.215668e-15  7.485107e-01
   outer loop
     vertex  5.700826e+02  5.040000e+02  1.385074e+01
     vertex  5.714026e+02  5.046001e+02  1.502013e+01
     vertex  5.700826e+02  5.046001e+02  1.385074e+01
   endloop
 endfacet
 facet normal -8.229839e-01  1.681529e-15  5.680647e-01
   outer loop
     vertex  5.700826e+02  5.040000e+02  1.385074e+01
     vertex  5.700826e+02  5.046001e+02  1.385074e+01
     vertex  5.690809e+02  5.046001e+02  1.239945e+01
   endloop
 endfacet
 facet normal -8.229839e-01  0.000000e+00  5.680647e-01
   outer loop
     vertex  5.690809e+02  5.040000e+02  1.239945e+01
     vertex  5.700826e+02  5.040000e+02  1.385074e+01
     vertex  5.690809e+02  5.046001e+02  1.239945e+01
   endloop
 endfacet
 facet normal -9.350162e-01  0.000000e+00  3.546049e-01
   outer loop
     vertex  5.684556e+02  5.040000e+02  1.075059e+01
     vertex  5.690809e+02  5.046001e+02  1.239945e+01
     vertex  5.684556e+02  5.046001e+02  1.075059e+01
   endloop
 endfacet
 facet normal -9.350162e-01  3.821142e-17  3.546049e-01
   outer loop
     vertex  5.684556e+02  5.040000e+02  1.075059e+01
     vertex  5.690809e+02  5.040000e+02  1.239945e+01
     vertex  5.690809e+02  5.046001e+02  1.239945e+01
   endloop
 endfacet
 facet normal -9.927089e-01  0.000000e+00  1.205367e-01
   outer loop
     vertex  5.682430e+02  5.040000e+02  9.000000e+00
     vertex  5.684556e+02  5.046001e+02  1.075059e+01
     vertex  5.682430e+02  5.046001e+02  9.000000e+00
   endloop
 endfacet
 facet normal -9.927089e-01 -9.017636e-19  1.205367e-01
   outer loop
     vertex  5.682430e+02  5.040000e+02  9.000000e+00
     vertex  5.684556e+02  5.040000e+02  1.075059e+01
     vertex  5.684556e+02  5.046001e+02  1.075059e+01
   endloop
 endfacet
 facet normal  0.000000e+00 -1.000000e+00  0.000000e+00
   outer loop
     vertex  5.718154e+02  5.040000e+02  1.231561e+01
     vertex  5.714026e+02  5.040000e+02  1.502013e+01
     vertex  5.700826e+02  5.040000e+02  1.385074e+01
   endloop
 endfacet
 facet normal  0.000000e+00 -1.000000e+00  0.000000e+00
   outer loop
     vertex  5.727177e+02  5.040000e+02  1.311492e+01
     vertex  5.729641e+02  5.040000e+02  1.583964e+01
     vertex  5.714026e+02  5.040000e+02  1.502013e+01
   endloop
 endfacet
 facet normal -0.000000e+00 -1.000000e+00  0.000000e+00
   outer loop
     vertex  5.727177e+02  5.040000e+02  1.311492e+01
     vertex  5.714026e+02  5.040000e+02  1.502013e+01
     vertex  5.718154e+02  5.040000e+02  1.231561e+01
   endloop
 endfacet
 facet normal  0.000000e+00 -1.000000e+00  0.000000e+00
   outer loop
     vertex  5.711307e+02  5.040000e+02  1.132362e+01
     vertex  5.700826e+02  5.040000e+02  1.385074e+01
     vertex  5.690809e+02  5.040000e+02  1.239945e+01
   endloop
 endfacet
 facet normal  0.000000e+00 -1.000000e+00  0.000000e+00
   outer loop
     vertex  5.711307e+02  5.040000e+02  1.132362e+01
     vertex  5.718154e+02  5.040000e+02  1.231561e+01
     vertex  5.700826e+02  5.040000e+02  1.385074e+01
   endloop
 endfacet
 facet normal  0.000000e+00 -1.000000e+00  0.000000e+00
   outer loop
     vertex  5.737850e+02  5.040000e+02  1.367508e+01
     vertex  5.746763e+02  5.040000e+02  1.626167e+01
     vertex  5.729641e+02  5.040000e+02  1.583964e+01
   endloop
 endfacet
 facet normal -0.000000e+00 -1.000000e+00  0.000000e+00
   outer loop
     vertex  5.737850e+02  5.040000e+02  1.367508e+01
     vertex  5.729641e+02  5.040000e+02  1.583964e+01
     vertex  5.727177e+02  5.040000e+02  1.311492e+01
   endloop
 endfacet
 facet normal  0.000000e+00 -1.000000e+00  0.000000e+00
   outer loop
     vertex  5.707033e+02  5.040000e+02  1.019658e+01
     vertex  5.690809e+02  5.040000e+02  1.239945e+01
     vertex  5.684556e+02  5.040000e+02  1.075059e+01
   endloop
 endfacet
 facet normal  0.000000e+00 -1.000000e+00  0.000000e+00
   outer loop
     vertex  5.707033e+02  5.040000e+02  1.019658e+01
     vertex  5.711307e+02  5.040000e+02  1.132362e+01
     vertex  5.690809e+02  5.040000e+02  1.239945e+01
   endloop
 endfacet
 facet normal -0.000000e+00 -1.000000e+00  0.000000e+00
   outer loop
     vertex  5.749553e+02  5.040000e+02  1.396354e+01
     vertex  5.746763e+02  5.040000e+02  1.626167e+01
     vertex  5.737850e+02  5.040000e+02  1.367508e+01
   endloop
 endfacet
 facet normal  0.000000e+00 -1.000000e+00  0.000000e+00
   outer loop
     vertex  5.705580e+02  5.040000e+02  9.000000e+00
     vertex  5.682430e+02  5.040000e+02  9.000000e+00
     vertex  5.684556e+02  5.040000e+02  7.249406e+00
   endloop
 endfacet
 facet normal -0.000000e+00 -1.000000e+00  0.000000e+00
   outer loop
     vertex  5.705580e+02  5.040000e+02  9.000000e+00
     vertex  5.684556e+02  5.040000e+02  1.075059e+01
     vertex  5.682430e+02  5.040000e+02  9.000000e+00
   endloop
 endfacet
 facet normal  0.000000e+00 -1.000000e+00  0.000000e+00
   outer loop
     vertex  5.705580e+02  5.040000e+02  9.000000e+00
     vertex  5.707033e+02  5.040000e+02  1.019658e+01
     vertex  5.684556e+02  5.040000e+02  1.075059e+01
   endloop
 endfacet
 facet normal  0.000000e+00 -1.000000e+00  0.000000e+00
   outer loop
     vertex  5.761607e+02  5.040000e+02  1.396354e+01
     vertex  5.764397e+02  5.040000e+02  1.626167e+01
     vertex  5.746763e+02  5.040000e+02  1.626167e+01
   endloop
 endfacet
 facet normal  0.000000e+00 -1.000000e+00  0.000000e+00
   outer loop
     vertex  5.761607e+02  5.040000e+02  1.396354e+01
     vertex  5.746763e+02  5.040000e+02  1.626167e+01
     vertex  5.749553e+02  5.040000e+02  1.396354e+01
   endloop
 endfacet
 facet normal -0.000000e+00 -1.000000e+00  0.000000e+00
   outer loop
     vertex  5.707033e+02  5.040000e+02  7.803422e+00
     vertex  5.705580e+02  5.040000e+02  9.000000e+00
     vertex  5.684556e+02  5.040000e+02  7.249406e+00
   endloop
 endfacet
 facet normal  0.000000e+00 -1.000000e+00  0.000000e+00
   outer loop
     vertex  5.690809e+02  5.040000e+02  5.600550e+00
     vertex  5.707033e+02  5.040000e+02  7.803422e+00
     vertex  5.684556e+02  5.040000e+02  7.249406e+00
   endloop
 endfacet
 facet normal  0.000000e+00 -1.000000e+00  0.000000e+00
   outer loop
     vertex  5.773310e+02  5.040000e+02  1.367508e+01
     vertex  5.781519e+02  5.040000e+02  1.583964e+01
     vertex  5.764397e+02  5.040000e+02  1.626167e+01
   endloop
 endfacet
 facet normal  0.000000e+00 -1.000000e+00  0.000000e+00
   outer loop
     vertex  5.773310e+02  5.040000e+02  1.367508e+01
     vertex  5.764397e+02  5.040000e+02  1.626167e+01
     vertex  5.761607e+02  5.040000e+02  1.396354e+01
   endloop
 endfacet
 facet normal -0.000000e+00 -1.000000e+00  0.000000e+00
   outer loop
     vertex  5.711307e+02  5.040000e+02  6.676384e+00
     vertex  5.707033e+02  5.040000e+02  7.803422e+00
     vertex  5.690809e+02  5.040000e+02  5.600550e+00
   endloop
 endfacet
 facet normal  0.000000e+00 -1.000000e+00  0.000000e+00
   outer loop
     vertex  5.783983e+02  5.040000e+02  1.311492e+01
     vertex  5.797134e+02  5.040000e+02  1.502013e+01
     vertex  5.781519e+02  5.040000e+02  1.583964e+01
   endloop
 endfacet
 facet normal  0.000000e+00 -1.000000e+00  0.000000e+00
   outer loop
     vertex  5.783983e+02  5.040000e+02  1.311492e+01
     vertex  5.781519e+02  5.040000e+02  1.583964e+01
     vertex  5.773310e+02  5.040000e+02  1.367508e+01
   endloop
 endfacet
 facet normal  0.000000e+00 -1.000000e+00  0.000000e+00
   outer loop
     vertex  5.700826e+02  5.040000e+02  4.149258e+00
     vertex  5.711307e+02  5.040000e+02  6.676384e+00
     vertex  5.690809e+02  5.040000e+02  5.600550e+00
   endloop
 endfacet
 facet normal -0.000000e+00 -1.000000e+00  0.000000e+00
   outer loop
     vertex  5.718154e+02  5.040000e+02  5.684387e+00
     vertex  5.711307e+02  5.040000e+02  6.676384e+00
     vertex  5.700826e+02  5.040000e+02  4.149258e+00
   endloop
 endfacet
 facet normal  0.000000e+00 -1.000000e+00  0.000000e+00
   outer loop
     vertex  5.810334e+02  5.040000e+02  1.385074e+01
     vertex  5.783983e+02  5.040000e+02  1.311492e+01
     vertex  5.793006e+02  5.040000e+02  1.231561e+01
   endloop
 endfacet
 facet normal -0.000000e+00 -1.000000e+00  0.000000e+00
   outer loop
     vertex  5.810334e+02  5.040000e+02  1.385074e+01
     vertex  5.797134e+02  5.040000e+02  1.502013e+01
     vertex  5.783983e+02  5.040000e+02  1.311492e+01
   endloop
 endfacet
 facet normal  0.000000e+00 -1.000000e+00  0.000000e+00
   outer loop
     vertex  5.714026e+02  5.040000e+02  2.979873e+00
     vertex  5.718154e+02  5.040000e+02  5.684387e+00
     vertex  5.700826e+02  5.040000e+02  4.149258e+00
   endloop
 endfacet
 facet normal  0.000000e+00 -1.000000e+00  0.000000e+00
   outer loop
     vertex  5.714026e+02  5.040000e+02  2.979873e+00
     vertex  5.727177e+02  5.040000e+02  4.885081e+00
     vertex  5.718154e+02  5.040000e+02  5.684387e+00
   endloop
 endfacet
 facet normal  0.000000e+00 -1.000000e+00  0.000000e+00
   outer loop
     vertex  5.799853e+02  5.040000e+02  1.132362e+01
     vertex  5.810334e+02  5.040000e+02  1.385074e+01
     vertex  5.793006e+02  5.040000e+02  1.231561e+01
   endloop
 endfacet
 facet normal -0.000000e+00 -1.000000e+00  0.000000e+00
   outer loop
     vertex  5.820351e+02  5.040000e+02  1.239945e+01
     vertex  5.810334e+02  5.040000e+02  1.385074e+01
     vertex  5.799853e+02  5.040000e+02  1.132362e+01
   endloop
 endfacet
 facet normal  0.000000e+00 -1.000000e+00  0.000000e+00
   outer loop
     vertex  5.729641e+02  5.040000e+02  2.160356e+00
     vertex  5.727177e+02  5.040000e+02  4.885081e+00
     vertex  5.714026e+02  5.040000e+02  2.979873e+00
   endloop
 endfacet
 facet normal  0.000000e+00 -1.000000e+00  0.000000e+00
   outer loop
     vertex  5.729641e+02  5.040000e+02  2.160356e+00
     vertex  5.737850e+02  5.040000e+02  4.324919e+00
     vertex  5.727177e+02  5.040000e+02  4.885081e+00
   endloop
 endfacet
 facet normal  0.000000e+00 -1.000000e+00  0.000000e+00
   outer loop
     vertex  5.826604e+02  5.040000e+02  1.075059e+01
     vertex  5.820351e+02  5.040000e+02  1.239945e+01
     vertex  5.799853e+02  5.040000e+02  1.132362e+01
   endloop
 endfacet
 facet normal  0.000000e+00 -1.000000e+00  0.000000e+00
   outer loop
     vertex  5.826604e+02  5.040000e+02  1.075059e+01
     vertex  5.804127e+02  5.040000e+02  1.019658e+01
     vertex  5.805580e+02  5.040000e+02  9.000000e+00
   endloop
 endfacet
 facet normal -0.000000e+00 -1.000000e+00  0.000000e+00
   outer loop
     vertex  5.826604e+02  5.040000e+02  1.075059e+01
     vertex  5.799853e+02  5.040000e+02  1.132362e+01
     vertex  5.804127e+02  5.040000e+02  1.019658e+01
   endloop
 endfacet
 facet normal  0.000000e+00 -1.000000e+00  0.000000e+00
   outer loop
     vertex  5.746763e+02  5.040000e+02  1.738335e+00
     vertex  5.737850e+02  5.040000e+02  4.324919e+00
     vertex  5.729641e+02  5.040000e+02  2.160356e+00
   endloop
 endfacet
 facet normal  0.000000e+00 -1.000000e+00  0.000000e+00
   outer loop
     vertex  5.746763e+02  5.040000e+02  1.738335e+00
     vertex  5.749553e+02  5.040000e+02  4.036456e+00
     vertex  5.737850e+02  5.040000e+02  4.324919e+00
   endloop
 endfacet
 facet normal  0.000000e+00 -1.000000e+00  0.000000e+00
   outer loop
     vertex  5.828730e+02  5.040000e+02  9.000000e+00
     vertex  5.826604e+02  5.040000e+02  1.075059e+01
     vertex  5.805580e+02  5.040000e+02  9.000000e+00
   endloop
 endfacet
 facet normal  0.000000e+00 -1.000000e+00  0.000000e+00
   outer loop
     vertex  5.764397e+02  5.040000e+02  1.738335e+00
     vertex  5.761607e+02  5.040000e+02  4.036456e+00
     vertex  5.749553e+02  5.040000e+02  4.036456e+00
   endloop
 endfacet
 facet normal  0.000000e+00 -1.000000e+00  0.000000e+00
   outer loop
     vertex  5.764397e+02  5.040000e+02  1.738335e+00
     vertex  5.749553e+02  5.040000e+02  4.036456e+00
     vertex  5.746763e+02  5.040000e+02  1.738335e+00
   endloop
 endfacet
 facet normal  7.474725e-29 -1.000000e+00  3.247093e-14
   outer loop
     vertex  5.826604e+02  5.040000e+02  7.249406e+00
     vertex  5.828730e+02  5.040000e+02  9.000000e+00
     vertex  5.805580e+02  5.040000e+02  9.000000e+00
   endloop
 endfacet
 facet normal -2.455439e-14 -1.000000e+00  2.981443e-15
   outer loop
     vertex  5.826604e+02  5.040000e+02  7.249406e+00
     vertex  5.805580e+02  5.040000e+02  9.000000e+00
     vertex  5.804127e+02  5.040000e+02  7.803422e+00
   endloop
 endfacet
 facet normal -0.000000e+00 -1.000000e+00  0.000000e+00
   outer loop
     vertex  5.781519e+02  5.040000e+02  2.160356e+00
     vertex  5.761607e+02  5.040000e+02  4.036456e+00
     vertex  5.764397e+02  5.040000e+02  1.738335e+00
   endloop
 endfacet
 facet normal  0.000000e+00 -1.000000e+00  0.000000e+00
   outer loop
     vertex  5.781519e+02  5.040000e+02  2.160356e+00
     vertex  5.773310e+02  5.040000e+02  4.324919e+00
     vertex  5.761607e+02  5.040000e+02  4.036456e+00
   endloop
 endfacet
 facet normal -2.312738e-14 -1.000000e+00  8.771059e-15
   outer loop
     vertex  5.820351e+02  5.040000e+02  5.600550e+00
     vertex  5.804127e+02  5.040000e+02  7.803422e+00
     vertex  5.799853e+02  5.040000e+02  6.676384e+00
   endloop
 endfacet
 facet normal -2.312738e-14 -1.000000e+00  8.771059e-15
   outer loop
     vertex  5.820351e+02  5.040000e+02  5.600550e+00
     vertex  5.826604e+02  5.040000e+02  7.249406e+00
     vertex  5.804127e+02  5.040000e+02  7.803422e+00
   endloop
 endfacet
 facet normal -0.000000e+00 -1.000000e+00  0.000000e+00
   outer loop
     vertex  5.797134e+02  5.040000e+02  2.979873e+00
     vertex  5.773310e+02  5.040000e+02  4.324919e+00
     vertex  5.781519e+02  5.040000e+02  2.160356e+00
   endloop
 endfacet
 facet normal  0.000000e+00 -1.000000e+00  0.000000e+00
   outer loop
     vertex  5.797134e+02  5.040000e+02  2.979873e+00
     vertex  5.783983e+02  5.040000e+02  4.885081e+00
     vertex  5.773310e+02  5.040000e+02  4.324919e+00
   endloop
 endfacet
 facet normal  0.000000e+00 -1.000000e+00  0.000000e+00
   outer loop
     vertex  5.797134e+02  5.040000e+02  2.979873e+00
     vertex  5.793006e+02  5.040000e+02  5.684387e+00
     vertex  5.783983e+02  5.040000e+02  4.885081e+00
   endloop
 endfacet
 facet normal -3.793437e-14 -1.000000e+00 -5.790624e-15
   outer loop
     vertex  5.810334e+02  5.040000e+02  4.149258e+00
     vertex  5.793006e+02  5.040000e+02  5.684387e+00
     vertex  5.797134e+02  5.040000e+02  2.979873e+00
   endloop
 endfacet
 facet normal -2.035629e-14 -1.000000e+00  1.405093e-14
   outer loop
     vertex  5.810334e+02  5.040000e+02  4.149258e+00
     vertex  5.799853e+02  5.040000e+02  6.676384e+00
     vertex  5.793006e+02  5.040000e+02  5.684387e+00
   endloop
 endfacet
 facet normal -2.035629e-14 -1.000000e+00  1.405093e-14
   outer loop
     vertex  5.810334e+02  5.040000e+02  4.149258e+00
     vertex  5.820351e+02  5.040000e+02  5.600550e+00
     vertex  5.799853e+02  5.040000e+02  6.676384e+00
   endloop
 endfacet
endsolid
