solid 
 facet normal  0.000000e+00  9.915695e-01 -1.295757e-01
   outer loop
     vertex -6.285000e+02 -2.832287e+02 -1.395965e+01
     vertex -6.278000e+02 -2.831288e+02 -1.319472e+01
     vertex -6.278000e+02 -2.832287e+02 -1.395965e+01
   endloop
 endfacet
 facet normal  0.000000e+00  9.317468e-01 -3.631086e-01
   outer loop
     vertex -6.285000e+02 -2.831288e+02 -1.319472e+01
     vertex -6.278000e+02 -2.828487e+02 -1.247594e+01
     vertex -6.278000e+02 -2.831288e+02 -1.319472e+01
   endloop
 endfacet
 facet normal  0.000000e+00  9.915695e-01 -1.295757e-01
   outer loop
     vertex -6.285000e+02 -2.831288e+02 -1.319472e+01
     vertex -6.278000e+02 -2.831288e+02 -1.319472e+01
     vertex -6.285000e+02 -2.832287e+02 -1.395965e+01
   endloop
 endfacet
 facet normal  0.000000e+00  8.177744e-01 -5.755389e-01
   outer loop
     vertex -6.285000e+02 -2.828487e+02 -1.247594e+01
     vertex -6.278000e+02 -2.824047e+02 -1.184508e+01
     vertex -6.278000e+02 -2.828487e+02 -1.247594e+01
   endloop
 endfacet
 facet normal  0.000000e+00  9.317468e-01 -3.631086e-01
   outer loop
     vertex -6.285000e+02 -2.828487e+02 -1.247594e+01
     vertex -6.278000e+02 -2.828487e+02 -1.247594e+01
     vertex -6.285000e+02 -2.831288e+02 -1.319472e+01
   endloop
 endfacet
 facet normal -2.872068e-14  6.562759e-01 -7.545210e-01
   outer loop
     vertex -6.285000e+02 -2.824047e+02 -1.184508e+01
     vertex -6.278000e+02 -2.818226e+02 -1.133880e+01
     vertex -6.278000e+02 -2.824047e+02 -1.184508e+01
   endloop
 endfacet
 facet normal -2.190777e-14  8.177744e-01 -5.755389e-01
   outer loop
     vertex -6.285000e+02 -2.824047e+02 -1.184508e+01
     vertex -6.278000e+02 -2.824047e+02 -1.184508e+01
     vertex -6.285000e+02 -2.828487e+02 -1.247594e+01
   endloop
 endfacet
 facet normal  0.000000e+00  4.566370e-01 -8.896531e-01
   outer loop
     vertex -6.285000e+02 -2.818226e+02 -1.133880e+01
     vertex -6.278000e+02 -2.811363e+02 -1.098654e+01
     vertex -6.278000e+02 -2.818226e+02 -1.133880e+01
   endloop
 endfacet
 facet normal  0.000000e+00  6.562759e-01 -7.545210e-01
   outer loop
     vertex -6.285000e+02 -2.818226e+02 -1.133880e+01
     vertex -6.278000e+02 -2.818226e+02 -1.133880e+01
     vertex -6.285000e+02 -2.824047e+02 -1.184508e+01
   endloop
 endfacet
 facet normal  1.871448e-14  2.304600e-01 -9.730818e-01
   outer loop
     vertex -6.285000e+02 -2.811363e+02 -1.098654e+01
     vertex -6.278000e+02 -2.803856e+02 -1.080875e+01
     vertex -6.278000e+02 -2.811363e+02 -1.098654e+01
   endloop
 endfacet
 facet normal  3.708115e-14  4.566370e-01 -8.896531e-01
   outer loop
     vertex -6.285000e+02 -2.811363e+02 -1.098654e+01
     vertex -6.278000e+02 -2.811363e+02 -1.098654e+01
     vertex -6.285000e+02 -2.818226e+02 -1.133880e+01
   endloop
 endfacet
 facet normal  0.000000e+00 -9.110428e-03 -9.999585e-01
   outer loop
     vertex -6.285000e+02 -2.803856e+02 -1.080875e+01
     vertex -6.278000e+02 -2.796142e+02 -1.081578e+01
     vertex -6.278000e+02 -2.803856e+02 -1.080875e+01
   endloop
 endfacet
 facet normal  0.000000e+00  2.304600e-01 -9.730818e-01
   outer loop
     vertex -6.285000e+02 -2.803856e+02 -1.080875e+01
     vertex -6.278000e+02 -2.803856e+02 -1.080875e+01
     vertex -6.285000e+02 -2.811363e+02 -1.098654e+01
   endloop
 endfacet
 facet normal  2.163962e-14 -2.481514e-01 -9.687213e-01
   outer loop
     vertex -6.285000e+02 -2.796142e+02 -1.081578e+01
     vertex -6.278000e+02 -2.788669e+02 -1.100722e+01
     vertex -6.278000e+02 -2.796142e+02 -1.081578e+01
   endloop
 endfacet
 facet normal  4.239849e-14 -9.110428e-03 -9.999585e-01
   outer loop
     vertex -6.285000e+02 -2.796142e+02 -1.081578e+01
     vertex -6.278000e+02 -2.796142e+02 -1.081578e+01
     vertex -6.285000e+02 -2.803856e+02 -1.080875e+01
   endloop
 endfacet
 facet normal -3.839130e-14 -4.727708e-01 -8.811855e-01
   outer loop
     vertex -6.285000e+02 -2.788669e+02 -1.100722e+01
     vertex -6.278000e+02 -2.781871e+02 -1.137193e+01
     vertex -6.278000e+02 -2.788669e+02 -1.100722e+01
   endloop
 endfacet
 facet normal -2.015111e-14 -2.481514e-01 -9.687213e-01
   outer loop
     vertex -6.285000e+02 -2.788669e+02 -1.100722e+01
     vertex -6.278000e+02 -2.788669e+02 -1.100722e+01
     vertex -6.285000e+02 -2.796142e+02 -1.081578e+01
   endloop
 endfacet
 facet normal -5.440032e-14 -6.699144e-01 -7.424384e-01
   outer loop
     vertex -6.285000e+02 -2.781871e+02 -1.137193e+01
     vertex -6.278000e+02 -2.776144e+02 -1.188872e+01
     vertex -6.278000e+02 -2.781871e+02 -1.137193e+01
   endloop
 endfacet
 facet normal -3.839130e-14 -4.727708e-01 -8.811855e-01
   outer loop
     vertex -6.285000e+02 -2.781871e+02 -1.137193e+01
     vertex -6.278000e+02 -2.781871e+02 -1.137193e+01
     vertex -6.285000e+02 -2.788669e+02 -1.100722e+01
   endloop
 endfacet
 facet normal  2.418190e-14 -8.281250e-01 -5.605434e-01
   outer loop
     vertex -6.285000e+02 -2.776144e+02 -1.188872e+01
     vertex -6.278000e+02 -2.771820e+02 -1.252757e+01
     vertex -6.278000e+02 -2.776144e+02 -1.188872e+01
   endloop
 endfacet
 facet normal  3.202886e-14 -6.699144e-01 -7.424384e-01
   outer loop
     vertex -6.285000e+02 -2.776144e+02 -1.188872e+01
     vertex -6.278000e+02 -2.776144e+02 -1.188872e+01
     vertex -6.285000e+02 -2.781871e+02 -1.137193e+01
   endloop
 endfacet
 facet normal -4.448836e-14 -8.281250e-01 -5.605434e-01
   outer loop
     vertex -6.285000e+02 -2.771820e+02 -1.252757e+01
     vertex -6.278000e+02 -2.771820e+02 -1.252757e+01
     vertex -6.285000e+02 -2.776144e+02 -1.188872e+01
   endloop
 endfacet
 facet normal -6.213572e-14 -9.382080e-01 -3.460718e-01
   outer loop
     vertex -6.285000e+02 -2.771820e+02 -1.252757e+01
     vertex -6.278000e+02 -2.769150e+02 -1.325133e+01
     vertex -6.278000e+02 -2.771820e+02 -1.252757e+01
   endloop
 endfacet
 facet normal  0.000000e+00 -9.382080e-01 -3.460718e-01
   outer loop
     vertex -6.285000e+02 -2.769150e+02 -1.325133e+01
     vertex -6.278000e+02 -2.769150e+02 -1.325133e+01
     vertex -6.285000e+02 -2.771820e+02 -1.252757e+01
   endloop
 endfacet
 facet normal  0.000000e+00 -9.937658e-01 -1.114877e-01
   outer loop
     vertex -6.285000e+02 -2.769150e+02 -1.325133e+01
     vertex -6.278000e+02 -2.768290e+02 -1.401796e+01
     vertex -6.278000e+02 -2.769150e+02 -1.325133e+01
   endloop
 endfacet
 facet normal  2.829170e-16 -9.937658e-01 -1.114877e-01
   outer loop
     vertex -6.285000e+02 -2.768290e+02 -1.401796e+01
     vertex -6.278000e+02 -2.768290e+02 -1.401796e+01
     vertex -6.285000e+02 -2.769150e+02 -1.325133e+01
   endloop
 endfacet
 facet normal -3.288181e-16 -9.915695e-01  1.295757e-01
   outer loop
     vertex -6.285000e+02 -2.768290e+02 -1.401796e+01
     vertex -6.278000e+02 -2.769290e+02 -1.478289e+01
     vertex -6.278000e+02 -2.768290e+02 -1.401796e+01
   endloop
 endfacet
 facet normal -5.261089e-15 -9.915695e-01  1.295757e-01
   outer loop
     vertex -6.285000e+02 -2.769290e+02 -1.478289e+01
     vertex -6.278000e+02 -2.769290e+02 -1.478289e+01
     vertex -6.285000e+02 -2.768290e+02 -1.401796e+01
   endloop
 endfacet
 facet normal -1.476070e-14 -9.317468e-01  3.631086e-01
   outer loop
     vertex -6.285000e+02 -2.772091e+02 -1.550167e+01
     vertex -6.278000e+02 -2.769290e+02 -1.478289e+01
     vertex -6.285000e+02 -2.769290e+02 -1.478289e+01
   endloop
 endfacet
 facet normal  6.091930e-14 -9.317468e-01  3.631086e-01
   outer loop
     vertex -6.285000e+02 -2.772091e+02 -1.550167e+01
     vertex -6.278000e+02 -2.772091e+02 -1.550167e+01
     vertex -6.278000e+02 -2.769290e+02 -1.478289e+01
   endloop
 endfacet
 facet normal  4.303899e-14 -8.177744e-01  5.755389e-01
   outer loop
     vertex -6.285000e+02 -2.772091e+02 -1.550167e+01
     vertex -6.278000e+02 -2.776531e+02 -1.613253e+01
     vertex -6.278000e+02 -2.772091e+02 -1.550167e+01
   endloop
 endfacet
 facet normal -2.336829e-14 -8.177744e-01  5.755389e-01
   outer loop
     vertex -6.285000e+02 -2.776531e+02 -1.613253e+01
     vertex -6.278000e+02 -2.776531e+02 -1.613253e+01
     vertex -6.285000e+02 -2.772091e+02 -1.550167e+01
   endloop
 endfacet
 facet normal -3.063540e-14 -6.562759e-01  7.545210e-01
   outer loop
     vertex -6.285000e+02 -2.776531e+02 -1.613253e+01
     vertex -6.278000e+02 -2.782351e+02 -1.663881e+01
     vertex -6.278000e+02 -2.776531e+02 -1.613253e+01
   endloop
 endfacet
 facet normal  5.329281e-14 -6.562759e-01  7.545210e-01
   outer loop
     vertex -6.285000e+02 -2.782351e+02 -1.663881e+01
     vertex -6.278000e+02 -2.782351e+02 -1.663881e+01
     vertex -6.285000e+02 -2.776531e+02 -1.613253e+01
   endloop
 endfacet
 facet normal  3.708115e-14 -4.566370e-01  8.896531e-01
   outer loop
     vertex -6.285000e+02 -2.782351e+02 -1.663881e+01
     vertex -6.278000e+02 -2.789214e+02 -1.699107e+01
     vertex -6.278000e+02 -2.782351e+02 -1.663881e+01
   endloop
 endfacet
 facet normal  3.708115e-14 -4.566370e-01  8.896531e-01
   outer loop
     vertex -6.285000e+02 -2.789214e+02 -1.699107e+01
     vertex -6.278000e+02 -2.789214e+02 -1.699107e+01
     vertex -6.285000e+02 -2.782351e+02 -1.663881e+01
   endloop
 endfacet
 facet normal  1.871448e-14 -2.304600e-01  9.730818e-01
   outer loop
     vertex -6.285000e+02 -2.789214e+02 -1.699107e+01
     vertex -6.278000e+02 -2.796721e+02 -1.716886e+01
     vertex -6.278000e+02 -2.789214e+02 -1.699107e+01
   endloop
 endfacet
 facet normal -2.079502e-14 -2.304600e-01  9.730818e-01
   outer loop
     vertex -6.285000e+02 -2.796721e+02 -1.716886e+01
     vertex -6.278000e+02 -2.796721e+02 -1.716886e+01
     vertex -6.285000e+02 -2.789214e+02 -1.699107e+01
   endloop
 endfacet
 facet normal -4.134057e-14  9.110428e-03  9.999585e-01
   outer loop
     vertex -6.285000e+02 -2.796721e+02 -1.716886e+01
     vertex -6.278000e+02 -2.804435e+02 -1.716183e+01
     vertex -6.278000e+02 -2.796721e+02 -1.716886e+01
   endloop
 endfacet
 facet normal -5.075095e-15  9.110428e-03  9.999585e-01
   outer loop
     vertex -6.285000e+02 -2.804435e+02 -1.716183e+01
     vertex -6.278000e+02 -2.804435e+02 -1.716183e+01
     vertex -6.285000e+02 -2.796721e+02 -1.716886e+01
   endloop
 endfacet
 facet normal -4.932050e-15  2.481514e-01  9.687213e-01
   outer loop
     vertex -6.285000e+02 -2.811908e+02 -1.697039e+01
     vertex -6.278000e+02 -2.804435e+02 -1.716183e+01
     vertex -6.285000e+02 -2.804435e+02 -1.716183e+01
   endloop
 endfacet
 facet normal -2.015111e-14  2.481514e-01  9.687213e-01
   outer loop
     vertex -6.285000e+02 -2.811908e+02 -1.697039e+01
     vertex -6.278000e+02 -2.811908e+02 -1.697039e+01
     vertex -6.278000e+02 -2.804435e+02 -1.716183e+01
   endloop
 endfacet
 facet normal -3.838826e-14  4.727708e-01  8.811855e-01
   outer loop
     vertex -6.285000e+02 -2.818706e+02 -1.660568e+01
     vertex -6.278000e+02 -2.811908e+02 -1.697039e+01
     vertex -6.285000e+02 -2.811908e+02 -1.697039e+01
   endloop
 endfacet
 facet normal -0.000000e+00  4.727708e-01  8.811855e-01
   outer loop
     vertex -6.285000e+02 -2.818706e+02 -1.660568e+01
     vertex -6.278000e+02 -2.818706e+02 -1.660568e+01
     vertex -6.278000e+02 -2.811908e+02 -1.697039e+01
   endloop
 endfacet
 facet normal -0.000000e+00  6.699144e-01  7.424384e-01
   outer loop
     vertex -6.285000e+02 -2.818706e+02 -1.660568e+01
     vertex -6.278000e+02 -2.824433e+02 -1.608889e+01
     vertex -6.278000e+02 -2.818706e+02 -1.660568e+01
   endloop
 endfacet
 facet normal  2.637671e-14  6.699144e-01  7.424384e-01
   outer loop
     vertex -6.285000e+02 -2.824433e+02 -1.608889e+01
     vertex -6.278000e+02 -2.824433e+02 -1.608889e+01
     vertex -6.285000e+02 -2.818706e+02 -1.660568e+01
   endloop
 endfacet
 facet normal -0.000000e+00  8.281250e-01  5.605434e-01
   outer loop
     vertex -6.285000e+02 -2.828758e+02 -1.545004e+01
     vertex -6.278000e+02 -2.828758e+02 -1.545004e+01
     vertex -6.278000e+02 -2.824433e+02 -1.608889e+01
   endloop
 endfacet
 facet normal  1.995880e-14  8.281250e-01  5.605434e-01
   outer loop
     vertex -6.285000e+02 -2.828758e+02 -1.545004e+01
     vertex -6.278000e+02 -2.824433e+02 -1.608889e+01
     vertex -6.285000e+02 -2.824433e+02 -1.608889e+01
   endloop
 endfacet
 facet normal -0.000000e+00  9.382080e-01  3.460718e-01
   outer loop
     vertex -6.285000e+02 -2.831427e+02 -1.472628e+01
     vertex -6.278000e+02 -2.831427e+02 -1.472628e+01
     vertex -6.278000e+02 -2.828758e+02 -1.545004e+01
   endloop
 endfacet
 facet normal -0.000000e+00  9.937658e-01  1.114877e-01
   outer loop
     vertex -6.285000e+02 -2.831427e+02 -1.472628e+01
     vertex -6.278000e+02 -2.832287e+02 -1.395965e+01
     vertex -6.278000e+02 -2.831427e+02 -1.472628e+01
   endloop
 endfacet
 facet normal -3.789919e-18  9.382080e-01  3.460718e-01
   outer loop
     vertex -6.285000e+02 -2.831427e+02 -1.472628e+01
     vertex -6.278000e+02 -2.828758e+02 -1.545004e+01
     vertex -6.285000e+02 -2.828758e+02 -1.545004e+01
   endloop
 endfacet
 facet normal -0.000000e+00  9.937658e-01  1.114877e-01
   outer loop
     vertex -6.285000e+02 -2.832287e+02 -1.395965e+01
     vertex -6.278000e+02 -2.832287e+02 -1.395965e+01
     vertex -6.285000e+02 -2.831427e+02 -1.472628e+01
   endloop
 endfacet
 facet normal -1.080009e-17 -9.915695e-01  1.295757e-01
   outer loop
     vertex -6.285000e+02 -2.848725e+02 -1.274805e+01
     vertex -6.285000e+02 -2.850287e+02 -1.394325e+01
     vertex -6.278000e+02 -2.850287e+02 -1.394325e+01
   endloop
 endfacet
 facet normal  0.000000e+00 -9.915695e-01  1.295757e-01
   outer loop
     vertex -6.285000e+02 -2.848725e+02 -1.274805e+01
     vertex -6.278000e+02 -2.850287e+02 -1.394325e+01
     vertex -6.278000e+02 -2.848725e+02 -1.274805e+01
   endloop
 endfacet
 facet normal  0.000000e+00 -9.317468e-01  3.631086e-01
   outer loop
     vertex -6.285000e+02 -2.844348e+02 -1.162495e+01
     vertex -6.278000e+02 -2.848725e+02 -1.274805e+01
     vertex -6.278000e+02 -2.844348e+02 -1.162495e+01
   endloop
 endfacet
 facet normal  1.622275e-17 -9.317468e-01  3.631086e-01
   outer loop
     vertex -6.285000e+02 -2.844348e+02 -1.162495e+01
     vertex -6.285000e+02 -2.848725e+02 -1.274805e+01
     vertex -6.278000e+02 -2.848725e+02 -1.274805e+01
   endloop
 endfacet
 facet normal  0.000000e+00 -8.177744e-01  5.755389e-01
   outer loop
     vertex -6.285000e+02 -2.837411e+02 -1.063923e+01
     vertex -6.278000e+02 -2.844348e+02 -1.162495e+01
     vertex -6.278000e+02 -2.837411e+02 -1.063923e+01
   endloop
 endfacet
 facet normal  1.277715e-17 -8.177744e-01  5.755389e-01
   outer loop
     vertex -6.285000e+02 -2.837411e+02 -1.063923e+01
     vertex -6.285000e+02 -2.844348e+02 -1.162495e+01
     vertex -6.278000e+02 -2.844348e+02 -1.162495e+01
   endloop
 endfacet
 facet normal  0.000000e+00 -6.562759e-01  7.545210e-01
   outer loop
     vertex -6.285000e+02 -2.828316e+02 -9.848180e+00
     vertex -6.278000e+02 -2.837411e+02 -1.063923e+01
     vertex -6.278000e+02 -2.828316e+02 -9.848180e+00
   endloop
 endfacet
 facet normal -4.109659e-17 -6.562759e-01  7.545210e-01
   outer loop
     vertex -6.285000e+02 -2.828316e+02 -9.848180e+00
     vertex -6.285000e+02 -2.837411e+02 -1.063923e+01
     vertex -6.278000e+02 -2.837411e+02 -1.063923e+01
   endloop
 endfacet
 facet normal  0.000000e+00 -4.566370e-01  8.896531e-01
   outer loop
     vertex -6.285000e+02 -2.817592e+02 -9.297765e+00
     vertex -6.278000e+02 -2.828316e+02 -9.848180e+00
     vertex -6.278000e+02 -2.817592e+02 -9.297765e+00
   endloop
 endfacet
 facet normal  5.429051e-17 -4.566370e-01  8.896531e-01
   outer loop
     vertex -6.285000e+02 -2.817592e+02 -9.297765e+00
     vertex -6.285000e+02 -2.828316e+02 -9.848180e+00
     vertex -6.278000e+02 -2.828316e+02 -9.848180e+00
   endloop
 endfacet
 facet normal  0.000000e+00 -2.304600e-01  9.730818e-01
   outer loop
     vertex -6.285000e+02 -2.805863e+02 -9.019976e+00
     vertex -6.278000e+02 -2.817592e+02 -9.297765e+00
     vertex -6.278000e+02 -2.805863e+02 -9.019976e+00
   endloop
 endfacet
 facet normal  1.414032e-17 -2.304600e-01  9.730818e-01
   outer loop
     vertex -6.285000e+02 -2.805863e+02 -9.019976e+00
     vertex -6.285000e+02 -2.817592e+02 -9.297765e+00
     vertex -6.278000e+02 -2.817592e+02 -9.297765e+00
   endloop
 endfacet
 facet normal -0.000000e+00  9.110428e-03  9.999585e-01
   outer loop
     vertex -6.285000e+02 -2.793810e+02 -9.030957e+00
     vertex -6.278000e+02 -2.805863e+02 -9.019976e+00
     vertex -6.278000e+02 -2.793810e+02 -9.030957e+00
   endloop
 endfacet
 facet normal -1.007101e-18  9.110428e-03  9.999585e-01
   outer loop
     vertex -6.285000e+02 -2.793810e+02 -9.030957e+00
     vertex -6.285000e+02 -2.805863e+02 -9.019976e+00
     vertex -6.278000e+02 -2.805863e+02 -9.019976e+00
   endloop
 endfacet
 facet normal -0.000000e+00  2.481514e-01  9.687213e-01
   outer loop
     vertex -6.285000e+02 -2.782133e+02 -9.330071e+00
     vertex -6.278000e+02 -2.793810e+02 -9.030957e+00
     vertex -6.278000e+02 -2.782133e+02 -9.330071e+00
   endloop
 endfacet
 facet normal -2.238694e-17  2.481514e-01  9.687213e-01
   outer loop
     vertex -6.285000e+02 -2.782133e+02 -9.330071e+00
     vertex -6.285000e+02 -2.793810e+02 -9.030957e+00
     vertex -6.278000e+02 -2.793810e+02 -9.030957e+00
   endloop
 endfacet
 facet normal -0.000000e+00  4.727708e-01  8.811855e-01
   outer loop
     vertex -6.285000e+02 -2.771512e+02 -9.899933e+00
     vertex -6.278000e+02 -2.782133e+02 -9.330071e+00
     vertex -6.278000e+02 -2.771512e+02 -9.899933e+00
   endloop
 endfacet
 facet normal -5.810815e-18  4.727708e-01  8.811855e-01
   outer loop
     vertex -6.285000e+02 -2.771512e+02 -9.899933e+00
     vertex -6.285000e+02 -2.782133e+02 -9.330071e+00
     vertex -6.278000e+02 -2.782133e+02 -9.330071e+00
   endloop
 endfacet
 facet normal -0.000000e+00  8.281250e-01  5.605434e-01
   outer loop
     vertex -6.285000e+02 -2.762563e+02 -1.070743e+01
     vertex -6.278000e+02 -2.762563e+02 -1.070743e+01
     vertex -6.278000e+02 -2.755806e+02 -1.170562e+01
   endloop
 endfacet
 facet normal -0.000000e+00  6.699144e-01  7.424384e-01
   outer loop
     vertex -6.285000e+02 -2.762563e+02 -1.070743e+01
     vertex -6.278000e+02 -2.771512e+02 -9.899933e+00
     vertex -6.278000e+02 -2.762563e+02 -1.070743e+01
   endloop
 endfacet
 facet normal -1.233273e-17  6.699144e-01  7.424384e-01
   outer loop
     vertex -6.285000e+02 -2.762563e+02 -1.070743e+01
     vertex -6.285000e+02 -2.771512e+02 -9.899933e+00
     vertex -6.278000e+02 -2.771512e+02 -9.899933e+00
   endloop
 endfacet
 facet normal -0.000000e+00  9.382080e-01  3.460718e-01
   outer loop
     vertex -6.285000e+02 -2.755806e+02 -1.170562e+01
     vertex -6.278000e+02 -2.755806e+02 -1.170562e+01
     vertex -6.278000e+02 -2.751635e+02 -1.283650e+01
   endloop
 endfacet
 facet normal -0.000000e+00  8.281250e-01  5.605434e-01
   outer loop
     vertex -6.285000e+02 -2.755806e+02 -1.170562e+01
     vertex -6.285000e+02 -2.762563e+02 -1.070743e+01
     vertex -6.278000e+02 -2.755806e+02 -1.170562e+01
   endloop
 endfacet
 facet normal -0.000000e+00  9.382080e-01  3.460718e-01
   outer loop
     vertex -6.285000e+02 -2.751635e+02 -1.283650e+01
     vertex -6.285000e+02 -2.755806e+02 -1.170562e+01
     vertex -6.278000e+02 -2.751635e+02 -1.283650e+01
   endloop
 endfacet
 facet normal -3.655992e-18  9.937658e-01  1.114877e-01
   outer loop
     vertex -6.285000e+02 -2.750291e+02 -1.403436e+01
     vertex -6.285000e+02 -2.751635e+02 -1.283650e+01
     vertex -6.278000e+02 -2.751635e+02 -1.283650e+01
   endloop
 endfacet
 facet normal -2.829170e-16  9.937658e-01  1.114877e-01
   outer loop
     vertex -6.285000e+02 -2.750291e+02 -1.403436e+01
     vertex -6.278000e+02 -2.751635e+02 -1.283650e+01
     vertex -6.278000e+02 -2.750291e+02 -1.403436e+01
   endloop
 endfacet
 facet normal  3.181522e-16  9.915695e-01 -1.295757e-01
   outer loop
     vertex -6.285000e+02 -2.751853e+02 -1.522956e+01
     vertex -6.285000e+02 -2.750291e+02 -1.403436e+01
     vertex -6.278000e+02 -2.750291e+02 -1.403436e+01
   endloop
 endfacet
 facet normal  0.000000e+00  9.915695e-01 -1.295757e-01
   outer loop
     vertex -6.285000e+02 -2.751853e+02 -1.522956e+01
     vertex -6.278000e+02 -2.750291e+02 -1.403436e+01
     vertex -6.278000e+02 -2.751853e+02 -1.522956e+01
   endloop
 endfacet
 facet normal  1.659962e-17  9.317468e-01 -3.631086e-01
   outer loop
     vertex -6.285000e+02 -2.756229e+02 -1.635266e+01
     vertex -6.285000e+02 -2.751853e+02 -1.522956e+01
     vertex -6.278000e+02 -2.751853e+02 -1.522956e+01
   endloop
 endfacet
 facet normal  0.000000e+00  9.317468e-01 -3.631086e-01
   outer loop
     vertex -6.285000e+02 -2.756229e+02 -1.635266e+01
     vertex -6.278000e+02 -2.751853e+02 -1.522956e+01
     vertex -6.278000e+02 -2.756229e+02 -1.635266e+01
   endloop
 endfacet
 facet normal -6.568270e-17  8.177744e-01 -5.755389e-01
   outer loop
     vertex -6.285000e+02 -2.763167e+02 -1.733838e+01
     vertex -6.285000e+02 -2.756229e+02 -1.635266e+01
     vertex -6.278000e+02 -2.756229e+02 -1.635266e+01
   endloop
 endfacet
 facet normal  0.000000e+00  8.177744e-01 -5.755389e-01
   outer loop
     vertex -6.285000e+02 -2.763167e+02 -1.733838e+01
     vertex -6.278000e+02 -2.756229e+02 -1.635266e+01
     vertex -6.278000e+02 -2.763167e+02 -1.733838e+01
   endloop
 endfacet
 facet normal  1.790518e-17  6.562759e-01 -7.545210e-01
   outer loop
     vertex -6.285000e+02 -2.772262e+02 -1.812943e+01
     vertex -6.285000e+02 -2.763167e+02 -1.733838e+01
     vertex -6.278000e+02 -2.763167e+02 -1.733838e+01
   endloop
 endfacet
 facet normal  0.000000e+00  6.562759e-01 -7.545210e-01
   outer loop
     vertex -6.285000e+02 -2.772262e+02 -1.812943e+01
     vertex -6.278000e+02 -2.763167e+02 -1.733838e+01
     vertex -6.278000e+02 -2.772262e+02 -1.812943e+01
   endloop
 endfacet
 facet normal  5.429051e-17  4.566370e-01 -8.896531e-01
   outer loop
     vertex -6.285000e+02 -2.782985e+02 -1.867985e+01
     vertex -6.285000e+02 -2.772262e+02 -1.812943e+01
     vertex -6.278000e+02 -2.772262e+02 -1.812943e+01
   endloop
 endfacet
 facet normal  0.000000e+00  4.566370e-01 -8.896531e-01
   outer loop
     vertex -6.285000e+02 -2.782985e+02 -1.867985e+01
     vertex -6.278000e+02 -2.772262e+02 -1.812943e+01
     vertex -6.278000e+02 -2.782985e+02 -1.867985e+01
   endloop
 endfacet
 facet normal  0.000000e+00  2.304600e-01 -9.730818e-01
   outer loop
     vertex -6.285000e+02 -2.794714e+02 -1.895763e+01
     vertex -6.278000e+02 -2.782985e+02 -1.867985e+01
     vertex -6.278000e+02 -2.794714e+02 -1.895763e+01
   endloop
 endfacet
 facet normal  1.414032e-17  2.304600e-01 -9.730818e-01
   outer loop
     vertex -6.285000e+02 -2.794714e+02 -1.895763e+01
     vertex -6.285000e+02 -2.782985e+02 -1.867985e+01
     vertex -6.278000e+02 -2.782985e+02 -1.867985e+01
   endloop
 endfacet
 facet normal -1.007101e-18 -9.110428e-03 -9.999585e-01
   outer loop
     vertex -6.285000e+02 -2.806767e+02 -1.894665e+01
     vertex -6.285000e+02 -2.794714e+02 -1.895763e+01
     vertex -6.278000e+02 -2.794714e+02 -1.895763e+01
   endloop
 endfacet
 facet normal  0.000000e+00 -9.110428e-03 -9.999585e-01
   outer loop
     vertex -6.285000e+02 -2.806767e+02 -1.894665e+01
     vertex -6.278000e+02 -2.794714e+02 -1.895763e+01
     vertex -6.278000e+02 -2.806767e+02 -1.894665e+01
   endloop
 endfacet
 facet normal  0.000000e+00 -2.481514e-01 -9.687213e-01
   outer loop
     vertex -6.285000e+02 -2.818444e+02 -1.864754e+01
     vertex -6.278000e+02 -2.806767e+02 -1.894665e+01
     vertex -6.278000e+02 -2.818444e+02 -1.864754e+01
   endloop
 endfacet
 facet normal  1.643827e-18 -2.481514e-01 -9.687213e-01
   outer loop
     vertex -6.285000e+02 -2.818444e+02 -1.864754e+01
     vertex -6.285000e+02 -2.806767e+02 -1.894665e+01
     vertex -6.278000e+02 -2.806767e+02 -1.894665e+01
   endloop
 endfacet
 facet normal -5.810815e-18 -4.727708e-01 -8.811855e-01
   outer loop
     vertex -6.285000e+02 -2.829066e+02 -1.807768e+01
     vertex -6.285000e+02 -2.818444e+02 -1.864754e+01
     vertex -6.278000e+02 -2.818444e+02 -1.864754e+01
   endloop
 endfacet
 facet normal  0.000000e+00 -4.727708e-01 -8.811855e-01
   outer loop
     vertex -6.285000e+02 -2.829066e+02 -1.807768e+01
     vertex -6.278000e+02 -2.818444e+02 -1.864754e+01
     vertex -6.278000e+02 -2.829066e+02 -1.807768e+01
   endloop
 endfacet
 facet normal  3.014481e-14 -6.699144e-01 -7.424384e-01
   outer loop
     vertex -6.285000e+02 -2.838015e+02 -1.727018e+01
     vertex -6.278000e+02 -2.829066e+02 -1.807768e+01
     vertex -6.278000e+02 -2.838015e+02 -1.727018e+01
   endloop
 endfacet
 facet normal -4.147388e-17 -6.699144e-01 -7.424384e-01
   outer loop
     vertex -6.285000e+02 -2.838015e+02 -1.727018e+01
     vertex -6.285000e+02 -2.829066e+02 -1.807768e+01
     vertex -6.278000e+02 -2.829066e+02 -1.807768e+01
   endloop
 endfacet
 facet normal  0.000000e+00 -8.281250e-01 -5.605434e-01
   outer loop
     vertex -6.285000e+02 -2.844771e+02 -1.627199e+01
     vertex -6.278000e+02 -2.838015e+02 -1.727018e+01
     vertex -6.278000e+02 -2.844771e+02 -1.627199e+01
   endloop
 endfacet
 facet normal  2.277694e-14 -8.281250e-01 -5.605434e-01
   outer loop
     vertex -6.285000e+02 -2.844771e+02 -1.627199e+01
     vertex -6.285000e+02 -2.838015e+02 -1.727018e+01
     vertex -6.278000e+02 -2.838015e+02 -1.727018e+01
   endloop
 endfacet
 facet normal -8.041572e-14 -9.937658e-01 -1.114877e-01
   outer loop
     vertex -6.285000e+02 -2.848943e+02 -1.514111e+01
     vertex -6.278000e+02 -2.848943e+02 -1.514111e+01
     vertex -6.278000e+02 -2.850287e+02 -1.394325e+01
   endloop
 endfacet
 facet normal -7.530887e-14 -9.382080e-01 -3.460718e-01
   outer loop
     vertex -6.285000e+02 -2.848943e+02 -1.514111e+01
     vertex -6.278000e+02 -2.844771e+02 -1.627199e+01
     vertex -6.278000e+02 -2.848943e+02 -1.514111e+01
   endloop
 endfacet
 facet normal -8.690003e-19 -9.382080e-01 -3.460718e-01
   outer loop
     vertex -6.285000e+02 -2.848943e+02 -1.514111e+01
     vertex -6.285000e+02 -2.844771e+02 -1.627199e+01
     vertex -6.278000e+02 -2.844771e+02 -1.627199e+01
   endloop
 endfacet
 facet normal  0.000000e+00 -9.937658e-01 -1.114877e-01
   outer loop
     vertex -6.285000e+02 -2.850287e+02 -1.394325e+01
     vertex -6.285000e+02 -2.848943e+02 -1.514111e+01
     vertex -6.278000e+02 -2.850287e+02 -1.394325e+01
   endloop
 endfacet
 facet normal -1.000000e+00  0.000000e+00  0.000000e+00
   outer loop
     vertex -6.285000e+02 -2.776531e+02 -1.613253e+01
     vertex -6.285000e+02 -2.763167e+02 -1.733838e+01
     vertex -6.285000e+02 -2.772262e+02 -1.812943e+01
   endloop
 endfacet
 facet normal -1.000000e+00  0.000000e+00 -0.000000e+00
   outer loop
     vertex -6.285000e+02 -2.782351e+02 -1.663881e+01
     vertex -6.285000e+02 -2.772262e+02 -1.812943e+01
     vertex -6.285000e+02 -2.782985e+02 -1.867985e+01
   endloop
 endfacet
 facet normal -1.000000e+00  0.000000e+00  0.000000e+00
   outer loop
     vertex -6.285000e+02 -2.782351e+02 -1.663881e+01
     vertex -6.285000e+02 -2.776531e+02 -1.613253e+01
     vertex -6.285000e+02 -2.772262e+02 -1.812943e+01
   endloop
 endfacet
 facet normal -1.000000e+00  0.000000e+00  0.000000e+00
   outer loop
     vertex -6.285000e+02 -2.772091e+02 -1.550167e+01
     vertex -6.285000e+02 -2.756229e+02 -1.635266e+01
     vertex -6.285000e+02 -2.763167e+02 -1.733838e+01
   endloop
 endfacet
 facet normal -1.000000e+00  0.000000e+00 -0.000000e+00
   outer loop
     vertex -6.285000e+02 -2.772091e+02 -1.550167e+01
     vertex -6.285000e+02 -2.763167e+02 -1.733838e+01
     vertex -6.285000e+02 -2.776531e+02 -1.613253e+01
   endloop
 endfacet
 facet normal -1.000000e+00  0.000000e+00  0.000000e+00
   outer loop
     vertex -6.285000e+02 -2.789214e+02 -1.699107e+01
     vertex -6.285000e+02 -2.782351e+02 -1.663881e+01
     vertex -6.285000e+02 -2.782985e+02 -1.867985e+01
   endloop
 endfacet
 facet normal -1.000000e+00 -5.928075e-14  2.310214e-14
   outer loop
     vertex -6.285000e+02 -2.769290e+02 -1.478289e+01
     vertex -6.285000e+02 -2.751853e+02 -1.522956e+01
     vertex -6.285000e+02 -2.756229e+02 -1.635266e+01
   endloop
 endfacet
 facet normal -1.000000e+00  7.018426e-14  1.308147e-13
   outer loop
     vertex -6.285000e+02 -2.769290e+02 -1.478289e+01
     vertex -6.285000e+02 -2.756229e+02 -1.635266e+01
     vertex -6.285000e+02 -2.772091e+02 -1.550167e+01
   endloop
 endfacet
 facet normal -1.000000e+00  0.000000e+00  0.000000e+00
   outer loop
     vertex -6.285000e+02 -2.796721e+02 -1.716886e+01
     vertex -6.285000e+02 -2.782985e+02 -1.867985e+01
     vertex -6.285000e+02 -2.794714e+02 -1.895763e+01
   endloop
 endfacet
 facet normal -1.000000e+00  0.000000e+00  0.000000e+00
   outer loop
     vertex -6.285000e+02 -2.796721e+02 -1.716886e+01
     vertex -6.285000e+02 -2.789214e+02 -1.699107e+01
     vertex -6.285000e+02 -2.782985e+02 -1.867985e+01
   endloop
 endfacet
 facet normal -1.000000e+00  8.655812e-16  9.500600e-14
   outer loop
     vertex -6.285000e+02 -2.768290e+02 -1.401796e+01
     vertex -6.285000e+02 -2.750291e+02 -1.403436e+01
     vertex -6.285000e+02 -2.751853e+02 -1.522956e+01
   endloop
 endfacet
 facet normal -1.000000e+00 -6.308687e-14  8.244025e-15
   outer loop
     vertex -6.285000e+02 -2.768290e+02 -1.401796e+01
     vertex -6.285000e+02 -2.751853e+02 -1.522956e+01
     vertex -6.285000e+02 -2.769290e+02 -1.478289e+01
   endloop
 endfacet
 facet normal -1.000000e+00  0.000000e+00 -0.000000e+00
   outer loop
     vertex -6.285000e+02 -2.804435e+02 -1.716183e+01
     vertex -6.285000e+02 -2.794714e+02 -1.895763e+01
     vertex -6.285000e+02 -2.806767e+02 -1.894665e+01
   endloop
 endfacet
 facet normal -1.000000e+00  0.000000e+00  0.000000e+00
   outer loop
     vertex -6.285000e+02 -2.804435e+02 -1.716183e+01
     vertex -6.285000e+02 -2.796721e+02 -1.716886e+01
     vertex -6.285000e+02 -2.794714e+02 -1.895763e+01
   endloop
 endfacet
 facet normal -1.000000e+00  0.000000e+00  0.000000e+00
   outer loop
     vertex -6.285000e+02 -2.769150e+02 -1.325133e+01
     vertex -6.285000e+02 -2.751635e+02 -1.283650e+01
     vertex -6.285000e+02 -2.750291e+02 -1.403436e+01
   endloop
 endfacet
 facet normal -1.000000e+00  0.000000e+00  0.000000e+00
   outer loop
     vertex -6.285000e+02 -2.769150e+02 -1.325133e+01
     vertex -6.285000e+02 -2.750291e+02 -1.403436e+01
     vertex -6.285000e+02 -2.768290e+02 -1.401796e+01
   endloop
 endfacet
 facet normal -1.000000e+00  0.000000e+00 -0.000000e+00
   outer loop
     vertex -6.285000e+02 -2.811908e+02 -1.697039e+01
     vertex -6.285000e+02 -2.806767e+02 -1.894665e+01
     vertex -6.285000e+02 -2.818444e+02 -1.864754e+01
   endloop
 endfacet
 facet normal -1.000000e+00  0.000000e+00  0.000000e+00
   outer loop
     vertex -6.285000e+02 -2.811908e+02 -1.697039e+01
     vertex -6.285000e+02 -2.804435e+02 -1.716183e+01
     vertex -6.285000e+02 -2.806767e+02 -1.894665e+01
   endloop
 endfacet
 facet normal -1.000000e+00  0.000000e+00  0.000000e+00
   outer loop
     vertex -6.285000e+02 -2.771820e+02 -1.252757e+01
     vertex -6.285000e+02 -2.755806e+02 -1.170562e+01
     vertex -6.285000e+02 -2.751635e+02 -1.283650e+01
   endloop
 endfacet
 facet normal -1.000000e+00  0.000000e+00  0.000000e+00
   outer loop
     vertex -6.285000e+02 -2.771820e+02 -1.252757e+01
     vertex -6.285000e+02 -2.751635e+02 -1.283650e+01
     vertex -6.285000e+02 -2.769150e+02 -1.325133e+01
   endloop
 endfacet
 facet normal -1.000000e+00  0.000000e+00 -0.000000e+00
   outer loop
     vertex -6.285000e+02 -2.818706e+02 -1.660568e+01
     vertex -6.285000e+02 -2.818444e+02 -1.864754e+01
     vertex -6.285000e+02 -2.829066e+02 -1.807768e+01
   endloop
 endfacet
 facet normal -1.000000e+00  0.000000e+00  0.000000e+00
   outer loop
     vertex -6.285000e+02 -2.818706e+02 -1.660568e+01
     vertex -6.285000e+02 -2.811908e+02 -1.697039e+01
     vertex -6.285000e+02 -2.818444e+02 -1.864754e+01
   endloop
 endfacet
 facet normal -1.000000e+00  0.000000e+00  0.000000e+00
   outer loop
     vertex -6.285000e+02 -2.776144e+02 -1.188872e+01
     vertex -6.285000e+02 -2.762563e+02 -1.070743e+01
     vertex -6.285000e+02 -2.755806e+02 -1.170562e+01
   endloop
 endfacet
 facet normal -1.000000e+00  0.000000e+00  0.000000e+00
   outer loop
     vertex -6.285000e+02 -2.776144e+02 -1.188872e+01
     vertex -6.285000e+02 -2.755806e+02 -1.170562e+01
     vertex -6.285000e+02 -2.771820e+02 -1.252757e+01
   endloop
 endfacet
 facet normal -1.000000e+00  0.000000e+00 -0.000000e+00
   outer loop
     vertex -6.285000e+02 -2.824433e+02 -1.608889e+01
     vertex -6.285000e+02 -2.818706e+02 -1.660568e+01
     vertex -6.285000e+02 -2.829066e+02 -1.807768e+01
   endloop
 endfacet
 facet normal -1.000000e+00  0.000000e+00  0.000000e+00
   outer loop
     vertex -6.285000e+02 -2.838015e+02 -1.727018e+01
     vertex -6.285000e+02 -2.824433e+02 -1.608889e+01
     vertex -6.285000e+02 -2.829066e+02 -1.807768e+01
   endloop
 endfacet
 facet normal -1.000000e+00  0.000000e+00  0.000000e+00
   outer loop
     vertex -6.285000e+02 -2.781871e+02 -1.137193e+01
     vertex -6.285000e+02 -2.762563e+02 -1.070743e+01
     vertex -6.285000e+02 -2.776144e+02 -1.188872e+01
   endloop
 endfacet
 facet normal -1.000000e+00  0.000000e+00 -0.000000e+00
   outer loop
     vertex -6.285000e+02 -2.771512e+02 -9.899933e+00
     vertex -6.285000e+02 -2.762563e+02 -1.070743e+01
     vertex -6.285000e+02 -2.781871e+02 -1.137193e+01
   endloop
 endfacet
 facet normal -1.000000e+00  0.000000e+00 -0.000000e+00
   outer loop
     vertex -6.285000e+02 -2.828758e+02 -1.545004e+01
     vertex -6.285000e+02 -2.824433e+02 -1.608889e+01
     vertex -6.285000e+02 -2.838015e+02 -1.727018e+01
   endloop
 endfacet
 facet normal -1.000000e+00  0.000000e+00  0.000000e+00
   outer loop
     vertex -6.285000e+02 -2.844771e+02 -1.627199e+01
     vertex -6.285000e+02 -2.828758e+02 -1.545004e+01
     vertex -6.285000e+02 -2.838015e+02 -1.727018e+01
   endloop
 endfacet
 facet normal -1.000000e+00  0.000000e+00  0.000000e+00
   outer loop
     vertex -6.285000e+02 -2.782133e+02 -9.330071e+00
     vertex -6.285000e+02 -2.771512e+02 -9.899933e+00
     vertex -6.285000e+02 -2.781871e+02 -1.137193e+01
   endloop
 endfacet
 facet normal -1.000000e+00  0.000000e+00 -0.000000e+00
   outer loop
     vertex -6.285000e+02 -2.782133e+02 -9.330071e+00
     vertex -6.285000e+02 -2.781871e+02 -1.137193e+01
     vertex -6.285000e+02 -2.788669e+02 -1.100722e+01
   endloop
 endfacet
 facet normal -1.000000e+00  0.000000e+00  0.000000e+00
   outer loop
     vertex -6.285000e+02 -2.782133e+02 -9.330071e+00
     vertex -6.285000e+02 -2.788669e+02 -1.100722e+01
     vertex -6.285000e+02 -2.796142e+02 -1.081578e+01
   endloop
 endfacet
 facet normal -1.000000e+00  0.000000e+00  0.000000e+00
   outer loop
     vertex -6.285000e+02 -2.848943e+02 -1.514111e+01
     vertex -6.285000e+02 -2.828758e+02 -1.545004e+01
     vertex -6.285000e+02 -2.844771e+02 -1.627199e+01
   endloop
 endfacet
 facet normal -1.000000e+00  2.547934e-14  1.664752e-13
   outer loop
     vertex -6.285000e+02 -2.848943e+02 -1.514111e+01
     vertex -6.285000e+02 -2.831427e+02 -1.472628e+01
     vertex -6.285000e+02 -2.828758e+02 -1.545004e+01
   endloop
 endfacet
 facet normal -1.000000e+00  0.000000e+00 -0.000000e+00
   outer loop
     vertex -6.285000e+02 -2.793810e+02 -9.030957e+00
     vertex -6.285000e+02 -2.782133e+02 -9.330071e+00
     vertex -6.285000e+02 -2.796142e+02 -1.081578e+01
   endloop
 endfacet
 facet normal -1.000000e+00  0.000000e+00  0.000000e+00
   outer loop
     vertex -6.285000e+02 -2.793810e+02 -9.030957e+00
     vertex -6.285000e+02 -2.796142e+02 -1.081578e+01
     vertex -6.285000e+02 -2.803856e+02 -1.080875e+01
   endloop
 endfacet
 facet normal -1.000000e+00  0.000000e+00  0.000000e+00
   outer loop
     vertex -6.285000e+02 -2.850287e+02 -1.394325e+01
     vertex -6.285000e+02 -2.832287e+02 -1.395965e+01
     vertex -6.285000e+02 -2.831427e+02 -1.472628e+01
   endloop
 endfacet
 facet normal -1.000000e+00  4.133061e-14  9.954565e-14
   outer loop
     vertex -6.285000e+02 -2.850287e+02 -1.394325e+01
     vertex -6.285000e+02 -2.831427e+02 -1.472628e+01
     vertex -6.285000e+02 -2.848943e+02 -1.514111e+01
   endloop
 endfacet
 facet normal -1.000000e+00  0.000000e+00  0.000000e+00
   outer loop
     vertex -6.285000e+02 -2.805863e+02 -9.019976e+00
     vertex -6.285000e+02 -2.793810e+02 -9.030957e+00
     vertex -6.285000e+02 -2.803856e+02 -1.080875e+01
   endloop
 endfacet
 facet normal -1.000000e+00  0.000000e+00 -0.000000e+00
   outer loop
     vertex -6.285000e+02 -2.848725e+02 -1.274805e+01
     vertex -6.285000e+02 -2.832287e+02 -1.395965e+01
     vertex -6.285000e+02 -2.850287e+02 -1.394325e+01
   endloop
 endfacet
 facet normal -1.000000e+00  0.000000e+00  0.000000e+00
   outer loop
     vertex -6.285000e+02 -2.848725e+02 -1.274805e+01
     vertex -6.285000e+02 -2.831288e+02 -1.319472e+01
     vertex -6.285000e+02 -2.832287e+02 -1.395965e+01
   endloop
 endfacet
 facet normal -1.000000e+00  0.000000e+00  0.000000e+00
   outer loop
     vertex -6.285000e+02 -2.817592e+02 -9.297765e+00
     vertex -6.285000e+02 -2.805863e+02 -9.019976e+00
     vertex -6.285000e+02 -2.803856e+02 -1.080875e+01
   endloop
 endfacet
 facet normal -1.000000e+00  0.000000e+00  0.000000e+00
   outer loop
     vertex -6.285000e+02 -2.817592e+02 -9.297765e+00
     vertex -6.285000e+02 -2.803856e+02 -1.080875e+01
     vertex -6.285000e+02 -2.811363e+02 -1.098654e+01
   endloop
 endfacet
 facet normal -1.000000e+00  0.000000e+00  0.000000e+00
   outer loop
     vertex -6.285000e+02 -2.844348e+02 -1.162495e+01
     vertex -6.285000e+02 -2.828487e+02 -1.247594e+01
     vertex -6.285000e+02 -2.831288e+02 -1.319472e+01
   endloop
 endfacet
 facet normal -1.000000e+00  0.000000e+00 -0.000000e+00
   outer loop
     vertex -6.285000e+02 -2.844348e+02 -1.162495e+01
     vertex -6.285000e+02 -2.831288e+02 -1.319472e+01
     vertex -6.285000e+02 -2.848725e+02 -1.274805e+01
   endloop
 endfacet
 facet normal -1.000000e+00  0.000000e+00  0.000000e+00
   outer loop
     vertex -6.285000e+02 -2.828316e+02 -9.848180e+00
     vertex -6.285000e+02 -2.817592e+02 -9.297765e+00
     vertex -6.285000e+02 -2.811363e+02 -1.098654e+01
   endloop
 endfacet
 facet normal -1.000000e+00  0.000000e+00  0.000000e+00
   outer loop
     vertex -6.285000e+02 -2.828316e+02 -9.848180e+00
     vertex -6.285000e+02 -2.811363e+02 -1.098654e+01
     vertex -6.285000e+02 -2.818226e+02 -1.133880e+01
   endloop
 endfacet
 facet normal -1.000000e+00  0.000000e+00  0.000000e+00
   outer loop
     vertex -6.285000e+02 -2.837411e+02 -1.063923e+01
     vertex -6.285000e+02 -2.818226e+02 -1.133880e+01
     vertex -6.285000e+02 -2.824047e+02 -1.184508e+01
   endloop
 endfacet
 facet normal -1.000000e+00  0.000000e+00  0.000000e+00
   outer loop
     vertex -6.285000e+02 -2.837411e+02 -1.063923e+01
     vertex -6.285000e+02 -2.824047e+02 -1.184508e+01
     vertex -6.285000e+02 -2.828487e+02 -1.247594e+01
   endloop
 endfacet
 facet normal -1.000000e+00  0.000000e+00  0.000000e+00
   outer loop
     vertex -6.285000e+02 -2.837411e+02 -1.063923e+01
     vertex -6.285000e+02 -2.828316e+02 -9.848180e+00
     vertex -6.285000e+02 -2.818226e+02 -1.133880e+01
   endloop
 endfacet
 facet normal -1.000000e+00  0.000000e+00 -0.000000e+00
   outer loop
     vertex -6.285000e+02 -2.837411e+02 -1.063923e+01
     vertex -6.285000e+02 -2.828487e+02 -1.247594e+01
     vertex -6.285000e+02 -2.844348e+02 -1.162495e+01
   endloop
 endfacet
 facet normal  1.000000e+00  0.000000e+00  0.000000e+00
   outer loop
     vertex -6.278000e+02 -2.776531e+02 -1.613253e+01
     vertex -6.278000e+02 -2.763167e+02 -1.733838e+01
     vertex -6.278000e+02 -2.756229e+02 -1.635266e+01
   endloop
 endfacet
 facet normal  1.000000e+00  0.000000e+00  0.000000e+00
   outer loop
     vertex -6.278000e+02 -2.782351e+02 -1.663881e+01
     vertex -6.278000e+02 -2.772262e+02 -1.812943e+01
     vertex -6.278000e+02 -2.763167e+02 -1.733838e+01
   endloop
 endfacet
 facet normal  1.000000e+00 -0.000000e+00  0.000000e+00
   outer loop
     vertex -6.278000e+02 -2.782351e+02 -1.663881e+01
     vertex -6.278000e+02 -2.763167e+02 -1.733838e+01
     vertex -6.278000e+02 -2.776531e+02 -1.613253e+01
   endloop
 endfacet
 facet normal  1.000000e+00 -0.000000e+00  0.000000e+00
   outer loop
     vertex -6.278000e+02 -2.772091e+02 -1.550167e+01
     vertex -6.278000e+02 -2.756229e+02 -1.635266e+01
     vertex -6.278000e+02 -2.751853e+02 -1.522956e+01
   endloop
 endfacet
 facet normal  1.000000e+00  0.000000e+00  0.000000e+00
   outer loop
     vertex -6.278000e+02 -2.772091e+02 -1.550167e+01
     vertex -6.278000e+02 -2.776531e+02 -1.613253e+01
     vertex -6.278000e+02 -2.756229e+02 -1.635266e+01
   endloop
 endfacet
 facet normal  1.000000e+00  0.000000e+00  0.000000e+00
   outer loop
     vertex -6.278000e+02 -2.789214e+02 -1.699107e+01
     vertex -6.278000e+02 -2.782985e+02 -1.867985e+01
     vertex -6.278000e+02 -2.772262e+02 -1.812943e+01
   endloop
 endfacet
 facet normal  1.000000e+00 -0.000000e+00  0.000000e+00
   outer loop
     vertex -6.278000e+02 -2.789214e+02 -1.699107e+01
     vertex -6.278000e+02 -2.772262e+02 -1.812943e+01
     vertex -6.278000e+02 -2.782351e+02 -1.663881e+01
   endloop
 endfacet
 facet normal  1.000000e+00  3.951001e-14 -1.002822e-13
   outer loop
     vertex -6.278000e+02 -2.769290e+02 -1.478289e+01
     vertex -6.278000e+02 -2.751853e+02 -1.522956e+01
     vertex -6.278000e+02 -2.750291e+02 -1.403436e+01
   endloop
 endfacet
 facet normal  1.000000e+00  2.244192e-14 -1.669118e-13
   outer loop
     vertex -6.278000e+02 -2.769290e+02 -1.478289e+01
     vertex -6.278000e+02 -2.772091e+02 -1.550167e+01
     vertex -6.278000e+02 -2.751853e+02 -1.522956e+01
   endloop
 endfacet
 facet normal  1.000000e+00  0.000000e+00  0.000000e+00
   outer loop
     vertex -6.278000e+02 -2.796721e+02 -1.716886e+01
     vertex -6.278000e+02 -2.794714e+02 -1.895763e+01
     vertex -6.278000e+02 -2.782985e+02 -1.867985e+01
   endloop
 endfacet
 facet normal  1.000000e+00 -0.000000e+00  0.000000e+00
   outer loop
     vertex -6.278000e+02 -2.796721e+02 -1.716886e+01
     vertex -6.278000e+02 -2.782985e+02 -1.867985e+01
     vertex -6.278000e+02 -2.789214e+02 -1.699107e+01
   endloop
 endfacet
 facet normal  1.000000e+00 -0.000000e+00  0.000000e+00
   outer loop
     vertex -6.278000e+02 -2.768290e+02 -1.401796e+01
     vertex -6.278000e+02 -2.750291e+02 -1.403436e+01
     vertex -6.278000e+02 -2.751635e+02 -1.283650e+01
   endloop
 endfacet
 facet normal  1.000000e+00  0.000000e+00  0.000000e+00
   outer loop
     vertex -6.278000e+02 -2.768290e+02 -1.401796e+01
     vertex -6.278000e+02 -2.769290e+02 -1.478289e+01
     vertex -6.278000e+02 -2.750291e+02 -1.403436e+01
   endloop
 endfacet
 facet normal  1.000000e+00  0.000000e+00  0.000000e+00
   outer loop
     vertex -6.278000e+02 -2.804435e+02 -1.716183e+01
     vertex -6.278000e+02 -2.806767e+02 -1.894665e+01
     vertex -6.278000e+02 -2.794714e+02 -1.895763e+01
   endloop
 endfacet
 facet normal  1.000000e+00  0.000000e+00  0.000000e+00
   outer loop
     vertex -6.278000e+02 -2.804435e+02 -1.716183e+01
     vertex -6.278000e+02 -2.794714e+02 -1.895763e+01
     vertex -6.278000e+02 -2.796721e+02 -1.716886e+01
   endloop
 endfacet
 facet normal  1.000000e+00 -0.000000e+00  0.000000e+00
   outer loop
     vertex -6.278000e+02 -2.769150e+02 -1.325133e+01
     vertex -6.278000e+02 -2.768290e+02 -1.401796e+01
     vertex -6.278000e+02 -2.751635e+02 -1.283650e+01
   endloop
 endfacet
 facet normal  1.000000e+00  0.000000e+00  0.000000e+00
   outer loop
     vertex -6.278000e+02 -2.755806e+02 -1.170562e+01
     vertex -6.278000e+02 -2.769150e+02 -1.325133e+01
     vertex -6.278000e+02 -2.751635e+02 -1.283650e+01
   endloop
 endfacet
 facet normal  1.000000e+00  0.000000e+00  0.000000e+00
   outer loop
     vertex -6.278000e+02 -2.811908e+02 -1.697039e+01
     vertex -6.278000e+02 -2.818444e+02 -1.864754e+01
     vertex -6.278000e+02 -2.806767e+02 -1.894665e+01
   endloop
 endfacet
 facet normal  1.000000e+00  0.000000e+00  0.000000e+00
   outer loop
     vertex -6.278000e+02 -2.811908e+02 -1.697039e+01
     vertex -6.278000e+02 -2.806767e+02 -1.894665e+01
     vertex -6.278000e+02 -2.804435e+02 -1.716183e+01
   endloop
 endfacet
 facet normal  1.000000e+00 -0.000000e+00  0.000000e+00
   outer loop
     vertex -6.278000e+02 -2.771820e+02 -1.252757e+01
     vertex -6.278000e+02 -2.769150e+02 -1.325133e+01
     vertex -6.278000e+02 -2.755806e+02 -1.170562e+01
   endloop
 endfacet
 facet normal  1.000000e+00  0.000000e+00  0.000000e+00
   outer loop
     vertex -6.278000e+02 -2.818706e+02 -1.660568e+01
     vertex -6.278000e+02 -2.829066e+02 -1.807768e+01
     vertex -6.278000e+02 -2.818444e+02 -1.864754e+01
   endloop
 endfacet
 facet normal  1.000000e+00  0.000000e+00  0.000000e+00
   outer loop
     vertex -6.278000e+02 -2.818706e+02 -1.660568e+01
     vertex -6.278000e+02 -2.818444e+02 -1.864754e+01
     vertex -6.278000e+02 -2.811908e+02 -1.697039e+01
   endloop
 endfacet
 facet normal  1.000000e+00  0.000000e+00  0.000000e+00
   outer loop
     vertex -6.278000e+02 -2.762563e+02 -1.070743e+01
     vertex -6.278000e+02 -2.771820e+02 -1.252757e+01
     vertex -6.278000e+02 -2.755806e+02 -1.170562e+01
   endloop
 endfacet
 facet normal  1.000000e+00 -0.000000e+00  0.000000e+00
   outer loop
     vertex -6.278000e+02 -2.776144e+02 -1.188872e+01
     vertex -6.278000e+02 -2.771820e+02 -1.252757e+01
     vertex -6.278000e+02 -2.762563e+02 -1.070743e+01
   endloop
 endfacet
 facet normal  1.000000e+00  0.000000e+00  0.000000e+00
   outer loop
     vertex -6.278000e+02 -2.824433e+02 -1.608889e+01
     vertex -6.278000e+02 -2.829066e+02 -1.807768e+01
     vertex -6.278000e+02 -2.818706e+02 -1.660568e+01
   endloop
 endfacet
 facet normal  1.000000e+00 -0.000000e+00  0.000000e+00
   outer loop
     vertex -6.278000e+02 -2.838015e+02 -1.727018e+01
     vertex -6.278000e+02 -2.829066e+02 -1.807768e+01
     vertex -6.278000e+02 -2.824433e+02 -1.608889e+01
   endloop
 endfacet
 facet normal  1.000000e+00  0.000000e+00  0.000000e+00
   outer loop
     vertex -6.278000e+02 -2.771512e+02 -9.899933e+00
     vertex -6.278000e+02 -2.776144e+02 -1.188872e+01
     vertex -6.278000e+02 -2.762563e+02 -1.070743e+01
   endloop
 endfacet
 facet normal  1.000000e+00  0.000000e+00  0.000000e+00
   outer loop
     vertex -6.278000e+02 -2.771512e+02 -9.899933e+00
     vertex -6.278000e+02 -2.781871e+02 -1.137193e+01
     vertex -6.278000e+02 -2.776144e+02 -1.188872e+01
   endloop
 endfacet
 facet normal  1.000000e+00  0.000000e+00  0.000000e+00
   outer loop
     vertex -6.278000e+02 -2.828758e+02 -1.545004e+01
     vertex -6.278000e+02 -2.838015e+02 -1.727018e+01
     vertex -6.278000e+02 -2.824433e+02 -1.608889e+01
   endloop
 endfacet
 facet normal  1.000000e+00 -0.000000e+00  0.000000e+00
   outer loop
     vertex -6.278000e+02 -2.844771e+02 -1.627199e+01
     vertex -6.278000e+02 -2.838015e+02 -1.727018e+01
     vertex -6.278000e+02 -2.828758e+02 -1.545004e+01
   endloop
 endfacet
 facet normal  1.000000e+00  6.778915e-14 -1.320717e-13
   outer loop
     vertex -6.278000e+02 -2.831427e+02 -1.472628e+01
     vertex -6.278000e+02 -2.844771e+02 -1.627199e+01
     vertex -6.278000e+02 -2.828758e+02 -1.545004e+01
   endloop
 endfacet
 facet normal  1.000000e+00  0.000000e+00  0.000000e+00
   outer loop
     vertex -6.278000e+02 -2.782133e+02 -9.330071e+00
     vertex -6.278000e+02 -2.781871e+02 -1.137193e+01
     vertex -6.278000e+02 -2.771512e+02 -9.899933e+00
   endloop
 endfacet
 facet normal  1.000000e+00  0.000000e+00  0.000000e+00
   outer loop
     vertex -6.278000e+02 -2.782133e+02 -9.330071e+00
     vertex -6.278000e+02 -2.788669e+02 -1.100722e+01
     vertex -6.278000e+02 -2.781871e+02 -1.137193e+01
   endloop
 endfacet
 facet normal  1.000000e+00 -5.969183e-14 -2.201821e-14
   outer loop
     vertex -6.278000e+02 -2.848943e+02 -1.514111e+01
     vertex -6.278000e+02 -2.844771e+02 -1.627199e+01
     vertex -6.278000e+02 -2.831427e+02 -1.472628e+01
   endloop
 endfacet
 facet normal  1.000000e+00  0.000000e+00  0.000000e+00
   outer loop
     vertex -6.278000e+02 -2.793810e+02 -9.030957e+00
     vertex -6.278000e+02 -2.788669e+02 -1.100722e+01
     vertex -6.278000e+02 -2.782133e+02 -9.330071e+00
   endloop
 endfacet
 facet normal  1.000000e+00  0.000000e+00  0.000000e+00
   outer loop
     vertex -6.278000e+02 -2.793810e+02 -9.030957e+00
     vertex -6.278000e+02 -2.796142e+02 -1.081578e+01
     vertex -6.278000e+02 -2.788669e+02 -1.100722e+01
   endloop
 endfacet
 facet normal  1.000000e+00 -4.133061e-14 -9.954565e-14
   outer loop
     vertex -6.278000e+02 -2.850287e+02 -1.394325e+01
     vertex -6.278000e+02 -2.848943e+02 -1.514111e+01
     vertex -6.278000e+02 -2.831427e+02 -1.472628e+01
   endloop
 endfacet
 facet normal  1.000000e+00  0.000000e+00  0.000000e+00
   outer loop
     vertex -6.278000e+02 -2.850287e+02 -1.394325e+01
     vertex -6.278000e+02 -2.831427e+02 -1.472628e+01
     vertex -6.278000e+02 -2.832287e+02 -1.395965e+01
   endloop
 endfacet
 facet normal  1.000000e+00  0.000000e+00  0.000000e+00
   outer loop
     vertex -6.278000e+02 -2.805863e+02 -9.019976e+00
     vertex -6.278000e+02 -2.803856e+02 -1.080875e+01
     vertex -6.278000e+02 -2.796142e+02 -1.081578e+01
   endloop
 endfacet
 facet normal  1.000000e+00  0.000000e+00  0.000000e+00
   outer loop
     vertex -6.278000e+02 -2.805863e+02 -9.019976e+00
     vertex -6.278000e+02 -2.796142e+02 -1.081578e+01
     vertex -6.278000e+02 -2.793810e+02 -9.030957e+00
   endloop
 endfacet
 facet normal  1.000000e+00  0.000000e+00  0.000000e+00
   outer loop
     vertex -6.278000e+02 -2.848725e+02 -1.274805e+01
     vertex -6.278000e+02 -2.850287e+02 -1.394325e+01
     vertex -6.278000e+02 -2.832287e+02 -1.395965e+01
   endloop
 endfacet
 facet normal  1.000000e+00  0.000000e+00  0.000000e+00
   outer loop
     vertex -6.278000e+02 -2.848725e+02 -1.274805e+01
     vertex -6.278000e+02 -2.832287e+02 -1.395965e+01
     vertex -6.278000e+02 -2.831288e+02 -1.319472e+01
   endloop
 endfacet
 facet normal  1.000000e+00 -0.000000e+00  0.000000e+00
   outer loop
     vertex -6.278000e+02 -2.848725e+02 -1.274805e+01
     vertex -6.278000e+02 -2.831288e+02 -1.319472e+01
     vertex -6.278000e+02 -2.828487e+02 -1.247594e+01
   endloop
 endfacet
 facet normal  1.000000e+00 -0.000000e+00  0.000000e+00
   outer loop
     vertex -6.278000e+02 -2.817592e+02 -9.297765e+00
     vertex -6.278000e+02 -2.803856e+02 -1.080875e+01
     vertex -6.278000e+02 -2.805863e+02 -9.019976e+00
   endloop
 endfacet
 facet normal  1.000000e+00  0.000000e+00  0.000000e+00
   outer loop
     vertex -6.278000e+02 -2.817592e+02 -9.297765e+00
     vertex -6.278000e+02 -2.811363e+02 -1.098654e+01
     vertex -6.278000e+02 -2.803856e+02 -1.080875e+01
   endloop
 endfacet
 facet normal  1.000000e+00  0.000000e+00  0.000000e+00
   outer loop
     vertex -6.278000e+02 -2.844348e+02 -1.162495e+01
     vertex -6.278000e+02 -2.848725e+02 -1.274805e+01
     vertex -6.278000e+02 -2.828487e+02 -1.247594e+01
   endloop
 endfacet
 facet normal  1.000000e+00 -0.000000e+00  0.000000e+00
   outer loop
     vertex -6.278000e+02 -2.828316e+02 -9.848180e+00
     vertex -6.278000e+02 -2.811363e+02 -1.098654e+01
     vertex -6.278000e+02 -2.817592e+02 -9.297765e+00
   endloop
 endfacet
 facet normal  1.000000e+00  0.000000e+00  0.000000e+00
   outer loop
     vertex -6.278000e+02 -2.828316e+02 -9.848180e+00
     vertex -6.278000e+02 -2.818226e+02 -1.133880e+01
     vertex -6.278000e+02 -2.811363e+02 -1.098654e+01
   endloop
 endfacet
 facet normal  1.000000e+00  0.000000e+00  0.000000e+00
   outer loop
     vertex -6.278000e+02 -2.837411e+02 -1.063923e+01
     vertex -6.278000e+02 -2.828487e+02 -1.247594e+01
     vertex -6.278000e+02 -2.824047e+02 -1.184508e+01
   endloop
 endfacet
 facet normal  1.000000e+00  0.000000e+00  0.000000e+00
   outer loop
     vertex -6.278000e+02 -2.837411e+02 -1.063923e+01
     vertex -6.278000e+02 -2.824047e+02 -1.184508e+01
     vertex -6.278000e+02 -2.818226e+02 -1.133880e+01
   endloop
 endfacet
 facet normal  1.000000e+00  0.000000e+00  0.000000e+00
   outer loop
     vertex -6.278000e+02 -2.837411e+02 -1.063923e+01
     vertex -6.278000e+02 -2.844348e+02 -1.162495e+01
     vertex -6.278000e+02 -2.828487e+02 -1.247594e+01
   endloop
 endfacet
 facet normal  1.000000e+00 -0.000000e+00  0.000000e+00
   outer loop
     vertex -6.278000e+02 -2.837411e+02 -1.063923e+01
     vertex -6.278000e+02 -2.818226e+02 -1.133880e+01
     vertex -6.278000e+02 -2.828316e+02 -9.848180e+00
   endloop
 endfacet
endsolid
