solid 
 facet normal  6.059542e-02  8.644338e-01  4.990816e-01
   outer loop
     vertex -2.809572e+02  5.042000e+02 -2.647252e+02
     vertex -2.799999e+02  5.038094e+02 -2.641648e+02
     vertex -2.799999e+02  5.042000e+02 -2.648414e+02
   endloop
 endfacet
 facet normal  6.059542e-02  8.644338e-01  4.990816e-01
   outer loop
     vertex -2.809572e+02  5.042000e+02 -2.647252e+02
     vertex -2.807953e+02  5.038094e+02 -2.640682e+02
     vertex -2.799999e+02  5.038094e+02 -2.641648e+02
   endloop
 endfacet
 facet normal  1.782727e-01  8.644338e-01  4.700777e-01
   outer loop
     vertex -2.818588e+02  5.042000e+02 -2.643832e+02
     vertex -2.815444e+02  5.038094e+02 -2.637841e+02
     vertex -2.807953e+02  5.038094e+02 -2.640682e+02
   endloop
 endfacet
 facet normal  1.782727e-01  8.644338e-01  4.700777e-01
   outer loop
     vertex -2.818588e+02  5.042000e+02 -2.643832e+02
     vertex -2.807953e+02  5.038094e+02 -2.640682e+02
     vertex -2.809572e+02  5.042000e+02 -2.647252e+02
   endloop
 endfacet
 facet normal  2.855894e-01  8.644338e-01  4.137547e-01
   outer loop
     vertex -2.826525e+02  5.042000e+02 -2.638354e+02
     vertex -2.822038e+02  5.038094e+02 -2.633290e+02
     vertex -2.815444e+02  5.038094e+02 -2.637841e+02
   endloop
 endfacet
 facet normal  2.855894e-01  8.644338e-01  4.137547e-01
   outer loop
     vertex -2.826525e+02  5.042000e+02 -2.638354e+02
     vertex -2.815444e+02  5.038094e+02 -2.637841e+02
     vertex -2.818588e+02  5.042000e+02 -2.643832e+02
   endloop
 endfacet
 facet normal  3.763086e-01  8.644338e-01  3.333857e-01
   outer loop
     vertex -2.832919e+02  5.042000e+02 -2.631136e+02
     vertex -2.827351e+02  5.038094e+02 -2.627293e+02
     vertex -2.822038e+02  5.038094e+02 -2.633290e+02
   endloop
 endfacet
 facet normal  3.763086e-01  8.644338e-01  3.333857e-01
   outer loop
     vertex -2.832919e+02  5.042000e+02 -2.631136e+02
     vertex -2.822038e+02  5.038094e+02 -2.633290e+02
     vertex -2.826525e+02  5.042000e+02 -2.638354e+02
   endloop
 endfacet
 facet normal  4.451582e-01  8.644338e-01  2.336416e-01
   outer loop
     vertex -2.837401e+02  5.042000e+02 -2.622598e+02
     vertex -2.831075e+02  5.038094e+02 -2.620199e+02
     vertex -2.827351e+02  5.038094e+02 -2.627293e+02
   endloop
 endfacet
 facet normal  4.451582e-01  8.644338e-01  2.336416e-01
   outer loop
     vertex -2.837401e+02  5.042000e+02 -2.622598e+02
     vertex -2.827351e+02  5.038094e+02 -2.627293e+02
     vertex -2.832919e+02  5.042000e+02 -2.631136e+02
   endloop
 endfacet
 facet normal  4.881368e-01  8.644338e-01  1.203191e-01
   outer loop
     vertex -2.839708e+02  5.042000e+02 -2.613235e+02
     vertex -2.832992e+02  5.038094e+02 -2.612419e+02
     vertex -2.831075e+02  5.038094e+02 -2.620199e+02
   endloop
 endfacet
 facet normal  4.881368e-01  8.644338e-01  1.203191e-01
   outer loop
     vertex -2.839708e+02  5.042000e+02 -2.613235e+02
     vertex -2.831075e+02  5.038094e+02 -2.620199e+02
     vertex -2.837401e+02  5.042000e+02 -2.622598e+02
   endloop
 endfacet
 facet normal  5.027467e-01  8.644338e-01  4.021727e-06
   outer loop
     vertex -2.839709e+02  5.042000e+02 -2.603592e+02
     vertex -2.832992e+02  5.038094e+02 -2.604407e+02
     vertex -2.832992e+02  5.038094e+02 -2.612419e+02
   endloop
 endfacet
 facet normal  5.027467e-01  8.644338e-01  4.021727e-06
   outer loop
     vertex -2.839709e+02  5.042000e+02 -2.603592e+02
     vertex -2.832992e+02  5.038094e+02 -2.612419e+02
     vertex -2.839708e+02  5.042000e+02 -2.613235e+02
   endloop
 endfacet
 facet normal  4.881387e-01  8.644338e-01 -1.203112e-01
   outer loop
     vertex -2.837401e+02  5.042000e+02 -2.594229e+02
     vertex -2.831075e+02  5.038094e+02 -2.596628e+02
     vertex -2.832992e+02  5.038094e+02 -2.604407e+02
   endloop
 endfacet
 facet normal  4.881387e-01  8.644338e-01 -1.203112e-01
   outer loop
     vertex -2.837401e+02  5.042000e+02 -2.594229e+02
     vertex -2.832992e+02  5.038094e+02 -2.604407e+02
     vertex -2.839709e+02  5.042000e+02 -2.603592e+02
   endloop
 endfacet
 facet normal  4.451619e-01  8.644338e-01 -2.336345e-01
   outer loop
     vertex -2.832920e+02  5.042000e+02 -2.585690e+02
     vertex -2.827351e+02  5.038094e+02 -2.589534e+02
     vertex -2.831075e+02  5.038094e+02 -2.596628e+02
   endloop
 endfacet
 facet normal  4.451619e-01  8.644338e-01 -2.336345e-01
   outer loop
     vertex -2.832920e+02  5.042000e+02 -2.585690e+02
     vertex -2.831075e+02  5.038094e+02 -2.596628e+02
     vertex -2.837401e+02  5.042000e+02 -2.594229e+02
   endloop
 endfacet
 facet normal  3.763140e-01  8.644338e-01 -3.333797e-01
   outer loop
     vertex -2.826525e+02  5.042000e+02 -2.578472e+02
     vertex -2.822038e+02  5.038094e+02 -2.583536e+02
     vertex -2.827351e+02  5.038094e+02 -2.589534e+02
   endloop
 endfacet
 facet normal  3.763140e-01  8.644338e-01 -3.333797e-01
   outer loop
     vertex -2.826525e+02  5.042000e+02 -2.578472e+02
     vertex -2.827351e+02  5.038094e+02 -2.589534e+02
     vertex -2.832920e+02  5.042000e+02 -2.585690e+02
   endloop
 endfacet
 facet normal  2.855960e-01  8.644338e-01 -4.137501e-01
   outer loop
     vertex -2.818589e+02  5.042000e+02 -2.572994e+02
     vertex -2.815445e+02  5.038094e+02 -2.578985e+02
     vertex -2.822038e+02  5.038094e+02 -2.583536e+02
   endloop
 endfacet
 facet normal  2.855960e-01  8.644338e-01 -4.137501e-01
   outer loop
     vertex -2.818589e+02  5.042000e+02 -2.572994e+02
     vertex -2.822038e+02  5.038094e+02 -2.583536e+02
     vertex -2.826525e+02  5.042000e+02 -2.578472e+02
   endloop
 endfacet
 facet normal  1.782802e-01  8.644338e-01 -4.700749e-01
   outer loop
     vertex -2.809572e+02  5.042000e+02 -2.569575e+02
     vertex -2.815445e+02  5.038094e+02 -2.578985e+02
     vertex -2.818589e+02  5.042000e+02 -2.572994e+02
   endloop
 endfacet
 facet normal  1.782802e-01  8.644338e-01 -4.700749e-01
   outer loop
     vertex -2.809572e+02  5.042000e+02 -2.569575e+02
     vertex -2.807953e+02  5.038094e+02 -2.576144e+02
     vertex -2.815445e+02  5.038094e+02 -2.578985e+02
   endloop
 endfacet
 facet normal  6.060341e-02  8.644338e-01 -4.990806e-01
   outer loop
     vertex -2.800000e+02  5.042000e+02 -2.568412e+02
     vertex -2.807953e+02  5.038094e+02 -2.576144e+02
     vertex -2.809572e+02  5.042000e+02 -2.569575e+02
   endloop
 endfacet
 facet normal  6.060341e-02  8.644338e-01 -4.990806e-01
   outer loop
     vertex -2.800000e+02  5.042000e+02 -2.568412e+02
     vertex -2.800000e+02  5.038094e+02 -2.575178e+02
     vertex -2.807953e+02  5.038094e+02 -2.576144e+02
   endloop
 endfacet
 facet normal -6.059542e-02  8.644338e-01 -4.990816e-01
   outer loop
     vertex -2.790427e+02  5.042000e+02 -2.569574e+02
     vertex -2.800000e+02  5.038094e+02 -2.575178e+02
     vertex -2.800000e+02  5.042000e+02 -2.568412e+02
   endloop
 endfacet
 facet normal -6.059542e-02  8.644338e-01 -4.990816e-01
   outer loop
     vertex -2.790427e+02  5.042000e+02 -2.569574e+02
     vertex -2.792046e+02  5.038094e+02 -2.576144e+02
     vertex -2.800000e+02  5.038094e+02 -2.575178e+02
   endloop
 endfacet
 facet normal -1.782727e-01  8.644338e-01 -4.700777e-01
   outer loop
     vertex -2.781410e+02  5.042000e+02 -2.572994e+02
     vertex -2.792046e+02  5.038094e+02 -2.576144e+02
     vertex -2.790427e+02  5.042000e+02 -2.569574e+02
   endloop
 endfacet
 facet normal -1.782727e-01  8.644338e-01 -4.700777e-01
   outer loop
     vertex -2.781410e+02  5.042000e+02 -2.572994e+02
     vertex -2.784555e+02  5.038094e+02 -2.578985e+02
     vertex -2.792046e+02  5.038094e+02 -2.576144e+02
   endloop
 endfacet
 facet normal -2.855894e-01  8.644338e-01 -4.137547e-01
   outer loop
     vertex -2.773474e+02  5.042000e+02 -2.578472e+02
     vertex -2.784555e+02  5.038094e+02 -2.578985e+02
     vertex -2.781410e+02  5.042000e+02 -2.572994e+02
   endloop
 endfacet
 facet normal -2.855894e-01  8.644338e-01 -4.137547e-01
   outer loop
     vertex -2.773474e+02  5.042000e+02 -2.578472e+02
     vertex -2.777961e+02  5.038094e+02 -2.583536e+02
     vertex -2.784555e+02  5.038094e+02 -2.578985e+02
   endloop
 endfacet
 facet normal -3.763086e-01  8.644338e-01 -3.333857e-01
   outer loop
     vertex -2.767080e+02  5.042000e+02 -2.585690e+02
     vertex -2.777961e+02  5.038094e+02 -2.583536e+02
     vertex -2.773474e+02  5.042000e+02 -2.578472e+02
   endloop
 endfacet
 facet normal -3.763086e-01  8.644338e-01 -3.333857e-01
   outer loop
     vertex -2.767080e+02  5.042000e+02 -2.585690e+02
     vertex -2.772648e+02  5.038094e+02 -2.589533e+02
     vertex -2.777961e+02  5.038094e+02 -2.583536e+02
   endloop
 endfacet
 facet normal -4.451582e-01  8.644338e-01 -2.336416e-01
   outer loop
     vertex -2.762598e+02  5.042000e+02 -2.594228e+02
     vertex -2.772648e+02  5.038094e+02 -2.589533e+02
     vertex -2.767080e+02  5.042000e+02 -2.585690e+02
   endloop
 endfacet
 facet normal -4.451582e-01  8.644338e-01 -2.336416e-01
   outer loop
     vertex -2.762598e+02  5.042000e+02 -2.594228e+02
     vertex -2.768924e+02  5.038094e+02 -2.596627e+02
     vertex -2.772648e+02  5.038094e+02 -2.589533e+02
   endloop
 endfacet
 facet normal -4.881368e-01  8.644338e-01 -1.203191e-01
   outer loop
     vertex -2.760290e+02  5.042000e+02 -2.603591e+02
     vertex -2.768924e+02  5.038094e+02 -2.596627e+02
     vertex -2.762598e+02  5.042000e+02 -2.594228e+02
   endloop
 endfacet
 facet normal -4.881368e-01  8.644338e-01 -1.203191e-01
   outer loop
     vertex -2.760290e+02  5.042000e+02 -2.603591e+02
     vertex -2.767007e+02  5.038094e+02 -2.604407e+02
     vertex -2.768924e+02  5.038094e+02 -2.596627e+02
   endloop
 endfacet
 facet normal -5.027467e-01  8.644338e-01 -4.021727e-06
   outer loop
     vertex -2.760290e+02  5.042000e+02 -2.613234e+02
     vertex -2.767007e+02  5.038094e+02 -2.612419e+02
     vertex -2.767007e+02  5.038094e+02 -2.604407e+02
   endloop
 endfacet
 facet normal -5.027467e-01  8.644338e-01 -4.021727e-06
   outer loop
     vertex -2.760290e+02  5.042000e+02 -2.613234e+02
     vertex -2.767007e+02  5.038094e+02 -2.604407e+02
     vertex -2.760290e+02  5.042000e+02 -2.603591e+02
   endloop
 endfacet
 facet normal -4.881387e-01  8.644338e-01  1.203112e-01
   outer loop
     vertex -2.762598e+02  5.042000e+02 -2.622597e+02
     vertex -2.768924e+02  5.038094e+02 -2.620198e+02
     vertex -2.767007e+02  5.038094e+02 -2.612419e+02
   endloop
 endfacet
 facet normal -4.881387e-01  8.644338e-01  1.203112e-01
   outer loop
     vertex -2.762598e+02  5.042000e+02 -2.622597e+02
     vertex -2.767007e+02  5.038094e+02 -2.612419e+02
     vertex -2.760290e+02  5.042000e+02 -2.613234e+02
   endloop
 endfacet
 facet normal -4.451619e-01  8.644338e-01  2.336345e-01
   outer loop
     vertex -2.767079e+02  5.042000e+02 -2.631136e+02
     vertex -2.772647e+02  5.038094e+02 -2.627292e+02
     vertex -2.768924e+02  5.038094e+02 -2.620198e+02
   endloop
 endfacet
 facet normal -4.451619e-01  8.644338e-01  2.336345e-01
   outer loop
     vertex -2.767079e+02  5.042000e+02 -2.631136e+02
     vertex -2.768924e+02  5.038094e+02 -2.620198e+02
     vertex -2.762598e+02  5.042000e+02 -2.622597e+02
   endloop
 endfacet
 facet normal -3.763140e-01  8.644338e-01  3.333797e-01
   outer loop
     vertex -2.773474e+02  5.042000e+02 -2.638354e+02
     vertex -2.777960e+02  5.038094e+02 -2.633290e+02
     vertex -2.772647e+02  5.038094e+02 -2.627292e+02
   endloop
 endfacet
 facet normal -3.763140e-01  8.644338e-01  3.333797e-01
   outer loop
     vertex -2.773474e+02  5.042000e+02 -2.638354e+02
     vertex -2.772647e+02  5.038094e+02 -2.627292e+02
     vertex -2.767079e+02  5.042000e+02 -2.631136e+02
   endloop
 endfacet
 facet normal -2.855960e-01  8.644338e-01  4.137501e-01
   outer loop
     vertex -2.781410e+02  5.042000e+02 -2.643832e+02
     vertex -2.784554e+02  5.038094e+02 -2.637841e+02
     vertex -2.777960e+02  5.038094e+02 -2.633290e+02
   endloop
 endfacet
 facet normal -2.855960e-01  8.644338e-01  4.137501e-01
   outer loop
     vertex -2.781410e+02  5.042000e+02 -2.643832e+02
     vertex -2.777960e+02  5.038094e+02 -2.633290e+02
     vertex -2.773474e+02  5.042000e+02 -2.638354e+02
   endloop
 endfacet
 facet normal -1.782802e-01  8.644338e-01  4.700749e-01
   outer loop
     vertex -2.790426e+02  5.042000e+02 -2.647251e+02
     vertex -2.792045e+02  5.038094e+02 -2.640682e+02
     vertex -2.784554e+02  5.038094e+02 -2.637841e+02
   endloop
 endfacet
 facet normal -1.782802e-01  8.644338e-01  4.700749e-01
   outer loop
     vertex -2.790426e+02  5.042000e+02 -2.647251e+02
     vertex -2.784554e+02  5.038094e+02 -2.637841e+02
     vertex -2.781410e+02  5.042000e+02 -2.643832e+02
   endloop
 endfacet
 facet normal -6.060341e-02  8.644338e-01  4.990806e-01
   outer loop
     vertex -2.799999e+02  5.038094e+02 -2.641648e+02
     vertex -2.792045e+02  5.038094e+02 -2.640682e+02
     vertex -2.790426e+02  5.042000e+02 -2.647251e+02
   endloop
 endfacet
 facet normal -6.060341e-02  8.644338e-01  4.990806e-01
   outer loop
     vertex -2.799999e+02  5.042000e+02 -2.648414e+02
     vertex -2.799999e+02  5.038094e+02 -2.641648e+02
     vertex -2.790426e+02  5.042000e+02 -2.647251e+02
   endloop
 endfacet
 facet normal -1.205446e-01 -3.502482e-14  9.927079e-01
   outer loop
     vertex -2.799999e+02  4.977906e+02 -2.641648e+02
     vertex -2.792045e+02  5.038094e+02 -2.640682e+02
     vertex -2.799999e+02  5.038094e+02 -2.641648e+02
   endloop
 endfacet
 facet normal -3.546124e-01 -1.306148e-13  9.350134e-01
   outer loop
     vertex -2.792045e+02  4.977906e+02 -2.640682e+02
     vertex -2.784554e+02  5.038094e+02 -2.637841e+02
     vertex -2.792045e+02  5.038094e+02 -2.640682e+02
   endloop
 endfacet
 facet normal -1.205446e-01 -4.440034e-14  9.927079e-01
   outer loop
     vertex -2.792045e+02  4.977906e+02 -2.640682e+02
     vertex -2.792045e+02  5.038094e+02 -2.640682e+02
     vertex -2.799999e+02  4.977906e+02 -2.641648e+02
   endloop
 endfacet
 facet normal -5.680713e-01 -2.092384e-13  8.229793e-01
   outer loop
     vertex -2.784554e+02  4.977906e+02 -2.637841e+02
     vertex -2.777960e+02  5.038094e+02 -2.633290e+02
     vertex -2.784554e+02  5.038094e+02 -2.637841e+02
   endloop
 endfacet
 facet normal -3.546124e-01 -1.306148e-13  9.350134e-01
   outer loop
     vertex -2.784554e+02  4.977906e+02 -2.637841e+02
     vertex -2.784554e+02  5.038094e+02 -2.637841e+02
     vertex -2.792045e+02  4.977906e+02 -2.640682e+02
   endloop
 endfacet
 facet normal -7.485161e-01 -2.694391e-13  6.631167e-01
   outer loop
     vertex -2.777960e+02  4.977906e+02 -2.633290e+02
     vertex -2.772647e+02  5.038094e+02 -2.627292e+02
     vertex -2.777960e+02  5.038094e+02 -2.633290e+02
   endloop
 endfacet
 facet normal -5.680713e-01 -2.014659e-13  8.229793e-01
   outer loop
     vertex -2.777960e+02  4.977906e+02 -2.633290e+02
     vertex -2.777960e+02  5.038094e+02 -2.633290e+02
     vertex -2.784554e+02  4.977906e+02 -2.637841e+02
   endloop
 endfacet
 facet normal -8.854597e-01 -3.217535e-13  4.647161e-01
   outer loop
     vertex -2.772647e+02  4.977906e+02 -2.627292e+02
     vertex -2.768924e+02  5.038094e+02 -2.620198e+02
     vertex -2.772647e+02  5.038094e+02 -2.627292e+02
   endloop
 endfacet
 facet normal -7.485161e-01 -2.694391e-13  6.631167e-01
   outer loop
     vertex -2.772647e+02  4.977906e+02 -2.627292e+02
     vertex -2.772647e+02  5.038094e+02 -2.627292e+02
     vertex -2.777960e+02  4.977906e+02 -2.633290e+02
   endloop
 endfacet
 facet normal -9.709437e-01 -3.553687e-13  2.393079e-01
   outer loop
     vertex -2.768924e+02  4.977906e+02 -2.620198e+02
     vertex -2.767007e+02  5.038094e+02 -2.612419e+02
     vertex -2.768924e+02  5.038094e+02 -2.620198e+02
   endloop
 endfacet
 facet normal -8.854597e-01 -3.217535e-13  4.647161e-01
   outer loop
     vertex -2.768924e+02  4.977906e+02 -2.620198e+02
     vertex -2.768924e+02  5.038094e+02 -2.620198e+02
     vertex -2.772647e+02  4.977906e+02 -2.627292e+02
   endloop
 endfacet
 facet normal -1.000000e+00 -3.588869e-13 -7.999510e-06
   outer loop
     vertex -2.767007e+02  4.977906e+02 -2.612419e+02
     vertex -2.767007e+02  5.038094e+02 -2.604407e+02
     vertex -2.767007e+02  5.038094e+02 -2.612419e+02
   endloop
 endfacet
 facet normal -9.709437e-01 -3.461988e-13  2.393079e-01
   outer loop
     vertex -2.767007e+02  4.977906e+02 -2.612419e+02
     vertex -2.767007e+02  5.038094e+02 -2.612419e+02
     vertex -2.768924e+02  4.977906e+02 -2.620198e+02
   endloop
 endfacet
 facet normal -9.709399e-01 -3.598877e-13 -2.393234e-01
   outer loop
     vertex -2.767007e+02  4.977906e+02 -2.604407e+02
     vertex -2.768924e+02  5.038094e+02 -2.596627e+02
     vertex -2.767007e+02  5.038094e+02 -2.604407e+02
   endloop
 endfacet
 facet normal -1.000000e+00 -3.683313e-13 -7.999510e-06
   outer loop
     vertex -2.767007e+02  4.977906e+02 -2.604407e+02
     vertex -2.767007e+02  5.038094e+02 -2.604407e+02
     vertex -2.767007e+02  4.977906e+02 -2.612419e+02
   endloop
 endfacet
 facet normal -8.854523e-01 -3.177771e-13 -4.647303e-01
   outer loop
     vertex -2.768924e+02  4.977906e+02 -2.596627e+02
     vertex -2.772648e+02  5.038094e+02 -2.589533e+02
     vertex -2.768924e+02  5.038094e+02 -2.596627e+02
   endloop
 endfacet
 facet normal -9.709399e-01 -3.484575e-13 -2.393234e-01
   outer loop
     vertex -2.768924e+02  4.977906e+02 -2.596627e+02
     vertex -2.768924e+02  5.038094e+02 -2.596627e+02
     vertex -2.767007e+02  4.977906e+02 -2.604407e+02
   endloop
 endfacet
 facet normal -7.485054e-01 -2.748916e-13 -6.631286e-01
   outer loop
     vertex -2.772648e+02  4.977906e+02 -2.589533e+02
     vertex -2.777961e+02  5.038094e+02 -2.583536e+02
     vertex -2.772648e+02  5.038094e+02 -2.589533e+02
   endloop
 endfacet
 facet normal -8.854523e-01 -3.221662e-13 -4.647303e-01
   outer loop
     vertex -2.772648e+02  4.977906e+02 -2.589533e+02
     vertex -2.772648e+02  5.038094e+02 -2.589533e+02
     vertex -2.768924e+02  4.977906e+02 -2.596627e+02
   endloop
 endfacet
 facet normal -5.680582e-01 -2.116412e-13 -8.229884e-01
   outer loop
     vertex -2.777961e+02  4.977906e+02 -2.583536e+02
     vertex -2.784555e+02  5.038094e+02 -2.578985e+02
     vertex -2.777961e+02  5.038094e+02 -2.583536e+02
   endloop
 endfacet
 facet normal -7.485054e-01 -2.748916e-13 -6.631286e-01
   outer loop
     vertex -2.777961e+02  4.977906e+02 -2.583536e+02
     vertex -2.777961e+02  5.038094e+02 -2.583536e+02
     vertex -2.772648e+02  4.977906e+02 -2.589533e+02
   endloop
 endfacet
 facet normal -5.680582e-01 -2.116412e-13 -8.229884e-01
   outer loop
     vertex -2.784555e+02  4.977906e+02 -2.578985e+02
     vertex -2.784555e+02  5.038094e+02 -2.578985e+02
     vertex -2.777961e+02  4.977906e+02 -2.583536e+02
   endloop
 endfacet
 facet normal -3.545974e-01 -1.360910e-13 -9.350191e-01
   outer loop
     vertex -2.784555e+02  4.977906e+02 -2.578985e+02
     vertex -2.792046e+02  5.038094e+02 -2.576144e+02
     vertex -2.784555e+02  5.038094e+02 -2.578985e+02
   endloop
 endfacet
 facet normal -3.545974e-01 -1.394400e-13 -9.350191e-01
   outer loop
     vertex -2.792046e+02  4.977906e+02 -2.576144e+02
     vertex -2.792046e+02  5.038094e+02 -2.576144e+02
     vertex -2.784555e+02  4.977906e+02 -2.578985e+02
   endloop
 endfacet
 facet normal -1.205287e-01 -5.377044e-14 -9.927098e-01
   outer loop
     vertex -2.800000e+02  4.977906e+02 -2.575178e+02
     vertex -2.792046e+02  5.038094e+02 -2.576144e+02
     vertex -2.792046e+02  4.977906e+02 -2.576144e+02
   endloop
 endfacet
 facet normal -1.205287e-01 -5.263171e-14 -9.927098e-01
   outer loop
     vertex -2.800000e+02  4.977906e+02 -2.575178e+02
     vertex -2.800000e+02  5.038094e+02 -2.575178e+02
     vertex -2.792046e+02  5.038094e+02 -2.576144e+02
   endloop
 endfacet
 facet normal  1.205446e-01  3.388635e-14 -9.927079e-01
   outer loop
     vertex -2.800000e+02  4.977906e+02 -2.575178e+02
     vertex -2.807953e+02  5.038094e+02 -2.576144e+02
     vertex -2.800000e+02  5.038094e+02 -2.575178e+02
   endloop
 endfacet
 facet normal  1.205446e-01  2.223389e-14 -9.927079e-01
   outer loop
     vertex -2.807953e+02  4.977906e+02 -2.576144e+02
     vertex -2.807953e+02  5.038094e+02 -2.576144e+02
     vertex -2.800000e+02  4.977906e+02 -2.575178e+02
   endloop
 endfacet
 facet normal  3.546124e-01  1.029062e-13 -9.350134e-01
   outer loop
     vertex -2.807953e+02  4.977906e+02 -2.576144e+02
     vertex -2.815445e+02  5.038094e+02 -2.578985e+02
     vertex -2.807953e+02  5.038094e+02 -2.576144e+02
   endloop
 endfacet
 facet normal  3.546124e-01  1.096044e-13 -9.350134e-01
   outer loop
     vertex -2.815445e+02  4.977906e+02 -2.578985e+02
     vertex -2.815445e+02  5.038094e+02 -2.578985e+02
     vertex -2.807953e+02  4.977906e+02 -2.576144e+02
   endloop
 endfacet
 facet normal  5.680713e-01  1.883282e-13 -8.229793e-01
   outer loop
     vertex -2.815445e+02  4.977906e+02 -2.578985e+02
     vertex -2.822038e+02  5.038094e+02 -2.583536e+02
     vertex -2.815445e+02  5.038094e+02 -2.578985e+02
   endloop
 endfacet
 facet normal  5.680713e-01  1.961008e-13 -8.229793e-01
   outer loop
     vertex -2.822038e+02  4.977906e+02 -2.583536e+02
     vertex -2.822038e+02  5.038094e+02 -2.583536e+02
     vertex -2.815445e+02  4.977906e+02 -2.578985e+02
   endloop
 endfacet
 facet normal  7.485161e-01  2.623644e-13 -6.631167e-01
   outer loop
     vertex -2.827351e+02  4.977906e+02 -2.589534e+02
     vertex -2.822038e+02  5.038094e+02 -2.583536e+02
     vertex -2.822038e+02  4.977906e+02 -2.583536e+02
   endloop
 endfacet
 facet normal  7.485161e-01  2.686325e-13 -6.631167e-01
   outer loop
     vertex -2.827351e+02  4.977906e+02 -2.589534e+02
     vertex -2.827351e+02  5.038094e+02 -2.589534e+02
     vertex -2.822038e+02  5.038094e+02 -2.583536e+02
   endloop
 endfacet
 facet normal  8.854597e-01  3.177798e-13 -4.647161e-01
   outer loop
     vertex -2.827351e+02  4.977906e+02 -2.589534e+02
     vertex -2.831075e+02  5.038094e+02 -2.596628e+02
     vertex -2.827351e+02  5.038094e+02 -2.589534e+02
   endloop
 endfacet
 facet normal  8.854597e-01  3.133909e-13 -4.647161e-01
   outer loop
     vertex -2.831075e+02  4.977906e+02 -2.596628e+02
     vertex -2.831075e+02  5.038094e+02 -2.596628e+02
     vertex -2.827351e+02  4.977906e+02 -2.589534e+02
   endloop
 endfacet
 facet normal  9.709437e-01  3.462011e-13 -2.393079e-01
   outer loop
     vertex -2.832992e+02  4.977906e+02 -2.604407e+02
     vertex -2.831075e+02  5.038094e+02 -2.596628e+02
     vertex -2.831075e+02  4.977906e+02 -2.596628e+02
   endloop
 endfacet
 facet normal  9.709437e-01  3.576289e-13 -2.393079e-01
   outer loop
     vertex -2.832992e+02  4.977906e+02 -2.604407e+02
     vertex -2.832992e+02  5.038094e+02 -2.604407e+02
     vertex -2.831075e+02  5.038094e+02 -2.596628e+02
   endloop
 endfacet
 facet normal  1.000000e+00  3.683312e-13  7.999510e-06
   outer loop
     vertex -2.832992e+02  4.977906e+02 -2.604407e+02
     vertex -2.832992e+02  5.038094e+02 -2.612419e+02
     vertex -2.832992e+02  5.038094e+02 -2.604407e+02
   endloop
 endfacet
 facet normal  1.000000e+00  3.588868e-13  7.999510e-06
   outer loop
     vertex -2.832992e+02  4.977906e+02 -2.612419e+02
     vertex -2.832992e+02  5.038094e+02 -2.612419e+02
     vertex -2.832992e+02  4.977906e+02 -2.604407e+02
   endloop
 endfacet
 facet normal  9.709399e-01  3.484575e-13  2.393234e-01
   outer loop
     vertex -2.832992e+02  4.977906e+02 -2.612419e+02
     vertex -2.831075e+02  5.038094e+02 -2.620199e+02
     vertex -2.832992e+02  5.038094e+02 -2.612419e+02
   endloop
 endfacet
 facet normal  9.709399e-01  3.621480e-13  2.393234e-01
   outer loop
     vertex -2.831075e+02  4.977906e+02 -2.620199e+02
     vertex -2.831075e+02  5.038094e+02 -2.620199e+02
     vertex -2.832992e+02  4.977906e+02 -2.612419e+02
   endloop
 endfacet
 facet normal  8.854523e-01  3.349179e-13  4.647303e-01
   outer loop
     vertex -2.831075e+02  4.977906e+02 -2.620199e+02
     vertex -2.827351e+02  5.038094e+02 -2.627293e+02
     vertex -2.831075e+02  5.038094e+02 -2.620199e+02
   endloop
 endfacet
 facet normal  8.854523e-01  3.305288e-13  4.647303e-01
   outer loop
     vertex -2.827351e+02  4.977906e+02 -2.627293e+02
     vertex -2.827351e+02  5.038094e+02 -2.627293e+02
     vertex -2.831075e+02  4.977906e+02 -2.620199e+02
   endloop
 endfacet
 facet normal  7.485054e-01  2.819607e-13  6.631286e-01
   outer loop
     vertex -2.827351e+02  4.977906e+02 -2.627293e+02
     vertex -2.822038e+02  5.038094e+02 -2.633290e+02
     vertex -2.827351e+02  5.038094e+02 -2.627293e+02
   endloop
 endfacet
 facet normal  7.485054e-01  2.819607e-13  6.631286e-01
   outer loop
     vertex -2.822038e+02  4.977906e+02 -2.633290e+02
     vertex -2.822038e+02  5.038094e+02 -2.633290e+02
     vertex -2.827351e+02  4.977906e+02 -2.627293e+02
   endloop
 endfacet
 facet normal  5.680582e-01  2.116412e-13  8.229884e-01
   outer loop
     vertex -2.815444e+02  4.977906e+02 -2.637841e+02
     vertex -2.815444e+02  5.038094e+02 -2.637841e+02
     vertex -2.822038e+02  5.038094e+02 -2.633290e+02
   endloop
 endfacet
 facet normal  5.680582e-01  2.170113e-13  8.229884e-01
   outer loop
     vertex -2.815444e+02  4.977906e+02 -2.637841e+02
     vertex -2.822038e+02  5.038094e+02 -2.633290e+02
     vertex -2.822038e+02  4.977906e+02 -2.633290e+02
   endloop
 endfacet
 facet normal  3.545974e-01  1.339582e-13  9.350191e-01
   outer loop
     vertex -2.807953e+02  4.977906e+02 -2.640682e+02
     vertex -2.807953e+02  5.038094e+02 -2.640682e+02
     vertex -2.815444e+02  5.038094e+02 -2.637841e+02
   endloop
 endfacet
 facet normal  1.205287e-01  4.553281e-14  9.927098e-01
   outer loop
     vertex -2.807953e+02  4.977906e+02 -2.640682e+02
     vertex -2.799999e+02  5.038094e+02 -2.641648e+02
     vertex -2.807953e+02  5.038094e+02 -2.640682e+02
   endloop
 endfacet
 facet normal  3.545974e-01  1.360921e-13  9.350191e-01
   outer loop
     vertex -2.807953e+02  4.977906e+02 -2.640682e+02
     vertex -2.815444e+02  5.038094e+02 -2.637841e+02
     vertex -2.815444e+02  4.977906e+02 -2.637841e+02
   endloop
 endfacet
 facet normal  1.205287e-01  5.377003e-14  9.927098e-01
   outer loop
     vertex -2.799999e+02  4.977906e+02 -2.641648e+02
     vertex -2.799999e+02  5.038094e+02 -2.641648e+02
     vertex -2.807953e+02  4.977906e+02 -2.640682e+02
   endloop
 endfacet
 facet normal -3.738547e-13  1.000000e+00 -7.156287e-15
   outer loop
     vertex -2.773474e+02  5.042000e+02 -2.638354e+02
     vertex -2.756585e+02  5.042000e+02 -2.646874e+02
     vertex -2.767051e+02  5.042000e+02 -2.656146e+02
   endloop
 endfacet
 facet normal -3.683234e-13  1.000000e+00  7.240972e-15
   outer loop
     vertex -2.767079e+02  5.042000e+02 -2.631136e+02
     vertex -2.748643e+02  5.042000e+02 -2.635367e+02
     vertex -2.756585e+02  5.042000e+02 -2.646874e+02
   endloop
 endfacet
 facet normal -3.657135e-13  1.000000e+00  8.981163e-15
   outer loop
     vertex -2.767079e+02  5.042000e+02 -2.631136e+02
     vertex -2.756585e+02  5.042000e+02 -2.646874e+02
     vertex -2.773474e+02  5.042000e+02 -2.638354e+02
   endloop
 endfacet
 facet normal -3.631263e-13  1.000000e+00 -7.963141e-15
   outer loop
     vertex -2.781410e+02  5.042000e+02 -2.643832e+02
     vertex -2.767051e+02  5.042000e+02 -2.656146e+02
     vertex -2.779432e+02  5.042000e+02 -2.662644e+02
   endloop
 endfacet
 facet normal -3.573137e-13  1.000000e+00 -1.185431e-15
   outer loop
     vertex -2.781410e+02  5.042000e+02 -2.643832e+02
     vertex -2.773474e+02  5.042000e+02 -2.638354e+02
     vertex -2.767051e+02  5.042000e+02 -2.656146e+02
   endloop
 endfacet
 facet normal -3.607613e-13  1.000000e+00  6.377512e-15
   outer loop
     vertex -2.762598e+02  5.042000e+02 -2.622597e+02
     vertex -2.743685e+02  5.042000e+02 -2.622293e+02
     vertex -2.748643e+02  5.042000e+02 -2.635367e+02
   endloop
 endfacet
 facet normal -3.711191e-13  1.000000e+00 -4.942190e-15
   outer loop
     vertex -2.762598e+02  5.042000e+02 -2.622597e+02
     vertex -2.748643e+02  5.042000e+02 -2.635367e+02
     vertex -2.767079e+02  5.042000e+02 -2.631136e+02
   endloop
 endfacet
 facet normal -3.746029e-13  1.000000e+00 -9.062202e-15
   outer loop
     vertex -2.790426e+02  5.042000e+02 -2.647251e+02
     vertex -2.779432e+02  5.042000e+02 -2.662644e+02
     vertex -2.793008e+02  5.042000e+02 -2.665990e+02
   endloop
 endfacet
 facet normal -3.747796e-13  1.000000e+00 -9.188386e-15
   outer loop
     vertex -2.790426e+02  5.042000e+02 -2.647251e+02
     vertex -2.781410e+02  5.042000e+02 -2.643832e+02
     vertex -2.779432e+02  5.042000e+02 -2.662644e+02
   endloop
 endfacet
 facet normal -3.741097e-13  1.000000e+00  4.469581e-15
   outer loop
     vertex -2.760290e+02  5.042000e+02 -2.613234e+02
     vertex -2.741999e+02  5.042000e+02 -2.608413e+02
     vertex -2.743685e+02  5.042000e+02 -2.622293e+02
   endloop
 endfacet
 facet normal -3.611139e-13  1.000000e+00  2.829243e-14
   outer loop
     vertex -2.760290e+02  5.042000e+02 -2.613234e+02
     vertex -2.743685e+02  5.042000e+02 -2.622293e+02
     vertex -2.762598e+02  5.042000e+02 -2.622597e+02
   endloop
 endfacet
 facet normal -3.658856e-13  1.000000e+00 -1.617341e-14
   outer loop
     vertex -2.799999e+02  5.042000e+02 -2.648414e+02
     vertex -2.793008e+02  5.042000e+02 -2.665990e+02
     vertex -2.806990e+02  5.042000e+02 -2.665990e+02
   endloop
 endfacet
 facet normal -3.548494e-13  1.000000e+00 -1.178356e-14
   outer loop
     vertex -2.799999e+02  5.042000e+02 -2.648414e+02
     vertex -2.790426e+02  5.042000e+02 -2.647251e+02
     vertex -2.793008e+02  5.042000e+02 -2.665990e+02
   endloop
 endfacet
 facet normal -3.741096e-13  1.000000e+00 -4.475567e-15
   outer loop
     vertex -2.760290e+02  5.042000e+02 -2.603591e+02
     vertex -2.743685e+02  5.042000e+02 -2.594532e+02
     vertex -2.741999e+02  5.042000e+02 -2.608413e+02
   endloop
 endfacet
 facet normal -3.729307e-13  1.000000e+00 -2.983263e-18
   outer loop
     vertex -2.760290e+02  5.042000e+02 -2.603591e+02
     vertex -2.741999e+02  5.042000e+02 -2.608413e+02
     vertex -2.760290e+02  5.042000e+02 -2.613234e+02
   endloop
 endfacet
 facet normal -3.390001e-13  1.000000e+00 -1.637324e-14
   outer loop
     vertex -2.809572e+02  5.042000e+02 -2.647252e+02
     vertex -2.806990e+02  5.042000e+02 -2.665990e+02
     vertex -2.820566e+02  5.042000e+02 -2.662644e+02
   endloop
 endfacet
 facet normal -3.585953e-13  1.000000e+00 -1.907311e-14
   outer loop
     vertex -2.809572e+02  5.042000e+02 -2.647252e+02
     vertex -2.799999e+02  5.042000e+02 -2.648414e+02
     vertex -2.806990e+02  5.042000e+02 -2.665990e+02
   endloop
 endfacet
 facet normal -3.607612e-13  1.000000e+00 -6.383284e-15
   outer loop
     vertex -2.762598e+02  5.042000e+02 -2.594228e+02
     vertex -2.748643e+02  5.042000e+02 -2.581459e+02
     vertex -2.743685e+02  5.042000e+02 -2.594532e+02
   endloop
 endfacet
 facet normal -3.611134e-13  1.000000e+00 -2.829821e-14
   outer loop
     vertex -2.762598e+02  5.042000e+02 -2.594228e+02
     vertex -2.743685e+02  5.042000e+02 -2.594532e+02
     vertex -2.760290e+02  5.042000e+02 -2.603591e+02
   endloop
 endfacet
 facet normal -3.747797e-13  1.000000e+00  9.182390e-15
   outer loop
     vertex -2.818588e+02  5.042000e+02 -2.643832e+02
     vertex -2.809572e+02  5.042000e+02 -2.647252e+02
     vertex -2.820566e+02  5.042000e+02 -2.662644e+02
   endloop
 endfacet
 facet normal -3.631265e-13  1.000000e+00  7.957331e-15
   outer loop
     vertex -2.832947e+02  5.042000e+02 -2.656146e+02
     vertex -2.818588e+02  5.042000e+02 -2.643832e+02
     vertex -2.820566e+02  5.042000e+02 -2.662644e+02
   endloop
 endfacet
 facet normal -3.711192e-13  1.000000e+00  4.936253e-15
   outer loop
     vertex -2.767080e+02  5.042000e+02 -2.585690e+02
     vertex -2.748643e+02  5.042000e+02 -2.581459e+02
     vertex -2.762598e+02  5.042000e+02 -2.594228e+02
   endloop
 endfacet
 facet normal -3.683232e-13  1.000000e+00 -7.246865e-15
   outer loop
     vertex -2.756586e+02  5.042000e+02 -2.569952e+02
     vertex -2.748643e+02  5.042000e+02 -2.581459e+02
     vertex -2.767080e+02  5.042000e+02 -2.585690e+02
   endloop
 endfacet
 facet normal -3.573138e-13  1.000000e+00  1.179714e-15
   outer loop
     vertex -2.826525e+02  5.042000e+02 -2.638354e+02
     vertex -2.818588e+02  5.042000e+02 -2.643832e+02
     vertex -2.832947e+02  5.042000e+02 -2.656146e+02
   endloop
 endfacet
 facet normal -3.657134e-13  1.000000e+00 -8.987014e-15
   outer loop
     vertex -2.773474e+02  5.042000e+02 -2.578472e+02
     vertex -2.756586e+02  5.042000e+02 -2.569952e+02
     vertex -2.767080e+02  5.042000e+02 -2.585690e+02
   endloop
 endfacet
 facet normal -3.738548e-13  1.000000e+00  7.150306e-15
   outer loop
     vertex -2.843413e+02  5.042000e+02 -2.646874e+02
     vertex -2.826525e+02  5.042000e+02 -2.638354e+02
     vertex -2.832947e+02  5.042000e+02 -2.656146e+02
   endloop
 endfacet
 facet normal -3.657134e-13  1.000000e+00 -8.987014e-15
   outer loop
     vertex -2.832919e+02  5.042000e+02 -2.631136e+02
     vertex -2.826525e+02  5.042000e+02 -2.638354e+02
     vertex -2.843413e+02  5.042000e+02 -2.646874e+02
   endloop
 endfacet
 facet normal -3.738548e-13  1.000000e+00  7.150306e-15
   outer loop
     vertex -2.767052e+02  5.042000e+02 -2.560680e+02
     vertex -2.756586e+02  5.042000e+02 -2.569952e+02
     vertex -2.773474e+02  5.042000e+02 -2.578472e+02
   endloop
 endfacet
 facet normal -3.573138e-13  1.000000e+00  1.179714e-15
   outer loop
     vertex -2.781410e+02  5.042000e+02 -2.572994e+02
     vertex -2.767052e+02  5.042000e+02 -2.560680e+02
     vertex -2.773474e+02  5.042000e+02 -2.578472e+02
   endloop
 endfacet
 facet normal -3.711192e-13  1.000000e+00  4.936253e-15
   outer loop
     vertex -2.851356e+02  5.042000e+02 -2.635367e+02
     vertex -2.837401e+02  5.042000e+02 -2.622598e+02
     vertex -2.832919e+02  5.042000e+02 -2.631136e+02
   endloop
 endfacet
 facet normal -3.683232e-13  1.000000e+00 -7.246865e-15
   outer loop
     vertex -2.851356e+02  5.042000e+02 -2.635367e+02
     vertex -2.832919e+02  5.042000e+02 -2.631136e+02
     vertex -2.843413e+02  5.042000e+02 -2.646874e+02
   endloop
 endfacet
 facet normal -3.631265e-13  1.000000e+00  7.957331e-15
   outer loop
     vertex -2.779433e+02  5.042000e+02 -2.554182e+02
     vertex -2.767052e+02  5.042000e+02 -2.560680e+02
     vertex -2.781410e+02  5.042000e+02 -2.572994e+02
   endloop
 endfacet
 facet normal -3.747797e-13  1.000000e+00  9.182390e-15
   outer loop
     vertex -2.779433e+02  5.042000e+02 -2.554182e+02
     vertex -2.781410e+02  5.042000e+02 -2.572994e+02
     vertex -2.790427e+02  5.042000e+02 -2.569574e+02
   endloop
 endfacet
 facet normal -3.607612e-13  1.000000e+00 -6.383284e-15
   outer loop
     vertex -2.856314e+02  5.042000e+02 -2.622294e+02
     vertex -2.837401e+02  5.042000e+02 -2.622598e+02
     vertex -2.851356e+02  5.042000e+02 -2.635367e+02
   endloop
 endfacet
 facet normal -3.611134e-13  1.000000e+00 -2.829821e-14
   outer loop
     vertex -2.856314e+02  5.042000e+02 -2.622294e+02
     vertex -2.839708e+02  5.042000e+02 -2.613235e+02
     vertex -2.837401e+02  5.042000e+02 -2.622598e+02
   endloop
 endfacet
 facet normal -3.390001e-13  1.000000e+00 -1.637324e-14
   outer loop
     vertex -2.793009e+02  5.042000e+02 -2.550836e+02
     vertex -2.779433e+02  5.042000e+02 -2.554182e+02
     vertex -2.790427e+02  5.042000e+02 -2.569574e+02
   endloop
 endfacet
 facet normal -3.585953e-13  1.000000e+00 -1.907311e-14
   outer loop
     vertex -2.793009e+02  5.042000e+02 -2.550836e+02
     vertex -2.790427e+02  5.042000e+02 -2.569574e+02
     vertex -2.800000e+02  5.042000e+02 -2.568412e+02
   endloop
 endfacet
 facet normal -3.741096e-13  1.000000e+00 -4.475567e-15
   outer loop
     vertex -2.857999e+02  5.042000e+02 -2.608413e+02
     vertex -2.839708e+02  5.042000e+02 -2.613235e+02
     vertex -2.856314e+02  5.042000e+02 -2.622294e+02
   endloop
 endfacet
 facet normal -3.729307e-13  1.000000e+00 -2.983263e-18
   outer loop
     vertex -2.857999e+02  5.042000e+02 -2.608413e+02
     vertex -2.839709e+02  5.042000e+02 -2.603592e+02
     vertex -2.839708e+02  5.042000e+02 -2.613235e+02
   endloop
 endfacet
 facet normal -3.658856e-13  1.000000e+00 -1.617341e-14
   outer loop
     vertex -2.806991e+02  5.042000e+02 -2.550836e+02
     vertex -2.793009e+02  5.042000e+02 -2.550836e+02
     vertex -2.800000e+02  5.042000e+02 -2.568412e+02
   endloop
 endfacet
 facet normal -3.548494e-13  1.000000e+00 -1.178356e-14
   outer loop
     vertex -2.806991e+02  5.042000e+02 -2.550836e+02
     vertex -2.800000e+02  5.042000e+02 -2.568412e+02
     vertex -2.809572e+02  5.042000e+02 -2.569575e+02
   endloop
 endfacet
 facet normal -3.741097e-13  1.000000e+00  4.469581e-15
   outer loop
     vertex -2.856314e+02  5.042000e+02 -2.594533e+02
     vertex -2.839709e+02  5.042000e+02 -2.603592e+02
     vertex -2.857999e+02  5.042000e+02 -2.608413e+02
   endloop
 endfacet
 facet normal -3.611139e-13  1.000000e+00  2.829243e-14
   outer loop
     vertex -2.856314e+02  5.042000e+02 -2.594533e+02
     vertex -2.837401e+02  5.042000e+02 -2.594229e+02
     vertex -2.839709e+02  5.042000e+02 -2.603592e+02
   endloop
 endfacet
 facet normal -3.747796e-13  1.000000e+00 -9.188386e-15
   outer loop
     vertex -2.820567e+02  5.042000e+02 -2.554182e+02
     vertex -2.809572e+02  5.042000e+02 -2.569575e+02
     vertex -2.818589e+02  5.042000e+02 -2.572994e+02
   endloop
 endfacet
 facet normal -3.746029e-13  1.000000e+00 -9.062202e-15
   outer loop
     vertex -2.820567e+02  5.042000e+02 -2.554182e+02
     vertex -2.806991e+02  5.042000e+02 -2.550836e+02
     vertex -2.809572e+02  5.042000e+02 -2.569575e+02
   endloop
 endfacet
 facet normal -3.711191e-13  1.000000e+00 -4.942190e-15
   outer loop
     vertex -2.851356e+02  5.042000e+02 -2.581459e+02
     vertex -2.832920e+02  5.042000e+02 -2.585690e+02
     vertex -2.837401e+02  5.042000e+02 -2.594229e+02
   endloop
 endfacet
 facet normal -3.607613e-13  1.000000e+00  6.377512e-15
   outer loop
     vertex -2.851356e+02  5.042000e+02 -2.581459e+02
     vertex -2.837401e+02  5.042000e+02 -2.594229e+02
     vertex -2.856314e+02  5.042000e+02 -2.594533e+02
   endloop
 endfacet
 facet normal -3.631263e-13  1.000000e+00 -7.963141e-15
   outer loop
     vertex -2.832947e+02  5.042000e+02 -2.560680e+02
     vertex -2.820567e+02  5.042000e+02 -2.554182e+02
     vertex -2.818589e+02  5.042000e+02 -2.572994e+02
   endloop
 endfacet
 facet normal -3.573137e-13  1.000000e+00 -1.185431e-15
   outer loop
     vertex -2.832947e+02  5.042000e+02 -2.560680e+02
     vertex -2.818589e+02  5.042000e+02 -2.572994e+02
     vertex -2.826525e+02  5.042000e+02 -2.578472e+02
   endloop
 endfacet
 facet normal -3.738547e-13  1.000000e+00 -7.156287e-15
   outer loop
     vertex -2.843413e+02  5.042000e+02 -2.569952e+02
     vertex -2.832947e+02  5.042000e+02 -2.560680e+02
     vertex -2.826525e+02  5.042000e+02 -2.578472e+02
   endloop
 endfacet
 facet normal -3.657135e-13  1.000000e+00  8.981163e-15
   outer loop
     vertex -2.843413e+02  5.042000e+02 -2.569952e+02
     vertex -2.826525e+02  5.042000e+02 -2.578472e+02
     vertex -2.832920e+02  5.042000e+02 -2.585690e+02
   endloop
 endfacet
 facet normal -3.683234e-13  1.000000e+00  7.240972e-15
   outer loop
     vertex -2.843413e+02  5.042000e+02 -2.569952e+02
     vertex -2.832920e+02  5.042000e+02 -2.585690e+02
     vertex -2.851356e+02  5.042000e+02 -2.581459e+02
   endloop
 endfacet
 facet normal  6.060341e-02 -8.644338e-01 -4.990806e-01
   outer loop
     vertex -2.809572e+02  4.974000e+02 -2.569575e+02
     vertex -2.800000e+02  4.977906e+02 -2.575178e+02
     vertex -2.800000e+02  4.974000e+02 -2.568412e+02
   endloop
 endfacet
 facet normal  6.060341e-02 -8.644338e-01 -4.990806e-01
   outer loop
     vertex -2.809572e+02  4.974000e+02 -2.569575e+02
     vertex -2.807953e+02  4.977906e+02 -2.576144e+02
     vertex -2.800000e+02  4.977906e+02 -2.575178e+02
   endloop
 endfacet
 facet normal  1.782802e-01 -8.644338e-01 -4.700749e-01
   outer loop
     vertex -2.818589e+02  4.974000e+02 -2.572994e+02
     vertex -2.815445e+02  4.977906e+02 -2.578985e+02
     vertex -2.807953e+02  4.977906e+02 -2.576144e+02
   endloop
 endfacet
 facet normal  1.782802e-01 -8.644338e-01 -4.700749e-01
   outer loop
     vertex -2.818589e+02  4.974000e+02 -2.572994e+02
     vertex -2.807953e+02  4.977906e+02 -2.576144e+02
     vertex -2.809572e+02  4.974000e+02 -2.569575e+02
   endloop
 endfacet
 facet normal  2.855960e-01 -8.644338e-01 -4.137501e-01
   outer loop
     vertex -2.826525e+02  4.974000e+02 -2.578472e+02
     vertex -2.822038e+02  4.977906e+02 -2.583536e+02
     vertex -2.815445e+02  4.977906e+02 -2.578985e+02
   endloop
 endfacet
 facet normal  2.855960e-01 -8.644338e-01 -4.137501e-01
   outer loop
     vertex -2.826525e+02  4.974000e+02 -2.578472e+02
     vertex -2.815445e+02  4.977906e+02 -2.578985e+02
     vertex -2.818589e+02  4.974000e+02 -2.572994e+02
   endloop
 endfacet
 facet normal  3.763140e-01 -8.644338e-01 -3.333797e-01
   outer loop
     vertex -2.832920e+02  4.974000e+02 -2.585690e+02
     vertex -2.827351e+02  4.977906e+02 -2.589534e+02
     vertex -2.822038e+02  4.977906e+02 -2.583536e+02
   endloop
 endfacet
 facet normal  3.763140e-01 -8.644338e-01 -3.333797e-01
   outer loop
     vertex -2.832920e+02  4.974000e+02 -2.585690e+02
     vertex -2.822038e+02  4.977906e+02 -2.583536e+02
     vertex -2.826525e+02  4.974000e+02 -2.578472e+02
   endloop
 endfacet
 facet normal  4.451619e-01 -8.644338e-01 -2.336345e-01
   outer loop
     vertex -2.837401e+02  4.974000e+02 -2.594229e+02
     vertex -2.831075e+02  4.977906e+02 -2.596628e+02
     vertex -2.827351e+02  4.977906e+02 -2.589534e+02
   endloop
 endfacet
 facet normal  4.451619e-01 -8.644338e-01 -2.336345e-01
   outer loop
     vertex -2.837401e+02  4.974000e+02 -2.594229e+02
     vertex -2.827351e+02  4.977906e+02 -2.589534e+02
     vertex -2.832920e+02  4.974000e+02 -2.585690e+02
   endloop
 endfacet
 facet normal  4.881387e-01 -8.644338e-01 -1.203112e-01
   outer loop
     vertex -2.839709e+02  4.974000e+02 -2.603592e+02
     vertex -2.832992e+02  4.977906e+02 -2.604407e+02
     vertex -2.831075e+02  4.977906e+02 -2.596628e+02
   endloop
 endfacet
 facet normal  4.881387e-01 -8.644338e-01 -1.203112e-01
   outer loop
     vertex -2.839709e+02  4.974000e+02 -2.603592e+02
     vertex -2.831075e+02  4.977906e+02 -2.596628e+02
     vertex -2.837401e+02  4.974000e+02 -2.594229e+02
   endloop
 endfacet
 facet normal  5.027467e-01 -8.644338e-01  4.021727e-06
   outer loop
     vertex -2.839708e+02  4.974000e+02 -2.613235e+02
     vertex -2.832992e+02  4.977906e+02 -2.612419e+02
     vertex -2.832992e+02  4.977906e+02 -2.604407e+02
   endloop
 endfacet
 facet normal  5.027467e-01 -8.644338e-01  4.021727e-06
   outer loop
     vertex -2.839708e+02  4.974000e+02 -2.613235e+02
     vertex -2.832992e+02  4.977906e+02 -2.604407e+02
     vertex -2.839709e+02  4.974000e+02 -2.603592e+02
   endloop
 endfacet
 facet normal  4.881368e-01 -8.644338e-01  1.203191e-01
   outer loop
     vertex -2.837401e+02  4.974000e+02 -2.622598e+02
     vertex -2.831075e+02  4.977906e+02 -2.620199e+02
     vertex -2.832992e+02  4.977906e+02 -2.612419e+02
   endloop
 endfacet
 facet normal  4.881368e-01 -8.644338e-01  1.203191e-01
   outer loop
     vertex -2.837401e+02  4.974000e+02 -2.622598e+02
     vertex -2.832992e+02  4.977906e+02 -2.612419e+02
     vertex -2.839708e+02  4.974000e+02 -2.613235e+02
   endloop
 endfacet
 facet normal  4.451582e-01 -8.644338e-01  2.336416e-01
   outer loop
     vertex -2.832919e+02  4.974000e+02 -2.631136e+02
     vertex -2.827351e+02  4.977906e+02 -2.627293e+02
     vertex -2.831075e+02  4.977906e+02 -2.620199e+02
   endloop
 endfacet
 facet normal  4.451582e-01 -8.644338e-01  2.336416e-01
   outer loop
     vertex -2.832919e+02  4.974000e+02 -2.631136e+02
     vertex -2.831075e+02  4.977906e+02 -2.620199e+02
     vertex -2.837401e+02  4.974000e+02 -2.622598e+02
   endloop
 endfacet
 facet normal  3.763086e-01 -8.644338e-01  3.333857e-01
   outer loop
     vertex -2.826525e+02  4.974000e+02 -2.638354e+02
     vertex -2.822038e+02  4.977906e+02 -2.633290e+02
     vertex -2.827351e+02  4.977906e+02 -2.627293e+02
   endloop
 endfacet
 facet normal  3.763086e-01 -8.644338e-01  3.333857e-01
   outer loop
     vertex -2.826525e+02  4.974000e+02 -2.638354e+02
     vertex -2.827351e+02  4.977906e+02 -2.627293e+02
     vertex -2.832919e+02  4.974000e+02 -2.631136e+02
   endloop
 endfacet
 facet normal  2.855894e-01 -8.644338e-01  4.137547e-01
   outer loop
     vertex -2.818588e+02  4.974000e+02 -2.643832e+02
     vertex -2.815444e+02  4.977906e+02 -2.637841e+02
     vertex -2.822038e+02  4.977906e+02 -2.633290e+02
   endloop
 endfacet
 facet normal  2.855894e-01 -8.644338e-01  4.137547e-01
   outer loop
     vertex -2.818588e+02  4.974000e+02 -2.643832e+02
     vertex -2.822038e+02  4.977906e+02 -2.633290e+02
     vertex -2.826525e+02  4.974000e+02 -2.638354e+02
   endloop
 endfacet
 facet normal  1.782727e-01 -8.644338e-01  4.700777e-01
   outer loop
     vertex -2.809572e+02  4.974000e+02 -2.647252e+02
     vertex -2.815444e+02  4.977906e+02 -2.637841e+02
     vertex -2.818588e+02  4.974000e+02 -2.643832e+02
   endloop
 endfacet
 facet normal  1.782727e-01 -8.644338e-01  4.700777e-01
   outer loop
     vertex -2.809572e+02  4.974000e+02 -2.647252e+02
     vertex -2.807953e+02  4.977906e+02 -2.640682e+02
     vertex -2.815444e+02  4.977906e+02 -2.637841e+02
   endloop
 endfacet
 facet normal  6.059542e-02 -8.644338e-01  4.990816e-01
   outer loop
     vertex -2.799999e+02  4.974000e+02 -2.648414e+02
     vertex -2.807953e+02  4.977906e+02 -2.640682e+02
     vertex -2.809572e+02  4.974000e+02 -2.647252e+02
   endloop
 endfacet
 facet normal  6.059542e-02 -8.644338e-01  4.990816e-01
   outer loop
     vertex -2.799999e+02  4.974000e+02 -2.648414e+02
     vertex -2.799999e+02  4.977906e+02 -2.641648e+02
     vertex -2.807953e+02  4.977906e+02 -2.640682e+02
   endloop
 endfacet
 facet normal -6.060341e-02 -8.644338e-01  4.990806e-01
   outer loop
     vertex -2.790426e+02  4.974000e+02 -2.647251e+02
     vertex -2.799999e+02  4.977906e+02 -2.641648e+02
     vertex -2.799999e+02  4.974000e+02 -2.648414e+02
   endloop
 endfacet
 facet normal -6.060341e-02 -8.644338e-01  4.990806e-01
   outer loop
     vertex -2.790426e+02  4.974000e+02 -2.647251e+02
     vertex -2.792045e+02  4.977906e+02 -2.640682e+02
     vertex -2.799999e+02  4.977906e+02 -2.641648e+02
   endloop
 endfacet
 facet normal -1.782802e-01 -8.644338e-01  4.700749e-01
   outer loop
     vertex -2.781410e+02  4.974000e+02 -2.643832e+02
     vertex -2.792045e+02  4.977906e+02 -2.640682e+02
     vertex -2.790426e+02  4.974000e+02 -2.647251e+02
   endloop
 endfacet
 facet normal -1.782802e-01 -8.644338e-01  4.700749e-01
   outer loop
     vertex -2.781410e+02  4.974000e+02 -2.643832e+02
     vertex -2.784554e+02  4.977906e+02 -2.637841e+02
     vertex -2.792045e+02  4.977906e+02 -2.640682e+02
   endloop
 endfacet
 facet normal -2.855960e-01 -8.644338e-01  4.137501e-01
   outer loop
     vertex -2.773474e+02  4.974000e+02 -2.638354e+02
     vertex -2.784554e+02  4.977906e+02 -2.637841e+02
     vertex -2.781410e+02  4.974000e+02 -2.643832e+02
   endloop
 endfacet
 facet normal -2.855960e-01 -8.644338e-01  4.137501e-01
   outer loop
     vertex -2.773474e+02  4.974000e+02 -2.638354e+02
     vertex -2.777960e+02  4.977906e+02 -2.633290e+02
     vertex -2.784554e+02  4.977906e+02 -2.637841e+02
   endloop
 endfacet
 facet normal -3.763140e-01 -8.644338e-01  3.333797e-01
   outer loop
     vertex -2.767079e+02  4.974000e+02 -2.631136e+02
     vertex -2.777960e+02  4.977906e+02 -2.633290e+02
     vertex -2.773474e+02  4.974000e+02 -2.638354e+02
   endloop
 endfacet
 facet normal -3.763140e-01 -8.644338e-01  3.333797e-01
   outer loop
     vertex -2.767079e+02  4.974000e+02 -2.631136e+02
     vertex -2.772647e+02  4.977906e+02 -2.627292e+02
     vertex -2.777960e+02  4.977906e+02 -2.633290e+02
   endloop
 endfacet
 facet normal -4.451619e-01 -8.644338e-01  2.336345e-01
   outer loop
     vertex -2.762598e+02  4.974000e+02 -2.622597e+02
     vertex -2.772647e+02  4.977906e+02 -2.627292e+02
     vertex -2.767079e+02  4.974000e+02 -2.631136e+02
   endloop
 endfacet
 facet normal -4.451619e-01 -8.644338e-01  2.336345e-01
   outer loop
     vertex -2.762598e+02  4.974000e+02 -2.622597e+02
     vertex -2.768924e+02  4.977906e+02 -2.620198e+02
     vertex -2.772647e+02  4.977906e+02 -2.627292e+02
   endloop
 endfacet
 facet normal -4.881387e-01 -8.644338e-01  1.203112e-01
   outer loop
     vertex -2.760290e+02  4.974000e+02 -2.613234e+02
     vertex -2.768924e+02  4.977906e+02 -2.620198e+02
     vertex -2.762598e+02  4.974000e+02 -2.622597e+02
   endloop
 endfacet
 facet normal -4.881387e-01 -8.644338e-01  1.203112e-01
   outer loop
     vertex -2.760290e+02  4.974000e+02 -2.613234e+02
     vertex -2.767007e+02  4.977906e+02 -2.612419e+02
     vertex -2.768924e+02  4.977906e+02 -2.620198e+02
   endloop
 endfacet
 facet normal -5.027467e-01 -8.644338e-01 -4.021727e-06
   outer loop
     vertex -2.760290e+02  4.974000e+02 -2.603591e+02
     vertex -2.767007e+02  4.977906e+02 -2.612419e+02
     vertex -2.760290e+02  4.974000e+02 -2.613234e+02
   endloop
 endfacet
 facet normal -5.027467e-01 -8.644338e-01 -4.021727e-06
   outer loop
     vertex -2.760290e+02  4.974000e+02 -2.603591e+02
     vertex -2.767007e+02  4.977906e+02 -2.604407e+02
     vertex -2.767007e+02  4.977906e+02 -2.612419e+02
   endloop
 endfacet
 facet normal -4.881368e-01 -8.644338e-01 -1.203191e-01
   outer loop
     vertex -2.762598e+02  4.974000e+02 -2.594228e+02
     vertex -2.767007e+02  4.977906e+02 -2.604407e+02
     vertex -2.760290e+02  4.974000e+02 -2.603591e+02
   endloop
 endfacet
 facet normal -4.881368e-01 -8.644338e-01 -1.203191e-01
   outer loop
     vertex -2.762598e+02  4.974000e+02 -2.594228e+02
     vertex -2.768924e+02  4.977906e+02 -2.596627e+02
     vertex -2.767007e+02  4.977906e+02 -2.604407e+02
   endloop
 endfacet
 facet normal -4.451582e-01 -8.644338e-01 -2.336416e-01
   outer loop
     vertex -2.767080e+02  4.974000e+02 -2.585690e+02
     vertex -2.768924e+02  4.977906e+02 -2.596627e+02
     vertex -2.762598e+02  4.974000e+02 -2.594228e+02
   endloop
 endfacet
 facet normal -4.451582e-01 -8.644338e-01 -2.336416e-01
   outer loop
     vertex -2.767080e+02  4.974000e+02 -2.585690e+02
     vertex -2.772648e+02  4.977906e+02 -2.589533e+02
     vertex -2.768924e+02  4.977906e+02 -2.596627e+02
   endloop
 endfacet
 facet normal -3.763086e-01 -8.644338e-01 -3.333857e-01
   outer loop
     vertex -2.773474e+02  4.974000e+02 -2.578472e+02
     vertex -2.777961e+02  4.977906e+02 -2.583536e+02
     vertex -2.772648e+02  4.977906e+02 -2.589533e+02
   endloop
 endfacet
 facet normal -3.763086e-01 -8.644338e-01 -3.333857e-01
   outer loop
     vertex -2.773474e+02  4.974000e+02 -2.578472e+02
     vertex -2.772648e+02  4.977906e+02 -2.589533e+02
     vertex -2.767080e+02  4.974000e+02 -2.585690e+02
   endloop
 endfacet
 facet normal -2.855894e-01 -8.644338e-01 -4.137547e-01
   outer loop
     vertex -2.784555e+02  4.977906e+02 -2.578985e+02
     vertex -2.777961e+02  4.977906e+02 -2.583536e+02
     vertex -2.773474e+02  4.974000e+02 -2.578472e+02
   endloop
 endfacet
 facet normal -2.855894e-01 -8.644338e-01 -4.137547e-01
   outer loop
     vertex -2.781410e+02  4.974000e+02 -2.572994e+02
     vertex -2.784555e+02  4.977906e+02 -2.578985e+02
     vertex -2.773474e+02  4.974000e+02 -2.578472e+02
   endloop
 endfacet
 facet normal -1.782727e-01 -8.644338e-01 -4.700777e-01
   outer loop
     vertex -2.790427e+02  4.974000e+02 -2.569574e+02
     vertex -2.792046e+02  4.977906e+02 -2.576144e+02
     vertex -2.784555e+02  4.977906e+02 -2.578985e+02
   endloop
 endfacet
 facet normal -1.782727e-01 -8.644338e-01 -4.700777e-01
   outer loop
     vertex -2.790427e+02  4.974000e+02 -2.569574e+02
     vertex -2.784555e+02  4.977906e+02 -2.578985e+02
     vertex -2.781410e+02  4.974000e+02 -2.572994e+02
   endloop
 endfacet
 facet normal -6.059542e-02 -8.644338e-01 -4.990816e-01
   outer loop
     vertex -2.800000e+02  4.977906e+02 -2.575178e+02
     vertex -2.792046e+02  4.977906e+02 -2.576144e+02
     vertex -2.790427e+02  4.974000e+02 -2.569574e+02
   endloop
 endfacet
 facet normal -6.059542e-02 -8.644338e-01 -4.990816e-01
   outer loop
     vertex -2.800000e+02  4.974000e+02 -2.568412e+02
     vertex -2.800000e+02  4.977906e+02 -2.575178e+02
     vertex -2.790427e+02  4.974000e+02 -2.569574e+02
   endloop
 endfacet
 facet normal  3.738547e-13 -1.000000e+00  7.156287e-15
   outer loop
     vertex -2.773474e+02  4.974000e+02 -2.638354e+02
     vertex -2.767051e+02  4.974000e+02 -2.656146e+02
     vertex -2.756585e+02  4.974000e+02 -2.646874e+02
   endloop
 endfacet
 facet normal  3.683234e-13 -1.000000e+00 -7.240972e-15
   outer loop
     vertex -2.767079e+02  4.974000e+02 -2.631136e+02
     vertex -2.756585e+02  4.974000e+02 -2.646874e+02
     vertex -2.748643e+02  4.974000e+02 -2.635367e+02
   endloop
 endfacet
 facet normal  3.657135e-13 -1.000000e+00 -8.981163e-15
   outer loop
     vertex -2.767079e+02  4.974000e+02 -2.631136e+02
     vertex -2.773474e+02  4.974000e+02 -2.638354e+02
     vertex -2.756585e+02  4.974000e+02 -2.646874e+02
   endloop
 endfacet
 facet normal  3.631263e-13 -1.000000e+00  7.963141e-15
   outer loop
     vertex -2.781410e+02  4.974000e+02 -2.643832e+02
     vertex -2.779432e+02  4.974000e+02 -2.662644e+02
     vertex -2.767051e+02  4.974000e+02 -2.656146e+02
   endloop
 endfacet
 facet normal  3.573137e-13 -1.000000e+00  1.185431e-15
   outer loop
     vertex -2.781410e+02  4.974000e+02 -2.643832e+02
     vertex -2.767051e+02  4.974000e+02 -2.656146e+02
     vertex -2.773474e+02  4.974000e+02 -2.638354e+02
   endloop
 endfacet
 facet normal  3.607613e-13 -1.000000e+00 -6.377512e-15
   outer loop
     vertex -2.762598e+02  4.974000e+02 -2.622597e+02
     vertex -2.748643e+02  4.974000e+02 -2.635367e+02
     vertex -2.743685e+02  4.974000e+02 -2.622293e+02
   endloop
 endfacet
 facet normal  3.711191e-13 -1.000000e+00  4.942190e-15
   outer loop
     vertex -2.762598e+02  4.974000e+02 -2.622597e+02
     vertex -2.767079e+02  4.974000e+02 -2.631136e+02
     vertex -2.748643e+02  4.974000e+02 -2.635367e+02
   endloop
 endfacet
 facet normal  3.746029e-13 -1.000000e+00  9.062202e-15
   outer loop
     vertex -2.790426e+02  4.974000e+02 -2.647251e+02
     vertex -2.793008e+02  4.974000e+02 -2.665990e+02
     vertex -2.779432e+02  4.974000e+02 -2.662644e+02
   endloop
 endfacet
 facet normal  3.747796e-13 -1.000000e+00  9.188386e-15
   outer loop
     vertex -2.790426e+02  4.974000e+02 -2.647251e+02
     vertex -2.779432e+02  4.974000e+02 -2.662644e+02
     vertex -2.781410e+02  4.974000e+02 -2.643832e+02
   endloop
 endfacet
 facet normal  3.420045e-13 -1.000000e+00 -5.715658e-16
   outer loop
     vertex -2.760290e+02  4.974000e+02 -2.613234e+02
     vertex -2.743685e+02  4.974000e+02 -2.622293e+02
     vertex -2.741999e+02  4.974000e+02 -2.608413e+02
   endloop
 endfacet
 facet normal  3.601331e-13 -1.000000e+00  3.266038e-14
   outer loop
     vertex -2.760290e+02  4.974000e+02 -2.613234e+02
     vertex -2.762598e+02  4.974000e+02 -2.622597e+02
     vertex -2.743685e+02  4.974000e+02 -2.622293e+02
   endloop
 endfacet
 facet normal  3.658856e-13 -1.000000e+00  1.617341e-14
   outer loop
     vertex -2.799999e+02  4.974000e+02 -2.648414e+02
     vertex -2.806990e+02  4.974000e+02 -2.665990e+02
     vertex -2.793008e+02  4.974000e+02 -2.665990e+02
   endloop
 endfacet
 facet normal  3.548494e-13 -1.000000e+00  1.178356e-14
   outer loop
     vertex -2.799999e+02  4.974000e+02 -2.648414e+02
     vertex -2.793008e+02  4.974000e+02 -2.665990e+02
     vertex -2.790426e+02  4.974000e+02 -2.647251e+02
   endloop
 endfacet
 facet normal  3.420045e-13 -1.000000e+00  5.770375e-16
   outer loop
     vertex -2.760290e+02  4.974000e+02 -2.603591e+02
     vertex -2.741999e+02  4.974000e+02 -2.608413e+02
     vertex -2.743685e+02  4.974000e+02 -2.594532e+02
   endloop
 endfacet
 facet normal  3.418531e-13 -1.000000e+00  2.734657e-18
   outer loop
     vertex -2.760290e+02  4.974000e+02 -2.603591e+02
     vertex -2.760290e+02  4.974000e+02 -2.613234e+02
     vertex -2.741999e+02  4.974000e+02 -2.608413e+02
   endloop
 endfacet
 facet normal  3.390001e-13 -1.000000e+00  1.637324e-14
   outer loop
     vertex -2.809572e+02  4.974000e+02 -2.647252e+02
     vertex -2.820566e+02  4.974000e+02 -2.662644e+02
     vertex -2.806990e+02  4.974000e+02 -2.665990e+02
   endloop
 endfacet
 facet normal  3.585953e-13 -1.000000e+00  1.907311e-14
   outer loop
     vertex -2.809572e+02  4.974000e+02 -2.647252e+02
     vertex -2.806990e+02  4.974000e+02 -2.665990e+02
     vertex -2.799999e+02  4.974000e+02 -2.648414e+02
   endloop
 endfacet
 facet normal  3.607612e-13 -1.000000e+00  6.383284e-15
   outer loop
     vertex -2.762598e+02  4.974000e+02 -2.594228e+02
     vertex -2.743685e+02  4.974000e+02 -2.594532e+02
     vertex -2.748643e+02  4.974000e+02 -2.581459e+02
   endloop
 endfacet
 facet normal  3.601336e-13 -1.000000e+00 -3.265462e-14
   outer loop
     vertex -2.762598e+02  4.974000e+02 -2.594228e+02
     vertex -2.760290e+02  4.974000e+02 -2.603591e+02
     vertex -2.743685e+02  4.974000e+02 -2.594532e+02
   endloop
 endfacet
 facet normal  3.747797e-13 -1.000000e+00 -9.182390e-15
   outer loop
     vertex -2.818588e+02  4.974000e+02 -2.643832e+02
     vertex -2.820566e+02  4.974000e+02 -2.662644e+02
     vertex -2.809572e+02  4.974000e+02 -2.647252e+02
   endloop
 endfacet
 facet normal  3.631265e-13 -1.000000e+00 -7.957331e-15
   outer loop
     vertex -2.832947e+02  4.974000e+02 -2.656146e+02
     vertex -2.820566e+02  4.974000e+02 -2.662644e+02
     vertex -2.818588e+02  4.974000e+02 -2.643832e+02
   endloop
 endfacet
 facet normal  3.711192e-13 -1.000000e+00 -4.936253e-15
   outer loop
     vertex -2.767080e+02  4.974000e+02 -2.585690e+02
     vertex -2.762598e+02  4.974000e+02 -2.594228e+02
     vertex -2.748643e+02  4.974000e+02 -2.581459e+02
   endloop
 endfacet
 facet normal  3.683232e-13 -1.000000e+00  7.246865e-15
   outer loop
     vertex -2.756586e+02  4.974000e+02 -2.569952e+02
     vertex -2.767080e+02  4.974000e+02 -2.585690e+02
     vertex -2.748643e+02  4.974000e+02 -2.581459e+02
   endloop
 endfacet
 facet normal  3.573138e-13 -1.000000e+00 -1.179714e-15
   outer loop
     vertex -2.826525e+02  4.974000e+02 -2.638354e+02
     vertex -2.832947e+02  4.974000e+02 -2.656146e+02
     vertex -2.818588e+02  4.974000e+02 -2.643832e+02
   endloop
 endfacet
 facet normal  3.657134e-13 -1.000000e+00  8.987014e-15
   outer loop
     vertex -2.773474e+02  4.974000e+02 -2.578472e+02
     vertex -2.767080e+02  4.974000e+02 -2.585690e+02
     vertex -2.756586e+02  4.974000e+02 -2.569952e+02
   endloop
 endfacet
 facet normal  3.738548e-13 -1.000000e+00 -7.150306e-15
   outer loop
     vertex -2.843413e+02  4.974000e+02 -2.646874e+02
     vertex -2.832947e+02  4.974000e+02 -2.656146e+02
     vertex -2.826525e+02  4.974000e+02 -2.638354e+02
   endloop
 endfacet
 facet normal  3.657134e-13 -1.000000e+00  8.987014e-15
   outer loop
     vertex -2.832919e+02  4.974000e+02 -2.631136e+02
     vertex -2.843413e+02  4.974000e+02 -2.646874e+02
     vertex -2.826525e+02  4.974000e+02 -2.638354e+02
   endloop
 endfacet
 facet normal  3.541476e-13 -1.000000e+00  3.191188e-14
   outer loop
     vertex -2.767052e+02  4.974000e+02 -2.560680e+02
     vertex -2.773474e+02  4.974000e+02 -2.578472e+02
     vertex -2.756586e+02  4.974000e+02 -2.569952e+02
   endloop
 endfacet
 facet normal  3.749676e-13 -1.000000e+00  2.439675e-14
   outer loop
     vertex -2.781410e+02  4.974000e+02 -2.572994e+02
     vertex -2.773474e+02  4.974000e+02 -2.578472e+02
     vertex -2.767052e+02  4.974000e+02 -2.560680e+02
   endloop
 endfacet
 facet normal  3.683232e-13 -1.000000e+00  7.246865e-15
   outer loop
     vertex -2.851356e+02  4.974000e+02 -2.635367e+02
     vertex -2.843413e+02  4.974000e+02 -2.646874e+02
     vertex -2.832919e+02  4.974000e+02 -2.631136e+02
   endloop
 endfacet
 facet normal  3.711192e-13 -1.000000e+00 -4.936253e-15
   outer loop
     vertex -2.851356e+02  4.974000e+02 -2.635367e+02
     vertex -2.832919e+02  4.974000e+02 -2.631136e+02
     vertex -2.837401e+02  4.974000e+02 -2.622598e+02
   endloop
 endfacet
 facet normal  3.781558e-13 -1.000000e+00  2.067929e-14
   outer loop
     vertex -2.779433e+02  4.974000e+02 -2.554182e+02
     vertex -2.781410e+02  4.974000e+02 -2.572994e+02
     vertex -2.767052e+02  4.974000e+02 -2.560680e+02
   endloop
 endfacet
 facet normal  3.251731e-13 -1.000000e+00  2.624913e-14
   outer loop
     vertex -2.779433e+02  4.974000e+02 -2.554182e+02
     vertex -2.790427e+02  4.974000e+02 -2.569574e+02
     vertex -2.781410e+02  4.974000e+02 -2.572994e+02
   endloop
 endfacet
 facet normal  3.607612e-13 -1.000000e+00  6.383284e-15
   outer loop
     vertex -2.856314e+02  4.974000e+02 -2.622294e+02
     vertex -2.851356e+02  4.974000e+02 -2.635367e+02
     vertex -2.837401e+02  4.974000e+02 -2.622598e+02
   endloop
 endfacet
 facet normal  3.611134e-13 -1.000000e+00  2.829821e-14
   outer loop
     vertex -2.856314e+02  4.974000e+02 -2.622294e+02
     vertex -2.837401e+02  4.974000e+02 -2.622598e+02
     vertex -2.839708e+02  4.974000e+02 -2.613235e+02
   endloop
 endfacet
 facet normal  3.746031e-13 -1.000000e+00 -9.056208e-15
   outer loop
     vertex -2.793009e+02  4.974000e+02 -2.550836e+02
     vertex -2.790427e+02  4.974000e+02 -2.569574e+02
     vertex -2.779433e+02  4.974000e+02 -2.554182e+02
   endloop
 endfacet
 facet normal  4.152398e-13 -1.000000e+00 -3.457200e-15
   outer loop
     vertex -2.793009e+02  4.974000e+02 -2.550836e+02
     vertex -2.800000e+02  4.974000e+02 -2.568412e+02
     vertex -2.790427e+02  4.974000e+02 -2.569574e+02
   endloop
 endfacet
 facet normal  3.741096e-13 -1.000000e+00  4.475567e-15
   outer loop
     vertex -2.857999e+02  4.974000e+02 -2.608413e+02
     vertex -2.856314e+02  4.974000e+02 -2.622294e+02
     vertex -2.839708e+02  4.974000e+02 -2.613235e+02
   endloop
 endfacet
 facet normal  3.729307e-13 -1.000000e+00  2.983263e-18
   outer loop
     vertex -2.857999e+02  4.974000e+02 -2.608413e+02
     vertex -2.839708e+02  4.974000e+02 -2.613235e+02
     vertex -2.839709e+02  4.974000e+02 -2.603592e+02
   endloop
 endfacet
 facet normal  3.548494e-13 -1.000000e+00  1.178356e-14
   outer loop
     vertex -2.806991e+02  4.974000e+02 -2.550836e+02
     vertex -2.809572e+02  4.974000e+02 -2.569575e+02
     vertex -2.800000e+02  4.974000e+02 -2.568412e+02
   endloop
 endfacet
 facet normal  3.658856e-13 -1.000000e+00  1.617341e-14
   outer loop
     vertex -2.806991e+02  4.974000e+02 -2.550836e+02
     vertex -2.800000e+02  4.974000e+02 -2.568412e+02
     vertex -2.793009e+02  4.974000e+02 -2.550836e+02
   endloop
 endfacet
 facet normal  3.611139e-13 -1.000000e+00 -2.829243e-14
   outer loop
     vertex -2.856314e+02  4.974000e+02 -2.594533e+02
     vertex -2.839709e+02  4.974000e+02 -2.603592e+02
     vertex -2.837401e+02  4.974000e+02 -2.594229e+02
   endloop
 endfacet
 facet normal  3.741097e-13 -1.000000e+00 -4.469581e-15
   outer loop
     vertex -2.856314e+02  4.974000e+02 -2.594533e+02
     vertex -2.857999e+02  4.974000e+02 -2.608413e+02
     vertex -2.839709e+02  4.974000e+02 -2.603592e+02
   endloop
 endfacet
 facet normal  3.746029e-13 -1.000000e+00  9.062202e-15
   outer loop
     vertex -2.820567e+02  4.974000e+02 -2.554182e+02
     vertex -2.809572e+02  4.974000e+02 -2.569575e+02
     vertex -2.806991e+02  4.974000e+02 -2.550836e+02
   endloop
 endfacet
 facet normal  3.747796e-13 -1.000000e+00  9.188386e-15
   outer loop
     vertex -2.820567e+02  4.974000e+02 -2.554182e+02
     vertex -2.818589e+02  4.974000e+02 -2.572994e+02
     vertex -2.809572e+02  4.974000e+02 -2.569575e+02
   endloop
 endfacet
 facet normal  3.600573e-13 -1.000000e+00  3.736874e-14
   outer loop
     vertex -2.851356e+02  4.974000e+02 -2.581459e+02
     vertex -2.856314e+02  4.974000e+02 -2.594533e+02
     vertex -2.837401e+02  4.974000e+02 -2.594229e+02
   endloop
 endfacet
 facet normal  3.436012e-13 -1.000000e+00  1.938443e-14
   outer loop
     vertex -2.851356e+02  4.974000e+02 -2.581459e+02
     vertex -2.837401e+02  4.974000e+02 -2.594229e+02
     vertex -2.832920e+02  4.974000e+02 -2.585690e+02
   endloop
 endfacet
 facet normal  3.573137e-13 -1.000000e+00  1.185431e-15
   outer loop
     vertex -2.832947e+02  4.974000e+02 -2.560680e+02
     vertex -2.826525e+02  4.974000e+02 -2.578472e+02
     vertex -2.818589e+02  4.974000e+02 -2.572994e+02
   endloop
 endfacet
 facet normal  3.631263e-13 -1.000000e+00  7.963141e-15
   outer loop
     vertex -2.832947e+02  4.974000e+02 -2.560680e+02
     vertex -2.818589e+02  4.974000e+02 -2.572994e+02
     vertex -2.820567e+02  4.974000e+02 -2.554182e+02
   endloop
 endfacet
 facet normal  3.417071e-13 -1.000000e+00  1.113058e-14
   outer loop
     vertex -2.843413e+02  4.974000e+02 -2.569952e+02
     vertex -2.851356e+02  4.974000e+02 -2.581459e+02
     vertex -2.832920e+02  4.974000e+02 -2.585690e+02
   endloop
 endfacet
 facet normal  3.424515e-13 -1.000000e+00  1.162688e-14
   outer loop
     vertex -2.843413e+02  4.974000e+02 -2.569952e+02
     vertex -2.832920e+02  4.974000e+02 -2.585690e+02
     vertex -2.826525e+02  4.974000e+02 -2.578472e+02
   endloop
 endfacet
 facet normal  3.327018e-13 -1.000000e+00 -7.698832e-15
   outer loop
     vertex -2.843413e+02  4.974000e+02 -2.569952e+02
     vertex -2.826525e+02  4.974000e+02 -2.578472e+02
     vertex -2.832947e+02  4.974000e+02 -2.560680e+02
   endloop
 endfacet
 facet normal  4.990806e-01  8.644338e-01  6.060341e-02
   outer loop
     vertex -2.724944e+02  5.032153e+02 -2.608412e+02
     vertex -2.741999e+02  5.042000e+02 -2.608413e+02
     vertex -2.743685e+02  5.042000e+02 -2.594532e+02
   endloop
 endfacet
 facet normal  4.500602e-01  8.765335e-01  1.706894e-01
   outer loop
     vertex -2.737856e+02  5.037355e+02 -2.586049e+02
     vertex -2.743685e+02  5.042000e+02 -2.594532e+02
     vertex -2.748643e+02  5.042000e+02 -2.581459e+02
   endloop
 endfacet
 facet normal  5.221945e-01  8.463855e-01  1.046159e-01
   outer loop
     vertex -2.737856e+02  5.037355e+02 -2.586049e+02
     vertex -2.724944e+02  5.032153e+02 -2.608412e+02
     vertex -2.743685e+02  5.042000e+02 -2.594532e+02
   endloop
 endfacet
 facet normal  4.073615e-01  8.689022e-01  2.811861e-01
   outer loop
     vertex -2.749560e+02  5.037355e+02 -2.565776e+02
     vertex -2.748643e+02  5.042000e+02 -2.581459e+02
     vertex -2.756586e+02  5.042000e+02 -2.569952e+02
   endloop
 endfacet
 facet normal  4.766102e-01  8.349377e-01  2.751761e-01
   outer loop
     vertex -2.749560e+02  5.037355e+02 -2.565776e+02
     vertex -2.737856e+02  5.037355e+02 -2.586049e+02
     vertex -2.748643e+02  5.042000e+02 -2.581459e+02
   endloop
 endfacet
 facet normal  3.397980e-01  8.587316e-01  3.835589e-01
   outer loop
     vertex -2.767052e+02  5.042000e+02 -2.560680e+02
     vertex -2.749560e+02  5.037355e+02 -2.565776e+02
     vertex -2.756586e+02  5.042000e+02 -2.569952e+02
   endloop
 endfacet
 facet normal  2.287077e-01  8.705133e-01  4.357746e-01
   outer loop
     vertex -2.762472e+02  5.032153e+02 -2.543413e+02
     vertex -2.767052e+02  5.042000e+02 -2.560680e+02
     vertex -2.779433e+02  5.042000e+02 -2.554182e+02
   endloop
 endfacet
 facet normal  3.416485e-01  8.525295e-01  3.955625e-01
   outer loop
     vertex -2.762472e+02  5.032153e+02 -2.543413e+02
     vertex -2.749560e+02  5.037355e+02 -2.565776e+02
     vertex -2.767052e+02  5.042000e+02 -2.560680e+02
   endloop
 endfacet
 facet normal  1.164934e-01  8.735175e-01  4.726484e-01
   outer loop
     vertex -2.788295e+02  5.037355e+02 -2.543413e+02
     vertex -2.779433e+02  5.042000e+02 -2.554182e+02
     vertex -2.793009e+02  5.042000e+02 -2.550836e+02
   endloop
 endfacet
 facet normal  1.704242e-01  8.460233e-01  5.051733e-01
   outer loop
     vertex -2.788295e+02  5.037355e+02 -2.543413e+02
     vertex -2.762472e+02  5.032153e+02 -2.543413e+02
     vertex -2.779433e+02  5.042000e+02 -2.554182e+02
   endloop
 endfacet
 facet normal -4.243485e-06  8.477050e-01  5.304680e-01
   outer loop
     vertex -2.811704e+02  5.037355e+02 -2.543413e+02
     vertex -2.793009e+02  5.042000e+02 -2.550836e+02
     vertex -2.806991e+02  5.042000e+02 -2.550836e+02
   endloop
 endfacet
 facet normal -4.243485e-06  8.477050e-01  5.304680e-01
   outer loop
     vertex -2.811704e+02  5.037355e+02 -2.543413e+02
     vertex -2.788295e+02  5.037355e+02 -2.543413e+02
     vertex -2.793009e+02  5.042000e+02 -2.550836e+02
   endloop
 endfacet
 facet normal -1.165009e-01  8.735175e-01  4.726465e-01
   outer loop
     vertex -2.820567e+02  5.042000e+02 -2.554182e+02
     vertex -2.811704e+02  5.037355e+02 -2.543413e+02
     vertex -2.806991e+02  5.042000e+02 -2.550836e+02
   endloop
 endfacet
 facet normal -2.287147e-01  8.705133e-01  4.357709e-01
   outer loop
     vertex -2.837528e+02  5.032153e+02 -2.543413e+02
     vertex -2.820567e+02  5.042000e+02 -2.554182e+02
     vertex -2.832947e+02  5.042000e+02 -2.560680e+02
   endloop
 endfacet
 facet normal -1.704323e-01  8.460233e-01  5.051706e-01
   outer loop
     vertex -2.837528e+02  5.032153e+02 -2.543413e+02
     vertex -2.811704e+02  5.037355e+02 -2.543413e+02
     vertex -2.820567e+02  5.042000e+02 -2.554182e+02
   endloop
 endfacet
 facet normal -3.398042e-01  8.587316e-01  3.835534e-01
   outer loop
     vertex -2.850439e+02  5.037355e+02 -2.565777e+02
     vertex -2.832947e+02  5.042000e+02 -2.560680e+02
     vertex -2.843413e+02  5.042000e+02 -2.569952e+02
   endloop
 endfacet
 facet normal -3.416549e-01  8.525295e-01  3.955570e-01
   outer loop
     vertex -2.850439e+02  5.037355e+02 -2.565777e+02
     vertex -2.837528e+02  5.032153e+02 -2.543413e+02
     vertex -2.832947e+02  5.042000e+02 -2.560680e+02
   endloop
 endfacet
 facet normal -4.073660e-01  8.689022e-01  2.811796e-01
   outer loop
     vertex -2.851356e+02  5.042000e+02 -2.581459e+02
     vertex -2.850439e+02  5.037355e+02 -2.565777e+02
     vertex -2.843413e+02  5.042000e+02 -2.569952e+02
   endloop
 endfacet
 facet normal -4.500630e-01  8.765335e-01  1.706822e-01
   outer loop
     vertex -2.862143e+02  5.037355e+02 -2.586050e+02
     vertex -2.851356e+02  5.042000e+02 -2.581459e+02
     vertex -2.856314e+02  5.042000e+02 -2.594533e+02
   endloop
 endfacet
 facet normal -4.766146e-01  8.349377e-01  2.751685e-01
   outer loop
     vertex -2.862143e+02  5.037355e+02 -2.586050e+02
     vertex -2.850439e+02  5.037355e+02 -2.565777e+02
     vertex -2.851356e+02  5.042000e+02 -2.581459e+02
   endloop
 endfacet
 facet normal -4.990806e-01  8.644338e-01 -6.060341e-02
   outer loop
     vertex -2.875055e+02  5.032153e+02 -2.608414e+02
     vertex -2.857999e+02  5.042000e+02 -2.608413e+02
     vertex -2.856314e+02  5.042000e+02 -2.622294e+02
   endloop
 endfacet
 facet normal -4.990816e-01  8.644338e-01  6.059542e-02
   outer loop
     vertex -2.875055e+02  5.032153e+02 -2.608414e+02
     vertex -2.856314e+02  5.042000e+02 -2.594533e+02
     vertex -2.857999e+02  5.042000e+02 -2.608413e+02
   endloop
 endfacet
 facet normal -5.221962e-01  8.463855e-01  1.046076e-01
   outer loop
     vertex -2.875055e+02  5.032153e+02 -2.608414e+02
     vertex -2.862143e+02  5.037355e+02 -2.586050e+02
     vertex -2.856314e+02  5.042000e+02 -2.594533e+02
   endloop
 endfacet
 facet normal -4.500602e-01  8.765335e-01 -1.706894e-01
   outer loop
     vertex -2.862143e+02  5.037355e+02 -2.630777e+02
     vertex -2.856314e+02  5.042000e+02 -2.622294e+02
     vertex -2.851356e+02  5.042000e+02 -2.635367e+02
   endloop
 endfacet
 facet normal -5.221945e-01  8.463855e-01 -1.046159e-01
   outer loop
     vertex -2.862143e+02  5.037355e+02 -2.630777e+02
     vertex -2.875055e+02  5.032153e+02 -2.608414e+02
     vertex -2.856314e+02  5.042000e+02 -2.622294e+02
   endloop
 endfacet
 facet normal -4.766102e-01  8.349377e-01 -2.751761e-01
   outer loop
     vertex -2.850438e+02  5.037355e+02 -2.651050e+02
     vertex -2.862143e+02  5.037355e+02 -2.630777e+02
     vertex -2.851356e+02  5.042000e+02 -2.635367e+02
   endloop
 endfacet
 facet normal -4.073615e-01  8.689022e-01 -2.811861e-01
   outer loop
     vertex -2.850438e+02  5.037355e+02 -2.651050e+02
     vertex -2.851356e+02  5.042000e+02 -2.635367e+02
     vertex -2.843413e+02  5.042000e+02 -2.646874e+02
   endloop
 endfacet
 facet normal -3.397980e-01  8.587316e-01 -3.835589e-01
   outer loop
     vertex -2.832947e+02  5.042000e+02 -2.656146e+02
     vertex -2.850438e+02  5.037355e+02 -2.651050e+02
     vertex -2.843413e+02  5.042000e+02 -2.646874e+02
   endloop
 endfacet
 facet normal -3.416485e-01  8.525295e-01 -3.955625e-01
   outer loop
     vertex -2.837527e+02  5.032153e+02 -2.673413e+02
     vertex -2.850438e+02  5.037355e+02 -2.651050e+02
     vertex -2.832947e+02  5.042000e+02 -2.656146e+02
   endloop
 endfacet
 facet normal -2.287077e-01  8.705133e-01 -4.357746e-01
   outer loop
     vertex -2.837527e+02  5.032153e+02 -2.673413e+02
     vertex -2.832947e+02  5.042000e+02 -2.656146e+02
     vertex -2.820566e+02  5.042000e+02 -2.662644e+02
   endloop
 endfacet
 facet normal -1.704242e-01  8.460233e-01 -5.051733e-01
   outer loop
     vertex -2.811703e+02  5.037355e+02 -2.673413e+02
     vertex -2.837527e+02  5.032153e+02 -2.673413e+02
     vertex -2.820566e+02  5.042000e+02 -2.662644e+02
   endloop
 endfacet
 facet normal -1.164934e-01  8.735175e-01 -4.726484e-01
   outer loop
     vertex -2.811703e+02  5.037355e+02 -2.673413e+02
     vertex -2.820566e+02  5.042000e+02 -2.662644e+02
     vertex -2.806990e+02  5.042000e+02 -2.665990e+02
   endloop
 endfacet
 facet normal  4.243484e-06  8.477050e-01 -5.304680e-01
   outer loop
     vertex -2.788294e+02  5.037355e+02 -2.673413e+02
     vertex -2.811703e+02  5.037355e+02 -2.673413e+02
     vertex -2.806990e+02  5.042000e+02 -2.665990e+02
   endloop
 endfacet
 facet normal  4.243484e-06  8.477050e-01 -5.304680e-01
   outer loop
     vertex -2.788294e+02  5.037355e+02 -2.673413e+02
     vertex -2.806990e+02  5.042000e+02 -2.665990e+02
     vertex -2.793008e+02  5.042000e+02 -2.665990e+02
   endloop
 endfacet
 facet normal  1.165009e-01  8.735175e-01 -4.726465e-01
   outer loop
     vertex -2.779432e+02  5.042000e+02 -2.662644e+02
     vertex -2.788294e+02  5.037355e+02 -2.673413e+02
     vertex -2.793008e+02  5.042000e+02 -2.665990e+02
   endloop
 endfacet
 facet normal  1.704323e-01  8.460233e-01 -5.051706e-01
   outer loop
     vertex -2.762471e+02  5.032153e+02 -2.673413e+02
     vertex -2.788294e+02  5.037355e+02 -2.673413e+02
     vertex -2.779432e+02  5.042000e+02 -2.662644e+02
   endloop
 endfacet
 facet normal  2.287147e-01  8.705133e-01 -4.357709e-01
   outer loop
     vertex -2.762471e+02  5.032153e+02 -2.673413e+02
     vertex -2.779432e+02  5.042000e+02 -2.662644e+02
     vertex -2.767051e+02  5.042000e+02 -2.656146e+02
   endloop
 endfacet
 facet normal  3.398042e-01  8.587316e-01 -3.835534e-01
   outer loop
     vertex -2.749560e+02  5.037355e+02 -2.651049e+02
     vertex -2.767051e+02  5.042000e+02 -2.656146e+02
     vertex -2.756585e+02  5.042000e+02 -2.646874e+02
   endloop
 endfacet
 facet normal  3.416549e-01  8.525295e-01 -3.955570e-01
   outer loop
     vertex -2.749560e+02  5.037355e+02 -2.651049e+02
     vertex -2.762471e+02  5.032153e+02 -2.673413e+02
     vertex -2.767051e+02  5.042000e+02 -2.656146e+02
   endloop
 endfacet
 facet normal  4.073660e-01  8.689022e-01 -2.811796e-01
   outer loop
     vertex -2.748643e+02  5.042000e+02 -2.635367e+02
     vertex -2.749560e+02  5.037355e+02 -2.651049e+02
     vertex -2.756585e+02  5.042000e+02 -2.646874e+02
   endloop
 endfacet
 facet normal  4.500630e-01  8.765335e-01 -1.706822e-01
   outer loop
     vertex -2.737855e+02  5.037355e+02 -2.630776e+02
     vertex -2.748643e+02  5.042000e+02 -2.635367e+02
     vertex -2.743685e+02  5.042000e+02 -2.622293e+02
   endloop
 endfacet
 facet normal  4.766146e-01  8.349377e-01 -2.751685e-01
   outer loop
     vertex -2.737855e+02  5.037355e+02 -2.630776e+02
     vertex -2.749560e+02  5.037355e+02 -2.651049e+02
     vertex -2.748643e+02  5.042000e+02 -2.635367e+02
   endloop
 endfacet
 facet normal  4.990816e-01  8.644338e-01 -6.059542e-02
   outer loop
     vertex -2.724944e+02  5.032153e+02 -2.608412e+02
     vertex -2.743685e+02  5.042000e+02 -2.622293e+02
     vertex -2.741999e+02  5.042000e+02 -2.608413e+02
   endloop
 endfacet
 facet normal  5.221962e-01  8.463855e-01 -1.046076e-01
   outer loop
     vertex -2.724944e+02  5.032153e+02 -2.608412e+02
     vertex -2.737855e+02  5.037355e+02 -2.630776e+02
     vertex -2.743685e+02  5.042000e+02 -2.622293e+02
   endloop
 endfacet
 facet normal  4.990816e-01 -8.644338e-01 -6.059542e-02
   outer loop
     vertex -2.724944e+02  4.983847e+02 -2.608412e+02
     vertex -2.741999e+02  4.974000e+02 -2.608413e+02
     vertex -2.743685e+02  4.974000e+02 -2.622293e+02
   endloop
 endfacet
 facet normal  4.500630e-01 -8.765335e-01 -1.706822e-01
   outer loop
     vertex -2.737855e+02  4.978645e+02 -2.630776e+02
     vertex -2.743685e+02  4.974000e+02 -2.622293e+02
     vertex -2.748643e+02  4.974000e+02 -2.635367e+02
   endloop
 endfacet
 facet normal  5.221962e-01 -8.463855e-01 -1.046076e-01
   outer loop
     vertex -2.737855e+02  4.978645e+02 -2.630776e+02
     vertex -2.724944e+02  4.983847e+02 -2.608412e+02
     vertex -2.743685e+02  4.974000e+02 -2.622293e+02
   endloop
 endfacet
 facet normal  4.073660e-01 -8.689022e-01 -2.811796e-01
   outer loop
     vertex -2.749560e+02  4.978645e+02 -2.651049e+02
     vertex -2.748643e+02  4.974000e+02 -2.635367e+02
     vertex -2.756585e+02  4.974000e+02 -2.646874e+02
   endloop
 endfacet
 facet normal  4.766146e-01 -8.349377e-01 -2.751685e-01
   outer loop
     vertex -2.749560e+02  4.978645e+02 -2.651049e+02
     vertex -2.737855e+02  4.978645e+02 -2.630776e+02
     vertex -2.748643e+02  4.974000e+02 -2.635367e+02
   endloop
 endfacet
 facet normal  3.398042e-01 -8.587316e-01 -3.835534e-01
   outer loop
     vertex -2.767051e+02  4.974000e+02 -2.656146e+02
     vertex -2.749560e+02  4.978645e+02 -2.651049e+02
     vertex -2.756585e+02  4.974000e+02 -2.646874e+02
   endloop
 endfacet
 facet normal  2.287147e-01 -8.705133e-01 -4.357709e-01
   outer loop
     vertex -2.762471e+02  4.983847e+02 -2.673413e+02
     vertex -2.767051e+02  4.974000e+02 -2.656146e+02
     vertex -2.779432e+02  4.974000e+02 -2.662644e+02
   endloop
 endfacet
 facet normal  3.416549e-01 -8.525295e-01 -3.955570e-01
   outer loop
     vertex -2.762471e+02  4.983847e+02 -2.673413e+02
     vertex -2.749560e+02  4.978645e+02 -2.651049e+02
     vertex -2.767051e+02  4.974000e+02 -2.656146e+02
   endloop
 endfacet
 facet normal  1.165009e-01 -8.735175e-01 -4.726465e-01
   outer loop
     vertex -2.788294e+02  4.978645e+02 -2.673413e+02
     vertex -2.779432e+02  4.974000e+02 -2.662644e+02
     vertex -2.793008e+02  4.974000e+02 -2.665990e+02
   endloop
 endfacet
 facet normal  1.704323e-01 -8.460233e-01 -5.051706e-01
   outer loop
     vertex -2.788294e+02  4.978645e+02 -2.673413e+02
     vertex -2.762471e+02  4.983847e+02 -2.673413e+02
     vertex -2.779432e+02  4.974000e+02 -2.662644e+02
   endloop
 endfacet
 facet normal  4.243485e-06 -8.477050e-01 -5.304680e-01
   outer loop
     vertex -2.811703e+02  4.978645e+02 -2.673413e+02
     vertex -2.793008e+02  4.974000e+02 -2.665990e+02
     vertex -2.806990e+02  4.974000e+02 -2.665990e+02
   endloop
 endfacet
 facet normal  4.243485e-06 -8.477050e-01 -5.304680e-01
   outer loop
     vertex -2.811703e+02  4.978645e+02 -2.673413e+02
     vertex -2.788294e+02  4.978645e+02 -2.673413e+02
     vertex -2.793008e+02  4.974000e+02 -2.665990e+02
   endloop
 endfacet
 facet normal -1.164934e-01 -8.735175e-01 -4.726484e-01
   outer loop
     vertex -2.820566e+02  4.974000e+02 -2.662644e+02
     vertex -2.811703e+02  4.978645e+02 -2.673413e+02
     vertex -2.806990e+02  4.974000e+02 -2.665990e+02
   endloop
 endfacet
 facet normal -2.287077e-01 -8.705133e-01 -4.357746e-01
   outer loop
     vertex -2.837527e+02  4.983847e+02 -2.673413e+02
     vertex -2.820566e+02  4.974000e+02 -2.662644e+02
     vertex -2.832947e+02  4.974000e+02 -2.656146e+02
   endloop
 endfacet
 facet normal -1.704242e-01 -8.460233e-01 -5.051733e-01
   outer loop
     vertex -2.837527e+02  4.983847e+02 -2.673413e+02
     vertex -2.811703e+02  4.978645e+02 -2.673413e+02
     vertex -2.820566e+02  4.974000e+02 -2.662644e+02
   endloop
 endfacet
 facet normal -3.397980e-01 -8.587316e-01 -3.835589e-01
   outer loop
     vertex -2.850438e+02  4.978645e+02 -2.651050e+02
     vertex -2.832947e+02  4.974000e+02 -2.656146e+02
     vertex -2.843413e+02  4.974000e+02 -2.646874e+02
   endloop
 endfacet
 facet normal -3.416485e-01 -8.525295e-01 -3.955625e-01
   outer loop
     vertex -2.850438e+02  4.978645e+02 -2.651050e+02
     vertex -2.837527e+02  4.983847e+02 -2.673413e+02
     vertex -2.832947e+02  4.974000e+02 -2.656146e+02
   endloop
 endfacet
 facet normal -4.073615e-01 -8.689022e-01 -2.811861e-01
   outer loop
     vertex -2.851356e+02  4.974000e+02 -2.635367e+02
     vertex -2.850438e+02  4.978645e+02 -2.651050e+02
     vertex -2.843413e+02  4.974000e+02 -2.646874e+02
   endloop
 endfacet
 facet normal -4.500602e-01 -8.765335e-01 -1.706894e-01
   outer loop
     vertex -2.862143e+02  4.978645e+02 -2.630777e+02
     vertex -2.851356e+02  4.974000e+02 -2.635367e+02
     vertex -2.856314e+02  4.974000e+02 -2.622294e+02
   endloop
 endfacet
 facet normal -4.766102e-01 -8.349377e-01 -2.751761e-01
   outer loop
     vertex -2.862143e+02  4.978645e+02 -2.630777e+02
     vertex -2.850438e+02  4.978645e+02 -2.651050e+02
     vertex -2.851356e+02  4.974000e+02 -2.635367e+02
   endloop
 endfacet
 facet normal -4.990816e-01 -8.644338e-01  6.059542e-02
   outer loop
     vertex -2.875055e+02  4.983847e+02 -2.608414e+02
     vertex -2.857999e+02  4.974000e+02 -2.608413e+02
     vertex -2.856314e+02  4.974000e+02 -2.594533e+02
   endloop
 endfacet
 facet normal -4.990806e-01 -8.644338e-01 -6.060341e-02
   outer loop
     vertex -2.875055e+02  4.983847e+02 -2.608414e+02
     vertex -2.856314e+02  4.974000e+02 -2.622294e+02
     vertex -2.857999e+02  4.974000e+02 -2.608413e+02
   endloop
 endfacet
 facet normal -5.221945e-01 -8.463855e-01 -1.046159e-01
   outer loop
     vertex -2.875055e+02  4.983847e+02 -2.608414e+02
     vertex -2.862143e+02  4.978645e+02 -2.630777e+02
     vertex -2.856314e+02  4.974000e+02 -2.622294e+02
   endloop
 endfacet
 facet normal -4.500630e-01 -8.765335e-01  1.706822e-01
   outer loop
     vertex -2.862143e+02  4.978645e+02 -2.586050e+02
     vertex -2.856314e+02  4.974000e+02 -2.594533e+02
     vertex -2.851356e+02  4.974000e+02 -2.581459e+02
   endloop
 endfacet
 facet normal -5.221962e-01 -8.463855e-01  1.046076e-01
   outer loop
     vertex -2.862143e+02  4.978645e+02 -2.586050e+02
     vertex -2.875055e+02  4.983847e+02 -2.608414e+02
     vertex -2.856314e+02  4.974000e+02 -2.594533e+02
   endloop
 endfacet
 facet normal -4.766146e-01 -8.349377e-01  2.751685e-01
   outer loop
     vertex -2.850439e+02  4.978645e+02 -2.565777e+02
     vertex -2.862143e+02  4.978645e+02 -2.586050e+02
     vertex -2.851356e+02  4.974000e+02 -2.581459e+02
   endloop
 endfacet
 facet normal -4.073660e-01 -8.689022e-01  2.811796e-01
   outer loop
     vertex -2.850439e+02  4.978645e+02 -2.565777e+02
     vertex -2.851356e+02  4.974000e+02 -2.581459e+02
     vertex -2.843413e+02  4.974000e+02 -2.569952e+02
   endloop
 endfacet
 facet normal -3.398042e-01 -8.587316e-01  3.835534e-01
   outer loop
     vertex -2.832947e+02  4.974000e+02 -2.560680e+02
     vertex -2.850439e+02  4.978645e+02 -2.565777e+02
     vertex -2.843413e+02  4.974000e+02 -2.569952e+02
   endloop
 endfacet
 facet normal -3.416549e-01 -8.525295e-01  3.955570e-01
   outer loop
     vertex -2.837528e+02  4.983847e+02 -2.543413e+02
     vertex -2.850439e+02  4.978645e+02 -2.565777e+02
     vertex -2.832947e+02  4.974000e+02 -2.560680e+02
   endloop
 endfacet
 facet normal -2.287147e-01 -8.705133e-01  4.357709e-01
   outer loop
     vertex -2.837528e+02  4.983847e+02 -2.543413e+02
     vertex -2.832947e+02  4.974000e+02 -2.560680e+02
     vertex -2.820567e+02  4.974000e+02 -2.554182e+02
   endloop
 endfacet
 facet normal -1.704323e-01 -8.460233e-01  5.051706e-01
   outer loop
     vertex -2.811704e+02  4.978645e+02 -2.543413e+02
     vertex -2.837528e+02  4.983847e+02 -2.543413e+02
     vertex -2.820567e+02  4.974000e+02 -2.554182e+02
   endloop
 endfacet
 facet normal -1.165009e-01 -8.735175e-01  4.726465e-01
   outer loop
     vertex -2.811704e+02  4.978645e+02 -2.543413e+02
     vertex -2.820567e+02  4.974000e+02 -2.554182e+02
     vertex -2.806991e+02  4.974000e+02 -2.550836e+02
   endloop
 endfacet
 facet normal -4.243484e-06 -8.477050e-01  5.304680e-01
   outer loop
     vertex -2.788295e+02  4.978645e+02 -2.543413e+02
     vertex -2.811704e+02  4.978645e+02 -2.543413e+02
     vertex -2.806991e+02  4.974000e+02 -2.550836e+02
   endloop
 endfacet
 facet normal -4.243484e-06 -8.477050e-01  5.304680e-01
   outer loop
     vertex -2.788295e+02  4.978645e+02 -2.543413e+02
     vertex -2.806991e+02  4.974000e+02 -2.550836e+02
     vertex -2.793009e+02  4.974000e+02 -2.550836e+02
   endloop
 endfacet
 facet normal  1.164934e-01 -8.735175e-01  4.726484e-01
   outer loop
     vertex -2.779433e+02  4.974000e+02 -2.554182e+02
     vertex -2.788295e+02  4.978645e+02 -2.543413e+02
     vertex -2.793009e+02  4.974000e+02 -2.550836e+02
   endloop
 endfacet
 facet normal  1.704242e-01 -8.460233e-01  5.051733e-01
   outer loop
     vertex -2.762472e+02  4.983847e+02 -2.543413e+02
     vertex -2.788295e+02  4.978645e+02 -2.543413e+02
     vertex -2.779433e+02  4.974000e+02 -2.554182e+02
   endloop
 endfacet
 facet normal  2.287077e-01 -8.705133e-01  4.357746e-01
   outer loop
     vertex -2.762472e+02  4.983847e+02 -2.543413e+02
     vertex -2.779433e+02  4.974000e+02 -2.554182e+02
     vertex -2.767052e+02  4.974000e+02 -2.560680e+02
   endloop
 endfacet
 facet normal  3.397980e-01 -8.587316e-01  3.835589e-01
   outer loop
     vertex -2.749560e+02  4.978645e+02 -2.565776e+02
     vertex -2.767052e+02  4.974000e+02 -2.560680e+02
     vertex -2.756586e+02  4.974000e+02 -2.569952e+02
   endloop
 endfacet
 facet normal  3.416485e-01 -8.525295e-01  3.955625e-01
   outer loop
     vertex -2.749560e+02  4.978645e+02 -2.565776e+02
     vertex -2.762472e+02  4.983847e+02 -2.543413e+02
     vertex -2.767052e+02  4.974000e+02 -2.560680e+02
   endloop
 endfacet
 facet normal  4.073615e-01 -8.689022e-01  2.811861e-01
   outer loop
     vertex -2.748643e+02  4.974000e+02 -2.581459e+02
     vertex -2.749560e+02  4.978645e+02 -2.565776e+02
     vertex -2.756586e+02  4.974000e+02 -2.569952e+02
   endloop
 endfacet
 facet normal  4.500602e-01 -8.765335e-01  1.706894e-01
   outer loop
     vertex -2.737856e+02  4.978645e+02 -2.586049e+02
     vertex -2.748643e+02  4.974000e+02 -2.581459e+02
     vertex -2.743685e+02  4.974000e+02 -2.594532e+02
   endloop
 endfacet
 facet normal  4.766102e-01 -8.349377e-01  2.751761e-01
   outer loop
     vertex -2.737856e+02  4.978645e+02 -2.586049e+02
     vertex -2.749560e+02  4.978645e+02 -2.565776e+02
     vertex -2.748643e+02  4.974000e+02 -2.581459e+02
   endloop
 endfacet
 facet normal  4.990806e-01 -8.644338e-01  6.060341e-02
   outer loop
     vertex -2.724944e+02  4.983847e+02 -2.608412e+02
     vertex -2.743685e+02  4.974000e+02 -2.594532e+02
     vertex -2.741999e+02  4.974000e+02 -2.608413e+02
   endloop
 endfacet
 facet normal  5.221945e-01 -8.463855e-01  1.046159e-01
   outer loop
     vertex -2.724944e+02  4.983847e+02 -2.608412e+02
     vertex -2.737856e+02  4.978645e+02 -2.586049e+02
     vertex -2.743685e+02  4.974000e+02 -2.594532e+02
   endloop
 endfacet
 facet normal -8.660294e-01 -3.089465e-13  4.999931e-01
   outer loop
     vertex -2.850439e+02  4.978645e+02 -2.565777e+02
     vertex -2.837528e+02  5.032153e+02 -2.543413e+02
     vertex -2.850439e+02  5.037355e+02 -2.565777e+02
   endloop
 endfacet
 facet normal -8.660294e-01 -3.159269e-13  4.999931e-01
   outer loop
     vertex -2.850439e+02  4.978645e+02 -2.565777e+02
     vertex -2.837528e+02  4.983847e+02 -2.543413e+02
     vertex -2.837528e+02  5.032153e+02 -2.543413e+02
   endloop
 endfacet
 facet normal -8.660294e-01 -3.186285e-13  4.999931e-01
   outer loop
     vertex -2.862143e+02  4.978645e+02 -2.586050e+02
     vertex -2.850439e+02  5.037355e+02 -2.565777e+02
     vertex -2.862143e+02  5.037355e+02 -2.586050e+02
   endloop
 endfacet
 facet normal -8.660294e-01 -3.186285e-13  4.999931e-01
   outer loop
     vertex -2.862143e+02  4.978645e+02 -2.586050e+02
     vertex -2.862143e+02  5.037355e+02 -2.586050e+02
     vertex -2.875055e+02  5.032153e+02 -2.608414e+02
   endloop
 endfacet
 facet normal -8.660294e-01 -3.089340e-13  4.999931e-01
   outer loop
     vertex -2.862143e+02  4.978645e+02 -2.586050e+02
     vertex -2.850439e+02  4.978645e+02 -2.565777e+02
     vertex -2.850439e+02  5.037355e+02 -2.565777e+02
   endloop
 endfacet
 facet normal -8.660294e-01 -3.159176e-13  4.999931e-01
   outer loop
     vertex -2.875055e+02  4.983847e+02 -2.608414e+02
     vertex -2.862143e+02  4.978645e+02 -2.586050e+02
     vertex -2.875055e+02  5.032153e+02 -2.608414e+02
   endloop
 endfacet
 facet normal -7.999510e-06  1.176445e-14  1.000000e+00
   outer loop
     vertex -2.762472e+02  5.032153e+02 -2.543413e+02
     vertex -2.788295e+02  4.978645e+02 -2.543413e+02
     vertex -2.762472e+02  4.983847e+02 -2.543413e+02
   endloop
 endfacet
 facet normal -7.999510e-06  1.452024e-14  1.000000e+00
   outer loop
     vertex -2.788295e+02  5.037355e+02 -2.543413e+02
     vertex -2.788295e+02  4.978645e+02 -2.543413e+02
     vertex -2.762472e+02  5.032153e+02 -2.543413e+02
   endloop
 endfacet
 facet normal -7.999510e-06  1.452024e-14  1.000000e+00
   outer loop
     vertex -2.811704e+02  5.037355e+02 -2.543413e+02
     vertex -2.837528e+02  4.983847e+02 -2.543413e+02
     vertex -2.811704e+02  4.978645e+02 -2.543413e+02
   endloop
 endfacet
 facet normal -7.999510e-06  1.452024e-14  1.000000e+00
   outer loop
     vertex -2.811704e+02  5.037355e+02 -2.543413e+02
     vertex -2.811704e+02  4.978645e+02 -2.543413e+02
     vertex -2.788295e+02  4.978645e+02 -2.543413e+02
   endloop
 endfacet
 facet normal -7.999510e-06  1.452024e-14  1.000000e+00
   outer loop
     vertex -2.811704e+02  5.037355e+02 -2.543413e+02
     vertex -2.788295e+02  4.978645e+02 -2.543413e+02
     vertex -2.788295e+02  5.037355e+02 -2.543413e+02
   endloop
 endfacet
 facet normal -7.999510e-06 -2.918129e-18  1.000000e+00
   outer loop
     vertex -2.837528e+02  5.032153e+02 -2.543413e+02
     vertex -2.837528e+02  4.983847e+02 -2.543413e+02
     vertex -2.811704e+02  5.037355e+02 -2.543413e+02
   endloop
 endfacet
 facet normal -8.660214e-01 -3.150818e-13 -5.000069e-01
   outer loop
     vertex -2.850438e+02  4.978645e+02 -2.651050e+02
     vertex -2.850438e+02  5.037355e+02 -2.651050e+02
     vertex -2.837527e+02  5.032153e+02 -2.673413e+02
   endloop
 endfacet
 facet normal -8.660214e-01 -3.158977e-13 -5.000069e-01
   outer loop
     vertex -2.850438e+02  4.978645e+02 -2.651050e+02
     vertex -2.837527e+02  5.032153e+02 -2.673413e+02
     vertex -2.837527e+02  4.983847e+02 -2.673413e+02
   endloop
 endfacet
 facet normal -8.660214e-01 -3.234666e-13 -5.000069e-01
   outer loop
     vertex -2.862143e+02  4.978645e+02 -2.630777e+02
     vertex -2.875055e+02  5.032153e+02 -2.608414e+02
     vertex -2.862143e+02  5.037355e+02 -2.630777e+02
   endloop
 endfacet
 facet normal -8.660214e-01 -3.234666e-13 -5.000069e-01
   outer loop
     vertex -2.862143e+02  4.978645e+02 -2.630777e+02
     vertex -2.862143e+02  5.037355e+02 -2.630777e+02
     vertex -2.850438e+02  5.037355e+02 -2.651050e+02
   endloop
 endfacet
 facet normal -8.660214e-01 -3.150899e-13 -5.000069e-01
   outer loop
     vertex -2.862143e+02  4.978645e+02 -2.630777e+02
     vertex -2.850438e+02  5.037355e+02 -2.651050e+02
     vertex -2.850438e+02  4.978645e+02 -2.651050e+02
   endloop
 endfacet
 facet normal -8.660214e-01 -3.159146e-13 -5.000069e-01
   outer loop
     vertex -2.875055e+02  4.983847e+02 -2.608414e+02
     vertex -2.875055e+02  5.032153e+02 -2.608414e+02
     vertex -2.862143e+02  4.978645e+02 -2.630777e+02
   endloop
 endfacet
 facet normal  7.999510e-06 -9.679130e-15 -1.000000e+00
   outer loop
     vertex -2.788294e+02  4.978645e+02 -2.673413e+02
     vertex -2.788294e+02  5.037355e+02 -2.673413e+02
     vertex -2.762471e+02  5.032153e+02 -2.673413e+02
   endloop
 endfacet
 facet normal  7.999510e-06 -1.176445e-14 -1.000000e+00
   outer loop
     vertex -2.788294e+02  4.978645e+02 -2.673413e+02
     vertex -2.762471e+02  5.032153e+02 -2.673413e+02
     vertex -2.762471e+02  4.983847e+02 -2.673413e+02
   endloop
 endfacet
 facet normal  7.999510e-06  2.943170e-18 -1.000000e+00
   outer loop
     vertex -2.811703e+02  4.978645e+02 -2.673413e+02
     vertex -2.811703e+02  5.037355e+02 -2.673413e+02
     vertex -2.788294e+02  5.037355e+02 -2.673413e+02
   endloop
 endfacet
 facet normal  7.999510e-06 -9.679130e-15 -1.000000e+00
   outer loop
     vertex -2.811703e+02  4.978645e+02 -2.673413e+02
     vertex -2.788294e+02  5.037355e+02 -2.673413e+02
     vertex -2.788294e+02  4.978645e+02 -2.673413e+02
   endloop
 endfacet
 facet normal  7.999510e-06  2.918129e-18 -1.000000e+00
   outer loop
     vertex -2.837527e+02  4.983847e+02 -2.673413e+02
     vertex -2.837527e+02  5.032153e+02 -2.673413e+02
     vertex -2.811703e+02  5.037355e+02 -2.673413e+02
   endloop
 endfacet
 facet normal  7.999510e-06  2.943032e-18 -1.000000e+00
   outer loop
     vertex -2.837527e+02  4.983847e+02 -2.673413e+02
     vertex -2.811703e+02  5.037355e+02 -2.673413e+02
     vertex -2.811703e+02  4.978645e+02 -2.673413e+02
   endloop
 endfacet
 facet normal  8.660214e-01  3.116076e-13  5.000069e-01
   outer loop
     vertex -2.724944e+02  5.032153e+02 -2.608412e+02
     vertex -2.737856e+02  4.978645e+02 -2.586049e+02
     vertex -2.724944e+02  4.983847e+02 -2.608412e+02
   endloop
 endfacet
 facet normal  8.660214e-01  3.102406e-13  5.000069e-01
   outer loop
     vertex -2.737856e+02  5.037355e+02 -2.586049e+02
     vertex -2.737856e+02  4.978645e+02 -2.586049e+02
     vertex -2.724944e+02  5.032153e+02 -2.608412e+02
   endloop
 endfacet
 facet normal  8.660214e-01  3.234666e-13  5.000069e-01
   outer loop
     vertex -2.749560e+02  5.037355e+02 -2.565776e+02
     vertex -2.749560e+02  4.978645e+02 -2.565776e+02
     vertex -2.737856e+02  4.978645e+02 -2.586049e+02
   endloop
 endfacet
 facet normal  8.660214e-01  3.102392e-13  5.000069e-01
   outer loop
     vertex -2.749560e+02  5.037355e+02 -2.565776e+02
     vertex -2.737856e+02  4.978645e+02 -2.586049e+02
     vertex -2.737856e+02  5.037355e+02 -2.586049e+02
   endloop
 endfacet
 facet normal  8.660214e-01  3.217984e-13  5.000069e-01
   outer loop
     vertex -2.762472e+02  5.032153e+02 -2.543413e+02
     vertex -2.762472e+02  4.983847e+02 -2.543413e+02
     vertex -2.749560e+02  4.978645e+02 -2.565776e+02
   endloop
 endfacet
 facet normal  8.660214e-01  3.234643e-13  5.000069e-01
   outer loop
     vertex -2.762472e+02  5.032153e+02 -2.543413e+02
     vertex -2.749560e+02  4.978645e+02 -2.565776e+02
     vertex -2.749560e+02  5.037355e+02 -2.565776e+02
   endloop
 endfacet
 facet normal  8.660294e-01  3.102435e-13 -4.999931e-01
   outer loop
     vertex -2.749560e+02  4.978645e+02 -2.651049e+02
     vertex -2.762471e+02  5.032153e+02 -2.673413e+02
     vertex -2.749560e+02  5.037355e+02 -2.651049e+02
   endloop
 endfacet
 facet normal  8.660294e-01  3.102435e-13 -4.999931e-01
   outer loop
     vertex -2.749560e+02  4.978645e+02 -2.651049e+02
     vertex -2.749560e+02  5.037355e+02 -2.651049e+02
     vertex -2.737855e+02  5.037355e+02 -2.630776e+02
   endloop
 endfacet
 facet normal  8.660294e-01  3.100491e-13 -4.999931e-01
   outer loop
     vertex -2.749560e+02  4.978645e+02 -2.651049e+02
     vertex -2.762471e+02  4.983847e+02 -2.673413e+02
     vertex -2.762471e+02  5.032153e+02 -2.673413e+02
   endloop
 endfacet
 facet normal  8.660294e-01  3.089465e-13 -4.999931e-01
   outer loop
     vertex -2.737855e+02  4.978645e+02 -2.630776e+02
     vertex -2.737855e+02  5.037355e+02 -2.630776e+02
     vertex -2.724944e+02  5.032153e+02 -2.608412e+02
   endloop
 endfacet
 facet normal  8.660294e-01  3.089465e-13 -4.999931e-01
   outer loop
     vertex -2.737855e+02  4.978645e+02 -2.630776e+02
     vertex -2.749560e+02  4.978645e+02 -2.651049e+02
     vertex -2.737855e+02  5.037355e+02 -2.630776e+02
   endloop
 endfacet
 facet normal  8.660294e-01  2.998431e-13 -4.999931e-01
   outer loop
     vertex -2.724944e+02  4.983847e+02 -2.608412e+02
     vertex -2.737855e+02  4.978645e+02 -2.630776e+02
     vertex -2.724944e+02  5.032153e+02 -2.608412e+02
   endloop
 endfacet
endsolid
