solid 
 facet normal -3.248195e-14  7.385541e-28  1.000000e+00
   outer loop
     vertex  3.132500e+02 -5.100000e+02 -2.727465e+02
     vertex  3.097500e+02 -5.050000e+02 -2.727465e+02
     vertex  3.097500e+02 -5.100000e+02 -2.727465e+02
   endloop
 endfacet
 facet normal -3.248195e-14  3.692771e-28  1.000000e+00
   outer loop
     vertex  3.132500e+02 -5.100000e+02 -2.727465e+02
     vertex  3.132500e+02 -5.050000e+02 -2.727465e+02
     vertex  3.097500e+02 -5.050000e+02 -2.727465e+02
   endloop
 endfacet
 facet normal  1.000000e+00 -1.136868e-14  3.120815e-14
   outer loop
     vertex  3.097500e+02 -5.050000e+02 -2.727465e+02
     vertex  3.097500e+02 -5.050000e+02 -2.472465e+02
     vertex  3.097500e+02 -5.100000e+02 -2.472465e+02
   endloop
 endfacet
 facet normal  1.000000e+00 -2.273737e-14  2.897900e-14
   outer loop
     vertex  3.097500e+02 -5.100000e+02 -2.727465e+02
     vertex  3.097500e+02 -5.050000e+02 -2.727465e+02
     vertex  3.097500e+02 -5.100000e+02 -2.472465e+02
   endloop
 endfacet
 facet normal  2.436147e-14 -2.769578e-28 -1.000000e+00
   outer loop
     vertex  3.097500e+02 -5.100000e+02 -2.472465e+02
     vertex  3.132500e+02 -5.050000e+02 -2.472465e+02
     vertex  3.132500e+02 -5.100000e+02 -2.472465e+02
   endloop
 endfacet
 facet normal  1.624098e-14  5.684342e-15 -1.000000e+00
   outer loop
     vertex  3.097500e+02 -5.100000e+02 -2.472465e+02
     vertex  3.097500e+02 -5.050000e+02 -2.472465e+02
     vertex  3.132500e+02 -5.050000e+02 -2.472465e+02
   endloop
 endfacet
 facet normal -1.000000e+00  1.136868e-14 -2.897900e-14
   outer loop
     vertex  3.132500e+02 -5.050000e+02 -2.472465e+02
     vertex  3.132500e+02 -5.050000e+02 -2.727465e+02
     vertex  3.132500e+02 -5.100000e+02 -2.727465e+02
   endloop
 endfacet
 facet normal -1.000000e+00  1.136868e-14 -2.897900e-14
   outer loop
     vertex  3.132500e+02 -5.100000e+02 -2.472465e+02
     vertex  3.132500e+02 -5.050000e+02 -2.472465e+02
     vertex  3.132500e+02 -5.100000e+02 -2.727465e+02
   endloop
 endfacet
 facet normal -3.248195e-14  3.692771e-28  1.000000e+00
   outer loop
     vertex  3.502500e+02 -5.100000e+02 -2.727465e+02
     vertex  3.467500e+02 -5.050000e+02 -2.727465e+02
     vertex  3.467500e+02 -5.100000e+02 -2.727465e+02
   endloop
 endfacet
 facet normal -3.248195e-14  7.385541e-28  1.000000e+00
   outer loop
     vertex  3.502500e+02 -5.100000e+02 -2.727465e+02
     vertex  3.502500e+02 -5.050000e+02 -2.727465e+02
     vertex  3.467500e+02 -5.050000e+02 -2.727465e+02
   endloop
 endfacet
 facet normal  1.000000e+00 -1.136868e-14  2.897900e-14
   outer loop
     vertex  3.467500e+02 -5.050000e+02 -2.727465e+02
     vertex  3.467500e+02 -5.050000e+02 -2.472465e+02
     vertex  3.467500e+02 -5.100000e+02 -2.472465e+02
   endloop
 endfacet
 facet normal  1.000000e+00 -1.136868e-14  2.897900e-14
   outer loop
     vertex  3.467500e+02 -5.100000e+02 -2.727465e+02
     vertex  3.467500e+02 -5.050000e+02 -2.727465e+02
     vertex  3.467500e+02 -5.100000e+02 -2.472465e+02
   endloop
 endfacet
 facet normal  3.248195e-14 -5.684342e-15 -1.000000e+00
   outer loop
     vertex  3.467500e+02 -5.100000e+02 -2.472465e+02
     vertex  3.502500e+02 -5.050000e+02 -2.472465e+02
     vertex  3.502500e+02 -5.100000e+02 -2.472465e+02
   endloop
 endfacet
 facet normal  2.436147e-14 -2.769578e-28 -1.000000e+00
   outer loop
     vertex  3.467500e+02 -5.100000e+02 -2.472465e+02
     vertex  3.467500e+02 -5.050000e+02 -2.472465e+02
     vertex  3.502500e+02 -5.050000e+02 -2.472465e+02
   endloop
 endfacet
 facet normal -1.000000e+00  2.273737e-14 -3.120815e-14
   outer loop
     vertex  3.502500e+02 -5.050000e+02 -2.472465e+02
     vertex  3.502500e+02 -5.050000e+02 -2.727465e+02
     vertex  3.502500e+02 -5.100000e+02 -2.727465e+02
   endloop
 endfacet
 facet normal -1.000000e+00  1.136868e-14 -2.897900e-14
   outer loop
     vertex  3.502500e+02 -5.100000e+02 -2.472465e+02
     vertex  3.502500e+02 -5.050000e+02 -2.472465e+02
     vertex  3.502500e+02 -5.100000e+02 -2.727465e+02
   endloop
 endfacet
 facet normal -9.927089e-01  1.128579e-14 -1.205367e-01
   outer loop
     vertex  2.844000e+02 -5.100000e+02 -2.524965e+02
     vertex  2.842721e+02 -5.050000e+02 -2.514436e+02
     vertex  2.844000e+02 -5.050000e+02 -2.524965e+02
   endloop
 endfacet
 facet normal -9.350162e-01  1.062990e-14 -3.546049e-01
   outer loop
     vertex  2.842721e+02 -5.100000e+02 -2.514436e+02
     vertex  2.838960e+02 -5.050000e+02 -2.504518e+02
     vertex  2.842721e+02 -5.050000e+02 -2.514436e+02
   endloop
 endfacet
 facet normal -9.927089e-01  1.128579e-14 -1.205367e-01
   outer loop
     vertex  2.842721e+02 -5.100000e+02 -2.514436e+02
     vertex  2.842721e+02 -5.050000e+02 -2.514436e+02
     vertex  2.844000e+02 -5.100000e+02 -2.524965e+02
   endloop
 endfacet
 facet normal -8.229839e-01  9.356243e-15 -5.680647e-01
   outer loop
     vertex  2.838960e+02 -5.100000e+02 -2.504518e+02
     vertex  2.832934e+02 -5.050000e+02 -2.495788e+02
     vertex  2.838960e+02 -5.050000e+02 -2.504518e+02
   endloop
 endfacet
 facet normal -9.350162e-01  1.062990e-14 -3.546049e-01
   outer loop
     vertex  2.838960e+02 -5.100000e+02 -2.504518e+02
     vertex  2.838960e+02 -5.050000e+02 -2.504518e+02
     vertex  2.842721e+02 -5.100000e+02 -2.514436e+02
   endloop
 endfacet
 facet normal -6.631227e-01  0.000000e+00 -7.485107e-01
   outer loop
     vertex  2.832934e+02 -5.100000e+02 -2.495788e+02
     vertex  2.824994e+02 -5.050000e+02 -2.488754e+02
     vertex  2.832934e+02 -5.050000e+02 -2.495788e+02
   endloop
 endfacet
 facet normal -8.229839e-01  0.000000e+00 -5.680647e-01
   outer loop
     vertex  2.832934e+02 -5.100000e+02 -2.495788e+02
     vertex  2.832934e+02 -5.050000e+02 -2.495788e+02
     vertex  2.838960e+02 -5.100000e+02 -2.504518e+02
   endloop
 endfacet
 facet normal -4.647232e-01  1.056658e-14 -8.854560e-01
   outer loop
     vertex  2.824994e+02 -5.100000e+02 -2.488754e+02
     vertex  2.815602e+02 -5.050000e+02 -2.483825e+02
     vertex  2.824994e+02 -5.050000e+02 -2.488754e+02
   endloop
 endfacet
 facet normal -6.631227e-01  1.507766e-14 -7.485107e-01
   outer loop
     vertex  2.824994e+02 -5.100000e+02 -2.488754e+02
     vertex  2.824994e+02 -5.050000e+02 -2.488754e+02
     vertex  2.832934e+02 -5.100000e+02 -2.495788e+02
   endloop
 endfacet
 facet normal -2.393157e-01  5.441408e-15 -9.709418e-01
   outer loop
     vertex  2.815602e+02 -5.100000e+02 -2.483825e+02
     vertex  2.805303e+02 -5.050000e+02 -2.481286e+02
     vertex  2.815602e+02 -5.050000e+02 -2.483825e+02
   endloop
 endfacet
 facet normal -4.647232e-01  1.056658e-14 -8.854560e-01
   outer loop
     vertex  2.815602e+02 -5.100000e+02 -2.483825e+02
     vertex  2.815602e+02 -5.050000e+02 -2.483825e+02
     vertex  2.824994e+02 -5.100000e+02 -2.488754e+02
   endloop
 endfacet
 facet normal  2.679466e-14 -6.092401e-28 -1.000000e+00
   outer loop
     vertex  2.805303e+02 -5.100000e+02 -2.481286e+02
     vertex  2.794696e+02 -5.050000e+02 -2.481286e+02
     vertex  2.805303e+02 -5.050000e+02 -2.481286e+02
   endloop
 endfacet
 facet normal -2.393157e-01  5.441408e-15 -9.709418e-01
   outer loop
     vertex  2.805303e+02 -5.100000e+02 -2.481286e+02
     vertex  2.805303e+02 -5.050000e+02 -2.481286e+02
     vertex  2.815602e+02 -5.100000e+02 -2.483825e+02
   endloop
 endfacet
 facet normal  2.393157e-01 -5.441408e-15 -9.709418e-01
   outer loop
     vertex  2.794696e+02 -5.100000e+02 -2.481286e+02
     vertex  2.784397e+02 -5.050000e+02 -2.483825e+02
     vertex  2.794696e+02 -5.050000e+02 -2.481286e+02
   endloop
 endfacet
 facet normal  2.679466e-14 -6.092401e-28 -1.000000e+00
   outer loop
     vertex  2.794696e+02 -5.100000e+02 -2.481286e+02
     vertex  2.794696e+02 -5.050000e+02 -2.481286e+02
     vertex  2.805303e+02 -5.100000e+02 -2.481286e+02
   endloop
 endfacet
 facet normal  4.647232e-01 -1.056658e-14 -8.854560e-01
   outer loop
     vertex  2.784397e+02 -5.100000e+02 -2.483825e+02
     vertex  2.775005e+02 -5.050000e+02 -2.488754e+02
     vertex  2.784397e+02 -5.050000e+02 -2.483825e+02
   endloop
 endfacet
 facet normal  2.393157e-01 -5.441408e-15 -9.709418e-01
   outer loop
     vertex  2.784397e+02 -5.100000e+02 -2.483825e+02
     vertex  2.784397e+02 -5.050000e+02 -2.483825e+02
     vertex  2.794696e+02 -5.100000e+02 -2.481286e+02
   endloop
 endfacet
 facet normal  6.631227e-01  0.000000e+00 -7.485107e-01
   outer loop
     vertex  2.775005e+02 -5.100000e+02 -2.488754e+02
     vertex  2.767065e+02 -5.050000e+02 -2.495788e+02
     vertex  2.775005e+02 -5.050000e+02 -2.488754e+02
   endloop
 endfacet
 facet normal  4.647232e-01  0.000000e+00 -8.854560e-01
   outer loop
     vertex  2.775005e+02 -5.100000e+02 -2.488754e+02
     vertex  2.775005e+02 -5.050000e+02 -2.488754e+02
     vertex  2.784397e+02 -5.100000e+02 -2.483825e+02
   endloop
 endfacet
 facet normal  8.229839e-01 -1.871249e-14 -5.680647e-01
   outer loop
     vertex  2.767065e+02 -5.100000e+02 -2.495788e+02
     vertex  2.761040e+02 -5.050000e+02 -2.504518e+02
     vertex  2.767065e+02 -5.050000e+02 -2.495788e+02
   endloop
 endfacet
 facet normal  6.631227e-01 -1.507766e-14 -7.485107e-01
   outer loop
     vertex  2.767065e+02 -5.100000e+02 -2.495788e+02
     vertex  2.767065e+02 -5.050000e+02 -2.495788e+02
     vertex  2.775005e+02 -5.100000e+02 -2.488754e+02
   endloop
 endfacet
 facet normal  9.350162e-01 -2.125981e-14 -3.546049e-01
   outer loop
     vertex  2.761040e+02 -5.100000e+02 -2.504518e+02
     vertex  2.757278e+02 -5.050000e+02 -2.514436e+02
     vertex  2.761040e+02 -5.050000e+02 -2.504518e+02
   endloop
 endfacet
 facet normal  8.229839e-01 -1.871249e-14 -5.680647e-01
   outer loop
     vertex  2.761040e+02 -5.100000e+02 -2.504518e+02
     vertex  2.761040e+02 -5.050000e+02 -2.504518e+02
     vertex  2.767065e+02 -5.100000e+02 -2.495788e+02
   endloop
 endfacet
 facet normal  9.350162e-01 -1.062990e-14 -3.546049e-01
   outer loop
     vertex  2.757278e+02 -5.100000e+02 -2.514436e+02
     vertex  2.757278e+02 -5.050000e+02 -2.514436e+02
     vertex  2.761040e+02 -5.100000e+02 -2.504518e+02
   endloop
 endfacet
 facet normal  9.927089e-01 -1.128579e-14 -1.205367e-01
   outer loop
     vertex  2.756000e+02 -5.100000e+02 -2.524965e+02
     vertex  2.756000e+02 -5.050000e+02 -2.524965e+02
     vertex  2.757278e+02 -5.050000e+02 -2.514436e+02
   endloop
 endfacet
 facet normal  9.927089e-01 -1.128687e-14 -1.205367e-01
   outer loop
     vertex  2.756000e+02 -5.100000e+02 -2.524965e+02
     vertex  2.757278e+02 -5.050000e+02 -2.514436e+02
     vertex  2.757278e+02 -5.100000e+02 -2.514436e+02
   endloop
 endfacet
 facet normal -1.000000e+00  1.136868e-14 -2.652693e-14
   outer loop
     vertex  2.844000e+02 -5.050000e+02 -2.524965e+02
     vertex  2.844000e+02 -5.050000e+02 -2.674965e+02
     vertex  2.844000e+02 -5.100000e+02 -2.674965e+02
   endloop
 endfacet
 facet normal -1.000000e+00  1.136868e-14 -2.652693e-14
   outer loop
     vertex  2.844000e+02 -5.100000e+02 -2.524965e+02
     vertex  2.844000e+02 -5.050000e+02 -2.524965e+02
     vertex  2.844000e+02 -5.100000e+02 -2.674965e+02
   endloop
 endfacet
 facet normal  1.000000e+00 -1.136868e-14  2.652693e-14
   outer loop
     vertex  2.756000e+02 -5.100000e+02 -2.674965e+02
     vertex  2.756000e+02 -5.050000e+02 -2.524965e+02
     vertex  2.756000e+02 -5.100000e+02 -2.524965e+02
   endloop
 endfacet
 facet normal  1.000000e+00 -1.136868e-14  2.652693e-14
   outer loop
     vertex  2.756000e+02 -5.100000e+02 -2.674965e+02
     vertex  2.756000e+02 -5.050000e+02 -2.674965e+02
     vertex  2.756000e+02 -5.050000e+02 -2.524965e+02
   endloop
 endfacet
 facet normal  9.927089e-01 -1.128579e-14  1.205367e-01
   outer loop
     vertex  2.756000e+02 -5.100000e+02 -2.674965e+02
     vertex  2.757278e+02 -5.050000e+02 -2.685495e+02
     vertex  2.756000e+02 -5.050000e+02 -2.674965e+02
   endloop
 endfacet
 facet normal  9.350162e-01 -2.125981e-14  3.546049e-01
   outer loop
     vertex  2.757278e+02 -5.100000e+02 -2.685495e+02
     vertex  2.761040e+02 -5.050000e+02 -2.695413e+02
     vertex  2.757278e+02 -5.050000e+02 -2.685495e+02
   endloop
 endfacet
 facet normal  9.927089e-01 -2.257159e-14  1.205367e-01
   outer loop
     vertex  2.757278e+02 -5.100000e+02 -2.685495e+02
     vertex  2.757278e+02 -5.050000e+02 -2.685495e+02
     vertex  2.756000e+02 -5.100000e+02 -2.674965e+02
   endloop
 endfacet
 facet normal  8.229839e-01 -0.000000e+00  5.680647e-01
   outer loop
     vertex  2.761040e+02 -5.100000e+02 -2.695413e+02
     vertex  2.767065e+02 -5.050000e+02 -2.704143e+02
     vertex  2.761040e+02 -5.050000e+02 -2.695413e+02
   endloop
 endfacet
 facet normal  9.350162e-01 -0.000000e+00  3.546049e-01
   outer loop
     vertex  2.761040e+02 -5.100000e+02 -2.695413e+02
     vertex  2.761040e+02 -5.050000e+02 -2.695413e+02
     vertex  2.757278e+02 -5.100000e+02 -2.685495e+02
   endloop
 endfacet
 facet normal  6.631227e-01 -1.507766e-14  7.485107e-01
   outer loop
     vertex  2.767065e+02 -5.100000e+02 -2.704143e+02
     vertex  2.775005e+02 -5.050000e+02 -2.711177e+02
     vertex  2.767065e+02 -5.050000e+02 -2.704143e+02
   endloop
 endfacet
 facet normal  8.229839e-01 -1.871249e-14  5.680647e-01
   outer loop
     vertex  2.767065e+02 -5.100000e+02 -2.704143e+02
     vertex  2.767065e+02 -5.050000e+02 -2.704143e+02
     vertex  2.761040e+02 -5.100000e+02 -2.695413e+02
   endloop
 endfacet
 facet normal  4.647232e-01 -5.283291e-15  8.854560e-01
   outer loop
     vertex  2.775005e+02 -5.100000e+02 -2.711177e+02
     vertex  2.784397e+02 -5.050000e+02 -2.716106e+02
     vertex  2.775005e+02 -5.050000e+02 -2.711177e+02
   endloop
 endfacet
 facet normal  6.631227e-01 -7.538832e-15  7.485107e-01
   outer loop
     vertex  2.775005e+02 -5.100000e+02 -2.711177e+02
     vertex  2.775005e+02 -5.050000e+02 -2.711177e+02
     vertex  2.767065e+02 -5.100000e+02 -2.704143e+02
   endloop
 endfacet
 facet normal  2.393157e-01 -0.000000e+00  9.709418e-01
   outer loop
     vertex  2.784397e+02 -5.100000e+02 -2.716106e+02
     vertex  2.794696e+02 -5.050000e+02 -2.718645e+02
     vertex  2.784397e+02 -5.050000e+02 -2.716106e+02
   endloop
 endfacet
 facet normal  4.647232e-01 -0.000000e+00  8.854560e-01
   outer loop
     vertex  2.784397e+02 -5.100000e+02 -2.716106e+02
     vertex  2.784397e+02 -5.050000e+02 -2.716106e+02
     vertex  2.775005e+02 -5.100000e+02 -2.711177e+02
   endloop
 endfacet
 facet normal -5.358933e-14  6.092401e-28  1.000000e+00
   outer loop
     vertex  2.794696e+02 -5.100000e+02 -2.718645e+02
     vertex  2.805303e+02 -5.050000e+02 -2.718645e+02
     vertex  2.794696e+02 -5.050000e+02 -2.718645e+02
   endloop
 endfacet
 facet normal  2.393157e-01 -2.720704e-15  9.709418e-01
   outer loop
     vertex  2.794696e+02 -5.100000e+02 -2.718645e+02
     vertex  2.794696e+02 -5.050000e+02 -2.718645e+02
     vertex  2.784397e+02 -5.100000e+02 -2.716106e+02
   endloop
 endfacet
 facet normal -2.393157e-01  2.720704e-15  9.709418e-01
   outer loop
     vertex  2.805303e+02 -5.100000e+02 -2.718645e+02
     vertex  2.815602e+02 -5.050000e+02 -2.716106e+02
     vertex  2.805303e+02 -5.050000e+02 -2.718645e+02
   endloop
 endfacet
 facet normal -5.358933e-14  6.092401e-28  1.000000e+00
   outer loop
     vertex  2.805303e+02 -5.100000e+02 -2.718645e+02
     vertex  2.805303e+02 -5.050000e+02 -2.718645e+02
     vertex  2.794696e+02 -5.100000e+02 -2.718645e+02
   endloop
 endfacet
 facet normal -4.647232e-01  0.000000e+00  8.854560e-01
   outer loop
     vertex  2.815602e+02 -5.100000e+02 -2.716106e+02
     vertex  2.824994e+02 -5.050000e+02 -2.711177e+02
     vertex  2.815602e+02 -5.050000e+02 -2.716106e+02
   endloop
 endfacet
 facet normal -2.393157e-01  0.000000e+00  9.709418e-01
   outer loop
     vertex  2.815602e+02 -5.100000e+02 -2.716106e+02
     vertex  2.815602e+02 -5.050000e+02 -2.716106e+02
     vertex  2.805303e+02 -5.100000e+02 -2.718645e+02
   endloop
 endfacet
 facet normal -6.631227e-01  7.538832e-15  7.485107e-01
   outer loop
     vertex  2.824994e+02 -5.100000e+02 -2.711177e+02
     vertex  2.832934e+02 -5.050000e+02 -2.704143e+02
     vertex  2.824994e+02 -5.050000e+02 -2.711177e+02
   endloop
 endfacet
 facet normal -4.647232e-01  5.283291e-15  8.854560e-01
   outer loop
     vertex  2.824994e+02 -5.100000e+02 -2.711177e+02
     vertex  2.824994e+02 -5.050000e+02 -2.711177e+02
     vertex  2.815602e+02 -5.100000e+02 -2.716106e+02
   endloop
 endfacet
 facet normal -8.229839e-01  9.356243e-15  5.680647e-01
   outer loop
     vertex  2.832934e+02 -5.100000e+02 -2.704143e+02
     vertex  2.838960e+02 -5.050000e+02 -2.695413e+02
     vertex  2.832934e+02 -5.050000e+02 -2.704143e+02
   endloop
 endfacet
 facet normal -6.631227e-01  7.538832e-15  7.485107e-01
   outer loop
     vertex  2.832934e+02 -5.100000e+02 -2.704143e+02
     vertex  2.832934e+02 -5.050000e+02 -2.704143e+02
     vertex  2.824994e+02 -5.100000e+02 -2.711177e+02
   endloop
 endfacet
 facet normal -9.350162e-01  1.466129e-14  3.546049e-01
   outer loop
     vertex  2.838960e+02 -5.100000e+02 -2.695413e+02
     vertex  2.842721e+02 -5.050000e+02 -2.685495e+02
     vertex  2.838960e+02 -5.050000e+02 -2.695413e+02
   endloop
 endfacet
 facet normal -8.229839e-01  1.581439e-14  5.680647e-01
   outer loop
     vertex  2.838960e+02 -5.100000e+02 -2.695413e+02
     vertex  2.838960e+02 -5.050000e+02 -2.695413e+02
     vertex  2.832934e+02 -5.100000e+02 -2.704143e+02
   endloop
 endfacet
 facet normal -9.350162e-01  2.529120e-14  3.546049e-01
   outer loop
     vertex  2.842721e+02 -5.100000e+02 -2.685495e+02
     vertex  2.842721e+02 -5.050000e+02 -2.685495e+02
     vertex  2.838960e+02 -5.100000e+02 -2.695413e+02
   endloop
 endfacet
 facet normal -9.927089e-01  1.128579e-14  1.205367e-01
   outer loop
     vertex  2.844000e+02 -5.100000e+02 -2.674965e+02
     vertex  2.844000e+02 -5.050000e+02 -2.674965e+02
     vertex  2.842721e+02 -5.050000e+02 -2.685495e+02
   endloop
 endfacet
 facet normal -9.927089e-01  2.394142e-14  1.205367e-01
   outer loop
     vertex  2.844000e+02 -5.100000e+02 -2.674965e+02
     vertex  2.842721e+02 -5.050000e+02 -2.685495e+02
     vertex  2.842721e+02 -5.100000e+02 -2.685495e+02
   endloop
 endfacet
 facet normal -9.927089e-01  1.128579e-14 -1.205367e-01
   outer loop
     vertex  3.844000e+02 -5.100000e+02 -2.524965e+02
     vertex  3.842721e+02 -5.050000e+02 -2.514436e+02
     vertex  3.844000e+02 -5.050000e+02 -2.524965e+02
   endloop
 endfacet
 facet normal -9.350162e-01  8.614209e-15 -3.546049e-01
   outer loop
     vertex  3.842721e+02 -5.100000e+02 -2.514436e+02
     vertex  3.838960e+02 -5.050000e+02 -2.504518e+02
     vertex  3.842721e+02 -5.050000e+02 -2.514436e+02
   endloop
 endfacet
 facet normal -9.927089e-01  1.060062e-14 -1.205367e-01
   outer loop
     vertex  3.842721e+02 -5.100000e+02 -2.514436e+02
     vertex  3.842721e+02 -5.050000e+02 -2.514436e+02
     vertex  3.844000e+02 -5.100000e+02 -2.524965e+02
   endloop
 endfacet
 facet normal -8.229839e-01  1.871249e-14 -5.680647e-01
   outer loop
     vertex  3.838960e+02 -5.100000e+02 -2.504518e+02
     vertex  3.832934e+02 -5.050000e+02 -2.495788e+02
     vertex  3.838960e+02 -5.050000e+02 -2.504518e+02
   endloop
 endfacet
 facet normal -9.350162e-01  2.125981e-14 -3.546049e-01
   outer loop
     vertex  3.838960e+02 -5.100000e+02 -2.504518e+02
     vertex  3.838960e+02 -5.050000e+02 -2.504518e+02
     vertex  3.842721e+02 -5.100000e+02 -2.514436e+02
   endloop
 endfacet
 facet normal -6.631227e-01  0.000000e+00 -7.485107e-01
   outer loop
     vertex  3.832934e+02 -5.100000e+02 -2.495788e+02
     vertex  3.824994e+02 -5.050000e+02 -2.488754e+02
     vertex  3.832934e+02 -5.050000e+02 -2.495788e+02
   endloop
 endfacet
 facet normal -8.229839e-01  0.000000e+00 -5.680647e-01
   outer loop
     vertex  3.832934e+02 -5.100000e+02 -2.495788e+02
     vertex  3.832934e+02 -5.050000e+02 -2.495788e+02
     vertex  3.838960e+02 -5.100000e+02 -2.504518e+02
   endloop
 endfacet
 facet normal -4.647232e-01  5.533347e-15 -8.854560e-01
   outer loop
     vertex  3.824994e+02 -5.100000e+02 -2.488754e+02
     vertex  3.815602e+02 -5.050000e+02 -2.483825e+02
     vertex  3.824994e+02 -5.050000e+02 -2.488754e+02
   endloop
 endfacet
 facet normal -6.631227e-01  1.082287e-14 -7.485107e-01
   outer loop
     vertex  3.824994e+02 -5.100000e+02 -2.488754e+02
     vertex  3.824994e+02 -5.050000e+02 -2.488754e+02
     vertex  3.832934e+02 -5.100000e+02 -2.495788e+02
   endloop
 endfacet
 facet normal -2.393157e-01  5.441408e-15 -9.709418e-01
   outer loop
     vertex  3.815602e+02 -5.100000e+02 -2.483825e+02
     vertex  3.805303e+02 -5.050000e+02 -2.481286e+02
     vertex  3.815602e+02 -5.050000e+02 -2.483825e+02
   endloop
 endfacet
 facet normal -4.647232e-01  1.056658e-14 -8.854560e-01
   outer loop
     vertex  3.815602e+02 -5.100000e+02 -2.483825e+02
     vertex  3.815602e+02 -5.050000e+02 -2.483825e+02
     vertex  3.824994e+02 -5.100000e+02 -2.488754e+02
   endloop
 endfacet
 facet normal  2.679466e-14 -6.092401e-28 -1.000000e+00
   outer loop
     vertex  3.805303e+02 -5.100000e+02 -2.481286e+02
     vertex  3.794696e+02 -5.050000e+02 -2.481286e+02
     vertex  3.805303e+02 -5.050000e+02 -2.481286e+02
   endloop
 endfacet
 facet normal -2.393157e-01  5.441408e-15 -9.709418e-01
   outer loop
     vertex  3.805303e+02 -5.100000e+02 -2.481286e+02
     vertex  3.805303e+02 -5.050000e+02 -2.481286e+02
     vertex  3.815602e+02 -5.100000e+02 -2.483825e+02
   endloop
 endfacet
 facet normal  2.393157e-01 -1.096057e-14 -9.709418e-01
   outer loop
     vertex  3.794696e+02 -5.100000e+02 -2.481286e+02
     vertex  3.784397e+02 -5.050000e+02 -2.483825e+02
     vertex  3.794696e+02 -5.050000e+02 -2.481286e+02
   endloop
 endfacet
 facet normal  0.000000e+00 -5.684342e-15 -1.000000e+00
   outer loop
     vertex  3.794696e+02 -5.100000e+02 -2.481286e+02
     vertex  3.794696e+02 -5.050000e+02 -2.481286e+02
     vertex  3.805303e+02 -5.100000e+02 -2.481286e+02
   endloop
 endfacet
 facet normal  4.647232e-01 -1.056658e-14 -8.854560e-01
   outer loop
     vertex  3.784397e+02 -5.100000e+02 -2.483825e+02
     vertex  3.775005e+02 -5.050000e+02 -2.488754e+02
     vertex  3.784397e+02 -5.050000e+02 -2.483825e+02
   endloop
 endfacet
 facet normal  2.393157e-01 -5.441408e-15 -9.709418e-01
   outer loop
     vertex  3.784397e+02 -5.100000e+02 -2.483825e+02
     vertex  3.784397e+02 -5.050000e+02 -2.483825e+02
     vertex  3.794696e+02 -5.100000e+02 -2.481286e+02
   endloop
 endfacet
 facet normal  6.631227e-01 -1.179362e-14 -7.485107e-01
   outer loop
     vertex  3.775005e+02 -5.100000e+02 -2.488754e+02
     vertex  3.767065e+02 -5.050000e+02 -2.495788e+02
     vertex  3.775005e+02 -5.050000e+02 -2.488754e+02
   endloop
 endfacet
 facet normal  4.647232e-01 -1.031653e-14 -8.854560e-01
   outer loop
     vertex  3.775005e+02 -5.100000e+02 -2.488754e+02
     vertex  3.775005e+02 -5.050000e+02 -2.488754e+02
     vertex  3.784397e+02 -5.100000e+02 -2.483825e+02
   endloop
 endfacet
 facet normal  8.229839e-01 -1.548341e-14 -5.680647e-01
   outer loop
     vertex  3.767065e+02 -5.100000e+02 -2.495788e+02
     vertex  3.761040e+02 -5.050000e+02 -2.504518e+02
     vertex  3.767065e+02 -5.050000e+02 -2.495788e+02
   endloop
 endfacet
 facet normal  6.631227e-01 -1.082287e-14 -7.485107e-01
   outer loop
     vertex  3.767065e+02 -5.100000e+02 -2.495788e+02
     vertex  3.767065e+02 -5.050000e+02 -2.495788e+02
     vertex  3.775005e+02 -5.100000e+02 -2.488754e+02
   endloop
 endfacet
 facet normal  9.350162e-01 -2.125981e-14 -3.546049e-01
   outer loop
     vertex  3.761040e+02 -5.100000e+02 -2.504518e+02
     vertex  3.757278e+02 -5.050000e+02 -2.514436e+02
     vertex  3.761040e+02 -5.050000e+02 -2.504518e+02
   endloop
 endfacet
 facet normal  8.229839e-01 -1.871249e-14 -5.680647e-01
   outer loop
     vertex  3.761040e+02 -5.100000e+02 -2.504518e+02
     vertex  3.761040e+02 -5.050000e+02 -2.504518e+02
     vertex  3.767065e+02 -5.100000e+02 -2.495788e+02
   endloop
 endfacet
 facet normal  9.350162e-01  0.000000e+00 -3.546049e-01
   outer loop
     vertex  3.757278e+02 -5.100000e+02 -2.514436e+02
     vertex  3.757278e+02 -5.050000e+02 -2.514436e+02
     vertex  3.761040e+02 -5.100000e+02 -2.504518e+02
   endloop
 endfacet
 facet normal  9.927089e-01 -1.128579e-14 -1.205367e-01
   outer loop
     vertex  3.756000e+02 -5.100000e+02 -2.524965e+02
     vertex  3.756000e+02 -5.050000e+02 -2.524965e+02
     vertex  3.757278e+02 -5.050000e+02 -2.514436e+02
   endloop
 endfacet
 facet normal  9.927089e-01 -1.076965e-18 -1.205367e-01
   outer loop
     vertex  3.756000e+02 -5.100000e+02 -2.524965e+02
     vertex  3.757278e+02 -5.050000e+02 -2.514436e+02
     vertex  3.757278e+02 -5.100000e+02 -2.514436e+02
   endloop
 endfacet
 facet normal -1.000000e+00  1.136868e-14 -2.652693e-14
   outer loop
     vertex  3.844000e+02 -5.100000e+02 -2.524965e+02
     vertex  3.844000e+02 -5.050000e+02 -2.674965e+02
     vertex  3.844000e+02 -5.100000e+02 -2.674965e+02
   endloop
 endfacet
 facet normal -1.000000e+00  1.136868e-14 -2.652693e-14
   outer loop
     vertex  3.844000e+02 -5.100000e+02 -2.524965e+02
     vertex  3.844000e+02 -5.050000e+02 -2.524965e+02
     vertex  3.844000e+02 -5.050000e+02 -2.674965e+02
   endloop
 endfacet
 facet normal  1.000000e+00 -1.136868e-14  2.652693e-14
   outer loop
     vertex  3.756000e+02 -5.100000e+02 -2.674965e+02
     vertex  3.756000e+02 -5.050000e+02 -2.524965e+02
     vertex  3.756000e+02 -5.100000e+02 -2.524965e+02
   endloop
 endfacet
 facet normal  1.000000e+00 -1.136868e-14  2.652693e-14
   outer loop
     vertex  3.756000e+02 -5.100000e+02 -2.674965e+02
     vertex  3.756000e+02 -5.050000e+02 -2.674965e+02
     vertex  3.756000e+02 -5.050000e+02 -2.524965e+02
   endloop
 endfacet
 facet normal  9.927089e-01 -1.128579e-14  1.205367e-01
   outer loop
     vertex  3.756000e+02 -5.100000e+02 -2.674965e+02
     vertex  3.757278e+02 -5.050000e+02 -2.685495e+02
     vertex  3.756000e+02 -5.050000e+02 -2.674965e+02
   endloop
 endfacet
 facet normal  9.350162e-01 -2.125981e-14  3.546049e-01
   outer loop
     vertex  3.757278e+02 -5.100000e+02 -2.685495e+02
     vertex  3.761040e+02 -5.050000e+02 -2.695413e+02
     vertex  3.757278e+02 -5.050000e+02 -2.685495e+02
   endloop
 endfacet
 facet normal  9.927089e-01 -2.257159e-14  1.205367e-01
   outer loop
     vertex  3.757278e+02 -5.100000e+02 -2.685495e+02
     vertex  3.757278e+02 -5.050000e+02 -2.685495e+02
     vertex  3.756000e+02 -5.100000e+02 -2.674965e+02
   endloop
 endfacet
 facet normal  8.229839e-01 -0.000000e+00  5.680647e-01
   outer loop
     vertex  3.761040e+02 -5.100000e+02 -2.695413e+02
     vertex  3.767065e+02 -5.050000e+02 -2.704143e+02
     vertex  3.761040e+02 -5.050000e+02 -2.695413e+02
   endloop
 endfacet
 facet normal  9.350162e-01 -0.000000e+00  3.546049e-01
   outer loop
     vertex  3.761040e+02 -5.100000e+02 -2.695413e+02
     vertex  3.761040e+02 -5.050000e+02 -2.695413e+02
     vertex  3.757278e+02 -5.100000e+02 -2.685495e+02
   endloop
 endfacet
 facet normal  6.631227e-01 -1.507766e-14  7.485107e-01
   outer loop
     vertex  3.767065e+02 -5.100000e+02 -2.704143e+02
     vertex  3.775005e+02 -5.050000e+02 -2.711177e+02
     vertex  3.767065e+02 -5.050000e+02 -2.704143e+02
   endloop
 endfacet
 facet normal  8.229839e-01 -1.871249e-14  5.680647e-01
   outer loop
     vertex  3.767065e+02 -5.100000e+02 -2.704143e+02
     vertex  3.767065e+02 -5.050000e+02 -2.704143e+02
     vertex  3.761040e+02 -5.100000e+02 -2.695413e+02
   endloop
 endfacet
 facet normal  4.647232e-01 -5.283291e-15  8.854560e-01
   outer loop
     vertex  3.775005e+02 -5.100000e+02 -2.711177e+02
     vertex  3.784397e+02 -5.050000e+02 -2.716106e+02
     vertex  3.775005e+02 -5.050000e+02 -2.711177e+02
   endloop
 endfacet
 facet normal  6.631227e-01 -7.538832e-15  7.485107e-01
   outer loop
     vertex  3.775005e+02 -5.100000e+02 -2.711177e+02
     vertex  3.775005e+02 -5.050000e+02 -2.711177e+02
     vertex  3.767065e+02 -5.100000e+02 -2.704143e+02
   endloop
 endfacet
 facet normal  2.393157e-01 -0.000000e+00  9.709418e-01
   outer loop
     vertex  3.784397e+02 -5.100000e+02 -2.716106e+02
     vertex  3.794696e+02 -5.050000e+02 -2.718645e+02
     vertex  3.784397e+02 -5.050000e+02 -2.716106e+02
   endloop
 endfacet
 facet normal  4.647232e-01 -0.000000e+00  8.854560e-01
   outer loop
     vertex  3.784397e+02 -5.100000e+02 -2.716106e+02
     vertex  3.784397e+02 -5.050000e+02 -2.716106e+02
     vertex  3.775005e+02 -5.100000e+02 -2.711177e+02
   endloop
 endfacet
 facet normal  0.000000e+00 -1.136868e-14  1.000000e+00
   outer loop
     vertex  3.794696e+02 -5.100000e+02 -2.718645e+02
     vertex  3.805303e+02 -5.050000e+02 -2.718645e+02
     vertex  3.794696e+02 -5.050000e+02 -2.718645e+02
   endloop
 endfacet
 facet normal  2.393157e-01 -1.375903e-14  9.709418e-01
   outer loop
     vertex  3.794696e+02 -5.100000e+02 -2.718645e+02
     vertex  3.794696e+02 -5.050000e+02 -2.718645e+02
     vertex  3.784397e+02 -5.100000e+02 -2.716106e+02
   endloop
 endfacet
 facet normal -2.393157e-01  2.720704e-15  9.709418e-01
   outer loop
     vertex  3.805303e+02 -5.100000e+02 -2.718645e+02
     vertex  3.815602e+02 -5.050000e+02 -2.716106e+02
     vertex  3.805303e+02 -5.050000e+02 -2.718645e+02
   endloop
 endfacet
 facet normal -5.358933e-14  6.092401e-28  1.000000e+00
   outer loop
     vertex  3.805303e+02 -5.100000e+02 -2.718645e+02
     vertex  3.805303e+02 -5.050000e+02 -2.718645e+02
     vertex  3.794696e+02 -5.100000e+02 -2.718645e+02
   endloop
 endfacet
 facet normal -4.647232e-01  0.000000e+00  8.854560e-01
   outer loop
     vertex  3.815602e+02 -5.100000e+02 -2.716106e+02
     vertex  3.824994e+02 -5.050000e+02 -2.711177e+02
     vertex  3.815602e+02 -5.050000e+02 -2.716106e+02
   endloop
 endfacet
 facet normal -2.393157e-01  0.000000e+00  9.709418e-01
   outer loop
     vertex  3.815602e+02 -5.100000e+02 -2.716106e+02
     vertex  3.815602e+02 -5.050000e+02 -2.716106e+02
     vertex  3.805303e+02 -5.100000e+02 -2.718645e+02
   endloop
 endfacet
 facet normal -6.631227e-01  7.538832e-15  7.485107e-01
   outer loop
     vertex  3.824994e+02 -5.100000e+02 -2.711177e+02
     vertex  3.832934e+02 -5.050000e+02 -2.704143e+02
     vertex  3.824994e+02 -5.050000e+02 -2.711177e+02
   endloop
 endfacet
 facet normal -4.647232e-01  5.283291e-15  8.854560e-01
   outer loop
     vertex  3.824994e+02 -5.100000e+02 -2.711177e+02
     vertex  3.824994e+02 -5.050000e+02 -2.711177e+02
     vertex  3.815602e+02 -5.100000e+02 -2.716106e+02
   endloop
 endfacet
 facet normal -8.229839e-01  9.356243e-15  5.680647e-01
   outer loop
     vertex  3.832934e+02 -5.100000e+02 -2.704143e+02
     vertex  3.838960e+02 -5.050000e+02 -2.695413e+02
     vertex  3.832934e+02 -5.050000e+02 -2.704143e+02
   endloop
 endfacet
 facet normal -6.631227e-01  7.538832e-15  7.485107e-01
   outer loop
     vertex  3.832934e+02 -5.100000e+02 -2.704143e+02
     vertex  3.832934e+02 -5.050000e+02 -2.704143e+02
     vertex  3.824994e+02 -5.100000e+02 -2.711177e+02
   endloop
 endfacet
 facet normal -9.350162e-01  1.062990e-14  3.546049e-01
   outer loop
     vertex  3.838960e+02 -5.100000e+02 -2.695413e+02
     vertex  3.842721e+02 -5.050000e+02 -2.685495e+02
     vertex  3.838960e+02 -5.050000e+02 -2.695413e+02
   endloop
 endfacet
 facet normal -8.229839e-01  9.356243e-15  5.680647e-01
   outer loop
     vertex  3.838960e+02 -5.100000e+02 -2.695413e+02
     vertex  3.838960e+02 -5.050000e+02 -2.695413e+02
     vertex  3.832934e+02 -5.100000e+02 -2.704143e+02
   endloop
 endfacet
 facet normal -9.350162e-01  2.125981e-14  3.546049e-01
   outer loop
     vertex  3.842721e+02 -5.100000e+02 -2.685495e+02
     vertex  3.842721e+02 -5.050000e+02 -2.685495e+02
     vertex  3.838960e+02 -5.100000e+02 -2.695413e+02
   endloop
 endfacet
 facet normal -9.927089e-01  1.128579e-14  1.205367e-01
   outer loop
     vertex  3.844000e+02 -5.100000e+02 -2.674965e+02
     vertex  3.844000e+02 -5.050000e+02 -2.674965e+02
     vertex  3.842721e+02 -5.050000e+02 -2.685495e+02
   endloop
 endfacet
 facet normal -9.927089e-01  2.257029e-14  1.205367e-01
   outer loop
     vertex  3.844000e+02 -5.100000e+02 -2.674965e+02
     vertex  3.842721e+02 -5.050000e+02 -2.685495e+02
     vertex  3.842721e+02 -5.100000e+02 -2.685495e+02
   endloop
 endfacet
 facet normal  1.000000e+00 -2.273737e-14  2.842171e-14
   outer loop
     vertex  4.100000e+02 -5.100000e+02 -2.799965e+02
     vertex  4.100000e+02 -5.050000e+02 -2.399965e+02
     vertex  4.100000e+02 -5.100000e+02 -2.399965e+02
   endloop
 endfacet
 facet normal  1.000000e+00 -2.273737e-14  2.842171e-14
   outer loop
     vertex  4.100000e+02 -5.050000e+02 -2.799965e+02
     vertex  4.100000e+02 -5.050000e+02 -2.399965e+02
     vertex  4.100000e+02 -5.100000e+02 -2.799965e+02
   endloop
 endfacet
 facet normal -2.788880e-14  6.341180e-28  1.000000e+00
   outer loop
     vertex  2.500000e+02 -5.100000e+02 -2.399965e+02
     vertex  4.100000e+02 -5.100000e+02 -2.399965e+02
     vertex  4.100000e+02 -5.050000e+02 -2.399965e+02
   endloop
 endfacet
 facet normal -2.788880e-14  3.170590e-28  1.000000e+00
   outer loop
     vertex  2.500000e+02 -5.050000e+02 -2.399965e+02
     vertex  2.500000e+02 -5.100000e+02 -2.399965e+02
     vertex  4.100000e+02 -5.050000e+02 -2.399965e+02
   endloop
 endfacet
 facet normal -1.000000e+00  1.705303e-14 -2.913225e-14
   outer loop
     vertex  2.500000e+02 -5.100000e+02 -2.399965e+02
     vertex  2.500000e+02 -5.050000e+02 -2.799965e+02
     vertex  2.500000e+02 -5.100000e+02 -2.799965e+02
   endloop
 endfacet
 facet normal -1.000000e+00  1.136868e-14 -2.984279e-14
   outer loop
     vertex  2.500000e+02 -5.050000e+02 -2.399965e+02
     vertex  2.500000e+02 -5.050000e+02 -2.799965e+02
     vertex  2.500000e+02 -5.100000e+02 -2.399965e+02
   endloop
 endfacet
 facet normal  2.877698e-14 -6.543128e-28 -1.000000e+00
   outer loop
     vertex  2.500000e+02 -5.050000e+02 -2.799965e+02
     vertex  4.100000e+02 -5.050000e+02 -2.799965e+02
     vertex  4.100000e+02 -5.100000e+02 -2.799965e+02
   endloop
 endfacet
 facet normal  2.877698e-14 -4.907346e-28 -1.000000e+00
   outer loop
     vertex  2.500000e+02 -5.100000e+02 -2.799965e+02
     vertex  2.500000e+02 -5.050000e+02 -2.799965e+02
     vertex  4.100000e+02 -5.100000e+02 -2.799965e+02
   endloop
 endfacet
 facet normal  4.544724e-15  1.000000e+00 -5.129933e-15
   outer loop
     vertex  3.824994e+02 -5.050000e+02 -2.711177e+02
     vertex  3.832934e+02 -5.050000e+02 -2.704143e+02
     vertex  4.100000e+02 -5.050000e+02 -2.799965e+02
   endloop
 endfacet
 facet normal  5.117846e-15  1.000000e+00 -3.532594e-15
   outer loop
     vertex  3.838960e+02 -5.050000e+02 -2.695413e+02
     vertex  4.100000e+02 -5.050000e+02 -2.799965e+02
     vertex  3.832934e+02 -5.050000e+02 -2.704143e+02
   endloop
 endfacet
 facet normal  4.994070e-14  1.000000e+00  1.354750e-13
   outer loop
     vertex  3.815602e+02 -5.050000e+02 -2.716106e+02
     vertex  3.824994e+02 -5.050000e+02 -2.711177e+02
     vertex  4.100000e+02 -5.050000e+02 -2.799965e+02
   endloop
 endfacet
 facet normal  5.671273e-15  1.000000e+00 -2.150830e-15
   outer loop
     vertex  3.842721e+02 -5.050000e+02 -2.685495e+02
     vertex  4.100000e+02 -5.050000e+02 -2.799965e+02
     vertex  3.838960e+02 -5.050000e+02 -2.695413e+02
   endloop
 endfacet
 facet normal  4.550183e-15  1.000000e+00 -1.846082e-14
   outer loop
     vertex  3.805303e+02 -5.050000e+02 -2.718645e+02
     vertex  3.815602e+02 -5.050000e+02 -2.716106e+02
     vertex  4.100000e+02 -5.050000e+02 -2.799965e+02
   endloop
 endfacet
 facet normal  6.288505e-15  1.000000e+00 -7.635627e-16
   outer loop
     vertex  3.844000e+02 -5.050000e+02 -2.674965e+02
     vertex  4.100000e+02 -5.050000e+02 -2.799965e+02
     vertex  3.842721e+02 -5.050000e+02 -2.685495e+02
   endloop
 endfacet
 facet normal  0.000000e+00  1.000000e+00 -3.495011e-14
   outer loop
     vertex  3.794696e+02 -5.050000e+02 -2.718645e+02
     vertex  3.805303e+02 -5.050000e+02 -2.718645e+02
     vertex  4.100000e+02 -5.050000e+02 -2.799965e+02
   endloop
 endfacet
 facet normal  5.967449e-15  1.000000e+00 -1.421085e-15
   outer loop
     vertex  4.100000e+02 -5.050000e+02 -2.399965e+02
     vertex  4.100000e+02 -5.050000e+02 -2.799965e+02
     vertex  3.844000e+02 -5.050000e+02 -2.674965e+02
   endloop
 endfacet
 facet normal  4.440892e-15  1.000000e+00  1.178032e-28
   outer loop
     vertex  3.844000e+02 -5.050000e+02 -2.524965e+02
     vertex  4.100000e+02 -5.050000e+02 -2.399965e+02
     vertex  3.844000e+02 -5.050000e+02 -2.674965e+02
   endloop
 endfacet
 facet normal  4.192337e-15  1.000000e+00  5.090418e-16
   outer loop
     vertex  3.842721e+02 -5.050000e+02 -2.514436e+02
     vertex  4.100000e+02 -5.050000e+02 -2.399965e+02
     vertex  3.844000e+02 -5.050000e+02 -2.524965e+02
   endloop
 endfacet
 facet normal  3.780848e-15  1.000000e+00  1.433887e-15
   outer loop
     vertex  3.838960e+02 -5.050000e+02 -2.504518e+02
     vertex  4.100000e+02 -5.050000e+02 -2.399965e+02
     vertex  3.842721e+02 -5.050000e+02 -2.514436e+02
   endloop
 endfacet
 facet normal  3.411897e-15  1.000000e+00  2.355063e-15
   outer loop
     vertex  3.832934e+02 -5.050000e+02 -2.495788e+02
     vertex  4.100000e+02 -5.050000e+02 -2.399965e+02
     vertex  3.838960e+02 -5.050000e+02 -2.504518e+02
   endloop
 endfacet
 facet normal  3.029816e-15  1.000000e+00  3.419955e-15
   outer loop
     vertex  3.824994e+02 -5.050000e+02 -2.488754e+02
     vertex  4.100000e+02 -5.050000e+02 -2.399965e+02
     vertex  3.832934e+02 -5.050000e+02 -2.495788e+02
   endloop
 endfacet
 facet normal  2.559489e-15  1.000000e+00  4.876698e-15
   outer loop
     vertex  3.815602e+02 -5.050000e+02 -2.483825e+02
     vertex  4.100000e+02 -5.050000e+02 -2.399965e+02
     vertex  3.824994e+02 -5.050000e+02 -2.488754e+02
   endloop
 endfacet
 facet normal  6.194672e-14  1.000000e+00 -1.965270e-13
   outer loop
     vertex  3.805303e+02 -5.050000e+02 -2.481286e+02
     vertex  4.100000e+02 -5.050000e+02 -2.399965e+02
     vertex  3.815602e+02 -5.050000e+02 -2.483825e+02
   endloop
 endfacet
 facet normal -7.491811e-28  1.000000e+00  2.796009e-14
   outer loop
     vertex  3.794696e+02 -5.050000e+02 -2.481286e+02
     vertex  4.100000e+02 -5.050000e+02 -2.399965e+02
     vertex  3.805303e+02 -5.050000e+02 -2.481286e+02
   endloop
 endfacet
 facet normal  8.749359e-15  1.000000e+00  1.062365e-15
   outer loop
     vertex  3.502500e+02 -5.050000e+02 -2.727465e+02
     vertex  3.756000e+02 -5.050000e+02 -2.674965e+02
     vertex  3.757278e+02 -5.050000e+02 -2.685495e+02
   endloop
 endfacet
 facet normal  8.399604e-15  1.000000e+00  3.185549e-15
   outer loop
     vertex  3.502500e+02 -5.050000e+02 -2.727465e+02
     vertex  3.757278e+02 -5.050000e+02 -2.685495e+02
     vertex  3.761040e+02 -5.050000e+02 -2.695413e+02
   endloop
 endfacet
 facet normal  8.101278e-15  1.000000e+00  5.591908e-15
   outer loop
     vertex  3.502500e+02 -5.050000e+02 -2.727465e+02
     vertex  3.761040e+02 -5.050000e+02 -2.695413e+02
     vertex  3.767065e+02 -5.050000e+02 -2.704143e+02
   endloop
 endfacet
 facet normal  1.337109e-15  1.000000e+00  8.232288e-14
   outer loop
     vertex  3.502500e+02 -5.050000e+02 -2.727465e+02
     vertex  3.767065e+02 -5.050000e+02 -2.704143e+02
     vertex  3.775005e+02 -5.050000e+02 -2.711177e+02
   endloop
 endfacet
 facet normal  5.618036e-15  1.000000e+00  1.070427e-14
   outer loop
     vertex  3.502500e+02 -5.050000e+02 -2.727465e+02
     vertex  3.775005e+02 -5.050000e+02 -2.711177e+02
     vertex  3.784397e+02 -5.050000e+02 -2.716106e+02
   endloop
 endfacet
 facet normal  5.199350e-15  1.000000e+00  2.109459e-14
   outer loop
     vertex  3.502500e+02 -5.050000e+02 -2.727465e+02
     vertex  3.784397e+02 -5.050000e+02 -2.716106e+02
     vertex  3.794696e+02 -5.050000e+02 -2.718645e+02
   endloop
 endfacet
 facet normal  8.969376e-15  1.000000e+00  2.379300e-28
   outer loop
     vertex  3.502500e+02 -5.050000e+02 -2.727465e+02
     vertex  3.756000e+02 -5.050000e+02 -2.524965e+02
     vertex  3.756000e+02 -5.050000e+02 -2.674965e+02
   endloop
 endfacet
 facet normal  6.189713e-15  1.000000e+00 -1.171200e-14
   outer loop
     vertex  3.502500e+02 -5.050000e+02 -2.727465e+02
     vertex  3.794696e+02 -5.050000e+02 -2.718645e+02
     vertex  4.100000e+02 -5.050000e+02 -2.799965e+02
   endloop
 endfacet
 facet normal  4.252831e-15  1.000000e+00  1.199363e-14
   outer loop
     vertex  3.502500e+02 -5.050000e+02 -2.472465e+02
     vertex  4.100000e+02 -5.050000e+02 -2.399965e+02
     vertex  3.794696e+02 -5.050000e+02 -2.481286e+02
   endloop
 endfacet
 facet normal  3.466233e-15  1.000000e+00 -1.406306e-14
   outer loop
     vertex  3.502500e+02 -5.050000e+02 -2.472465e+02
     vertex  3.794696e+02 -5.050000e+02 -2.481286e+02
     vertex  3.784397e+02 -5.050000e+02 -2.483825e+02
   endloop
 endfacet
 facet normal  3.745357e-15  1.000000e+00 -7.136182e-15
   outer loop
     vertex  3.502500e+02 -5.050000e+02 -2.472465e+02
     vertex  3.784397e+02 -5.050000e+02 -2.483825e+02
     vertex  3.775005e+02 -5.050000e+02 -2.488754e+02
   endloop
 endfacet
 facet normal -6.170031e-16  1.000000e+00 -8.011714e-14
   outer loop
     vertex  3.502500e+02 -5.050000e+02 -2.472465e+02
     vertex  3.775005e+02 -5.050000e+02 -2.488754e+02
     vertex  3.767065e+02 -5.050000e+02 -2.495788e+02
   endloop
 endfacet
 facet normal  6.075959e-15  1.000000e+00 -4.193931e-15
   outer loop
     vertex  3.502500e+02 -5.050000e+02 -2.472465e+02
     vertex  3.767065e+02 -5.050000e+02 -2.495788e+02
     vertex  3.761040e+02 -5.050000e+02 -2.504518e+02
   endloop
 endfacet
 facet normal  6.299703e-15  1.000000e+00 -2.389162e-15
   outer loop
     vertex  3.502500e+02 -5.050000e+02 -2.472465e+02
     vertex  3.761040e+02 -5.050000e+02 -2.504518e+02
     vertex  3.757278e+02 -5.050000e+02 -2.514436e+02
   endloop
 endfacet
 facet normal  6.562020e-15  1.000000e+00 -7.967734e-16
   outer loop
     vertex  3.502500e+02 -5.050000e+02 -2.472465e+02
     vertex  3.757278e+02 -5.050000e+02 -2.514436e+02
     vertex  3.756000e+02 -5.050000e+02 -2.524965e+02
   endloop
 endfacet
 facet normal  7.188691e-15  1.000000e+00  2.229154e-15
   outer loop
     vertex  3.502500e+02 -5.050000e+02 -2.472465e+02
     vertex  3.756000e+02 -5.050000e+02 -2.524965e+02
     vertex  3.502500e+02 -5.050000e+02 -2.727465e+02
   endloop
 endfacet
 facet normal  5.090455e-15  1.000000e+00 -2.229154e-15
   outer loop
     vertex  3.132500e+02 -5.050000e+02 -2.472465e+02
     vertex  3.467500e+02 -5.050000e+02 -2.472465e+02
     vertex  3.467500e+02 -5.050000e+02 -2.727465e+02
   endloop
 endfacet
 facet normal  5.090455e-15  1.000000e+00 -2.229154e-15
   outer loop
     vertex  3.132500e+02 -5.050000e+02 -2.472465e+02
     vertex  3.467500e+02 -5.050000e+02 -2.727465e+02
     vertex  3.132500e+02 -5.050000e+02 -2.727465e+02
   endloop
 endfacet
 facet normal  7.816448e-15  1.000000e+00 -8.822946e-15
   outer loop
     vertex  2.824994e+02 -5.050000e+02 -2.711177e+02
     vertex  2.832934e+02 -5.050000e+02 -2.704143e+02
     vertex  3.097500e+02 -5.050000e+02 -2.727465e+02
   endloop
 endfacet
 facet normal  8.101278e-15  1.000000e+00 -5.591908e-15
   outer loop
     vertex  2.838960e+02 -5.050000e+02 -2.695413e+02
     vertex  3.097500e+02 -5.050000e+02 -2.727465e+02
     vertex  2.832934e+02 -5.050000e+02 -2.704143e+02
   endloop
 endfacet
 facet normal  1.302666e-15  1.000000e+00 -1.177965e-13
   outer loop
     vertex  2.815602e+02 -5.050000e+02 -2.716106e+02
     vertex  2.824994e+02 -5.050000e+02 -2.711177e+02
     vertex  3.097500e+02 -5.050000e+02 -2.727465e+02
   endloop
 endfacet
 facet normal  8.399604e-15  1.000000e+00 -3.185549e-15
   outer loop
     vertex  2.842721e+02 -5.050000e+02 -2.685495e+02
     vertex  3.097500e+02 -5.050000e+02 -2.727465e+02
     vertex  2.838960e+02 -5.050000e+02 -2.695413e+02
   endloop
 endfacet
 facet normal  5.199350e-15  1.000000e+00 -2.109459e-14
   outer loop
     vertex  2.805303e+02 -5.050000e+02 -2.718645e+02
     vertex  2.815602e+02 -5.050000e+02 -2.716106e+02
     vertex  3.097500e+02 -5.050000e+02 -2.727465e+02
   endloop
 endfacet
 facet normal  8.749359e-15  1.000000e+00 -1.062365e-15
   outer loop
     vertex  2.844000e+02 -5.050000e+02 -2.674965e+02
     vertex  3.097500e+02 -5.050000e+02 -2.727465e+02
     vertex  2.842721e+02 -5.050000e+02 -2.685495e+02
   endloop
 endfacet
 facet normal  1.075006e-14  1.000000e+00  2.229154e-15
   outer loop
     vertex  2.844000e+02 -5.050000e+02 -2.524965e+02
     vertex  3.097500e+02 -5.050000e+02 -2.472465e+02
     vertex  3.097500e+02 -5.050000e+02 -2.727465e+02
   endloop
 endfacet
 facet normal  8.969376e-15  1.000000e+00  2.379300e-28
   outer loop
     vertex  2.844000e+02 -5.050000e+02 -2.524965e+02
     vertex  3.097500e+02 -5.050000e+02 -2.727465e+02
     vertex  2.844000e+02 -5.050000e+02 -2.674965e+02
   endloop
 endfacet
 facet normal  1.093670e-14  1.000000e+00  1.327956e-15
   outer loop
     vertex  2.842721e+02 -5.050000e+02 -2.514436e+02
     vertex  3.097500e+02 -5.050000e+02 -2.472465e+02
     vertex  2.844000e+02 -5.050000e+02 -2.524965e+02
   endloop
 endfacet
 facet normal  1.049950e-14  1.000000e+00  3.981937e-15
   outer loop
     vertex  2.838960e+02 -5.050000e+02 -2.504518e+02
     vertex  3.097500e+02 -5.050000e+02 -2.472465e+02
     vertex  2.842721e+02 -5.050000e+02 -2.514436e+02
   endloop
 endfacet
 facet normal  1.012660e-14  1.000000e+00  6.989886e-15
   outer loop
     vertex  2.832934e+02 -5.050000e+02 -2.495788e+02
     vertex  3.097500e+02 -5.050000e+02 -2.472465e+02
     vertex  2.838960e+02 -5.050000e+02 -2.504518e+02
   endloop
 endfacet
 facet normal  9.770560e-15  1.000000e+00  1.102868e-14
   outer loop
     vertex  2.824994e+02 -5.050000e+02 -2.488754e+02
     vertex  3.097500e+02 -5.050000e+02 -2.472465e+02
     vertex  2.832934e+02 -5.050000e+02 -2.495788e+02
   endloop
 endfacet
 facet normal  2.096168e-15  1.000000e+00  2.545209e-16
   outer loop
     vertex  2.500000e+02 -5.050000e+02 -2.799965e+02
     vertex  2.756000e+02 -5.050000e+02 -2.674965e+02
     vertex  2.757278e+02 -5.050000e+02 -2.685495e+02
   endloop
 endfacet
 facet normal  1.890424e-15  1.000000e+00  7.169433e-16
   outer loop
     vertex  2.500000e+02 -5.050000e+02 -2.799965e+02
     vertex  2.757278e+02 -5.050000e+02 -2.685495e+02
     vertex  2.761040e+02 -5.050000e+02 -2.695413e+02
   endloop
 endfacet
 facet normal  1.705949e-15  1.000000e+00  1.177531e-15
   outer loop
     vertex  2.500000e+02 -5.050000e+02 -2.799965e+02
     vertex  2.761040e+02 -5.050000e+02 -2.695413e+02
     vertex  2.767065e+02 -5.050000e+02 -2.704143e+02
   endloop
 endfacet
 facet normal  1.514908e-15  1.000000e+00  1.709978e-15
   outer loop
     vertex  2.500000e+02 -5.050000e+02 -2.799965e+02
     vertex  2.767065e+02 -5.050000e+02 -2.704143e+02
     vertex  2.775005e+02 -5.050000e+02 -2.711177e+02
   endloop
 endfacet
 facet normal  1.279744e-15  1.000000e+00  2.438349e-15
   outer loop
     vertex  2.500000e+02 -5.050000e+02 -2.799965e+02
     vertex  2.775005e+02 -5.050000e+02 -2.711177e+02
     vertex  2.784397e+02 -5.050000e+02 -2.716106e+02
   endloop
 endfacet
 facet normal  6.103668e-14  1.000000e+00 -2.002192e-13
   outer loop
     vertex  2.500000e+02 -5.050000e+02 -2.799965e+02
     vertex  2.784397e+02 -5.050000e+02 -2.716106e+02
     vertex  2.794696e+02 -5.050000e+02 -2.718645e+02
   endloop
 endfacet
 facet normal -1.123772e-27  1.000000e+00  2.097006e-14
   outer loop
     vertex  2.500000e+02 -5.050000e+02 -2.799965e+02
     vertex  2.794696e+02 -5.050000e+02 -2.718645e+02
     vertex  2.805303e+02 -5.050000e+02 -2.718645e+02
   endloop
 endfacet
 facet normal  5.810646e-15  1.000000e+00 -8.449090e-16
   outer loop
     vertex  2.500000e+02 -5.050000e+02 -2.799965e+02
     vertex  2.805303e+02 -5.050000e+02 -2.718645e+02
     vertex  3.097500e+02 -5.050000e+02 -2.727465e+02
   endloop
 endfacet
 facet normal  3.175345e-15  1.000000e+00  1.213646e-13
   outer loop
     vertex  2.815602e+02 -5.050000e+02 -2.483825e+02
     vertex  3.097500e+02 -5.050000e+02 -2.472465e+02
     vertex  2.824994e+02 -5.050000e+02 -2.488754e+02
   endloop
 endfacet
 facet normal  6.932466e-15  1.000000e+00  2.812612e-14
   outer loop
     vertex  2.805303e+02 -5.050000e+02 -2.481286e+02
     vertex  3.097500e+02 -5.050000e+02 -2.472465e+02
     vertex  2.815602e+02 -5.050000e+02 -2.483825e+02
   endloop
 endfacet
 facet normal  2.220446e-15  1.000000e+00  5.890161e-29
   outer loop
     vertex  2.756000e+02 -5.050000e+02 -2.524965e+02
     vertex  2.756000e+02 -5.050000e+02 -2.674965e+02
     vertex  2.500000e+02 -5.050000e+02 -2.799965e+02
   endloop
 endfacet
 facet normal  7.491811e-28  1.000000e+00 -2.796009e-14
   outer loop
     vertex  2.500000e+02 -5.050000e+02 -2.399965e+02
     vertex  2.805303e+02 -5.050000e+02 -2.481286e+02
     vertex  2.794696e+02 -5.050000e+02 -2.481286e+02
   endloop
 endfacet
 facet normal  3.640146e-15  1.000000e+00 -1.476865e-14
   outer loop
     vertex  2.500000e+02 -5.050000e+02 -2.399965e+02
     vertex  2.794696e+02 -5.050000e+02 -2.481286e+02
     vertex  2.784397e+02 -5.050000e+02 -2.483825e+02
   endloop
 endfacet
 facet normal  4.866096e-14  1.000000e+00  1.379133e-13
   outer loop
     vertex  2.500000e+02 -5.050000e+02 -2.399965e+02
     vertex  2.784397e+02 -5.050000e+02 -2.483825e+02
     vertex  2.775005e+02 -5.050000e+02 -2.488754e+02
   endloop
 endfacet
 facet normal  3.029816e-15  1.000000e+00 -3.419955e-15
   outer loop
     vertex  2.500000e+02 -5.050000e+02 -2.399965e+02
     vertex  2.775005e+02 -5.050000e+02 -2.488754e+02
     vertex  2.767065e+02 -5.050000e+02 -2.495788e+02
   endloop
 endfacet
 facet normal  3.411897e-15  1.000000e+00 -2.355063e-15
   outer loop
     vertex  2.500000e+02 -5.050000e+02 -2.399965e+02
     vertex  2.767065e+02 -5.050000e+02 -2.495788e+02
     vertex  2.761040e+02 -5.050000e+02 -2.504518e+02
   endloop
 endfacet
 facet normal  3.780848e-15  1.000000e+00 -1.433887e-15
   outer loop
     vertex  2.500000e+02 -5.050000e+02 -2.399965e+02
     vertex  2.761040e+02 -5.050000e+02 -2.504518e+02
     vertex  2.757278e+02 -5.050000e+02 -2.514436e+02
   endloop
 endfacet
 facet normal  4.192337e-15  1.000000e+00 -5.090418e-16
   outer loop
     vertex  2.500000e+02 -5.050000e+02 -2.399965e+02
     vertex  2.757278e+02 -5.050000e+02 -2.514436e+02
     vertex  2.756000e+02 -5.050000e+02 -2.524965e+02
   endloop
 endfacet
 facet normal  7.747528e-15  1.000000e+00  1.126545e-15
   outer loop
     vertex  2.500000e+02 -5.050000e+02 -2.399965e+02
     vertex  3.097500e+02 -5.050000e+02 -2.472465e+02
     vertex  2.805303e+02 -5.050000e+02 -2.481286e+02
   endloop
 endfacet
 facet normal  3.747003e-15  1.000000e+00 -1.421085e-15
   outer loop
     vertex  2.500000e+02 -5.050000e+02 -2.399965e+02
     vertex  2.756000e+02 -5.050000e+02 -2.524965e+02
     vertex  2.500000e+02 -5.050000e+02 -2.799965e+02
   endloop
 endfacet
 facet normal  6.750156e-15  1.000000e+00 -7.093177e-15
   outer loop
     vertex  4.100000e+02 -5.050000e+02 -2.399965e+02
     vertex  3.097500e+02 -5.050000e+02 -2.472465e+02
     vertex  2.500000e+02 -5.050000e+02 -2.399965e+02
   endloop
 endfacet
 facet normal -1.400706e-27  1.000000e+00  8.624519e-14
   outer loop
     vertex  4.100000e+02 -5.050000e+02 -2.399965e+02
     vertex  3.132500e+02 -5.050000e+02 -2.472465e+02
     vertex  3.097500e+02 -5.050000e+02 -2.472465e+02
   endloop
 endfacet
 facet normal  5.090455e-15  1.000000e+00  1.831394e-14
   outer loop
     vertex  4.100000e+02 -5.050000e+02 -2.399965e+02
     vertex  3.467500e+02 -5.050000e+02 -2.472465e+02
     vertex  3.132500e+02 -5.050000e+02 -2.472465e+02
   endloop
 endfacet
 facet normal  3.248195e-14  1.000000e+00 -2.206533e-13
   outer loop
     vertex  4.100000e+02 -5.050000e+02 -2.399965e+02
     vertex  3.502500e+02 -5.050000e+02 -2.472465e+02
     vertex  3.467500e+02 -5.050000e+02 -2.472465e+02
   endloop
 endfacet
 facet normal  6.750156e-15  1.000000e+00 -7.093177e-15
   outer loop
     vertex  2.500000e+02 -5.050000e+02 -2.799965e+02
     vertex  3.502500e+02 -5.050000e+02 -2.727465e+02
     vertex  4.100000e+02 -5.050000e+02 -2.799965e+02
   endloop
 endfacet
 facet normal -2.801412e-27  1.000000e+00  8.624519e-14
   outer loop
     vertex  2.500000e+02 -5.050000e+02 -2.799965e+02
     vertex  3.467500e+02 -5.050000e+02 -2.727465e+02
     vertex  3.502500e+02 -5.050000e+02 -2.727465e+02
   endloop
 endfacet
 facet normal  5.090455e-15  1.000000e+00  1.831394e-14
   outer loop
     vertex  2.500000e+02 -5.050000e+02 -2.799965e+02
     vertex  3.132500e+02 -5.050000e+02 -2.727465e+02
     vertex  3.467500e+02 -5.050000e+02 -2.727465e+02
   endloop
 endfacet
 facet normal  3.248195e-14  1.000000e+00 -2.206533e-13
   outer loop
     vertex  2.500000e+02 -5.050000e+02 -2.799965e+02
     vertex  3.097500e+02 -5.050000e+02 -2.727465e+02
     vertex  3.132500e+02 -5.050000e+02 -2.727465e+02
   endloop
 endfacet
 facet normal -4.544724e-15 -1.000000e+00  5.129933e-15
   outer loop
     vertex  3.824994e+02 -5.100000e+02 -2.711177e+02
     vertex  4.100000e+02 -5.100000e+02 -2.799965e+02
     vertex  3.832934e+02 -5.100000e+02 -2.704143e+02
   endloop
 endfacet
 facet normal -5.117846e-15 -1.000000e+00  3.532594e-15
   outer loop
     vertex  3.838960e+02 -5.100000e+02 -2.695413e+02
     vertex  3.832934e+02 -5.100000e+02 -2.704143e+02
     vertex  4.100000e+02 -5.100000e+02 -2.799965e+02
   endloop
 endfacet
 facet normal -4.994070e-14 -1.000000e+00 -1.354750e-13
   outer loop
     vertex  3.815602e+02 -5.100000e+02 -2.716106e+02
     vertex  4.100000e+02 -5.100000e+02 -2.799965e+02
     vertex  3.824994e+02 -5.100000e+02 -2.711177e+02
   endloop
 endfacet
 facet normal -5.671273e-15 -1.000000e+00  2.150830e-15
   outer loop
     vertex  3.842721e+02 -5.100000e+02 -2.685495e+02
     vertex  3.838960e+02 -5.100000e+02 -2.695413e+02
     vertex  4.100000e+02 -5.100000e+02 -2.799965e+02
   endloop
 endfacet
 facet normal -4.550183e-15 -1.000000e+00  1.846082e-14
   outer loop
     vertex  3.805303e+02 -5.100000e+02 -2.718645e+02
     vertex  4.100000e+02 -5.100000e+02 -2.799965e+02
     vertex  3.815602e+02 -5.100000e+02 -2.716106e+02
   endloop
 endfacet
 facet normal -6.288505e-15 -1.000000e+00  7.635627e-16
   outer loop
     vertex  3.844000e+02 -5.100000e+02 -2.674965e+02
     vertex  3.842721e+02 -5.100000e+02 -2.685495e+02
     vertex  4.100000e+02 -5.100000e+02 -2.799965e+02
   endloop
 endfacet
 facet normal -1.872953e-27 -1.000000e+00  3.495011e-14
   outer loop
     vertex  3.794696e+02 -5.100000e+02 -2.718645e+02
     vertex  4.100000e+02 -5.100000e+02 -2.799965e+02
     vertex  3.805303e+02 -5.100000e+02 -2.718645e+02
   endloop
 endfacet
 facet normal -5.134781e-15 -1.000000e+00  1.421085e-15
   outer loop
     vertex  3.844000e+02 -5.100000e+02 -2.524965e+02
     vertex  4.100000e+02 -5.100000e+02 -2.799965e+02
     vertex  4.100000e+02 -5.100000e+02 -2.399965e+02
   endloop
 endfacet
 facet normal -6.661338e-15 -1.000000e+00 -1.767048e-28
   outer loop
     vertex  3.844000e+02 -5.100000e+02 -2.524965e+02
     vertex  3.844000e+02 -5.100000e+02 -2.674965e+02
     vertex  4.100000e+02 -5.100000e+02 -2.799965e+02
   endloop
 endfacet
 facet normal -4.192337e-15 -1.000000e+00 -5.090418e-16
   outer loop
     vertex  3.842721e+02 -5.100000e+02 -2.514436e+02
     vertex  3.844000e+02 -5.100000e+02 -2.524965e+02
     vertex  4.100000e+02 -5.100000e+02 -2.399965e+02
   endloop
 endfacet
 facet normal -3.780848e-15 -1.000000e+00 -1.433887e-15
   outer loop
     vertex  3.838960e+02 -5.100000e+02 -2.504518e+02
     vertex  3.842721e+02 -5.100000e+02 -2.514436e+02
     vertex  4.100000e+02 -5.100000e+02 -2.399965e+02
   endloop
 endfacet
 facet normal -3.411897e-15 -1.000000e+00 -2.355063e-15
   outer loop
     vertex  3.832934e+02 -5.100000e+02 -2.495788e+02
     vertex  3.838960e+02 -5.100000e+02 -2.504518e+02
     vertex  4.100000e+02 -5.100000e+02 -2.399965e+02
   endloop
 endfacet
 facet normal -3.029816e-15 -1.000000e+00 -3.419955e-15
   outer loop
     vertex  3.824994e+02 -5.100000e+02 -2.488754e+02
     vertex  3.832934e+02 -5.100000e+02 -2.495788e+02
     vertex  4.100000e+02 -5.100000e+02 -2.399965e+02
   endloop
 endfacet
 facet normal -2.559489e-15 -1.000000e+00 -4.876698e-15
   outer loop
     vertex  3.815602e+02 -5.100000e+02 -2.483825e+02
     vertex  3.824994e+02 -5.100000e+02 -2.488754e+02
     vertex  4.100000e+02 -5.100000e+02 -2.399965e+02
   endloop
 endfacet
 facet normal -6.194672e-14 -1.000000e+00  1.965270e-13
   outer loop
     vertex  3.805303e+02 -5.100000e+02 -2.481286e+02
     vertex  3.815602e+02 -5.100000e+02 -2.483825e+02
     vertex  4.100000e+02 -5.100000e+02 -2.399965e+02
   endloop
 endfacet
 facet normal  0.000000e+00 -1.000000e+00 -2.796009e-14
   outer loop
     vertex  3.794696e+02 -5.100000e+02 -2.481286e+02
     vertex  3.805303e+02 -5.100000e+02 -2.481286e+02
     vertex  4.100000e+02 -5.100000e+02 -2.399965e+02
   endloop
 endfacet
 facet normal -5.199350e-15 -1.000000e+00 -2.109459e-14
   outer loop
     vertex  3.502500e+02 -5.100000e+02 -2.727465e+02
     vertex  3.794696e+02 -5.100000e+02 -2.718645e+02
     vertex  3.784397e+02 -5.100000e+02 -2.716106e+02
   endloop
 endfacet
 facet normal -5.618036e-15 -1.000000e+00 -1.070427e-14
   outer loop
     vertex  3.502500e+02 -5.100000e+02 -2.727465e+02
     vertex  3.784397e+02 -5.100000e+02 -2.716106e+02
     vertex  3.775005e+02 -5.100000e+02 -2.711177e+02
   endloop
 endfacet
 facet normal -1.337109e-15 -1.000000e+00 -8.232288e-14
   outer loop
     vertex  3.502500e+02 -5.100000e+02 -2.727465e+02
     vertex  3.775005e+02 -5.100000e+02 -2.711177e+02
     vertex  3.767065e+02 -5.100000e+02 -2.704143e+02
   endloop
 endfacet
 facet normal -8.101278e-15 -1.000000e+00 -5.591908e-15
   outer loop
     vertex  3.502500e+02 -5.100000e+02 -2.727465e+02
     vertex  3.767065e+02 -5.100000e+02 -2.704143e+02
     vertex  3.761040e+02 -5.100000e+02 -2.695413e+02
   endloop
 endfacet
 facet normal -8.399604e-15 -1.000000e+00 -3.185549e-15
   outer loop
     vertex  3.502500e+02 -5.100000e+02 -2.727465e+02
     vertex  3.761040e+02 -5.100000e+02 -2.695413e+02
     vertex  3.757278e+02 -5.100000e+02 -2.685495e+02
   endloop
 endfacet
 facet normal -8.749359e-15 -1.000000e+00 -1.062365e-15
   outer loop
     vertex  3.502500e+02 -5.100000e+02 -2.727465e+02
     vertex  3.757278e+02 -5.100000e+02 -2.685495e+02
     vertex  3.756000e+02 -5.100000e+02 -2.674965e+02
   endloop
 endfacet
 facet normal -8.969376e-15 -1.000000e+00 -2.379300e-28
   outer loop
     vertex  3.502500e+02 -5.100000e+02 -2.727465e+02
     vertex  3.756000e+02 -5.100000e+02 -2.674965e+02
     vertex  3.756000e+02 -5.100000e+02 -2.524965e+02
   endloop
 endfacet
 facet normal -6.189713e-15 -1.000000e+00  1.171200e-14
   outer loop
     vertex  3.502500e+02 -5.100000e+02 -2.727465e+02
     vertex  4.100000e+02 -5.100000e+02 -2.799965e+02
     vertex  3.794696e+02 -5.100000e+02 -2.718645e+02
   endloop
 endfacet
 facet normal -4.252831e-15 -1.000000e+00 -1.199363e-14
   outer loop
     vertex  3.502500e+02 -5.100000e+02 -2.472465e+02
     vertex  3.794696e+02 -5.100000e+02 -2.481286e+02
     vertex  4.100000e+02 -5.100000e+02 -2.399965e+02
   endloop
 endfacet
 facet normal -6.562020e-15 -1.000000e+00  7.967734e-16
   outer loop
     vertex  3.502500e+02 -5.100000e+02 -2.472465e+02
     vertex  3.756000e+02 -5.100000e+02 -2.524965e+02
     vertex  3.757278e+02 -5.100000e+02 -2.514436e+02
   endloop
 endfacet
 facet normal -6.299703e-15 -1.000000e+00  2.389162e-15
   outer loop
     vertex  3.502500e+02 -5.100000e+02 -2.472465e+02
     vertex  3.757278e+02 -5.100000e+02 -2.514436e+02
     vertex  3.761040e+02 -5.100000e+02 -2.504518e+02
   endloop
 endfacet
 facet normal -6.075959e-15 -1.000000e+00  4.193931e-15
   outer loop
     vertex  3.502500e+02 -5.100000e+02 -2.472465e+02
     vertex  3.761040e+02 -5.100000e+02 -2.504518e+02
     vertex  3.767065e+02 -5.100000e+02 -2.495788e+02
   endloop
 endfacet
 facet normal  6.170031e-16 -1.000000e+00  8.011714e-14
   outer loop
     vertex  3.502500e+02 -5.100000e+02 -2.472465e+02
     vertex  3.767065e+02 -5.100000e+02 -2.495788e+02
     vertex  3.775005e+02 -5.100000e+02 -2.488754e+02
   endloop
 endfacet
 facet normal -3.745357e-15 -1.000000e+00  7.136182e-15
   outer loop
     vertex  3.502500e+02 -5.100000e+02 -2.472465e+02
     vertex  3.775005e+02 -5.100000e+02 -2.488754e+02
     vertex  3.784397e+02 -5.100000e+02 -2.483825e+02
   endloop
 endfacet
 facet normal -3.466233e-15 -1.000000e+00  1.406306e-14
   outer loop
     vertex  3.502500e+02 -5.100000e+02 -2.472465e+02
     vertex  3.784397e+02 -5.100000e+02 -2.483825e+02
     vertex  3.794696e+02 -5.100000e+02 -2.481286e+02
   endloop
 endfacet
 facet normal -7.188691e-15 -1.000000e+00 -2.229154e-15
   outer loop
     vertex  3.502500e+02 -5.100000e+02 -2.472465e+02
     vertex  3.502500e+02 -5.100000e+02 -2.727465e+02
     vertex  3.756000e+02 -5.100000e+02 -2.524965e+02
   endloop
 endfacet
 facet normal -5.090455e-15 -1.000000e+00  2.229154e-15
   outer loop
     vertex  3.132500e+02 -5.100000e+02 -2.472465e+02
     vertex  3.467500e+02 -5.100000e+02 -2.727465e+02
     vertex  3.467500e+02 -5.100000e+02 -2.472465e+02
   endloop
 endfacet
 facet normal -5.090455e-15 -1.000000e+00  2.229154e-15
   outer loop
     vertex  3.132500e+02 -5.100000e+02 -2.472465e+02
     vertex  3.132500e+02 -5.100000e+02 -2.727465e+02
     vertex  3.467500e+02 -5.100000e+02 -2.727465e+02
   endloop
 endfacet
 facet normal -7.816448e-15 -1.000000e+00  8.822946e-15
   outer loop
     vertex  2.824994e+02 -5.100000e+02 -2.711177e+02
     vertex  3.097500e+02 -5.100000e+02 -2.727465e+02
     vertex  2.832934e+02 -5.100000e+02 -2.704143e+02
   endloop
 endfacet
 facet normal -8.101278e-15 -1.000000e+00  5.591908e-15
   outer loop
     vertex  2.838960e+02 -5.100000e+02 -2.695413e+02
     vertex  2.832934e+02 -5.100000e+02 -2.704143e+02
     vertex  3.097500e+02 -5.100000e+02 -2.727465e+02
   endloop
 endfacet
 facet normal -1.302666e-15 -1.000000e+00  1.177965e-13
   outer loop
     vertex  2.815602e+02 -5.100000e+02 -2.716106e+02
     vertex  3.097500e+02 -5.100000e+02 -2.727465e+02
     vertex  2.824994e+02 -5.100000e+02 -2.711177e+02
   endloop
 endfacet
 facet normal -8.399604e-15 -1.000000e+00  3.185549e-15
   outer loop
     vertex  2.842721e+02 -5.100000e+02 -2.685495e+02
     vertex  2.838960e+02 -5.100000e+02 -2.695413e+02
     vertex  3.097500e+02 -5.100000e+02 -2.727465e+02
   endloop
 endfacet
 facet normal -5.199350e-15 -1.000000e+00  2.109459e-14
   outer loop
     vertex  2.805303e+02 -5.100000e+02 -2.718645e+02
     vertex  3.097500e+02 -5.100000e+02 -2.727465e+02
     vertex  2.815602e+02 -5.100000e+02 -2.716106e+02
   endloop
 endfacet
 facet normal -8.749359e-15 -1.000000e+00  1.062365e-15
   outer loop
     vertex  2.844000e+02 -5.100000e+02 -2.674965e+02
     vertex  2.842721e+02 -5.100000e+02 -2.685495e+02
     vertex  3.097500e+02 -5.100000e+02 -2.727465e+02
   endloop
 endfacet
 facet normal -1.075006e-14 -1.000000e+00 -2.229154e-15
   outer loop
     vertex  2.844000e+02 -5.100000e+02 -2.524965e+02
     vertex  3.097500e+02 -5.100000e+02 -2.727465e+02
     vertex  3.097500e+02 -5.100000e+02 -2.472465e+02
   endloop
 endfacet
 facet normal -8.969376e-15 -1.000000e+00 -2.379300e-28
   outer loop
     vertex  2.844000e+02 -5.100000e+02 -2.524965e+02
     vertex  2.844000e+02 -5.100000e+02 -2.674965e+02
     vertex  3.097500e+02 -5.100000e+02 -2.727465e+02
   endloop
 endfacet
 facet normal -1.093670e-14 -1.000000e+00 -1.327956e-15
   outer loop
     vertex  2.842721e+02 -5.100000e+02 -2.514436e+02
     vertex  2.844000e+02 -5.100000e+02 -2.524965e+02
     vertex  3.097500e+02 -5.100000e+02 -2.472465e+02
   endloop
 endfacet
 facet normal -1.049950e-14 -1.000000e+00 -3.981937e-15
   outer loop
     vertex  2.838960e+02 -5.100000e+02 -2.504518e+02
     vertex  2.842721e+02 -5.100000e+02 -2.514436e+02
     vertex  3.097500e+02 -5.100000e+02 -2.472465e+02
   endloop
 endfacet
 facet normal -1.012660e-14 -1.000000e+00 -6.989886e-15
   outer loop
     vertex  2.832934e+02 -5.100000e+02 -2.495788e+02
     vertex  2.838960e+02 -5.100000e+02 -2.504518e+02
     vertex  3.097500e+02 -5.100000e+02 -2.472465e+02
   endloop
 endfacet
 facet normal -9.770560e-15 -1.000000e+00 -1.102868e-14
   outer loop
     vertex  2.824994e+02 -5.100000e+02 -2.488754e+02
     vertex  2.832934e+02 -5.100000e+02 -2.495788e+02
     vertex  3.097500e+02 -5.100000e+02 -2.472465e+02
   endloop
 endfacet
 facet normal  1.123772e-27 -1.000000e+00 -2.097006e-14
   outer loop
     vertex  2.500000e+02 -5.100000e+02 -2.799965e+02
     vertex  2.805303e+02 -5.100000e+02 -2.718645e+02
     vertex  2.794696e+02 -5.100000e+02 -2.718645e+02
   endloop
 endfacet
 facet normal -6.103668e-14 -1.000000e+00  2.002192e-13
   outer loop
     vertex  2.500000e+02 -5.100000e+02 -2.799965e+02
     vertex  2.794696e+02 -5.100000e+02 -2.718645e+02
     vertex  2.784397e+02 -5.100000e+02 -2.716106e+02
   endloop
 endfacet
 facet normal -1.279744e-15 -1.000000e+00 -2.438349e-15
   outer loop
     vertex  2.500000e+02 -5.100000e+02 -2.799965e+02
     vertex  2.784397e+02 -5.100000e+02 -2.716106e+02
     vertex  2.775005e+02 -5.100000e+02 -2.711177e+02
   endloop
 endfacet
 facet normal -1.514908e-15 -1.000000e+00 -1.709978e-15
   outer loop
     vertex  2.500000e+02 -5.100000e+02 -2.799965e+02
     vertex  2.775005e+02 -5.100000e+02 -2.711177e+02
     vertex  2.767065e+02 -5.100000e+02 -2.704143e+02
   endloop
 endfacet
 facet normal -1.705949e-15 -1.000000e+00 -1.177531e-15
   outer loop
     vertex  2.500000e+02 -5.100000e+02 -2.799965e+02
     vertex  2.767065e+02 -5.100000e+02 -2.704143e+02
     vertex  2.761040e+02 -5.100000e+02 -2.695413e+02
   endloop
 endfacet
 facet normal -1.890424e-15 -1.000000e+00 -7.169433e-16
   outer loop
     vertex  2.500000e+02 -5.100000e+02 -2.799965e+02
     vertex  2.761040e+02 -5.100000e+02 -2.695413e+02
     vertex  2.757278e+02 -5.100000e+02 -2.685495e+02
   endloop
 endfacet
 facet normal -2.096168e-15 -1.000000e+00 -2.545209e-16
   outer loop
     vertex  2.500000e+02 -5.100000e+02 -2.799965e+02
     vertex  2.757278e+02 -5.100000e+02 -2.685495e+02
     vertex  2.756000e+02 -5.100000e+02 -2.674965e+02
   endloop
 endfacet
 facet normal -5.810646e-15 -1.000000e+00  8.449090e-16
   outer loop
     vertex  2.500000e+02 -5.100000e+02 -2.799965e+02
     vertex  3.097500e+02 -5.100000e+02 -2.727465e+02
     vertex  2.805303e+02 -5.100000e+02 -2.718645e+02
   endloop
 endfacet
 facet normal -3.175345e-15 -1.000000e+00 -1.213646e-13
   outer loop
     vertex  2.815602e+02 -5.100000e+02 -2.483825e+02
     vertex  2.824994e+02 -5.100000e+02 -2.488754e+02
     vertex  3.097500e+02 -5.100000e+02 -2.472465e+02
   endloop
 endfacet
 facet normal -6.932466e-15 -1.000000e+00 -2.812612e-14
   outer loop
     vertex  2.805303e+02 -5.100000e+02 -2.481286e+02
     vertex  2.815602e+02 -5.100000e+02 -2.483825e+02
     vertex  3.097500e+02 -5.100000e+02 -2.472465e+02
   endloop
 endfacet
 facet normal -2.220446e-15 -1.000000e+00 -5.890161e-29
   outer loop
     vertex  2.756000e+02 -5.100000e+02 -2.524965e+02
     vertex  2.500000e+02 -5.100000e+02 -2.799965e+02
     vertex  2.756000e+02 -5.100000e+02 -2.674965e+02
   endloop
 endfacet
 facet normal -4.192337e-15 -1.000000e+00  5.090418e-16
   outer loop
     vertex  2.500000e+02 -5.100000e+02 -2.399965e+02
     vertex  2.756000e+02 -5.100000e+02 -2.524965e+02
     vertex  2.757278e+02 -5.100000e+02 -2.514436e+02
   endloop
 endfacet
 facet normal -3.780848e-15 -1.000000e+00  1.433887e-15
   outer loop
     vertex  2.500000e+02 -5.100000e+02 -2.399965e+02
     vertex  2.757278e+02 -5.100000e+02 -2.514436e+02
     vertex  2.761040e+02 -5.100000e+02 -2.504518e+02
   endloop
 endfacet
 facet normal -3.411897e-15 -1.000000e+00  2.355063e-15
   outer loop
     vertex  2.500000e+02 -5.100000e+02 -2.399965e+02
     vertex  2.761040e+02 -5.100000e+02 -2.504518e+02
     vertex  2.767065e+02 -5.100000e+02 -2.495788e+02
   endloop
 endfacet
 facet normal -3.029816e-15 -1.000000e+00  3.419955e-15
   outer loop
     vertex  2.500000e+02 -5.100000e+02 -2.399965e+02
     vertex  2.767065e+02 -5.100000e+02 -2.495788e+02
     vertex  2.775005e+02 -5.100000e+02 -2.488754e+02
   endloop
 endfacet
 facet normal -4.866096e-14 -1.000000e+00 -1.379133e-13
   outer loop
     vertex  2.500000e+02 -5.100000e+02 -2.399965e+02
     vertex  2.775005e+02 -5.100000e+02 -2.488754e+02
     vertex  2.784397e+02 -5.100000e+02 -2.483825e+02
   endloop
 endfacet
 facet normal -3.640146e-15 -1.000000e+00  1.476865e-14
   outer loop
     vertex  2.500000e+02 -5.100000e+02 -2.399965e+02
     vertex  2.784397e+02 -5.100000e+02 -2.483825e+02
     vertex  2.794696e+02 -5.100000e+02 -2.481286e+02
   endloop
 endfacet
 facet normal -7.491811e-28 -1.000000e+00  2.796009e-14
   outer loop
     vertex  2.500000e+02 -5.100000e+02 -2.399965e+02
     vertex  2.794696e+02 -5.100000e+02 -2.481286e+02
     vertex  2.805303e+02 -5.100000e+02 -2.481286e+02
   endloop
 endfacet
 facet normal -3.747003e-15 -1.000000e+00  1.421085e-15
   outer loop
     vertex  2.500000e+02 -5.100000e+02 -2.399965e+02
     vertex  2.500000e+02 -5.100000e+02 -2.799965e+02
     vertex  2.756000e+02 -5.100000e+02 -2.524965e+02
   endloop
 endfacet
 facet normal -7.747528e-15 -1.000000e+00 -1.126545e-15
   outer loop
     vertex  2.500000e+02 -5.100000e+02 -2.399965e+02
     vertex  2.805303e+02 -5.100000e+02 -2.481286e+02
     vertex  3.097500e+02 -5.100000e+02 -2.472465e+02
   endloop
 endfacet
 facet normal -6.750156e-15 -1.000000e+00  7.093177e-15
   outer loop
     vertex  4.100000e+02 -5.100000e+02 -2.399965e+02
     vertex  2.500000e+02 -5.100000e+02 -2.399965e+02
     vertex  3.097500e+02 -5.100000e+02 -2.472465e+02
   endloop
 endfacet
 facet normal  2.101059e-27 -1.000000e+00 -8.624519e-14
   outer loop
     vertex  4.100000e+02 -5.100000e+02 -2.399965e+02
     vertex  3.097500e+02 -5.100000e+02 -2.472465e+02
     vertex  3.132500e+02 -5.100000e+02 -2.472465e+02
   endloop
 endfacet
 facet normal -5.090455e-15 -1.000000e+00 -1.831394e-14
   outer loop
     vertex  4.100000e+02 -5.100000e+02 -2.399965e+02
     vertex  3.132500e+02 -5.100000e+02 -2.472465e+02
     vertex  3.467500e+02 -5.100000e+02 -2.472465e+02
   endloop
 endfacet
 facet normal -3.248195e-14 -1.000000e+00  2.206533e-13
   outer loop
     vertex  4.100000e+02 -5.100000e+02 -2.399965e+02
     vertex  3.467500e+02 -5.100000e+02 -2.472465e+02
     vertex  3.502500e+02 -5.100000e+02 -2.472465e+02
   endloop
 endfacet
 facet normal -6.750156e-15 -1.000000e+00  7.093177e-15
   outer loop
     vertex  2.500000e+02 -5.100000e+02 -2.799965e+02
     vertex  4.100000e+02 -5.100000e+02 -2.799965e+02
     vertex  3.502500e+02 -5.100000e+02 -2.727465e+02
   endloop
 endfacet
 facet normal  2.801412e-27 -1.000000e+00 -8.624519e-14
   outer loop
     vertex  2.500000e+02 -5.100000e+02 -2.799965e+02
     vertex  3.502500e+02 -5.100000e+02 -2.727465e+02
     vertex  3.467500e+02 -5.100000e+02 -2.727465e+02
   endloop
 endfacet
 facet normal -5.090455e-15 -1.000000e+00 -1.831394e-14
   outer loop
     vertex  2.500000e+02 -5.100000e+02 -2.799965e+02
     vertex  3.467500e+02 -5.100000e+02 -2.727465e+02
     vertex  3.132500e+02 -5.100000e+02 -2.727465e+02
   endloop
 endfacet
 facet normal -3.248195e-14 -1.000000e+00  2.206533e-13
   outer loop
     vertex  2.500000e+02 -5.100000e+02 -2.799965e+02
     vertex  3.132500e+02 -5.100000e+02 -2.727465e+02
     vertex  3.097500e+02 -5.100000e+02 -2.727465e+02
   endloop
 endfacet
endsolid
