solid 
 facet normal -6.946584e-01  1.703739e-15  7.193398e-01
   outer loop
     vertex -6.010024e+02 -2.384953e+01  2.880056e+01
     vertex -6.010024e+02 -2.084953e+01  2.880056e+01
     vertex -6.050000e+02 -2.084953e+01  2.494016e+01
   endloop
 endfacet
 facet normal -6.946584e-01 -1.323185e-18  7.193398e-01
   outer loop
     vertex -6.010024e+02 -2.384953e+01  2.880056e+01
     vertex -6.050000e+02 -2.084953e+01  2.494016e+01
     vertex -6.050000e+02 -2.384953e+01  2.494016e+01
   endloop
 endfacet
 facet normal -1.000000e+00 -5.736769e-30 -3.633203e-14
   outer loop
     vertex -6.050000e+02 -2.084953e+01 -2.199646e+01
     vertex -6.050000e+02 -2.384953e+01  2.494016e+01
     vertex -6.050000e+02 -2.084953e+01  2.494016e+01
   endloop
 endfacet
 facet normal -1.000000e+00 -4.302577e-29 -3.633203e-14
   outer loop
     vertex -6.050000e+02 -2.384953e+01 -2.199646e+01
     vertex -6.050000e+02 -2.384953e+01  2.494016e+01
     vertex -6.050000e+02 -2.084953e+01 -2.199646e+01
   endloop
 endfacet
 facet normal  1.742688e-15  1.000000e+00 -2.724902e-15
   outer loop
     vertex -6.010024e+02 -2.084953e+01  2.880056e+01
     vertex -6.050000e+02 -2.084953e+01 -2.199646e+01
     vertex -6.050000e+02 -2.084953e+01  2.494016e+01
   endloop
 endfacet
 facet normal  1.443290e-15  1.000000e+00 -2.667804e-15
   outer loop
     vertex  1.910024e+02 -2.084953e+01  1.143138e+00
     vertex  1.950000e+02 -2.084953e+01 -2.199646e+01
     vertex -6.050000e+02 -2.084953e+01 -2.199646e+01
   endloop
 endfacet
 facet normal  6.504508e-16  1.000000e+00 -2.804774e-15
   outer loop
     vertex  1.910024e+02 -2.084953e+01  1.143138e+00
     vertex  1.950000e+02 -2.084953e+01 -2.996460e+00
     vertex  1.950000e+02 -2.084953e+01 -2.199646e+01
   endloop
 endfacet
 facet normal  1.444267e-15  1.000000e+00 -2.701418e-15
   outer loop
     vertex  1.910024e+02 -2.084953e+01  1.143138e+00
     vertex -6.050000e+02 -2.084953e+01 -2.199646e+01
     vertex -6.010024e+02 -2.084953e+01  2.880056e+01
   endloop
 endfacet
 facet normal  7.193398e-01  9.045250e-16  6.946584e-01
   outer loop
     vertex  1.910024e+02 -2.384953e+01  1.143138e+00
     vertex  1.950000e+02 -2.384953e+01 -2.996460e+00
     vertex  1.950000e+02 -2.084953e+01 -2.996460e+00
   endloop
 endfacet
 facet normal  7.193398e-01  8.226408e-16  6.946584e-01
   outer loop
     vertex  1.910024e+02 -2.084953e+01  1.143138e+00
     vertex  1.910024e+02 -2.384953e+01  1.143138e+00
     vertex  1.950000e+02 -2.084953e+01 -2.996460e+00
   endloop
 endfacet
 facet normal  1.000000e+00  5.668727e-29  3.889287e-14
   outer loop
     vertex  1.950000e+02 -2.384953e+01 -2.996460e+00
     vertex  1.950000e+02 -2.384953e+01 -2.199646e+01
     vertex  1.950000e+02 -2.084953e+01 -2.199646e+01
   endloop
 endfacet
 facet normal  1.000000e+00  4.605841e-29  3.889287e-14
   outer loop
     vertex  1.950000e+02 -2.384953e+01 -2.996460e+00
     vertex  1.950000e+02 -2.084953e+01 -2.199646e+01
     vertex  1.950000e+02 -2.084953e+01 -2.996460e+00
   endloop
 endfacet
 facet normal  3.489950e-02  1.588738e-15  9.993908e-01
   outer loop
     vertex -6.010024e+02 -2.084953e+01  2.880056e+01
     vertex  1.910024e+02 -2.384953e+01  1.143138e+00
     vertex  1.910024e+02 -2.084953e+01  1.143138e+00
   endloop
 endfacet
 facet normal  3.489950e-02  2.367033e-15  9.993908e-01
   outer loop
     vertex -6.010024e+02 -2.384953e+01  2.880056e+01
     vertex  1.910024e+02 -2.384953e+01  1.143138e+00
     vertex -6.010024e+02 -2.084953e+01  2.880056e+01
   endloop
 endfacet
 facet normal  3.911982e-14 -1.184238e-15 -1.000000e+00
   outer loop
     vertex  1.950000e+02 -2.384953e+01 -2.199646e+01
     vertex -6.050000e+02 -2.084953e+01 -2.199646e+01
     vertex  1.950000e+02 -2.084953e+01 -2.199646e+01
   endloop
 endfacet
 facet normal  3.911982e-14 -1.184238e-15 -1.000000e+00
   outer loop
     vertex  1.950000e+02 -2.384953e+01 -2.199646e+01
     vertex -6.050000e+02 -2.384953e+01 -2.199646e+01
     vertex -6.050000e+02 -2.084953e+01 -2.199646e+01
   endloop
 endfacet
 facet normal -1.742688e-15 -1.000000e+00  2.724902e-15
   outer loop
     vertex -6.010024e+02 -2.384953e+01  2.880056e+01
     vertex -6.050000e+02 -2.384953e+01  2.494016e+01
     vertex -6.050000e+02 -2.384953e+01 -2.199646e+01
   endloop
 endfacet
 facet normal -1.443290e-15 -1.000000e+00  2.667804e-15
   outer loop
     vertex  1.910024e+02 -2.384953e+01  1.143138e+00
     vertex -6.050000e+02 -2.384953e+01 -2.199646e+01
     vertex  1.950000e+02 -2.384953e+01 -2.199646e+01
   endloop
 endfacet
 facet normal -6.504508e-16 -1.000000e+00  2.804774e-15
   outer loop
     vertex  1.910024e+02 -2.384953e+01  1.143138e+00
     vertex  1.950000e+02 -2.384953e+01 -2.199646e+01
     vertex  1.950000e+02 -2.384953e+01 -2.996460e+00
   endloop
 endfacet
 facet normal -1.444267e-15 -1.000000e+00  2.701418e-15
   outer loop
     vertex  1.910024e+02 -2.384953e+01  1.143138e+00
     vertex -6.010024e+02 -2.384953e+01  2.880056e+01
     vertex -6.050000e+02 -2.384953e+01 -2.199646e+01
   endloop
 endfacet
endsolid
