solid 
 facet normal  3.354620e-01 -3.744589e-01  8.644338e-01
   outer loop
     vertex -3.337607e+02  4.833525e+02 -2.828413e+02
     vertex -3.323981e+02  4.834912e+02 -2.833101e+02
     vertex -3.328630e+02  4.841568e+02 -2.828413e+02
   endloop
 endfacet
 facet normal  3.354620e-01 -3.744589e-01  8.644338e-01
   outer loop
     vertex -3.337607e+02  4.833525e+02 -2.828413e+02
     vertex -3.331501e+02  4.828175e+02 -2.833101e+02
     vertex -3.323981e+02  4.834912e+02 -2.833101e+02
   endloop
 endfacet
 facet normal  4.153280e-01 -2.832965e-01  8.644338e-01
   outer loop
     vertex -3.344400e+02  4.823567e+02 -2.828413e+02
     vertex -3.337190e+02  4.819834e+02 -2.833101e+02
     vertex -3.331501e+02  4.828175e+02 -2.833101e+02
   endloop
 endfacet
 facet normal  4.153280e-01 -2.832965e-01  8.644338e-01
   outer loop
     vertex -3.344400e+02  4.823567e+02 -2.828413e+02
     vertex -3.331501e+02  4.828175e+02 -2.833101e+02
     vertex -3.337607e+02  4.833525e+02 -2.828413e+02
   endloop
 endfacet
 facet normal  4.710566e-01 -1.756699e-01  8.644338e-01
   outer loop
     vertex -3.348611e+02  4.812274e+02 -2.828413e+02
     vertex -3.340718e+02  4.810375e+02 -2.833101e+02
     vertex -3.337190e+02  4.819834e+02 -2.833101e+02
   endloop
 endfacet
 facet normal  4.710566e-01 -1.756699e-01  8.644338e-01
   outer loop
     vertex -3.348611e+02  4.812274e+02 -2.828413e+02
     vertex -3.337190e+02  4.819834e+02 -2.833101e+02
     vertex -3.344400e+02  4.823567e+02 -2.828413e+02
   endloop
 endfacet
 facet normal  4.994091e-01 -5.783407e-02  8.644338e-01
   outer loop
     vertex -3.349998e+02  4.800300e+02 -2.828413e+02
     vertex -3.341879e+02  4.800345e+02 -2.833101e+02
     vertex -3.340718e+02  4.810375e+02 -2.833101e+02
   endloop
 endfacet
 facet normal  4.994091e-01 -5.783407e-02  8.644338e-01
   outer loop
     vertex -3.349998e+02  4.800300e+02 -2.828413e+02
     vertex -3.340718e+02  4.810375e+02 -2.833101e+02
     vertex -3.348611e+02  4.812274e+02 -2.828413e+02
   endloop
 endfacet
 facet normal  4.987378e-01  6.336291e-02  8.644338e-01
   outer loop
     vertex -3.348479e+02  4.788343e+02 -2.828413e+02
     vertex -3.340607e+02  4.790330e+02 -2.833101e+02
     vertex -3.341879e+02  4.800345e+02 -2.833101e+02
   endloop
 endfacet
 facet normal  4.987378e-01  6.336291e-02  8.644338e-01
   outer loop
     vertex -3.348479e+02  4.788343e+02 -2.828413e+02
     vertex -3.341879e+02  4.800345e+02 -2.833101e+02
     vertex -3.349998e+02  4.800300e+02 -2.828413e+02
   endloop
 endfacet
 facet normal  4.690816e-01  1.808775e-01  8.644338e-01
   outer loop
     vertex -3.344142e+02  4.777097e+02 -2.828413e+02
     vertex -3.336974e+02  4.780910e+02 -2.833101e+02
     vertex -3.340607e+02  4.790330e+02 -2.833101e+02
   endloop
 endfacet
 facet normal  4.690816e-01  1.808775e-01  8.644338e-01
   outer loop
     vertex -3.344142e+02  4.777097e+02 -2.828413e+02
     vertex -3.340607e+02  4.790330e+02 -2.833101e+02
     vertex -3.348479e+02  4.788343e+02 -2.828413e+02
   endloop
 endfacet
 facet normal  4.121641e-01  2.878801e-01  8.644338e-01
   outer loop
     vertex -3.337240e+02  4.767215e+02 -2.828413e+02
     vertex -3.331193e+02  4.772633e+02 -2.833101e+02
     vertex -3.336974e+02  4.780910e+02 -2.833101e+02
   endloop
 endfacet
 facet normal  4.121641e-01  2.878801e-01  8.644338e-01
   outer loop
     vertex -3.337240e+02  4.767215e+02 -2.828413e+02
     vertex -3.336974e+02  4.780910e+02 -2.833101e+02
     vertex -3.344142e+02  4.777097e+02 -2.828413e+02
   endloop
 endfacet
 facet normal  3.312932e-01  3.781521e-01  8.644338e-01
   outer loop
     vertex -3.328174e+02  4.759272e+02 -2.828413e+02
     vertex -3.323599e+02  4.765980e+02 -2.833101e+02
     vertex -3.331193e+02  4.772633e+02 -2.833101e+02
   endloop
 endfacet
 facet normal  3.312932e-01  3.781521e-01  8.644338e-01
   outer loop
     vertex -3.328174e+02  4.759272e+02 -2.828413e+02
     vertex -3.331193e+02  4.772633e+02 -2.833101e+02
     vertex -3.337240e+02  4.767215e+02 -2.828413e+02
   endloop
 endfacet
 facet normal  2.311687e-01  4.464474e-01  8.644338e-01
   outer loop
     vertex -3.317470e+02  4.753730e+02 -2.828413e+02
     vertex -3.314633e+02  4.761337e+02 -2.833101e+02
     vertex -3.323599e+02  4.765980e+02 -2.833101e+02
   endloop
 endfacet
 facet normal  2.311687e-01  4.464474e-01  8.644338e-01
   outer loop
     vertex -3.317470e+02  4.753730e+02 -2.828413e+02
     vertex -3.323599e+02  4.765980e+02 -2.833101e+02
     vertex -3.328174e+02  4.759272e+02 -2.828413e+02
   endloop
 endfacet
 facet normal  1.176095e-01  4.887967e-01  8.644338e-01
   outer loop
     vertex -3.305751e+02  4.750910e+02 -2.828413e+02
     vertex -3.304817e+02  4.758975e+02 -2.833101e+02
     vertex -3.314633e+02  4.761337e+02 -2.833101e+02
   endloop
 endfacet
 facet normal  1.176095e-01  4.887967e-01  8.644338e-01
   outer loop
     vertex -3.305751e+02  4.750910e+02 -2.828413e+02
     vertex -3.314633e+02  4.761337e+02 -2.833101e+02
     vertex -3.317470e+02  4.753730e+02 -2.828413e+02
   endloop
 endfacet
 facet normal -2.784724e-03  5.027390e-01  8.644338e-01
   outer loop
     vertex -3.293698e+02  4.750977e+02 -2.828413e+02
     vertex -3.294721e+02  4.759031e+02 -2.833101e+02
     vertex -3.304817e+02  4.758975e+02 -2.833101e+02
   endloop
 endfacet
 facet normal -2.784724e-03  5.027390e-01  8.644338e-01
   outer loop
     vertex -3.293698e+02  4.750977e+02 -2.828413e+02
     vertex -3.304817e+02  4.758975e+02 -2.833101e+02
     vertex -3.305751e+02  4.750910e+02 -2.828413e+02
   endloop
 endfacet
 facet normal -1.230171e-01  4.874639e-01  8.644338e-01
   outer loop
     vertex -3.282011e+02  4.753926e+02 -2.828413e+02
     vertex -3.294721e+02  4.759031e+02 -2.833101e+02
     vertex -3.293698e+02  4.750977e+02 -2.828413e+02
   endloop
 endfacet
 facet normal -1.230171e-01  4.874639e-01  8.644338e-01
   outer loop
     vertex -3.282011e+02  4.753926e+02 -2.828413e+02
     vertex -3.284932e+02  4.761502e+02 -2.833101e+02
     vertex -3.294721e+02  4.759031e+02 -2.833101e+02
   endloop
 endfacet
 facet normal -2.361002e-01  4.438591e-01  8.644338e-01
   outer loop
     vertex -3.271369e+02  4.759587e+02 -2.828413e+02
     vertex -3.284932e+02  4.761502e+02 -2.833101e+02
     vertex -3.282011e+02  4.753926e+02 -2.828413e+02
   endloop
 endfacet
 facet normal -2.361002e-01  4.438591e-01  8.644338e-01
   outer loop
     vertex -3.271369e+02  4.759587e+02 -2.828413e+02
     vertex -3.276019e+02  4.766243e+02 -2.833101e+02
     vertex -3.284932e+02  4.761502e+02 -2.833101e+02
   endloop
 endfacet
 facet normal -3.354620e-01  3.744589e-01  8.644338e-01
   outer loop
     vertex -3.262392e+02  4.767630e+02 -2.828413e+02
     vertex -3.276019e+02  4.766243e+02 -2.833101e+02
     vertex -3.271369e+02  4.759587e+02 -2.828413e+02
   endloop
 endfacet
 facet normal -3.354620e-01  3.744589e-01  8.644338e-01
   outer loop
     vertex -3.262392e+02  4.767630e+02 -2.828413e+02
     vertex -3.268499e+02  4.772980e+02 -2.833101e+02
     vertex -3.276019e+02  4.766243e+02 -2.833101e+02
   endloop
 endfacet
 facet normal -4.153280e-01  2.832965e-01  8.644338e-01
   outer loop
     vertex -3.255600e+02  4.777587e+02 -2.828413e+02
     vertex -3.268499e+02  4.772980e+02 -2.833101e+02
     vertex -3.262392e+02  4.767630e+02 -2.828413e+02
   endloop
 endfacet
 facet normal -4.153280e-01  2.832965e-01  8.644338e-01
   outer loop
     vertex -3.255600e+02  4.777587e+02 -2.828413e+02
     vertex -3.262809e+02  4.781320e+02 -2.833101e+02
     vertex -3.268499e+02  4.772980e+02 -2.833101e+02
   endloop
 endfacet
 facet normal -4.710566e-01  1.756699e-01  8.644338e-01
   outer loop
     vertex -3.251388e+02  4.788881e+02 -2.828413e+02
     vertex -3.262809e+02  4.781320e+02 -2.833101e+02
     vertex -3.255600e+02  4.777587e+02 -2.828413e+02
   endloop
 endfacet
 facet normal -4.710566e-01  1.756699e-01  8.644338e-01
   outer loop
     vertex -3.251388e+02  4.788881e+02 -2.828413e+02
     vertex -3.259282e+02  4.790780e+02 -2.833101e+02
     vertex -3.262809e+02  4.781320e+02 -2.833101e+02
   endloop
 endfacet
 facet normal -4.994091e-01  5.783407e-02  8.644338e-01
   outer loop
     vertex -3.250001e+02  4.800854e+02 -2.828413e+02
     vertex -3.259282e+02  4.790780e+02 -2.833101e+02
     vertex -3.251388e+02  4.788881e+02 -2.828413e+02
   endloop
 endfacet
 facet normal -4.994091e-01  5.783407e-02  8.644338e-01
   outer loop
     vertex -3.250001e+02  4.800854e+02 -2.828413e+02
     vertex -3.258120e+02  4.800809e+02 -2.833101e+02
     vertex -3.259282e+02  4.790780e+02 -2.833101e+02
   endloop
 endfacet
 facet normal -4.987378e-01 -6.336291e-02  8.644338e-01
   outer loop
     vertex -3.251521e+02  4.812812e+02 -2.828413e+02
     vertex -3.258120e+02  4.800809e+02 -2.833101e+02
     vertex -3.250001e+02  4.800854e+02 -2.828413e+02
   endloop
 endfacet
 facet normal -4.987378e-01 -6.336291e-02  8.644338e-01
   outer loop
     vertex -3.251521e+02  4.812812e+02 -2.828413e+02
     vertex -3.259393e+02  4.810825e+02 -2.833101e+02
     vertex -3.258120e+02  4.800809e+02 -2.833101e+02
   endloop
 endfacet
 facet normal -4.690816e-01 -1.808775e-01  8.644338e-01
   outer loop
     vertex -3.255857e+02  4.824058e+02 -2.828413e+02
     vertex -3.259393e+02  4.810825e+02 -2.833101e+02
     vertex -3.251521e+02  4.812812e+02 -2.828413e+02
   endloop
 endfacet
 facet normal -4.690816e-01 -1.808775e-01  8.644338e-01
   outer loop
     vertex -3.255857e+02  4.824058e+02 -2.828413e+02
     vertex -3.263025e+02  4.820245e+02 -2.833101e+02
     vertex -3.259393e+02  4.810825e+02 -2.833101e+02
   endloop
 endfacet
 facet normal -4.121641e-01 -2.878801e-01  8.644338e-01
   outer loop
     vertex -3.262759e+02  4.833940e+02 -2.828413e+02
     vertex -3.268806e+02  4.828522e+02 -2.833101e+02
     vertex -3.263025e+02  4.820245e+02 -2.833101e+02
   endloop
 endfacet
 facet normal -4.121641e-01 -2.878801e-01  8.644338e-01
   outer loop
     vertex -3.262759e+02  4.833940e+02 -2.828413e+02
     vertex -3.263025e+02  4.820245e+02 -2.833101e+02
     vertex -3.255857e+02  4.824058e+02 -2.828413e+02
   endloop
 endfacet
 facet normal -3.312932e-01 -3.781521e-01  8.644338e-01
   outer loop
     vertex -3.271825e+02  4.841882e+02 -2.828413e+02
     vertex -3.276400e+02  4.835175e+02 -2.833101e+02
     vertex -3.268806e+02  4.828522e+02 -2.833101e+02
   endloop
 endfacet
 facet normal -3.312932e-01 -3.781521e-01  8.644338e-01
   outer loop
     vertex -3.271825e+02  4.841882e+02 -2.828413e+02
     vertex -3.268806e+02  4.828522e+02 -2.833101e+02
     vertex -3.262759e+02  4.833940e+02 -2.828413e+02
   endloop
 endfacet
 facet normal -2.311687e-01 -4.464474e-01  8.644338e-01
   outer loop
     vertex -3.282529e+02  4.847425e+02 -2.828413e+02
     vertex -3.285366e+02  4.839817e+02 -2.833101e+02
     vertex -3.276400e+02  4.835175e+02 -2.833101e+02
   endloop
 endfacet
 facet normal -2.311687e-01 -4.464474e-01  8.644338e-01
   outer loop
     vertex -3.282529e+02  4.847425e+02 -2.828413e+02
     vertex -3.276400e+02  4.835175e+02 -2.833101e+02
     vertex -3.271825e+02  4.841882e+02 -2.828413e+02
   endloop
 endfacet
 facet normal -1.176095e-01 -4.887967e-01  8.644338e-01
   outer loop
     vertex -3.294248e+02  4.850244e+02 -2.828413e+02
     vertex -3.295182e+02  4.842179e+02 -2.833101e+02
     vertex -3.285366e+02  4.839817e+02 -2.833101e+02
   endloop
 endfacet
 facet normal -1.176095e-01 -4.887967e-01  8.644338e-01
   outer loop
     vertex -3.294248e+02  4.850244e+02 -2.828413e+02
     vertex -3.285366e+02  4.839817e+02 -2.833101e+02
     vertex -3.282529e+02  4.847425e+02 -2.828413e+02
   endloop
 endfacet
 facet normal  2.784724e-03 -5.027390e-01  8.644338e-01
   outer loop
     vertex -3.306301e+02  4.850178e+02 -2.828413e+02
     vertex -3.305278e+02  4.842123e+02 -2.833101e+02
     vertex -3.295182e+02  4.842179e+02 -2.833101e+02
   endloop
 endfacet
 facet normal  2.784724e-03 -5.027390e-01  8.644338e-01
   outer loop
     vertex -3.306301e+02  4.850178e+02 -2.828413e+02
     vertex -3.295182e+02  4.842179e+02 -2.833101e+02
     vertex -3.294248e+02  4.850244e+02 -2.828413e+02
   endloop
 endfacet
 facet normal  1.230171e-01 -4.874639e-01  8.644338e-01
   outer loop
     vertex -3.317988e+02  4.847228e+02 -2.828413e+02
     vertex -3.315067e+02  4.839653e+02 -2.833101e+02
     vertex -3.305278e+02  4.842123e+02 -2.833101e+02
   endloop
 endfacet
 facet normal  1.230171e-01 -4.874639e-01  8.644338e-01
   outer loop
     vertex -3.317988e+02  4.847228e+02 -2.828413e+02
     vertex -3.305278e+02  4.842123e+02 -2.833101e+02
     vertex -3.306301e+02  4.850178e+02 -2.828413e+02
   endloop
 endfacet
 facet normal  2.361002e-01 -4.438591e-01  8.644338e-01
   outer loop
     vertex -3.328630e+02  4.841568e+02 -2.828413e+02
     vertex -3.323981e+02  4.834912e+02 -2.833101e+02
     vertex -3.315067e+02  4.839653e+02 -2.833101e+02
   endloop
 endfacet
 facet normal  2.361002e-01 -4.438591e-01  8.644338e-01
   outer loop
     vertex -3.328630e+02  4.841568e+02 -2.828413e+02
     vertex -3.315067e+02  4.839653e+02 -2.833101e+02
     vertex -3.317988e+02  4.847228e+02 -2.828413e+02
   endloop
 endfacet
 facet normal  4.696206e-01 -8.828683e-01  0.000000e+00
   outer loop
     vertex -3.323981e+02  4.834912e+02 -2.903726e+02
     vertex -3.315067e+02  4.839653e+02 -2.833101e+02
     vertex -3.323981e+02  4.834912e+02 -2.833101e+02
   endloop
 endfacet
 facet normal  2.446901e-01 -9.696013e-01  0.000000e+00
   outer loop
     vertex -3.315067e+02  4.839653e+02 -2.903726e+02
     vertex -3.305278e+02  4.842123e+02 -2.833101e+02
     vertex -3.315067e+02  4.839653e+02 -2.833101e+02
   endloop
 endfacet
 facet normal  4.696206e-01 -8.828683e-01  0.000000e+00
   outer loop
     vertex -3.315067e+02  4.839653e+02 -2.903726e+02
     vertex -3.315067e+02  4.839653e+02 -2.833101e+02
     vertex -3.323981e+02  4.834912e+02 -2.903726e+02
   endloop
 endfacet
 facet normal  5.539020e-03 -9.999847e-01  0.000000e+00
   outer loop
     vertex -3.305278e+02  4.842123e+02 -2.903726e+02
     vertex -3.295182e+02  4.842179e+02 -2.833101e+02
     vertex -3.305278e+02  4.842123e+02 -2.833101e+02
   endloop
 endfacet
 facet normal  2.446901e-01 -9.696013e-01  0.000000e+00
   outer loop
     vertex -3.305278e+02  4.842123e+02 -2.903726e+02
     vertex -3.305278e+02  4.842123e+02 -2.833101e+02
     vertex -3.315067e+02  4.839653e+02 -2.903726e+02
   endloop
 endfacet
 facet normal  5.539020e-03 -9.999847e-01  0.000000e+00
   outer loop
     vertex -3.295182e+02  4.842179e+02 -2.903726e+02
     vertex -3.295182e+02  4.842179e+02 -2.833101e+02
     vertex -3.305278e+02  4.842123e+02 -2.903726e+02
   endloop
 endfacet
 facet normal -2.339339e-01 -9.722525e-01  0.000000e+00
   outer loop
     vertex -3.285366e+02  4.839817e+02 -2.903726e+02
     vertex -3.285366e+02  4.839817e+02 -2.833101e+02
     vertex -3.295182e+02  4.842179e+02 -2.833101e+02
   endloop
 endfacet
 facet normal -2.339339e-01 -9.722525e-01  1.668616e-18
   outer loop
     vertex -3.285366e+02  4.839817e+02 -2.903726e+02
     vertex -3.295182e+02  4.842179e+02 -2.833101e+02
     vertex -3.295182e+02  4.842179e+02 -2.903726e+02
   endloop
 endfacet
 facet normal -4.598115e-01 -8.880166e-01  1.059378e-14
   outer loop
     vertex -3.276400e+02  4.835175e+02 -2.903726e+02
     vertex -3.276400e+02  4.835175e+02 -2.833101e+02
     vertex -3.285366e+02  4.839817e+02 -2.833101e+02
   endloop
 endfacet
 facet normal -6.589665e-01 -7.521723e-01  6.804132e-15
   outer loop
     vertex -3.276400e+02  4.835175e+02 -2.903726e+02
     vertex -3.268806e+02  4.828522e+02 -2.833101e+02
     vertex -3.276400e+02  4.835175e+02 -2.833101e+02
   endloop
 endfacet
 facet normal -4.598115e-01 -8.880166e-01  8.109503e-19
   outer loop
     vertex -3.276400e+02  4.835175e+02 -2.903726e+02
     vertex -3.285366e+02  4.839817e+02 -2.833101e+02
     vertex -3.285366e+02  4.839817e+02 -2.903726e+02
   endloop
 endfacet
 facet normal -8.198247e-01 -5.726146e-01  0.000000e+00
   outer loop
     vertex -3.268806e+02  4.828522e+02 -2.903726e+02
     vertex -3.263025e+02  4.820245e+02 -2.833101e+02
     vertex -3.268806e+02  4.828522e+02 -2.833101e+02
   endloop
 endfacet
 facet normal -6.589665e-01 -7.521723e-01  0.000000e+00
   outer loop
     vertex -3.268806e+02  4.828522e+02 -2.903726e+02
     vertex -3.268806e+02  4.828522e+02 -2.833101e+02
     vertex -3.276400e+02  4.835175e+02 -2.903726e+02
   endloop
 endfacet
 facet normal -9.330377e-01 -3.597785e-01  0.000000e+00
   outer loop
     vertex -3.263025e+02  4.820245e+02 -2.903726e+02
     vertex -3.259393e+02  4.810825e+02 -2.833101e+02
     vertex -3.263025e+02  4.820245e+02 -2.833101e+02
   endloop
 endfacet
 facet normal -8.198247e-01 -5.726146e-01  0.000000e+00
   outer loop
     vertex -3.263025e+02  4.820245e+02 -2.903726e+02
     vertex -3.263025e+02  4.820245e+02 -2.833101e+02
     vertex -3.268806e+02  4.828522e+02 -2.903726e+02
   endloop
 endfacet
 facet normal -9.330377e-01 -3.597785e-01  0.000000e+00
   outer loop
     vertex -3.259393e+02  4.810825e+02 -2.903726e+02
     vertex -3.259393e+02  4.810825e+02 -2.833101e+02
     vertex -3.263025e+02  4.820245e+02 -2.903726e+02
   endloop
 endfacet
 facet normal -9.920260e-01 -1.260335e-01  0.000000e+00
   outer loop
     vertex -3.258120e+02  4.800809e+02 -2.903726e+02
     vertex -3.258120e+02  4.800809e+02 -2.833101e+02
     vertex -3.259393e+02  4.810825e+02 -2.833101e+02
   endloop
 endfacet
 facet normal -9.920260e-01 -1.260335e-01  1.710763e-18
   outer loop
     vertex -3.258120e+02  4.800809e+02 -2.903726e+02
     vertex -3.259393e+02  4.810825e+02 -2.833101e+02
     vertex -3.259393e+02  4.810825e+02 -2.903726e+02
   endloop
 endfacet
 facet normal -9.933613e-01  1.150362e-01  0.000000e+00
   outer loop
     vertex -3.259282e+02  4.790780e+02 -2.903726e+02
     vertex -3.259282e+02  4.790780e+02 -2.833101e+02
     vertex -3.258120e+02  4.800809e+02 -2.833101e+02
   endloop
 endfacet
 facet normal -9.369661e-01  3.494204e-01  0.000000e+00
   outer loop
     vertex -3.259282e+02  4.790780e+02 -2.903726e+02
     vertex -3.262809e+02  4.781320e+02 -2.833101e+02
     vertex -3.259282e+02  4.790780e+02 -2.833101e+02
   endloop
 endfacet
 facet normal -9.933613e-01  1.150362e-01 -6.015387e-20
   outer loop
     vertex -3.259282e+02  4.790780e+02 -2.903726e+02
     vertex -3.258120e+02  4.800809e+02 -2.833101e+02
     vertex -3.258120e+02  4.800809e+02 -2.903726e+02
   endloop
 endfacet
 facet normal -9.369661e-01  3.494204e-01  0.000000e+00
   outer loop
     vertex -3.262809e+02  4.781320e+02 -2.903726e+02
     vertex -3.262809e+02  4.781320e+02 -2.833101e+02
     vertex -3.259282e+02  4.790780e+02 -2.903726e+02
   endloop
 endfacet
 facet normal -8.261178e-01  5.634975e-01 -4.240414e-19
   outer loop
     vertex -3.268499e+02  4.772980e+02 -2.903726e+02
     vertex -3.262809e+02  4.781320e+02 -2.833101e+02
     vertex -3.262809e+02  4.781320e+02 -2.903726e+02
   endloop
 endfacet
 facet normal -8.261178e-01  5.634975e-01  0.000000e+00
   outer loop
     vertex -3.268499e+02  4.772980e+02 -2.903726e+02
     vertex -3.268499e+02  4.772980e+02 -2.833101e+02
     vertex -3.262809e+02  4.781320e+02 -2.833101e+02
   endloop
 endfacet
 facet normal -6.672585e-01  7.448262e-01  6.119573e-18
   outer loop
     vertex -3.276019e+02  4.766243e+02 -2.903726e+02
     vertex -3.268499e+02  4.772980e+02 -2.833101e+02
     vertex -3.268499e+02  4.772980e+02 -2.903726e+02
   endloop
 endfacet
 facet normal -6.672585e-01  7.448262e-01  1.673586e-14
   outer loop
     vertex -3.276019e+02  4.766243e+02 -2.903726e+02
     vertex -3.276019e+02  4.766243e+02 -2.833101e+02
     vertex -3.268499e+02  4.772980e+02 -2.833101e+02
   endloop
 endfacet
 facet normal -4.696206e-01  8.828683e-01  1.466421e-14
   outer loop
     vertex -3.284932e+02  4.761502e+02 -2.903726e+02
     vertex -3.276019e+02  4.766243e+02 -2.833101e+02
     vertex -3.276019e+02  4.766243e+02 -2.903726e+02
   endloop
 endfacet
 facet normal -4.696206e-01  8.828683e-01 -3.779800e-15
   outer loop
     vertex -3.284932e+02  4.761502e+02 -2.903726e+02
     vertex -3.284932e+02  4.761502e+02 -2.833101e+02
     vertex -3.276019e+02  4.766243e+02 -2.833101e+02
   endloop
 endfacet
 facet normal -2.446901e-01  9.696013e-01 -1.969419e-15
   outer loop
     vertex -3.284932e+02  4.761502e+02 -2.903726e+02
     vertex -3.294721e+02  4.759031e+02 -2.833101e+02
     vertex -3.284932e+02  4.761502e+02 -2.833101e+02
   endloop
 endfacet
 facet normal -2.446901e-01  9.696013e-01  0.000000e+00
   outer loop
     vertex -3.294721e+02  4.759031e+02 -2.903726e+02
     vertex -3.294721e+02  4.759031e+02 -2.833101e+02
     vertex -3.284932e+02  4.761502e+02 -2.903726e+02
   endloop
 endfacet
 facet normal -5.539020e-03  9.999847e-01  0.000000e+00
   outer loop
     vertex -3.294721e+02  4.759031e+02 -2.903726e+02
     vertex -3.304817e+02  4.758975e+02 -2.833101e+02
     vertex -3.294721e+02  4.759031e+02 -2.833101e+02
   endloop
 endfacet
 facet normal -5.539020e-03  9.999847e-01  4.458150e-17
   outer loop
     vertex -3.304817e+02  4.758975e+02 -2.903726e+02
     vertex -3.304817e+02  4.758975e+02 -2.833101e+02
     vertex -3.294721e+02  4.759031e+02 -2.903726e+02
   endloop
 endfacet
 facet normal  2.339339e-01  9.722525e-01 -1.882847e-15
   outer loop
     vertex -3.304817e+02  4.758975e+02 -2.903726e+02
     vertex -3.314633e+02  4.761337e+02 -2.833101e+02
     vertex -3.304817e+02  4.758975e+02 -2.833101e+02
   endloop
 endfacet
 facet normal  2.339339e-01  9.722525e-01  2.347589e-14
   outer loop
     vertex -3.314633e+02  4.761337e+02 -2.903726e+02
     vertex -3.314633e+02  4.761337e+02 -2.833101e+02
     vertex -3.304817e+02  4.758975e+02 -2.903726e+02
   endloop
 endfacet
 facet normal  4.598115e-01  8.880166e-01  2.144194e-14
   outer loop
     vertex -3.314633e+02  4.761337e+02 -2.903726e+02
     vertex -3.323599e+02  4.765980e+02 -2.833101e+02
     vertex -3.314633e+02  4.761337e+02 -2.833101e+02
   endloop
 endfacet
 facet normal  4.598115e-01  8.880166e-01 -0.000000e+00
   outer loop
     vertex -3.323599e+02  4.765980e+02 -2.903726e+02
     vertex -3.323599e+02  4.765980e+02 -2.833101e+02
     vertex -3.314633e+02  4.761337e+02 -2.903726e+02
   endloop
 endfacet
 facet normal  6.589665e-01  7.521723e-01 -0.000000e+00
   outer loop
     vertex -3.323599e+02  4.765980e+02 -2.903726e+02
     vertex -3.331193e+02  4.772633e+02 -2.833101e+02
     vertex -3.323599e+02  4.765980e+02 -2.833101e+02
   endloop
 endfacet
 facet normal  6.589665e-01  7.521723e-01 -0.000000e+00
   outer loop
     vertex -3.331193e+02  4.772633e+02 -2.903726e+02
     vertex -3.331193e+02  4.772633e+02 -2.833101e+02
     vertex -3.323599e+02  4.765980e+02 -2.903726e+02
   endloop
 endfacet
 facet normal  8.198247e-01  5.726146e-01  2.852619e-18
   outer loop
     vertex -3.336974e+02  4.780910e+02 -2.903726e+02
     vertex -3.331193e+02  4.772633e+02 -2.833101e+02
     vertex -3.331193e+02  4.772633e+02 -2.903726e+02
   endloop
 endfacet
 facet normal  8.198247e-01  5.726146e-01 -0.000000e+00
   outer loop
     vertex -3.336974e+02  4.780910e+02 -2.903726e+02
     vertex -3.336974e+02  4.780910e+02 -2.833101e+02
     vertex -3.331193e+02  4.772633e+02 -2.833101e+02
   endloop
 endfacet
 facet normal  9.330377e-01  3.597785e-01 -0.000000e+00
   outer loop
     vertex -3.336974e+02  4.780910e+02 -2.903726e+02
     vertex -3.340607e+02  4.790330e+02 -2.833101e+02
     vertex -3.336974e+02  4.780910e+02 -2.833101e+02
   endloop
 endfacet
 facet normal  9.330377e-01  3.597785e-01 -0.000000e+00
   outer loop
     vertex -3.340607e+02  4.790330e+02 -2.903726e+02
     vertex -3.340607e+02  4.790330e+02 -2.833101e+02
     vertex -3.336974e+02  4.780910e+02 -2.903726e+02
   endloop
 endfacet
 facet normal  9.920260e-01  1.260335e-01  1.710763e-18
   outer loop
     vertex -3.341879e+02  4.800345e+02 -2.903726e+02
     vertex -3.340607e+02  4.790330e+02 -2.833101e+02
     vertex -3.340607e+02  4.790330e+02 -2.903726e+02
   endloop
 endfacet
 facet normal  9.920260e-01  1.260335e-01 -0.000000e+00
   outer loop
     vertex -3.341879e+02  4.800345e+02 -2.903726e+02
     vertex -3.341879e+02  4.800345e+02 -2.833101e+02
     vertex -3.340607e+02  4.790330e+02 -2.833101e+02
   endloop
 endfacet
 facet normal  9.933613e-01 -1.150362e-01  0.000000e+00
   outer loop
     vertex -3.341879e+02  4.800345e+02 -2.903726e+02
     vertex -3.340718e+02  4.810375e+02 -2.833101e+02
     vertex -3.341879e+02  4.800345e+02 -2.833101e+02
   endloop
 endfacet
 facet normal  9.933613e-01 -1.150362e-01  7.995193e-15
   outer loop
     vertex -3.340718e+02  4.810375e+02 -2.903726e+02
     vertex -3.340718e+02  4.810375e+02 -2.833101e+02
     vertex -3.341879e+02  4.800345e+02 -2.903726e+02
   endloop
 endfacet
 facet normal  9.369661e-01 -3.494204e-01  0.000000e+00
   outer loop
     vertex -3.337190e+02  4.819834e+02 -2.903726e+02
     vertex -3.337190e+02  4.819834e+02 -2.833101e+02
     vertex -3.340718e+02  4.810375e+02 -2.833101e+02
   endloop
 endfacet
 facet normal  8.261178e-01 -5.634975e-01  0.000000e+00
   outer loop
     vertex -3.337190e+02  4.819834e+02 -2.903726e+02
     vertex -3.331501e+02  4.828175e+02 -2.833101e+02
     vertex -3.337190e+02  4.819834e+02 -2.833101e+02
   endloop
 endfacet
 facet normal  9.369661e-01 -3.494204e-01  7.544337e-15
   outer loop
     vertex -3.337190e+02  4.819834e+02 -2.903726e+02
     vertex -3.340718e+02  4.810375e+02 -2.833101e+02
     vertex -3.340718e+02  4.810375e+02 -2.903726e+02
   endloop
 endfacet
 facet normal  8.261178e-01 -5.634975e-01  0.000000e+00
   outer loop
     vertex -3.331501e+02  4.828175e+02 -2.903726e+02
     vertex -3.331501e+02  4.828175e+02 -2.833101e+02
     vertex -3.337190e+02  4.819834e+02 -2.903726e+02
   endloop
 endfacet
 facet normal  6.672585e-01 -7.448262e-01  0.000000e+00
   outer loop
     vertex -3.323981e+02  4.834912e+02 -2.903726e+02
     vertex -3.323981e+02  4.834912e+02 -2.833101e+02
     vertex -3.331501e+02  4.828175e+02 -2.833101e+02
   endloop
 endfacet
 facet normal  6.672585e-01 -7.448262e-01 -6.721696e-18
   outer loop
     vertex -3.323981e+02  4.834912e+02 -2.903726e+02
     vertex -3.331501e+02  4.828175e+02 -2.833101e+02
     vertex -3.331501e+02  4.828175e+02 -2.903726e+02
   endloop
 endfacet
 facet normal  0.000000e+00  0.000000e+00  1.000000e+00
   outer loop
     vertex -3.305751e+02  4.750910e+02 -2.828413e+02
     vertex -3.317896e+02  4.726200e+02 -2.828413e+02
     vertex -3.299576e+02  4.724079e+02 -2.828413e+02
   endloop
 endfacet
 facet normal  0.000000e+00  0.000000e+00  1.000000e+00
   outer loop
     vertex -3.317470e+02  4.753730e+02 -2.828413e+02
     vertex -3.335175e+02  4.732644e+02 -2.828413e+02
     vertex -3.317896e+02  4.726200e+02 -2.828413e+02
   endloop
 endfacet
 facet normal  0.000000e+00  0.000000e+00  1.000000e+00
   outer loop
     vertex -3.317470e+02  4.753730e+02 -2.828413e+02
     vertex -3.317896e+02  4.726200e+02 -2.828413e+02
     vertex -3.305751e+02  4.750910e+02 -2.828413e+02
   endloop
 endfacet
 facet normal  0.000000e+00  0.000000e+00  1.000000e+00
   outer loop
     vertex -3.293698e+02  4.750977e+02 -2.828413e+02
     vertex -3.299576e+02  4.724079e+02 -2.828413e+02
     vertex -3.281281e+02  4.726403e+02 -2.828413e+02
   endloop
 endfacet
 facet normal  0.000000e+00  0.000000e+00  1.000000e+00
   outer loop
     vertex -3.293698e+02  4.750977e+02 -2.828413e+02
     vertex -3.305751e+02  4.750910e+02 -2.828413e+02
     vertex -3.299576e+02  4.724079e+02 -2.828413e+02
   endloop
 endfacet
 facet normal  0.000000e+00  0.000000e+00  1.000000e+00
   outer loop
     vertex -3.328174e+02  4.759272e+02 -2.828413e+02
     vertex -3.350411e+02  4.743036e+02 -2.828413e+02
     vertex -3.335175e+02  4.732644e+02 -2.828413e+02
   endloop
 endfacet
 facet normal  0.000000e+00  0.000000e+00  1.000000e+00
   outer loop
     vertex -3.328174e+02  4.759272e+02 -2.828413e+02
     vertex -3.335175e+02  4.732644e+02 -2.828413e+02
     vertex -3.317470e+02  4.753730e+02 -2.828413e+02
   endloop
 endfacet
 facet normal  0.000000e+00  0.000000e+00  1.000000e+00
   outer loop
     vertex -3.282011e+02  4.753926e+02 -2.828413e+02
     vertex -3.281281e+02  4.726403e+02 -2.828413e+02
     vertex -3.264074e+02  4.733038e+02 -2.828413e+02
   endloop
 endfacet
 facet normal  0.000000e+00  0.000000e+00  1.000000e+00
   outer loop
     vertex -3.282011e+02  4.753926e+02 -2.828413e+02
     vertex -3.293698e+02  4.750977e+02 -2.828413e+02
     vertex -3.281281e+02  4.726403e+02 -2.828413e+02
   endloop
 endfacet
 facet normal  0.000000e+00  0.000000e+00  1.000000e+00
   outer loop
     vertex -3.337240e+02  4.767215e+02 -2.828413e+02
     vertex -3.362716e+02  4.756772e+02 -2.828413e+02
     vertex -3.350411e+02  4.743036e+02 -2.828413e+02
   endloop
 endfacet
 facet normal  0.000000e+00  0.000000e+00  1.000000e+00
   outer loop
     vertex -3.337240e+02  4.767215e+02 -2.828413e+02
     vertex -3.350411e+02  4.743036e+02 -2.828413e+02
     vertex -3.328174e+02  4.759272e+02 -2.828413e+02
   endloop
 endfacet
 facet normal  0.000000e+00  0.000000e+00  1.000000e+00
   outer loop
     vertex -3.271369e+02  4.759587e+02 -2.828413e+02
     vertex -3.264074e+02  4.733038e+02 -2.828413e+02
     vertex -3.248954e+02  4.743598e+02 -2.828413e+02
   endloop
 endfacet
 facet normal  0.000000e+00  0.000000e+00  1.000000e+00
   outer loop
     vertex -3.271369e+02  4.759587e+02 -2.828413e+02
     vertex -3.282011e+02  4.753926e+02 -2.828413e+02
     vertex -3.264074e+02  4.733038e+02 -2.828413e+02
   endloop
 endfacet
 facet normal  0.000000e+00  0.000000e+00  1.000000e+00
   outer loop
     vertex -3.344142e+02  4.777097e+02 -2.828413e+02
     vertex -3.371377e+02  4.773054e+02 -2.828413e+02
     vertex -3.362716e+02  4.756772e+02 -2.828413e+02
   endloop
 endfacet
 facet normal  0.000000e+00  0.000000e+00  1.000000e+00
   outer loop
     vertex -3.344142e+02  4.777097e+02 -2.828413e+02
     vertex -3.362716e+02  4.756772e+02 -2.828413e+02
     vertex -3.337240e+02  4.767215e+02 -2.828413e+02
   endloop
 endfacet
 facet normal  0.000000e+00  0.000000e+00  1.000000e+00
   outer loop
     vertex -3.262392e+02  4.767630e+02 -2.828413e+02
     vertex -3.248954e+02  4.743598e+02 -2.828413e+02
     vertex -3.236802e+02  4.757470e+02 -2.828413e+02
   endloop
 endfacet
 facet normal  0.000000e+00  0.000000e+00  1.000000e+00
   outer loop
     vertex -3.262392e+02  4.767630e+02 -2.828413e+02
     vertex -3.271369e+02  4.759587e+02 -2.828413e+02
     vertex -3.248954e+02  4.743598e+02 -2.828413e+02
   endloop
 endfacet
 facet normal  0.000000e+00  0.000000e+00  1.000000e+00
   outer loop
     vertex -3.348479e+02  4.788343e+02 -2.828413e+02
     vertex -3.375890e+02  4.790936e+02 -2.828413e+02
     vertex -3.371377e+02  4.773054e+02 -2.828413e+02
   endloop
 endfacet
 facet normal  0.000000e+00  0.000000e+00  1.000000e+00
   outer loop
     vertex -3.348479e+02  4.788343e+02 -2.828413e+02
     vertex -3.371377e+02  4.773054e+02 -2.828413e+02
     vertex -3.344142e+02  4.777097e+02 -2.828413e+02
   endloop
 endfacet
 facet normal  0.000000e+00  0.000000e+00  1.000000e+00
   outer loop
     vertex -3.255600e+02  4.777587e+02 -2.828413e+02
     vertex -3.262392e+02  4.767630e+02 -2.828413e+02
     vertex -3.236802e+02  4.757470e+02 -2.828413e+02
   endloop
 endfacet
 facet normal  0.000000e+00  0.000000e+00  1.000000e+00
   outer loop
     vertex -3.228322e+02  4.773847e+02 -2.828413e+02
     vertex -3.255600e+02  4.777587e+02 -2.828413e+02
     vertex -3.236802e+02  4.757470e+02 -2.828413e+02
   endloop
 endfacet
 facet normal  0.000000e+00  0.000000e+00  1.000000e+00
   outer loop
     vertex -3.349998e+02  4.800300e+02 -2.828413e+02
     vertex -3.375890e+02  4.790936e+02 -2.828413e+02
     vertex -3.348479e+02  4.788343e+02 -2.828413e+02
   endloop
 endfacet
 facet normal  0.000000e+00  0.000000e+00  1.000000e+00
   outer loop
     vertex -3.375992e+02  4.809378e+02 -2.828413e+02
     vertex -3.375890e+02  4.790936e+02 -2.828413e+02
     vertex -3.349998e+02  4.800300e+02 -2.828413e+02
   endloop
 endfacet
 facet normal  0.000000e+00  0.000000e+00  1.000000e+00
   outer loop
     vertex -3.251388e+02  4.788881e+02 -2.828413e+02
     vertex -3.255600e+02  4.777587e+02 -2.828413e+02
     vertex -3.228322e+02  4.773847e+02 -2.828413e+02
   endloop
 endfacet
 facet normal  0.000000e+00  0.000000e+00  1.000000e+00
   outer loop
     vertex -3.348611e+02  4.812274e+02 -2.828413e+02
     vertex -3.375992e+02  4.809378e+02 -2.828413e+02
     vertex -3.349998e+02  4.800300e+02 -2.828413e+02
   endloop
 endfacet
 facet normal  0.000000e+00  0.000000e+00  1.000000e+00
   outer loop
     vertex -3.224007e+02  4.791777e+02 -2.828413e+02
     vertex -3.251388e+02  4.788881e+02 -2.828413e+02
     vertex -3.228322e+02  4.773847e+02 -2.828413e+02
   endloop
 endfacet
 facet normal  0.000000e+00  0.000000e+00  1.000000e+00
   outer loop
     vertex -3.250001e+02  4.800854e+02 -2.828413e+02
     vertex -3.251388e+02  4.788881e+02 -2.828413e+02
     vertex -3.224007e+02  4.791777e+02 -2.828413e+02
   endloop
 endfacet
 facet normal  0.000000e+00  0.000000e+00  1.000000e+00
   outer loop
     vertex -3.371678e+02  4.827308e+02 -2.828413e+02
     vertex -3.375992e+02  4.809378e+02 -2.828413e+02
     vertex -3.348611e+02  4.812274e+02 -2.828413e+02
   endloop
 endfacet
 facet normal  0.000000e+00  0.000000e+00  1.000000e+00
   outer loop
     vertex -3.344400e+02  4.823567e+02 -2.828413e+02
     vertex -3.371678e+02  4.827308e+02 -2.828413e+02
     vertex -3.348611e+02  4.812274e+02 -2.828413e+02
   endloop
 endfacet
 facet normal  0.000000e+00  0.000000e+00  1.000000e+00
   outer loop
     vertex -3.224110e+02  4.810219e+02 -2.828413e+02
     vertex -3.251521e+02  4.812812e+02 -2.828413e+02
     vertex -3.250001e+02  4.800854e+02 -2.828413e+02
   endloop
 endfacet
 facet normal  0.000000e+00  0.000000e+00  1.000000e+00
   outer loop
     vertex -3.224110e+02  4.810219e+02 -2.828413e+02
     vertex -3.250001e+02  4.800854e+02 -2.828413e+02
     vertex -3.224007e+02  4.791777e+02 -2.828413e+02
   endloop
 endfacet
 facet normal  0.000000e+00  0.000000e+00  1.000000e+00
   outer loop
     vertex -3.363198e+02  4.843685e+02 -2.828413e+02
     vertex -3.371678e+02  4.827308e+02 -2.828413e+02
     vertex -3.344400e+02  4.823567e+02 -2.828413e+02
   endloop
 endfacet
 facet normal  0.000000e+00  0.000000e+00  1.000000e+00
   outer loop
     vertex -3.363198e+02  4.843685e+02 -2.828413e+02
     vertex -3.344400e+02  4.823567e+02 -2.828413e+02
     vertex -3.337607e+02  4.833525e+02 -2.828413e+02
   endloop
 endfacet
 facet normal  0.000000e+00  0.000000e+00  1.000000e+00
   outer loop
     vertex -3.228622e+02  4.828100e+02 -2.828413e+02
     vertex -3.251521e+02  4.812812e+02 -2.828413e+02
     vertex -3.224110e+02  4.810219e+02 -2.828413e+02
   endloop
 endfacet
 facet normal  0.000000e+00  0.000000e+00  1.000000e+00
   outer loop
     vertex -3.228622e+02  4.828100e+02 -2.828413e+02
     vertex -3.255857e+02  4.824058e+02 -2.828413e+02
     vertex -3.251521e+02  4.812812e+02 -2.828413e+02
   endloop
 endfacet
 facet normal  0.000000e+00  0.000000e+00  1.000000e+00
   outer loop
     vertex -3.351045e+02  4.857557e+02 -2.828413e+02
     vertex -3.363198e+02  4.843685e+02 -2.828413e+02
     vertex -3.337607e+02  4.833525e+02 -2.828413e+02
   endloop
 endfacet
 facet normal  0.000000e+00  0.000000e+00  1.000000e+00
   outer loop
     vertex -3.351045e+02  4.857557e+02 -2.828413e+02
     vertex -3.337607e+02  4.833525e+02 -2.828413e+02
     vertex -3.328630e+02  4.841568e+02 -2.828413e+02
   endloop
 endfacet
 facet normal  0.000000e+00  0.000000e+00  1.000000e+00
   outer loop
     vertex -3.237283e+02  4.844382e+02 -2.828413e+02
     vertex -3.255857e+02  4.824058e+02 -2.828413e+02
     vertex -3.228622e+02  4.828100e+02 -2.828413e+02
   endloop
 endfacet
 facet normal  0.000000e+00  0.000000e+00  1.000000e+00
   outer loop
     vertex -3.237283e+02  4.844382e+02 -2.828413e+02
     vertex -3.262759e+02  4.833940e+02 -2.828413e+02
     vertex -3.255857e+02  4.824058e+02 -2.828413e+02
   endloop
 endfacet
 facet normal  0.000000e+00  0.000000e+00  1.000000e+00
   outer loop
     vertex -3.335926e+02  4.868117e+02 -2.828413e+02
     vertex -3.351045e+02  4.857557e+02 -2.828413e+02
     vertex -3.328630e+02  4.841568e+02 -2.828413e+02
   endloop
 endfacet
 facet normal  0.000000e+00  0.000000e+00  1.000000e+00
   outer loop
     vertex -3.335926e+02  4.868117e+02 -2.828413e+02
     vertex -3.328630e+02  4.841568e+02 -2.828413e+02
     vertex -3.317988e+02  4.847228e+02 -2.828413e+02
   endloop
 endfacet
 facet normal  0.000000e+00  0.000000e+00  1.000000e+00
   outer loop
     vertex -3.249589e+02  4.858119e+02 -2.828413e+02
     vertex -3.262759e+02  4.833940e+02 -2.828413e+02
     vertex -3.237283e+02  4.844382e+02 -2.828413e+02
   endloop
 endfacet
 facet normal  0.000000e+00  0.000000e+00  1.000000e+00
   outer loop
     vertex -3.249589e+02  4.858119e+02 -2.828413e+02
     vertex -3.271825e+02  4.841882e+02 -2.828413e+02
     vertex -3.262759e+02  4.833940e+02 -2.828413e+02
   endloop
 endfacet
 facet normal  0.000000e+00  0.000000e+00  1.000000e+00
   outer loop
     vertex -3.318718e+02  4.874752e+02 -2.828413e+02
     vertex -3.335926e+02  4.868117e+02 -2.828413e+02
     vertex -3.317988e+02  4.847228e+02 -2.828413e+02
   endloop
 endfacet
 facet normal  0.000000e+00  0.000000e+00  1.000000e+00
   outer loop
     vertex -3.318718e+02  4.874752e+02 -2.828413e+02
     vertex -3.317988e+02  4.847228e+02 -2.828413e+02
     vertex -3.306301e+02  4.850178e+02 -2.828413e+02
   endloop
 endfacet
 facet normal  0.000000e+00  0.000000e+00  1.000000e+00
   outer loop
     vertex -3.264824e+02  4.868511e+02 -2.828413e+02
     vertex -3.282529e+02  4.847425e+02 -2.828413e+02
     vertex -3.271825e+02  4.841882e+02 -2.828413e+02
   endloop
 endfacet
 facet normal  0.000000e+00  0.000000e+00  1.000000e+00
   outer loop
     vertex -3.264824e+02  4.868511e+02 -2.828413e+02
     vertex -3.271825e+02  4.841882e+02 -2.828413e+02
     vertex -3.249589e+02  4.858119e+02 -2.828413e+02
   endloop
 endfacet
 facet normal  0.000000e+00  0.000000e+00  1.000000e+00
   outer loop
     vertex -3.300423e+02  4.877076e+02 -2.828413e+02
     vertex -3.306301e+02  4.850178e+02 -2.828413e+02
     vertex -3.294248e+02  4.850244e+02 -2.828413e+02
   endloop
 endfacet
 facet normal  0.000000e+00  0.000000e+00  1.000000e+00
   outer loop
     vertex -3.300423e+02  4.877076e+02 -2.828413e+02
     vertex -3.318718e+02  4.874752e+02 -2.828413e+02
     vertex -3.306301e+02  4.850178e+02 -2.828413e+02
   endloop
 endfacet
 facet normal  0.000000e+00  0.000000e+00  1.000000e+00
   outer loop
     vertex -3.282104e+02  4.874955e+02 -2.828413e+02
     vertex -3.300423e+02  4.877076e+02 -2.828413e+02
     vertex -3.294248e+02  4.850244e+02 -2.828413e+02
   endloop
 endfacet
 facet normal  0.000000e+00  0.000000e+00  1.000000e+00
   outer loop
     vertex -3.282104e+02  4.874955e+02 -2.828413e+02
     vertex -3.294248e+02  4.850244e+02 -2.828413e+02
     vertex -3.282529e+02  4.847425e+02 -2.828413e+02
   endloop
 endfacet
 facet normal  0.000000e+00  0.000000e+00  1.000000e+00
   outer loop
     vertex -3.282104e+02  4.874955e+02 -2.828413e+02
     vertex -3.282529e+02  4.847425e+02 -2.828413e+02
     vertex -3.264824e+02  4.868511e+02 -2.828413e+02
   endloop
 endfacet
 facet normal -2.361002e-01  4.438591e-01 -8.644338e-01
   outer loop
     vertex -3.282011e+02  4.753926e+02 -2.908413e+02
     vertex -3.276019e+02  4.766243e+02 -2.903726e+02
     vertex -3.271369e+02  4.759587e+02 -2.908413e+02
   endloop
 endfacet
 facet normal -2.361002e-01  4.438591e-01 -8.644338e-01
   outer loop
     vertex -3.282011e+02  4.753926e+02 -2.908413e+02
     vertex -3.284932e+02  4.761502e+02 -2.903726e+02
     vertex -3.276019e+02  4.766243e+02 -2.903726e+02
   endloop
 endfacet
 facet normal -1.230171e-01  4.874639e-01 -8.644338e-01
   outer loop
     vertex -3.293698e+02  4.750977e+02 -2.908413e+02
     vertex -3.294721e+02  4.759031e+02 -2.903726e+02
     vertex -3.284932e+02  4.761502e+02 -2.903726e+02
   endloop
 endfacet
 facet normal -1.230171e-01  4.874639e-01 -8.644338e-01
   outer loop
     vertex -3.293698e+02  4.750977e+02 -2.908413e+02
     vertex -3.284932e+02  4.761502e+02 -2.903726e+02
     vertex -3.282011e+02  4.753926e+02 -2.908413e+02
   endloop
 endfacet
 facet normal -2.784724e-03  5.027390e-01 -8.644338e-01
   outer loop
     vertex -3.305751e+02  4.750910e+02 -2.908413e+02
     vertex -3.304817e+02  4.758975e+02 -2.903726e+02
     vertex -3.294721e+02  4.759031e+02 -2.903726e+02
   endloop
 endfacet
 facet normal -2.784724e-03  5.027390e-01 -8.644338e-01
   outer loop
     vertex -3.305751e+02  4.750910e+02 -2.908413e+02
     vertex -3.294721e+02  4.759031e+02 -2.903726e+02
     vertex -3.293698e+02  4.750977e+02 -2.908413e+02
   endloop
 endfacet
 facet normal  1.176095e-01  4.887967e-01 -8.644338e-01
   outer loop
     vertex -3.317470e+02  4.753730e+02 -2.908413e+02
     vertex -3.314633e+02  4.761337e+02 -2.903726e+02
     vertex -3.304817e+02  4.758975e+02 -2.903726e+02
   endloop
 endfacet
 facet normal  1.176095e-01  4.887967e-01 -8.644338e-01
   outer loop
     vertex -3.317470e+02  4.753730e+02 -2.908413e+02
     vertex -3.304817e+02  4.758975e+02 -2.903726e+02
     vertex -3.305751e+02  4.750910e+02 -2.908413e+02
   endloop
 endfacet
 facet normal  2.311687e-01  4.464474e-01 -8.644338e-01
   outer loop
     vertex -3.328174e+02  4.759272e+02 -2.908413e+02
     vertex -3.323599e+02  4.765980e+02 -2.903726e+02
     vertex -3.314633e+02  4.761337e+02 -2.903726e+02
   endloop
 endfacet
 facet normal  2.311687e-01  4.464474e-01 -8.644338e-01
   outer loop
     vertex -3.328174e+02  4.759272e+02 -2.908413e+02
     vertex -3.314633e+02  4.761337e+02 -2.903726e+02
     vertex -3.317470e+02  4.753730e+02 -2.908413e+02
   endloop
 endfacet
 facet normal  3.312932e-01  3.781521e-01 -8.644338e-01
   outer loop
     vertex -3.337240e+02  4.767215e+02 -2.908413e+02
     vertex -3.331193e+02  4.772633e+02 -2.903726e+02
     vertex -3.323599e+02  4.765980e+02 -2.903726e+02
   endloop
 endfacet
 facet normal  3.312932e-01  3.781521e-01 -8.644338e-01
   outer loop
     vertex -3.337240e+02  4.767215e+02 -2.908413e+02
     vertex -3.323599e+02  4.765980e+02 -2.903726e+02
     vertex -3.328174e+02  4.759272e+02 -2.908413e+02
   endloop
 endfacet
 facet normal  4.121641e-01  2.878801e-01 -8.644338e-01
   outer loop
     vertex -3.344142e+02  4.777097e+02 -2.908413e+02
     vertex -3.336974e+02  4.780910e+02 -2.903726e+02
     vertex -3.331193e+02  4.772633e+02 -2.903726e+02
   endloop
 endfacet
 facet normal  4.121641e-01  2.878801e-01 -8.644338e-01
   outer loop
     vertex -3.344142e+02  4.777097e+02 -2.908413e+02
     vertex -3.331193e+02  4.772633e+02 -2.903726e+02
     vertex -3.337240e+02  4.767215e+02 -2.908413e+02
   endloop
 endfacet
 facet normal  4.690816e-01  1.808775e-01 -8.644338e-01
   outer loop
     vertex -3.348479e+02  4.788343e+02 -2.908413e+02
     vertex -3.340607e+02  4.790330e+02 -2.903726e+02
     vertex -3.336974e+02  4.780910e+02 -2.903726e+02
   endloop
 endfacet
 facet normal  4.690816e-01  1.808775e-01 -8.644338e-01
   outer loop
     vertex -3.348479e+02  4.788343e+02 -2.908413e+02
     vertex -3.336974e+02  4.780910e+02 -2.903726e+02
     vertex -3.344142e+02  4.777097e+02 -2.908413e+02
   endloop
 endfacet
 facet normal  4.987378e-01  6.336291e-02 -8.644338e-01
   outer loop
     vertex -3.349998e+02  4.800300e+02 -2.908413e+02
     vertex -3.341879e+02  4.800345e+02 -2.903726e+02
     vertex -3.340607e+02  4.790330e+02 -2.903726e+02
   endloop
 endfacet
 facet normal  4.987378e-01  6.336291e-02 -8.644338e-01
   outer loop
     vertex -3.349998e+02  4.800300e+02 -2.908413e+02
     vertex -3.340607e+02  4.790330e+02 -2.903726e+02
     vertex -3.348479e+02  4.788343e+02 -2.908413e+02
   endloop
 endfacet
 facet normal  4.994091e-01 -5.783407e-02 -8.644338e-01
   outer loop
     vertex -3.348611e+02  4.812274e+02 -2.908413e+02
     vertex -3.340718e+02  4.810375e+02 -2.903726e+02
     vertex -3.341879e+02  4.800345e+02 -2.903726e+02
   endloop
 endfacet
 facet normal  4.994091e-01 -5.783407e-02 -8.644338e-01
   outer loop
     vertex -3.348611e+02  4.812274e+02 -2.908413e+02
     vertex -3.341879e+02  4.800345e+02 -2.903726e+02
     vertex -3.349998e+02  4.800300e+02 -2.908413e+02
   endloop
 endfacet
 facet normal  4.710566e-01 -1.756699e-01 -8.644338e-01
   outer loop
     vertex -3.344400e+02  4.823567e+02 -2.908413e+02
     vertex -3.337190e+02  4.819834e+02 -2.903726e+02
     vertex -3.340718e+02  4.810375e+02 -2.903726e+02
   endloop
 endfacet
 facet normal  4.710566e-01 -1.756699e-01 -8.644338e-01
   outer loop
     vertex -3.344400e+02  4.823567e+02 -2.908413e+02
     vertex -3.340718e+02  4.810375e+02 -2.903726e+02
     vertex -3.348611e+02  4.812274e+02 -2.908413e+02
   endloop
 endfacet
 facet normal  4.153280e-01 -2.832965e-01 -8.644338e-01
   outer loop
     vertex -3.337607e+02  4.833525e+02 -2.908413e+02
     vertex -3.337190e+02  4.819834e+02 -2.903726e+02
     vertex -3.344400e+02  4.823567e+02 -2.908413e+02
   endloop
 endfacet
 facet normal  4.153280e-01 -2.832965e-01 -8.644338e-01
   outer loop
     vertex -3.337607e+02  4.833525e+02 -2.908413e+02
     vertex -3.331501e+02  4.828175e+02 -2.903726e+02
     vertex -3.337190e+02  4.819834e+02 -2.903726e+02
   endloop
 endfacet
 facet normal  3.354620e-01 -3.744589e-01 -8.644338e-01
   outer loop
     vertex -3.328630e+02  4.841568e+02 -2.908413e+02
     vertex -3.331501e+02  4.828175e+02 -2.903726e+02
     vertex -3.337607e+02  4.833525e+02 -2.908413e+02
   endloop
 endfacet
 facet normal  3.354620e-01 -3.744589e-01 -8.644338e-01
   outer loop
     vertex -3.328630e+02  4.841568e+02 -2.908413e+02
     vertex -3.323981e+02  4.834912e+02 -2.903726e+02
     vertex -3.331501e+02  4.828175e+02 -2.903726e+02
   endloop
 endfacet
 facet normal  2.361002e-01 -4.438591e-01 -8.644338e-01
   outer loop
     vertex -3.317988e+02  4.847228e+02 -2.908413e+02
     vertex -3.323981e+02  4.834912e+02 -2.903726e+02
     vertex -3.328630e+02  4.841568e+02 -2.908413e+02
   endloop
 endfacet
 facet normal  2.361002e-01 -4.438591e-01 -8.644338e-01
   outer loop
     vertex -3.317988e+02  4.847228e+02 -2.908413e+02
     vertex -3.315067e+02  4.839653e+02 -2.903726e+02
     vertex -3.323981e+02  4.834912e+02 -2.903726e+02
   endloop
 endfacet
 facet normal  1.230171e-01 -4.874639e-01 -8.644338e-01
   outer loop
     vertex -3.306301e+02  4.850178e+02 -2.908413e+02
     vertex -3.315067e+02  4.839653e+02 -2.903726e+02
     vertex -3.317988e+02  4.847228e+02 -2.908413e+02
   endloop
 endfacet
 facet normal  1.230171e-01 -4.874639e-01 -8.644338e-01
   outer loop
     vertex -3.306301e+02  4.850178e+02 -2.908413e+02
     vertex -3.305278e+02  4.842123e+02 -2.903726e+02
     vertex -3.315067e+02  4.839653e+02 -2.903726e+02
   endloop
 endfacet
 facet normal  2.784724e-03 -5.027390e-01 -8.644338e-01
   outer loop
     vertex -3.294248e+02  4.850244e+02 -2.908413e+02
     vertex -3.305278e+02  4.842123e+02 -2.903726e+02
     vertex -3.306301e+02  4.850178e+02 -2.908413e+02
   endloop
 endfacet
 facet normal  2.784724e-03 -5.027390e-01 -8.644338e-01
   outer loop
     vertex -3.294248e+02  4.850244e+02 -2.908413e+02
     vertex -3.295182e+02  4.842179e+02 -2.903726e+02
     vertex -3.305278e+02  4.842123e+02 -2.903726e+02
   endloop
 endfacet
 facet normal -1.176095e-01 -4.887967e-01 -8.644338e-01
   outer loop
     vertex -3.282529e+02  4.847425e+02 -2.908413e+02
     vertex -3.295182e+02  4.842179e+02 -2.903726e+02
     vertex -3.294248e+02  4.850244e+02 -2.908413e+02
   endloop
 endfacet
 facet normal -1.176095e-01 -4.887967e-01 -8.644338e-01
   outer loop
     vertex -3.282529e+02  4.847425e+02 -2.908413e+02
     vertex -3.285366e+02  4.839817e+02 -2.903726e+02
     vertex -3.295182e+02  4.842179e+02 -2.903726e+02
   endloop
 endfacet
 facet normal -2.311687e-01 -4.464474e-01 -8.644338e-01
   outer loop
     vertex -3.271825e+02  4.841882e+02 -2.908413e+02
     vertex -3.285366e+02  4.839817e+02 -2.903726e+02
     vertex -3.282529e+02  4.847425e+02 -2.908413e+02
   endloop
 endfacet
 facet normal -2.311687e-01 -4.464474e-01 -8.644338e-01
   outer loop
     vertex -3.271825e+02  4.841882e+02 -2.908413e+02
     vertex -3.276400e+02  4.835175e+02 -2.903726e+02
     vertex -3.285366e+02  4.839817e+02 -2.903726e+02
   endloop
 endfacet
 facet normal -3.312932e-01 -3.781521e-01 -8.644338e-01
   outer loop
     vertex -3.262759e+02  4.833940e+02 -2.908413e+02
     vertex -3.276400e+02  4.835175e+02 -2.903726e+02
     vertex -3.271825e+02  4.841882e+02 -2.908413e+02
   endloop
 endfacet
 facet normal -3.312932e-01 -3.781521e-01 -8.644338e-01
   outer loop
     vertex -3.262759e+02  4.833940e+02 -2.908413e+02
     vertex -3.268806e+02  4.828522e+02 -2.903726e+02
     vertex -3.276400e+02  4.835175e+02 -2.903726e+02
   endloop
 endfacet
 facet normal -4.121641e-01 -2.878801e-01 -8.644338e-01
   outer loop
     vertex -3.255857e+02  4.824058e+02 -2.908413e+02
     vertex -3.268806e+02  4.828522e+02 -2.903726e+02
     vertex -3.262759e+02  4.833940e+02 -2.908413e+02
   endloop
 endfacet
 facet normal -4.121641e-01 -2.878801e-01 -8.644338e-01
   outer loop
     vertex -3.255857e+02  4.824058e+02 -2.908413e+02
     vertex -3.263025e+02  4.820245e+02 -2.903726e+02
     vertex -3.268806e+02  4.828522e+02 -2.903726e+02
   endloop
 endfacet
 facet normal -4.690816e-01 -1.808775e-01 -8.644338e-01
   outer loop
     vertex -3.251521e+02  4.812812e+02 -2.908413e+02
     vertex -3.263025e+02  4.820245e+02 -2.903726e+02
     vertex -3.255857e+02  4.824058e+02 -2.908413e+02
   endloop
 endfacet
 facet normal -4.690816e-01 -1.808775e-01 -8.644338e-01
   outer loop
     vertex -3.251521e+02  4.812812e+02 -2.908413e+02
     vertex -3.259393e+02  4.810825e+02 -2.903726e+02
     vertex -3.263025e+02  4.820245e+02 -2.903726e+02
   endloop
 endfacet
 facet normal -4.987378e-01 -6.336291e-02 -8.644338e-01
   outer loop
     vertex -3.250001e+02  4.800854e+02 -2.908413e+02
     vertex -3.259393e+02  4.810825e+02 -2.903726e+02
     vertex -3.251521e+02  4.812812e+02 -2.908413e+02
   endloop
 endfacet
 facet normal -4.987378e-01 -6.336291e-02 -8.644338e-01
   outer loop
     vertex -3.250001e+02  4.800854e+02 -2.908413e+02
     vertex -3.258120e+02  4.800809e+02 -2.903726e+02
     vertex -3.259393e+02  4.810825e+02 -2.903726e+02
   endloop
 endfacet
 facet normal -4.994091e-01  5.783407e-02 -8.644338e-01
   outer loop
     vertex -3.259282e+02  4.790780e+02 -2.903726e+02
     vertex -3.258120e+02  4.800809e+02 -2.903726e+02
     vertex -3.250001e+02  4.800854e+02 -2.908413e+02
   endloop
 endfacet
 facet normal -4.994091e-01  5.783407e-02 -8.644338e-01
   outer loop
     vertex -3.251388e+02  4.788881e+02 -2.908413e+02
     vertex -3.259282e+02  4.790780e+02 -2.903726e+02
     vertex -3.250001e+02  4.800854e+02 -2.908413e+02
   endloop
 endfacet
 facet normal -4.710566e-01  1.756699e-01 -8.644338e-01
   outer loop
     vertex -3.255600e+02  4.777587e+02 -2.908413e+02
     vertex -3.262809e+02  4.781320e+02 -2.903726e+02
     vertex -3.259282e+02  4.790780e+02 -2.903726e+02
   endloop
 endfacet
 facet normal -4.710566e-01  1.756699e-01 -8.644338e-01
   outer loop
     vertex -3.255600e+02  4.777587e+02 -2.908413e+02
     vertex -3.259282e+02  4.790780e+02 -2.903726e+02
     vertex -3.251388e+02  4.788881e+02 -2.908413e+02
   endloop
 endfacet
 facet normal -4.153280e-01  2.832965e-01 -8.644338e-01
   outer loop
     vertex -3.262392e+02  4.767630e+02 -2.908413e+02
     vertex -3.268499e+02  4.772980e+02 -2.903726e+02
     vertex -3.262809e+02  4.781320e+02 -2.903726e+02
   endloop
 endfacet
 facet normal -4.153280e-01  2.832965e-01 -8.644338e-01
   outer loop
     vertex -3.262392e+02  4.767630e+02 -2.908413e+02
     vertex -3.262809e+02  4.781320e+02 -2.903726e+02
     vertex -3.255600e+02  4.777587e+02 -2.908413e+02
   endloop
 endfacet
 facet normal -3.354620e-01  3.744589e-01 -8.644338e-01
   outer loop
     vertex -3.271369e+02  4.759587e+02 -2.908413e+02
     vertex -3.276019e+02  4.766243e+02 -2.903726e+02
     vertex -3.268499e+02  4.772980e+02 -2.903726e+02
   endloop
 endfacet
 facet normal -3.354620e-01  3.744589e-01 -8.644338e-01
   outer loop
     vertex -3.271369e+02  4.759587e+02 -2.908413e+02
     vertex -3.268499e+02  4.772980e+02 -2.903726e+02
     vertex -3.262392e+02  4.767630e+02 -2.908413e+02
   endloop
 endfacet
 facet normal  0.000000e+00 -0.000000e+00 -1.000000e+00
   outer loop
     vertex -3.305751e+02  4.750910e+02 -2.908413e+02
     vertex -3.299576e+02  4.724079e+02 -2.908413e+02
     vertex -3.317896e+02  4.726200e+02 -2.908413e+02
   endloop
 endfacet
 facet normal  0.000000e+00  0.000000e+00 -1.000000e+00
   outer loop
     vertex -3.317470e+02  4.753730e+02 -2.908413e+02
     vertex -3.317896e+02  4.726200e+02 -2.908413e+02
     vertex -3.335175e+02  4.732644e+02 -2.908413e+02
   endloop
 endfacet
 facet normal  0.000000e+00 -0.000000e+00 -1.000000e+00
   outer loop
     vertex -3.317470e+02  4.753730e+02 -2.908413e+02
     vertex -3.305751e+02  4.750910e+02 -2.908413e+02
     vertex -3.317896e+02  4.726200e+02 -2.908413e+02
   endloop
 endfacet
 facet normal  0.000000e+00 -0.000000e+00 -1.000000e+00
   outer loop
     vertex -3.293698e+02  4.750977e+02 -2.908413e+02
     vertex -3.281281e+02  4.726403e+02 -2.908413e+02
     vertex -3.299576e+02  4.724079e+02 -2.908413e+02
   endloop
 endfacet
 facet normal  0.000000e+00  0.000000e+00 -1.000000e+00
   outer loop
     vertex -3.293698e+02  4.750977e+02 -2.908413e+02
     vertex -3.299576e+02  4.724079e+02 -2.908413e+02
     vertex -3.305751e+02  4.750910e+02 -2.908413e+02
   endloop
 endfacet
 facet normal  0.000000e+00  0.000000e+00 -1.000000e+00
   outer loop
     vertex -3.328174e+02  4.759272e+02 -2.908413e+02
     vertex -3.335175e+02  4.732644e+02 -2.908413e+02
     vertex -3.350411e+02  4.743036e+02 -2.908413e+02
   endloop
 endfacet
 facet normal  0.000000e+00 -0.000000e+00 -1.000000e+00
   outer loop
     vertex -3.328174e+02  4.759272e+02 -2.908413e+02
     vertex -3.317470e+02  4.753730e+02 -2.908413e+02
     vertex -3.335175e+02  4.732644e+02 -2.908413e+02
   endloop
 endfacet
 facet normal  0.000000e+00  0.000000e+00 -1.000000e+00
   outer loop
     vertex -3.282011e+02  4.753926e+02 -2.908413e+02
     vertex -3.264074e+02  4.733038e+02 -2.908413e+02
     vertex -3.281281e+02  4.726403e+02 -2.908413e+02
   endloop
 endfacet
 facet normal  0.000000e+00 -0.000000e+00 -1.000000e+00
   outer loop
     vertex -3.282011e+02  4.753926e+02 -2.908413e+02
     vertex -3.281281e+02  4.726403e+02 -2.908413e+02
     vertex -3.293698e+02  4.750977e+02 -2.908413e+02
   endloop
 endfacet
 facet normal  0.000000e+00  0.000000e+00 -1.000000e+00
   outer loop
     vertex -3.337240e+02  4.767215e+02 -2.908413e+02
     vertex -3.350411e+02  4.743036e+02 -2.908413e+02
     vertex -3.362716e+02  4.756772e+02 -2.908413e+02
   endloop
 endfacet
 facet normal  0.000000e+00 -0.000000e+00 -1.000000e+00
   outer loop
     vertex -3.337240e+02  4.767215e+02 -2.908413e+02
     vertex -3.328174e+02  4.759272e+02 -2.908413e+02
     vertex -3.350411e+02  4.743036e+02 -2.908413e+02
   endloop
 endfacet
 facet normal  0.000000e+00  0.000000e+00 -1.000000e+00
   outer loop
     vertex -3.271369e+02  4.759587e+02 -2.908413e+02
     vertex -3.248954e+02  4.743598e+02 -2.908413e+02
     vertex -3.264074e+02  4.733038e+02 -2.908413e+02
   endloop
 endfacet
 facet normal  0.000000e+00 -0.000000e+00 -1.000000e+00
   outer loop
     vertex -3.271369e+02  4.759587e+02 -2.908413e+02
     vertex -3.264074e+02  4.733038e+02 -2.908413e+02
     vertex -3.282011e+02  4.753926e+02 -2.908413e+02
   endloop
 endfacet
 facet normal  0.000000e+00  0.000000e+00 -1.000000e+00
   outer loop
     vertex -3.344142e+02  4.777097e+02 -2.908413e+02
     vertex -3.362716e+02  4.756772e+02 -2.908413e+02
     vertex -3.371377e+02  4.773054e+02 -2.908413e+02
   endloop
 endfacet
 facet normal  0.000000e+00 -0.000000e+00 -1.000000e+00
   outer loop
     vertex -3.344142e+02  4.777097e+02 -2.908413e+02
     vertex -3.337240e+02  4.767215e+02 -2.908413e+02
     vertex -3.362716e+02  4.756772e+02 -2.908413e+02
   endloop
 endfacet
 facet normal  0.000000e+00  0.000000e+00 -1.000000e+00
   outer loop
     vertex -3.262392e+02  4.767630e+02 -2.908413e+02
     vertex -3.236802e+02  4.757470e+02 -2.908413e+02
     vertex -3.248954e+02  4.743598e+02 -2.908413e+02
   endloop
 endfacet
 facet normal  0.000000e+00 -0.000000e+00 -1.000000e+00
   outer loop
     vertex -3.262392e+02  4.767630e+02 -2.908413e+02
     vertex -3.248954e+02  4.743598e+02 -2.908413e+02
     vertex -3.271369e+02  4.759587e+02 -2.908413e+02
   endloop
 endfacet
 facet normal -0.000000e+00  0.000000e+00 -1.000000e+00
   outer loop
     vertex -3.348479e+02  4.788343e+02 -2.908413e+02
     vertex -3.371377e+02  4.773054e+02 -2.908413e+02
     vertex -3.375890e+02  4.790936e+02 -2.908413e+02
   endloop
 endfacet
 facet normal  0.000000e+00 -0.000000e+00 -1.000000e+00
   outer loop
     vertex -3.348479e+02  4.788343e+02 -2.908413e+02
     vertex -3.344142e+02  4.777097e+02 -2.908413e+02
     vertex -3.371377e+02  4.773054e+02 -2.908413e+02
   endloop
 endfacet
 facet normal  0.000000e+00 -0.000000e+00 -1.000000e+00
   outer loop
     vertex -3.255600e+02  4.777587e+02 -2.908413e+02
     vertex -3.236802e+02  4.757470e+02 -2.908413e+02
     vertex -3.262392e+02  4.767630e+02 -2.908413e+02
   endloop
 endfacet
 facet normal -0.000000e+00  0.000000e+00 -1.000000e+00
   outer loop
     vertex -3.228322e+02  4.773847e+02 -2.908413e+02
     vertex -3.236802e+02  4.757470e+02 -2.908413e+02
     vertex -3.255600e+02  4.777587e+02 -2.908413e+02
   endloop
 endfacet
 facet normal  0.000000e+00 -0.000000e+00 -1.000000e+00
   outer loop
     vertex -3.349998e+02  4.800300e+02 -2.908413e+02
     vertex -3.348479e+02  4.788343e+02 -2.908413e+02
     vertex -3.375890e+02  4.790936e+02 -2.908413e+02
   endloop
 endfacet
 facet normal  0.000000e+00  0.000000e+00 -1.000000e+00
   outer loop
     vertex -3.375992e+02  4.809378e+02 -2.908413e+02
     vertex -3.349998e+02  4.800300e+02 -2.908413e+02
     vertex -3.375890e+02  4.790936e+02 -2.908413e+02
   endloop
 endfacet
 facet normal  0.000000e+00 -0.000000e+00 -1.000000e+00
   outer loop
     vertex -3.251388e+02  4.788881e+02 -2.908413e+02
     vertex -3.228322e+02  4.773847e+02 -2.908413e+02
     vertex -3.255600e+02  4.777587e+02 -2.908413e+02
   endloop
 endfacet
 facet normal  0.000000e+00  0.000000e+00 -1.000000e+00
   outer loop
     vertex -3.348611e+02  4.812274e+02 -2.908413e+02
     vertex -3.349998e+02  4.800300e+02 -2.908413e+02
     vertex -3.375992e+02  4.809378e+02 -2.908413e+02
   endloop
 endfacet
 facet normal  0.000000e+00  0.000000e+00 -1.000000e+00
   outer loop
     vertex -3.224007e+02  4.791777e+02 -2.908413e+02
     vertex -3.228322e+02  4.773847e+02 -2.908413e+02
     vertex -3.251388e+02  4.788881e+02 -2.908413e+02
   endloop
 endfacet
 facet normal  0.000000e+00 -0.000000e+00 -1.000000e+00
   outer loop
     vertex -3.250001e+02  4.800854e+02 -2.908413e+02
     vertex -3.224007e+02  4.791777e+02 -2.908413e+02
     vertex -3.251388e+02  4.788881e+02 -2.908413e+02
   endloop
 endfacet
 facet normal  0.000000e+00 -0.000000e+00 -1.000000e+00
   outer loop
     vertex -3.371678e+02  4.827308e+02 -2.908413e+02
     vertex -3.348611e+02  4.812274e+02 -2.908413e+02
     vertex -3.375992e+02  4.809378e+02 -2.908413e+02
   endloop
 endfacet
 facet normal -0.000000e+00  0.000000e+00 -1.000000e+00
   outer loop
     vertex -3.344400e+02  4.823567e+02 -2.908413e+02
     vertex -3.348611e+02  4.812274e+02 -2.908413e+02
     vertex -3.371678e+02  4.827308e+02 -2.908413e+02
   endloop
 endfacet
 facet normal  0.000000e+00 -0.000000e+00 -1.000000e+00
   outer loop
     vertex -3.224110e+02  4.810219e+02 -2.908413e+02
     vertex -3.224007e+02  4.791777e+02 -2.908413e+02
     vertex -3.250001e+02  4.800854e+02 -2.908413e+02
   endloop
 endfacet
 facet normal -0.000000e+00  0.000000e+00 -1.000000e+00
   outer loop
     vertex -3.224110e+02  4.810219e+02 -2.908413e+02
     vertex -3.250001e+02  4.800854e+02 -2.908413e+02
     vertex -3.251521e+02  4.812812e+02 -2.908413e+02
   endloop
 endfacet
 facet normal  0.000000e+00 -0.000000e+00 -1.000000e+00
   outer loop
     vertex -3.363198e+02  4.843685e+02 -2.908413e+02
     vertex -3.344400e+02  4.823567e+02 -2.908413e+02
     vertex -3.371678e+02  4.827308e+02 -2.908413e+02
   endloop
 endfacet
 facet normal  0.000000e+00  0.000000e+00 -1.000000e+00
   outer loop
     vertex -3.363198e+02  4.843685e+02 -2.908413e+02
     vertex -3.337607e+02  4.833525e+02 -2.908413e+02
     vertex -3.344400e+02  4.823567e+02 -2.908413e+02
   endloop
 endfacet
 facet normal  0.000000e+00 -0.000000e+00 -1.000000e+00
   outer loop
     vertex -3.228622e+02  4.828100e+02 -2.908413e+02
     vertex -3.224110e+02  4.810219e+02 -2.908413e+02
     vertex -3.251521e+02  4.812812e+02 -2.908413e+02
   endloop
 endfacet
 facet normal  0.000000e+00  0.000000e+00 -1.000000e+00
   outer loop
     vertex -3.228622e+02  4.828100e+02 -2.908413e+02
     vertex -3.251521e+02  4.812812e+02 -2.908413e+02
     vertex -3.255857e+02  4.824058e+02 -2.908413e+02
   endloop
 endfacet
 facet normal  0.000000e+00  0.000000e+00 -1.000000e+00
   outer loop
     vertex -3.351045e+02  4.857557e+02 -2.908413e+02
     vertex -3.328630e+02  4.841568e+02 -2.908413e+02
     vertex -3.337607e+02  4.833525e+02 -2.908413e+02
   endloop
 endfacet
 facet normal  0.000000e+00 -0.000000e+00 -1.000000e+00
   outer loop
     vertex -3.351045e+02  4.857557e+02 -2.908413e+02
     vertex -3.337607e+02  4.833525e+02 -2.908413e+02
     vertex -3.363198e+02  4.843685e+02 -2.908413e+02
   endloop
 endfacet
 facet normal  0.000000e+00 -0.000000e+00 -1.000000e+00
   outer loop
     vertex -3.237283e+02  4.844382e+02 -2.908413e+02
     vertex -3.228622e+02  4.828100e+02 -2.908413e+02
     vertex -3.255857e+02  4.824058e+02 -2.908413e+02
   endloop
 endfacet
 facet normal  0.000000e+00  0.000000e+00 -1.000000e+00
   outer loop
     vertex -3.237283e+02  4.844382e+02 -2.908413e+02
     vertex -3.255857e+02  4.824058e+02 -2.908413e+02
     vertex -3.262759e+02  4.833940e+02 -2.908413e+02
   endloop
 endfacet
 facet normal  0.000000e+00 -0.000000e+00 -1.000000e+00
   outer loop
     vertex -3.335926e+02  4.868117e+02 -2.908413e+02
     vertex -3.328630e+02  4.841568e+02 -2.908413e+02
     vertex -3.351045e+02  4.857557e+02 -2.908413e+02
   endloop
 endfacet
 facet normal  0.000000e+00  0.000000e+00 -1.000000e+00
   outer loop
     vertex -3.335926e+02  4.868117e+02 -2.908413e+02
     vertex -3.317988e+02  4.847228e+02 -2.908413e+02
     vertex -3.328630e+02  4.841568e+02 -2.908413e+02
   endloop
 endfacet
 facet normal  0.000000e+00  0.000000e+00 -1.000000e+00
   outer loop
     vertex -3.249589e+02  4.858119e+02 -2.908413e+02
     vertex -3.262759e+02  4.833940e+02 -2.908413e+02
     vertex -3.271825e+02  4.841882e+02 -2.908413e+02
   endloop
 endfacet
 facet normal  0.000000e+00 -0.000000e+00 -1.000000e+00
   outer loop
     vertex -3.249589e+02  4.858119e+02 -2.908413e+02
     vertex -3.237283e+02  4.844382e+02 -2.908413e+02
     vertex -3.262759e+02  4.833940e+02 -2.908413e+02
   endloop
 endfacet
 facet normal  0.000000e+00  0.000000e+00 -1.000000e+00
   outer loop
     vertex -3.318718e+02  4.874752e+02 -2.908413e+02
     vertex -3.306301e+02  4.850178e+02 -2.908413e+02
     vertex -3.317988e+02  4.847228e+02 -2.908413e+02
   endloop
 endfacet
 facet normal  0.000000e+00 -0.000000e+00 -1.000000e+00
   outer loop
     vertex -3.318718e+02  4.874752e+02 -2.908413e+02
     vertex -3.317988e+02  4.847228e+02 -2.908413e+02
     vertex -3.335926e+02  4.868117e+02 -2.908413e+02
   endloop
 endfacet
 facet normal  0.000000e+00  0.000000e+00 -1.000000e+00
   outer loop
     vertex -3.264824e+02  4.868511e+02 -2.908413e+02
     vertex -3.271825e+02  4.841882e+02 -2.908413e+02
     vertex -3.282529e+02  4.847425e+02 -2.908413e+02
   endloop
 endfacet
 facet normal  0.000000e+00 -0.000000e+00 -1.000000e+00
   outer loop
     vertex -3.264824e+02  4.868511e+02 -2.908413e+02
     vertex -3.249589e+02  4.858119e+02 -2.908413e+02
     vertex -3.271825e+02  4.841882e+02 -2.908413e+02
   endloop
 endfacet
 facet normal  0.000000e+00 -0.000000e+00 -1.000000e+00
   outer loop
     vertex -3.300423e+02  4.877076e+02 -2.908413e+02
     vertex -3.294248e+02  4.850244e+02 -2.908413e+02
     vertex -3.306301e+02  4.850178e+02 -2.908413e+02
   endloop
 endfacet
 facet normal  0.000000e+00  0.000000e+00 -1.000000e+00
   outer loop
     vertex -3.300423e+02  4.877076e+02 -2.908413e+02
     vertex -3.306301e+02  4.850178e+02 -2.908413e+02
     vertex -3.318718e+02  4.874752e+02 -2.908413e+02
   endloop
 endfacet
 facet normal  0.000000e+00 -0.000000e+00 -1.000000e+00
   outer loop
     vertex -3.282104e+02  4.874955e+02 -2.908413e+02
     vertex -3.264824e+02  4.868511e+02 -2.908413e+02
     vertex -3.282529e+02  4.847425e+02 -2.908413e+02
   endloop
 endfacet
 facet normal  0.000000e+00  0.000000e+00 -1.000000e+00
   outer loop
     vertex -3.282104e+02  4.874955e+02 -2.908413e+02
     vertex -3.282529e+02  4.847425e+02 -2.908413e+02
     vertex -3.294248e+02  4.850244e+02 -2.908413e+02
   endloop
 endfacet
 facet normal -0.000000e+00  0.000000e+00 -1.000000e+00
   outer loop
     vertex -3.282104e+02  4.874955e+02 -2.908413e+02
     vertex -3.294248e+02  4.850244e+02 -2.908413e+02
     vertex -3.300423e+02  4.877076e+02 -2.908413e+02
   endloop
 endfacet
 facet normal  4.438591e-01  2.361002e-01  8.644338e-01
   outer loop
     vertex -3.219534e+02  4.856779e+02 -2.840912e+02
     vertex -3.237283e+02  4.844382e+02 -2.828413e+02
     vertex -3.228622e+02  4.828100e+02 -2.828413e+02
   endloop
 endfacet
 facet normal  4.898549e-01  2.131997e-01  8.453331e-01
   outer loop
     vertex -3.216631e+02  4.823135e+02 -2.834110e+02
     vertex -3.219534e+02  4.856779e+02 -2.840912e+02
     vertex -3.228622e+02  4.828100e+02 -2.828413e+02
   endloop
 endfacet
 facet normal  4.653863e-01  1.174456e-01  8.772811e-01
   outer loop
     vertex -3.224110e+02  4.810219e+02 -2.828413e+02
     vertex -3.216631e+02  4.823135e+02 -2.834110e+02
     vertex -3.228622e+02  4.828100e+02 -2.828413e+02
   endloop
 endfacet
 facet normal  4.944690e-01  2.738915e-03  8.691910e-01
   outer loop
     vertex -3.213998e+02  4.792637e+02 -2.834110e+02
     vertex -3.224110e+02  4.810219e+02 -2.828413e+02
     vertex -3.224007e+02  4.791777e+02 -2.828413e+02
   endloop
 endfacet
 facet normal  5.518894e-01  4.763139e-02  8.325559e-01
   outer loop
     vertex -3.213998e+02  4.792637e+02 -2.834110e+02
     vertex -3.216631e+02  4.823135e+02 -2.834110e+02
     vertex -3.224110e+02  4.810219e+02 -2.828413e+02
   endloop
 endfacet
 facet normal  4.988413e-01 -1.200263e-01  8.583420e-01
   outer loop
     vertex -3.228322e+02  4.773847e+02 -2.828413e+02
     vertex -3.213998e+02  4.792637e+02 -2.834110e+02
     vertex -3.224007e+02  4.791777e+02 -2.828413e+02
   endloop
 endfacet
 facet normal  4.367537e-01 -2.261494e-01  8.706909e-01
   outer loop
     vertex -3.211095e+02  4.758993e+02 -2.840912e+02
     vertex -3.228322e+02  4.773847e+02 -2.828413e+02
     vertex -3.236802e+02  4.757470e+02 -2.828413e+02
   endloop
 endfacet
 facet normal  5.074389e-01 -1.284863e-01  8.520546e-01
   outer loop
     vertex -3.211095e+02  4.758993e+02 -2.840912e+02
     vertex -3.213998e+02  4.792637e+02 -2.834110e+02
     vertex -3.228322e+02  4.773847e+02 -2.828413e+02
   endloop
 endfacet
 facet normal  3.653795e-01 -3.201033e-01  8.740890e-01
   outer loop
     vertex -3.238779e+02  4.739657e+02 -2.834110e+02
     vertex -3.236802e+02  4.757470e+02 -2.828413e+02
     vertex -3.248954e+02  4.743598e+02 -2.828413e+02
   endloop
 endfacet
 facet normal  4.297543e-01 -3.179804e-01  8.451034e-01
   outer loop
     vertex -3.238779e+02  4.739657e+02 -2.834110e+02
     vertex -3.211095e+02  4.758993e+02 -2.840912e+02
     vertex -3.236802e+02  4.757470e+02 -2.828413e+02
   endloop
 endfacet
 facet normal  3.048557e-01 -4.364685e-01  8.464977e-01
   outer loop
     vertex -3.263876e+02  4.722128e+02 -2.834110e+02
     vertex -3.248954e+02  4.743598e+02 -2.828413e+02
     vertex -3.264074e+02  4.733038e+02 -2.828413e+02
   endloop
 endfacet
 facet normal  3.048557e-01 -4.364685e-01  8.464977e-01
   outer loop
     vertex -3.263876e+02  4.722128e+02 -2.834110e+02
     vertex -3.238779e+02  4.739657e+02 -2.834110e+02
     vertex -3.248954e+02  4.743598e+02 -2.828413e+02
   endloop
 endfacet
 facet normal  1.747681e-01 -4.532377e-01  8.740890e-01
   outer loop
     vertex -3.281281e+02  4.726403e+02 -2.828413e+02
     vertex -3.263876e+02  4.722128e+02 -2.834110e+02
     vertex -3.264074e+02  4.733038e+02 -2.828413e+02
   endloop
 endfacet
 facet normal  6.198712e-02 -4.879087e-01  8.706909e-01
   outer loop
     vertex -3.291560e+02  4.702791e+02 -2.840912e+02
     vertex -3.281281e+02  4.726403e+02 -2.828413e+02
     vertex -3.299576e+02  4.724079e+02 -2.828413e+02
   endloop
 endfacet
 facet normal  1.506155e-01 -5.129476e-01  8.451034e-01
   outer loop
     vertex -3.291560e+02  4.702791e+02 -2.840912e+02
     vertex -3.263876e+02  4.722128e+02 -2.834110e+02
     vertex -3.281281e+02  4.726403e+02 -2.828413e+02
   endloop
 endfacet
 facet normal -5.902254e-02 -5.096718e-01  8.583420e-01
   outer loop
     vertex -3.322148e+02  4.717099e+02 -2.834110e+02
     vertex -3.299576e+02  4.724079e+02 -2.828413e+02
     vertex -3.317896e+02  4.726200e+02 -2.828413e+02
   endloop
 endfacet
 facet normal -5.403911e-02 -5.206561e-01  8.520546e-01
   outer loop
     vertex -3.322148e+02  4.717099e+02 -2.834110e+02
     vertex -3.291560e+02  4.702791e+02 -2.840912e+02
     vertex -3.299576e+02  4.724079e+02 -2.828413e+02
   endloop
 endfacet
 facet normal -1.727802e-01 -4.633077e-01  8.691910e-01
   outer loop
     vertex -3.335175e+02  4.732644e+02 -2.828413e+02
     vertex -3.322148e+02  4.717099e+02 -2.834110e+02
     vertex -3.317896e+02  4.726200e+02 -2.828413e+02
   endloop
 endfacet
 facet normal -2.704658e-01 -3.965175e-01  8.772811e-01
   outer loop
     vertex -3.349877e+02  4.730068e+02 -2.834110e+02
     vertex -3.335175e+02  4.732644e+02 -2.828413e+02
     vertex -3.350411e+02  4.743036e+02 -2.828413e+02
   endloop
 endfacet
 facet normal -2.346947e-01 -5.017659e-01  8.325559e-01
   outer loop
     vertex -3.349877e+02  4.730068e+02 -2.834110e+02
     vertex -3.322148e+02  4.717099e+02 -2.834110e+02
     vertex -3.335175e+02  4.732644e+02 -2.828413e+02
   endloop
 endfacet
 facet normal -4.438591e-01 -2.361002e-01  8.644338e-01
   outer loop
     vertex -3.380465e+02  4.744375e+02 -2.840912e+02
     vertex -3.362716e+02  4.756772e+02 -2.828413e+02
     vertex -3.371377e+02  4.773054e+02 -2.828413e+02
   endloop
 endfacet
 facet normal -3.744589e-01 -3.354620e-01  8.644338e-01
   outer loop
     vertex -3.380465e+02  4.744375e+02 -2.840912e+02
     vertex -3.350411e+02  4.743036e+02 -2.828413e+02
     vertex -3.362716e+02  4.756772e+02 -2.828413e+02
   endloop
 endfacet
 facet normal -3.687909e-01 -3.865298e-01  8.453331e-01
   outer loop
     vertex -3.380465e+02  4.744375e+02 -2.840912e+02
     vertex -3.349877e+02  4.730068e+02 -2.834110e+02
     vertex -3.350411e+02  4.743036e+02 -2.828413e+02
   endloop
 endfacet
 facet normal -4.898549e-01 -2.131997e-01  8.453331e-01
   outer loop
     vertex -3.383369e+02  4.778019e+02 -2.834110e+02
     vertex -3.380465e+02  4.744375e+02 -2.840912e+02
     vertex -3.371377e+02  4.773054e+02 -2.828413e+02
   endloop
 endfacet
 facet normal -4.653863e-01 -1.174456e-01  8.772811e-01
   outer loop
     vertex -3.375890e+02  4.790936e+02 -2.828413e+02
     vertex -3.383369e+02  4.778019e+02 -2.834110e+02
     vertex -3.371377e+02  4.773054e+02 -2.828413e+02
   endloop
 endfacet
 facet normal -5.518894e-01 -4.763139e-02  8.325559e-01
   outer loop
     vertex -3.386001e+02  4.808518e+02 -2.834110e+02
     vertex -3.383369e+02  4.778019e+02 -2.834110e+02
     vertex -3.375890e+02  4.790936e+02 -2.828413e+02
   endloop
 endfacet
 facet normal -4.944690e-01 -2.738915e-03  8.691910e-01
   outer loop
     vertex -3.386001e+02  4.808518e+02 -2.834110e+02
     vertex -3.375890e+02  4.790936e+02 -2.828413e+02
     vertex -3.375992e+02  4.809378e+02 -2.828413e+02
   endloop
 endfacet
 facet normal -4.988413e-01  1.200263e-01  8.583420e-01
   outer loop
     vertex -3.371678e+02  4.827308e+02 -2.828413e+02
     vertex -3.386001e+02  4.808518e+02 -2.834110e+02
     vertex -3.375992e+02  4.809378e+02 -2.828413e+02
   endloop
 endfacet
 facet normal -5.074389e-01  1.284863e-01  8.520546e-01
   outer loop
     vertex -3.388905e+02  4.842162e+02 -2.840912e+02
     vertex -3.386001e+02  4.808518e+02 -2.834110e+02
     vertex -3.371678e+02  4.827308e+02 -2.828413e+02
   endloop
 endfacet
 facet normal -4.367537e-01  2.261494e-01  8.706909e-01
   outer loop
     vertex -3.388905e+02  4.842162e+02 -2.840912e+02
     vertex -3.371678e+02  4.827308e+02 -2.828413e+02
     vertex -3.363198e+02  4.843685e+02 -2.828413e+02
   endloop
 endfacet
 facet normal -4.297543e-01  3.179804e-01  8.451034e-01
   outer loop
     vertex -3.361220e+02  4.861498e+02 -2.834110e+02
     vertex -3.388905e+02  4.842162e+02 -2.840912e+02
     vertex -3.363198e+02  4.843685e+02 -2.828413e+02
   endloop
 endfacet
 facet normal -3.653795e-01  3.201033e-01  8.740890e-01
   outer loop
     vertex -3.361220e+02  4.861498e+02 -2.834110e+02
     vertex -3.363198e+02  4.843685e+02 -2.828413e+02
     vertex -3.351045e+02  4.857557e+02 -2.828413e+02
   endloop
 endfacet
 facet normal -3.048557e-01  4.364685e-01  8.464977e-01
   outer loop
     vertex -3.336124e+02  4.879027e+02 -2.834110e+02
     vertex -3.361220e+02  4.861498e+02 -2.834110e+02
     vertex -3.351045e+02  4.857557e+02 -2.828413e+02
   endloop
 endfacet
 facet normal -3.048557e-01  4.364685e-01  8.464977e-01
   outer loop
     vertex -3.336124e+02  4.879027e+02 -2.834110e+02
     vertex -3.351045e+02  4.857557e+02 -2.828413e+02
     vertex -3.335926e+02  4.868117e+02 -2.828413e+02
   endloop
 endfacet
 facet normal -1.747681e-01  4.532377e-01  8.740890e-01
   outer loop
     vertex -3.318718e+02  4.874752e+02 -2.828413e+02
     vertex -3.336124e+02  4.879027e+02 -2.834110e+02
     vertex -3.335926e+02  4.868117e+02 -2.828413e+02
   endloop
 endfacet
 facet normal -1.506155e-01  5.129476e-01  8.451034e-01
   outer loop
     vertex -3.308439e+02  4.898363e+02 -2.840912e+02
     vertex -3.336124e+02  4.879027e+02 -2.834110e+02
     vertex -3.318718e+02  4.874752e+02 -2.828413e+02
   endloop
 endfacet
 facet normal -6.198712e-02  4.879087e-01  8.706909e-01
   outer loop
     vertex -3.308439e+02  4.898363e+02 -2.840912e+02
     vertex -3.318718e+02  4.874752e+02 -2.828413e+02
     vertex -3.300423e+02  4.877076e+02 -2.828413e+02
   endloop
 endfacet
 facet normal  5.902254e-02  5.096718e-01  8.583420e-01
   outer loop
     vertex -3.277851e+02  4.884056e+02 -2.834110e+02
     vertex -3.300423e+02  4.877076e+02 -2.828413e+02
     vertex -3.282104e+02  4.874955e+02 -2.828413e+02
   endloop
 endfacet
 facet normal  5.403911e-02  5.206561e-01  8.520546e-01
   outer loop
     vertex -3.277851e+02  4.884056e+02 -2.834110e+02
     vertex -3.308439e+02  4.898363e+02 -2.840912e+02
     vertex -3.300423e+02  4.877076e+02 -2.828413e+02
   endloop
 endfacet
 facet normal  1.727802e-01  4.633077e-01  8.691910e-01
   outer loop
     vertex -3.264824e+02  4.868511e+02 -2.828413e+02
     vertex -3.277851e+02  4.884056e+02 -2.834110e+02
     vertex -3.282104e+02  4.874955e+02 -2.828413e+02
   endloop
 endfacet
 facet normal  2.704658e-01  3.965175e-01  8.772811e-01
   outer loop
     vertex -3.250122e+02  4.871086e+02 -2.834110e+02
     vertex -3.264824e+02  4.868511e+02 -2.828413e+02
     vertex -3.249589e+02  4.858119e+02 -2.828413e+02
   endloop
 endfacet
 facet normal  2.346947e-01  5.017659e-01  8.325559e-01
   outer loop
     vertex -3.250122e+02  4.871086e+02 -2.834110e+02
     vertex -3.277851e+02  4.884056e+02 -2.834110e+02
     vertex -3.264824e+02  4.868511e+02 -2.828413e+02
   endloop
 endfacet
 facet normal  3.744589e-01  3.354620e-01  8.644338e-01
   outer loop
     vertex -3.219534e+02  4.856779e+02 -2.840912e+02
     vertex -3.249589e+02  4.858119e+02 -2.828413e+02
     vertex -3.237283e+02  4.844382e+02 -2.828413e+02
   endloop
 endfacet
 facet normal  3.687909e-01  3.865298e-01  8.453331e-01
   outer loop
     vertex -3.219534e+02  4.856779e+02 -2.840912e+02
     vertex -3.250122e+02  4.871086e+02 -2.834110e+02
     vertex -3.249589e+02  4.858119e+02 -2.828413e+02
   endloop
 endfacet
 facet normal  3.744589e-01  3.354620e-01 -8.644338e-01
   outer loop
     vertex -3.219534e+02  4.856779e+02 -2.895914e+02
     vertex -3.237283e+02  4.844382e+02 -2.908413e+02
     vertex -3.249589e+02  4.858119e+02 -2.908413e+02
   endloop
 endfacet
 facet normal  3.687909e-01  3.865298e-01 -8.453331e-01
   outer loop
     vertex -3.250122e+02  4.871086e+02 -2.902716e+02
     vertex -3.219534e+02  4.856779e+02 -2.895914e+02
     vertex -3.249589e+02  4.858119e+02 -2.908413e+02
   endloop
 endfacet
 facet normal  2.704658e-01  3.965175e-01 -8.772811e-01
   outer loop
     vertex -3.264824e+02  4.868511e+02 -2.908413e+02
     vertex -3.250122e+02  4.871086e+02 -2.902716e+02
     vertex -3.249589e+02  4.858119e+02 -2.908413e+02
   endloop
 endfacet
 facet normal  1.727802e-01  4.633077e-01 -8.691910e-01
   outer loop
     vertex -3.277851e+02  4.884056e+02 -2.902716e+02
     vertex -3.264824e+02  4.868511e+02 -2.908413e+02
     vertex -3.282104e+02  4.874955e+02 -2.908413e+02
   endloop
 endfacet
 facet normal  2.346947e-01  5.017659e-01 -8.325559e-01
   outer loop
     vertex -3.277851e+02  4.884056e+02 -2.902716e+02
     vertex -3.250122e+02  4.871086e+02 -2.902716e+02
     vertex -3.264824e+02  4.868511e+02 -2.908413e+02
   endloop
 endfacet
 facet normal  5.902254e-02  5.096718e-01 -8.583420e-01
   outer loop
     vertex -3.300423e+02  4.877076e+02 -2.908413e+02
     vertex -3.277851e+02  4.884056e+02 -2.902716e+02
     vertex -3.282104e+02  4.874955e+02 -2.908413e+02
   endloop
 endfacet
 facet normal -6.198712e-02  4.879087e-01 -8.706909e-01
   outer loop
     vertex -3.308439e+02  4.898363e+02 -2.895914e+02
     vertex -3.300423e+02  4.877076e+02 -2.908413e+02
     vertex -3.318718e+02  4.874752e+02 -2.908413e+02
   endloop
 endfacet
 facet normal  5.403911e-02  5.206561e-01 -8.520546e-01
   outer loop
     vertex -3.308439e+02  4.898363e+02 -2.895914e+02
     vertex -3.277851e+02  4.884056e+02 -2.902716e+02
     vertex -3.300423e+02  4.877076e+02 -2.908413e+02
   endloop
 endfacet
 facet normal -1.747681e-01  4.532377e-01 -8.740890e-01
   outer loop
     vertex -3.336124e+02  4.879027e+02 -2.902716e+02
     vertex -3.318718e+02  4.874752e+02 -2.908413e+02
     vertex -3.335926e+02  4.868117e+02 -2.908413e+02
   endloop
 endfacet
 facet normal -1.506155e-01  5.129476e-01 -8.451034e-01
   outer loop
     vertex -3.336124e+02  4.879027e+02 -2.902716e+02
     vertex -3.308439e+02  4.898363e+02 -2.895914e+02
     vertex -3.318718e+02  4.874752e+02 -2.908413e+02
   endloop
 endfacet
 facet normal -3.048557e-01  4.364685e-01 -8.464977e-01
   outer loop
     vertex -3.361220e+02  4.861498e+02 -2.902716e+02
     vertex -3.335926e+02  4.868117e+02 -2.908413e+02
     vertex -3.351045e+02  4.857557e+02 -2.908413e+02
   endloop
 endfacet
 facet normal -3.048557e-01  4.364685e-01 -8.464977e-01
   outer loop
     vertex -3.361220e+02  4.861498e+02 -2.902716e+02
     vertex -3.336124e+02  4.879027e+02 -2.902716e+02
     vertex -3.335926e+02  4.868117e+02 -2.908413e+02
   endloop
 endfacet
 facet normal -3.653795e-01  3.201033e-01 -8.740890e-01
   outer loop
     vertex -3.363198e+02  4.843685e+02 -2.908413e+02
     vertex -3.361220e+02  4.861498e+02 -2.902716e+02
     vertex -3.351045e+02  4.857557e+02 -2.908413e+02
   endloop
 endfacet
 facet normal -4.367537e-01  2.261494e-01 -8.706909e-01
   outer loop
     vertex -3.388905e+02  4.842162e+02 -2.895914e+02
     vertex -3.363198e+02  4.843685e+02 -2.908413e+02
     vertex -3.371678e+02  4.827308e+02 -2.908413e+02
   endloop
 endfacet
 facet normal -4.297543e-01  3.179804e-01 -8.451034e-01
   outer loop
     vertex -3.388905e+02  4.842162e+02 -2.895914e+02
     vertex -3.361220e+02  4.861498e+02 -2.902716e+02
     vertex -3.363198e+02  4.843685e+02 -2.908413e+02
   endloop
 endfacet
 facet normal -4.988413e-01  1.200263e-01 -8.583420e-01
   outer loop
     vertex -3.386001e+02  4.808518e+02 -2.902716e+02
     vertex -3.371678e+02  4.827308e+02 -2.908413e+02
     vertex -3.375992e+02  4.809378e+02 -2.908413e+02
   endloop
 endfacet
 facet normal -5.074389e-01  1.284863e-01 -8.520546e-01
   outer loop
     vertex -3.386001e+02  4.808518e+02 -2.902716e+02
     vertex -3.388905e+02  4.842162e+02 -2.895914e+02
     vertex -3.371678e+02  4.827308e+02 -2.908413e+02
   endloop
 endfacet
 facet normal -4.944690e-01 -2.738915e-03 -8.691910e-01
   outer loop
     vertex -3.375890e+02  4.790936e+02 -2.908413e+02
     vertex -3.386001e+02  4.808518e+02 -2.902716e+02
     vertex -3.375992e+02  4.809378e+02 -2.908413e+02
   endloop
 endfacet
 facet normal -4.653863e-01 -1.174456e-01 -8.772811e-01
   outer loop
     vertex -3.383369e+02  4.778019e+02 -2.902716e+02
     vertex -3.375890e+02  4.790936e+02 -2.908413e+02
     vertex -3.371377e+02  4.773054e+02 -2.908413e+02
   endloop
 endfacet
 facet normal -5.518894e-01 -4.763139e-02 -8.325559e-01
   outer loop
     vertex -3.383369e+02  4.778019e+02 -2.902716e+02
     vertex -3.386001e+02  4.808518e+02 -2.902716e+02
     vertex -3.375890e+02  4.790936e+02 -2.908413e+02
   endloop
 endfacet
 facet normal -3.744589e-01 -3.354620e-01 -8.644338e-01
   outer loop
     vertex -3.380465e+02  4.744375e+02 -2.895914e+02
     vertex -3.362716e+02  4.756772e+02 -2.908413e+02
     vertex -3.350411e+02  4.743036e+02 -2.908413e+02
   endloop
 endfacet
 facet normal -4.438591e-01 -2.361002e-01 -8.644338e-01
   outer loop
     vertex -3.380465e+02  4.744375e+02 -2.895914e+02
     vertex -3.371377e+02  4.773054e+02 -2.908413e+02
     vertex -3.362716e+02  4.756772e+02 -2.908413e+02
   endloop
 endfacet
 facet normal -4.898549e-01 -2.131997e-01 -8.453331e-01
   outer loop
     vertex -3.380465e+02  4.744375e+02 -2.895914e+02
     vertex -3.383369e+02  4.778019e+02 -2.902716e+02
     vertex -3.371377e+02  4.773054e+02 -2.908413e+02
   endloop
 endfacet
 facet normal -3.687909e-01 -3.865298e-01 -8.453331e-01
   outer loop
     vertex -3.349877e+02  4.730068e+02 -2.902716e+02
     vertex -3.380465e+02  4.744375e+02 -2.895914e+02
     vertex -3.350411e+02  4.743036e+02 -2.908413e+02
   endloop
 endfacet
 facet normal -2.704658e-01 -3.965175e-01 -8.772811e-01
   outer loop
     vertex -3.335175e+02  4.732644e+02 -2.908413e+02
     vertex -3.349877e+02  4.730068e+02 -2.902716e+02
     vertex -3.350411e+02  4.743036e+02 -2.908413e+02
   endloop
 endfacet
 facet normal -2.346947e-01 -5.017659e-01 -8.325559e-01
   outer loop
     vertex -3.322148e+02  4.717099e+02 -2.902716e+02
     vertex -3.349877e+02  4.730068e+02 -2.902716e+02
     vertex -3.335175e+02  4.732644e+02 -2.908413e+02
   endloop
 endfacet
 facet normal -1.727802e-01 -4.633077e-01 -8.691910e-01
   outer loop
     vertex -3.322148e+02  4.717099e+02 -2.902716e+02
     vertex -3.335175e+02  4.732644e+02 -2.908413e+02
     vertex -3.317896e+02  4.726200e+02 -2.908413e+02
   endloop
 endfacet
 facet normal -5.902254e-02 -5.096718e-01 -8.583420e-01
   outer loop
     vertex -3.299576e+02  4.724079e+02 -2.908413e+02
     vertex -3.322148e+02  4.717099e+02 -2.902716e+02
     vertex -3.317896e+02  4.726200e+02 -2.908413e+02
   endloop
 endfacet
 facet normal -5.403911e-02 -5.206561e-01 -8.520546e-01
   outer loop
     vertex -3.291560e+02  4.702791e+02 -2.895914e+02
     vertex -3.322148e+02  4.717099e+02 -2.902716e+02
     vertex -3.299576e+02  4.724079e+02 -2.908413e+02
   endloop
 endfacet
 facet normal  6.198712e-02 -4.879087e-01 -8.706909e-01
   outer loop
     vertex -3.291560e+02  4.702791e+02 -2.895914e+02
     vertex -3.299576e+02  4.724079e+02 -2.908413e+02
     vertex -3.281281e+02  4.726403e+02 -2.908413e+02
   endloop
 endfacet
 facet normal  1.506155e-01 -5.129476e-01 -8.451034e-01
   outer loop
     vertex -3.263876e+02  4.722128e+02 -2.902716e+02
     vertex -3.291560e+02  4.702791e+02 -2.895914e+02
     vertex -3.281281e+02  4.726403e+02 -2.908413e+02
   endloop
 endfacet
 facet normal  1.747681e-01 -4.532377e-01 -8.740890e-01
   outer loop
     vertex -3.263876e+02  4.722128e+02 -2.902716e+02
     vertex -3.281281e+02  4.726403e+02 -2.908413e+02
     vertex -3.264074e+02  4.733038e+02 -2.908413e+02
   endloop
 endfacet
 facet normal  3.048557e-01 -4.364685e-01 -8.464977e-01
   outer loop
     vertex -3.248954e+02  4.743598e+02 -2.908413e+02
     vertex -3.263876e+02  4.722128e+02 -2.902716e+02
     vertex -3.264074e+02  4.733038e+02 -2.908413e+02
   endloop
 endfacet
 facet normal  3.048557e-01 -4.364685e-01 -8.464977e-01
   outer loop
     vertex -3.238779e+02  4.739657e+02 -2.902716e+02
     vertex -3.263876e+02  4.722128e+02 -2.902716e+02
     vertex -3.248954e+02  4.743598e+02 -2.908413e+02
   endloop
 endfacet
 facet normal  3.653795e-01 -3.201033e-01 -8.740890e-01
   outer loop
     vertex -3.236802e+02  4.757470e+02 -2.908413e+02
     vertex -3.238779e+02  4.739657e+02 -2.902716e+02
     vertex -3.248954e+02  4.743598e+02 -2.908413e+02
   endloop
 endfacet
 facet normal  4.297543e-01 -3.179804e-01 -8.451034e-01
   outer loop
     vertex -3.211095e+02  4.758993e+02 -2.895914e+02
     vertex -3.238779e+02  4.739657e+02 -2.902716e+02
     vertex -3.236802e+02  4.757470e+02 -2.908413e+02
   endloop
 endfacet
 facet normal  4.367537e-01 -2.261494e-01 -8.706909e-01
   outer loop
     vertex -3.211095e+02  4.758993e+02 -2.895914e+02
     vertex -3.236802e+02  4.757470e+02 -2.908413e+02
     vertex -3.228322e+02  4.773847e+02 -2.908413e+02
   endloop
 endfacet
 facet normal  4.988413e-01 -1.200263e-01 -8.583420e-01
   outer loop
     vertex -3.213998e+02  4.792637e+02 -2.902716e+02
     vertex -3.228322e+02  4.773847e+02 -2.908413e+02
     vertex -3.224007e+02  4.791777e+02 -2.908413e+02
   endloop
 endfacet
 facet normal  5.074389e-01 -1.284863e-01 -8.520546e-01
   outer loop
     vertex -3.213998e+02  4.792637e+02 -2.902716e+02
     vertex -3.211095e+02  4.758993e+02 -2.895914e+02
     vertex -3.228322e+02  4.773847e+02 -2.908413e+02
   endloop
 endfacet
 facet normal  4.944690e-01  2.738915e-03 -8.691910e-01
   outer loop
     vertex -3.224110e+02  4.810219e+02 -2.908413e+02
     vertex -3.213998e+02  4.792637e+02 -2.902716e+02
     vertex -3.224007e+02  4.791777e+02 -2.908413e+02
   endloop
 endfacet
 facet normal  4.653863e-01  1.174456e-01 -8.772811e-01
   outer loop
     vertex -3.216631e+02  4.823135e+02 -2.902716e+02
     vertex -3.224110e+02  4.810219e+02 -2.908413e+02
     vertex -3.228622e+02  4.828100e+02 -2.908413e+02
   endloop
 endfacet
 facet normal  5.518894e-01  4.763139e-02 -8.325559e-01
   outer loop
     vertex -3.216631e+02  4.823135e+02 -2.902716e+02
     vertex -3.213998e+02  4.792637e+02 -2.902716e+02
     vertex -3.224110e+02  4.810219e+02 -2.908413e+02
   endloop
 endfacet
 facet normal  4.438591e-01  2.361002e-01 -8.644338e-01
   outer loop
     vertex -3.219534e+02  4.856779e+02 -2.895914e+02
     vertex -3.228622e+02  4.828100e+02 -2.908413e+02
     vertex -3.237283e+02  4.844382e+02 -2.908413e+02
   endloop
 endfacet
 facet normal  4.898549e-01  2.131997e-01 -8.453331e-01
   outer loop
     vertex -3.219534e+02  4.856779e+02 -2.895914e+02
     vertex -3.216631e+02  4.823135e+02 -2.902716e+02
     vertex -3.228622e+02  4.828100e+02 -2.908413e+02
   endloop
 endfacet
 facet normal  4.236818e-01  9.058111e-01 -0.000000e+00
   outer loop
     vertex -3.308439e+02  4.898363e+02 -2.895914e+02
     vertex -3.308439e+02  4.898363e+02 -2.840912e+02
     vertex -3.277851e+02  4.884056e+02 -2.834110e+02
   endloop
 endfacet
 facet normal  4.236818e-01  9.058111e-01 -0.000000e+00
   outer loop
     vertex -3.277851e+02  4.884056e+02 -2.902716e+02
     vertex -3.277851e+02  4.884056e+02 -2.834110e+02
     vertex -3.250122e+02  4.871086e+02 -2.834110e+02
   endloop
 endfacet
 facet normal  4.236818e-01  9.058111e-01 -0.000000e+00
   outer loop
     vertex -3.277851e+02  4.884056e+02 -2.902716e+02
     vertex -3.308439e+02  4.898363e+02 -2.895914e+02
     vertex -3.277851e+02  4.884056e+02 -2.834110e+02
   endloop
 endfacet
 facet normal  4.236818e-01  9.058111e-01 -0.000000e+00
   outer loop
     vertex -3.250122e+02  4.871086e+02 -2.902716e+02
     vertex -3.277851e+02  4.884056e+02 -2.902716e+02
     vertex -3.250122e+02  4.871086e+02 -2.834110e+02
   endloop
 endfacet
 facet normal  4.236818e-01  9.058111e-01 -0.000000e+00
   outer loop
     vertex -3.219534e+02  4.856779e+02 -2.895914e+02
     vertex -3.250122e+02  4.871086e+02 -2.834110e+02
     vertex -3.219534e+02  4.856779e+02 -2.840912e+02
   endloop
 endfacet
 facet normal  4.236818e-01  9.058111e-01 -1.865420e-17
   outer loop
     vertex -3.219534e+02  4.856779e+02 -2.895914e+02
     vertex -3.250122e+02  4.871086e+02 -2.902716e+02
     vertex -3.250122e+02  4.871086e+02 -2.834110e+02
   endloop
 endfacet
 facet normal -5.726146e-01  8.198247e-01  0.000000e+00
   outer loop
     vertex -3.361220e+02  4.861498e+02 -2.834110e+02
     vertex -3.361220e+02  4.861498e+02 -2.902716e+02
     vertex -3.388905e+02  4.842162e+02 -2.895914e+02
   endloop
 endfacet
 facet normal -5.726146e-01  8.198247e-01  1.709465e-17
   outer loop
     vertex -3.361220e+02  4.861498e+02 -2.834110e+02
     vertex -3.388905e+02  4.842162e+02 -2.895914e+02
     vertex -3.388905e+02  4.842162e+02 -2.840912e+02
   endloop
 endfacet
 facet normal -5.726146e-01  8.198247e-01  0.000000e+00
   outer loop
     vertex -3.336124e+02  4.879027e+02 -2.834110e+02
     vertex -3.308439e+02  4.898363e+02 -2.895914e+02
     vertex -3.336124e+02  4.879027e+02 -2.902716e+02
   endloop
 endfacet
 facet normal -5.726146e-01  8.198247e-01  0.000000e+00
   outer loop
     vertex -3.336124e+02  4.879027e+02 -2.834110e+02
     vertex -3.336124e+02  4.879027e+02 -2.902716e+02
     vertex -3.361220e+02  4.861498e+02 -2.902716e+02
   endloop
 endfacet
 facet normal -5.726146e-01  8.198247e-01 -1.106601e-17
   outer loop
     vertex -3.336124e+02  4.879027e+02 -2.834110e+02
     vertex -3.361220e+02  4.861498e+02 -2.902716e+02
     vertex -3.361220e+02  4.861498e+02 -2.834110e+02
   endloop
 endfacet
 facet normal -5.726146e-01  8.198247e-01  0.000000e+00
   outer loop
     vertex -3.308439e+02  4.898363e+02 -2.840912e+02
     vertex -3.308439e+02  4.898363e+02 -2.895914e+02
     vertex -3.336124e+02  4.879027e+02 -2.834110e+02
   endloop
 endfacet
 facet normal  9.962963e-01  8.598639e-02 -0.000000e+00
   outer loop
     vertex -3.211095e+02  4.758993e+02 -2.895914e+02
     vertex -3.213998e+02  4.792637e+02 -2.834110e+02
     vertex -3.211095e+02  4.758993e+02 -2.840912e+02
   endloop
 endfacet
 facet normal  9.962963e-01  8.598639e-02 -0.000000e+00
   outer loop
     vertex -3.213998e+02  4.792637e+02 -2.902716e+02
     vertex -3.216631e+02  4.823135e+02 -2.834110e+02
     vertex -3.213998e+02  4.792637e+02 -2.834110e+02
   endloop
 endfacet
 facet normal  9.962963e-01  8.598639e-02 -0.000000e+00
   outer loop
     vertex -3.213998e+02  4.792637e+02 -2.902716e+02
     vertex -3.213998e+02  4.792637e+02 -2.834110e+02
     vertex -3.211095e+02  4.758993e+02 -2.895914e+02
   endloop
 endfacet
 facet normal  9.962963e-01  8.598639e-02 -0.000000e+00
   outer loop
     vertex -3.216631e+02  4.823135e+02 -2.902716e+02
     vertex -3.216631e+02  4.823135e+02 -2.834110e+02
     vertex -3.213998e+02  4.792637e+02 -2.902716e+02
   endloop
 endfacet
 facet normal  9.962963e-01  8.598639e-02 -0.000000e+00
   outer loop
     vertex -3.219534e+02  4.856779e+02 -2.895914e+02
     vertex -3.219534e+02  4.856779e+02 -2.840912e+02
     vertex -3.216631e+02  4.823135e+02 -2.834110e+02
   endloop
 endfacet
 facet normal  9.962963e-01  8.598639e-02  1.290468e-18
   outer loop
     vertex -3.219534e+02  4.856779e+02 -2.895914e+02
     vertex -3.216631e+02  4.823135e+02 -2.834110e+02
     vertex -3.216631e+02  4.823135e+02 -2.902716e+02
   endloop
 endfacet
 facet normal  5.726146e-01 -8.198247e-01  0.000000e+00
   outer loop
     vertex -3.263876e+02  4.722128e+02 -2.902716e+02
     vertex -3.263876e+02  4.722128e+02 -2.834110e+02
     vertex -3.291560e+02  4.702791e+02 -2.840912e+02
   endloop
 endfacet
 facet normal  5.726146e-01 -8.198247e-01 -1.339352e-17
   outer loop
     vertex -3.263876e+02  4.722128e+02 -2.902716e+02
     vertex -3.291560e+02  4.702791e+02 -2.840912e+02
     vertex -3.291560e+02  4.702791e+02 -2.895914e+02
   endloop
 endfacet
 facet normal  5.726146e-01 -8.198247e-01  0.000000e+00
   outer loop
     vertex -3.238779e+02  4.739657e+02 -2.902716e+02
     vertex -3.238779e+02  4.739657e+02 -2.834110e+02
     vertex -3.263876e+02  4.722128e+02 -2.834110e+02
   endloop
 endfacet
 facet normal  5.726146e-01 -8.198247e-01 -2.619249e-18
   outer loop
     vertex -3.238779e+02  4.739657e+02 -2.902716e+02
     vertex -3.263876e+02  4.722128e+02 -2.834110e+02
     vertex -3.263876e+02  4.722128e+02 -2.902716e+02
   endloop
 endfacet
 facet normal  5.726146e-01 -8.198247e-01  0.000000e+00
   outer loop
     vertex -3.211095e+02  4.758993e+02 -2.895914e+02
     vertex -3.211095e+02  4.758993e+02 -2.840912e+02
     vertex -3.238779e+02  4.739657e+02 -2.834110e+02
   endloop
 endfacet
 facet normal  5.726146e-01 -8.198247e-01  1.786320e-18
   outer loop
     vertex -3.211095e+02  4.758993e+02 -2.895914e+02
     vertex -3.238779e+02  4.739657e+02 -2.834110e+02
     vertex -3.238779e+02  4.739657e+02 -2.902716e+02
   endloop
 endfacet
 facet normal -9.962963e-01 -8.598639e-02 -8.254742e-15
   outer loop
     vertex -3.383369e+02  4.778019e+02 -2.834110e+02
     vertex -3.383369e+02  4.778019e+02 -2.902716e+02
     vertex -3.380465e+02  4.744375e+02 -2.895914e+02
   endloop
 endfacet
 facet normal -9.962963e-01 -8.598639e-02 -1.150976e-18
   outer loop
     vertex -3.383369e+02  4.778019e+02 -2.834110e+02
     vertex -3.380465e+02  4.744375e+02 -2.895914e+02
     vertex -3.380465e+02  4.744375e+02 -2.840912e+02
   endloop
 endfacet
 facet normal -9.962963e-01 -8.598639e-02 -0.000000e+00
   outer loop
     vertex -3.386001e+02  4.808518e+02 -2.834110e+02
     vertex -3.388905e+02  4.842162e+02 -2.895914e+02
     vertex -3.386001e+02  4.808518e+02 -2.902716e+02
   endloop
 endfacet
 facet normal -9.962963e-01 -8.598639e-02 -0.000000e+00
   outer loop
     vertex -3.386001e+02  4.808518e+02 -2.834110e+02
     vertex -3.386001e+02  4.808518e+02 -2.902716e+02
     vertex -3.383369e+02  4.778019e+02 -2.902716e+02
   endloop
 endfacet
 facet normal -9.962963e-01 -8.598639e-02 -8.254286e-15
   outer loop
     vertex -3.386001e+02  4.808518e+02 -2.834110e+02
     vertex -3.383369e+02  4.778019e+02 -2.902716e+02
     vertex -3.383369e+02  4.778019e+02 -2.834110e+02
   endloop
 endfacet
 facet normal -9.962963e-01 -8.598639e-02 -0.000000e+00
   outer loop
     vertex -3.388905e+02  4.842162e+02 -2.840912e+02
     vertex -3.388905e+02  4.842162e+02 -2.895914e+02
     vertex -3.386001e+02  4.808518e+02 -2.834110e+02
   endloop
 endfacet
 facet normal -4.236818e-01 -9.058111e-01  0.000000e+00
   outer loop
     vertex -3.291560e+02  4.702791e+02 -2.895914e+02
     vertex -3.291560e+02  4.702791e+02 -2.840912e+02
     vertex -3.322148e+02  4.717099e+02 -2.834110e+02
   endloop
 endfacet
 facet normal -4.236818e-01 -9.058111e-01  0.000000e+00
   outer loop
     vertex -3.322148e+02  4.717099e+02 -2.902716e+02
     vertex -3.291560e+02  4.702791e+02 -2.895914e+02
     vertex -3.322148e+02  4.717099e+02 -2.834110e+02
   endloop
 endfacet
 facet normal -4.236818e-01 -9.058111e-01  0.000000e+00
   outer loop
     vertex -3.349877e+02  4.730068e+02 -2.902716e+02
     vertex -3.322148e+02  4.717099e+02 -2.834110e+02
     vertex -3.349877e+02  4.730068e+02 -2.834110e+02
   endloop
 endfacet
 facet normal -4.236818e-01 -9.058111e-01  1.256536e-18
   outer loop
     vertex -3.349877e+02  4.730068e+02 -2.902716e+02
     vertex -3.322148e+02  4.717099e+02 -2.902716e+02
     vertex -3.322148e+02  4.717099e+02 -2.834110e+02
   endloop
 endfacet
 facet normal -4.236818e-01 -9.058111e-01  0.000000e+00
   outer loop
     vertex -3.380465e+02  4.744375e+02 -2.895914e+02
     vertex -3.349877e+02  4.730068e+02 -2.834110e+02
     vertex -3.380465e+02  4.744375e+02 -2.840912e+02
   endloop
 endfacet
 facet normal -4.236818e-01 -9.058111e-01 -1.865420e-17
   outer loop
     vertex -3.380465e+02  4.744375e+02 -2.895914e+02
     vertex -3.349877e+02  4.730068e+02 -2.902716e+02
     vertex -3.349877e+02  4.730068e+02 -2.834110e+02
   endloop
 endfacet
endsolid
