solid 
 facet normal -8.928507e-01  0.000000e+00  4.503529e-01
   outer loop
     vertex -6.465554e+02 -2.950000e+02  2.364489e+01
     vertex -6.460994e+02 -2.942000e+02  2.454891e+01
     vertex -6.465554e+02 -2.942000e+02  2.364489e+01
   endloop
 endfacet
 facet normal -9.746825e-01  0.000000e+00  2.235933e-01
   outer loop
     vertex -6.460994e+02 -2.950000e+02  2.454891e+01
     vertex -6.458730e+02 -2.942000e+02  2.553578e+01
     vertex -6.460994e+02 -2.942000e+02  2.454891e+01
   endloop
 endfacet
 facet normal -8.928507e-01  0.000000e+00  4.503529e-01
   outer loop
     vertex -6.460994e+02 -2.950000e+02  2.454891e+01
     vertex -6.460994e+02 -2.942000e+02  2.454891e+01
     vertex -6.465554e+02 -2.950000e+02  2.364489e+01
   endloop
 endfacet
 facet normal -9.998694e-01  0.000000e+00 -1.616074e-02
   outer loop
     vertex -6.458730e+02 -2.950000e+02  2.553578e+01
     vertex -6.458894e+02 -2.942000e+02  2.654816e+01
     vertex -6.458730e+02 -2.942000e+02  2.553578e+01
   endloop
 endfacet
 facet normal -9.746825e-01  0.000000e+00  2.235933e-01
   outer loop
     vertex -6.458730e+02 -2.950000e+02  2.553578e+01
     vertex -6.458730e+02 -2.942000e+02  2.553578e+01
     vertex -6.460994e+02 -2.950000e+02  2.454891e+01
   endloop
 endfacet
 facet normal -9.669475e-01 -1.472015e-14 -2.549755e-01
   outer loop
     vertex -6.458894e+02 -2.950000e+02  2.654816e+01
     vertex -6.461476e+02 -2.942000e+02  2.752720e+01
     vertex -6.458894e+02 -2.942000e+02  2.654816e+01
   endloop
 endfacet
 facet normal -9.998694e-01 -9.329851e-16 -1.616074e-02
   outer loop
     vertex -6.458894e+02 -2.950000e+02  2.654816e+01
     vertex -6.458894e+02 -2.942000e+02  2.654816e+01
     vertex -6.458730e+02 -2.950000e+02  2.553578e+01
   endloop
 endfacet
 facet normal -8.778301e-01  0.000000e+00 -4.789721e-01
   outer loop
     vertex -6.461476e+02 -2.950000e+02  2.752720e+01
     vertex -6.466325e+02 -2.942000e+02  2.841601e+01
     vertex -6.461476e+02 -2.942000e+02  2.752720e+01
   endloop
 endfacet
 facet normal -9.669475e-01  0.000000e+00 -2.549755e-01
   outer loop
     vertex -6.461476e+02 -2.950000e+02  2.752720e+01
     vertex -6.461476e+02 -2.942000e+02  2.752720e+01
     vertex -6.458894e+02 -2.950000e+02  2.654816e+01
   endloop
 endfacet
 facet normal -7.376964e-01  1.976732e-13 -6.751325e-01
   outer loop
     vertex -6.466325e+02 -2.950000e+02  2.841601e+01
     vertex -6.473161e+02 -2.942000e+02  2.916294e+01
     vertex -6.466325e+02 -2.942000e+02  2.841601e+01
   endloop
 endfacet
 facet normal -8.778301e-01  2.409861e-13 -4.789721e-01
   outer loop
     vertex -6.466325e+02 -2.950000e+02  2.841601e+01
     vertex -6.466325e+02 -2.942000e+02  2.841601e+01
     vertex -6.461476e+02 -2.950000e+02  2.752720e+01
   endloop
 endfacet
 facet normal -5.546905e-01  0.000000e+00 -8.320567e-01
   outer loop
     vertex -6.473161e+02 -2.950000e+02  2.916294e+01
     vertex -6.481586e+02 -2.942000e+02  2.972457e+01
     vertex -6.473161e+02 -2.942000e+02  2.916294e+01
   endloop
 endfacet
 facet normal -7.376964e-01  0.000000e+00 -6.751325e-01
   outer loop
     vertex -6.473161e+02 -2.950000e+02  2.916294e+01
     vertex -6.473161e+02 -2.942000e+02  2.916294e+01
     vertex -6.466325e+02 -2.950000e+02  2.841601e+01
   endloop
 endfacet
 facet normal -3.394480e-01  0.000000e+00 -9.406248e-01
   outer loop
     vertex -6.481586e+02 -2.950000e+02  2.972457e+01
     vertex -6.491109e+02 -2.942000e+02  3.006826e+01
     vertex -6.481586e+02 -2.942000e+02  2.972457e+01
   endloop
 endfacet
 facet normal -5.546905e-01  0.000000e+00 -8.320567e-01
   outer loop
     vertex -6.481586e+02 -2.950000e+02  2.972457e+01
     vertex -6.481586e+02 -2.942000e+02  2.972457e+01
     vertex -6.473161e+02 -2.950000e+02  2.916294e+01
   endloop
 endfacet
 facet normal -1.044780e-01 -6.747049e-14 -9.945272e-01
   outer loop
     vertex -6.491109e+02 -2.950000e+02  3.006826e+01
     vertex -6.501179e+02 -2.942000e+02  3.017404e+01
     vertex -6.491109e+02 -2.942000e+02  3.006826e+01
   endloop
 endfacet
 facet normal -3.394480e-01  4.578240e-15 -9.406248e-01
   outer loop
     vertex -6.491109e+02 -2.950000e+02  3.006826e+01
     vertex -6.491109e+02 -2.942000e+02  3.006826e+01
     vertex -6.481586e+02 -2.950000e+02  2.972457e+01
   endloop
 endfacet
 facet normal  1.365638e-01  0.000000e+00 -9.906313e-01
   outer loop
     vertex -6.501179e+02 -2.950000e+02  3.017404e+01
     vertex -6.511209e+02 -2.942000e+02  3.003577e+01
     vertex -6.501179e+02 -2.942000e+02  3.017404e+01
   endloop
 endfacet
 facet normal -1.044780e-01  0.000000e+00 -9.945272e-01
   outer loop
     vertex -6.501179e+02 -2.950000e+02  3.017404e+01
     vertex -6.501179e+02 -2.942000e+02  3.017404e+01
     vertex -6.491109e+02 -2.950000e+02  3.006826e+01
   endloop
 endfacet
 facet normal  3.696691e-01  5.887735e-14 -9.291635e-01
   outer loop
     vertex -6.511209e+02 -2.950000e+02  3.003577e+01
     vertex -6.520617e+02 -2.942000e+02  2.966148e+01
     vertex -6.511209e+02 -2.942000e+02  3.003577e+01
   endloop
 endfacet
 facet normal  1.365638e-01  9.937385e-14 -9.906313e-01
   outer loop
     vertex -6.511209e+02 -2.950000e+02  3.003577e+01
     vertex -6.511209e+02 -2.942000e+02  3.003577e+01
     vertex -6.501179e+02 -2.950000e+02  3.017404e+01
   endloop
 endfacet
 facet normal  3.696691e-01  0.000000e+00 -9.291635e-01
   outer loop
     vertex -6.520617e+02 -2.950000e+02  2.966148e+01
     vertex -6.520617e+02 -2.942000e+02  2.966148e+01
     vertex -6.511209e+02 -2.950000e+02  3.003577e+01
   endloop
 endfacet
 facet normal  5.812906e-01  0.000000e+00 -8.136960e-01
   outer loop
     vertex -6.520617e+02 -2.950000e+02  2.966148e+01
     vertex -6.528856e+02 -2.942000e+02  2.907292e+01
     vertex -6.520617e+02 -2.942000e+02  2.966148e+01
   endloop
 endfacet
 facet normal  5.812906e-01 -9.706051e-14 -8.136960e-01
   outer loop
     vertex -6.528856e+02 -2.950000e+02  2.907292e+01
     vertex -6.528856e+02 -2.942000e+02  2.907292e+01
     vertex -6.520617e+02 -2.950000e+02  2.966148e+01
   endloop
 endfacet
 facet normal  7.591295e-01 -1.194418e-13 -6.509396e-01
   outer loop
     vertex -6.528856e+02 -2.950000e+02  2.907292e+01
     vertex -6.535447e+02 -2.942000e+02  2.830429e+01
     vertex -6.528856e+02 -2.942000e+02  2.907292e+01
   endloop
 endfacet
 facet normal  7.591295e-01  0.000000e+00 -6.509396e-01
   outer loop
     vertex -6.535447e+02 -2.950000e+02  2.830429e+01
     vertex -6.535447e+02 -2.942000e+02  2.830429e+01
     vertex -6.528856e+02 -2.950000e+02  2.907292e+01
   endloop
 endfacet
 facet normal  8.928507e-01  0.000000e+00 -4.503529e-01
   outer loop
     vertex -6.535447e+02 -2.950000e+02  2.830429e+01
     vertex -6.540007e+02 -2.942000e+02  2.740027e+01
     vertex -6.535447e+02 -2.942000e+02  2.830429e+01
   endloop
 endfacet
 facet normal  8.928507e-01  1.888807e-13 -4.503529e-01
   outer loop
     vertex -6.540007e+02 -2.950000e+02  2.740027e+01
     vertex -6.540007e+02 -2.942000e+02  2.740027e+01
     vertex -6.535447e+02 -2.950000e+02  2.830429e+01
   endloop
 endfacet
 facet normal  9.746825e-01  1.693008e-13 -2.235933e-01
   outer loop
     vertex -6.542271e+02 -2.950000e+02  2.641340e+01
     vertex -6.540007e+02 -2.942000e+02  2.740027e+01
     vertex -6.540007e+02 -2.950000e+02  2.740027e+01
   endloop
 endfacet
 facet normal  9.746825e-01  1.563839e-13 -2.235933e-01
   outer loop
     vertex -6.542271e+02 -2.950000e+02  2.641340e+01
     vertex -6.542271e+02 -2.942000e+02  2.641340e+01
     vertex -6.540007e+02 -2.942000e+02  2.740027e+01
   endloop
 endfacet
 facet normal  9.998694e-01  1.407982e-13  1.616074e-02
   outer loop
     vertex -6.542271e+02 -2.950000e+02  2.641340e+01
     vertex -6.542107e+02 -2.942000e+02  2.540102e+01
     vertex -6.542271e+02 -2.942000e+02  2.641340e+01
   endloop
 endfacet
 facet normal  9.998694e-01  7.176809e-17  1.616074e-02
   outer loop
     vertex -6.542107e+02 -2.950000e+02  2.540102e+01
     vertex -6.542107e+02 -2.942000e+02  2.540102e+01
     vertex -6.542271e+02 -2.950000e+02  2.641340e+01
   endloop
 endfacet
 facet normal  9.669475e-01  1.132319e-15  2.549755e-01
   outer loop
     vertex -6.542107e+02 -2.950000e+02  2.540102e+01
     vertex -6.539525e+02 -2.942000e+02  2.442198e+01
     vertex -6.542107e+02 -2.942000e+02  2.540102e+01
   endloop
 endfacet
 facet normal  9.669475e-01 -0.000000e+00  2.549755e-01
   outer loop
     vertex -6.539525e+02 -2.950000e+02  2.442198e+01
     vertex -6.539525e+02 -2.942000e+02  2.442198e+01
     vertex -6.542107e+02 -2.950000e+02  2.540102e+01
   endloop
 endfacet
 facet normal  8.778301e-01 -0.000000e+00  4.789721e-01
   outer loop
     vertex -6.539525e+02 -2.950000e+02  2.442198e+01
     vertex -6.534676e+02 -2.942000e+02  2.353317e+01
     vertex -6.539525e+02 -2.942000e+02  2.442198e+01
   endloop
 endfacet
 facet normal  8.778301e-01 -0.000000e+00  4.789721e-01
   outer loop
     vertex -6.534676e+02 -2.950000e+02  2.353317e+01
     vertex -6.534676e+02 -2.942000e+02  2.353317e+01
     vertex -6.539525e+02 -2.950000e+02  2.442198e+01
   endloop
 endfacet
 facet normal  7.376964e-01 -0.000000e+00  6.751325e-01
   outer loop
     vertex -6.534676e+02 -2.950000e+02  2.353317e+01
     vertex -6.527840e+02 -2.942000e+02  2.278625e+01
     vertex -6.534676e+02 -2.942000e+02  2.353317e+01
   endloop
 endfacet
 facet normal  7.376964e-01 -0.000000e+00  6.751325e-01
   outer loop
     vertex -6.527840e+02 -2.950000e+02  2.278625e+01
     vertex -6.527840e+02 -2.942000e+02  2.278625e+01
     vertex -6.534676e+02 -2.950000e+02  2.353317e+01
   endloop
 endfacet
 facet normal  5.546905e-01 -0.000000e+00  8.320567e-01
   outer loop
     vertex -6.527840e+02 -2.950000e+02  2.278625e+01
     vertex -6.519415e+02 -2.942000e+02  2.222462e+01
     vertex -6.527840e+02 -2.942000e+02  2.278625e+01
   endloop
 endfacet
 facet normal  5.546905e-01 -0.000000e+00  8.320567e-01
   outer loop
     vertex -6.519415e+02 -2.950000e+02  2.222462e+01
     vertex -6.519415e+02 -2.942000e+02  2.222462e+01
     vertex -6.527840e+02 -2.950000e+02  2.278625e+01
   endloop
 endfacet
 facet normal  3.394480e-01 -0.000000e+00  9.406248e-01
   outer loop
     vertex -6.519415e+02 -2.950000e+02  2.222462e+01
     vertex -6.509891e+02 -2.942000e+02  2.188093e+01
     vertex -6.519415e+02 -2.942000e+02  2.222462e+01
   endloop
 endfacet
 facet normal  3.394480e-01 -0.000000e+00  9.406248e-01
   outer loop
     vertex -6.509891e+02 -2.950000e+02  2.188093e+01
     vertex -6.509891e+02 -2.942000e+02  2.188093e+01
     vertex -6.519415e+02 -2.950000e+02  2.222462e+01
   endloop
 endfacet
 facet normal  1.044780e-01 -3.495041e-18  9.945272e-01
   outer loop
     vertex -6.499822e+02 -2.950000e+02  2.177514e+01
     vertex -6.509891e+02 -2.942000e+02  2.188093e+01
     vertex -6.509891e+02 -2.950000e+02  2.188093e+01
   endloop
 endfacet
 facet normal  1.044780e-01  4.416588e-15  9.945272e-01
   outer loop
     vertex -6.499822e+02 -2.950000e+02  2.177514e+01
     vertex -6.499822e+02 -2.942000e+02  2.177514e+01
     vertex -6.509891e+02 -2.942000e+02  2.188093e+01
   endloop
 endfacet
 facet normal -1.365638e-01  4.399287e-15  9.906313e-01
   outer loop
     vertex -6.499822e+02 -2.950000e+02  2.177514e+01
     vertex -6.489791e+02 -2.942000e+02  2.191341e+01
     vertex -6.499822e+02 -2.942000e+02  2.177514e+01
   endloop
 endfacet
 facet normal -1.365638e-01  2.018669e-14  9.906313e-01
   outer loop
     vertex -6.489791e+02 -2.950000e+02  2.191341e+01
     vertex -6.489791e+02 -2.942000e+02  2.191341e+01
     vertex -6.499822e+02 -2.950000e+02  2.177514e+01
   endloop
 endfacet
 facet normal -3.696691e-01 -1.539631e-14  9.291635e-01
   outer loop
     vertex -6.489791e+02 -2.950000e+02  2.191341e+01
     vertex -6.480384e+02 -2.942000e+02  2.228771e+01
     vertex -6.489791e+02 -2.942000e+02  2.191341e+01
   endloop
 endfacet
 facet normal -3.696691e-01  5.776841e-14  9.291635e-01
   outer loop
     vertex -6.480384e+02 -2.950000e+02  2.228771e+01
     vertex -6.480384e+02 -2.942000e+02  2.228771e+01
     vertex -6.489791e+02 -2.950000e+02  2.191341e+01
   endloop
 endfacet
 facet normal -5.812906e-01  0.000000e+00  8.136960e-01
   outer loop
     vertex -6.472145e+02 -2.950000e+02  2.287627e+01
     vertex -6.472145e+02 -2.942000e+02  2.287627e+01
     vertex -6.480384e+02 -2.942000e+02  2.228771e+01
   endloop
 endfacet
 facet normal -7.591295e-01  0.000000e+00  6.509396e-01
   outer loop
     vertex -6.472145e+02 -2.950000e+02  2.287627e+01
     vertex -6.465554e+02 -2.942000e+02  2.364489e+01
     vertex -6.472145e+02 -2.942000e+02  2.287627e+01
   endloop
 endfacet
 facet normal -5.812906e-01  5.061535e-14  8.136960e-01
   outer loop
     vertex -6.472145e+02 -2.950000e+02  2.287627e+01
     vertex -6.480384e+02 -2.942000e+02  2.228771e+01
     vertex -6.480384e+02 -2.950000e+02  2.228771e+01
   endloop
 endfacet
 facet normal -7.591295e-01  0.000000e+00  6.509396e-01
   outer loop
     vertex -6.465554e+02 -2.950000e+02  2.364489e+01
     vertex -6.465554e+02 -2.942000e+02  2.364489e+01
     vertex -6.472145e+02 -2.950000e+02  2.287627e+01
   endloop
 endfacet
 facet normal  8.928507e-01  1.533410e-17 -4.503529e-01
   outer loop
     vertex -6.439360e+02 -2.950000e+02  2.376818e+01
     vertex -6.446417e+02 -2.950000e+02  2.236910e+01
     vertex -6.446417e+02 -2.942000e+02  2.236910e+01
   endloop
 endfacet
 facet normal  8.928507e-01  0.000000e+00 -4.503529e-01
   outer loop
     vertex -6.439360e+02 -2.950000e+02  2.376818e+01
     vertex -6.446417e+02 -2.942000e+02  2.236910e+01
     vertex -6.439360e+02 -2.942000e+02  2.376818e+01
   endloop
 endfacet
 facet normal  9.746825e-01  0.000000e+00 -2.235933e-01
   outer loop
     vertex -6.435856e+02 -2.950000e+02  2.529549e+01
     vertex -6.439360e+02 -2.942000e+02  2.376818e+01
     vertex -6.435856e+02 -2.942000e+02  2.529549e+01
   endloop
 endfacet
 facet normal  9.746825e-01  2.315093e-17 -2.235933e-01
   outer loop
     vertex -6.435856e+02 -2.950000e+02  2.529549e+01
     vertex -6.439360e+02 -2.950000e+02  2.376818e+01
     vertex -6.439360e+02 -2.942000e+02  2.376818e+01
   endloop
 endfacet
 facet normal  9.998694e-01 -0.000000e+00  1.616074e-02
   outer loop
     vertex -6.436109e+02 -2.950000e+02  2.686226e+01
     vertex -6.435856e+02 -2.942000e+02  2.529549e+01
     vertex -6.436109e+02 -2.942000e+02  2.686226e+01
   endloop
 endfacet
 facet normal  9.998694e-01  2.318184e-18  1.616074e-02
   outer loop
     vertex -6.436109e+02 -2.950000e+02  2.686226e+01
     vertex -6.435856e+02 -2.950000e+02  2.529549e+01
     vertex -6.435856e+02 -2.942000e+02  2.529549e+01
   endloop
 endfacet
 facet normal  9.669475e-01 -0.000000e+00  2.549755e-01
   outer loop
     vertex -6.440105e+02 -2.950000e+02  2.837744e+01
     vertex -6.436109e+02 -2.942000e+02  2.686226e+01
     vertex -6.440105e+02 -2.942000e+02  2.837744e+01
   endloop
 endfacet
 facet normal  9.669475e-01  1.899246e-17  2.549755e-01
   outer loop
     vertex -6.440105e+02 -2.950000e+02  2.837744e+01
     vertex -6.436109e+02 -2.950000e+02  2.686226e+01
     vertex -6.436109e+02 -2.942000e+02  2.686226e+01
   endloop
 endfacet
 facet normal  8.778301e-01 -0.000000e+00  4.789721e-01
   outer loop
     vertex -6.447610e+02 -2.950000e+02  2.975298e+01
     vertex -6.440105e+02 -2.942000e+02  2.837744e+01
     vertex -6.447610e+02 -2.942000e+02  2.975298e+01
   endloop
 endfacet
 facet normal  8.778301e-01 -3.071280e-17  4.789721e-01
   outer loop
     vertex -6.447610e+02 -2.950000e+02  2.975298e+01
     vertex -6.440105e+02 -2.950000e+02  2.837744e+01
     vertex -6.440105e+02 -2.942000e+02  2.837744e+01
   endloop
 endfacet
 facet normal  7.376964e-01 -0.000000e+00  6.751325e-01
   outer loop
     vertex -6.458189e+02 -2.950000e+02  3.090893e+01
     vertex -6.447610e+02 -2.942000e+02  2.975298e+01
     vertex -6.458189e+02 -2.942000e+02  3.090893e+01
   endloop
 endfacet
 facet normal  7.376964e-01 -7.066611e-17  6.751325e-01
   outer loop
     vertex -6.458189e+02 -2.950000e+02  3.090893e+01
     vertex -6.447610e+02 -2.950000e+02  2.975298e+01
     vertex -6.447610e+02 -2.942000e+02  2.975298e+01
   endloop
 endfacet
 facet normal  5.546905e-01 -0.000000e+00  8.320567e-01
   outer loop
     vertex -6.471227e+02 -2.950000e+02  3.177812e+01
     vertex -6.458189e+02 -2.942000e+02  3.090893e+01
     vertex -6.471227e+02 -2.942000e+02  3.177812e+01
   endloop
 endfacet
 facet normal  5.546905e-01  3.492453e-17  8.320567e-01
   outer loop
     vertex -6.471227e+02 -2.950000e+02  3.177812e+01
     vertex -6.458189e+02 -2.950000e+02  3.090893e+01
     vertex -6.458189e+02 -2.942000e+02  3.090893e+01
   endloop
 endfacet
 facet normal  3.394480e-01 -0.000000e+00  9.406248e-01
   outer loop
     vertex -6.485967e+02 -2.950000e+02  3.231003e+01
     vertex -6.471227e+02 -2.942000e+02  3.177812e+01
     vertex -6.485967e+02 -2.942000e+02  3.231003e+01
   endloop
 endfacet
 facet normal  3.394480e-01 -3.604735e-17  9.406248e-01
   outer loop
     vertex -6.485967e+02 -2.950000e+02  3.231003e+01
     vertex -6.471227e+02 -2.950000e+02  3.177812e+01
     vertex -6.471227e+02 -2.942000e+02  3.177812e+01
   endloop
 endfacet
 facet normal  1.044780e-01 -0.000000e+00  9.945272e-01
   outer loop
     vertex -6.501551e+02 -2.950000e+02  3.247374e+01
     vertex -6.485967e+02 -2.942000e+02  3.231003e+01
     vertex -6.501551e+02 -2.942000e+02  3.247374e+01
   endloop
 endfacet
 facet normal  1.044780e-01 -1.273111e-17  9.945272e-01
   outer loop
     vertex -6.501551e+02 -2.950000e+02  3.247374e+01
     vertex -6.485967e+02 -2.950000e+02  3.231003e+01
     vertex -6.485967e+02 -2.942000e+02  3.231003e+01
   endloop
 endfacet
 facet normal -1.365638e-01  0.000000e+00  9.906313e-01
   outer loop
     vertex -6.517074e+02 -2.950000e+02  3.225975e+01
     vertex -6.501551e+02 -2.942000e+02  3.247374e+01
     vertex -6.517074e+02 -2.942000e+02  3.225975e+01
   endloop
 endfacet
 facet normal -1.365638e-01 -1.923814e-17  9.906313e-01
   outer loop
     vertex -6.517074e+02 -2.950000e+02  3.225975e+01
     vertex -6.501551e+02 -2.950000e+02  3.247374e+01
     vertex -6.501551e+02 -2.942000e+02  3.247374e+01
   endloop
 endfacet
 facet normal -3.696691e-01 -6.830703e-18  9.291635e-01
   outer loop
     vertex -6.531634e+02 -2.950000e+02  3.168049e+01
     vertex -6.517074e+02 -2.950000e+02  3.225975e+01
     vertex -6.517074e+02 -2.942000e+02  3.225975e+01
   endloop
 endfacet
 facet normal -3.696691e-01  0.000000e+00  9.291635e-01
   outer loop
     vertex -6.531634e+02 -2.950000e+02  3.168049e+01
     vertex -6.517074e+02 -2.942000e+02  3.225975e+01
     vertex -6.531634e+02 -2.942000e+02  3.168049e+01
   endloop
 endfacet
 facet normal -5.812906e-01  2.208034e-17  8.136960e-01
   outer loop
     vertex -6.544384e+02 -2.950000e+02  3.076962e+01
     vertex -6.531634e+02 -2.950000e+02  3.168049e+01
     vertex -6.531634e+02 -2.942000e+02  3.168049e+01
   endloop
 endfacet
 facet normal -5.812906e-01  0.000000e+00  8.136960e-01
   outer loop
     vertex -6.544384e+02 -2.950000e+02  3.076962e+01
     vertex -6.531634e+02 -2.942000e+02  3.168049e+01
     vertex -6.544384e+02 -2.942000e+02  3.076962e+01
   endloop
 endfacet
 facet normal -7.591295e-01  2.517445e-17  6.509396e-01
   outer loop
     vertex -6.554584e+02 -2.950000e+02  2.958008e+01
     vertex -6.544384e+02 -2.950000e+02  3.076962e+01
     vertex -6.544384e+02 -2.942000e+02  3.076962e+01
   endloop
 endfacet
 facet normal -7.591295e-01  0.000000e+00  6.509396e-01
   outer loop
     vertex -6.554584e+02 -2.950000e+02  2.958008e+01
     vertex -6.544384e+02 -2.942000e+02  3.076962e+01
     vertex -6.554584e+02 -2.942000e+02  2.958008e+01
   endloop
 endfacet
 facet normal -8.928507e-01 -1.986822e-17  4.503529e-01
   outer loop
     vertex -6.561641e+02 -2.950000e+02  2.818100e+01
     vertex -6.554584e+02 -2.950000e+02  2.958008e+01
     vertex -6.554584e+02 -2.942000e+02  2.958008e+01
   endloop
 endfacet
 facet normal -8.928507e-01  2.799956e-14  4.503529e-01
   outer loop
     vertex -6.561641e+02 -2.950000e+02  2.818100e+01
     vertex -6.554584e+02 -2.942000e+02  2.958008e+01
     vertex -6.561641e+02 -2.942000e+02  2.818100e+01
   endloop
 endfacet
 facet normal -9.746825e-01  1.391902e-14  2.235933e-01
   outer loop
     vertex -6.565145e+02 -2.950000e+02  2.665370e+01
     vertex -6.561641e+02 -2.950000e+02  2.818100e+01
     vertex -6.561641e+02 -2.942000e+02  2.818100e+01
   endloop
 endfacet
 facet normal -9.746825e-01  0.000000e+00  2.235933e-01
   outer loop
     vertex -6.565145e+02 -2.950000e+02  2.665370e+01
     vertex -6.561641e+02 -2.942000e+02  2.818100e+01
     vertex -6.565145e+02 -2.942000e+02  2.665370e+01
   endloop
 endfacet
 facet normal -9.998694e-01  2.318184e-18 -1.616074e-02
   outer loop
     vertex -6.564891e+02 -2.950000e+02  2.508693e+01
     vertex -6.565145e+02 -2.950000e+02  2.665370e+01
     vertex -6.565145e+02 -2.942000e+02  2.665370e+01
   endloop
 endfacet
 facet normal -9.998694e-01  0.000000e+00 -1.616074e-02
   outer loop
     vertex -6.564891e+02 -2.950000e+02  2.508693e+01
     vertex -6.565145e+02 -2.942000e+02  2.665370e+01
     vertex -6.564891e+02 -2.942000e+02  2.508693e+01
   endloop
 endfacet
 facet normal -9.669475e-01 -1.110209e-17 -2.549755e-01
   outer loop
     vertex -6.560896e+02 -2.950000e+02  2.357174e+01
     vertex -6.564891e+02 -2.950000e+02  2.508693e+01
     vertex -6.564891e+02 -2.942000e+02  2.508693e+01
   endloop
 endfacet
 facet normal -9.669475e-01  0.000000e+00 -2.549755e-01
   outer loop
     vertex -6.560896e+02 -2.950000e+02  2.357174e+01
     vertex -6.564891e+02 -2.942000e+02  2.508693e+01
     vertex -6.560896e+02 -2.942000e+02  2.357174e+01
   endloop
 endfacet
 facet normal -8.778301e-01 -3.141866e-18 -4.789721e-01
   outer loop
     vertex -6.553391e+02 -2.950000e+02  2.219620e+01
     vertex -6.560896e+02 -2.950000e+02  2.357174e+01
     vertex -6.560896e+02 -2.942000e+02  2.357174e+01
   endloop
 endfacet
 facet normal -7.376964e-01  0.000000e+00 -6.751325e-01
   outer loop
     vertex -6.553391e+02 -2.950000e+02  2.219620e+01
     vertex -6.553391e+02 -2.942000e+02  2.219620e+01
     vertex -6.542811e+02 -2.942000e+02  2.104025e+01
   endloop
 endfacet
 facet normal -8.778301e-01  0.000000e+00 -4.789721e-01
   outer loop
     vertex -6.553391e+02 -2.950000e+02  2.219620e+01
     vertex -6.560896e+02 -2.942000e+02  2.357174e+01
     vertex -6.553391e+02 -2.942000e+02  2.219620e+01
   endloop
 endfacet
 facet normal -7.376964e-01 -3.897648e-14 -6.751325e-01
   outer loop
     vertex -6.542811e+02 -2.950000e+02  2.104025e+01
     vertex -6.553391e+02 -2.950000e+02  2.219620e+01
     vertex -6.542811e+02 -2.942000e+02  2.104025e+01
   endloop
 endfacet
 facet normal -3.394480e-01 -4.177213e-15 -9.406248e-01
   outer loop
     vertex -6.529773e+02 -2.950000e+02  2.017106e+01
     vertex -6.529773e+02 -2.942000e+02  2.017106e+01
     vertex -6.515034e+02 -2.942000e+02  1.963916e+01
   endloop
 endfacet
 facet normal -5.546905e-01 -3.695074e-15 -8.320567e-01
   outer loop
     vertex -6.529773e+02 -2.950000e+02  2.017106e+01
     vertex -6.542811e+02 -2.942000e+02  2.104025e+01
     vertex -6.529773e+02 -2.942000e+02  2.017106e+01
   endloop
 endfacet
 facet normal -5.546905e-01 -4.799929e-14 -8.320567e-01
   outer loop
     vertex -6.529773e+02 -2.950000e+02  2.017106e+01
     vertex -6.542811e+02 -2.950000e+02  2.104025e+01
     vertex -6.542811e+02 -2.942000e+02  2.104025e+01
   endloop
 endfacet
 facet normal -3.394480e-01  0.000000e+00 -9.406248e-01
   outer loop
     vertex -6.515034e+02 -2.950000e+02  1.963916e+01
     vertex -6.529773e+02 -2.950000e+02  2.017106e+01
     vertex -6.515034e+02 -2.942000e+02  1.963916e+01
   endloop
 endfacet
 facet normal -1.044780e-01  0.000000e+00 -9.945272e-01
   outer loop
     vertex -6.499450e+02 -2.950000e+02  1.947544e+01
     vertex -6.515034e+02 -2.942000e+02  1.963916e+01
     vertex -6.499450e+02 -2.942000e+02  1.947544e+01
   endloop
 endfacet
 facet normal -1.044780e-01  1.705427e-17 -9.945272e-01
   outer loop
     vertex -6.499450e+02 -2.950000e+02  1.947544e+01
     vertex -6.515034e+02 -2.950000e+02  1.963916e+01
     vertex -6.515034e+02 -2.942000e+02  1.963916e+01
   endloop
 endfacet
 facet normal  3.696691e-01  0.000000e+00 -9.291635e-01
   outer loop
     vertex -6.483927e+02 -2.950000e+02  1.968943e+01
     vertex -6.483927e+02 -2.942000e+02  1.968943e+01
     vertex -6.469367e+02 -2.942000e+02  2.026870e+01
   endloop
 endfacet
 facet normal  1.365638e-01  0.000000e+00 -9.906313e-01
   outer loop
     vertex -6.483927e+02 -2.950000e+02  1.968943e+01
     vertex -6.499450e+02 -2.942000e+02  1.947544e+01
     vertex -6.483927e+02 -2.942000e+02  1.968943e+01
   endloop
 endfacet
 facet normal  1.365638e-01  1.241923e-17 -9.906313e-01
   outer loop
     vertex -6.483927e+02 -2.950000e+02  1.968943e+01
     vertex -6.499450e+02 -2.950000e+02  1.947544e+01
     vertex -6.499450e+02 -2.942000e+02  1.947544e+01
   endloop
 endfacet
 facet normal  3.696691e-01  0.000000e+00 -9.291635e-01
   outer loop
     vertex -6.469367e+02 -2.950000e+02  2.026870e+01
     vertex -6.483927e+02 -2.950000e+02  1.968943e+01
     vertex -6.469367e+02 -2.942000e+02  2.026870e+01
   endloop
 endfacet
 facet normal  5.812906e-01  0.000000e+00 -8.136960e-01
   outer loop
     vertex -6.456617e+02 -2.950000e+02  2.117957e+01
     vertex -6.469367e+02 -2.942000e+02  2.026870e+01
     vertex -6.456617e+02 -2.942000e+02  2.117957e+01
   endloop
 endfacet
 facet normal  5.812906e-01 -8.407510e-17 -8.136960e-01
   outer loop
     vertex -6.456617e+02 -2.950000e+02  2.117957e+01
     vertex -6.469367e+02 -2.950000e+02  2.026870e+01
     vertex -6.469367e+02 -2.942000e+02  2.026870e+01
   endloop
 endfacet
 facet normal  7.591295e-01  0.000000e+00 -6.509396e-01
   outer loop
     vertex -6.446417e+02 -2.950000e+02  2.236910e+01
     vertex -6.456617e+02 -2.942000e+02  2.117957e+01
     vertex -6.446417e+02 -2.942000e+02  2.236910e+01
   endloop
 endfacet
 facet normal  7.591295e-01 -3.243827e-17 -6.509396e-01
   outer loop
     vertex -6.446417e+02 -2.950000e+02  2.236910e+01
     vertex -6.456617e+02 -2.950000e+02  2.117957e+01
     vertex -6.456617e+02 -2.942000e+02  2.117957e+01
   endloop
 endfacet
 facet normal -0.000000e+00 -1.000000e+00  0.000000e+00
   outer loop
     vertex -6.542107e+02 -2.950000e+02  2.540102e+01
     vertex -6.565145e+02 -2.950000e+02  2.665370e+01
     vertex -6.564891e+02 -2.950000e+02  2.508693e+01
   endloop
 endfacet
 facet normal -0.000000e+00 -1.000000e+00  0.000000e+00
   outer loop
     vertex -6.539525e+02 -2.950000e+02  2.442198e+01
     vertex -6.564891e+02 -2.950000e+02  2.508693e+01
     vertex -6.560896e+02 -2.950000e+02  2.357174e+01
   endloop
 endfacet
 facet normal  0.000000e+00 -1.000000e+00  0.000000e+00
   outer loop
     vertex -6.539525e+02 -2.950000e+02  2.442198e+01
     vertex -6.542107e+02 -2.950000e+02  2.540102e+01
     vertex -6.564891e+02 -2.950000e+02  2.508693e+01
   endloop
 endfacet
 facet normal  0.000000e+00 -1.000000e+00  0.000000e+00
   outer loop
     vertex -6.542271e+02 -2.950000e+02  2.641340e+01
     vertex -6.561641e+02 -2.950000e+02  2.818100e+01
     vertex -6.565145e+02 -2.950000e+02  2.665370e+01
   endloop
 endfacet
 facet normal -0.000000e+00 -1.000000e+00 -0.000000e+00
   outer loop
     vertex -6.542271e+02 -2.950000e+02  2.641340e+01
     vertex -6.565145e+02 -2.950000e+02  2.665370e+01
     vertex -6.542107e+02 -2.950000e+02  2.540102e+01
   endloop
 endfacet
 facet normal -0.000000e+00 -1.000000e+00  0.000000e+00
   outer loop
     vertex -6.534676e+02 -2.950000e+02  2.353317e+01
     vertex -6.560896e+02 -2.950000e+02  2.357174e+01
     vertex -6.553391e+02 -2.950000e+02  2.219620e+01
   endloop
 endfacet
 facet normal  0.000000e+00 -1.000000e+00  0.000000e+00
   outer loop
     vertex -6.534676e+02 -2.950000e+02  2.353317e+01
     vertex -6.539525e+02 -2.950000e+02  2.442198e+01
     vertex -6.560896e+02 -2.950000e+02  2.357174e+01
   endloop
 endfacet
 facet normal -0.000000e+00 -1.000000e+00  0.000000e+00
   outer loop
     vertex -6.540007e+02 -2.950000e+02  2.740027e+01
     vertex -6.561641e+02 -2.950000e+02  2.818100e+01
     vertex -6.542271e+02 -2.950000e+02  2.641340e+01
   endloop
 endfacet
 facet normal  0.000000e+00 -1.000000e+00  0.000000e+00
   outer loop
     vertex -6.527840e+02 -2.950000e+02  2.278625e+01
     vertex -6.553391e+02 -2.950000e+02  2.219620e+01
     vertex -6.542811e+02 -2.950000e+02  2.104025e+01
   endloop
 endfacet
 facet normal -0.000000e+00 -1.000000e+00  0.000000e+00
   outer loop
     vertex -6.527840e+02 -2.950000e+02  2.278625e+01
     vertex -6.534676e+02 -2.950000e+02  2.353317e+01
     vertex -6.553391e+02 -2.950000e+02  2.219620e+01
   endloop
 endfacet
 facet normal -0.000000e+00 -1.000000e+00  0.000000e+00
   outer loop
     vertex -6.535447e+02 -2.950000e+02  2.830429e+01
     vertex -6.554584e+02 -2.950000e+02  2.958008e+01
     vertex -6.561641e+02 -2.950000e+02  2.818100e+01
   endloop
 endfacet
 facet normal  0.000000e+00 -1.000000e+00  0.000000e+00
   outer loop
     vertex -6.535447e+02 -2.950000e+02  2.830429e+01
     vertex -6.561641e+02 -2.950000e+02  2.818100e+01
     vertex -6.540007e+02 -2.950000e+02  2.740027e+01
   endloop
 endfacet
 facet normal  0.000000e+00 -1.000000e+00  0.000000e+00
   outer loop
     vertex -6.519415e+02 -2.950000e+02  2.222462e+01
     vertex -6.542811e+02 -2.950000e+02  2.104025e+01
     vertex -6.529773e+02 -2.950000e+02  2.017106e+01
   endloop
 endfacet
 facet normal -0.000000e+00 -1.000000e+00  0.000000e+00
   outer loop
     vertex -6.519415e+02 -2.950000e+02  2.222462e+01
     vertex -6.527840e+02 -2.950000e+02  2.278625e+01
     vertex -6.542811e+02 -2.950000e+02  2.104025e+01
   endloop
 endfacet
 facet normal  0.000000e+00 -1.000000e+00  0.000000e+00
   outer loop
     vertex -6.528856e+02 -2.950000e+02  2.907292e+01
     vertex -6.544384e+02 -2.950000e+02  3.076962e+01
     vertex -6.554584e+02 -2.950000e+02  2.958008e+01
   endloop
 endfacet
 facet normal -0.000000e+00 -1.000000e+00  0.000000e+00
   outer loop
     vertex -6.528856e+02 -2.950000e+02  2.907292e+01
     vertex -6.554584e+02 -2.950000e+02  2.958008e+01
     vertex -6.535447e+02 -2.950000e+02  2.830429e+01
   endloop
 endfacet
 facet normal  0.000000e+00 -1.000000e+00  0.000000e+00
   outer loop
     vertex -6.509891e+02 -2.950000e+02  2.188093e+01
     vertex -6.529773e+02 -2.950000e+02  2.017106e+01
     vertex -6.515034e+02 -2.950000e+02  1.963916e+01
   endloop
 endfacet
 facet normal -0.000000e+00 -1.000000e+00  0.000000e+00
   outer loop
     vertex -6.509891e+02 -2.950000e+02  2.188093e+01
     vertex -6.519415e+02 -2.950000e+02  2.222462e+01
     vertex -6.529773e+02 -2.950000e+02  2.017106e+01
   endloop
 endfacet
 facet normal  0.000000e+00 -1.000000e+00  0.000000e+00
   outer loop
     vertex -6.520617e+02 -2.950000e+02  2.966148e+01
     vertex -6.531634e+02 -2.950000e+02  3.168049e+01
     vertex -6.544384e+02 -2.950000e+02  3.076962e+01
   endloop
 endfacet
 facet normal -0.000000e+00 -1.000000e+00  0.000000e+00
   outer loop
     vertex -6.520617e+02 -2.950000e+02  2.966148e+01
     vertex -6.544384e+02 -2.950000e+02  3.076962e+01
     vertex -6.528856e+02 -2.950000e+02  2.907292e+01
   endloop
 endfacet
 facet normal  0.000000e+00 -1.000000e+00  0.000000e+00
   outer loop
     vertex -6.499450e+02 -2.950000e+02  1.947544e+01
     vertex -6.509891e+02 -2.950000e+02  2.188093e+01
     vertex -6.515034e+02 -2.950000e+02  1.963916e+01
   endloop
 endfacet
 facet normal -0.000000e+00 -1.000000e+00 -0.000000e+00
   outer loop
     vertex -6.499822e+02 -2.950000e+02  2.177514e+01
     vertex -6.509891e+02 -2.950000e+02  2.188093e+01
     vertex -6.499450e+02 -2.950000e+02  1.947544e+01
   endloop
 endfacet
 facet normal  0.000000e+00 -1.000000e+00  0.000000e+00
   outer loop
     vertex -6.511209e+02 -2.950000e+02  3.003577e+01
     vertex -6.517074e+02 -2.950000e+02  3.225975e+01
     vertex -6.531634e+02 -2.950000e+02  3.168049e+01
   endloop
 endfacet
 facet normal -0.000000e+00 -1.000000e+00  0.000000e+00
   outer loop
     vertex -6.511209e+02 -2.950000e+02  3.003577e+01
     vertex -6.531634e+02 -2.950000e+02  3.168049e+01
     vertex -6.520617e+02 -2.950000e+02  2.966148e+01
   endloop
 endfacet
 facet normal  0.000000e+00 -1.000000e+00  0.000000e+00
   outer loop
     vertex -6.483927e+02 -2.950000e+02  1.968943e+01
     vertex -6.489791e+02 -2.950000e+02  2.191341e+01
     vertex -6.499822e+02 -2.950000e+02  2.177514e+01
   endloop
 endfacet
 facet normal -0.000000e+00 -1.000000e+00  0.000000e+00
   outer loop
     vertex -6.483927e+02 -2.950000e+02  1.968943e+01
     vertex -6.499822e+02 -2.950000e+02  2.177514e+01
     vertex -6.499450e+02 -2.950000e+02  1.947544e+01
   endloop
 endfacet
 facet normal -0.000000e+00 -1.000000e+00  0.000000e+00
   outer loop
     vertex -6.501179e+02 -2.950000e+02  3.017404e+01
     vertex -6.517074e+02 -2.950000e+02  3.225975e+01
     vertex -6.511209e+02 -2.950000e+02  3.003577e+01
   endloop
 endfacet
 facet normal  0.000000e+00 -1.000000e+00 -0.000000e+00
   outer loop
     vertex -6.501551e+02 -2.950000e+02  3.247374e+01
     vertex -6.517074e+02 -2.950000e+02  3.225975e+01
     vertex -6.501179e+02 -2.950000e+02  3.017404e+01
   endloop
 endfacet
 facet normal -0.000000e+00 -1.000000e+00  0.000000e+00
   outer loop
     vertex -6.469367e+02 -2.950000e+02  2.026870e+01
     vertex -6.489791e+02 -2.950000e+02  2.191341e+01
     vertex -6.483927e+02 -2.950000e+02  1.968943e+01
   endloop
 endfacet
 facet normal  0.000000e+00 -1.000000e+00  0.000000e+00
   outer loop
     vertex -6.469367e+02 -2.950000e+02  2.026870e+01
     vertex -6.480384e+02 -2.950000e+02  2.228771e+01
     vertex -6.489791e+02 -2.950000e+02  2.191341e+01
   endloop
 endfacet
 facet normal  0.000000e+00 -1.000000e+00  0.000000e+00
   outer loop
     vertex -6.485967e+02 -2.950000e+02  3.231003e+01
     vertex -6.501179e+02 -2.950000e+02  3.017404e+01
     vertex -6.491109e+02 -2.950000e+02  3.006826e+01
   endloop
 endfacet
 facet normal -0.000000e+00 -1.000000e+00  0.000000e+00
   outer loop
     vertex -6.485967e+02 -2.950000e+02  3.231003e+01
     vertex -6.501551e+02 -2.950000e+02  3.247374e+01
     vertex -6.501179e+02 -2.950000e+02  3.017404e+01
   endloop
 endfacet
 facet normal -0.000000e+00 -1.000000e+00  0.000000e+00
   outer loop
     vertex -6.456617e+02 -2.950000e+02  2.117957e+01
     vertex -6.480384e+02 -2.950000e+02  2.228771e+01
     vertex -6.469367e+02 -2.950000e+02  2.026870e+01
   endloop
 endfacet
 facet normal  0.000000e+00 -1.000000e+00  0.000000e+00
   outer loop
     vertex -6.456617e+02 -2.950000e+02  2.117957e+01
     vertex -6.472145e+02 -2.950000e+02  2.287627e+01
     vertex -6.480384e+02 -2.950000e+02  2.228771e+01
   endloop
 endfacet
 facet normal -0.000000e+00 -1.000000e+00  0.000000e+00
   outer loop
     vertex -6.471227e+02 -2.950000e+02  3.177812e+01
     vertex -6.485967e+02 -2.950000e+02  3.231003e+01
     vertex -6.491109e+02 -2.950000e+02  3.006826e+01
   endloop
 endfacet
 facet normal  0.000000e+00 -1.000000e+00  0.000000e+00
   outer loop
     vertex -6.471227e+02 -2.950000e+02  3.177812e+01
     vertex -6.491109e+02 -2.950000e+02  3.006826e+01
     vertex -6.481586e+02 -2.950000e+02  2.972457e+01
   endloop
 endfacet
 facet normal  0.000000e+00 -1.000000e+00  0.000000e+00
   outer loop
     vertex -6.471227e+02 -2.950000e+02  3.177812e+01
     vertex -6.481586e+02 -2.950000e+02  2.972457e+01
     vertex -6.473161e+02 -2.950000e+02  2.916294e+01
   endloop
 endfacet
 facet normal  0.000000e+00 -1.000000e+00  0.000000e+00
   outer loop
     vertex -6.446417e+02 -2.950000e+02  2.236910e+01
     vertex -6.465554e+02 -2.950000e+02  2.364489e+01
     vertex -6.472145e+02 -2.950000e+02  2.287627e+01
   endloop
 endfacet
 facet normal -0.000000e+00 -1.000000e+00  0.000000e+00
   outer loop
     vertex -6.446417e+02 -2.950000e+02  2.236910e+01
     vertex -6.472145e+02 -2.950000e+02  2.287627e+01
     vertex -6.456617e+02 -2.950000e+02  2.117957e+01
   endloop
 endfacet
 facet normal -0.000000e+00 -1.000000e+00  0.000000e+00
   outer loop
     vertex -6.458189e+02 -2.950000e+02  3.090893e+01
     vertex -6.471227e+02 -2.950000e+02  3.177812e+01
     vertex -6.473161e+02 -2.950000e+02  2.916294e+01
   endloop
 endfacet
 facet normal  0.000000e+00 -1.000000e+00  0.000000e+00
   outer loop
     vertex -6.439360e+02 -2.950000e+02  2.376818e+01
     vertex -6.465554e+02 -2.950000e+02  2.364489e+01
     vertex -6.446417e+02 -2.950000e+02  2.236910e+01
   endloop
 endfacet
 facet normal  0.000000e+00 -1.000000e+00  0.000000e+00
   outer loop
     vertex -6.439360e+02 -2.950000e+02  2.376818e+01
     vertex -6.458730e+02 -2.950000e+02  2.553578e+01
     vertex -6.460994e+02 -2.950000e+02  2.454891e+01
   endloop
 endfacet
 facet normal -0.000000e+00 -1.000000e+00  0.000000e+00
   outer loop
     vertex -6.439360e+02 -2.950000e+02  2.376818e+01
     vertex -6.460994e+02 -2.950000e+02  2.454891e+01
     vertex -6.465554e+02 -2.950000e+02  2.364489e+01
   endloop
 endfacet
 facet normal -0.000000e+00 -1.000000e+00  0.000000e+00
   outer loop
     vertex -6.447610e+02 -2.950000e+02  2.975298e+01
     vertex -6.458189e+02 -2.950000e+02  3.090893e+01
     vertex -6.473161e+02 -2.950000e+02  2.916294e+01
   endloop
 endfacet
 facet normal  0.000000e+00 -1.000000e+00  0.000000e+00
   outer loop
     vertex -6.447610e+02 -2.950000e+02  2.975298e+01
     vertex -6.473161e+02 -2.950000e+02  2.916294e+01
     vertex -6.466325e+02 -2.950000e+02  2.841601e+01
   endloop
 endfacet
 facet normal -0.000000e+00 -1.000000e+00  0.000000e+00
   outer loop
     vertex -6.435856e+02 -2.950000e+02  2.529549e+01
     vertex -6.458730e+02 -2.950000e+02  2.553578e+01
     vertex -6.439360e+02 -2.950000e+02  2.376818e+01
   endloop
 endfacet
 facet normal -0.000000e+00 -1.000000e+00  0.000000e+00
   outer loop
     vertex -6.440105e+02 -2.950000e+02  2.837744e+01
     vertex -6.466325e+02 -2.950000e+02  2.841601e+01
     vertex -6.461476e+02 -2.950000e+02  2.752720e+01
   endloop
 endfacet
 facet normal  0.000000e+00 -1.000000e+00  0.000000e+00
   outer loop
     vertex -6.440105e+02 -2.950000e+02  2.837744e+01
     vertex -6.447610e+02 -2.950000e+02  2.975298e+01
     vertex -6.466325e+02 -2.950000e+02  2.841601e+01
   endloop
 endfacet
 facet normal -0.000000e+00 -1.000000e+00  0.000000e+00
   outer loop
     vertex -6.436109e+02 -2.950000e+02  2.686226e+01
     vertex -6.461476e+02 -2.950000e+02  2.752720e+01
     vertex -6.458894e+02 -2.950000e+02  2.654816e+01
   endloop
 endfacet
 facet normal  0.000000e+00 -1.000000e+00  0.000000e+00
   outer loop
     vertex -6.436109e+02 -2.950000e+02  2.686226e+01
     vertex -6.458894e+02 -2.950000e+02  2.654816e+01
     vertex -6.458730e+02 -2.950000e+02  2.553578e+01
   endloop
 endfacet
 facet normal  0.000000e+00 -1.000000e+00  0.000000e+00
   outer loop
     vertex -6.436109e+02 -2.950000e+02  2.686226e+01
     vertex -6.440105e+02 -2.950000e+02  2.837744e+01
     vertex -6.461476e+02 -2.950000e+02  2.752720e+01
   endloop
 endfacet
 facet normal  0.000000e+00 -1.000000e+00 -0.000000e+00
   outer loop
     vertex -6.436109e+02 -2.950000e+02  2.686226e+01
     vertex -6.458730e+02 -2.950000e+02  2.553578e+01
     vertex -6.435856e+02 -2.950000e+02  2.529549e+01
   endloop
 endfacet
 facet normal  0.000000e+00  1.000000e+00  0.000000e+00
   outer loop
     vertex -6.542107e+02 -2.942000e+02  2.540102e+01
     vertex -6.564891e+02 -2.942000e+02  2.508693e+01
     vertex -6.565145e+02 -2.942000e+02  2.665370e+01
   endloop
 endfacet
 facet normal  0.000000e+00  1.000000e+00  0.000000e+00
   outer loop
     vertex -6.539525e+02 -2.942000e+02  2.442198e+01
     vertex -6.560896e+02 -2.942000e+02  2.357174e+01
     vertex -6.564891e+02 -2.942000e+02  2.508693e+01
   endloop
 endfacet
 facet normal  0.000000e+00  1.000000e+00  0.000000e+00
   outer loop
     vertex -6.539525e+02 -2.942000e+02  2.442198e+01
     vertex -6.564891e+02 -2.942000e+02  2.508693e+01
     vertex -6.542107e+02 -2.942000e+02  2.540102e+01
   endloop
 endfacet
 facet normal  0.000000e+00  1.000000e+00  0.000000e+00
   outer loop
     vertex -6.542271e+02 -2.942000e+02  2.641340e+01
     vertex -6.565145e+02 -2.942000e+02  2.665370e+01
     vertex -6.561641e+02 -2.942000e+02  2.818100e+01
   endloop
 endfacet
 facet normal  0.000000e+00  1.000000e+00  0.000000e+00
   outer loop
     vertex -6.542271e+02 -2.942000e+02  2.641340e+01
     vertex -6.542107e+02 -2.942000e+02  2.540102e+01
     vertex -6.565145e+02 -2.942000e+02  2.665370e+01
   endloop
 endfacet
 facet normal  0.000000e+00  1.000000e+00  0.000000e+00
   outer loop
     vertex -6.534676e+02 -2.942000e+02  2.353317e+01
     vertex -6.553391e+02 -2.942000e+02  2.219620e+01
     vertex -6.560896e+02 -2.942000e+02  2.357174e+01
   endloop
 endfacet
 facet normal  0.000000e+00  1.000000e+00  0.000000e+00
   outer loop
     vertex -6.534676e+02 -2.942000e+02  2.353317e+01
     vertex -6.560896e+02 -2.942000e+02  2.357174e+01
     vertex -6.539525e+02 -2.942000e+02  2.442198e+01
   endloop
 endfacet
 facet normal  0.000000e+00  1.000000e+00  0.000000e+00
   outer loop
     vertex -6.540007e+02 -2.942000e+02  2.740027e+01
     vertex -6.561641e+02 -2.942000e+02  2.818100e+01
     vertex -6.554584e+02 -2.942000e+02  2.958008e+01
   endloop
 endfacet
 facet normal  0.000000e+00  1.000000e+00  0.000000e+00
   outer loop
     vertex -6.540007e+02 -2.942000e+02  2.740027e+01
     vertex -6.542271e+02 -2.942000e+02  2.641340e+01
     vertex -6.561641e+02 -2.942000e+02  2.818100e+01
   endloop
 endfacet
 facet normal  0.000000e+00  1.000000e+00  0.000000e+00
   outer loop
     vertex -6.527840e+02 -2.942000e+02  2.278625e+01
     vertex -6.542811e+02 -2.942000e+02  2.104025e+01
     vertex -6.553391e+02 -2.942000e+02  2.219620e+01
   endloop
 endfacet
 facet normal  0.000000e+00  1.000000e+00  0.000000e+00
   outer loop
     vertex -6.527840e+02 -2.942000e+02  2.278625e+01
     vertex -6.553391e+02 -2.942000e+02  2.219620e+01
     vertex -6.534676e+02 -2.942000e+02  2.353317e+01
   endloop
 endfacet
 facet normal  0.000000e+00  1.000000e+00  0.000000e+00
   outer loop
     vertex -6.535447e+02 -2.942000e+02  2.830429e+01
     vertex -6.554584e+02 -2.942000e+02  2.958008e+01
     vertex -6.544384e+02 -2.942000e+02  3.076962e+01
   endloop
 endfacet
 facet normal  0.000000e+00  1.000000e+00  0.000000e+00
   outer loop
     vertex -6.535447e+02 -2.942000e+02  2.830429e+01
     vertex -6.540007e+02 -2.942000e+02  2.740027e+01
     vertex -6.554584e+02 -2.942000e+02  2.958008e+01
   endloop
 endfacet
 facet normal  0.000000e+00  1.000000e+00  0.000000e+00
   outer loop
     vertex -6.519415e+02 -2.942000e+02  2.222462e+01
     vertex -6.529773e+02 -2.942000e+02  2.017106e+01
     vertex -6.542811e+02 -2.942000e+02  2.104025e+01
   endloop
 endfacet
 facet normal  0.000000e+00  1.000000e+00  0.000000e+00
   outer loop
     vertex -6.519415e+02 -2.942000e+02  2.222462e+01
     vertex -6.542811e+02 -2.942000e+02  2.104025e+01
     vertex -6.527840e+02 -2.942000e+02  2.278625e+01
   endloop
 endfacet
 facet normal  0.000000e+00  1.000000e+00  0.000000e+00
   outer loop
     vertex -6.528856e+02 -2.942000e+02  2.907292e+01
     vertex -6.535447e+02 -2.942000e+02  2.830429e+01
     vertex -6.544384e+02 -2.942000e+02  3.076962e+01
   endloop
 endfacet
 facet normal  0.000000e+00  1.000000e+00  0.000000e+00
   outer loop
     vertex -6.531634e+02 -2.942000e+02  3.168049e+01
     vertex -6.528856e+02 -2.942000e+02  2.907292e+01
     vertex -6.544384e+02 -2.942000e+02  3.076962e+01
   endloop
 endfacet
 facet normal  0.000000e+00  1.000000e+00  0.000000e+00
   outer loop
     vertex -6.509891e+02 -2.942000e+02  2.188093e+01
     vertex -6.515034e+02 -2.942000e+02  1.963916e+01
     vertex -6.529773e+02 -2.942000e+02  2.017106e+01
   endloop
 endfacet
 facet normal  0.000000e+00  1.000000e+00  0.000000e+00
   outer loop
     vertex -6.509891e+02 -2.942000e+02  2.188093e+01
     vertex -6.529773e+02 -2.942000e+02  2.017106e+01
     vertex -6.519415e+02 -2.942000e+02  2.222462e+01
   endloop
 endfacet
 facet normal  0.000000e+00  1.000000e+00  0.000000e+00
   outer loop
     vertex -6.520617e+02 -2.942000e+02  2.966148e+01
     vertex -6.528856e+02 -2.942000e+02  2.907292e+01
     vertex -6.531634e+02 -2.942000e+02  3.168049e+01
   endloop
 endfacet
 facet normal  0.000000e+00  1.000000e+00  0.000000e+00
   outer loop
     vertex -6.499822e+02 -2.942000e+02  2.177514e+01
     vertex -6.499450e+02 -2.942000e+02  1.947544e+01
     vertex -6.515034e+02 -2.942000e+02  1.963916e+01
   endloop
 endfacet
 facet normal  0.000000e+00  1.000000e+00  0.000000e+00
   outer loop
     vertex -6.499822e+02 -2.942000e+02  2.177514e+01
     vertex -6.515034e+02 -2.942000e+02  1.963916e+01
     vertex -6.509891e+02 -2.942000e+02  2.188093e+01
   endloop
 endfacet
 facet normal  0.000000e+00  1.000000e+00  0.000000e+00
   outer loop
     vertex -6.517074e+02 -2.942000e+02  3.225975e+01
     vertex -6.520617e+02 -2.942000e+02  2.966148e+01
     vertex -6.531634e+02 -2.942000e+02  3.168049e+01
   endloop
 endfacet
 facet normal  0.000000e+00  1.000000e+00  0.000000e+00
   outer loop
     vertex -6.511209e+02 -2.942000e+02  3.003577e+01
     vertex -6.520617e+02 -2.942000e+02  2.966148e+01
     vertex -6.517074e+02 -2.942000e+02  3.225975e+01
   endloop
 endfacet
 facet normal  0.000000e+00  1.000000e+00  0.000000e+00
   outer loop
     vertex -6.489791e+02 -2.942000e+02  2.191341e+01
     vertex -6.499450e+02 -2.942000e+02  1.947544e+01
     vertex -6.499822e+02 -2.942000e+02  2.177514e+01
   endloop
 endfacet
 facet normal  0.000000e+00  1.000000e+00  0.000000e+00
   outer loop
     vertex -6.483927e+02 -2.942000e+02  1.968943e+01
     vertex -6.499450e+02 -2.942000e+02  1.947544e+01
     vertex -6.489791e+02 -2.942000e+02  2.191341e+01
   endloop
 endfacet
 facet normal  0.000000e+00  1.000000e+00  0.000000e+00
   outer loop
     vertex -6.501551e+02 -2.942000e+02  3.247374e+01
     vertex -6.511209e+02 -2.942000e+02  3.003577e+01
     vertex -6.517074e+02 -2.942000e+02  3.225975e+01
   endloop
 endfacet
 facet normal  0.000000e+00  1.000000e+00  0.000000e+00
   outer loop
     vertex -6.501551e+02 -2.942000e+02  3.247374e+01
     vertex -6.501179e+02 -2.942000e+02  3.017404e+01
     vertex -6.511209e+02 -2.942000e+02  3.003577e+01
   endloop
 endfacet
 facet normal  0.000000e+00  1.000000e+00  0.000000e+00
   outer loop
     vertex -6.480384e+02 -2.942000e+02  2.228771e+01
     vertex -6.483927e+02 -2.942000e+02  1.968943e+01
     vertex -6.489791e+02 -2.942000e+02  2.191341e+01
   endloop
 endfacet
 facet normal  0.000000e+00  1.000000e+00  0.000000e+00
   outer loop
     vertex -6.469367e+02 -2.942000e+02  2.026870e+01
     vertex -6.483927e+02 -2.942000e+02  1.968943e+01
     vertex -6.480384e+02 -2.942000e+02  2.228771e+01
   endloop
 endfacet
 facet normal  0.000000e+00  1.000000e+00  0.000000e+00
   outer loop
     vertex -6.472145e+02 -2.942000e+02  2.287627e+01
     vertex -6.469367e+02 -2.942000e+02  2.026870e+01
     vertex -6.480384e+02 -2.942000e+02  2.228771e+01
   endloop
 endfacet
 facet normal  0.000000e+00  1.000000e+00  0.000000e+00
   outer loop
     vertex -6.485967e+02 -2.942000e+02  3.231003e+01
     vertex -6.501179e+02 -2.942000e+02  3.017404e+01
     vertex -6.501551e+02 -2.942000e+02  3.247374e+01
   endloop
 endfacet
 facet normal  0.000000e+00  1.000000e+00  0.000000e+00
   outer loop
     vertex -6.485967e+02 -2.942000e+02  3.231003e+01
     vertex -6.491109e+02 -2.942000e+02  3.006826e+01
     vertex -6.501179e+02 -2.942000e+02  3.017404e+01
   endloop
 endfacet
 facet normal  0.000000e+00  1.000000e+00  0.000000e+00
   outer loop
     vertex -6.456617e+02 -2.942000e+02  2.117957e+01
     vertex -6.469367e+02 -2.942000e+02  2.026870e+01
     vertex -6.472145e+02 -2.942000e+02  2.287627e+01
   endloop
 endfacet
 facet normal  0.000000e+00  1.000000e+00  0.000000e+00
   outer loop
     vertex -6.471227e+02 -2.942000e+02  3.177812e+01
     vertex -6.491109e+02 -2.942000e+02  3.006826e+01
     vertex -6.485967e+02 -2.942000e+02  3.231003e+01
   endloop
 endfacet
 facet normal  0.000000e+00  1.000000e+00  0.000000e+00
   outer loop
     vertex -6.471227e+02 -2.942000e+02  3.177812e+01
     vertex -6.481586e+02 -2.942000e+02  2.972457e+01
     vertex -6.491109e+02 -2.942000e+02  3.006826e+01
   endloop
 endfacet
 facet normal  0.000000e+00  1.000000e+00  0.000000e+00
   outer loop
     vertex -6.446417e+02 -2.942000e+02  2.236910e+01
     vertex -6.465554e+02 -2.942000e+02  2.364489e+01
     vertex -6.460994e+02 -2.942000e+02  2.454891e+01
   endloop
 endfacet
 facet normal  0.000000e+00  1.000000e+00  0.000000e+00
   outer loop
     vertex -6.446417e+02 -2.942000e+02  2.236910e+01
     vertex -6.472145e+02 -2.942000e+02  2.287627e+01
     vertex -6.465554e+02 -2.942000e+02  2.364489e+01
   endloop
 endfacet
 facet normal  0.000000e+00  1.000000e+00  0.000000e+00
   outer loop
     vertex -6.446417e+02 -2.942000e+02  2.236910e+01
     vertex -6.456617e+02 -2.942000e+02  2.117957e+01
     vertex -6.472145e+02 -2.942000e+02  2.287627e+01
   endloop
 endfacet
 facet normal  0.000000e+00  1.000000e+00  0.000000e+00
   outer loop
     vertex -6.458189e+02 -2.942000e+02  3.090893e+01
     vertex -6.473161e+02 -2.942000e+02  2.916294e+01
     vertex -6.481586e+02 -2.942000e+02  2.972457e+01
   endloop
 endfacet
 facet normal  0.000000e+00  1.000000e+00  0.000000e+00
   outer loop
     vertex -6.458189e+02 -2.942000e+02  3.090893e+01
     vertex -6.481586e+02 -2.942000e+02  2.972457e+01
     vertex -6.471227e+02 -2.942000e+02  3.177812e+01
   endloop
 endfacet
 facet normal  0.000000e+00  1.000000e+00  0.000000e+00
   outer loop
     vertex -6.439360e+02 -2.942000e+02  2.376818e+01
     vertex -6.446417e+02 -2.942000e+02  2.236910e+01
     vertex -6.460994e+02 -2.942000e+02  2.454891e+01
   endloop
 endfacet
 facet normal  0.000000e+00  1.000000e+00  0.000000e+00
   outer loop
     vertex -6.447610e+02 -2.942000e+02  2.975298e+01
     vertex -6.473161e+02 -2.942000e+02  2.916294e+01
     vertex -6.458189e+02 -2.942000e+02  3.090893e+01
   endloop
 endfacet
 facet normal  0.000000e+00  1.000000e+00  0.000000e+00
   outer loop
     vertex -6.447610e+02 -2.942000e+02  2.975298e+01
     vertex -6.466325e+02 -2.942000e+02  2.841601e+01
     vertex -6.473161e+02 -2.942000e+02  2.916294e+01
   endloop
 endfacet
 facet normal  0.000000e+00  1.000000e+00  0.000000e+00
   outer loop
     vertex -6.435856e+02 -2.942000e+02  2.529549e+01
     vertex -6.460994e+02 -2.942000e+02  2.454891e+01
     vertex -6.458730e+02 -2.942000e+02  2.553578e+01
   endloop
 endfacet
 facet normal  0.000000e+00  1.000000e+00  0.000000e+00
   outer loop
     vertex -6.435856e+02 -2.942000e+02  2.529549e+01
     vertex -6.458730e+02 -2.942000e+02  2.553578e+01
     vertex -6.458894e+02 -2.942000e+02  2.654816e+01
   endloop
 endfacet
 facet normal  0.000000e+00  1.000000e+00  0.000000e+00
   outer loop
     vertex -6.435856e+02 -2.942000e+02  2.529549e+01
     vertex -6.439360e+02 -2.942000e+02  2.376818e+01
     vertex -6.460994e+02 -2.942000e+02  2.454891e+01
   endloop
 endfacet
 facet normal  0.000000e+00  1.000000e+00  0.000000e+00
   outer loop
     vertex -6.440105e+02 -2.942000e+02  2.837744e+01
     vertex -6.461476e+02 -2.942000e+02  2.752720e+01
     vertex -6.466325e+02 -2.942000e+02  2.841601e+01
   endloop
 endfacet
 facet normal  0.000000e+00  1.000000e+00  0.000000e+00
   outer loop
     vertex -6.440105e+02 -2.942000e+02  2.837744e+01
     vertex -6.466325e+02 -2.942000e+02  2.841601e+01
     vertex -6.447610e+02 -2.942000e+02  2.975298e+01
   endloop
 endfacet
 facet normal  0.000000e+00  1.000000e+00  0.000000e+00
   outer loop
     vertex -6.436109e+02 -2.942000e+02  2.686226e+01
     vertex -6.461476e+02 -2.942000e+02  2.752720e+01
     vertex -6.440105e+02 -2.942000e+02  2.837744e+01
   endloop
 endfacet
 facet normal  0.000000e+00  1.000000e+00  0.000000e+00
   outer loop
     vertex -6.436109e+02 -2.942000e+02  2.686226e+01
     vertex -6.458894e+02 -2.942000e+02  2.654816e+01
     vertex -6.461476e+02 -2.942000e+02  2.752720e+01
   endloop
 endfacet
 facet normal  0.000000e+00  1.000000e+00  0.000000e+00
   outer loop
     vertex -6.436109e+02 -2.942000e+02  2.686226e+01
     vertex -6.435856e+02 -2.942000e+02  2.529549e+01
     vertex -6.458894e+02 -2.942000e+02  2.654816e+01
   endloop
 endfacet
endsolid
