solid 
 facet normal -7.061772e-01 -7.044686e-01  7.097753e-02
   outer loop
     vertex  3.335589e+02  1.635669e+02 -1.008262e+01
     vertex  3.343255e+02  1.628000e+02 -1.006678e+01
     vertex  3.344035e+02  1.628000e+02 -9.291256e+00
   endloop
 endfacet
 facet normal -6.686709e-01 -7.044686e-01  2.379143e-01
   outer loop
     vertex  3.336553e+02  1.635669e+02 -9.123164e+00
     vertex  3.344035e+02  1.628000e+02 -9.291256e+00
     vertex  3.346647e+02  1.628000e+02 -8.556918e+00
   endloop
 endfacet
 facet normal -7.061772e-01 -7.044686e-01  7.097753e-02
   outer loop
     vertex  3.336553e+02  1.635669e+02 -9.123164e+00
     vertex  3.335589e+02  1.635669e+02 -1.008262e+01
     vertex  3.344035e+02  1.628000e+02 -9.291256e+00
   endloop
 endfacet
 facet normal -5.923040e-01 -7.044686e-01  3.910244e-01
   outer loop
     vertex  3.339785e+02  1.635669e+02 -8.214664e+00
     vertex  3.346647e+02  1.628000e+02 -8.556918e+00
     vertex  3.350942e+02  1.628000e+02 -7.906446e+00
   endloop
 endfacet
 facet normal -6.686709e-01 -7.044686e-01  2.379143e-01
   outer loop
     vertex  3.339785e+02  1.635669e+02 -8.214664e+00
     vertex  3.336553e+02  1.635669e+02 -9.123164e+00
     vertex  3.346647e+02  1.628000e+02 -8.556918e+00
   endloop
 endfacet
 facet normal -4.815144e-01 -7.044686e-01  5.214095e-01
   outer loop
     vertex  3.345098e+02  1.635669e+02 -7.409920e+00
     vertex  3.350942e+02  1.628000e+02 -7.906446e+00
     vertex  3.356668e+02  1.628000e+02 -7.377644e+00
   endloop
 endfacet
 facet normal -5.923040e-01 -7.044686e-01  3.910244e-01
   outer loop
     vertex  3.345098e+02  1.635669e+02 -7.409920e+00
     vertex  3.339785e+02  1.635669e+02 -8.214664e+00
     vertex  3.350942e+02  1.628000e+02 -7.906446e+00
   endloop
 endfacet
 facet normal -3.427410e-01 -7.044686e-01  6.214923e-01
   outer loop
     vertex  3.352182e+02  1.635669e+02 -6.755702e+00
     vertex  3.356668e+02  1.628000e+02 -7.377644e+00
     vertex  3.363493e+02  1.628000e+02 -7.001244e+00
   endloop
 endfacet
 facet normal -4.815144e-01 -7.044686e-01  5.214095e-01
   outer loop
     vertex  3.352182e+02  1.635669e+02 -6.755702e+00
     vertex  3.345098e+02  1.635669e+02 -7.409920e+00
     vertex  3.356668e+02  1.628000e+02 -7.377644e+00
   endloop
 endfacet
 facet normal -1.840487e-01 -7.044686e-01  6.854561e-01
   outer loop
     vertex  3.360626e+02  1.635669e+02 -6.290032e+00
     vertex  3.363493e+02  1.628000e+02 -7.001244e+00
     vertex  3.371021e+02  1.628000e+02 -6.799121e+00
   endloop
 endfacet
 facet normal -3.427410e-01 -7.044686e-01  6.214923e-01
   outer loop
     vertex  3.360626e+02  1.635669e+02 -6.290032e+00
     vertex  3.352182e+02  1.635669e+02 -6.755702e+00
     vertex  3.363493e+02  1.628000e+02 -7.001244e+00
   endloop
 endfacet
 facet normal -1.466023e-02 -7.044686e-01  7.095838e-01
   outer loop
     vertex  3.369939e+02  1.635669e+02 -6.039971e+00
     vertex  3.371021e+02  1.628000e+02 -6.799121e+00
     vertex  3.378813e+02  1.628000e+02 -6.783021e+00
   endloop
 endfacet
 facet normal -1.840487e-01 -7.044686e-01  6.854561e-01
   outer loop
     vertex  3.369939e+02  1.635669e+02 -6.039971e+00
     vertex  3.360626e+02  1.635669e+02 -6.290032e+00
     vertex  3.371021e+02  1.628000e+02 -6.799121e+00
   endloop
 endfacet
 facet normal  1.555803e-01 -7.044686e-01  6.924730e-01
   outer loop
     vertex  3.379580e+02  1.635669e+02 -6.020053e+00
     vertex  3.378813e+02  1.628000e+02 -6.783021e+00
     vertex  3.386418e+02  1.628000e+02 -6.953880e+00
   endloop
 endfacet
 facet normal -1.466023e-02 -7.044686e-01  7.095838e-01
   outer loop
     vertex  3.379580e+02  1.635669e+02 -6.020053e+00
     vertex  3.369939e+02  1.635669e+02 -6.039971e+00
     vertex  3.378813e+02  1.628000e+02 -6.783021e+00
   endloop
 endfacet
 facet normal  3.167790e-01 -7.044686e-01  6.351182e-01
   outer loop
     vertex  3.388989e+02  1.635669e+02 -6.231434e+00
     vertex  3.386418e+02  1.628000e+02 -6.953880e+00
     vertex  3.393393e+02  1.628000e+02 -7.301769e+00
   endloop
 endfacet
 facet normal  1.555803e-01 -7.044686e-01  6.924730e-01
   outer loop
     vertex  3.388989e+02  1.635669e+02 -6.231434e+00
     vertex  3.379580e+02  1.635669e+02 -6.020053e+00
     vertex  3.386418e+02  1.628000e+02 -6.953880e+00
   endloop
 endfacet
 facet normal  4.595677e-01 -7.044686e-01  5.408526e-01
   outer loop
     vertex  3.397618e+02  1.635669e+02 -6.661831e+00
     vertex  3.393393e+02  1.628000e+02 -7.301769e+00
     vertex  3.399333e+02  1.628000e+02 -7.806469e+00
   endloop
 endfacet
 facet normal  3.167790e-01 -7.044686e-01  6.351182e-01
   outer loop
     vertex  3.397618e+02  1.635669e+02 -6.661831e+00
     vertex  3.388989e+02  1.635669e+02 -6.231434e+00
     vertex  3.393393e+02  1.628000e+02 -7.301769e+00
   endloop
 endfacet
 facet normal  5.756480e-01 -7.044686e-01  4.151547e-01
   outer loop
     vertex  3.404966e+02  1.635669e+02 -7.286231e+00
     vertex  3.399333e+02  1.628000e+02 -7.806469e+00
     vertex  3.403892e+02  1.628000e+02 -8.438649e+00
   endloop
 endfacet
 facet normal  4.595677e-01 -7.044686e-01  5.408526e-01
   outer loop
     vertex  3.404966e+02  1.635669e+02 -7.286231e+00
     vertex  3.397618e+02  1.635669e+02 -6.661831e+00
     vertex  3.399333e+02  1.628000e+02 -7.806469e+00
   endloop
 endfacet
 facet normal  5.756480e-01 -7.044686e-01  4.151547e-01
   outer loop
     vertex  3.410607e+02  1.635669e+02 -8.068344e+00
     vertex  3.404966e+02  1.635669e+02 -7.286231e+00
     vertex  3.403892e+02  1.628000e+02 -8.438649e+00
   endloop
 endfacet
 facet normal  6.582738e-01 -7.044686e-01  2.653294e-01
   outer loop
     vertex  3.410607e+02  1.635669e+02 -8.068344e+00
     vertex  3.403892e+02  1.628000e+02 -8.438649e+00
     vertex  3.406806e+02  1.628000e+02 -9.161569e+00
   endloop
 endfacet
 facet normal  6.582738e-01 -7.044686e-01  2.653294e-01
   outer loop
     vertex  3.414212e+02  1.635669e+02 -8.962719e+00
     vertex  3.410607e+02  1.635669e+02 -8.068344e+00
     vertex  3.406806e+02  1.628000e+02 -9.161569e+00
   endloop
 endfacet
 facet normal  7.026430e-01 -7.044686e-01  1.000842e-01
   outer loop
     vertex  3.414212e+02  1.635669e+02 -8.962719e+00
     vertex  3.406806e+02  1.628000e+02 -9.161569e+00
     vertex  3.407905e+02  1.628000e+02 -9.933216e+00
   endloop
 endfacet
 facet normal  7.026430e-01 -7.044686e-01  1.000842e-01
   outer loop
     vertex  3.415571e+02  1.635669e+02 -9.917376e+00
     vertex  3.414212e+02  1.635669e+02 -8.962719e+00
     vertex  3.407905e+02  1.628000e+02 -9.933216e+00
   endloop
 endfacet
 facet normal  7.061772e-01 -7.044686e-01 -7.097753e-02
   outer loop
     vertex  3.415571e+02  1.635669e+02 -9.917376e+00
     vertex  3.407905e+02  1.628000e+02 -9.933216e+00
     vertex  3.407125e+02  1.628000e+02 -1.070874e+01
   endloop
 endfacet
 facet normal  7.061772e-01 -7.044686e-01 -7.097753e-02
   outer loop
     vertex  3.414607e+02  1.635669e+02 -1.087684e+01
     vertex  3.415571e+02  1.635669e+02 -9.917376e+00
     vertex  3.407125e+02  1.628000e+02 -1.070874e+01
   endloop
 endfacet
 facet normal  6.686709e-01 -7.044686e-01 -2.379143e-01
   outer loop
     vertex  3.414607e+02  1.635669e+02 -1.087684e+01
     vertex  3.407125e+02  1.628000e+02 -1.070874e+01
     vertex  3.404513e+02  1.628000e+02 -1.144308e+01
   endloop
 endfacet
 facet normal  6.686709e-01 -7.044686e-01 -2.379143e-01
   outer loop
     vertex  3.411375e+02  1.635669e+02 -1.178534e+01
     vertex  3.414607e+02  1.635669e+02 -1.087684e+01
     vertex  3.404513e+02  1.628000e+02 -1.144308e+01
   endloop
 endfacet
 facet normal  5.923040e-01 -7.044686e-01 -3.910244e-01
   outer loop
     vertex  3.406062e+02  1.635669e+02 -1.259008e+01
     vertex  3.411375e+02  1.635669e+02 -1.178534e+01
     vertex  3.404513e+02  1.628000e+02 -1.144308e+01
   endloop
 endfacet
 facet normal  5.923040e-01 -7.044686e-01 -3.910244e-01
   outer loop
     vertex  3.406062e+02  1.635669e+02 -1.259008e+01
     vertex  3.404513e+02  1.628000e+02 -1.144308e+01
     vertex  3.400218e+02  1.628000e+02 -1.209355e+01
   endloop
 endfacet
 facet normal  4.815144e-01 -7.044686e-01 -5.214095e-01
   outer loop
     vertex  3.406062e+02  1.635669e+02 -1.259008e+01
     vertex  3.400218e+02  1.628000e+02 -1.209355e+01
     vertex  3.394492e+02  1.628000e+02 -1.262236e+01
   endloop
 endfacet
 facet normal  4.815144e-01 -7.044686e-01 -5.214095e-01
   outer loop
     vertex  3.398978e+02  1.635669e+02 -1.324430e+01
     vertex  3.406062e+02  1.635669e+02 -1.259008e+01
     vertex  3.394492e+02  1.628000e+02 -1.262236e+01
   endloop
 endfacet
 facet normal  3.427410e-01 -7.044686e-01 -6.214923e-01
   outer loop
     vertex  3.398978e+02  1.635669e+02 -1.324430e+01
     vertex  3.394492e+02  1.628000e+02 -1.262236e+01
     vertex  3.387667e+02  1.628000e+02 -1.299876e+01
   endloop
 endfacet
 facet normal  3.427410e-01 -7.044686e-01 -6.214923e-01
   outer loop
     vertex  3.390534e+02  1.635669e+02 -1.370997e+01
     vertex  3.398978e+02  1.635669e+02 -1.324430e+01
     vertex  3.387667e+02  1.628000e+02 -1.299876e+01
   endloop
 endfacet
 facet normal  1.840487e-01 -7.044686e-01 -6.854561e-01
   outer loop
     vertex  3.390534e+02  1.635669e+02 -1.370997e+01
     vertex  3.387667e+02  1.628000e+02 -1.299876e+01
     vertex  3.380139e+02  1.628000e+02 -1.320088e+01
   endloop
 endfacet
 facet normal  1.840487e-01 -7.044686e-01 -6.854561e-01
   outer loop
     vertex  3.381221e+02  1.635669e+02 -1.396003e+01
     vertex  3.390534e+02  1.635669e+02 -1.370997e+01
     vertex  3.380139e+02  1.628000e+02 -1.320088e+01
   endloop
 endfacet
 facet normal  1.466023e-02 -7.044686e-01 -7.095838e-01
   outer loop
     vertex  3.371580e+02  1.635669e+02 -1.397995e+01
     vertex  3.380139e+02  1.628000e+02 -1.320088e+01
     vertex  3.372347e+02  1.628000e+02 -1.321698e+01
   endloop
 endfacet
 facet normal -1.555803e-01 -7.044686e-01 -6.924730e-01
   outer loop
     vertex  3.371580e+02  1.635669e+02 -1.397995e+01
     vertex  3.372347e+02  1.628000e+02 -1.321698e+01
     vertex  3.364742e+02  1.628000e+02 -1.304612e+01
   endloop
 endfacet
 facet normal  1.466023e-02 -7.044686e-01 -7.095838e-01
   outer loop
     vertex  3.371580e+02  1.635669e+02 -1.397995e+01
     vertex  3.381221e+02  1.635669e+02 -1.396003e+01
     vertex  3.380139e+02  1.628000e+02 -1.320088e+01
   endloop
 endfacet
 facet normal -3.167790e-01 -7.044686e-01 -6.351182e-01
   outer loop
     vertex  3.362171e+02  1.635669e+02 -1.376857e+01
     vertex  3.364742e+02  1.628000e+02 -1.304612e+01
     vertex  3.357767e+02  1.628000e+02 -1.269823e+01
   endloop
 endfacet
 facet normal -1.555803e-01 -7.044686e-01 -6.924730e-01
   outer loop
     vertex  3.362171e+02  1.635669e+02 -1.376857e+01
     vertex  3.371580e+02  1.635669e+02 -1.397995e+01
     vertex  3.364742e+02  1.628000e+02 -1.304612e+01
   endloop
 endfacet
 facet normal -3.167790e-01 -7.044686e-01 -6.351182e-01
   outer loop
     vertex  3.353542e+02  1.635669e+02 -1.333817e+01
     vertex  3.362171e+02  1.635669e+02 -1.376857e+01
     vertex  3.357767e+02  1.628000e+02 -1.269823e+01
   endloop
 endfacet
 facet normal -4.595677e-01 -7.044686e-01 -5.408526e-01
   outer loop
     vertex  3.346194e+02  1.635669e+02 -1.271377e+01
     vertex  3.357767e+02  1.628000e+02 -1.269823e+01
     vertex  3.351827e+02  1.628000e+02 -1.219353e+01
   endloop
 endfacet
 facet normal -5.756480e-01 -7.044686e-01 -4.151547e-01
   outer loop
     vertex  3.346194e+02  1.635669e+02 -1.271377e+01
     vertex  3.351827e+02  1.628000e+02 -1.219353e+01
     vertex  3.347268e+02  1.628000e+02 -1.156135e+01
   endloop
 endfacet
 facet normal -4.595677e-01 -7.044686e-01 -5.408526e-01
   outer loop
     vertex  3.346194e+02  1.635669e+02 -1.271377e+01
     vertex  3.353542e+02  1.635669e+02 -1.333817e+01
     vertex  3.357767e+02  1.628000e+02 -1.269823e+01
   endloop
 endfacet
 facet normal -5.756480e-01 -7.044686e-01 -4.151547e-01
   outer loop
     vertex  3.340553e+02  1.635669e+02 -1.193166e+01
     vertex  3.346194e+02  1.635669e+02 -1.271377e+01
     vertex  3.347268e+02  1.628000e+02 -1.156135e+01
   endloop
 endfacet
 facet normal -6.582738e-01 -7.044686e-01 -2.653294e-01
   outer loop
     vertex  3.336948e+02  1.635669e+02 -1.103728e+01
     vertex  3.347268e+02  1.628000e+02 -1.156135e+01
     vertex  3.344354e+02  1.628000e+02 -1.083843e+01
   endloop
 endfacet
 facet normal -6.582738e-01 -7.044686e-01 -2.653294e-01
   outer loop
     vertex  3.336948e+02  1.635669e+02 -1.103728e+01
     vertex  3.340553e+02  1.635669e+02 -1.193166e+01
     vertex  3.347268e+02  1.628000e+02 -1.156135e+01
   endloop
 endfacet
 facet normal -7.026430e-01 -7.044686e-01 -1.000842e-01
   outer loop
     vertex  3.335589e+02  1.635669e+02 -1.008262e+01
     vertex  3.344354e+02  1.628000e+02 -1.083843e+01
     vertex  3.343255e+02  1.628000e+02 -1.006678e+01
   endloop
 endfacet
 facet normal -7.026430e-01 -7.044686e-01 -1.000842e-01
   outer loop
     vertex  3.335589e+02  1.635669e+02 -1.008262e+01
     vertex  3.336948e+02  1.635669e+02 -1.103728e+01
     vertex  3.344354e+02  1.628000e+02 -1.083843e+01
   endloop
 endfacet
 facet normal  9.900073e-01 -4.302314e-10  1.410163e-01
   outer loop
     vertex  3.415571e+02  1.635669e+02 -9.917376e+00
     vertex  3.415571e+02  1.788000e+02 -9.917376e+00
     vertex  3.414212e+02  1.788000e+02 -8.962719e+00
   endloop
 endfacet
 facet normal  9.274921e-01 -4.030541e-10  3.738428e-01
   outer loop
     vertex  3.414212e+02  1.635669e+02 -8.962719e+00
     vertex  3.414212e+02  1.788000e+02 -8.962719e+00
     vertex  3.410607e+02  1.788000e+02 -8.068344e+00
   endloop
 endfacet
 facet normal  9.900073e-01 -4.302239e-10  1.410163e-01
   outer loop
     vertex  3.414212e+02  1.635669e+02 -8.962719e+00
     vertex  3.415571e+02  1.635669e+02 -9.917376e+00
     vertex  3.414212e+02  1.788000e+02 -8.962719e+00
   endloop
 endfacet
 facet normal  8.110744e-01 -3.524653e-10  5.849430e-01
   outer loop
     vertex  3.410607e+02  1.635669e+02 -8.068344e+00
     vertex  3.410607e+02  1.788000e+02 -8.068344e+00
     vertex  3.404966e+02  1.788000e+02 -7.286231e+00
   endloop
 endfacet
 facet normal  9.274921e-01 -4.030604e-10  3.738428e-01
   outer loop
     vertex  3.410607e+02  1.635669e+02 -8.068344e+00
     vertex  3.414212e+02  1.635669e+02 -8.962719e+00
     vertex  3.410607e+02  1.788000e+02 -8.068344e+00
   endloop
 endfacet
 facet normal  6.475200e-01 -2.813852e-10  7.620485e-01
   outer loop
     vertex  3.404966e+02  1.635669e+02 -7.286231e+00
     vertex  3.404966e+02  1.788000e+02 -7.286231e+00
     vertex  3.397618e+02  1.788000e+02 -6.661831e+00
   endloop
 endfacet
 facet normal  8.110744e-01 -3.524633e-10  5.849430e-01
   outer loop
     vertex  3.404966e+02  1.635669e+02 -7.286231e+00
     vertex  3.410607e+02  1.635669e+02 -8.068344e+00
     vertex  3.404966e+02  1.788000e+02 -7.286231e+00
   endloop
 endfacet
 facet normal  4.463341e-01 -1.939505e-10  8.948664e-01
   outer loop
     vertex  3.397618e+02  1.635669e+02 -6.661831e+00
     vertex  3.397618e+02  1.788000e+02 -6.661831e+00
     vertex  3.388989e+02  1.788000e+02 -6.231434e+00
   endloop
 endfacet
 facet normal  6.475200e-01 -2.813812e-10  7.620485e-01
   outer loop
     vertex  3.397618e+02  1.635669e+02 -6.661831e+00
     vertex  3.404966e+02  1.635669e+02 -7.286231e+00
     vertex  3.397618e+02  1.788000e+02 -6.661831e+00
   endloop
 endfacet
 facet normal  2.192089e-01 -9.525070e-11  9.756779e-01
   outer loop
     vertex  3.388989e+02  1.635669e+02 -6.231434e+00
     vertex  3.388989e+02  1.788000e+02 -6.231434e+00
     vertex  3.379580e+02  1.788000e+02 -6.020053e+00
   endloop
 endfacet
 facet normal  4.463341e-01 -1.939539e-10  8.948664e-01
   outer loop
     vertex  3.388989e+02  1.635669e+02 -6.231434e+00
     vertex  3.397618e+02  1.635669e+02 -6.661831e+00
     vertex  3.388989e+02  1.788000e+02 -6.231434e+00
   endloop
 endfacet
 facet normal -2.065591e-02  8.988020e-12  9.997866e-01
   outer loop
     vertex  3.379580e+02  1.635669e+02 -6.020053e+00
     vertex  3.379580e+02  1.788000e+02 -6.020053e+00
     vertex  3.369939e+02  1.788000e+02 -6.039971e+00
   endloop
 endfacet
 facet normal  2.192089e-01 -9.525076e-11  9.756779e-01
   outer loop
     vertex  3.379580e+02  1.635669e+02 -6.020053e+00
     vertex  3.388989e+02  1.635669e+02 -6.231434e+00
     vertex  3.379580e+02  1.788000e+02 -6.020053e+00
   endloop
 endfacet
 facet normal -2.593203e-01  1.127027e-10  9.657914e-01
   outer loop
     vertex  3.369939e+02  1.635669e+02 -6.039971e+00
     vertex  3.369939e+02  1.788000e+02 -6.039971e+00
     vertex  3.360626e+02  1.788000e+02 -6.290032e+00
   endloop
 endfacet
 facet normal -2.065591e-02  8.986213e-12  9.997866e-01
   outer loop
     vertex  3.369939e+02  1.635669e+02 -6.039971e+00
     vertex  3.379580e+02  1.635669e+02 -6.020053e+00
     vertex  3.369939e+02  1.788000e+02 -6.039971e+00
   endloop
 endfacet
 facet normal -4.829139e-01  2.098707e-10  8.756678e-01
   outer loop
     vertex  3.360626e+02  1.635669e+02 -6.290032e+00
     vertex  3.360626e+02  1.788000e+02 -6.290032e+00
     vertex  3.352182e+02  1.788000e+02 -6.755702e+00
   endloop
 endfacet
 facet normal -2.593203e-01  1.127053e-10  9.657914e-01
   outer loop
     vertex  3.360626e+02  1.635669e+02 -6.290032e+00
     vertex  3.369939e+02  1.635669e+02 -6.039971e+00
     vertex  3.360626e+02  1.788000e+02 -6.290032e+00
   endloop
 endfacet
 facet normal -6.784423e-01  2.948405e-10  7.346536e-01
   outer loop
     vertex  3.352182e+02  1.635669e+02 -6.755702e+00
     vertex  3.352182e+02  1.788000e+02 -6.755702e+00
     vertex  3.345098e+02  1.788000e+02 -7.409920e+00
   endloop
 endfacet
 facet normal -4.829139e-01  2.098710e-10  8.756678e-01
   outer loop
     vertex  3.352182e+02  1.635669e+02 -6.755702e+00
     vertex  3.360626e+02  1.635669e+02 -6.290032e+00
     vertex  3.352182e+02  1.788000e+02 -6.755702e+00
   endloop
 endfacet
 facet normal -8.345422e-01  3.626698e-10  5.509441e-01
   outer loop
     vertex  3.345098e+02  1.635669e+02 -7.409920e+00
     vertex  3.345098e+02  1.788000e+02 -7.409920e+00
     vertex  3.339785e+02  1.788000e+02 -8.214664e+00
   endloop
 endfacet
 facet normal -6.784423e-01  2.948368e-10  7.346536e-01
   outer loop
     vertex  3.345098e+02  1.635669e+02 -7.409920e+00
     vertex  3.352182e+02  1.635669e+02 -6.755702e+00
     vertex  3.345098e+02  1.788000e+02 -7.409920e+00
   endloop
 endfacet
 facet normal -8.345422e-01  3.626750e-10  5.509441e-01
   outer loop
     vertex  3.339785e+02  1.635669e+02 -8.214664e+00
     vertex  3.345098e+02  1.635669e+02 -7.409920e+00
     vertex  3.339785e+02  1.788000e+02 -8.214664e+00
   endloop
 endfacet
 facet normal -9.421414e-01  4.094320e-10  3.352156e-01
   outer loop
     vertex  3.339785e+02  1.635669e+02 -8.214664e+00
     vertex  3.339785e+02  1.788000e+02 -8.214664e+00
     vertex  3.336553e+02  1.788000e+02 -9.123164e+00
   endloop
 endfacet
 facet normal -9.421414e-01  4.094285e-10  3.352156e-01
   outer loop
     vertex  3.336553e+02  1.635669e+02 -9.123164e+00
     vertex  3.339785e+02  1.635669e+02 -8.214664e+00
     vertex  3.336553e+02  1.788000e+02 -9.123164e+00
   endloop
 endfacet
 facet normal -9.949869e-01  4.323907e-10  1.000057e-01
   outer loop
     vertex  3.336553e+02  1.635669e+02 -9.123164e+00
     vertex  3.336553e+02  1.788000e+02 -9.123164e+00
     vertex  3.335589e+02  1.788000e+02 -1.008262e+01
   endloop
 endfacet
 facet normal -9.949869e-01  4.323946e-10  1.000057e-01
   outer loop
     vertex  3.335589e+02  1.635669e+02 -1.008262e+01
     vertex  3.336553e+02  1.635669e+02 -9.123164e+00
     vertex  3.335589e+02  1.788000e+02 -1.008262e+01
   endloop
 endfacet
 facet normal -9.900073e-01  4.302274e-10 -1.410163e-01
   outer loop
     vertex  3.336948e+02  1.635669e+02 -1.103728e+01
     vertex  3.335589e+02  1.635669e+02 -1.008262e+01
     vertex  3.335589e+02  1.788000e+02 -1.008262e+01
   endloop
 endfacet
 facet normal -9.900073e-01  4.302282e-10 -1.410163e-01
   outer loop
     vertex  3.336948e+02  1.635669e+02 -1.103728e+01
     vertex  3.335589e+02  1.788000e+02 -1.008262e+01
     vertex  3.336948e+02  1.788000e+02 -1.103728e+01
   endloop
 endfacet
 facet normal -9.274921e-01  4.030590e-10 -3.738428e-01
   outer loop
     vertex  3.336948e+02  1.635669e+02 -1.103728e+01
     vertex  3.336948e+02  1.788000e+02 -1.103728e+01
     vertex  3.340553e+02  1.788000e+02 -1.193166e+01
   endloop
 endfacet
 facet normal -9.274921e-01  4.030541e-10 -3.738428e-01
   outer loop
     vertex  3.340553e+02  1.635669e+02 -1.193166e+01
     vertex  3.336948e+02  1.635669e+02 -1.103728e+01
     vertex  3.340553e+02  1.788000e+02 -1.193166e+01
   endloop
 endfacet
 facet normal -8.110744e-01  3.524602e-10 -5.849430e-01
   outer loop
     vertex  3.340553e+02  1.635669e+02 -1.193166e+01
     vertex  3.340553e+02  1.788000e+02 -1.193166e+01
     vertex  3.346194e+02  1.788000e+02 -1.271377e+01
   endloop
 endfacet
 facet normal -8.110744e-01  3.524591e-10 -5.849430e-01
   outer loop
     vertex  3.346194e+02  1.635669e+02 -1.271377e+01
     vertex  3.340553e+02  1.635669e+02 -1.193166e+01
     vertex  3.346194e+02  1.788000e+02 -1.271377e+01
   endloop
 endfacet
 facet normal -6.475200e-01  2.813812e-10 -7.620485e-01
   outer loop
     vertex  3.353542e+02  1.635669e+02 -1.333817e+01
     vertex  3.346194e+02  1.635669e+02 -1.271377e+01
     vertex  3.346194e+02  1.788000e+02 -1.271377e+01
   endloop
 endfacet
 facet normal -6.475200e-01  2.813788e-10 -7.620485e-01
   outer loop
     vertex  3.353542e+02  1.635669e+02 -1.333817e+01
     vertex  3.346194e+02  1.788000e+02 -1.271377e+01
     vertex  3.353542e+02  1.788000e+02 -1.333817e+01
   endloop
 endfacet
 facet normal -4.463341e-01  1.939488e-10 -8.948664e-01
   outer loop
     vertex  3.353542e+02  1.635669e+02 -1.333817e+01
     vertex  3.353542e+02  1.788000e+02 -1.333817e+01
     vertex  3.362171e+02  1.788000e+02 -1.376857e+01
   endloop
 endfacet
 facet normal -2.192089e-01  9.524983e-11 -9.756779e-01
   outer loop
     vertex  3.362171e+02  1.635669e+02 -1.376857e+01
     vertex  3.362171e+02  1.788000e+02 -1.376857e+01
     vertex  3.371580e+02  1.788000e+02 -1.397995e+01
   endloop
 endfacet
 facet normal -4.463341e-01  1.939521e-10 -8.948664e-01
   outer loop
     vertex  3.362171e+02  1.635669e+02 -1.376857e+01
     vertex  3.353542e+02  1.635669e+02 -1.333817e+01
     vertex  3.362171e+02  1.788000e+02 -1.376857e+01
   endloop
 endfacet
 facet normal  2.065591e-02 -8.990041e-12 -9.997866e-01
   outer loop
     vertex  3.371580e+02  1.635669e+02 -1.397995e+01
     vertex  3.371580e+02  1.788000e+02 -1.397995e+01
     vertex  3.381221e+02  1.788000e+02 -1.396003e+01
   endloop
 endfacet
 facet normal -2.192089e-01  9.524789e-11 -9.756779e-01
   outer loop
     vertex  3.371580e+02  1.635669e+02 -1.397995e+01
     vertex  3.362171e+02  1.635669e+02 -1.376857e+01
     vertex  3.371580e+02  1.788000e+02 -1.397995e+01
   endloop
 endfacet
 facet normal  2.065591e-02 -8.987982e-12 -9.997866e-01
   outer loop
     vertex  3.381221e+02  1.635669e+02 -1.396003e+01
     vertex  3.371580e+02  1.635669e+02 -1.397995e+01
     vertex  3.381221e+02  1.788000e+02 -1.396003e+01
   endloop
 endfacet
 facet normal  2.593203e-01 -1.127055e-10 -9.657914e-01
   outer loop
     vertex  3.390534e+02  1.635669e+02 -1.370997e+01
     vertex  3.381221e+02  1.788000e+02 -1.396003e+01
     vertex  3.390534e+02  1.788000e+02 -1.370997e+01
   endloop
 endfacet
 facet normal  2.593203e-01 -1.127026e-10 -9.657914e-01
   outer loop
     vertex  3.390534e+02  1.635669e+02 -1.370997e+01
     vertex  3.381221e+02  1.635669e+02 -1.396003e+01
     vertex  3.381221e+02  1.788000e+02 -1.396003e+01
   endloop
 endfacet
 facet normal  4.829139e-01 -2.098693e-10 -8.756678e-01
   outer loop
     vertex  3.398978e+02  1.635669e+02 -1.324430e+01
     vertex  3.390534e+02  1.788000e+02 -1.370997e+01
     vertex  3.398978e+02  1.788000e+02 -1.324430e+01
   endloop
 endfacet
 facet normal  4.829139e-01 -2.098709e-10 -8.756678e-01
   outer loop
     vertex  3.398978e+02  1.635669e+02 -1.324430e+01
     vertex  3.390534e+02  1.635669e+02 -1.370997e+01
     vertex  3.390534e+02  1.788000e+02 -1.370997e+01
   endloop
 endfacet
 facet normal  6.784423e-01 -2.948430e-10 -7.346536e-01
   outer loop
     vertex  3.406062e+02  1.635669e+02 -1.259008e+01
     vertex  3.398978e+02  1.788000e+02 -1.324430e+01
     vertex  3.406062e+02  1.788000e+02 -1.259008e+01
   endloop
 endfacet
 facet normal  8.345422e-01 -3.626780e-10 -5.509441e-01
   outer loop
     vertex  3.406062e+02  1.635669e+02 -1.259008e+01
     vertex  3.406062e+02  1.788000e+02 -1.259008e+01
     vertex  3.411375e+02  1.788000e+02 -1.178534e+01
   endloop
 endfacet
 facet normal  6.784423e-01 -2.948391e-10 -7.346536e-01
   outer loop
     vertex  3.406062e+02  1.635669e+02 -1.259008e+01
     vertex  3.398978e+02  1.635669e+02 -1.324430e+01
     vertex  3.398978e+02  1.788000e+02 -1.324430e+01
   endloop
 endfacet
 facet normal  8.345422e-01 -3.626739e-10 -5.509441e-01
   outer loop
     vertex  3.411375e+02  1.635669e+02 -1.178534e+01
     vertex  3.406062e+02  1.635669e+02 -1.259008e+01
     vertex  3.411375e+02  1.788000e+02 -1.178534e+01
   endloop
 endfacet
 facet normal  9.421414e-01 -4.094279e-10 -3.352156e-01
   outer loop
     vertex  3.414607e+02  1.635669e+02 -1.087684e+01
     vertex  3.411375e+02  1.788000e+02 -1.178534e+01
     vertex  3.414607e+02  1.788000e+02 -1.087684e+01
   endloop
 endfacet
 facet normal  9.421414e-01 -4.094314e-10 -3.352156e-01
   outer loop
     vertex  3.414607e+02  1.635669e+02 -1.087684e+01
     vertex  3.411375e+02  1.635669e+02 -1.178534e+01
     vertex  3.411375e+02  1.788000e+02 -1.178534e+01
   endloop
 endfacet
 facet normal  9.949869e-01 -4.323981e-10 -1.000057e-01
   outer loop
     vertex  3.415571e+02  1.635669e+02 -9.917376e+00
     vertex  3.414607e+02  1.788000e+02 -1.087684e+01
     vertex  3.415571e+02  1.788000e+02 -9.917376e+00
   endloop
 endfacet
 facet normal  9.949869e-01 -4.323905e-10 -1.000057e-01
   outer loop
     vertex  3.415571e+02  1.635669e+02 -9.917376e+00
     vertex  3.414607e+02  1.635669e+02 -1.087684e+01
     vertex  3.414607e+02  1.788000e+02 -1.087684e+01
   endloop
 endfacet
 facet normal -4.343980e-10 -1.000000e+00 -2.352972e-14
   outer loop
     vertex  3.407905e+02  1.628000e+02 -9.933216e+00
     vertex  3.404513e+02  1.628000e+02 -1.144308e+01
     vertex  3.407125e+02  1.628000e+02 -1.070874e+01
   endloop
 endfacet
 facet normal -4.345082e-10 -1.000000e+00  8.368449e-14
   outer loop
     vertex  3.393393e+02  1.628000e+02 -7.301769e+00
     vertex  3.403892e+02  1.628000e+02 -8.438649e+00
     vertex  3.399333e+02  1.628000e+02 -7.806469e+00
   endloop
 endfacet
 facet normal -4.346451e-10 -1.000000e+00 -4.277889e-14
   outer loop
     vertex  3.393393e+02  1.628000e+02 -7.301769e+00
     vertex  3.406806e+02  1.628000e+02 -9.161569e+00
     vertex  3.403892e+02  1.628000e+02 -8.438649e+00
   endloop
 endfacet
 facet normal -4.345629e-10 -1.000000e+00  1.653156e-14
   outer loop
     vertex  3.393393e+02  1.628000e+02 -7.301769e+00
     vertex  3.407905e+02  1.628000e+02 -9.933216e+00
     vertex  3.406806e+02  1.628000e+02 -9.161569e+00
   endloop
 endfacet
 facet normal -4.345872e-10 -1.000000e+00  8.897257e-15
   outer loop
     vertex  3.393393e+02  1.628000e+02 -7.301769e+00
     vertex  3.400218e+02  1.628000e+02 -1.209355e+01
     vertex  3.404513e+02  1.628000e+02 -1.144308e+01
   endloop
 endfacet
 facet normal -4.345650e-10 -1.000000e+00  1.206070e-14
   outer loop
     vertex  3.393393e+02  1.628000e+02 -7.301769e+00
     vertex  3.394492e+02  1.628000e+02 -1.262236e+01
     vertex  3.400218e+02  1.628000e+02 -1.209355e+01
   endloop
 endfacet
 facet normal -4.345667e-10 -1.000000e+00  1.438803e-14
   outer loop
     vertex  3.393393e+02  1.628000e+02 -7.301769e+00
     vertex  3.404513e+02  1.628000e+02 -1.144308e+01
     vertex  3.407905e+02  1.628000e+02 -9.933216e+00
   endloop
 endfacet
 facet normal -4.345786e-10 -1.000000e+00  6.578441e-15
   outer loop
     vertex  3.386418e+02  1.628000e+02 -6.953880e+00
     vertex  3.387667e+02  1.628000e+02 -1.299876e+01
     vertex  3.394492e+02  1.628000e+02 -1.262236e+01
   endloop
 endfacet
 facet normal -4.345359e-10 -1.000000e+00  1.266050e-14
   outer loop
     vertex  3.386418e+02  1.628000e+02 -6.953880e+00
     vertex  3.394492e+02  1.628000e+02 -1.262236e+01
     vertex  3.393393e+02  1.628000e+02 -7.301769e+00
   endloop
 endfacet
 facet normal -4.345742e-10 -1.000000e+00  7.054655e-15
   outer loop
     vertex  3.378813e+02  1.628000e+02 -6.783021e+00
     vertex  3.380139e+02  1.628000e+02 -1.320088e+01
     vertex  3.387667e+02  1.628000e+02 -1.299876e+01
   endloop
 endfacet
 facet normal -4.345774e-10 -1.000000e+00  6.604276e-15
   outer loop
     vertex  3.378813e+02  1.628000e+02 -6.783021e+00
     vertex  3.387667e+02  1.628000e+02 -1.299876e+01
     vertex  3.386418e+02  1.628000e+02 -6.953880e+00
   endloop
 endfacet
 facet normal -4.345673e-10 -1.000000e+00  1.162660e-14
   outer loop
     vertex  3.371021e+02  1.628000e+02 -6.799121e+00
     vertex  3.372347e+02  1.628000e+02 -1.321698e+01
     vertex  3.380139e+02  1.628000e+02 -1.320088e+01
   endloop
 endfacet
 facet normal -4.346037e-10 -1.000000e+00  6.446744e-15
   outer loop
     vertex  3.371021e+02  1.628000e+02 -6.799121e+00
     vertex  3.380139e+02  1.628000e+02 -1.320088e+01
     vertex  3.378813e+02  1.628000e+02 -6.783021e+00
   endloop
 endfacet
 facet normal -4.343571e-10 -1.000000e+00  9.008806e-15
   outer loop
     vertex  3.344035e+02  1.628000e+02 -9.291256e+00
     vertex  3.343255e+02  1.628000e+02 -1.006678e+01
     vertex  3.344354e+02  1.628000e+02 -1.083843e+01
   endloop
 endfacet
 facet normal -4.344822e-10 -1.000000e+00  6.424676e-15
   outer loop
     vertex  3.346647e+02  1.628000e+02 -8.556918e+00
     vertex  3.344035e+02  1.628000e+02 -9.291256e+00
     vertex  3.344354e+02  1.628000e+02 -1.083843e+01
   endloop
 endfacet
 facet normal -4.344962e-10 -1.000000e+00 -1.428915e-13
   outer loop
     vertex  3.356668e+02  1.628000e+02 -7.377644e+00
     vertex  3.371021e+02  1.628000e+02 -6.799121e+00
     vertex  3.363493e+02  1.628000e+02 -7.001244e+00
   endloop
 endfacet
 facet normal -4.345774e-10 -1.000000e+00  6.761591e-15
   outer loop
     vertex  3.356668e+02  1.628000e+02 -7.377644e+00
     vertex  3.364742e+02  1.628000e+02 -1.304612e+01
     vertex  3.372347e+02  1.628000e+02 -1.321698e+01
   endloop
 endfacet
 facet normal -4.345359e-10 -1.000000e+00  1.266050e-14
   outer loop
     vertex  3.356668e+02  1.628000e+02 -7.377644e+00
     vertex  3.357767e+02  1.628000e+02 -1.269823e+01
     vertex  3.364742e+02  1.628000e+02 -1.304612e+01
   endloop
 endfacet
 facet normal -4.345586e-10 -1.000000e+00  1.180680e-14
   outer loop
     vertex  3.356668e+02  1.628000e+02 -7.377644e+00
     vertex  3.372347e+02  1.628000e+02 -1.321698e+01
     vertex  3.371021e+02  1.628000e+02 -6.799121e+00
   endloop
 endfacet
 facet normal -4.345696e-10 -1.000000e+00  1.140763e-14
   outer loop
     vertex  3.350942e+02  1.628000e+02 -7.906446e+00
     vertex  3.351827e+02  1.628000e+02 -1.219353e+01
     vertex  3.357767e+02  1.628000e+02 -1.269823e+01
   endloop
 endfacet
 facet normal -4.346095e-10 -1.000000e+00  1.058228e-14
   outer loop
     vertex  3.350942e+02  1.628000e+02 -7.906446e+00
     vertex  3.347268e+02  1.628000e+02 -1.156135e+01
     vertex  3.351827e+02  1.628000e+02 -1.219353e+01
   endloop
 endfacet
 facet normal -4.346101e-10 -1.000000e+00  1.064109e-14
   outer loop
     vertex  3.350942e+02  1.628000e+02 -7.906446e+00
     vertex  3.344354e+02  1.628000e+02 -1.083843e+01
     vertex  3.347268e+02  1.628000e+02 -1.156135e+01
   endloop
 endfacet
 facet normal -4.346797e-10 -1.000000e+00  2.627982e-14
   outer loop
     vertex  3.350942e+02  1.628000e+02 -7.906446e+00
     vertex  3.346647e+02  1.628000e+02 -8.556918e+00
     vertex  3.344354e+02  1.628000e+02 -1.083843e+01
   endloop
 endfacet
 facet normal -4.345650e-10 -1.000000e+00  1.206070e-14
   outer loop
     vertex  3.350942e+02  1.628000e+02 -7.906446e+00
     vertex  3.357767e+02  1.628000e+02 -1.269823e+01
     vertex  3.356668e+02  1.628000e+02 -7.377644e+00
   endloop
 endfacet
 facet normal -4.795572e-01  7.985511e-01 -3.637872e-01
   outer loop
     vertex  3.329332e+02  1.839577e+02 -1.491216e+01
     vertex  3.319972e+02  1.841001e+02 -1.336558e+01
     vertex  3.328184e+02  1.841001e+02 -1.444820e+01
   endloop
 endfacet
 facet normal -2.996677e-01  8.887142e-01 -3.469673e-01
   outer loop
     vertex  3.338468e+02  1.841001e+02 -1.533641e+01
     vertex  3.329332e+02  1.839577e+02 -1.491216e+01
     vertex  3.328184e+02  1.841001e+02 -1.444820e+01
   endloop
 endfacet
 facet normal -2.347412e-01  8.733963e-01 -4.267029e-01
   outer loop
     vertex  3.339403e+02  1.835195e+02 -1.657613e+01
     vertex  3.338468e+02  1.841001e+02 -1.533641e+01
     vertex  3.350374e+02  1.841001e+02 -1.599139e+01
   endloop
 endfacet
 facet normal -3.273224e-01  8.460131e-01 -4.208586e-01
   outer loop
     vertex  3.339403e+02  1.835195e+02 -1.657613e+01
     vertex  3.329332e+02  1.839577e+02 -1.491216e+01
     vertex  3.338468e+02  1.841001e+02 -1.533641e+01
   endloop
 endfacet
 facet normal -1.802422e-01  8.460131e-01 -5.017715e-01
   outer loop
     vertex  3.358849e+02  1.839577e+02 -1.653595e+01
     vertex  3.339403e+02  1.835195e+02 -1.657613e+01
     vertex  3.350374e+02  1.841001e+02 -1.599139e+01
   endloop
 endfacet
 facet normal -1.326358e-01  8.887142e-01 -4.388563e-01
   outer loop
     vertex  3.363382e+02  1.841001e+02 -1.638452e+01
     vertex  3.358849e+02  1.839577e+02 -1.653595e+01
     vertex  3.350374e+02  1.841001e+02 -1.599139e+01
   endloop
 endfacet
 facet normal -5.053984e-02  7.985511e-01 -5.998016e-01
   outer loop
     vertex  3.376923e+02  1.841001e+02 -1.649861e+01
     vertex  3.358849e+02  1.839577e+02 -1.653595e+01
     vertex  3.363382e+02  1.841001e+02 -1.638452e+01
   endloop
 endfacet
 facet normal  7.527033e-02  7.985511e-01 -5.972023e-01
   outer loop
     vertex  3.394997e+02  1.839577e+02 -1.646127e+01
     vertex  3.376923e+02  1.841001e+02 -1.649861e+01
     vertex  3.390405e+02  1.841001e+02 -1.632869e+01
   endloop
 endfacet
 facet normal  1.506487e-01  8.887142e-01 -4.330035e-01
   outer loop
     vertex  3.403239e+02  1.841001e+02 -1.588217e+01
     vertex  3.394997e+02  1.839577e+02 -1.646127e+01
     vertex  3.390405e+02  1.841001e+02 -1.632869e+01
   endloop
 endfacet
 facet normal  2.521650e-01  8.733963e-01 -4.166433e-01
   outer loop
     vertex  3.414442e+02  1.835195e+02 -1.642110e+01
     vertex  3.403239e+02  1.841001e+02 -1.588217e+01
     vertex  3.414864e+02  1.841001e+02 -1.517857e+01
   endloop
 endfacet
 facet normal  2.008130e-01  8.460131e-01 -4.938988e-01
   outer loop
     vertex  3.414442e+02  1.835195e+02 -1.642110e+01
     vertex  3.394997e+02  1.839577e+02 -1.646127e+01
     vertex  3.403239e+02  1.841001e+02 -1.588217e+01
   endloop
 endfacet
 facet normal  3.444258e-01  8.460131e-01 -4.069801e-01
   outer loop
     vertex  3.423817e+02  1.839577e+02 -1.471695e+01
     vertex  3.414442e+02  1.835195e+02 -1.642110e+01
     vertex  3.414864e+02  1.841001e+02 -1.517857e+01
   endloop
 endfacet
 facet normal  3.137428e-01  8.887142e-01 -3.342941e-01
   outer loop
     vertex  3.424773e+02  1.841001e+02 -1.424864e+01
     vertex  3.423817e+02  1.839577e+02 -1.471695e+01
     vertex  3.414864e+02  1.841001e+02 -1.517857e+01
   endloop
 endfacet
 facet normal  4.941735e-01  7.985511e-01 -3.436696e-01
   outer loop
     vertex  3.432531e+02  1.841001e+02 -1.313303e+01
     vertex  3.423817e+02  1.839577e+02 -1.471695e+01
     vertex  3.424773e+02  1.841001e+02 -1.424864e+01
   endloop
 endfacet
 facet normal -5.548275e-01  7.985511e-01  2.334151e-01
   outer loop
     vertex  3.309915e+02  1.839577e+02 -8.450884e+00
     vertex  3.318629e+02  1.841001e+02 -6.866969e+00
     vertex  3.313360e+02  1.841001e+02 -8.119510e+00
   endloop
 endfacet
 facet normal -4.503164e-01  8.887142e-01  8.603619e-02
   outer loop
     vertex  3.310810e+02  1.841001e+02 -9.454238e+00
     vertex  3.309915e+02  1.839577e+02 -8.450884e+00
     vertex  3.313360e+02  1.841001e+02 -8.119510e+00
   endloop
 endfacet
 facet normal -4.869062e-01  8.733963e-01 -1.005964e-02
   outer loop
     vertex  3.300540e+02  1.835195e+02 -1.015503e+01
     vertex  3.310810e+02  1.841001e+02 -9.454238e+00
     vertex  3.311090e+02  1.841001e+02 -1.081282e+01
   endloop
 endfacet
 facet normal -5.281354e-01  8.460131e-01  7.304023e-02
   outer loop
     vertex  3.300540e+02  1.835195e+02 -1.015503e+01
     vertex  3.309915e+02  1.839577e+02 -8.450884e+00
     vertex  3.310810e+02  1.841001e+02 -9.454238e+00
   endloop
 endfacet
 facet normal -5.246680e-01  8.460131e-01 -9.479148e-02
   outer loop
     vertex  3.310611e+02  1.839577e+02 -1.181901e+01
     vertex  3.300540e+02  1.835195e+02 -1.015503e+01
     vertex  3.311090e+02  1.841001e+02 -1.081282e+01
   endloop
 endfacet
 facet normal -4.463785e-01  8.887142e-01 -1.045622e-01
   outer loop
     vertex  3.314189e+02  1.841001e+02 -1.213587e+01
     vertex  3.310611e+02  1.839577e+02 -1.181901e+01
     vertex  3.311090e+02  1.841001e+02 -1.081282e+01
   endloop
 endfacet
 facet normal -5.447133e-01  7.985511e-01 -2.561320e-01
   outer loop
     vertex  3.319972e+02  1.841001e+02 -1.336558e+01
     vertex  3.310611e+02  1.839577e+02 -1.181901e+01
     vertex  3.314189e+02  1.841001e+02 -1.213587e+01
   endloop
 endfacet
 facet normal  5.548275e-01  7.985511e-01 -2.334151e-01
   outer loop
     vertex  3.441245e+02  1.839577e+02 -1.154912e+01
     vertex  3.432531e+02  1.841001e+02 -1.313303e+01
     vertex  3.437800e+02  1.841001e+02 -1.188049e+01
   endloop
 endfacet
 facet normal  4.503164e-01  8.887142e-01 -8.603619e-02
   outer loop
     vertex  3.440350e+02  1.841001e+02 -1.054576e+01
     vertex  3.441245e+02  1.839577e+02 -1.154912e+01
     vertex  3.437800e+02  1.841001e+02 -1.188049e+01
   endloop
 endfacet
 facet normal  4.869062e-01  8.733963e-01  1.005964e-02
   outer loop
     vertex  3.450620e+02  1.835195e+02 -9.844966e+00
     vertex  3.440350e+02  1.841001e+02 -1.054576e+01
     vertex  3.440070e+02  1.841001e+02 -9.187182e+00
   endloop
 endfacet
 facet normal  5.281354e-01  8.460131e-01 -7.304023e-02
   outer loop
     vertex  3.450620e+02  1.835195e+02 -9.844966e+00
     vertex  3.441245e+02  1.839577e+02 -1.154912e+01
     vertex  3.440350e+02  1.841001e+02 -1.054576e+01
   endloop
 endfacet
 facet normal  5.246680e-01  8.460131e-01  9.479148e-02
   outer loop
     vertex  3.440549e+02  1.839577e+02 -8.180992e+00
     vertex  3.450620e+02  1.835195e+02 -9.844966e+00
     vertex  3.440070e+02  1.841001e+02 -9.187182e+00
   endloop
 endfacet
 facet normal  4.463785e-01  8.887142e-01  1.045622e-01
   outer loop
     vertex  3.436971e+02  1.841001e+02 -7.864126e+00
     vertex  3.440549e+02  1.839577e+02 -8.180992e+00
     vertex  3.440070e+02  1.841001e+02 -9.187182e+00
   endloop
 endfacet
 facet normal  5.447133e-01  7.985511e-01  2.561320e-01
   outer loop
     vertex  3.431188e+02  1.841001e+02 -6.634418e+00
     vertex  3.440549e+02  1.839577e+02 -8.180992e+00
     vertex  3.436971e+02  1.841001e+02 -7.864126e+00
   endloop
 endfacet
 facet normal -7.527033e-02  7.985511e-01  5.972023e-01
   outer loop
     vertex  3.356163e+02  1.839577e+02 -3.538728e+00
     vertex  3.374237e+02  1.841001e+02 -3.501387e+00
     vertex  3.360755e+02  1.841001e+02 -3.671312e+00
   endloop
 endfacet
 facet normal -1.506487e-01  8.887142e-01  4.330035e-01
   outer loop
     vertex  3.347921e+02  1.841001e+02 -4.117831e+00
     vertex  3.356163e+02  1.839577e+02 -3.538728e+00
     vertex  3.360755e+02  1.841001e+02 -3.671312e+00
   endloop
 endfacet
 facet normal -2.521650e-01  8.733963e-01  4.166433e-01
   outer loop
     vertex  3.336718e+02  1.835195e+02 -3.578904e+00
     vertex  3.347921e+02  1.841001e+02 -4.117831e+00
     vertex  3.336296e+02  1.841001e+02 -4.821430e+00
   endloop
 endfacet
 facet normal -2.008130e-01  8.460131e-01  4.938988e-01
   outer loop
     vertex  3.336718e+02  1.835195e+02 -3.578904e+00
     vertex  3.356163e+02  1.839577e+02 -3.538728e+00
     vertex  3.347921e+02  1.841001e+02 -4.117831e+00
   endloop
 endfacet
 facet normal -3.444258e-01  8.460131e-01  4.069801e-01
   outer loop
     vertex  3.327343e+02  1.839577e+02 -5.283054e+00
     vertex  3.336718e+02  1.835195e+02 -3.578904e+00
     vertex  3.336296e+02  1.841001e+02 -4.821430e+00
   endloop
 endfacet
 facet normal -3.137428e-01  8.887142e-01  3.342941e-01
   outer loop
     vertex  3.326387e+02  1.841001e+02 -5.751356e+00
     vertex  3.327343e+02  1.839577e+02 -5.283054e+00
     vertex  3.336296e+02  1.841001e+02 -4.821430e+00
   endloop
 endfacet
 facet normal -4.941735e-01  7.985511e-01  3.436696e-01
   outer loop
     vertex  3.318629e+02  1.841001e+02 -6.866969e+00
     vertex  3.327343e+02  1.839577e+02 -5.283054e+00
     vertex  3.326387e+02  1.841001e+02 -5.751356e+00
   endloop
 endfacet
 facet normal  4.795572e-01  7.985511e-01  3.637872e-01
   outer loop
     vertex  3.421828e+02  1.839577e+02 -5.087844e+00
     vertex  3.431188e+02  1.841001e+02 -6.634418e+00
     vertex  3.422976e+02  1.841001e+02 -5.551802e+00
   endloop
 endfacet
 facet normal  2.996677e-01  8.887142e-01  3.469673e-01
   outer loop
     vertex  3.412692e+02  1.841001e+02 -4.663593e+00
     vertex  3.421828e+02  1.839577e+02 -5.087844e+00
     vertex  3.422976e+02  1.841001e+02 -5.551802e+00
   endloop
 endfacet
 facet normal  2.347412e-01  8.733963e-01  4.267029e-01
   outer loop
     vertex  3.411757e+02  1.835195e+02 -3.423870e+00
     vertex  3.412692e+02  1.841001e+02 -4.663593e+00
     vertex  3.400786e+02  1.841001e+02 -4.008612e+00
   endloop
 endfacet
 facet normal  3.273224e-01  8.460131e-01  4.208586e-01
   outer loop
     vertex  3.411757e+02  1.835195e+02 -3.423870e+00
     vertex  3.421828e+02  1.839577e+02 -5.087844e+00
     vertex  3.412692e+02  1.841001e+02 -4.663593e+00
   endloop
 endfacet
 facet normal  1.802422e-01  8.460131e-01  5.017715e-01
   outer loop
     vertex  3.392311e+02  1.839577e+02 -3.464046e+00
     vertex  3.411757e+02  1.835195e+02 -3.423870e+00
     vertex  3.400786e+02  1.841001e+02 -4.008612e+00
   endloop
 endfacet
 facet normal  1.326358e-01  8.887142e-01  4.388563e-01
   outer loop
     vertex  3.387778e+02  1.841001e+02 -3.615482e+00
     vertex  3.392311e+02  1.839577e+02 -3.464046e+00
     vertex  3.400786e+02  1.841001e+02 -4.008612e+00
   endloop
 endfacet
 facet normal  5.053985e-02  7.985511e-01  5.998016e-01
   outer loop
     vertex  3.374237e+02  1.841001e+02 -3.501387e+00
     vertex  3.392311e+02  1.839577e+02 -3.464046e+00
     vertex  3.387778e+02  1.841001e+02 -3.615482e+00
   endloop
 endfacet
 facet normal -2.065591e-02  8.987995e-12  9.997866e-01
   outer loop
     vertex  3.392311e+02  1.839577e+02 -3.464046e+00
     vertex  3.411757e+02  1.794001e+02 -3.423870e+00
     vertex  3.411757e+02  1.835195e+02 -3.423870e+00
   endloop
 endfacet
 facet normal -2.065591e-02  8.988047e-12  9.997866e-01
   outer loop
     vertex  3.374237e+02  1.841001e+02 -3.501387e+00
     vertex  3.336718e+02  1.794001e+02 -3.578904e+00
     vertex  3.411757e+02  1.794001e+02 -3.423870e+00
   endloop
 endfacet
 facet normal -2.065591e-02  8.988172e-12  9.997866e-01
   outer loop
     vertex  3.374237e+02  1.841001e+02 -3.501387e+00
     vertex  3.411757e+02  1.794001e+02 -3.423870e+00
     vertex  3.392311e+02  1.839577e+02 -3.464046e+00
   endloop
 endfacet
 facet normal -2.065591e-02  8.974753e-12  9.997866e-01
   outer loop
     vertex  3.356163e+02  1.839577e+02 -3.538728e+00
     vertex  3.336718e+02  1.794001e+02 -3.578904e+00
     vertex  3.374237e+02  1.841001e+02 -3.501387e+00
   endloop
 endfacet
 facet normal -2.065591e-02  8.988135e-12  9.997866e-01
   outer loop
     vertex  3.336718e+02  1.835195e+02 -3.578904e+00
     vertex  3.336718e+02  1.794001e+02 -3.578904e+00
     vertex  3.356163e+02  1.839577e+02 -3.538728e+00
   endloop
 endfacet
 facet normal -8.761686e-01  3.807826e-10  4.820048e-01
   outer loop
     vertex  3.336718e+02  1.794001e+02 -3.578904e+00
     vertex  3.336718e+02  1.835195e+02 -3.578904e+00
     vertex  3.327343e+02  1.839577e+02 -5.283054e+00
   endloop
 endfacet
 facet normal -8.761686e-01  3.807654e-10  4.820048e-01
   outer loop
     vertex  3.336718e+02  1.794001e+02 -3.578904e+00
     vertex  3.327343e+02  1.839577e+02 -5.283054e+00
     vertex  3.318629e+02  1.841001e+02 -6.866969e+00
   endloop
 endfacet
 facet normal -8.761686e-01  3.807633e-10  4.820048e-01
   outer loop
     vertex  3.300540e+02  1.794001e+02 -1.015503e+01
     vertex  3.318629e+02  1.841001e+02 -6.866969e+00
     vertex  3.309915e+02  1.839577e+02 -8.450884e+00
   endloop
 endfacet
 facet normal -8.761686e-01  3.807672e-10  4.820048e-01
   outer loop
     vertex  3.300540e+02  1.794001e+02 -1.015503e+01
     vertex  3.309915e+02  1.839577e+02 -8.450884e+00
     vertex  3.300540e+02  1.835195e+02 -1.015503e+01
   endloop
 endfacet
 facet normal -8.761686e-01  3.807627e-10  4.820048e-01
   outer loop
     vertex  3.300540e+02  1.794001e+02 -1.015503e+01
     vertex  3.336718e+02  1.794001e+02 -3.578904e+00
     vertex  3.318629e+02  1.841001e+02 -6.866969e+00
   endloop
 endfacet
 facet normal -8.555127e-01  3.717997e-10 -5.177819e-01
   outer loop
     vertex  3.339403e+02  1.794001e+02 -1.657613e+01
     vertex  3.319972e+02  1.841001e+02 -1.336558e+01
     vertex  3.329332e+02  1.839577e+02 -1.491216e+01
   endloop
 endfacet
 facet normal -8.555127e-01  3.717822e-10 -5.177819e-01
   outer loop
     vertex  3.339403e+02  1.794001e+02 -1.657613e+01
     vertex  3.329332e+02  1.839577e+02 -1.491216e+01
     vertex  3.339403e+02  1.835195e+02 -1.657613e+01
   endloop
 endfacet
 facet normal -8.555127e-01  3.717862e-10 -5.177819e-01
   outer loop
     vertex  3.300540e+02  1.794001e+02 -1.015503e+01
     vertex  3.300540e+02  1.835195e+02 -1.015503e+01
     vertex  3.310611e+02  1.839577e+02 -1.181901e+01
   endloop
 endfacet
 facet normal -8.555127e-01  3.717404e-10 -5.177819e-01
   outer loop
     vertex  3.300540e+02  1.794001e+02 -1.015503e+01
     vertex  3.310611e+02  1.839577e+02 -1.181901e+01
     vertex  3.319972e+02  1.841001e+02 -1.336558e+01
   endloop
 endfacet
 facet normal -8.555127e-01  3.717860e-10 -5.177819e-01
   outer loop
     vertex  3.300540e+02  1.794001e+02 -1.015503e+01
     vertex  3.319972e+02  1.841001e+02 -1.336558e+01
     vertex  3.339403e+02  1.794001e+02 -1.657613e+01
   endloop
 endfacet
 facet normal -4.345928e-10 -1.000000e+00  1.746792e-14
   outer loop
     vertex  3.409594e+02  1.794001e+02 -1.471640e+01
     vertex  3.414442e+02  1.794001e+02 -1.642110e+01
     vertex  3.419893e+02  1.794001e+02 -1.376533e+01
   endloop
 endfacet
 facet normal -4.345405e-10 -1.000000e+00  6.730092e-15
   outer loop
     vertex  3.427616e+02  1.794001e+02 -1.259543e+01
     vertex  3.419893e+02  1.794001e+02 -1.376533e+01
     vertex  3.414442e+02  1.794001e+02 -1.642110e+01
   endloop
 endfacet
 facet normal -4.345872e-10 -1.000000e+00  2.279324e-14
   outer loop
     vertex  3.450620e+02  1.794001e+02 -9.844966e+00
     vertex  3.427616e+02  1.794001e+02 -1.259543e+01
     vertex  3.414442e+02  1.794001e+02 -1.642110e+01
   endloop
 endfacet
 facet normal -4.345556e-10 -1.000000e+00  2.806546e-14
   outer loop
     vertex  3.397319e+02  1.794001e+02 -1.539337e+01
     vertex  3.414442e+02  1.794001e+02 -1.642110e+01
     vertex  3.409594e+02  1.794001e+02 -1.471640e+01
   endloop
 endfacet
 facet normal -4.345569e-10 -1.000000e+00 -2.555160e-15
   outer loop
     vertex  3.432316e+02  1.794001e+02 -1.127470e+01
     vertex  3.427616e+02  1.794001e+02 -1.259543e+01
     vertex  3.450620e+02  1.794001e+02 -9.844966e+00
   endloop
 endfacet
 facet normal -4.345849e-10 -1.000000e+00 -2.082272e-14
   outer loop
     vertex  3.383780e+02  1.794001e+02 -1.575689e+01
     vertex  3.414442e+02  1.794001e+02 -1.642110e+01
     vertex  3.397319e+02  1.794001e+02 -1.539337e+01
   endloop
 endfacet
 facet normal -4.345674e-10 -1.000000e+00  1.088419e-14
   outer loop
     vertex  3.433718e+02  1.794001e+02 -9.879886e+00
     vertex  3.432316e+02  1.794001e+02 -1.127470e+01
     vertex  3.450620e+02  1.794001e+02 -9.844966e+00
   endloop
 endfacet
 facet normal -4.345673e-10 -1.000000e+00  8.997043e-15
   outer loop
     vertex  3.431741e+02  1.794001e+02 -8.492052e+00
     vertex  3.433718e+02  1.794001e+02 -9.879886e+00
     vertex  3.450620e+02  1.794001e+02 -9.844966e+00
   endloop
 endfacet
 facet normal -4.345690e-10 -1.000000e+00  1.070132e-14
   outer loop
     vertex  3.339403e+02  1.794001e+02 -1.657613e+01
     vertex  3.369765e+02  1.794001e+02 -1.578585e+01
     vertex  3.356087e+02  1.794001e+02 -1.547855e+01
   endloop
 endfacet
 facet normal -4.345552e-10 -1.000000e+00 -4.212962e-14
   outer loop
     vertex  3.339403e+02  1.794001e+02 -1.657613e+01
     vertex  3.383780e+02  1.794001e+02 -1.575689e+01
     vertex  3.369765e+02  1.794001e+02 -1.578585e+01
   endloop
 endfacet
 facet normal -4.345710e-10 -1.000000e+00  4.341608e-14
   outer loop
     vertex  3.339403e+02  1.794001e+02 -1.657613e+01
     vertex  3.414442e+02  1.794001e+02 -1.642110e+01
     vertex  3.383780e+02  1.794001e+02 -1.575689e+01
   endloop
 endfacet
 facet normal -4.345322e-10 -1.000000e+00  5.797409e-14
   outer loop
     vertex  3.426500e+02  1.794001e+02 -7.191856e+00
     vertex  3.431741e+02  1.794001e+02 -8.492052e+00
     vertex  3.450620e+02  1.794001e+02 -9.844966e+00
   endloop
 endfacet
 facet normal -4.345691e-10 -1.000000e+00  1.093300e-14
   outer loop
     vertex  3.343543e+02  1.794001e+02 -1.485286e+01
     vertex  3.339403e+02  1.794001e+02 -1.657613e+01
     vertex  3.356087e+02  1.794001e+02 -1.547855e+01
   endloop
 endfacet
 facet normal -4.345855e-10 -1.000000e+00  1.485994e-14
   outer loop
     vertex  3.332860e+02  1.794001e+02 -1.394514e+01
     vertex  3.339403e+02  1.794001e+02 -1.657613e+01
     vertex  3.343543e+02  1.794001e+02 -1.485286e+01
   endloop
 endfacet
 facet normal -4.344870e-10 -1.000000e+00  3.934701e-14
   outer loop
     vertex  3.324660e+02  1.794001e+02 -1.280814e+01
     vertex  3.339403e+02  1.794001e+02 -1.657613e+01
     vertex  3.332860e+02  1.794001e+02 -1.394514e+01
   endloop
 endfacet
 facet normal -4.344870e-10 -1.000000e+00  3.934701e-14
   outer loop
     vertex  3.411757e+02  1.794001e+02 -3.423870e+00
     vertex  3.418300e+02  1.794001e+02 -6.054858e+00
     vertex  3.426500e+02  1.794001e+02 -7.191856e+00
   endloop
 endfacet
 facet normal -4.345855e-10 -1.000000e+00  1.485994e-14
   outer loop
     vertex  3.411757e+02  1.794001e+02 -3.423870e+00
     vertex  3.407617e+02  1.794001e+02 -5.147137e+00
     vertex  3.418300e+02  1.794001e+02 -6.054858e+00
   endloop
 endfacet
 facet normal -4.346024e-10 -1.000000e+00 -5.791576e-15
   outer loop
     vertex  3.411757e+02  1.794001e+02 -3.423870e+00
     vertex  3.426500e+02  1.794001e+02 -7.191856e+00
     vertex  3.450620e+02  1.794001e+02 -9.844966e+00
   endloop
 endfacet
 facet normal -4.345691e-10 -1.000000e+00  1.093300e-14
   outer loop
     vertex  3.395073e+02  1.794001e+02 -4.521448e+00
     vertex  3.407617e+02  1.794001e+02 -5.147137e+00
     vertex  3.411757e+02  1.794001e+02 -3.423870e+00
   endloop
 endfacet
 facet normal -4.345690e-10 -1.000000e+00  1.070132e-14
   outer loop
     vertex  3.381395e+02  1.794001e+02 -4.214151e+00
     vertex  3.395073e+02  1.794001e+02 -4.521448e+00
     vertex  3.411757e+02  1.794001e+02 -3.423870e+00
   endloop
 endfacet
 facet normal -4.345772e-10 -1.000000e+00  4.249694e-14
   outer loop
     vertex  3.367380e+02  1.794001e+02 -4.243108e+00
     vertex  3.381395e+02  1.794001e+02 -4.214151e+00
     vertex  3.411757e+02  1.794001e+02 -3.423870e+00
   endloop
 endfacet
 facet normal -4.345674e-10 -1.000000e+00  1.088419e-14
   outer loop
     vertex  3.300540e+02  1.794001e+02 -1.015503e+01
     vertex  3.317442e+02  1.794001e+02 -1.012011e+01
     vertex  3.318844e+02  1.794001e+02 -8.725300e+00
   endloop
 endfacet
 facet normal -4.345677e-10 -1.000000e+00  2.941615e-14
   outer loop
     vertex  3.300540e+02  1.794001e+02 -1.015503e+01
     vertex  3.319419e+02  1.794001e+02 -1.150795e+01
     vertex  3.317442e+02  1.794001e+02 -1.012011e+01
   endloop
 endfacet
 facet normal -4.345754e-10 -1.000000e+00  1.870282e-14
   outer loop
     vertex  3.300540e+02  1.794001e+02 -1.015503e+01
     vertex  3.324660e+02  1.794001e+02 -1.280814e+01
     vertex  3.319419e+02  1.794001e+02 -1.150795e+01
   endloop
 endfacet
 facet normal -4.346024e-10 -1.000000e+00 -5.791576e-15
   outer loop
     vertex  3.300540e+02  1.794001e+02 -1.015503e+01
     vertex  3.339403e+02  1.794001e+02 -1.657613e+01
     vertex  3.324660e+02  1.794001e+02 -1.280814e+01
   endloop
 endfacet
 facet normal -4.345569e-10 -1.000000e+00 -2.555160e-15
   outer loop
     vertex  3.323544e+02  1.794001e+02 -7.404567e+00
     vertex  3.300540e+02  1.794001e+02 -1.015503e+01
     vertex  3.318844e+02  1.794001e+02 -8.725300e+00
   endloop
 endfacet
 facet normal -4.345610e-10 -1.000000e+00  4.661582e-14
   outer loop
     vertex  3.336718e+02  1.794001e+02 -3.578904e+00
     vertex  3.353841e+02  1.794001e+02 -4.606634e+00
     vertex  3.367380e+02  1.794001e+02 -4.243108e+00
   endloop
 endfacet
 facet normal -4.345877e-10 -1.000000e+00  2.269567e-15
   outer loop
     vertex  3.336718e+02  1.794001e+02 -3.578904e+00
     vertex  3.341566e+02  1.794001e+02 -5.283602e+00
     vertex  3.353841e+02  1.794001e+02 -4.606634e+00
   endloop
 endfacet
 facet normal -4.345588e-10 -1.000000e+00  1.047917e-14
   outer loop
     vertex  3.336718e+02  1.794001e+02 -3.578904e+00
     vertex  3.331267e+02  1.794001e+02 -6.234671e+00
     vertex  3.341566e+02  1.794001e+02 -5.283602e+00
   endloop
 endfacet
 facet normal -4.345405e-10 -1.000000e+00  6.730092e-15
   outer loop
     vertex  3.336718e+02  1.794001e+02 -3.578904e+00
     vertex  3.323544e+02  1.794001e+02 -7.404567e+00
     vertex  3.331267e+02  1.794001e+02 -6.234671e+00
   endloop
 endfacet
 facet normal -4.345702e-10 -1.000000e+00  4.351295e-15
   outer loop
     vertex  3.336718e+02  1.794001e+02 -3.578904e+00
     vertex  3.367380e+02  1.794001e+02 -4.243108e+00
     vertex  3.411757e+02  1.794001e+02 -3.423870e+00
   endloop
 endfacet
 facet normal -4.345872e-10 -1.000000e+00  2.279324e-14
   outer loop
     vertex  3.336718e+02  1.794001e+02 -3.578904e+00
     vertex  3.300540e+02  1.794001e+02 -1.015503e+01
     vertex  3.323544e+02  1.794001e+02 -7.404567e+00
   endloop
 endfacet
 facet normal  2.065591e-02 -8.986994e-12 -9.997866e-01
   outer loop
     vertex  3.414442e+02  1.794001e+02 -1.642110e+01
     vertex  3.376923e+02  1.841001e+02 -1.649861e+01
     vertex  3.394997e+02  1.839577e+02 -1.646127e+01
   endloop
 endfacet
 facet normal  2.065591e-02 -8.994748e-12 -9.997866e-01
   outer loop
     vertex  3.414442e+02  1.794001e+02 -1.642110e+01
     vertex  3.394997e+02  1.839577e+02 -1.646127e+01
     vertex  3.414442e+02  1.835195e+02 -1.642110e+01
   endloop
 endfacet
 facet normal  2.065591e-02 -8.988712e-12 -9.997866e-01
   outer loop
     vertex  3.339403e+02  1.794001e+02 -1.657613e+01
     vertex  3.339403e+02  1.835195e+02 -1.657613e+01
     vertex  3.358849e+02  1.839577e+02 -1.653595e+01
   endloop
 endfacet
 facet normal  2.065591e-02 -8.988566e-12 -9.997866e-01
   outer loop
     vertex  3.339403e+02  1.794001e+02 -1.657613e+01
     vertex  3.358849e+02  1.839577e+02 -1.653595e+01
     vertex  3.376923e+02  1.841001e+02 -1.649861e+01
   endloop
 endfacet
 facet normal  2.065591e-02 -8.993905e-12 -9.997866e-01
   outer loop
     vertex  3.339403e+02  1.794001e+02 -1.657613e+01
     vertex  3.376923e+02  1.841001e+02 -1.649861e+01
     vertex  3.414442e+02  1.794001e+02 -1.642110e+01
   endloop
 endfacet
 facet normal  8.761686e-01 -3.807738e-10 -4.820048e-01
   outer loop
     vertex  3.414442e+02  1.794001e+02 -1.642110e+01
     vertex  3.414442e+02  1.835195e+02 -1.642110e+01
     vertex  3.423817e+02  1.839577e+02 -1.471695e+01
   endloop
 endfacet
 facet normal  8.761686e-01 -3.807574e-10 -4.820048e-01
   outer loop
     vertex  3.414442e+02  1.794001e+02 -1.642110e+01
     vertex  3.423817e+02  1.839577e+02 -1.471695e+01
     vertex  3.432531e+02  1.841001e+02 -1.313303e+01
   endloop
 endfacet
 facet normal  8.761686e-01 -3.807419e-10 -4.820048e-01
   outer loop
     vertex  3.450620e+02  1.794001e+02 -9.844966e+00
     vertex  3.432531e+02  1.841001e+02 -1.313303e+01
     vertex  3.441245e+02  1.839577e+02 -1.154912e+01
   endloop
 endfacet
 facet normal  8.761686e-01 -3.807586e-10 -4.820048e-01
   outer loop
     vertex  3.450620e+02  1.794001e+02 -9.844966e+00
     vertex  3.441245e+02  1.839577e+02 -1.154912e+01
     vertex  3.450620e+02  1.835195e+02 -9.844966e+00
   endloop
 endfacet
 facet normal  8.761686e-01 -3.807707e-10 -4.820048e-01
   outer loop
     vertex  3.450620e+02  1.794001e+02 -9.844966e+00
     vertex  3.414442e+02  1.794001e+02 -1.642110e+01
     vertex  3.432531e+02  1.841001e+02 -1.313303e+01
   endloop
 endfacet
 facet normal  8.555127e-01 -3.717706e-10  5.177819e-01
   outer loop
     vertex  3.440549e+02  1.839577e+02 -8.180992e+00
     vertex  3.450620e+02  1.794001e+02 -9.844966e+00
     vertex  3.450620e+02  1.835195e+02 -9.844966e+00
   endloop
 endfacet
 facet normal  8.555127e-01 -3.717806e-10  5.177819e-01
   outer loop
     vertex  3.431188e+02  1.841001e+02 -6.634418e+00
     vertex  3.411757e+02  1.794001e+02 -3.423870e+00
     vertex  3.450620e+02  1.794001e+02 -9.844966e+00
   endloop
 endfacet
 facet normal  8.555127e-01 -3.717888e-10  5.177819e-01
   outer loop
     vertex  3.431188e+02  1.841001e+02 -6.634418e+00
     vertex  3.450620e+02  1.794001e+02 -9.844966e+00
     vertex  3.440549e+02  1.839577e+02 -8.180992e+00
   endloop
 endfacet
 facet normal  8.555127e-01 -3.717638e-10  5.177819e-01
   outer loop
     vertex  3.421828e+02  1.839577e+02 -5.087844e+00
     vertex  3.411757e+02  1.794001e+02 -3.423870e+00
     vertex  3.431188e+02  1.841001e+02 -6.634418e+00
   endloop
 endfacet
 facet normal  8.555127e-01 -3.717706e-10  5.177819e-01
   outer loop
     vertex  3.411757e+02  1.835195e+02 -3.423870e+00
     vertex  3.411757e+02  1.794001e+02 -3.423870e+00
     vertex  3.421828e+02  1.839577e+02 -5.087844e+00
   endloop
 endfacet
 facet normal  4.345655e-10  1.000000e+00  4.262649e-15
   outer loop
     vertex  3.363382e+02  1.841001e+02 -1.638452e+01
     vertex  3.424773e+02  1.841001e+02 -1.424864e+01
     vertex  3.414864e+02  1.841001e+02 -1.517857e+01
   endloop
 endfacet
 facet normal  4.345824e-10  1.000000e+00 -6.804728e-14
   outer loop
     vertex  3.363382e+02  1.841001e+02 -1.638452e+01
     vertex  3.414864e+02  1.841001e+02 -1.517857e+01
     vertex  3.403239e+02  1.841001e+02 -1.588217e+01
   endloop
 endfacet
 facet normal  4.345694e-10  1.000000e+00  3.512486e-14
   outer loop
     vertex  3.363382e+02  1.841001e+02 -1.638452e+01
     vertex  3.403239e+02  1.841001e+02 -1.588217e+01
     vertex  3.390405e+02  1.841001e+02 -1.632869e+01
   endloop
 endfacet
 facet normal  4.345666e-10  1.000000e+00  1.721961e-13
   outer loop
     vertex  3.363382e+02  1.841001e+02 -1.638452e+01
     vertex  3.390405e+02  1.841001e+02 -1.632869e+01
     vertex  3.376923e+02  1.841001e+02 -1.649861e+01
   endloop
 endfacet
 facet normal  4.346286e-10  1.000000e+00  7.266345e-15
   outer loop
     vertex  3.431188e+02  1.841001e+02 -6.634418e+00
     vertex  3.436971e+02  1.841001e+02 -7.864126e+00
     vertex  3.440070e+02  1.841001e+02 -9.187182e+00
   endloop
 endfacet
 facet normal  4.345648e-10  1.000000e+00 -3.780622e-14
   outer loop
     vertex  3.338468e+02  1.841001e+02 -1.533641e+01
     vertex  3.363382e+02  1.841001e+02 -1.638452e+01
     vertex  3.350374e+02  1.841001e+02 -1.599139e+01
   endloop
 endfacet
 facet normal  4.345740e-10  1.000000e+00 -1.571181e-14
   outer loop
     vertex  3.328184e+02  1.841001e+02 -1.444820e+01
     vertex  3.363382e+02  1.841001e+02 -1.638452e+01
     vertex  3.338468e+02  1.841001e+02 -1.533641e+01
   endloop
 endfacet
 facet normal  4.345663e-10  1.000000e+00 -4.152450e-14
   outer loop
     vertex  3.314189e+02  1.841001e+02 -1.213587e+01
     vertex  3.432531e+02  1.841001e+02 -1.313303e+01
     vertex  3.424773e+02  1.841001e+02 -1.424864e+01
   endloop
 endfacet
 facet normal  4.345699e-10  1.000000e+00 -2.354678e-15
   outer loop
     vertex  3.314189e+02  1.841001e+02 -1.213587e+01
     vertex  3.440350e+02  1.841001e+02 -1.054576e+01
     vertex  3.437800e+02  1.841001e+02 -1.188049e+01
   endloop
 endfacet
 facet normal  4.345698e-10  1.000000e+00  3.946485e-16
   outer loop
     vertex  3.314189e+02  1.841001e+02 -1.213587e+01
     vertex  3.437800e+02  1.841001e+02 -1.188049e+01
     vertex  3.432531e+02  1.841001e+02 -1.313303e+01
   endloop
 endfacet
 facet normal  4.344864e-10  1.000000e+00 -5.960530e-14
   outer loop
     vertex  3.314189e+02  1.841001e+02 -1.213587e+01
     vertex  3.328184e+02  1.841001e+02 -1.444820e+01
     vertex  3.319972e+02  1.841001e+02 -1.336558e+01
   endloop
 endfacet
 facet normal  4.345717e-10  1.000000e+00 -1.347682e-14
   outer loop
     vertex  3.314189e+02  1.841001e+02 -1.213587e+01
     vertex  3.424773e+02  1.841001e+02 -1.424864e+01
     vertex  3.363382e+02  1.841001e+02 -1.638452e+01
   endloop
 endfacet
 facet normal  4.345816e-10  1.000000e+00 -1.952917e-15
   outer loop
     vertex  3.314189e+02  1.841001e+02 -1.213587e+01
     vertex  3.363382e+02  1.841001e+02 -1.638452e+01
     vertex  3.328184e+02  1.841001e+02 -1.444820e+01
   endloop
 endfacet
 facet normal  4.346010e-10  1.000000e+00  8.205829e-14
   outer loop
     vertex  3.374237e+02  1.841001e+02 -3.501387e+00
     vertex  3.387778e+02  1.841001e+02 -3.615482e+00
     vertex  3.400786e+02  1.841001e+02 -4.008612e+00
   endloop
 endfacet
 facet normal  4.345852e-10  1.000000e+00 -6.944892e-16
   outer loop
     vertex  3.374237e+02  1.841001e+02 -3.501387e+00
     vertex  3.400786e+02  1.841001e+02 -4.008612e+00
     vertex  3.412692e+02  1.841001e+02 -4.663593e+00
   endloop
 endfacet
 facet normal  4.345842e-10  1.000000e+00 -3.987776e-15
   outer loop
     vertex  3.374237e+02  1.841001e+02 -3.501387e+00
     vertex  3.412692e+02  1.841001e+02 -4.663593e+00
     vertex  3.422976e+02  1.841001e+02 -5.551802e+00
   endloop
 endfacet
 facet normal  4.345957e-10  1.000000e+00  2.330538e-14
   outer loop
     vertex  3.374237e+02  1.841001e+02 -3.501387e+00
     vertex  3.422976e+02  1.841001e+02 -5.551802e+00
     vertex  3.431188e+02  1.841001e+02 -6.634418e+00
   endloop
 endfacet
 facet normal  4.345701e-10  1.000000e+00 -2.309759e-14
   outer loop
     vertex  3.360755e+02  1.841001e+02 -3.671312e+00
     vertex  3.374237e+02  1.841001e+02 -3.501387e+00
     vertex  3.431188e+02  1.841001e+02 -6.634418e+00
   endloop
 endfacet
 facet normal  4.345742e-10  1.000000e+00 -1.722484e-14
   outer loop
     vertex  3.318629e+02  1.841001e+02 -6.866969e+00
     vertex  3.440070e+02  1.841001e+02 -9.187182e+00
     vertex  3.440350e+02  1.841001e+02 -1.054576e+01
   endloop
 endfacet
 facet normal  4.345187e-10  1.000000e+00 -1.846962e-14
   outer loop
     vertex  3.318629e+02  1.841001e+02 -6.866969e+00
     vertex  3.314189e+02  1.841001e+02 -1.213587e+01
     vertex  3.311090e+02  1.841001e+02 -1.081282e+01
   endloop
 endfacet
 facet normal  4.345182e-10  1.000000e+00 -1.838172e-14
   outer loop
     vertex  3.318629e+02  1.841001e+02 -6.866969e+00
     vertex  3.311090e+02  1.841001e+02 -1.081282e+01
     vertex  3.310810e+02  1.841001e+02 -9.454238e+00
   endloop
 endfacet
 facet normal  4.344769e-10  1.000000e+00 -5.875057e-15
   outer loop
     vertex  3.318629e+02  1.841001e+02 -6.866969e+00
     vertex  3.310810e+02  1.841001e+02 -9.454238e+00
     vertex  3.313360e+02  1.841001e+02 -8.119510e+00
   endloop
 endfacet
 facet normal  4.345725e-10  1.000000e+00 -2.300192e-14
   outer loop
     vertex  3.318629e+02  1.841001e+02 -6.866969e+00
     vertex  3.440350e+02  1.841001e+02 -1.054576e+01
     vertex  3.314189e+02  1.841001e+02 -1.213587e+01
   endloop
 endfacet
 facet normal  4.345754e-10  1.000000e+00 -1.123891e-14
   outer loop
     vertex  3.318629e+02  1.841001e+02 -6.866969e+00
     vertex  3.431188e+02  1.841001e+02 -6.634418e+00
     vertex  3.440070e+02  1.841001e+02 -9.187182e+00
   endloop
 endfacet
 facet normal  4.344990e-10  1.000000e+00  1.101294e-13
   outer loop
     vertex  3.336296e+02  1.841001e+02 -4.821430e+00
     vertex  3.347921e+02  1.841001e+02 -4.117831e+00
     vertex  3.360755e+02  1.841001e+02 -3.671312e+00
   endloop
 endfacet
 facet normal  4.345321e-10  1.000000e+00  3.986173e-14
   outer loop
     vertex  3.326387e+02  1.841001e+02 -5.751356e+00
     vertex  3.336296e+02  1.841001e+02 -4.821430e+00
     vertex  3.360755e+02  1.841001e+02 -3.671312e+00
   endloop
 endfacet
 facet normal  4.345702e-10  1.000000e+00 -2.304078e-14
   outer loop
     vertex  3.326387e+02  1.841001e+02 -5.751356e+00
     vertex  3.360755e+02  1.841001e+02 -3.671312e+00
     vertex  3.431188e+02  1.841001e+02 -6.634418e+00
   endloop
 endfacet
 facet normal  4.345746e-10  1.000000e+00  2.916977e-14
   outer loop
     vertex  3.326387e+02  1.841001e+02 -5.751356e+00
     vertex  3.431188e+02  1.841001e+02 -6.634418e+00
     vertex  3.318629e+02  1.841001e+02 -6.866969e+00
   endloop
 endfacet
 facet normal  9.900073e-01 -4.302458e-10  1.410163e-01
   outer loop
     vertex  3.431741e+02  1.788000e+02 -8.492052e+00
     vertex  3.433718e+02  1.788000e+02 -9.879886e+00
     vertex  3.433718e+02  1.794001e+02 -9.879886e+00
   endloop
 endfacet
 facet normal  9.900073e-01 -4.303400e-10  1.410163e-01
   outer loop
     vertex  3.431741e+02  1.788000e+02 -8.492052e+00
     vertex  3.433718e+02  1.794001e+02 -9.879886e+00
     vertex  3.431741e+02  1.794001e+02 -8.492052e+00
   endloop
 endfacet
 facet normal  9.274921e-01 -4.030746e-10  3.738428e-01
   outer loop
     vertex  3.426500e+02  1.788000e+02 -7.191856e+00
     vertex  3.431741e+02  1.794001e+02 -8.492052e+00
     vertex  3.426500e+02  1.794001e+02 -7.191856e+00
   endloop
 endfacet
 facet normal  9.274921e-01 -4.031636e-10  3.738428e-01
   outer loop
     vertex  3.426500e+02  1.788000e+02 -7.191856e+00
     vertex  3.431741e+02  1.788000e+02 -8.492052e+00
     vertex  3.431741e+02  1.794001e+02 -8.492052e+00
   endloop
 endfacet
 facet normal  8.110744e-01 -3.524781e-10  5.849430e-01
   outer loop
     vertex  3.418300e+02  1.788000e+02 -6.054858e+00
     vertex  3.426500e+02  1.794001e+02 -7.191856e+00
     vertex  3.418300e+02  1.794001e+02 -6.054858e+00
   endloop
 endfacet
 facet normal  8.110744e-01 -3.524780e-10  5.849430e-01
   outer loop
     vertex  3.418300e+02  1.788000e+02 -6.054858e+00
     vertex  3.426500e+02  1.788000e+02 -7.191856e+00
     vertex  3.426500e+02  1.794001e+02 -7.191856e+00
   endloop
 endfacet
 facet normal  6.475200e-01 -2.814593e-10  7.620485e-01
   outer loop
     vertex  3.407617e+02  1.788000e+02 -5.147137e+00
     vertex  3.418300e+02  1.794001e+02 -6.054858e+00
     vertex  3.407617e+02  1.794001e+02 -5.147137e+00
   endloop
 endfacet
 facet normal  6.475200e-01 -2.813968e-10  7.620485e-01
   outer loop
     vertex  3.407617e+02  1.788000e+02 -5.147137e+00
     vertex  3.418300e+02  1.788000e+02 -6.054858e+00
     vertex  3.418300e+02  1.794001e+02 -6.054858e+00
   endloop
 endfacet
 facet normal  4.463341e-01 -1.939196e-10  8.948664e-01
   outer loop
     vertex  3.395073e+02  1.788000e+02 -4.521448e+00
     vertex  3.407617e+02  1.794001e+02 -5.147137e+00
     vertex  3.395073e+02  1.794001e+02 -4.521448e+00
   endloop
 endfacet
 facet normal  4.463341e-01 -1.940055e-10  8.948664e-01
   outer loop
     vertex  3.395073e+02  1.788000e+02 -4.521448e+00
     vertex  3.407617e+02  1.788000e+02 -5.147137e+00
     vertex  3.407617e+02  1.794001e+02 -5.147137e+00
   endloop
 endfacet
 facet normal  2.192089e-01 -9.523050e-11  9.756779e-01
   outer loop
     vertex  3.381395e+02  1.788000e+02 -4.214151e+00
     vertex  3.395073e+02  1.794001e+02 -4.521448e+00
     vertex  3.381395e+02  1.794001e+02 -4.214151e+00
   endloop
 endfacet
 facet normal -2.065591e-02  9.036524e-12  9.997866e-01
   outer loop
     vertex  3.381395e+02  1.788000e+02 -4.214151e+00
     vertex  3.381395e+02  1.794001e+02 -4.214151e+00
     vertex  3.367380e+02  1.794001e+02 -4.243108e+00
   endloop
 endfacet
 facet normal  2.192089e-01 -9.523372e-11  9.756779e-01
   outer loop
     vertex  3.381395e+02  1.788000e+02 -4.214151e+00
     vertex  3.395073e+02  1.788000e+02 -4.521448e+00
     vertex  3.395073e+02  1.794001e+02 -4.521448e+00
   endloop
 endfacet
 facet normal -2.065591e-02  9.033614e-12  9.997866e-01
   outer loop
     vertex  3.367380e+02  1.788000e+02 -4.243108e+00
     vertex  3.381395e+02  1.788000e+02 -4.214151e+00
     vertex  3.367380e+02  1.794001e+02 -4.243108e+00
   endloop
 endfacet
 facet normal -2.593203e-01  1.127095e-10  9.657914e-01
   outer loop
     vertex  3.353841e+02  1.788000e+02 -4.606634e+00
     vertex  3.367380e+02  1.794001e+02 -4.243108e+00
     vertex  3.353841e+02  1.794001e+02 -4.606634e+00
   endloop
 endfacet
 facet normal -2.593203e-01  1.127075e-10  9.657914e-01
   outer loop
     vertex  3.353841e+02  1.788000e+02 -4.606634e+00
     vertex  3.367380e+02  1.788000e+02 -4.243108e+00
     vertex  3.367380e+02  1.794001e+02 -4.243108e+00
   endloop
 endfacet
 facet normal -4.829139e-01  2.098373e-10  8.756678e-01
   outer loop
     vertex  3.341566e+02  1.788000e+02 -5.283602e+00
     vertex  3.353841e+02  1.794001e+02 -4.606634e+00
     vertex  3.341566e+02  1.794001e+02 -5.283602e+00
   endloop
 endfacet
 facet normal -4.829139e-01  2.098800e-10  8.756678e-01
   outer loop
     vertex  3.341566e+02  1.788000e+02 -5.283602e+00
     vertex  3.353841e+02  1.788000e+02 -4.606634e+00
     vertex  3.353841e+02  1.794001e+02 -4.606634e+00
   endloop
 endfacet
 facet normal -6.784423e-01  2.948531e-10  7.346536e-01
   outer loop
     vertex  3.331267e+02  1.788000e+02 -6.234671e+00
     vertex  3.341566e+02  1.794001e+02 -5.283602e+00
     vertex  3.331267e+02  1.794001e+02 -6.234671e+00
   endloop
 endfacet
 facet normal -6.784423e-01  2.948172e-10  7.346536e-01
   outer loop
     vertex  3.331267e+02  1.788000e+02 -6.234671e+00
     vertex  3.341566e+02  1.788000e+02 -5.283602e+00
     vertex  3.341566e+02  1.794001e+02 -5.283602e+00
   endloop
 endfacet
 facet normal -8.345422e-01  3.626904e-10  5.509441e-01
   outer loop
     vertex  3.323544e+02  1.788000e+02 -7.404567e+00
     vertex  3.331267e+02  1.794001e+02 -6.234671e+00
     vertex  3.323544e+02  1.794001e+02 -7.404567e+00
   endloop
 endfacet
 facet normal -8.345422e-01  3.626905e-10  5.509441e-01
   outer loop
     vertex  3.323544e+02  1.788000e+02 -7.404567e+00
     vertex  3.331267e+02  1.788000e+02 -6.234671e+00
     vertex  3.331267e+02  1.794001e+02 -6.234671e+00
   endloop
 endfacet
 facet normal -9.421414e-01  4.094495e-10  3.352156e-01
   outer loop
     vertex  3.318844e+02  1.788000e+02 -8.725300e+00
     vertex  3.323544e+02  1.788000e+02 -7.404567e+00
     vertex  3.323544e+02  1.794001e+02 -7.404567e+00
   endloop
 endfacet
 facet normal -9.421414e-01  4.094494e-10  3.352156e-01
   outer loop
     vertex  3.318844e+02  1.788000e+02 -8.725300e+00
     vertex  3.323544e+02  1.794001e+02 -7.404567e+00
     vertex  3.318844e+02  1.794001e+02 -8.725300e+00
   endloop
 endfacet
 facet normal -9.949869e-01  4.324128e-10  1.000057e-01
   outer loop
     vertex  3.318844e+02  1.788000e+02 -8.725300e+00
     vertex  3.318844e+02  1.794001e+02 -8.725300e+00
     vertex  3.317442e+02  1.794001e+02 -1.012011e+01
   endloop
 endfacet
 facet normal -9.949869e-01  4.324125e-10  1.000057e-01
   outer loop
     vertex  3.317442e+02  1.788000e+02 -1.012011e+01
     vertex  3.318844e+02  1.788000e+02 -8.725300e+00
     vertex  3.317442e+02  1.794001e+02 -1.012011e+01
   endloop
 endfacet
 facet normal -9.900073e-01  4.302462e-10 -1.410163e-01
   outer loop
     vertex  3.319419e+02  1.788000e+02 -1.150795e+01
     vertex  3.317442e+02  1.788000e+02 -1.012011e+01
     vertex  3.317442e+02  1.794001e+02 -1.012011e+01
   endloop
 endfacet
 facet normal -9.900073e-01  4.302458e-10 -1.410163e-01
   outer loop
     vertex  3.319419e+02  1.788000e+02 -1.150795e+01
     vertex  3.317442e+02  1.794001e+02 -1.012011e+01
     vertex  3.319419e+02  1.794001e+02 -1.150795e+01
   endloop
 endfacet
 facet normal -9.274921e-01  4.030746e-10 -3.738428e-01
   outer loop
     vertex  3.319419e+02  1.788000e+02 -1.150795e+01
     vertex  3.319419e+02  1.794001e+02 -1.150795e+01
     vertex  3.324660e+02  1.794001e+02 -1.280814e+01
   endloop
 endfacet
 facet normal -9.274921e-01  4.030746e-10 -3.738428e-01
   outer loop
     vertex  3.324660e+02  1.788000e+02 -1.280814e+01
     vertex  3.319419e+02  1.788000e+02 -1.150795e+01
     vertex  3.324660e+02  1.794001e+02 -1.280814e+01
   endloop
 endfacet
 facet normal -8.110744e-01  3.524781e-10 -5.849430e-01
   outer loop
     vertex  3.332860e+02  1.788000e+02 -1.394514e+01
     vertex  3.324660e+02  1.788000e+02 -1.280814e+01
     vertex  3.324660e+02  1.794001e+02 -1.280814e+01
   endloop
 endfacet
 facet normal -8.110744e-01  3.524781e-10 -5.849430e-01
   outer loop
     vertex  3.332860e+02  1.788000e+02 -1.394514e+01
     vertex  3.324660e+02  1.794001e+02 -1.280814e+01
     vertex  3.332860e+02  1.794001e+02 -1.394514e+01
   endloop
 endfacet
 facet normal -6.475200e-01  2.813968e-10 -7.620485e-01
   outer loop
     vertex  3.343543e+02  1.788000e+02 -1.485286e+01
     vertex  3.332860e+02  1.788000e+02 -1.394514e+01
     vertex  3.332860e+02  1.794001e+02 -1.394514e+01
   endloop
 endfacet
 facet normal -6.475200e-01  2.813608e-10 -7.620485e-01
   outer loop
     vertex  3.343543e+02  1.788000e+02 -1.485286e+01
     vertex  3.332860e+02  1.794001e+02 -1.394514e+01
     vertex  3.343543e+02  1.794001e+02 -1.485286e+01
   endloop
 endfacet
 facet normal -4.463341e-01  1.939195e-10 -8.948664e-01
   outer loop
     vertex  3.343543e+02  1.788000e+02 -1.485286e+01
     vertex  3.343543e+02  1.794001e+02 -1.485286e+01
     vertex  3.356087e+02  1.794001e+02 -1.547855e+01
   endloop
 endfacet
 facet normal -4.463341e-01  1.940042e-10 -8.948664e-01
   outer loop
     vertex  3.356087e+02  1.788000e+02 -1.547855e+01
     vertex  3.343543e+02  1.788000e+02 -1.485286e+01
     vertex  3.356087e+02  1.794001e+02 -1.547855e+01
   endloop
 endfacet
 facet normal -2.192089e-01  9.530073e-11 -9.756779e-01
   outer loop
     vertex  3.369765e+02  1.788000e+02 -1.578585e+01
     vertex  3.356087e+02  1.788000e+02 -1.547855e+01
     vertex  3.356087e+02  1.794001e+02 -1.547855e+01
   endloop
 endfacet
 facet normal -2.192089e-01  9.525450e-11 -9.756779e-01
   outer loop
     vertex  3.369765e+02  1.788000e+02 -1.578585e+01
     vertex  3.356087e+02  1.794001e+02 -1.547855e+01
     vertex  3.369765e+02  1.794001e+02 -1.578585e+01
   endloop
 endfacet
 facet normal  2.065591e-02 -8.988692e-12 -9.997866e-01
   outer loop
     vertex  3.383780e+02  1.788000e+02 -1.575689e+01
     vertex  3.369765e+02  1.788000e+02 -1.578585e+01
     vertex  3.369765e+02  1.794001e+02 -1.578585e+01
   endloop
 endfacet
 facet normal  2.065591e-02 -8.985736e-12 -9.997866e-01
   outer loop
     vertex  3.383780e+02  1.788000e+02 -1.575689e+01
     vertex  3.369765e+02  1.794001e+02 -1.578585e+01
     vertex  3.383780e+02  1.794001e+02 -1.575689e+01
   endloop
 endfacet
 facet normal  2.593203e-01 -1.127067e-10 -9.657914e-01
   outer loop
     vertex  3.397319e+02  1.788000e+02 -1.539337e+01
     vertex  3.383780e+02  1.788000e+02 -1.575689e+01
     vertex  3.383780e+02  1.794001e+02 -1.575689e+01
   endloop
 endfacet
 facet normal  2.593203e-01 -1.127335e-10 -9.657914e-01
   outer loop
     vertex  3.397319e+02  1.788000e+02 -1.539337e+01
     vertex  3.383780e+02  1.794001e+02 -1.575689e+01
     vertex  3.397319e+02  1.794001e+02 -1.539337e+01
   endloop
 endfacet
 facet normal  4.829139e-01 -2.098784e-10 -8.756678e-01
   outer loop
     vertex  3.409594e+02  1.788000e+02 -1.471640e+01
     vertex  3.397319e+02  1.788000e+02 -1.539337e+01
     vertex  3.397319e+02  1.794001e+02 -1.539337e+01
   endloop
 endfacet
 facet normal  4.829139e-01 -2.098386e-10 -8.756678e-01
   outer loop
     vertex  3.409594e+02  1.788000e+02 -1.471640e+01
     vertex  3.397319e+02  1.794001e+02 -1.539337e+01
     vertex  3.409594e+02  1.794001e+02 -1.471640e+01
   endloop
 endfacet
 facet normal  6.784423e-01 -2.948183e-10 -7.346536e-01
   outer loop
     vertex  3.419893e+02  1.788000e+02 -1.376533e+01
     vertex  3.409594e+02  1.788000e+02 -1.471640e+01
     vertex  3.409594e+02  1.794001e+02 -1.471640e+01
   endloop
 endfacet
 facet normal  6.784423e-01 -2.948531e-10 -7.346536e-01
   outer loop
     vertex  3.419893e+02  1.788000e+02 -1.376533e+01
     vertex  3.409594e+02  1.794001e+02 -1.471640e+01
     vertex  3.419893e+02  1.794001e+02 -1.376533e+01
   endloop
 endfacet
 facet normal  8.345422e-01 -3.625853e-10 -5.509441e-01
   outer loop
     vertex  3.427616e+02  1.788000e+02 -1.259543e+01
     vertex  3.419893e+02  1.794001e+02 -1.376533e+01
     vertex  3.427616e+02  1.794001e+02 -1.259543e+01
   endloop
 endfacet
 facet normal  9.421414e-01 -4.093443e-10 -3.352156e-01
   outer loop
     vertex  3.427616e+02  1.788000e+02 -1.259543e+01
     vertex  3.427616e+02  1.794001e+02 -1.259543e+01
     vertex  3.432316e+02  1.794001e+02 -1.127470e+01
   endloop
 endfacet
 facet normal  8.345422e-01 -3.626904e-10 -5.509441e-01
   outer loop
     vertex  3.427616e+02  1.788000e+02 -1.259543e+01
     vertex  3.419893e+02  1.788000e+02 -1.376533e+01
     vertex  3.419893e+02  1.794001e+02 -1.376533e+01
   endloop
 endfacet
 facet normal  9.421414e-01 -4.094653e-10 -3.352156e-01
   outer loop
     vertex  3.432316e+02  1.788000e+02 -1.127470e+01
     vertex  3.427616e+02  1.788000e+02 -1.259543e+01
     vertex  3.432316e+02  1.794001e+02 -1.127470e+01
   endloop
 endfacet
 facet normal  9.949869e-01 -4.324128e-10 -1.000057e-01
   outer loop
     vertex  3.433718e+02  1.788000e+02 -9.879886e+00
     vertex  3.432316e+02  1.794001e+02 -1.127470e+01
     vertex  3.433718e+02  1.794001e+02 -9.879886e+00
   endloop
 endfacet
 facet normal  9.949869e-01 -4.324175e-10 -1.000057e-01
   outer loop
     vertex  3.433718e+02  1.788000e+02 -9.879886e+00
     vertex  3.432316e+02  1.788000e+02 -1.127470e+01
     vertex  3.432316e+02  1.794001e+02 -1.127470e+01
   endloop
 endfacet
 facet normal -4.345692e-10 -1.000000e+00  4.995376e-14
   outer loop
     vertex  3.406062e+02  1.788000e+02 -1.259008e+01
     vertex  3.419893e+02  1.788000e+02 -1.376533e+01
     vertex  3.427616e+02  1.788000e+02 -1.259543e+01
   endloop
 endfacet
 facet normal -4.345902e-10 -1.000000e+00 -1.526403e-14
   outer loop
     vertex  3.398978e+02  1.788000e+02 -1.324430e+01
     vertex  3.409594e+02  1.788000e+02 -1.471640e+01
     vertex  3.419893e+02  1.788000e+02 -1.376533e+01
   endloop
 endfacet
 facet normal -4.345759e-10 -1.000000e+00  4.201488e-14
   outer loop
     vertex  3.398978e+02  1.788000e+02 -1.324430e+01
     vertex  3.419893e+02  1.788000e+02 -1.376533e+01
     vertex  3.406062e+02  1.788000e+02 -1.259008e+01
   endloop
 endfacet
 facet normal -4.345711e-10 -1.000000e+00  2.498344e-15
   outer loop
     vertex  3.411375e+02  1.788000e+02 -1.178534e+01
     vertex  3.427616e+02  1.788000e+02 -1.259543e+01
     vertex  3.432316e+02  1.788000e+02 -1.127470e+01
   endloop
 endfacet
 facet normal -4.345693e-10 -1.000000e+00  6.022880e-15
   outer loop
     vertex  3.411375e+02  1.788000e+02 -1.178534e+01
     vertex  3.406062e+02  1.788000e+02 -1.259008e+01
     vertex  3.427616e+02  1.788000e+02 -1.259543e+01
   endloop
 endfacet
 facet normal -4.345555e-10 -1.000000e+00  2.791769e-14
   outer loop
     vertex  3.390534e+02  1.788000e+02 -1.370997e+01
     vertex  3.397319e+02  1.788000e+02 -1.539337e+01
     vertex  3.409594e+02  1.788000e+02 -1.471640e+01
   endloop
 endfacet
 facet normal -4.345710e-10 -1.000000e+00 -1.385996e-15
   outer loop
     vertex  3.390534e+02  1.788000e+02 -1.370997e+01
     vertex  3.409594e+02  1.788000e+02 -1.471640e+01
     vertex  3.398978e+02  1.788000e+02 -1.324430e+01
   endloop
 endfacet
 facet normal -4.345596e-10 -1.000000e+00  1.010152e-14
   outer loop
     vertex  3.414607e+02  1.788000e+02 -1.087684e+01
     vertex  3.432316e+02  1.788000e+02 -1.127470e+01
     vertex  3.433718e+02  1.788000e+02 -9.879886e+00
   endloop
 endfacet
 facet normal -4.345660e-10 -1.000000e+00 -1.838532e-14
   outer loop
     vertex  3.414607e+02  1.788000e+02 -1.087684e+01
     vertex  3.411375e+02  1.788000e+02 -1.178534e+01
     vertex  3.432316e+02  1.788000e+02 -1.127470e+01
   endloop
 endfacet
 facet normal -4.345922e-10 -1.000000e+00  6.168520e-15
   outer loop
     vertex  3.381221e+02  1.788000e+02 -1.396003e+01
     vertex  3.383780e+02  1.788000e+02 -1.575689e+01
     vertex  3.397319e+02  1.788000e+02 -1.539337e+01
   endloop
 endfacet
 facet normal -4.345825e-10 -1.000000e+00  1.703739e-14
   outer loop
     vertex  3.381221e+02  1.788000e+02 -1.396003e+01
     vertex  3.397319e+02  1.788000e+02 -1.539337e+01
     vertex  3.390534e+02  1.788000e+02 -1.370997e+01
   endloop
 endfacet
 facet normal -4.345778e-10 -1.000000e+00  4.507280e-14
   outer loop
     vertex  3.415571e+02  1.788000e+02 -9.917376e+00
     vertex  3.414607e+02  1.788000e+02 -1.087684e+01
     vertex  3.433718e+02  1.788000e+02 -9.879886e+00
   endloop
 endfacet
 facet normal -4.345565e-10 -1.000000e+00  1.918106e-14
   outer loop
     vertex  3.371580e+02  1.788000e+02 -1.397995e+01
     vertex  3.369765e+02  1.788000e+02 -1.578585e+01
     vertex  3.383780e+02  1.788000e+02 -1.575689e+01
   endloop
 endfacet
 facet normal -4.345710e-10 -1.000000e+00  9.176392e-15
   outer loop
     vertex  3.371580e+02  1.788000e+02 -1.397995e+01
     vertex  3.383780e+02  1.788000e+02 -1.575689e+01
     vertex  3.381221e+02  1.788000e+02 -1.396003e+01
   endloop
 endfacet
 facet normal -4.345700e-10 -1.000000e+00  8.612622e-15
   outer loop
     vertex  3.414212e+02  1.788000e+02 -8.962719e+00
     vertex  3.433718e+02  1.788000e+02 -9.879886e+00
     vertex  3.431741e+02  1.788000e+02 -8.492052e+00
   endloop
 endfacet
 facet normal -4.345768e-10 -1.000000e+00 -5.736696e-15
   outer loop
     vertex  3.414212e+02  1.788000e+02 -8.962719e+00
     vertex  3.415571e+02  1.788000e+02 -9.917376e+00
     vertex  3.433718e+02  1.788000e+02 -9.879886e+00
   endloop
 endfacet
 facet normal -4.345687e-10 -1.000000e+00  1.168523e-14
   outer loop
     vertex  3.362171e+02  1.788000e+02 -1.376857e+01
     vertex  3.356087e+02  1.788000e+02 -1.547855e+01
     vertex  3.369765e+02  1.788000e+02 -1.578585e+01
   endloop
 endfacet
 facet normal -4.345504e-10 -1.000000e+00  1.857417e-14
   outer loop
     vertex  3.362171e+02  1.788000e+02 -1.376857e+01
     vertex  3.369765e+02  1.788000e+02 -1.578585e+01
     vertex  3.371580e+02  1.788000e+02 -1.397995e+01
   endloop
 endfacet
 facet normal -4.345589e-10 -1.000000e+00  4.723549e-14
   outer loop
     vertex  3.410607e+02  1.788000e+02 -8.068344e+00
     vertex  3.431741e+02  1.788000e+02 -8.492052e+00
     vertex  3.426500e+02  1.788000e+02 -7.191856e+00
   endloop
 endfacet
 facet normal -4.345681e-10 -1.000000e+00  1.337586e-15
   outer loop
     vertex  3.410607e+02  1.788000e+02 -8.068344e+00
     vertex  3.414212e+02  1.788000e+02 -8.962719e+00
     vertex  3.431741e+02  1.788000e+02 -8.492052e+00
   endloop
 endfacet
 facet normal -4.345628e-10 -1.000000e+00  2.364017e-14
   outer loop
     vertex  3.353542e+02  1.788000e+02 -1.333817e+01
     vertex  3.343543e+02  1.788000e+02 -1.485286e+01
     vertex  3.356087e+02  1.788000e+02 -1.547855e+01
   endloop
 endfacet
 facet normal -4.345924e-10 -1.000000e+00  2.011417e-14
   outer loop
     vertex  3.353542e+02  1.788000e+02 -1.333817e+01
     vertex  3.356087e+02  1.788000e+02 -1.547855e+01
     vertex  3.362171e+02  1.788000e+02 -1.376857e+01
   endloop
 endfacet
 facet normal -4.345493e-10 -1.000000e+00 -5.604863e-15
   outer loop
     vertex  3.404966e+02  1.788000e+02 -7.286231e+00
     vertex  3.426500e+02  1.788000e+02 -7.191856e+00
     vertex  3.418300e+02  1.788000e+02 -6.054858e+00
   endloop
 endfacet
 facet normal -4.345510e-10 -1.000000e+00  3.301372e-14
   outer loop
     vertex  3.404966e+02  1.788000e+02 -7.286231e+00
     vertex  3.410607e+02  1.788000e+02 -8.068344e+00
     vertex  3.426500e+02  1.788000e+02 -7.191856e+00
   endloop
 endfacet
 facet normal -4.345680e-10 -1.000000e+00  1.460240e-14
   outer loop
     vertex  3.332860e+02  1.788000e+02 -1.394514e+01
     vertex  3.353542e+02  1.788000e+02 -1.333817e+01
     vertex  3.346194e+02  1.788000e+02 -1.271377e+01
   endloop
 endfacet
 facet normal -4.345725e-10 -1.000000e+00  3.007895e-14
   outer loop
     vertex  3.332860e+02  1.788000e+02 -1.394514e+01
     vertex  3.343543e+02  1.788000e+02 -1.485286e+01
     vertex  3.353542e+02  1.788000e+02 -1.333817e+01
   endloop
 endfacet
 facet normal -4.345680e-10 -1.000000e+00  1.460240e-14
   outer loop
     vertex  3.397618e+02  1.788000e+02 -6.661831e+00
     vertex  3.404966e+02  1.788000e+02 -7.286231e+00
     vertex  3.418300e+02  1.788000e+02 -6.054858e+00
   endloop
 endfacet
 facet normal -4.345725e-10 -1.000000e+00  3.007895e-14
   outer loop
     vertex  3.407617e+02  1.788000e+02 -5.147137e+00
     vertex  3.397618e+02  1.788000e+02 -6.661831e+00
     vertex  3.418300e+02  1.788000e+02 -6.054858e+00
   endloop
 endfacet
 facet normal -4.345493e-10 -1.000000e+00 -5.604863e-15
   outer loop
     vertex  3.324660e+02  1.788000e+02 -1.280814e+01
     vertex  3.332860e+02  1.788000e+02 -1.394514e+01
     vertex  3.346194e+02  1.788000e+02 -1.271377e+01
   endloop
 endfacet
 facet normal -4.345479e-10 -1.000000e+00 -3.743869e-14
   outer loop
     vertex  3.324660e+02  1.788000e+02 -1.280814e+01
     vertex  3.346194e+02  1.788000e+02 -1.271377e+01
     vertex  3.340553e+02  1.788000e+02 -1.193166e+01
   endloop
 endfacet
 facet normal -4.345628e-10 -1.000000e+00  2.364017e-14
   outer loop
     vertex  3.395073e+02  1.788000e+02 -4.521448e+00
     vertex  3.397618e+02  1.788000e+02 -6.661831e+00
     vertex  3.407617e+02  1.788000e+02 -5.147137e+00
   endloop
 endfacet
 facet normal -4.345924e-10 -1.000000e+00  2.011417e-14
   outer loop
     vertex  3.395073e+02  1.788000e+02 -4.521448e+00
     vertex  3.388989e+02  1.788000e+02 -6.231434e+00
     vertex  3.397618e+02  1.788000e+02 -6.661831e+00
   endloop
 endfacet
 facet normal -4.345783e-10 -1.000000e+00  1.755706e-14
   outer loop
     vertex  3.319419e+02  1.788000e+02 -1.150795e+01
     vertex  3.324660e+02  1.788000e+02 -1.280814e+01
     vertex  3.340553e+02  1.788000e+02 -1.193166e+01
   endloop
 endfacet
 facet normal -4.345432e-10 -1.000000e+00 -3.073296e-14
   outer loop
     vertex  3.319419e+02  1.788000e+02 -1.150795e+01
     vertex  3.336948e+02  1.788000e+02 -1.103728e+01
     vertex  3.335589e+02  1.788000e+02 -1.008262e+01
   endloop
 endfacet
 facet normal -4.345688e-10 -1.000000e+00  6.458458e-14
   outer loop
     vertex  3.319419e+02  1.788000e+02 -1.150795e+01
     vertex  3.340553e+02  1.788000e+02 -1.193166e+01
     vertex  3.336948e+02  1.788000e+02 -1.103728e+01
   endloop
 endfacet
 facet normal -4.345687e-10 -1.000000e+00  1.168523e-14
   outer loop
     vertex  3.381395e+02  1.788000e+02 -4.214151e+00
     vertex  3.388989e+02  1.788000e+02 -6.231434e+00
     vertex  3.395073e+02  1.788000e+02 -4.521448e+00
   endloop
 endfacet
 facet normal -4.345504e-10 -1.000000e+00  1.857417e-14
   outer loop
     vertex  3.381395e+02  1.788000e+02 -4.214151e+00
     vertex  3.379580e+02  1.788000e+02 -6.020053e+00
     vertex  3.388989e+02  1.788000e+02 -6.231434e+00
   endloop
 endfacet
 facet normal -4.345713e-10 -1.000000e+00  2.066950e-14
   outer loop
     vertex  3.381395e+02  1.788000e+02 -4.214151e+00
     vertex  3.369939e+02  1.788000e+02 -6.039971e+00
     vertex  3.379580e+02  1.788000e+02 -6.020053e+00
   endloop
 endfacet
 facet normal -4.345931e-10 -1.000000e+00  2.580696e-14
   outer loop
     vertex  3.317442e+02  1.788000e+02 -1.012011e+01
     vertex  3.319419e+02  1.788000e+02 -1.150795e+01
     vertex  3.335589e+02  1.788000e+02 -1.008262e+01
   endloop
 endfacet
 facet normal -4.345935e-10 -1.000000e+00  4.665032e-14
   outer loop
     vertex  3.317442e+02  1.788000e+02 -1.012011e+01
     vertex  3.335589e+02  1.788000e+02 -1.008262e+01
     vertex  3.336553e+02  1.788000e+02 -9.123164e+00
   endloop
 endfacet
 facet normal -4.345769e-10 -1.000000e+00  2.416617e-14
   outer loop
     vertex  3.367380e+02  1.788000e+02 -4.243108e+00
     vertex  3.369939e+02  1.788000e+02 -6.039971e+00
     vertex  3.381395e+02  1.788000e+02 -4.214151e+00
   endloop
 endfacet
 facet normal -4.345753e-10 -1.000000e+00  1.167904e-14
   outer loop
     vertex  3.318844e+02  1.788000e+02 -8.725300e+00
     vertex  3.317442e+02  1.788000e+02 -1.012011e+01
     vertex  3.336553e+02  1.788000e+02 -9.123164e+00
   endloop
 endfacet
 facet normal -4.345784e-10 -1.000000e+00  1.802649e-15
   outer loop
     vertex  3.353841e+02  1.788000e+02 -4.606634e+00
     vertex  3.360626e+02  1.788000e+02 -6.290032e+00
     vertex  3.369939e+02  1.788000e+02 -6.039971e+00
   endloop
 endfacet
 facet normal -4.345738e-10 -1.000000e+00  3.673051e-15
   outer loop
     vertex  3.353841e+02  1.788000e+02 -4.606634e+00
     vertex  3.352182e+02  1.788000e+02 -6.755702e+00
     vertex  3.360626e+02  1.788000e+02 -6.290032e+00
   endloop
 endfacet
 facet normal -4.345558e-10 -1.000000e+00  2.716334e-14
   outer loop
     vertex  3.353841e+02  1.788000e+02 -4.606634e+00
     vertex  3.369939e+02  1.788000e+02 -6.039971e+00
     vertex  3.367380e+02  1.788000e+02 -4.243108e+00
   endloop
 endfacet
 facet normal -4.345693e-10 -1.000000e+00  6.022880e-15
   outer loop
     vertex  3.323544e+02  1.788000e+02 -7.404567e+00
     vertex  3.339785e+02  1.788000e+02 -8.214664e+00
     vertex  3.345098e+02  1.788000e+02 -7.409920e+00
   endloop
 endfacet
 facet normal -4.345659e-10 -1.000000e+00  1.287013e-14
   outer loop
     vertex  3.323544e+02  1.788000e+02 -7.404567e+00
     vertex  3.336553e+02  1.788000e+02 -9.123164e+00
     vertex  3.339785e+02  1.788000e+02 -8.214664e+00
   endloop
 endfacet
 facet normal -4.345769e-10 -1.000000e+00  4.562545e-15
   outer loop
     vertex  3.323544e+02  1.788000e+02 -7.404567e+00
     vertex  3.318844e+02  1.788000e+02 -8.725300e+00
     vertex  3.336553e+02  1.788000e+02 -9.123164e+00
   endloop
 endfacet
 facet normal -4.345891e-10 -1.000000e+00  4.855968e-15
   outer loop
     vertex  3.341566e+02  1.788000e+02 -5.283602e+00
     vertex  3.352182e+02  1.788000e+02 -6.755702e+00
     vertex  3.353841e+02  1.788000e+02 -4.606634e+00
   endloop
 endfacet
 facet normal -4.345652e-10 -1.000000e+00  3.042620e-14
   outer loop
     vertex  3.331267e+02  1.788000e+02 -6.234671e+00
     vertex  3.345098e+02  1.788000e+02 -7.409920e+00
     vertex  3.352182e+02  1.788000e+02 -6.755702e+00
   endloop
 endfacet
 facet normal -4.345678e-10 -1.000000e+00  2.021778e-14
   outer loop
     vertex  3.331267e+02  1.788000e+02 -6.234671e+00
     vertex  3.352182e+02  1.788000e+02 -6.755702e+00
     vertex  3.341566e+02  1.788000e+02 -5.283602e+00
   endloop
 endfacet
 facet normal -4.345693e-10 -1.000000e+00  2.569931e-14
   outer loop
     vertex  3.331267e+02  1.788000e+02 -6.234671e+00
     vertex  3.323544e+02  1.788000e+02 -7.404567e+00
     vertex  3.345098e+02  1.788000e+02 -7.409920e+00
   endloop
 endfacet
endsolid
