solid 
 facet normal  9.927089e-01  1.070581e-16  1.205367e-01
   outer loop
     vertex  5.703080e+02  5.000000e+02  9.000000e+00
     vertex  5.704606e+02  5.040000e+02  7.743593e+00
     vertex  5.703080e+02  5.040000e+02  9.000000e+00
   endloop
 endfacet
 facet normal  9.350162e-01 -3.936905e-16  3.546049e-01
   outer loop
     vertex  5.704606e+02  5.000000e+02  7.743593e+00
     vertex  5.709094e+02  5.040000e+02  6.560203e+00
     vertex  5.704606e+02  5.040000e+02  7.743593e+00
   endloop
 endfacet
 facet normal  9.927089e-01 -1.338226e-16  1.205367e-01
   outer loop
     vertex  5.704606e+02  5.000000e+02  7.743593e+00
     vertex  5.704606e+02  5.040000e+02  7.743593e+00
     vertex  5.703080e+02  5.000000e+02  9.000000e+00
   endloop
 endfacet
 facet normal  8.229839e-01 -1.135221e-15  5.680647e-01
   outer loop
     vertex  5.709094e+02  5.000000e+02  6.560203e+00
     vertex  5.716283e+02  5.040000e+02  5.518606e+00
     vertex  5.709094e+02  5.040000e+02  6.560203e+00
   endloop
 endfacet
 facet normal  9.350162e-01 -7.086429e-16  3.546049e-01
   outer loop
     vertex  5.709094e+02  5.000000e+02  6.560203e+00
     vertex  5.709094e+02  5.040000e+02  6.560203e+00
     vertex  5.704606e+02  5.000000e+02  7.743593e+00
   endloop
 endfacet
 facet normal  6.631227e-01 -1.828231e-15  7.485107e-01
   outer loop
     vertex  5.716283e+02  5.000000e+02  5.518606e+00
     vertex  5.725757e+02  5.040000e+02  4.679335e+00
     vertex  5.716283e+02  5.040000e+02  5.518606e+00
   endloop
 endfacet
 facet normal  8.229839e-01 -1.387493e-15  5.680647e-01
   outer loop
     vertex  5.716283e+02  5.000000e+02  5.518606e+00
     vertex  5.716283e+02  5.040000e+02  5.518606e+00
     vertex  5.709094e+02  5.000000e+02  6.560203e+00
   endloop
 endfacet
 facet normal  4.647232e-01 -2.162718e-15  8.854560e-01
   outer loop
     vertex  5.725757e+02  5.000000e+02  4.679335e+00
     vertex  5.736963e+02  5.040000e+02  4.091165e+00
     vertex  5.725757e+02  5.040000e+02  4.679335e+00
   endloop
 endfacet
 facet normal  6.631227e-01 -1.828231e-15  7.485107e-01
   outer loop
     vertex  5.725757e+02  5.000000e+02  4.679335e+00
     vertex  5.725757e+02  5.040000e+02  4.679335e+00
     vertex  5.716283e+02  5.000000e+02  5.518606e+00
   endloop
 endfacet
 facet normal  2.393157e-01  5.723798e-15  9.709418e-01
   outer loop
     vertex  5.736963e+02  5.000000e+02  4.091165e+00
     vertex  5.749252e+02  5.040000e+02  3.788278e+00
     vertex  5.736963e+02  5.040000e+02  4.091165e+00
   endloop
 endfacet
 facet normal  4.647232e-01  1.222517e-14  8.854560e-01
   outer loop
     vertex  5.736963e+02  5.000000e+02  4.091165e+00
     vertex  5.736963e+02  5.040000e+02  4.091165e+00
     vertex  5.725757e+02  5.000000e+02  4.679335e+00
   endloop
 endfacet
 facet normal  1.403530e-15 -2.220446e-16  1.000000e+00
   outer loop
     vertex  5.749252e+02  5.000000e+02  3.788278e+00
     vertex  5.761908e+02  5.040000e+02  3.788278e+00
     vertex  5.749252e+02  5.040000e+02  3.788278e+00
   endloop
 endfacet
 facet normal  2.393157e-01 -2.155924e-16  9.709418e-01
   outer loop
     vertex  5.749252e+02  5.000000e+02  3.788278e+00
     vertex  5.749252e+02  5.040000e+02  3.788278e+00
     vertex  5.736963e+02  5.000000e+02  4.091165e+00
   endloop
 endfacet
 facet normal -2.393157e-01 -5.292614e-15  9.709418e-01
   outer loop
     vertex  5.761908e+02  5.000000e+02  3.788278e+00
     vertex  5.774197e+02  5.040000e+02  4.091165e+00
     vertex  5.761908e+02  5.040000e+02  3.788278e+00
   endloop
 endfacet
 facet normal -4.210590e-15  1.554312e-15  1.000000e+00
   outer loop
     vertex  5.761908e+02  5.000000e+02  3.788278e+00
     vertex  5.761908e+02  5.040000e+02  3.788278e+00
     vertex  5.749252e+02  5.000000e+02  3.788278e+00
   endloop
 endfacet
 facet normal -4.647232e-01 -1.025907e-14  8.854560e-01
   outer loop
     vertex  5.774197e+02  5.000000e+02  4.091165e+00
     vertex  5.785403e+02  5.040000e+02  4.679335e+00
     vertex  5.774197e+02  5.040000e+02  4.091165e+00
   endloop
 endfacet
 facet normal -2.393157e-01 -3.567874e-15  9.709418e-01
   outer loop
     vertex  5.774197e+02  5.000000e+02  4.091165e+00
     vertex  5.774197e+02  5.040000e+02  4.091165e+00
     vertex  5.761908e+02  5.000000e+02  3.788278e+00
   endloop
 endfacet
 facet normal -6.631227e-01 -1.502442e-14  7.485107e-01
   outer loop
     vertex  5.785403e+02  5.000000e+02  4.679335e+00
     vertex  5.794877e+02  5.040000e+02  5.518606e+00
     vertex  5.785403e+02  5.040000e+02  4.679335e+00
   endloop
 endfacet
 facet normal -4.647232e-01 -8.686180e-15  8.854560e-01
   outer loop
     vertex  5.785403e+02  5.000000e+02  4.679335e+00
     vertex  5.785403e+02  5.040000e+02  4.679335e+00
     vertex  5.774197e+02  5.000000e+02  4.091165e+00
   endloop
 endfacet
 facet normal -8.229839e-01 -1.973267e-14  5.680647e-01
   outer loop
     vertex  5.794877e+02  5.000000e+02  5.518606e+00
     vertex  5.802066e+02  5.040000e+02  6.560203e+00
     vertex  5.794877e+02  5.040000e+02  5.518606e+00
   endloop
 endfacet
 facet normal -6.631227e-01 -1.402720e-14  7.485107e-01
   outer loop
     vertex  5.794877e+02  5.000000e+02  5.518606e+00
     vertex  5.794877e+02  5.040000e+02  5.518606e+00
     vertex  5.785403e+02  5.000000e+02  4.679335e+00
   endloop
 endfacet
 facet normal -8.229839e-01  4.414750e-15  5.680647e-01
   outer loop
     vertex  5.802066e+02  5.000000e+02  6.560203e+00
     vertex  5.802066e+02  5.040000e+02  6.560203e+00
     vertex  5.794877e+02  5.000000e+02  5.518606e+00
   endloop
 endfacet
 facet normal -9.350162e-01  2.755834e-15  3.546049e-01
   outer loop
     vertex  5.802066e+02  5.000000e+02  6.560203e+00
     vertex  5.806554e+02  5.040000e+02  7.743593e+00
     vertex  5.802066e+02  5.040000e+02  6.560203e+00
   endloop
 endfacet
 facet normal -9.350162e-01  2.913310e-15  3.546049e-01
   outer loop
     vertex  5.806554e+02  5.000000e+02  7.743593e+00
     vertex  5.806554e+02  5.040000e+02  7.743593e+00
     vertex  5.802066e+02  5.000000e+02  6.560203e+00
   endloop
 endfacet
 facet normal -9.927089e-01  9.902872e-16  1.205367e-01
   outer loop
     vertex  5.806554e+02  5.000000e+02  7.743593e+00
     vertex  5.808080e+02  5.040000e+02  9.000000e+00
     vertex  5.806554e+02  5.040000e+02  7.743593e+00
   endloop
 endfacet
 facet normal -9.927089e-01  1.017052e-15  1.205367e-01
   outer loop
     vertex  5.808080e+02  5.000000e+02  9.000000e+00
     vertex  5.808080e+02  5.040000e+02  9.000000e+00
     vertex  5.806554e+02  5.000000e+02  7.743593e+00
   endloop
 endfacet
 facet normal -9.927089e-01 -1.017052e-15 -1.205367e-01
   outer loop
     vertex  5.808080e+02  5.000000e+02  9.000000e+00
     vertex  5.806554e+02  5.040000e+02  1.025641e+01
     vertex  5.808080e+02  5.040000e+02  9.000000e+00
   endloop
 endfacet
 facet normal -9.927089e-01 -9.635227e-16 -1.205367e-01
   outer loop
     vertex  5.806554e+02  5.000000e+02  1.025641e+01
     vertex  5.806554e+02  5.040000e+02  1.025641e+01
     vertex  5.808080e+02  5.000000e+02  9.000000e+00
   endloop
 endfacet
 facet normal -9.350162e-01 -2.834572e-15 -3.546049e-01
   outer loop
     vertex  5.806554e+02  5.000000e+02  1.025641e+01
     vertex  5.802066e+02  5.040000e+02  1.143980e+01
     vertex  5.806554e+02  5.040000e+02  1.025641e+01
   endloop
 endfacet
 facet normal -9.350162e-01 -2.519619e-15 -3.546049e-01
   outer loop
     vertex  5.802066e+02  5.000000e+02  1.143980e+01
     vertex  5.802066e+02  5.040000e+02  1.143980e+01
     vertex  5.806554e+02  5.000000e+02  1.025641e+01
   endloop
 endfacet
 facet normal -8.229839e-01 -4.036343e-15 -5.680647e-01
   outer loop
     vertex  5.802066e+02  5.000000e+02  1.143980e+01
     vertex  5.794877e+02  5.040000e+02  1.248139e+01
     vertex  5.802066e+02  5.040000e+02  1.143980e+01
   endloop
 endfacet
 facet normal -8.229839e-01  1.985881e-14 -5.680647e-01
   outer loop
     vertex  5.794877e+02  5.000000e+02  1.248139e+01
     vertex  5.794877e+02  5.040000e+02  1.248139e+01
     vertex  5.802066e+02  5.000000e+02  1.143980e+01
   endloop
 endfacet
 facet normal -6.631227e-01  1.419340e-14 -7.485107e-01
   outer loop
     vertex  5.794877e+02  5.000000e+02  1.248139e+01
     vertex  5.785403e+02  5.040000e+02  1.332067e+01
     vertex  5.794877e+02  5.040000e+02  1.248139e+01
   endloop
 endfacet
 facet normal -6.631227e-01  1.485821e-14 -7.485107e-01
   outer loop
     vertex  5.785403e+02  5.000000e+02  1.332067e+01
     vertex  5.785403e+02  5.040000e+02  1.332067e+01
     vertex  5.794877e+02  5.000000e+02  1.248139e+01
   endloop
 endfacet
 facet normal -4.647232e-01  8.489569e-15 -8.854560e-01
   outer loop
     vertex  5.785403e+02  5.000000e+02  1.332067e+01
     vertex  5.774197e+02  5.040000e+02  1.390884e+01
     vertex  5.785403e+02  5.040000e+02  1.332067e+01
   endloop
 endfacet
 facet normal -4.647232e-01  1.006246e-14 -8.854560e-01
   outer loop
     vertex  5.774197e+02  5.000000e+02  1.390884e+01
     vertex  5.774197e+02  5.040000e+02  1.390884e+01
     vertex  5.785403e+02  5.000000e+02  1.332067e+01
   endloop
 endfacet
 facet normal -2.393157e-01  3.352282e-15 -9.709418e-01
   outer loop
     vertex  5.774197e+02  5.000000e+02  1.390884e+01
     vertex  5.761908e+02  5.040000e+02  1.421172e+01
     vertex  5.774197e+02  5.040000e+02  1.390884e+01
   endloop
 endfacet
 facet normal -2.393157e-01  5.508206e-15 -9.709418e-01
   outer loop
     vertex  5.761908e+02  5.000000e+02  1.421172e+01
     vertex  5.761908e+02  5.040000e+02  1.421172e+01
     vertex  5.774197e+02  5.000000e+02  1.390884e+01
   endloop
 endfacet
 facet normal -4.210590e-15 -1.332268e-15 -1.000000e+00
   outer loop
     vertex  5.761908e+02  5.000000e+02  1.421172e+01
     vertex  5.749252e+02  5.040000e+02  1.421172e+01
     vertex  5.761908e+02  5.040000e+02  1.421172e+01
   endloop
 endfacet
 facet normal  0.000000e+00  0.000000e+00 -1.000000e+00
   outer loop
     vertex  5.749252e+02  5.000000e+02  1.421172e+01
     vertex  5.749252e+02  5.040000e+02  1.421172e+01
     vertex  5.761908e+02  5.000000e+02  1.421172e+01
   endloop
 endfacet
 facet normal  2.393157e-01  0.000000e+00 -9.709418e-01
   outer loop
     vertex  5.749252e+02  5.000000e+02  1.421172e+01
     vertex  5.736963e+02  5.040000e+02  1.390884e+01
     vertex  5.749252e+02  5.040000e+02  1.421172e+01
   endloop
 endfacet
 facet normal  2.393157e-01  1.293554e-15 -9.709418e-01
   outer loop
     vertex  5.736963e+02  5.000000e+02  1.390884e+01
     vertex  5.736963e+02  5.040000e+02  1.390884e+01
     vertex  5.749252e+02  5.000000e+02  1.421172e+01
   endloop
 endfacet
 facet normal  4.647232e-01  1.179664e-15 -8.854560e-01
   outer loop
     vertex  5.736963e+02  5.000000e+02  1.390884e+01
     vertex  5.725757e+02  5.040000e+02  1.332067e+01
     vertex  5.736963e+02  5.040000e+02  1.390884e+01
   endloop
 endfacet
 facet normal  4.647232e-01  1.966107e-15 -8.854560e-01
   outer loop
     vertex  5.725757e+02  5.000000e+02  1.332067e+01
     vertex  5.725757e+02  5.040000e+02  1.332067e+01
     vertex  5.736963e+02  5.000000e+02  1.390884e+01
   endloop
 endfacet
 facet normal  6.631227e-01  1.662028e-15 -7.485107e-01
   outer loop
     vertex  5.725757e+02  5.000000e+02  1.332067e+01
     vertex  5.716283e+02  5.040000e+02  1.248139e+01
     vertex  5.725757e+02  5.040000e+02  1.332067e+01
   endloop
 endfacet
 facet normal  6.631227e-01  1.994433e-15 -7.485107e-01
   outer loop
     vertex  5.716283e+02  5.000000e+02  1.248139e+01
     vertex  5.716283e+02  5.040000e+02  1.248139e+01
     vertex  5.725757e+02  5.000000e+02  1.332067e+01
   endloop
 endfacet
 facet normal  8.229839e-01  1.009086e-15 -5.680647e-01
   outer loop
     vertex  5.709094e+02  5.000000e+02  1.143980e+01
     vertex  5.709094e+02  5.040000e+02  1.143980e+01
     vertex  5.716283e+02  5.040000e+02  1.248139e+01
   endloop
 endfacet
 facet normal  8.229839e-01  1.518661e-15 -5.680647e-01
   outer loop
     vertex  5.709094e+02  5.000000e+02  1.143980e+01
     vertex  5.716283e+02  5.040000e+02  1.248139e+01
     vertex  5.716283e+02  5.000000e+02  1.248139e+01
   endloop
 endfacet
 facet normal  9.350162e-01  4.724286e-16 -3.546049e-01
   outer loop
     vertex  5.704606e+02  5.000000e+02  1.025641e+01
     vertex  5.704606e+02  5.040000e+02  1.025641e+01
     vertex  5.709094e+02  5.040000e+02  1.143980e+01
   endloop
 endfacet
 facet normal  9.350162e-01  6.238603e-16 -3.546049e-01
   outer loop
     vertex  5.704606e+02  5.000000e+02  1.025641e+01
     vertex  5.709094e+02  5.040000e+02  1.143980e+01
     vertex  5.709094e+02  5.000000e+02  1.143980e+01
   endloop
 endfacet
 facet normal  9.927089e-01  1.609454e-16 -1.205367e-01
   outer loop
     vertex  5.703080e+02  5.000000e+02  9.000000e+00
     vertex  5.704606e+02  5.040000e+02  1.025641e+01
     vertex  5.704606e+02  5.000000e+02  1.025641e+01
   endloop
 endfacet
 facet normal  9.927089e-01 -1.070581e-16 -1.205367e-01
   outer loop
     vertex  5.703080e+02  5.000000e+02  9.000000e+00
     vertex  5.703080e+02  5.040000e+02  9.000000e+00
     vertex  5.704606e+02  5.040000e+02  1.025641e+01
   endloop
 endfacet
 facet normal -9.927089e-01 -1.091609e-16 -1.205367e-01
   outer loop
     vertex  5.634212e+02  5.000000e+02  6.008554e+00
     vertex  5.630580e+02  5.000000e+02  9.000000e+00
     vertex  5.630580e+02  5.040000e+02  9.000000e+00
   endloop
 endfacet
 facet normal -9.927089e-01 -8.029356e-17 -1.205367e-01
   outer loop
     vertex  5.634212e+02  5.000000e+02  6.008554e+00
     vertex  5.630580e+02  5.040000e+02  9.000000e+00
     vertex  5.634212e+02  5.040000e+02  6.008554e+00
   endloop
 endfacet
 facet normal -9.350162e-01 -2.362143e-16 -3.546049e-01
   outer loop
     vertex  5.644898e+02  5.000000e+02  3.190960e+00
     vertex  5.634212e+02  5.040000e+02  6.008554e+00
     vertex  5.644898e+02  5.040000e+02  3.190960e+00
   endloop
 endfacet
 facet normal -9.350162e-01 -2.408002e-16 -3.546049e-01
   outer loop
     vertex  5.644898e+02  5.000000e+02  3.190960e+00
     vertex  5.634212e+02  5.000000e+02  6.008554e+00
     vertex  5.634212e+02  5.040000e+02  6.008554e+00
   endloop
 endfacet
 facet normal -8.229839e-01 -5.045428e-16 -5.680647e-01
   outer loop
     vertex  5.662016e+02  5.000000e+02  7.109668e-01
     vertex  5.644898e+02  5.040000e+02  3.190960e+00
     vertex  5.662016e+02  5.040000e+02  7.109668e-01
   endloop
 endfacet
 facet normal -8.229839e-01 -3.691963e-16 -5.680647e-01
   outer loop
     vertex  5.662016e+02  5.000000e+02  7.109668e-01
     vertex  5.644898e+02  5.000000e+02  3.190960e+00
     vertex  5.644898e+02  5.040000e+02  3.190960e+00
   endloop
 endfacet
 facet normal -4.647232e-01 -7.864429e-16 -8.854560e-01
   outer loop
     vertex  5.684572e+02  5.000000e+02 -1.287298e+00
     vertex  5.684572e+02  5.040000e+02 -1.287298e+00
     vertex  5.711254e+02  5.040000e+02 -2.687703e+00
   endloop
 endfacet
 facet normal -6.631227e-01 -6.648111e-16 -7.485107e-01
   outer loop
     vertex  5.684572e+02  5.000000e+02 -1.287298e+00
     vertex  5.662016e+02  5.040000e+02  7.109668e-01
     vertex  5.684572e+02  5.040000e+02 -1.287298e+00
   endloop
 endfacet
 facet normal -6.631227e-01 -6.745014e-16 -7.485107e-01
   outer loop
     vertex  5.684572e+02  5.000000e+02 -1.287298e+00
     vertex  5.662016e+02  5.000000e+02  7.109668e-01
     vertex  5.662016e+02  5.040000e+02  7.109668e-01
   endloop
 endfacet
 facet normal -4.647232e-01 -7.864429e-16 -8.854560e-01
   outer loop
     vertex  5.711254e+02  5.000000e+02 -2.687703e+00
     vertex  5.684572e+02  5.000000e+02 -1.287298e+00
     vertex  5.711254e+02  5.040000e+02 -2.687703e+00
   endloop
 endfacet
 facet normal -2.393157e-01 -8.623696e-16 -9.709418e-01
   outer loop
     vertex  5.740513e+02  5.000000e+02 -3.408861e+00
     vertex  5.711254e+02  5.040000e+02 -2.687703e+00
     vertex  5.740513e+02  5.040000e+02 -3.408861e+00
   endloop
 endfacet
 facet normal -2.393157e-01 -8.670526e-16 -9.709418e-01
   outer loop
     vertex  5.740513e+02  5.000000e+02 -3.408861e+00
     vertex  5.711254e+02  5.000000e+02 -2.687703e+00
     vertex  5.711254e+02  5.040000e+02 -2.687703e+00
   endloop
 endfacet
 facet normal  3.536895e-15 -8.881784e-16 -1.000000e+00
   outer loop
     vertex  5.770647e+02  5.000000e+02 -3.408861e+00
     vertex  5.740513e+02  5.040000e+02 -3.408861e+00
     vertex  5.770647e+02  5.040000e+02 -3.408861e+00
   endloop
 endfacet
 facet normal  3.536895e-15 -8.881784e-16 -1.000000e+00
   outer loop
     vertex  5.770647e+02  5.000000e+02 -3.408861e+00
     vertex  5.740513e+02  5.000000e+02 -3.408861e+00
     vertex  5.740513e+02  5.040000e+02 -3.408861e+00
   endloop
 endfacet
 facet normal  4.647232e-01 -7.864429e-16 -8.854560e-01
   outer loop
     vertex  5.799906e+02  5.000000e+02 -2.687703e+00
     vertex  5.799906e+02  5.040000e+02 -2.687703e+00
     vertex  5.826588e+02  5.040000e+02 -1.287298e+00
   endloop
 endfacet
 facet normal  2.393157e-01 -8.623696e-16 -9.709418e-01
   outer loop
     vertex  5.799906e+02  5.000000e+02 -2.687703e+00
     vertex  5.770647e+02  5.040000e+02 -3.408861e+00
     vertex  5.799906e+02  5.040000e+02 -2.687703e+00
   endloop
 endfacet
 facet normal  2.393157e-01 -8.483077e-16 -9.709418e-01
   outer loop
     vertex  5.799906e+02  5.000000e+02 -2.687703e+00
     vertex  5.770647e+02  5.000000e+02 -3.408861e+00
     vertex  5.770647e+02  5.040000e+02 -3.408861e+00
   endloop
 endfacet
 facet normal  4.647232e-01 -7.864429e-16 -8.854560e-01
   outer loop
     vertex  5.826588e+02  5.000000e+02 -1.287298e+00
     vertex  5.799906e+02  5.000000e+02 -2.687703e+00
     vertex  5.826588e+02  5.040000e+02 -1.287298e+00
   endloop
 endfacet
 facet normal  6.631227e-01 -6.288986e-16 -7.485107e-01
   outer loop
     vertex  5.849144e+02  5.000000e+02  7.109668e-01
     vertex  5.826588e+02  5.000000e+02 -1.287298e+00
     vertex  5.826588e+02  5.040000e+02 -1.287298e+00
   endloop
 endfacet
 facet normal  6.631227e-01 -6.648111e-16 -7.485107e-01
   outer loop
     vertex  5.849144e+02  5.000000e+02  7.109668e-01
     vertex  5.826588e+02  5.040000e+02 -1.287298e+00
     vertex  5.849144e+02  5.040000e+02  7.109668e-01
   endloop
 endfacet
 facet normal  8.229839e-01 -4.925187e-16 -5.680647e-01
   outer loop
     vertex  5.866262e+02  5.000000e+02  3.190960e+00
     vertex  5.849144e+02  5.000000e+02  7.109668e-01
     vertex  5.849144e+02  5.040000e+02  7.109668e-01
   endloop
 endfacet
 facet normal  9.350162e-01 -2.362143e-16 -3.546049e-01
   outer loop
     vertex  5.866262e+02  5.000000e+02  3.190960e+00
     vertex  5.866262e+02  5.040000e+02  3.190960e+00
     vertex  5.876948e+02  5.040000e+02  6.008554e+00
   endloop
 endfacet
 facet normal  8.229839e-01 -3.784071e-16 -5.680647e-01
   outer loop
     vertex  5.866262e+02  5.000000e+02  3.190960e+00
     vertex  5.849144e+02  5.040000e+02  7.109668e-01
     vertex  5.866262e+02  5.040000e+02  3.190960e+00
   endloop
 endfacet
 facet normal  9.350162e-01 -2.362143e-16 -3.546049e-01
   outer loop
     vertex  5.876948e+02  5.000000e+02  6.008554e+00
     vertex  5.866262e+02  5.000000e+02  3.190960e+00
     vertex  5.876948e+02  5.040000e+02  6.008554e+00
   endloop
 endfacet
 facet normal  9.927089e-01 -8.479900e-17 -1.205367e-01
   outer loop
     vertex  5.880580e+02  5.000000e+02  9.000000e+00
     vertex  5.876948e+02  5.000000e+02  6.008554e+00
     vertex  5.876948e+02  5.040000e+02  6.008554e+00
   endloop
 endfacet
 facet normal  9.927089e-01 -1.070581e-16 -1.205367e-01
   outer loop
     vertex  5.880580e+02  5.000000e+02  9.000000e+00
     vertex  5.876948e+02  5.040000e+02  6.008554e+00
     vertex  5.880580e+02  5.040000e+02  9.000000e+00
   endloop
 endfacet
 facet normal  9.927089e-01  1.046237e-16  1.205367e-01
   outer loop
     vertex  5.876948e+02  5.000000e+02  1.199145e+01
     vertex  5.880580e+02  5.000000e+02  9.000000e+00
     vertex  5.880580e+02  5.040000e+02  9.000000e+00
   endloop
 endfacet
 facet normal  9.927089e-01  5.352904e-17  1.205367e-01
   outer loop
     vertex  5.876948e+02  5.000000e+02  1.199145e+01
     vertex  5.880580e+02  5.040000e+02  9.000000e+00
     vertex  5.876948e+02  5.040000e+02  1.199145e+01
   endloop
 endfacet
 facet normal  9.350162e-01  1.448911e-16  3.546049e-01
   outer loop
     vertex  5.866262e+02  5.000000e+02  1.480904e+01
     vertex  5.876948e+02  5.000000e+02  1.199145e+01
     vertex  5.876948e+02  5.040000e+02  1.199145e+01
   endloop
 endfacet
 facet normal  9.350162e-01  1.574762e-16  3.546049e-01
   outer loop
     vertex  5.866262e+02  5.000000e+02  1.480904e+01
     vertex  5.876948e+02  5.040000e+02  1.199145e+01
     vertex  5.866262e+02  5.040000e+02  1.480904e+01
   endloop
 endfacet
 facet normal  8.229839e-01  2.814433e-16  5.680647e-01
   outer loop
     vertex  5.849144e+02  5.000000e+02  1.728903e+01
     vertex  5.866262e+02  5.000000e+02  1.480904e+01
     vertex  5.866262e+02  5.040000e+02  1.480904e+01
   endloop
 endfacet
 facet normal  8.229839e-01 -0.000000e+00  5.680647e-01
   outer loop
     vertex  5.849144e+02  5.000000e+02  1.728903e+01
     vertex  5.866262e+02  5.040000e+02  1.480904e+01
     vertex  5.849144e+02  5.040000e+02  1.728903e+01
   endloop
 endfacet
 facet normal  6.631227e-01 -1.133345e-17  7.485107e-01
   outer loop
     vertex  5.826588e+02  5.000000e+02  1.928730e+01
     vertex  5.849144e+02  5.000000e+02  1.728903e+01
     vertex  5.849144e+02  5.040000e+02  1.728903e+01
   endloop
 endfacet
 facet normal  6.631227e-01  1.329622e-15  7.485107e-01
   outer loop
     vertex  5.826588e+02  5.000000e+02  1.928730e+01
     vertex  5.849144e+02  5.040000e+02  1.728903e+01
     vertex  5.826588e+02  5.040000e+02  1.928730e+01
   endloop
 endfacet
 facet normal  4.647232e-01  1.572338e-15  8.854560e-01
   outer loop
     vertex  5.799906e+02  5.000000e+02  2.068770e+01
     vertex  5.826588e+02  5.000000e+02  1.928730e+01
     vertex  5.826588e+02  5.040000e+02  1.928730e+01
   endloop
 endfacet
 facet normal  4.647232e-01 -0.000000e+00  8.854560e-01
   outer loop
     vertex  5.799906e+02  5.000000e+02  2.068770e+01
     vertex  5.826588e+02  5.040000e+02  1.928730e+01
     vertex  5.799906e+02  5.040000e+02  2.068770e+01
   endloop
 endfacet
 facet normal -2.357930e-15  8.881784e-16  1.000000e+00
   outer loop
     vertex  5.770647e+02  5.000000e+02  2.140886e+01
     vertex  5.770647e+02  5.040000e+02  2.140886e+01
     vertex  5.740513e+02  5.040000e+02  2.140886e+01
   endloop
 endfacet
 facet normal  2.393157e-01  8.623696e-16  9.709418e-01
   outer loop
     vertex  5.770647e+02  5.000000e+02  2.140886e+01
     vertex  5.799906e+02  5.040000e+02  2.068770e+01
     vertex  5.770647e+02  5.040000e+02  2.140886e+01
   endloop
 endfacet
 facet normal  2.393157e-01 -1.280539e-17  9.709418e-01
   outer loop
     vertex  5.770647e+02  5.000000e+02  2.140886e+01
     vertex  5.799906e+02  5.000000e+02  2.068770e+01
     vertex  5.799906e+02  5.040000e+02  2.068770e+01
   endloop
 endfacet
 facet normal -2.357930e-15  8.881784e-16  1.000000e+00
   outer loop
     vertex  5.740513e+02  5.000000e+02  2.140886e+01
     vertex  5.770647e+02  5.000000e+02  2.140886e+01
     vertex  5.740513e+02  5.040000e+02  2.140886e+01
   endloop
 endfacet
 facet normal -2.393157e-01  8.524644e-16  9.709418e-01
   outer loop
     vertex  5.711254e+02  5.000000e+02  2.068770e+01
     vertex  5.740513e+02  5.000000e+02  2.140886e+01
     vertex  5.740513e+02  5.040000e+02  2.140886e+01
   endloop
 endfacet
 facet normal -4.647232e-01  7.864429e-16  8.854560e-01
   outer loop
     vertex  5.711254e+02  5.000000e+02  2.068770e+01
     vertex  5.711254e+02  5.040000e+02  2.068770e+01
     vertex  5.684572e+02  5.040000e+02  1.928730e+01
   endloop
 endfacet
 facet normal -2.393157e-01  8.623696e-16  9.709418e-01
   outer loop
     vertex  5.711254e+02  5.000000e+02  2.068770e+01
     vertex  5.740513e+02  5.040000e+02  2.140886e+01
     vertex  5.711254e+02  5.040000e+02  2.068770e+01
   endloop
 endfacet
 facet normal -4.647232e-01  7.864429e-16  8.854560e-01
   outer loop
     vertex  5.684572e+02  5.000000e+02  1.928730e+01
     vertex  5.711254e+02  5.000000e+02  2.068770e+01
     vertex  5.684572e+02  5.040000e+02  1.928730e+01
   endloop
 endfacet
 facet normal -6.631227e-01  6.648111e-16  7.485107e-01
   outer loop
     vertex  5.662016e+02  5.000000e+02  1.728903e+01
     vertex  5.684572e+02  5.040000e+02  1.928730e+01
     vertex  5.662016e+02  5.040000e+02  1.728903e+01
   endloop
 endfacet
 facet normal -6.631227e-01  6.761445e-16  7.485107e-01
   outer loop
     vertex  5.662016e+02  5.000000e+02  1.728903e+01
     vertex  5.684572e+02  5.000000e+02  1.928730e+01
     vertex  5.684572e+02  5.040000e+02  1.928730e+01
   endloop
 endfacet
 facet normal -9.350162e-01  1.574762e-16  3.546049e-01
   outer loop
     vertex  5.644898e+02  5.000000e+02  1.480904e+01
     vertex  5.644898e+02  5.040000e+02  1.480904e+01
     vertex  5.634212e+02  5.040000e+02  1.199145e+01
   endloop
 endfacet
 facet normal -8.229839e-01  2.522714e-16  5.680647e-01
   outer loop
     vertex  5.644898e+02  5.000000e+02  1.480904e+01
     vertex  5.662016e+02  5.040000e+02  1.728903e+01
     vertex  5.644898e+02  5.040000e+02  1.480904e+01
   endloop
 endfacet
 facet normal -8.229839e-01  5.178409e-16  5.680647e-01
   outer loop
     vertex  5.644898e+02  5.000000e+02  1.480904e+01
     vertex  5.662016e+02  5.000000e+02  1.728903e+01
     vertex  5.662016e+02  5.040000e+02  1.728903e+01
   endloop
 endfacet
 facet normal -9.350162e-01  1.574762e-16  3.546049e-01
   outer loop
     vertex  5.634212e+02  5.000000e+02  1.199145e+01
     vertex  5.644898e+02  5.000000e+02  1.480904e+01
     vertex  5.634212e+02  5.040000e+02  1.199145e+01
   endloop
 endfacet
 facet normal -9.927089e-01  1.070581e-16  1.205367e-01
   outer loop
     vertex  5.630580e+02  5.000000e+02  9.000000e+00
     vertex  5.634212e+02  5.040000e+02  1.199145e+01
     vertex  5.630580e+02  5.040000e+02  9.000000e+00
   endloop
 endfacet
 facet normal -9.927089e-01  5.943332e-17  1.205367e-01
   outer loop
     vertex  5.630580e+02  5.000000e+02  9.000000e+00
     vertex  5.634212e+02  5.000000e+02  1.199145e+01
     vertex  5.634212e+02  5.040000e+02  1.199145e+01
   endloop
 endfacet
 facet normal  0.000000e+00 -1.000000e+00  0.000000e+00
   outer loop
     vertex  5.785403e+02  5.000000e+02  1.332067e+01
     vertex  5.849144e+02  5.000000e+02  1.728903e+01
     vertex  5.826588e+02  5.000000e+02  1.928730e+01
   endloop
 endfacet
 facet normal  0.000000e+00 -1.000000e+00  0.000000e+00
   outer loop
     vertex  5.785403e+02  5.000000e+02  1.332067e+01
     vertex  5.794877e+02  5.000000e+02  1.248139e+01
     vertex  5.849144e+02  5.000000e+02  1.728903e+01
   endloop
 endfacet
 facet normal  0.000000e+00 -1.000000e+00  0.000000e+00
   outer loop
     vertex  5.802066e+02  5.000000e+02  1.143980e+01
     vertex  5.866262e+02  5.000000e+02  1.480904e+01
     vertex  5.849144e+02  5.000000e+02  1.728903e+01
   endloop
 endfacet
 facet normal  0.000000e+00 -1.000000e+00  0.000000e+00
   outer loop
     vertex  5.802066e+02  5.000000e+02  1.143980e+01
     vertex  5.876948e+02  5.000000e+02  1.199145e+01
     vertex  5.866262e+02  5.000000e+02  1.480904e+01
   endloop
 endfacet
 facet normal  0.000000e+00 -1.000000e+00  0.000000e+00
   outer loop
     vertex  5.802066e+02  5.000000e+02  1.143980e+01
     vertex  5.849144e+02  5.000000e+02  1.728903e+01
     vertex  5.794877e+02  5.000000e+02  1.248139e+01
   endloop
 endfacet
 facet normal  0.000000e+00 -1.000000e+00  0.000000e+00
   outer loop
     vertex  5.774197e+02  5.000000e+02  1.390884e+01
     vertex  5.799906e+02  5.000000e+02  2.068770e+01
     vertex  5.770647e+02  5.000000e+02  2.140886e+01
   endloop
 endfacet
 facet normal  0.000000e+00 -1.000000e+00  0.000000e+00
   outer loop
     vertex  5.774197e+02  5.000000e+02  1.390884e+01
     vertex  5.826588e+02  5.000000e+02  1.928730e+01
     vertex  5.799906e+02  5.000000e+02  2.068770e+01
   endloop
 endfacet
 facet normal  0.000000e+00 -1.000000e+00  0.000000e+00
   outer loop
     vertex  5.774197e+02  5.000000e+02  1.390884e+01
     vertex  5.785403e+02  5.000000e+02  1.332067e+01
     vertex  5.826588e+02  5.000000e+02  1.928730e+01
   endloop
 endfacet
 facet normal  0.000000e+00 -1.000000e+00  0.000000e+00
   outer loop
     vertex  5.806554e+02  5.000000e+02  1.025641e+01
     vertex  5.876948e+02  5.000000e+02  1.199145e+01
     vertex  5.802066e+02  5.000000e+02  1.143980e+01
   endloop
 endfacet
 facet normal  0.000000e+00 -1.000000e+00  0.000000e+00
   outer loop
     vertex  5.761908e+02  5.000000e+02  1.421172e+01
     vertex  5.774197e+02  5.000000e+02  1.390884e+01
     vertex  5.770647e+02  5.000000e+02  2.140886e+01
   endloop
 endfacet
 facet normal  0.000000e+00 -1.000000e+00  0.000000e+00
   outer loop
     vertex  5.808080e+02  5.000000e+02  9.000000e+00
     vertex  5.880580e+02  5.000000e+02  9.000000e+00
     vertex  5.876948e+02  5.000000e+02  1.199145e+01
   endloop
 endfacet
 facet normal  0.000000e+00 -1.000000e+00  0.000000e+00
   outer loop
     vertex  5.808080e+02  5.000000e+02  9.000000e+00
     vertex  5.876948e+02  5.000000e+02  1.199145e+01
     vertex  5.806554e+02  5.000000e+02  1.025641e+01
   endloop
 endfacet
 facet normal  0.000000e+00 -1.000000e+00  0.000000e+00
   outer loop
     vertex  5.749252e+02  5.000000e+02  1.421172e+01
     vertex  5.770647e+02  5.000000e+02  2.140886e+01
     vertex  5.740513e+02  5.000000e+02  2.140886e+01
   endloop
 endfacet
 facet normal  0.000000e+00 -1.000000e+00  0.000000e+00
   outer loop
     vertex  5.749252e+02  5.000000e+02  1.421172e+01
     vertex  5.761908e+02  5.000000e+02  1.421172e+01
     vertex  5.770647e+02  5.000000e+02  2.140886e+01
   endloop
 endfacet
 facet normal  0.000000e+00 -1.000000e+00  0.000000e+00
   outer loop
     vertex  5.806554e+02  5.000000e+02  7.743593e+00
     vertex  5.876948e+02  5.000000e+02  6.008554e+00
     vertex  5.880580e+02  5.000000e+02  9.000000e+00
   endloop
 endfacet
 facet normal  0.000000e+00 -1.000000e+00  0.000000e+00
   outer loop
     vertex  5.806554e+02  5.000000e+02  7.743593e+00
     vertex  5.880580e+02  5.000000e+02  9.000000e+00
     vertex  5.808080e+02  5.000000e+02  9.000000e+00
   endloop
 endfacet
 facet normal  0.000000e+00 -1.000000e+00  0.000000e+00
   outer loop
     vertex  5.736963e+02  5.000000e+02  1.390884e+01
     vertex  5.740513e+02  5.000000e+02  2.140886e+01
     vertex  5.711254e+02  5.000000e+02  2.068770e+01
   endloop
 endfacet
 facet normal  0.000000e+00 -1.000000e+00  0.000000e+00
   outer loop
     vertex  5.736963e+02  5.000000e+02  1.390884e+01
     vertex  5.749252e+02  5.000000e+02  1.421172e+01
     vertex  5.740513e+02  5.000000e+02  2.140886e+01
   endloop
 endfacet
 facet normal  0.000000e+00 -1.000000e+00  0.000000e+00
   outer loop
     vertex  5.802066e+02  5.000000e+02  6.560203e+00
     vertex  5.866262e+02  5.000000e+02  3.190960e+00
     vertex  5.876948e+02  5.000000e+02  6.008554e+00
   endloop
 endfacet
 facet normal  0.000000e+00 -1.000000e+00  0.000000e+00
   outer loop
     vertex  5.802066e+02  5.000000e+02  6.560203e+00
     vertex  5.876948e+02  5.000000e+02  6.008554e+00
     vertex  5.806554e+02  5.000000e+02  7.743593e+00
   endloop
 endfacet
 facet normal  0.000000e+00 -1.000000e+00  0.000000e+00
   outer loop
     vertex  5.725757e+02  5.000000e+02  1.332067e+01
     vertex  5.711254e+02  5.000000e+02  2.068770e+01
     vertex  5.684572e+02  5.000000e+02  1.928730e+01
   endloop
 endfacet
 facet normal  0.000000e+00 -1.000000e+00  0.000000e+00
   outer loop
     vertex  5.725757e+02  5.000000e+02  1.332067e+01
     vertex  5.736963e+02  5.000000e+02  1.390884e+01
     vertex  5.711254e+02  5.000000e+02  2.068770e+01
   endloop
 endfacet
 facet normal  0.000000e+00 -1.000000e+00  0.000000e+00
   outer loop
     vertex  5.794877e+02  5.000000e+02  5.518606e+00
     vertex  5.866262e+02  5.000000e+02  3.190960e+00
     vertex  5.802066e+02  5.000000e+02  6.560203e+00
   endloop
 endfacet
 facet normal  0.000000e+00 -1.000000e+00  0.000000e+00
   outer loop
     vertex  5.794877e+02  5.000000e+02  5.518606e+00
     vertex  5.849144e+02  5.000000e+02  7.109668e-01
     vertex  5.866262e+02  5.000000e+02  3.190960e+00
   endloop
 endfacet
 facet normal  0.000000e+00 -1.000000e+00  0.000000e+00
   outer loop
     vertex  5.662016e+02  5.000000e+02  1.728903e+01
     vertex  5.716283e+02  5.000000e+02  1.248139e+01
     vertex  5.725757e+02  5.000000e+02  1.332067e+01
   endloop
 endfacet
 facet normal  0.000000e+00 -1.000000e+00  0.000000e+00
   outer loop
     vertex  5.662016e+02  5.000000e+02  1.728903e+01
     vertex  5.725757e+02  5.000000e+02  1.332067e+01
     vertex  5.684572e+02  5.000000e+02  1.928730e+01
   endloop
 endfacet
 facet normal  0.000000e+00 -1.000000e+00  0.000000e+00
   outer loop
     vertex  5.785403e+02  5.000000e+02  4.679335e+00
     vertex  5.849144e+02  5.000000e+02  7.109668e-01
     vertex  5.794877e+02  5.000000e+02  5.518606e+00
   endloop
 endfacet
 facet normal  0.000000e+00 -1.000000e+00  0.000000e+00
   outer loop
     vertex  5.826588e+02  5.000000e+02 -1.287298e+00
     vertex  5.849144e+02  5.000000e+02  7.109668e-01
     vertex  5.785403e+02  5.000000e+02  4.679335e+00
   endloop
 endfacet
 facet normal  0.000000e+00 -1.000000e+00  0.000000e+00
   outer loop
     vertex  5.826588e+02  5.000000e+02 -1.287298e+00
     vertex  5.785403e+02  5.000000e+02  4.679335e+00
     vertex  5.774197e+02  5.000000e+02  4.091165e+00
   endloop
 endfacet
 facet normal  0.000000e+00 -1.000000e+00  0.000000e+00
   outer loop
     vertex  5.644898e+02  5.000000e+02  1.480904e+01
     vertex  5.716283e+02  5.000000e+02  1.248139e+01
     vertex  5.662016e+02  5.000000e+02  1.728903e+01
   endloop
 endfacet
 facet normal  0.000000e+00 -1.000000e+00  0.000000e+00
   outer loop
     vertex  5.644898e+02  5.000000e+02  1.480904e+01
     vertex  5.704606e+02  5.000000e+02  1.025641e+01
     vertex  5.709094e+02  5.000000e+02  1.143980e+01
   endloop
 endfacet
 facet normal  0.000000e+00 -1.000000e+00  0.000000e+00
   outer loop
     vertex  5.644898e+02  5.000000e+02  1.480904e+01
     vertex  5.709094e+02  5.000000e+02  1.143980e+01
     vertex  5.716283e+02  5.000000e+02  1.248139e+01
   endloop
 endfacet
 facet normal  0.000000e+00 -1.000000e+00  0.000000e+00
   outer loop
     vertex  5.799906e+02  5.000000e+02 -2.687703e+00
     vertex  5.826588e+02  5.000000e+02 -1.287298e+00
     vertex  5.774197e+02  5.000000e+02  4.091165e+00
   endloop
 endfacet
 facet normal  0.000000e+00 -1.000000e+00  0.000000e+00
   outer loop
     vertex  5.634212e+02  5.000000e+02  1.199145e+01
     vertex  5.704606e+02  5.000000e+02  1.025641e+01
     vertex  5.644898e+02  5.000000e+02  1.480904e+01
   endloop
 endfacet
 facet normal  0.000000e+00 -1.000000e+00  0.000000e+00
   outer loop
     vertex  5.770647e+02  5.000000e+02 -3.408861e+00
     vertex  5.799906e+02  5.000000e+02 -2.687703e+00
     vertex  5.774197e+02  5.000000e+02  4.091165e+00
   endloop
 endfacet
 facet normal  0.000000e+00 -1.000000e+00  0.000000e+00
   outer loop
     vertex  5.770647e+02  5.000000e+02 -3.408861e+00
     vertex  5.774197e+02  5.000000e+02  4.091165e+00
     vertex  5.761908e+02  5.000000e+02  3.788278e+00
   endloop
 endfacet
 facet normal  0.000000e+00 -1.000000e+00  0.000000e+00
   outer loop
     vertex  5.630580e+02  5.000000e+02  9.000000e+00
     vertex  5.703080e+02  5.000000e+02  9.000000e+00
     vertex  5.704606e+02  5.000000e+02  1.025641e+01
   endloop
 endfacet
 facet normal  0.000000e+00 -1.000000e+00  0.000000e+00
   outer loop
     vertex  5.630580e+02  5.000000e+02  9.000000e+00
     vertex  5.704606e+02  5.000000e+02  1.025641e+01
     vertex  5.634212e+02  5.000000e+02  1.199145e+01
   endloop
 endfacet
 facet normal  0.000000e+00 -1.000000e+00  0.000000e+00
   outer loop
     vertex  5.740513e+02  5.000000e+02 -3.408861e+00
     vertex  5.770647e+02  5.000000e+02 -3.408861e+00
     vertex  5.761908e+02  5.000000e+02  3.788278e+00
   endloop
 endfacet
 facet normal  0.000000e+00 -1.000000e+00  0.000000e+00
   outer loop
     vertex  5.740513e+02  5.000000e+02 -3.408861e+00
     vertex  5.761908e+02  5.000000e+02  3.788278e+00
     vertex  5.749252e+02  5.000000e+02  3.788278e+00
   endloop
 endfacet
 facet normal  0.000000e+00 -1.000000e+00  0.000000e+00
   outer loop
     vertex  5.740513e+02  5.000000e+02 -3.408861e+00
     vertex  5.749252e+02  5.000000e+02  3.788278e+00
     vertex  5.736963e+02  5.000000e+02  4.091165e+00
   endloop
 endfacet
 facet normal  0.000000e+00 -1.000000e+00  0.000000e+00
   outer loop
     vertex  5.634212e+02  5.000000e+02  6.008554e+00
     vertex  5.703080e+02  5.000000e+02  9.000000e+00
     vertex  5.630580e+02  5.000000e+02  9.000000e+00
   endloop
 endfacet
 facet normal  0.000000e+00 -1.000000e+00  0.000000e+00
   outer loop
     vertex  5.634212e+02  5.000000e+02  6.008554e+00
     vertex  5.704606e+02  5.000000e+02  7.743593e+00
     vertex  5.703080e+02  5.000000e+02  9.000000e+00
   endloop
 endfacet
 facet normal  0.000000e+00 -1.000000e+00  0.000000e+00
   outer loop
     vertex  5.711254e+02  5.000000e+02 -2.687703e+00
     vertex  5.740513e+02  5.000000e+02 -3.408861e+00
     vertex  5.736963e+02  5.000000e+02  4.091165e+00
   endloop
 endfacet
 facet normal  0.000000e+00 -1.000000e+00  0.000000e+00
   outer loop
     vertex  5.644898e+02  5.000000e+02  3.190960e+00
     vertex  5.709094e+02  5.000000e+02  6.560203e+00
     vertex  5.704606e+02  5.000000e+02  7.743593e+00
   endloop
 endfacet
 facet normal  0.000000e+00 -1.000000e+00  0.000000e+00
   outer loop
     vertex  5.644898e+02  5.000000e+02  3.190960e+00
     vertex  5.704606e+02  5.000000e+02  7.743593e+00
     vertex  5.634212e+02  5.000000e+02  6.008554e+00
   endloop
 endfacet
 facet normal  0.000000e+00 -1.000000e+00  0.000000e+00
   outer loop
     vertex  5.684572e+02  5.000000e+02 -1.287298e+00
     vertex  5.736963e+02  5.000000e+02  4.091165e+00
     vertex  5.725757e+02  5.000000e+02  4.679335e+00
   endloop
 endfacet
 facet normal  0.000000e+00 -1.000000e+00  0.000000e+00
   outer loop
     vertex  5.684572e+02  5.000000e+02 -1.287298e+00
     vertex  5.711254e+02  5.000000e+02 -2.687703e+00
     vertex  5.736963e+02  5.000000e+02  4.091165e+00
   endloop
 endfacet
 facet normal  0.000000e+00 -1.000000e+00  0.000000e+00
   outer loop
     vertex  5.662016e+02  5.000000e+02  7.109668e-01
     vertex  5.725757e+02  5.000000e+02  4.679335e+00
     vertex  5.716283e+02  5.000000e+02  5.518606e+00
   endloop
 endfacet
 facet normal  0.000000e+00 -1.000000e+00  0.000000e+00
   outer loop
     vertex  5.662016e+02  5.000000e+02  7.109668e-01
     vertex  5.716283e+02  5.000000e+02  5.518606e+00
     vertex  5.709094e+02  5.000000e+02  6.560203e+00
   endloop
 endfacet
 facet normal  0.000000e+00 -1.000000e+00  0.000000e+00
   outer loop
     vertex  5.662016e+02  5.000000e+02  7.109668e-01
     vertex  5.684572e+02  5.000000e+02 -1.287298e+00
     vertex  5.725757e+02  5.000000e+02  4.679335e+00
   endloop
 endfacet
 facet normal  0.000000e+00 -1.000000e+00  0.000000e+00
   outer loop
     vertex  5.662016e+02  5.000000e+02  7.109668e-01
     vertex  5.709094e+02  5.000000e+02  6.560203e+00
     vertex  5.644898e+02  5.000000e+02  3.190960e+00
   endloop
 endfacet
 facet normal  0.000000e+00  1.000000e+00  0.000000e+00
   outer loop
     vertex  5.794877e+02  5.040000e+02  1.248139e+01
     vertex  5.849144e+02  5.040000e+02  1.728903e+01
     vertex  5.866262e+02  5.040000e+02  1.480904e+01
   endloop
 endfacet
 facet normal  0.000000e+00  1.000000e+00  0.000000e+00
   outer loop
     vertex  5.785403e+02  5.040000e+02  1.332067e+01
     vertex  5.826588e+02  5.040000e+02  1.928730e+01
     vertex  5.849144e+02  5.040000e+02  1.728903e+01
   endloop
 endfacet
 facet normal -0.000000e+00  1.000000e+00  0.000000e+00
   outer loop
     vertex  5.785403e+02  5.040000e+02  1.332067e+01
     vertex  5.849144e+02  5.040000e+02  1.728903e+01
     vertex  5.794877e+02  5.040000e+02  1.248139e+01
   endloop
 endfacet
 facet normal  0.000000e+00  1.000000e+00  0.000000e+00
   outer loop
     vertex  5.802066e+02  5.040000e+02  1.143980e+01
     vertex  5.866262e+02  5.040000e+02  1.480904e+01
     vertex  5.876948e+02  5.040000e+02  1.199145e+01
   endloop
 endfacet
 facet normal  0.000000e+00  1.000000e+00 -0.000000e+00
   outer loop
     vertex  5.802066e+02  5.040000e+02  1.143980e+01
     vertex  5.794877e+02  5.040000e+02  1.248139e+01
     vertex  5.866262e+02  5.040000e+02  1.480904e+01
   endloop
 endfacet
 facet normal  0.000000e+00  1.000000e+00  0.000000e+00
   outer loop
     vertex  5.774197e+02  5.040000e+02  1.390884e+01
     vertex  5.799906e+02  5.040000e+02  2.068770e+01
     vertex  5.826588e+02  5.040000e+02  1.928730e+01
   endloop
 endfacet
 facet normal -0.000000e+00  1.000000e+00  0.000000e+00
   outer loop
     vertex  5.774197e+02  5.040000e+02  1.390884e+01
     vertex  5.826588e+02  5.040000e+02  1.928730e+01
     vertex  5.785403e+02  5.040000e+02  1.332067e+01
   endloop
 endfacet
 facet normal -0.000000e+00  1.000000e+00  0.000000e+00
   outer loop
     vertex  5.806554e+02  5.040000e+02  1.025641e+01
     vertex  5.876948e+02  5.040000e+02  1.199145e+01
     vertex  5.880580e+02  5.040000e+02  9.000000e+00
   endloop
 endfacet
 facet normal  0.000000e+00  1.000000e+00 -0.000000e+00
   outer loop
     vertex  5.806554e+02  5.040000e+02  1.025641e+01
     vertex  5.802066e+02  5.040000e+02  1.143980e+01
     vertex  5.876948e+02  5.040000e+02  1.199145e+01
   endloop
 endfacet
 facet normal  0.000000e+00  1.000000e+00  0.000000e+00
   outer loop
     vertex  5.761908e+02  5.040000e+02  1.421172e+01
     vertex  5.770647e+02  5.040000e+02  2.140886e+01
     vertex  5.799906e+02  5.040000e+02  2.068770e+01
   endloop
 endfacet
 facet normal -0.000000e+00  1.000000e+00  0.000000e+00
   outer loop
     vertex  5.761908e+02  5.040000e+02  1.421172e+01
     vertex  5.799906e+02  5.040000e+02  2.068770e+01
     vertex  5.774197e+02  5.040000e+02  1.390884e+01
   endloop
 endfacet
 facet normal -0.000000e+00  1.000000e+00  0.000000e+00
   outer loop
     vertex  5.808080e+02  5.040000e+02  9.000000e+00
     vertex  5.880580e+02  5.040000e+02  9.000000e+00
     vertex  5.876948e+02  5.040000e+02  6.008554e+00
   endloop
 endfacet
 facet normal  0.000000e+00  1.000000e+00 -0.000000e+00
   outer loop
     vertex  5.808080e+02  5.040000e+02  9.000000e+00
     vertex  5.806554e+02  5.040000e+02  1.025641e+01
     vertex  5.880580e+02  5.040000e+02  9.000000e+00
   endloop
 endfacet
 facet normal  0.000000e+00  1.000000e+00 -0.000000e+00
   outer loop
     vertex  5.749252e+02  5.040000e+02  1.421172e+01
     vertex  5.740513e+02  5.040000e+02  2.140886e+01
     vertex  5.770647e+02  5.040000e+02  2.140886e+01
   endloop
 endfacet
 facet normal -0.000000e+00  1.000000e+00  0.000000e+00
   outer loop
     vertex  5.749252e+02  5.040000e+02  1.421172e+01
     vertex  5.770647e+02  5.040000e+02  2.140886e+01
     vertex  5.761908e+02  5.040000e+02  1.421172e+01
   endloop
 endfacet
 facet normal  0.000000e+00  1.000000e+00  0.000000e+00
   outer loop
     vertex  5.806554e+02  5.040000e+02  7.743593e+00
     vertex  5.876948e+02  5.040000e+02  6.008554e+00
     vertex  5.866262e+02  5.040000e+02  3.190960e+00
   endloop
 endfacet
 facet normal -0.000000e+00  1.000000e+00  0.000000e+00
   outer loop
     vertex  5.806554e+02  5.040000e+02  7.743593e+00
     vertex  5.808080e+02  5.040000e+02  9.000000e+00
     vertex  5.876948e+02  5.040000e+02  6.008554e+00
   endloop
 endfacet
 facet normal  0.000000e+00  1.000000e+00 -0.000000e+00
   outer loop
     vertex  5.736963e+02  5.040000e+02  1.390884e+01
     vertex  5.711254e+02  5.040000e+02  2.068770e+01
     vertex  5.740513e+02  5.040000e+02  2.140886e+01
   endloop
 endfacet
 facet normal  0.000000e+00  1.000000e+00  0.000000e+00
   outer loop
     vertex  5.736963e+02  5.040000e+02  1.390884e+01
     vertex  5.740513e+02  5.040000e+02  2.140886e+01
     vertex  5.749252e+02  5.040000e+02  1.421172e+01
   endloop
 endfacet
 facet normal -0.000000e+00  1.000000e+00  0.000000e+00
   outer loop
     vertex  5.802066e+02  5.040000e+02  6.560203e+00
     vertex  5.806554e+02  5.040000e+02  7.743593e+00
     vertex  5.866262e+02  5.040000e+02  3.190960e+00
   endloop
 endfacet
 facet normal  0.000000e+00  1.000000e+00  0.000000e+00
   outer loop
     vertex  5.725757e+02  5.040000e+02  1.332067e+01
     vertex  5.684572e+02  5.040000e+02  1.928730e+01
     vertex  5.711254e+02  5.040000e+02  2.068770e+01
   endloop
 endfacet
 facet normal  0.000000e+00  1.000000e+00 -0.000000e+00
   outer loop
     vertex  5.725757e+02  5.040000e+02  1.332067e+01
     vertex  5.711254e+02  5.040000e+02  2.068770e+01
     vertex  5.736963e+02  5.040000e+02  1.390884e+01
   endloop
 endfacet
 facet normal  0.000000e+00  1.000000e+00 -0.000000e+00
   outer loop
     vertex  5.849144e+02  5.040000e+02  7.109668e-01
     vertex  5.802066e+02  5.040000e+02  6.560203e+00
     vertex  5.866262e+02  5.040000e+02  3.190960e+00
   endloop
 endfacet
 facet normal -0.000000e+00  1.000000e+00  0.000000e+00
   outer loop
     vertex  5.794877e+02  5.040000e+02  5.518606e+00
     vertex  5.802066e+02  5.040000e+02  6.560203e+00
     vertex  5.849144e+02  5.040000e+02  7.109668e-01
   endloop
 endfacet
 facet normal  0.000000e+00  1.000000e+00 -0.000000e+00
   outer loop
     vertex  5.716283e+02  5.040000e+02  1.248139e+01
     vertex  5.684572e+02  5.040000e+02  1.928730e+01
     vertex  5.725757e+02  5.040000e+02  1.332067e+01
   endloop
 endfacet
 facet normal -0.000000e+00  1.000000e+00  0.000000e+00
   outer loop
     vertex  5.662016e+02  5.040000e+02  1.728903e+01
     vertex  5.684572e+02  5.040000e+02  1.928730e+01
     vertex  5.716283e+02  5.040000e+02  1.248139e+01
   endloop
 endfacet
 facet normal  0.000000e+00  1.000000e+00 -0.000000e+00
   outer loop
     vertex  5.709094e+02  5.040000e+02  1.143980e+01
     vertex  5.662016e+02  5.040000e+02  1.728903e+01
     vertex  5.716283e+02  5.040000e+02  1.248139e+01
   endloop
 endfacet
 facet normal  0.000000e+00  1.000000e+00  0.000000e+00
   outer loop
     vertex  5.826588e+02  5.040000e+02 -1.287298e+00
     vertex  5.785403e+02  5.040000e+02  4.679335e+00
     vertex  5.794877e+02  5.040000e+02  5.518606e+00
   endloop
 endfacet
 facet normal  0.000000e+00  1.000000e+00 -0.000000e+00
   outer loop
     vertex  5.826588e+02  5.040000e+02 -1.287298e+00
     vertex  5.794877e+02  5.040000e+02  5.518606e+00
     vertex  5.849144e+02  5.040000e+02  7.109668e-01
   endloop
 endfacet
 facet normal -0.000000e+00  1.000000e+00  0.000000e+00
   outer loop
     vertex  5.644898e+02  5.040000e+02  1.480904e+01
     vertex  5.662016e+02  5.040000e+02  1.728903e+01
     vertex  5.709094e+02  5.040000e+02  1.143980e+01
   endloop
 endfacet
 facet normal  0.000000e+00  1.000000e+00  0.000000e+00
   outer loop
     vertex  5.644898e+02  5.040000e+02  1.480904e+01
     vertex  5.709094e+02  5.040000e+02  1.143980e+01
     vertex  5.704606e+02  5.040000e+02  1.025641e+01
   endloop
 endfacet
 facet normal  0.000000e+00  1.000000e+00 -0.000000e+00
   outer loop
     vertex  5.799906e+02  5.040000e+02 -2.687703e+00
     vertex  5.785403e+02  5.040000e+02  4.679335e+00
     vertex  5.826588e+02  5.040000e+02 -1.287298e+00
   endloop
 endfacet
 facet normal  0.000000e+00  1.000000e+00  0.000000e+00
   outer loop
     vertex  5.799906e+02  5.040000e+02 -2.687703e+00
     vertex  5.774197e+02  5.040000e+02  4.091165e+00
     vertex  5.785403e+02  5.040000e+02  4.679335e+00
   endloop
 endfacet
 facet normal -0.000000e+00  1.000000e+00  0.000000e+00
   outer loop
     vertex  5.634212e+02  5.040000e+02  1.199145e+01
     vertex  5.644898e+02  5.040000e+02  1.480904e+01
     vertex  5.704606e+02  5.040000e+02  1.025641e+01
   endloop
 endfacet
 facet normal  0.000000e+00  1.000000e+00  0.000000e+00
   outer loop
     vertex  5.634212e+02  5.040000e+02  1.199145e+01
     vertex  5.704606e+02  5.040000e+02  1.025641e+01
     vertex  5.703080e+02  5.040000e+02  9.000000e+00
   endloop
 endfacet
 facet normal  0.000000e+00  1.000000e+00 -0.000000e+00
   outer loop
     vertex  5.770647e+02  5.040000e+02 -3.408861e+00
     vertex  5.761908e+02  5.040000e+02  3.788278e+00
     vertex  5.774197e+02  5.040000e+02  4.091165e+00
   endloop
 endfacet
 facet normal  0.000000e+00  1.000000e+00  0.000000e+00
   outer loop
     vertex  5.770647e+02  5.040000e+02 -3.408861e+00
     vertex  5.774197e+02  5.040000e+02  4.091165e+00
     vertex  5.799906e+02  5.040000e+02 -2.687703e+00
   endloop
 endfacet
 facet normal  0.000000e+00  1.000000e+00  0.000000e+00
   outer loop
     vertex  5.630580e+02  5.040000e+02  9.000000e+00
     vertex  5.634212e+02  5.040000e+02  1.199145e+01
     vertex  5.703080e+02  5.040000e+02  9.000000e+00
   endloop
 endfacet
 facet normal  0.000000e+00  1.000000e+00  0.000000e+00
   outer loop
     vertex  5.740513e+02  5.040000e+02 -3.408861e+00
     vertex  5.749252e+02  5.040000e+02  3.788278e+00
     vertex  5.761908e+02  5.040000e+02  3.788278e+00
   endloop
 endfacet
 facet normal  0.000000e+00  1.000000e+00  0.000000e+00
   outer loop
     vertex  5.740513e+02  5.040000e+02 -3.408861e+00
     vertex  5.761908e+02  5.040000e+02  3.788278e+00
     vertex  5.770647e+02  5.040000e+02 -3.408861e+00
   endloop
 endfacet
 facet normal  0.000000e+00  1.000000e+00  0.000000e+00
   outer loop
     vertex  5.634212e+02  5.040000e+02  6.008554e+00
     vertex  5.703080e+02  5.040000e+02  9.000000e+00
     vertex  5.704606e+02  5.040000e+02  7.743593e+00
   endloop
 endfacet
 facet normal  0.000000e+00  1.000000e+00 -0.000000e+00
   outer loop
     vertex  5.634212e+02  5.040000e+02  6.008554e+00
     vertex  5.630580e+02  5.040000e+02  9.000000e+00
     vertex  5.703080e+02  5.040000e+02  9.000000e+00
   endloop
 endfacet
 facet normal -0.000000e+00  1.000000e+00  0.000000e+00
   outer loop
     vertex  5.711254e+02  5.040000e+02 -2.687703e+00
     vertex  5.749252e+02  5.040000e+02  3.788278e+00
     vertex  5.740513e+02  5.040000e+02 -3.408861e+00
   endloop
 endfacet
 facet normal  0.000000e+00  1.000000e+00  0.000000e+00
   outer loop
     vertex  5.711254e+02  5.040000e+02 -2.687703e+00
     vertex  5.736963e+02  5.040000e+02  4.091165e+00
     vertex  5.749252e+02  5.040000e+02  3.788278e+00
   endloop
 endfacet
 facet normal  0.000000e+00  1.000000e+00  0.000000e+00
   outer loop
     vertex  5.644898e+02  5.040000e+02  3.190960e+00
     vertex  5.704606e+02  5.040000e+02  7.743593e+00
     vertex  5.709094e+02  5.040000e+02  6.560203e+00
   endloop
 endfacet
 facet normal  0.000000e+00  1.000000e+00  0.000000e+00
   outer loop
     vertex  5.644898e+02  5.040000e+02  3.190960e+00
     vertex  5.709094e+02  5.040000e+02  6.560203e+00
     vertex  5.716283e+02  5.040000e+02  5.518606e+00
   endloop
 endfacet
 facet normal  0.000000e+00  1.000000e+00 -0.000000e+00
   outer loop
     vertex  5.644898e+02  5.040000e+02  3.190960e+00
     vertex  5.634212e+02  5.040000e+02  6.008554e+00
     vertex  5.704606e+02  5.040000e+02  7.743593e+00
   endloop
 endfacet
 facet normal -0.000000e+00  1.000000e+00  0.000000e+00
   outer loop
     vertex  5.684572e+02  5.040000e+02 -1.287298e+00
     vertex  5.736963e+02  5.040000e+02  4.091165e+00
     vertex  5.711254e+02  5.040000e+02 -2.687703e+00
   endloop
 endfacet
 facet normal  0.000000e+00  1.000000e+00  0.000000e+00
   outer loop
     vertex  5.684572e+02  5.040000e+02 -1.287298e+00
     vertex  5.725757e+02  5.040000e+02  4.679335e+00
     vertex  5.736963e+02  5.040000e+02  4.091165e+00
   endloop
 endfacet
 facet normal -0.000000e+00  1.000000e+00  0.000000e+00
   outer loop
     vertex  5.662016e+02  5.040000e+02  7.109668e-01
     vertex  5.725757e+02  5.040000e+02  4.679335e+00
     vertex  5.684572e+02  5.040000e+02 -1.287298e+00
   endloop
 endfacet
 facet normal  0.000000e+00  1.000000e+00  0.000000e+00
   outer loop
     vertex  5.662016e+02  5.040000e+02  7.109668e-01
     vertex  5.716283e+02  5.040000e+02  5.518606e+00
     vertex  5.725757e+02  5.040000e+02  4.679335e+00
   endloop
 endfacet
 facet normal  0.000000e+00  1.000000e+00 -0.000000e+00
   outer loop
     vertex  5.662016e+02  5.040000e+02  7.109668e-01
     vertex  5.644898e+02  5.040000e+02  3.190960e+00
     vertex  5.716283e+02  5.040000e+02  5.518606e+00
   endloop
 endfacet
endsolid
