solid 
 facet normal -8.921670e-01 -3.169614e-13  4.517058e-01
   outer loop
     vertex -3.765088e+02  5.042000e+02 -2.631763e+02
     vertex -3.760515e+02  5.050000e+02 -2.622730e+02
     vertex -3.765088e+02  5.050000e+02 -2.631763e+02
   endloop
 endfacet
 facet normal -9.743425e-01 -3.461560e-13  2.250705e-01
   outer loop
     vertex -3.760515e+02  5.042000e+02 -2.622730e+02
     vertex -3.758236e+02  5.050000e+02 -2.612864e+02
     vertex -3.760515e+02  5.050000e+02 -2.622730e+02
   endloop
 endfacet
 facet normal -8.921670e-01 -3.169614e-13  4.517058e-01
   outer loop
     vertex -3.760515e+02  5.042000e+02 -2.622730e+02
     vertex -3.760515e+02  5.050000e+02 -2.622730e+02
     vertex -3.765088e+02  5.042000e+02 -2.631763e+02
   endloop
 endfacet
 facet normal -9.998928e-01 -3.562739e-13 -1.464508e-02
   outer loop
     vertex -3.758236e+02  5.042000e+02 -2.612864e+02
     vertex -3.758384e+02  5.050000e+02 -2.602740e+02
     vertex -3.758236e+02  5.050000e+02 -2.612864e+02
   endloop
 endfacet
 facet normal -9.743425e-01 -3.301638e-13  2.250705e-01
   outer loop
     vertex -3.758236e+02  5.042000e+02 -2.612864e+02
     vertex -3.758236e+02  5.050000e+02 -2.612864e+02
     vertex -3.760515e+02  5.042000e+02 -2.622730e+02
   endloop
 endfacet
 facet normal -9.673329e-01 -4.123988e-13 -2.535095e-01
   outer loop
     vertex -3.758384e+02  5.042000e+02 -2.602740e+02
     vertex -3.760951e+02  5.050000e+02 -2.592946e+02
     vertex -3.758384e+02  5.050000e+02 -2.602740e+02
   endloop
 endfacet
 facet normal -9.998928e-01 -4.262799e-13 -1.464508e-02
   outer loop
     vertex -3.758384e+02  5.042000e+02 -2.602740e+02
     vertex -3.758384e+02  5.050000e+02 -2.602740e+02
     vertex -3.758236e+02  5.042000e+02 -2.612864e+02
   endloop
 endfacet
 facet normal -8.785552e-01 -3.121255e-13 -4.776409e-01
   outer loop
     vertex -3.760951e+02  5.042000e+02 -2.592946e+02
     vertex -3.765787e+02  5.050000e+02 -2.584051e+02
     vertex -3.760951e+02  5.050000e+02 -2.592946e+02
   endloop
 endfacet
 facet normal -9.673329e-01 -3.436657e-13 -2.535095e-01
   outer loop
     vertex -3.760951e+02  5.042000e+02 -2.592946e+02
     vertex -3.760951e+02  5.050000e+02 -2.592946e+02
     vertex -3.758384e+02  5.042000e+02 -2.602740e+02
   endloop
 endfacet
 facet normal -7.387190e-01 -2.053590e-13 -6.740135e-01
   outer loop
     vertex -3.765787e+02  5.042000e+02 -2.584051e+02
     vertex -3.772612e+02  5.050000e+02 -2.576571e+02
     vertex -3.765787e+02  5.050000e+02 -2.584051e+02
   endloop
 endfacet
 facet normal -8.785552e-01 -2.212137e-13 -4.776409e-01
   outer loop
     vertex -3.765787e+02  5.042000e+02 -2.584051e+02
     vertex -3.765787e+02  5.050000e+02 -2.584051e+02
     vertex -3.760951e+02  5.042000e+02 -2.592946e+02
   endloop
 endfacet
 facet normal -5.559512e-01 -1.975135e-13 -8.312150e-01
   outer loop
     vertex -3.772612e+02  5.042000e+02 -2.576571e+02
     vertex -3.781028e+02  5.050000e+02 -2.570942e+02
     vertex -3.772612e+02  5.050000e+02 -2.576571e+02
   endloop
 endfacet
 facet normal -7.387190e-01 -2.624457e-13 -6.740135e-01
   outer loop
     vertex -3.772612e+02  5.042000e+02 -2.576571e+02
     vertex -3.772612e+02  5.050000e+02 -2.576571e+02
     vertex -3.765787e+02  5.042000e+02 -2.584051e+02
   endloop
 endfacet
 facet normal -3.408735e-01 -1.453231e-13 -9.401092e-01
   outer loop
     vertex -3.781028e+02  5.042000e+02 -2.570942e+02
     vertex -3.790546e+02  5.050000e+02 -2.567491e+02
     vertex -3.781028e+02  5.050000e+02 -2.570942e+02
   endloop
 endfacet
 facet normal -5.559512e-01 -2.370162e-13 -8.312150e-01
   outer loop
     vertex -3.781028e+02  5.042000e+02 -2.570942e+02
     vertex -3.781028e+02  5.050000e+02 -2.570942e+02
     vertex -3.772612e+02  5.042000e+02 -2.576571e+02
   endloop
 endfacet
 facet normal -1.059854e-01 -7.818479e-14 -9.943677e-01
   outer loop
     vertex -3.790546e+02  5.042000e+02 -2.567491e+02
     vertex -3.800614e+02  5.050000e+02 -2.566418e+02
     vertex -3.790546e+02  5.050000e+02 -2.567491e+02
   endloop
 endfacet
 facet normal -3.408735e-01 -9.101929e-14 -9.401092e-01
   outer loop
     vertex -3.790546e+02  5.042000e+02 -2.567491e+02
     vertex -3.790546e+02  5.050000e+02 -2.567491e+02
     vertex -3.781028e+02  5.042000e+02 -2.570942e+02
   endloop
 endfacet
 facet normal  1.350621e-01  4.798368e-14 -9.908371e-01
   outer loop
     vertex -3.800614e+02  5.042000e+02 -2.566418e+02
     vertex -3.810647e+02  5.050000e+02 -2.567785e+02
     vertex -3.800614e+02  5.050000e+02 -2.566418e+02
   endloop
 endfacet
 facet normal -1.059854e-01 -3.765360e-14 -9.943677e-01
   outer loop
     vertex -3.800614e+02  5.042000e+02 -2.566418e+02
     vertex -3.800614e+02  5.050000e+02 -2.566418e+02
     vertex -3.790546e+02  5.042000e+02 -2.567491e+02
   endloop
 endfacet
 facet normal  3.682602e-01  2.367874e-13 -9.297227e-01
   outer loop
     vertex -3.810647e+02  5.042000e+02 -2.567785e+02
     vertex -3.820060e+02  5.050000e+02 -2.571514e+02
     vertex -3.810647e+02  5.050000e+02 -2.567785e+02
   endloop
 endfacet
 facet normal  1.350621e-01  1.791934e-13 -9.908371e-01
   outer loop
     vertex -3.810647e+02  5.042000e+02 -2.567785e+02
     vertex -3.810647e+02  5.050000e+02 -2.567785e+02
     vertex -3.800614e+02  5.042000e+02 -2.566418e+02
   endloop
 endfacet
 facet normal  3.682602e-01  1.308323e-13 -9.297227e-01
   outer loop
     vertex -3.820060e+02  5.042000e+02 -2.571514e+02
     vertex -3.820060e+02  5.050000e+02 -2.571514e+02
     vertex -3.810647e+02  5.042000e+02 -2.567785e+02
   endloop
 endfacet
 facet normal  5.800565e-01  2.060775e-13 -8.145762e-01
   outer loop
     vertex -3.820060e+02  5.042000e+02 -2.571514e+02
     vertex -3.828308e+02  5.050000e+02 -2.577387e+02
     vertex -3.820060e+02  5.050000e+02 -2.571514e+02
   endloop
 endfacet
 facet normal  5.800565e-01  6.576735e-14 -8.145762e-01
   outer loop
     vertex -3.828308e+02  5.042000e+02 -2.577387e+02
     vertex -3.828308e+02  5.050000e+02 -2.577387e+02
     vertex -3.820060e+02  5.042000e+02 -2.571514e+02
   endloop
 endfacet
 facet normal  7.581420e-01  1.152739e-13 -6.520895e-01
   outer loop
     vertex -3.828308e+02  5.042000e+02 -2.577387e+02
     vertex -3.834910e+02  5.050000e+02 -2.585063e+02
     vertex -3.828308e+02  5.050000e+02 -2.577387e+02
   endloop
 endfacet
 facet normal  7.581420e-01  2.693461e-13 -6.520895e-01
   outer loop
     vertex -3.834910e+02  5.042000e+02 -2.585063e+02
     vertex -3.834910e+02  5.050000e+02 -2.585063e+02
     vertex -3.828308e+02  5.042000e+02 -2.577387e+02
   endloop
 endfacet
 facet normal  8.921670e-01  3.169614e-13 -4.517058e-01
   outer loop
     vertex -3.834910e+02  5.042000e+02 -2.585063e+02
     vertex -3.839484e+02  5.050000e+02 -2.594096e+02
     vertex -3.834910e+02  5.050000e+02 -2.585063e+02
   endloop
 endfacet
 facet normal  8.921670e-01  4.445449e-13 -4.517058e-01
   outer loop
     vertex -3.839484e+02  5.042000e+02 -2.594096e+02
     vertex -3.839484e+02  5.050000e+02 -2.594096e+02
     vertex -3.834910e+02  5.042000e+02 -2.585063e+02
   endloop
 endfacet
 facet normal  9.743425e-01  4.473778e-13 -2.250705e-01
   outer loop
     vertex -3.841763e+02  5.042000e+02 -2.603962e+02
     vertex -3.839484e+02  5.050000e+02 -2.594096e+02
     vertex -3.839484e+02  5.042000e+02 -2.594096e+02
   endloop
 endfacet
 facet normal  9.743425e-01  4.473716e-13 -2.250705e-01
   outer loop
     vertex -3.841763e+02  5.042000e+02 -2.603962e+02
     vertex -3.841763e+02  5.050000e+02 -2.603962e+02
     vertex -3.839484e+02  5.050000e+02 -2.594096e+02
   endloop
 endfacet
 facet normal  9.998928e-01  4.241987e-13  1.464508e-02
   outer loop
     vertex -3.841763e+02  5.042000e+02 -2.603962e+02
     vertex -3.841615e+02  5.050000e+02 -2.614086e+02
     vertex -3.841763e+02  5.050000e+02 -2.603962e+02
   endloop
 endfacet
 facet normal  9.998928e-01  3.552333e-13  1.464508e-02
   outer loop
     vertex -3.841615e+02  5.042000e+02 -2.614086e+02
     vertex -3.841615e+02  5.050000e+02 -2.614086e+02
     vertex -3.841763e+02  5.042000e+02 -2.603962e+02
   endloop
 endfacet
 facet normal  9.673329e-01  3.436657e-13  2.535095e-01
   outer loop
     vertex -3.841615e+02  5.042000e+02 -2.614086e+02
     vertex -3.839048e+02  5.050000e+02 -2.623880e+02
     vertex -3.841615e+02  5.050000e+02 -2.614086e+02
   endloop
 endfacet
 facet normal  9.673329e-01  4.123988e-13  2.535095e-01
   outer loop
     vertex -3.839048e+02  5.042000e+02 -2.623880e+02
     vertex -3.839048e+02  5.050000e+02 -2.623880e+02
     vertex -3.841615e+02  5.042000e+02 -2.614086e+02
   endloop
 endfacet
 facet normal  8.785552e-01  3.745506e-13  4.776409e-01
   outer loop
     vertex -3.839048e+02  5.042000e+02 -2.623880e+02
     vertex -3.834212e+02  5.050000e+02 -2.632775e+02
     vertex -3.839048e+02  5.050000e+02 -2.623880e+02
   endloop
 endfacet
 facet normal  8.785552e-01  3.121255e-13  4.776409e-01
   outer loop
     vertex -3.834212e+02  5.042000e+02 -2.632775e+02
     vertex -3.834212e+02  5.050000e+02 -2.632775e+02
     vertex -3.839048e+02  5.042000e+02 -2.623880e+02
   endloop
 endfacet
 facet normal  7.387190e-01  2.624457e-13  6.740135e-01
   outer loop
     vertex -3.834212e+02  5.042000e+02 -2.632775e+02
     vertex -3.827387e+02  5.050000e+02 -2.640255e+02
     vertex -3.834212e+02  5.050000e+02 -2.632775e+02
   endloop
 endfacet
 facet normal  7.387190e-01  2.624457e-13  6.740135e-01
   outer loop
     vertex -3.827387e+02  5.042000e+02 -2.640255e+02
     vertex -3.827387e+02  5.050000e+02 -2.640255e+02
     vertex -3.834212e+02  5.042000e+02 -2.632775e+02
   endloop
 endfacet
 facet normal  5.559512e-01  1.975135e-13  8.312150e-01
   outer loop
     vertex -3.827387e+02  5.042000e+02 -2.640255e+02
     vertex -3.818971e+02  5.050000e+02 -2.645884e+02
     vertex -3.827387e+02  5.050000e+02 -2.640255e+02
   endloop
 endfacet
 facet normal  5.559512e-01  1.975135e-13  8.312150e-01
   outer loop
     vertex -3.818971e+02  5.042000e+02 -2.645884e+02
     vertex -3.818971e+02  5.050000e+02 -2.645884e+02
     vertex -3.827387e+02  5.042000e+02 -2.640255e+02
   endloop
 endfacet
 facet normal  3.408735e-01  1.211026e-13  9.401092e-01
   outer loop
     vertex -3.818971e+02  5.042000e+02 -2.645884e+02
     vertex -3.809452e+02  5.050000e+02 -2.649335e+02
     vertex -3.818971e+02  5.050000e+02 -2.645884e+02
   endloop
 endfacet
 facet normal  3.408735e-01  1.453231e-13  9.401092e-01
   outer loop
     vertex -3.809452e+02  5.042000e+02 -2.649335e+02
     vertex -3.809452e+02  5.050000e+02 -2.649335e+02
     vertex -3.818971e+02  5.042000e+02 -2.645884e+02
   endloop
 endfacet
 facet normal  1.059854e-01  4.517635e-14  9.943677e-01
   outer loop
     vertex -3.799384e+02  5.042000e+02 -2.650408e+02
     vertex -3.809452e+02  5.050000e+02 -2.649335e+02
     vertex -3.809452e+02  5.042000e+02 -2.649335e+02
   endloop
 endfacet
 facet normal  1.059854e-01  3.765360e-14  9.943677e-01
   outer loop
     vertex -3.799384e+02  5.042000e+02 -2.650408e+02
     vertex -3.799384e+02  5.050000e+02 -2.650408e+02
     vertex -3.809452e+02  5.050000e+02 -2.649335e+02
   endloop
 endfacet
 facet normal -1.350621e-01 -4.798368e-14  9.908371e-01
   outer loop
     vertex -3.799384e+02  5.042000e+02 -2.650408e+02
     vertex -3.789352e+02  5.050000e+02 -2.649041e+02
     vertex -3.799384e+02  5.050000e+02 -2.650408e+02
   endloop
 endfacet
 facet normal -1.350621e-01  3.226059e-15  9.908371e-01
   outer loop
     vertex -3.789352e+02  5.042000e+02 -2.649041e+02
     vertex -3.789352e+02  5.050000e+02 -2.649041e+02
     vertex -3.799384e+02  5.042000e+02 -2.650408e+02
   endloop
 endfacet
 facet normal -3.682602e-01 -1.171045e-13  9.297227e-01
   outer loop
     vertex -3.789352e+02  5.042000e+02 -2.649041e+02
     vertex -3.779938e+02  5.050000e+02 -2.645312e+02
     vertex -3.789352e+02  5.050000e+02 -2.649041e+02
   endloop
 endfacet
 facet normal -3.682602e-01 -9.093801e-14  9.297227e-01
   outer loop
     vertex -3.779938e+02  5.042000e+02 -2.645312e+02
     vertex -3.779938e+02  5.050000e+02 -2.645312e+02
     vertex -3.789352e+02  5.042000e+02 -2.649041e+02
   endloop
 endfacet
 facet normal -5.800565e-01 -2.060775e-13  8.145762e-01
   outer loop
     vertex -3.771691e+02  5.042000e+02 -2.639439e+02
     vertex -3.771691e+02  5.050000e+02 -2.639439e+02
     vertex -3.779938e+02  5.050000e+02 -2.645312e+02
   endloop
 endfacet
 facet normal -7.581420e-01 -2.693461e-13  6.520895e-01
   outer loop
     vertex -3.771691e+02  5.042000e+02 -2.639439e+02
     vertex -3.765088e+02  5.050000e+02 -2.631763e+02
     vertex -3.771691e+02  5.050000e+02 -2.639439e+02
   endloop
 endfacet
 facet normal -5.800565e-01 -1.893810e-13  8.145762e-01
   outer loop
     vertex -3.771691e+02  5.042000e+02 -2.639439e+02
     vertex -3.779938e+02  5.050000e+02 -2.645312e+02
     vertex -3.779938e+02  5.042000e+02 -2.645312e+02
   endloop
 endfacet
 facet normal -7.581420e-01 -2.693461e-13  6.520895e-01
   outer loop
     vertex -3.765088e+02  5.042000e+02 -2.631763e+02
     vertex -3.765088e+02  5.050000e+02 -2.631763e+02
     vertex -3.771691e+02  5.042000e+02 -2.639439e+02
   endloop
 endfacet
 facet normal  8.921670e-01  3.169465e-13 -4.517058e-01
   outer loop
     vertex -3.738892e+02  5.042000e+02 -2.630570e+02
     vertex -3.745970e+02  5.042000e+02 -2.644550e+02
     vertex -3.745970e+02  5.050000e+02 -2.644550e+02
   endloop
 endfacet
 facet normal  8.921670e-01  2.848658e-13 -4.517058e-01
   outer loop
     vertex -3.738892e+02  5.042000e+02 -2.630570e+02
     vertex -3.745970e+02  5.050000e+02 -2.644550e+02
     vertex -3.738892e+02  5.050000e+02 -2.630570e+02
   endloop
 endfacet
 facet normal  9.743425e-01  4.153872e-13 -2.250705e-01
   outer loop
     vertex -3.735365e+02  5.042000e+02 -2.615302e+02
     vertex -3.738892e+02  5.050000e+02 -2.630570e+02
     vertex -3.735365e+02  5.050000e+02 -2.615302e+02
   endloop
 endfacet
 facet normal  9.743425e-01  3.301461e-13 -2.250705e-01
   outer loop
     vertex -3.735365e+02  5.042000e+02 -2.615302e+02
     vertex -3.738892e+02  5.042000e+02 -2.630570e+02
     vertex -3.738892e+02  5.050000e+02 -2.630570e+02
   endloop
 endfacet
 facet normal  9.998928e-01  3.552333e-13  1.464508e-02
   outer loop
     vertex -3.735595e+02  5.042000e+02 -2.599634e+02
     vertex -3.735365e+02  5.050000e+02 -2.615302e+02
     vertex -3.735595e+02  5.050000e+02 -2.599634e+02
   endloop
 endfacet
 facet normal  9.998928e-01  4.262823e-13  1.464508e-02
   outer loop
     vertex -3.735595e+02  5.042000e+02 -2.599634e+02
     vertex -3.735365e+02  5.042000e+02 -2.615302e+02
     vertex -3.735365e+02  5.050000e+02 -2.615302e+02
   endloop
 endfacet
 facet normal  9.673329e-01  3.436657e-13  2.535095e-01
   outer loop
     vertex -3.739567e+02  5.042000e+02 -2.584476e+02
     vertex -3.735595e+02  5.050000e+02 -2.599634e+02
     vertex -3.739567e+02  5.050000e+02 -2.584476e+02
   endloop
 endfacet
 facet normal  9.673329e-01  3.436874e-13  2.535095e-01
   outer loop
     vertex -3.739567e+02  5.042000e+02 -2.584476e+02
     vertex -3.735595e+02  5.042000e+02 -2.599634e+02
     vertex -3.735595e+02  5.050000e+02 -2.599634e+02
   endloop
 endfacet
 facet normal  8.785552e-01  3.121255e-13  4.776409e-01
   outer loop
     vertex -3.747052e+02  5.042000e+02 -2.570709e+02
     vertex -3.739567e+02  5.050000e+02 -2.584476e+02
     vertex -3.747052e+02  5.050000e+02 -2.570709e+02
   endloop
 endfacet
 facet normal  8.785552e-01  3.120623e-13  4.776409e-01
   outer loop
     vertex -3.747052e+02  5.042000e+02 -2.570709e+02
     vertex -3.739567e+02  5.042000e+02 -2.584476e+02
     vertex -3.739567e+02  5.050000e+02 -2.584476e+02
   endloop
 endfacet
 facet normal  7.387190e-01  2.624457e-13  6.740135e-01
   outer loop
     vertex -3.757614e+02  5.042000e+02 -2.559134e+02
     vertex -3.747052e+02  5.050000e+02 -2.570709e+02
     vertex -3.757614e+02  5.050000e+02 -2.559134e+02
   endloop
 endfacet
 facet normal  7.387190e-01  2.624205e-13  6.740135e-01
   outer loop
     vertex -3.757614e+02  5.042000e+02 -2.559134e+02
     vertex -3.747052e+02  5.042000e+02 -2.570709e+02
     vertex -3.747052e+02  5.050000e+02 -2.570709e+02
   endloop
 endfacet
 facet normal  5.559512e-01  1.975135e-13  8.312150e-01
   outer loop
     vertex -3.770638e+02  5.042000e+02 -2.550422e+02
     vertex -3.757614e+02  5.050000e+02 -2.559134e+02
     vertex -3.770638e+02  5.050000e+02 -2.550422e+02
   endloop
 endfacet
 facet normal  5.559512e-01  1.975460e-13  8.312150e-01
   outer loop
     vertex -3.770638e+02  5.042000e+02 -2.550422e+02
     vertex -3.757614e+02  5.042000e+02 -2.559134e+02
     vertex -3.757614e+02  5.050000e+02 -2.559134e+02
   endloop
 endfacet
 facet normal  3.408735e-01  1.453231e-13  9.401092e-01
   outer loop
     vertex -3.785370e+02  5.042000e+02 -2.545081e+02
     vertex -3.770638e+02  5.050000e+02 -2.550422e+02
     vertex -3.785370e+02  5.050000e+02 -2.545081e+02
   endloop
 endfacet
 facet normal  3.408735e-01  1.211022e-13  9.401092e-01
   outer loop
     vertex -3.785370e+02  5.042000e+02 -2.545081e+02
     vertex -3.770638e+02  5.042000e+02 -2.550422e+02
     vertex -3.770638e+02  5.050000e+02 -2.550422e+02
   endloop
 endfacet
 facet normal  1.059854e-01  3.765360e-14  9.943677e-01
   outer loop
     vertex -3.800951e+02  5.042000e+02 -2.543420e+02
     vertex -3.785370e+02  5.050000e+02 -2.545081e+02
     vertex -3.800951e+02  5.050000e+02 -2.543420e+02
   endloop
 endfacet
 facet normal  1.059854e-01  4.519370e-14  9.943677e-01
   outer loop
     vertex -3.800951e+02  5.042000e+02 -2.543420e+02
     vertex -3.785370e+02  5.042000e+02 -2.545081e+02
     vertex -3.785370e+02  5.050000e+02 -2.545081e+02
   endloop
 endfacet
 facet normal -1.350621e-01 -1.278208e-14  9.908371e-01
   outer loop
     vertex -3.816477e+02  5.042000e+02 -2.545536e+02
     vertex -3.800951e+02  5.050000e+02 -2.543420e+02
     vertex -3.816477e+02  5.050000e+02 -2.545536e+02
   endloop
 endfacet
 facet normal -1.350621e-01 -4.798127e-14  9.908371e-01
   outer loop
     vertex -3.816477e+02  5.042000e+02 -2.545536e+02
     vertex -3.800951e+02  5.042000e+02 -2.543420e+02
     vertex -3.800951e+02  5.050000e+02 -2.543420e+02
   endloop
 endfacet
 facet normal -3.682602e-01 -9.783125e-14  9.297227e-01
   outer loop
     vertex -3.831046e+02  5.042000e+02 -2.551307e+02
     vertex -3.816477e+02  5.042000e+02 -2.545536e+02
     vertex -3.816477e+02  5.050000e+02 -2.545536e+02
   endloop
 endfacet
 facet normal -3.682602e-01 -1.308323e-13  9.297227e-01
   outer loop
     vertex -3.831046e+02  5.042000e+02 -2.551307e+02
     vertex -3.816477e+02  5.050000e+02 -2.545536e+02
     vertex -3.831046e+02  5.050000e+02 -2.551307e+02
   endloop
 endfacet
 facet normal -5.800565e-01 -2.059980e-13  8.145762e-01
   outer loop
     vertex -3.843810e+02  5.042000e+02 -2.560396e+02
     vertex -3.831046e+02  5.042000e+02 -2.551307e+02
     vertex -3.831046e+02  5.050000e+02 -2.551307e+02
   endloop
 endfacet
 facet normal -5.800565e-01 -2.060775e-13  8.145762e-01
   outer loop
     vertex -3.843810e+02  5.042000e+02 -2.560396e+02
     vertex -3.831046e+02  5.050000e+02 -2.551307e+02
     vertex -3.843810e+02  5.050000e+02 -2.560396e+02
   endloop
 endfacet
 facet normal -7.581420e-01 -2.692656e-13  6.520895e-01
   outer loop
     vertex -3.854028e+02  5.042000e+02 -2.572276e+02
     vertex -3.843810e+02  5.042000e+02 -2.560396e+02
     vertex -3.843810e+02  5.050000e+02 -2.560396e+02
   endloop
 endfacet
 facet normal -7.581420e-01 -2.693461e-13  6.520895e-01
   outer loop
     vertex -3.854028e+02  5.042000e+02 -2.572276e+02
     vertex -3.843810e+02  5.050000e+02 -2.560396e+02
     vertex -3.854028e+02  5.050000e+02 -2.572276e+02
   endloop
 endfacet
 facet normal -8.921670e-01 -3.169370e-13  4.517058e-01
   outer loop
     vertex -3.861106e+02  5.042000e+02 -2.586256e+02
     vertex -3.854028e+02  5.042000e+02 -2.572276e+02
     vertex -3.854028e+02  5.050000e+02 -2.572276e+02
   endloop
 endfacet
 facet normal -8.921670e-01 -2.848658e-13  4.517058e-01
   outer loop
     vertex -3.861106e+02  5.042000e+02 -2.586256e+02
     vertex -3.854028e+02  5.050000e+02 -2.572276e+02
     vertex -3.861106e+02  5.050000e+02 -2.586256e+02
   endloop
 endfacet
 facet normal -9.743425e-01 -3.301954e-13  2.250705e-01
   outer loop
     vertex -3.864633e+02  5.042000e+02 -2.601524e+02
     vertex -3.861106e+02  5.042000e+02 -2.586256e+02
     vertex -3.861106e+02  5.050000e+02 -2.586256e+02
   endloop
 endfacet
 facet normal -9.743425e-01 -3.461560e-13  2.250705e-01
   outer loop
     vertex -3.864633e+02  5.042000e+02 -2.601524e+02
     vertex -3.861106e+02  5.050000e+02 -2.586256e+02
     vertex -3.864633e+02  5.050000e+02 -2.601524e+02
   endloop
 endfacet
 facet normal -9.998928e-01 -3.552309e-13 -1.464508e-02
   outer loop
     vertex -3.864404e+02  5.042000e+02 -2.617192e+02
     vertex -3.864633e+02  5.042000e+02 -2.601524e+02
     vertex -3.864633e+02  5.050000e+02 -2.601524e+02
   endloop
 endfacet
 facet normal -9.998928e-01 -4.262799e-13 -1.464508e-02
   outer loop
     vertex -3.864404e+02  5.042000e+02 -2.617192e+02
     vertex -3.864633e+02  5.050000e+02 -2.601524e+02
     vertex -3.864404e+02  5.050000e+02 -2.617192e+02
   endloop
 endfacet
 facet normal -9.673329e-01 -4.124312e-13 -2.535095e-01
   outer loop
     vertex -3.860431e+02  5.042000e+02 -2.632350e+02
     vertex -3.864404e+02  5.042000e+02 -2.617192e+02
     vertex -3.864404e+02  5.050000e+02 -2.617192e+02
   endloop
 endfacet
 facet normal -9.673329e-01 -3.436657e-13 -2.535095e-01
   outer loop
     vertex -3.860431e+02  5.042000e+02 -2.632350e+02
     vertex -3.864404e+02  5.050000e+02 -2.617192e+02
     vertex -3.860431e+02  5.050000e+02 -2.632350e+02
   endloop
 endfacet
 facet normal -8.785552e-01 -3.121887e-13 -4.776409e-01
   outer loop
     vertex -3.852947e+02  5.042000e+02 -2.646117e+02
     vertex -3.860431e+02  5.042000e+02 -2.632350e+02
     vertex -3.860431e+02  5.050000e+02 -2.632350e+02
   endloop
 endfacet
 facet normal -7.387190e-01 -2.624457e-13 -6.740135e-01
   outer loop
     vertex -3.852947e+02  5.042000e+02 -2.646117e+02
     vertex -3.852947e+02  5.050000e+02 -2.646117e+02
     vertex -3.842385e+02  5.050000e+02 -2.657692e+02
   endloop
 endfacet
 facet normal -8.785552e-01 -3.121255e-13 -4.776409e-01
   outer loop
     vertex -3.852947e+02  5.042000e+02 -2.646117e+02
     vertex -3.860431e+02  5.050000e+02 -2.632350e+02
     vertex -3.852947e+02  5.050000e+02 -2.646117e+02
   endloop
 endfacet
 facet normal -7.387190e-01 -3.149348e-13 -6.740135e-01
   outer loop
     vertex -3.842385e+02  5.042000e+02 -2.657692e+02
     vertex -3.852947e+02  5.042000e+02 -2.646117e+02
     vertex -3.842385e+02  5.050000e+02 -2.657692e+02
   endloop
 endfacet
 facet normal -3.408735e-01 -1.211026e-13 -9.401092e-01
   outer loop
     vertex -3.829360e+02  5.042000e+02 -2.666404e+02
     vertex -3.829360e+02  5.050000e+02 -2.666404e+02
     vertex -3.814629e+02  5.050000e+02 -2.671745e+02
   endloop
 endfacet
 facet normal -5.559512e-01 -1.975135e-13 -8.312150e-01
   outer loop
     vertex -3.829360e+02  5.042000e+02 -2.666404e+02
     vertex -3.842385e+02  5.050000e+02 -2.657692e+02
     vertex -3.829360e+02  5.050000e+02 -2.666404e+02
   endloop
 endfacet
 facet normal -5.559512e-01 -2.369714e-13 -8.312150e-01
   outer loop
     vertex -3.829360e+02  5.042000e+02 -2.666404e+02
     vertex -3.842385e+02  5.042000e+02 -2.657692e+02
     vertex -3.842385e+02  5.050000e+02 -2.657692e+02
   endloop
 endfacet
 facet normal -3.408735e-01 -1.211026e-13 -9.401092e-01
   outer loop
     vertex -3.814629e+02  5.042000e+02 -2.671745e+02
     vertex -3.829360e+02  5.042000e+02 -2.666404e+02
     vertex -3.814629e+02  5.050000e+02 -2.671745e+02
   endloop
 endfacet
 facet normal -1.059854e-01 -3.765360e-14 -9.943677e-01
   outer loop
     vertex -3.799047e+02  5.042000e+02 -2.673406e+02
     vertex -3.814629e+02  5.050000e+02 -2.671745e+02
     vertex -3.799047e+02  5.050000e+02 -2.673406e+02
   endloop
 endfacet
 facet normal -1.059854e-01 -3.767569e-14 -9.943677e-01
   outer loop
     vertex -3.799047e+02  5.042000e+02 -2.673406e+02
     vertex -3.814629e+02  5.042000e+02 -2.671745e+02
     vertex -3.814629e+02  5.050000e+02 -2.671745e+02
   endloop
 endfacet
 facet normal  3.682602e-01  1.308323e-13 -9.297227e-01
   outer loop
     vertex -3.783521e+02  5.042000e+02 -2.671290e+02
     vertex -3.783521e+02  5.050000e+02 -2.671290e+02
     vertex -3.768953e+02  5.050000e+02 -2.665519e+02
   endloop
 endfacet
 facet normal  1.350621e-01  4.798368e-14 -9.908371e-01
   outer loop
     vertex -3.783521e+02  5.042000e+02 -2.671290e+02
     vertex -3.799047e+02  5.050000e+02 -2.673406e+02
     vertex -3.783521e+02  5.050000e+02 -2.671290e+02
   endloop
 endfacet
 facet normal  1.350621e-01  4.796315e-14 -9.908371e-01
   outer loop
     vertex -3.783521e+02  5.042000e+02 -2.671290e+02
     vertex -3.799047e+02  5.042000e+02 -2.673406e+02
     vertex -3.799047e+02  5.050000e+02 -2.673406e+02
   endloop
 endfacet
 facet normal  3.682602e-01  1.308323e-13 -9.297227e-01
   outer loop
     vertex -3.768953e+02  5.042000e+02 -2.665519e+02
     vertex -3.783521e+02  5.042000e+02 -2.671290e+02
     vertex -3.768953e+02  5.050000e+02 -2.665519e+02
   endloop
 endfacet
 facet normal  5.800565e-01  1.481983e-13 -8.145762e-01
   outer loop
     vertex -3.756188e+02  5.042000e+02 -2.656430e+02
     vertex -3.768953e+02  5.050000e+02 -2.665519e+02
     vertex -3.756188e+02  5.050000e+02 -2.656430e+02
   endloop
 endfacet
 facet normal  5.800565e-01  2.061028e-13 -8.145762e-01
   outer loop
     vertex -3.756188e+02  5.042000e+02 -2.656430e+02
     vertex -3.768953e+02  5.042000e+02 -2.665519e+02
     vertex -3.768953e+02  5.050000e+02 -2.665519e+02
   endloop
 endfacet
 facet normal  7.581420e-01  2.693461e-13 -6.520895e-01
   outer loop
     vertex -3.745970e+02  5.042000e+02 -2.644550e+02
     vertex -3.756188e+02  5.050000e+02 -2.656430e+02
     vertex -3.745970e+02  5.050000e+02 -2.644550e+02
   endloop
 endfacet
 facet normal  7.581420e-01  2.231001e-13 -6.520895e-01
   outer loop
     vertex -3.745970e+02  5.042000e+02 -2.644550e+02
     vertex -3.756188e+02  5.042000e+02 -2.656430e+02
     vertex -3.756188e+02  5.050000e+02 -2.656430e+02
   endloop
 endfacet
 facet normal  3.485073e-13 -1.000000e+00  5.104466e-15
   outer loop
     vertex -3.841615e+02  5.042000e+02 -2.614086e+02
     vertex -3.864633e+02  5.042000e+02 -2.601524e+02
     vertex -3.864404e+02  5.042000e+02 -2.617192e+02
   endloop
 endfacet
 facet normal  3.640729e-13 -1.000000e+00  2.041101e-14
   outer loop
     vertex -3.839048e+02  5.042000e+02 -2.623880e+02
     vertex -3.864404e+02  5.042000e+02 -2.617192e+02
     vertex -3.860431e+02  5.042000e+02 -2.632350e+02
   endloop
 endfacet
 facet normal  3.524352e-13 -1.000000e+00 -2.371129e-14
   outer loop
     vertex -3.839048e+02  5.042000e+02 -2.623880e+02
     vertex -3.841615e+02  5.042000e+02 -2.614086e+02
     vertex -3.864404e+02  5.042000e+02 -2.617192e+02
   endloop
 endfacet
 facet normal  3.473478e-13 -1.000000e+00 -5.774186e-15
   outer loop
     vertex -3.841763e+02  5.042000e+02 -2.603962e+02
     vertex -3.861106e+02  5.042000e+02 -2.586256e+02
     vertex -3.864633e+02  5.042000e+02 -2.601524e+02
   endloop
 endfacet
 facet normal  3.485073e-13 -1.000000e+00  5.104466e-15
   outer loop
     vertex -3.841763e+02  5.042000e+02 -2.603962e+02
     vertex -3.864633e+02  5.042000e+02 -2.601524e+02
     vertex -3.841615e+02  5.042000e+02 -2.614086e+02
   endloop
 endfacet
 facet normal  3.684536e-13 -1.000000e+00 -6.135925e-15
   outer loop
     vertex -3.834212e+02  5.042000e+02 -2.632775e+02
     vertex -3.860431e+02  5.042000e+02 -2.632350e+02
     vertex -3.852947e+02  5.042000e+02 -2.646117e+02
   endloop
 endfacet
 facet normal  3.686950e-13 -1.000000e+00  8.741878e-15
   outer loop
     vertex -3.834212e+02  5.042000e+02 -2.632775e+02
     vertex -3.839048e+02  5.042000e+02 -2.623880e+02
     vertex -3.860431e+02  5.042000e+02 -2.632350e+02
   endloop
 endfacet
 facet normal  3.781571e-13 -1.000000e+00  2.788588e-14
   outer loop
     vertex -3.839484e+02  5.042000e+02 -2.594096e+02
     vertex -3.861106e+02  5.042000e+02 -2.586256e+02
     vertex -3.841763e+02  5.042000e+02 -2.603962e+02
   endloop
 endfacet
 facet normal  3.594503e-13 -1.000000e+00 -1.577942e-14
   outer loop
     vertex -3.827387e+02  5.042000e+02 -2.640255e+02
     vertex -3.852947e+02  5.042000e+02 -2.646117e+02
     vertex -3.842385e+02  5.042000e+02 -2.657692e+02
   endloop
 endfacet
 facet normal  3.519112e-13 -1.000000e+00  1.709463e-14
   outer loop
     vertex -3.827387e+02  5.042000e+02 -2.640255e+02
     vertex -3.834212e+02  5.042000e+02 -2.632775e+02
     vertex -3.852947e+02  5.042000e+02 -2.646117e+02
   endloop
 endfacet
 facet normal  3.681158e-13 -1.000000e+00  1.692420e-14
   outer loop
     vertex -3.834910e+02  5.042000e+02 -2.585063e+02
     vertex -3.854028e+02  5.042000e+02 -2.572276e+02
     vertex -3.861106e+02  5.042000e+02 -2.586256e+02
   endloop
 endfacet
 facet normal  3.687929e-13 -1.000000e+00  2.059851e-15
   outer loop
     vertex -3.834910e+02  5.042000e+02 -2.585063e+02
     vertex -3.861106e+02  5.042000e+02 -2.586256e+02
     vertex -3.839484e+02  5.042000e+02 -2.594096e+02
   endloop
 endfacet
 facet normal  3.577015e-13 -1.000000e+00  1.280690e-14
   outer loop
     vertex -3.818971e+02  5.042000e+02 -2.645884e+02
     vertex -3.842385e+02  5.042000e+02 -2.657692e+02
     vertex -3.829360e+02  5.042000e+02 -2.666404e+02
   endloop
 endfacet
 facet normal  3.818225e-13 -1.000000e+00 -3.502210e-14
   outer loop
     vertex -3.818971e+02  5.042000e+02 -2.645884e+02
     vertex -3.827387e+02  5.042000e+02 -2.640255e+02
     vertex -3.842385e+02  5.042000e+02 -2.657692e+02
   endloop
 endfacet
 facet normal  3.507143e-13 -1.000000e+00 -1.456457e-14
   outer loop
     vertex -3.828308e+02  5.042000e+02 -2.577387e+02
     vertex -3.843810e+02  5.042000e+02 -2.560396e+02
     vertex -3.854028e+02  5.042000e+02 -2.572276e+02
   endloop
 endfacet
 facet normal  3.522609e-13 -1.000000e+00 -6.780862e-15
   outer loop
     vertex -3.828308e+02  5.042000e+02 -2.577387e+02
     vertex -3.854028e+02  5.042000e+02 -2.572276e+02
     vertex -3.834910e+02  5.042000e+02 -2.585063e+02
   endloop
 endfacet
 facet normal  3.543879e-13 -1.000000e+00  1.959872e-14
   outer loop
     vertex -3.809452e+02  5.042000e+02 -2.649335e+02
     vertex -3.829360e+02  5.042000e+02 -2.666404e+02
     vertex -3.814629e+02  5.042000e+02 -2.671745e+02
   endloop
 endfacet
 facet normal  3.621360e-13 -1.000000e+00  1.056169e-14
   outer loop
     vertex -3.809452e+02  5.042000e+02 -2.649335e+02
     vertex -3.818971e+02  5.042000e+02 -2.645884e+02
     vertex -3.829360e+02  5.042000e+02 -2.666404e+02
   endloop
 endfacet
 facet normal  3.579231e-13 -1.000000e+00 -2.325394e-15
   outer loop
     vertex -3.820060e+02  5.042000e+02 -2.571514e+02
     vertex -3.831046e+02  5.042000e+02 -2.551307e+02
     vertex -3.843810e+02  5.042000e+02 -2.560396e+02
   endloop
 endfacet
 facet normal  3.532970e-13 -1.000000e+00 -1.220806e-14
   outer loop
     vertex -3.820060e+02  5.042000e+02 -2.571514e+02
     vertex -3.843810e+02  5.042000e+02 -2.560396e+02
     vertex -3.828308e+02  5.042000e+02 -2.577387e+02
   endloop
 endfacet
 facet normal  3.666015e-13 -1.000000e+00  1.677741e-14
   outer loop
     vertex -3.799047e+02  5.042000e+02 -2.673406e+02
     vertex -3.809452e+02  5.042000e+02 -2.649335e+02
     vertex -3.814629e+02  5.042000e+02 -2.671745e+02
   endloop
 endfacet
 facet normal  3.392848e-13 -1.000000e+00  4.969388e-15
   outer loop
     vertex -3.799384e+02  5.042000e+02 -2.650408e+02
     vertex -3.809452e+02  5.042000e+02 -2.649335e+02
     vertex -3.799047e+02  5.042000e+02 -2.673406e+02
   endloop
 endfacet
 facet normal  3.809902e-13 -1.000000e+00  2.319890e-14
   outer loop
     vertex -3.810647e+02  5.042000e+02 -2.567785e+02
     vertex -3.816477e+02  5.042000e+02 -2.545536e+02
     vertex -3.831046e+02  5.042000e+02 -2.551307e+02
   endloop
 endfacet
 facet normal  3.622900e-13 -1.000000e+00  4.872864e-17
   outer loop
     vertex -3.810647e+02  5.042000e+02 -2.567785e+02
     vertex -3.831046e+02  5.042000e+02 -2.551307e+02
     vertex -3.820060e+02  5.042000e+02 -2.571514e+02
   endloop
 endfacet
 facet normal  3.930302e-13 -1.000000e+00  2.635423e-14
   outer loop
     vertex -3.783521e+02  5.042000e+02 -2.671290e+02
     vertex -3.789352e+02  5.042000e+02 -2.649041e+02
     vertex -3.799384e+02  5.042000e+02 -2.650408e+02
   endloop
 endfacet
 facet normal  3.653837e-13 -1.000000e+00  5.351648e-15
   outer loop
     vertex -3.783521e+02  5.042000e+02 -2.671290e+02
     vertex -3.799384e+02  5.042000e+02 -2.650408e+02
     vertex -3.799047e+02  5.042000e+02 -2.673406e+02
   endloop
 endfacet
 facet normal  3.930302e-13 -1.000000e+00  2.635423e-14
   outer loop
     vertex -3.800614e+02  5.042000e+02 -2.566418e+02
     vertex -3.816477e+02  5.042000e+02 -2.545536e+02
     vertex -3.810647e+02  5.042000e+02 -2.567785e+02
   endloop
 endfacet
 facet normal  3.653837e-13 -1.000000e+00  5.351648e-15
   outer loop
     vertex -3.800951e+02  5.042000e+02 -2.543420e+02
     vertex -3.816477e+02  5.042000e+02 -2.545536e+02
     vertex -3.800614e+02  5.042000e+02 -2.566418e+02
   endloop
 endfacet
 facet normal  3.809902e-13 -1.000000e+00  2.319890e-14
   outer loop
     vertex -3.768953e+02  5.042000e+02 -2.665519e+02
     vertex -3.789352e+02  5.042000e+02 -2.649041e+02
     vertex -3.783521e+02  5.042000e+02 -2.671290e+02
   endloop
 endfacet
 facet normal  3.622900e-13 -1.000000e+00  4.872864e-17
   outer loop
     vertex -3.768953e+02  5.042000e+02 -2.665519e+02
     vertex -3.779938e+02  5.042000e+02 -2.645312e+02
     vertex -3.789352e+02  5.042000e+02 -2.649041e+02
   endloop
 endfacet
 facet normal  3.411696e-13 -1.000000e+00  2.265212e-14
   outer loop
     vertex -3.785370e+02  5.042000e+02 -2.545081e+02
     vertex -3.800614e+02  5.042000e+02 -2.566418e+02
     vertex -3.790546e+02  5.042000e+02 -2.567491e+02
   endloop
 endfacet
 facet normal  3.653837e-13 -1.000000e+00  5.351648e-15
   outer loop
     vertex -3.785370e+02  5.042000e+02 -2.545081e+02
     vertex -3.800951e+02  5.042000e+02 -2.543420e+02
     vertex -3.800614e+02  5.042000e+02 -2.566418e+02
   endloop
 endfacet
 facet normal  3.579231e-13 -1.000000e+00 -2.325394e-15
   outer loop
     vertex -3.756188e+02  5.042000e+02 -2.656430e+02
     vertex -3.779938e+02  5.042000e+02 -2.645312e+02
     vertex -3.768953e+02  5.042000e+02 -2.665519e+02
   endloop
 endfacet
 facet normal  3.532970e-13 -1.000000e+00 -1.220806e-14
   outer loop
     vertex -3.756188e+02  5.042000e+02 -2.656430e+02
     vertex -3.771691e+02  5.042000e+02 -2.639439e+02
     vertex -3.779938e+02  5.042000e+02 -2.645312e+02
   endloop
 endfacet
 facet normal  3.543879e-13 -1.000000e+00  1.959872e-14
   outer loop
     vertex -3.770638e+02  5.042000e+02 -2.550422e+02
     vertex -3.785370e+02  5.042000e+02 -2.545081e+02
     vertex -3.790546e+02  5.042000e+02 -2.567491e+02
   endloop
 endfacet
 facet normal  3.621360e-13 -1.000000e+00  1.056169e-14
   outer loop
     vertex -3.770638e+02  5.042000e+02 -2.550422e+02
     vertex -3.790546e+02  5.042000e+02 -2.567491e+02
     vertex -3.781028e+02  5.042000e+02 -2.570942e+02
   endloop
 endfacet
 facet normal  3.996181e-13 -1.000000e+00 -8.415564e-15
   outer loop
     vertex -3.770638e+02  5.042000e+02 -2.550422e+02
     vertex -3.781028e+02  5.042000e+02 -2.570942e+02
     vertex -3.772612e+02  5.042000e+02 -2.576571e+02
   endloop
 endfacet
 facet normal  3.522609e-13 -1.000000e+00 -6.780862e-15
   outer loop
     vertex -3.745970e+02  5.042000e+02 -2.644550e+02
     vertex -3.765088e+02  5.042000e+02 -2.631763e+02
     vertex -3.771691e+02  5.042000e+02 -2.639439e+02
   endloop
 endfacet
 facet normal  3.507143e-13 -1.000000e+00 -1.456457e-14
   outer loop
     vertex -3.745970e+02  5.042000e+02 -2.644550e+02
     vertex -3.771691e+02  5.042000e+02 -2.639439e+02
     vertex -3.756188e+02  5.042000e+02 -2.656430e+02
   endloop
 endfacet
 facet normal  3.462028e-13 -1.000000e+00 -4.385014e-15
   outer loop
     vertex -3.757614e+02  5.042000e+02 -2.559134e+02
     vertex -3.770638e+02  5.042000e+02 -2.550422e+02
     vertex -3.772612e+02  5.042000e+02 -2.576571e+02
   endloop
 endfacet
 facet normal  3.681158e-13 -1.000000e+00  1.692420e-14
   outer loop
     vertex -3.738892e+02  5.042000e+02 -2.630570e+02
     vertex -3.765088e+02  5.042000e+02 -2.631763e+02
     vertex -3.745970e+02  5.042000e+02 -2.644550e+02
   endloop
 endfacet
 facet normal  3.781571e-13 -1.000000e+00  2.788588e-14
   outer loop
     vertex -3.738892e+02  5.042000e+02 -2.630570e+02
     vertex -3.758236e+02  5.042000e+02 -2.612864e+02
     vertex -3.760515e+02  5.042000e+02 -2.622730e+02
   endloop
 endfacet
 facet normal  3.687929e-13 -1.000000e+00  2.059851e-15
   outer loop
     vertex -3.738892e+02  5.042000e+02 -2.630570e+02
     vertex -3.760515e+02  5.042000e+02 -2.622730e+02
     vertex -3.765088e+02  5.042000e+02 -2.631763e+02
   endloop
 endfacet
 facet normal  3.594503e-13 -1.000000e+00 -1.577942e-14
   outer loop
     vertex -3.747052e+02  5.042000e+02 -2.570709e+02
     vertex -3.757614e+02  5.042000e+02 -2.559134e+02
     vertex -3.772612e+02  5.042000e+02 -2.576571e+02
   endloop
 endfacet
 facet normal  3.519112e-13 -1.000000e+00  1.709463e-14
   outer loop
     vertex -3.747052e+02  5.042000e+02 -2.570709e+02
     vertex -3.772612e+02  5.042000e+02 -2.576571e+02
     vertex -3.765787e+02  5.042000e+02 -2.584051e+02
   endloop
 endfacet
 facet normal  3.473478e-13 -1.000000e+00 -5.774186e-15
   outer loop
     vertex -3.735365e+02  5.042000e+02 -2.615302e+02
     vertex -3.758236e+02  5.042000e+02 -2.612864e+02
     vertex -3.738892e+02  5.042000e+02 -2.630570e+02
   endloop
 endfacet
 facet normal  3.686950e-13 -1.000000e+00  8.741878e-15
   outer loop
     vertex -3.739567e+02  5.042000e+02 -2.584476e+02
     vertex -3.765787e+02  5.042000e+02 -2.584051e+02
     vertex -3.760951e+02  5.042000e+02 -2.592946e+02
   endloop
 endfacet
 facet normal  3.684536e-13 -1.000000e+00 -6.135925e-15
   outer loop
     vertex -3.739567e+02  5.042000e+02 -2.584476e+02
     vertex -3.747052e+02  5.042000e+02 -2.570709e+02
     vertex -3.765787e+02  5.042000e+02 -2.584051e+02
   endloop
 endfacet
 facet normal  3.524352e-13 -1.000000e+00 -2.371129e-14
   outer loop
     vertex -3.735595e+02  5.042000e+02 -2.599634e+02
     vertex -3.760951e+02  5.042000e+02 -2.592946e+02
     vertex -3.758384e+02  5.042000e+02 -2.602740e+02
   endloop
 endfacet
 facet normal  3.485073e-13 -1.000000e+00  5.104466e-15
   outer loop
     vertex -3.735595e+02  5.042000e+02 -2.599634e+02
     vertex -3.758384e+02  5.042000e+02 -2.602740e+02
     vertex -3.758236e+02  5.042000e+02 -2.612864e+02
   endloop
 endfacet
 facet normal  3.640729e-13 -1.000000e+00  2.041101e-14
   outer loop
     vertex -3.735595e+02  5.042000e+02 -2.599634e+02
     vertex -3.739567e+02  5.042000e+02 -2.584476e+02
     vertex -3.760951e+02  5.042000e+02 -2.592946e+02
   endloop
 endfacet
 facet normal  3.485073e-13 -1.000000e+00  5.104466e-15
   outer loop
     vertex -3.735595e+02  5.042000e+02 -2.599634e+02
     vertex -3.758236e+02  5.042000e+02 -2.612864e+02
     vertex -3.735365e+02  5.042000e+02 -2.615302e+02
   endloop
 endfacet
 facet normal -3.485073e-13  1.000000e+00 -5.104466e-15
   outer loop
     vertex -3.841615e+02  5.050000e+02 -2.614086e+02
     vertex -3.864404e+02  5.050000e+02 -2.617192e+02
     vertex -3.864633e+02  5.050000e+02 -2.601524e+02
   endloop
 endfacet
 facet normal -3.640729e-13  1.000000e+00 -2.041101e-14
   outer loop
     vertex -3.839048e+02  5.050000e+02 -2.623880e+02
     vertex -3.860431e+02  5.050000e+02 -2.632350e+02
     vertex -3.864404e+02  5.050000e+02 -2.617192e+02
   endloop
 endfacet
 facet normal -3.524352e-13  1.000000e+00  2.371129e-14
   outer loop
     vertex -3.839048e+02  5.050000e+02 -2.623880e+02
     vertex -3.864404e+02  5.050000e+02 -2.617192e+02
     vertex -3.841615e+02  5.050000e+02 -2.614086e+02
   endloop
 endfacet
 facet normal -3.473478e-13  1.000000e+00  5.774186e-15
   outer loop
     vertex -3.841763e+02  5.050000e+02 -2.603962e+02
     vertex -3.864633e+02  5.050000e+02 -2.601524e+02
     vertex -3.861106e+02  5.050000e+02 -2.586256e+02
   endloop
 endfacet
 facet normal -3.485073e-13  1.000000e+00 -5.104466e-15
   outer loop
     vertex -3.841763e+02  5.050000e+02 -2.603962e+02
     vertex -3.841615e+02  5.050000e+02 -2.614086e+02
     vertex -3.864633e+02  5.050000e+02 -2.601524e+02
   endloop
 endfacet
 facet normal -3.684536e-13  1.000000e+00  6.135925e-15
   outer loop
     vertex -3.834212e+02  5.050000e+02 -2.632775e+02
     vertex -3.852947e+02  5.050000e+02 -2.646117e+02
     vertex -3.860431e+02  5.050000e+02 -2.632350e+02
   endloop
 endfacet
 facet normal -3.686950e-13  1.000000e+00 -8.741878e-15
   outer loop
     vertex -3.834212e+02  5.050000e+02 -2.632775e+02
     vertex -3.860431e+02  5.050000e+02 -2.632350e+02
     vertex -3.839048e+02  5.050000e+02 -2.623880e+02
   endloop
 endfacet
 facet normal -3.732416e-13  1.000000e+00 -1.432904e-14
   outer loop
     vertex -3.839484e+02  5.050000e+02 -2.594096e+02
     vertex -3.861106e+02  5.050000e+02 -2.586256e+02
     vertex -3.854028e+02  5.050000e+02 -2.572276e+02
   endloop
 endfacet
 facet normal -3.781571e-13  1.000000e+00 -2.788588e-14
   outer loop
     vertex -3.839484e+02  5.050000e+02 -2.594096e+02
     vertex -3.841763e+02  5.050000e+02 -2.603962e+02
     vertex -3.861106e+02  5.050000e+02 -2.586256e+02
   endloop
 endfacet
 facet normal -3.594503e-13  1.000000e+00  1.577942e-14
   outer loop
     vertex -3.827387e+02  5.050000e+02 -2.640255e+02
     vertex -3.842385e+02  5.050000e+02 -2.657692e+02
     vertex -3.852947e+02  5.050000e+02 -2.646117e+02
   endloop
 endfacet
 facet normal -3.519112e-13  1.000000e+00 -1.709463e-14
   outer loop
     vertex -3.827387e+02  5.050000e+02 -2.640255e+02
     vertex -3.852947e+02  5.050000e+02 -2.646117e+02
     vertex -3.834212e+02  5.050000e+02 -2.632775e+02
   endloop
 endfacet
 facet normal -3.483912e-13  1.000000e+00  1.256648e-14
   outer loop
     vertex -3.834910e+02  5.050000e+02 -2.585063e+02
     vertex -3.854028e+02  5.050000e+02 -2.572276e+02
     vertex -3.843810e+02  5.050000e+02 -2.560396e+02
   endloop
 endfacet
 facet normal -3.608602e-13  1.000000e+00 -6.076169e-15
   outer loop
     vertex -3.834910e+02  5.050000e+02 -2.585063e+02
     vertex -3.839484e+02  5.050000e+02 -2.594096e+02
     vertex -3.854028e+02  5.050000e+02 -2.572276e+02
   endloop
 endfacet
 facet normal -3.577015e-13  1.000000e+00 -1.280690e-14
   outer loop
     vertex -3.818971e+02  5.050000e+02 -2.645884e+02
     vertex -3.829360e+02  5.050000e+02 -2.666404e+02
     vertex -3.842385e+02  5.050000e+02 -2.657692e+02
   endloop
 endfacet
 facet normal -3.818225e-13  1.000000e+00  3.502210e-14
   outer loop
     vertex -3.818971e+02  5.050000e+02 -2.645884e+02
     vertex -3.842385e+02  5.050000e+02 -2.657692e+02
     vertex -3.827387e+02  5.050000e+02 -2.640255e+02
   endloop
 endfacet
 facet normal -3.558561e-13  1.000000e+00  9.873139e-15
   outer loop
     vertex -3.828308e+02  5.050000e+02 -2.577387e+02
     vertex -3.834910e+02  5.050000e+02 -2.585063e+02
     vertex -3.843810e+02  5.050000e+02 -2.560396e+02
   endloop
 endfacet
 facet normal -3.603670e-13  1.000000e+00  5.757348e-15
   outer loop
     vertex -3.831046e+02  5.050000e+02 -2.551307e+02
     vertex -3.828308e+02  5.050000e+02 -2.577387e+02
     vertex -3.843810e+02  5.050000e+02 -2.560396e+02
   endloop
 endfacet
 facet normal -3.543879e-13  1.000000e+00 -1.959872e-14
   outer loop
     vertex -3.809452e+02  5.050000e+02 -2.649335e+02
     vertex -3.814629e+02  5.050000e+02 -2.671745e+02
     vertex -3.829360e+02  5.050000e+02 -2.666404e+02
   endloop
 endfacet
 facet normal -3.621360e-13  1.000000e+00 -1.056169e-14
   outer loop
     vertex -3.809452e+02  5.050000e+02 -2.649335e+02
     vertex -3.829360e+02  5.050000e+02 -2.666404e+02
     vertex -3.818971e+02  5.050000e+02 -2.645884e+02
   endloop
 endfacet
 facet normal -3.495148e-13  1.000000e+00  6.896703e-15
   outer loop
     vertex -3.820060e+02  5.050000e+02 -2.571514e+02
     vertex -3.828308e+02  5.050000e+02 -2.577387e+02
     vertex -3.831046e+02  5.050000e+02 -2.551307e+02
   endloop
 endfacet
 facet normal -3.653837e-13  1.000000e+00 -5.351648e-15
   outer loop
     vertex -3.799384e+02  5.050000e+02 -2.650408e+02
     vertex -3.799047e+02  5.050000e+02 -2.673406e+02
     vertex -3.814629e+02  5.050000e+02 -2.671745e+02
   endloop
 endfacet
 facet normal -3.411696e-13  1.000000e+00 -2.265212e-14
   outer loop
     vertex -3.799384e+02  5.050000e+02 -2.650408e+02
     vertex -3.814629e+02  5.050000e+02 -2.671745e+02
     vertex -3.809452e+02  5.050000e+02 -2.649335e+02
   endloop
 endfacet
 facet normal -3.852217e-13  1.000000e+00 -1.251594e-14
   outer loop
     vertex -3.816477e+02  5.050000e+02 -2.545536e+02
     vertex -3.820060e+02  5.050000e+02 -2.571514e+02
     vertex -3.831046e+02  5.050000e+02 -2.551307e+02
   endloop
 endfacet
 facet normal -3.557413e-13  1.000000e+00 -1.658189e-14
   outer loop
     vertex -3.810647e+02  5.050000e+02 -2.567785e+02
     vertex -3.820060e+02  5.050000e+02 -2.571514e+02
     vertex -3.816477e+02  5.050000e+02 -2.545536e+02
   endloop
 endfacet
 facet normal -3.958323e-13  1.000000e+00 -5.797619e-15
   outer loop
     vertex -3.789352e+02  5.050000e+02 -2.649041e+02
     vertex -3.799047e+02  5.050000e+02 -2.673406e+02
     vertex -3.799384e+02  5.050000e+02 -2.650408e+02
   endloop
 endfacet
 facet normal -3.635731e-13  1.000000e+00 -1.863438e-14
   outer loop
     vertex -3.783521e+02  5.050000e+02 -2.671290e+02
     vertex -3.799047e+02  5.050000e+02 -2.673406e+02
     vertex -3.789352e+02  5.050000e+02 -2.649041e+02
   endloop
 endfacet
 facet normal -3.635731e-13  1.000000e+00 -1.863438e-14
   outer loop
     vertex -3.800951e+02  5.050000e+02 -2.543420e+02
     vertex -3.810647e+02  5.050000e+02 -2.567785e+02
     vertex -3.816477e+02  5.050000e+02 -2.545536e+02
   endloop
 endfacet
 facet normal -3.958323e-13  1.000000e+00 -5.797619e-15
   outer loop
     vertex -3.800951e+02  5.050000e+02 -2.543420e+02
     vertex -3.800614e+02  5.050000e+02 -2.566418e+02
     vertex -3.810647e+02  5.050000e+02 -2.567785e+02
   endloop
 endfacet
 facet normal -3.557413e-13  1.000000e+00 -1.658189e-14
   outer loop
     vertex -3.779938e+02  5.050000e+02 -2.645312e+02
     vertex -3.783521e+02  5.050000e+02 -2.671290e+02
     vertex -3.789352e+02  5.050000e+02 -2.649041e+02
   endloop
 endfacet
 facet normal -3.852217e-13  1.000000e+00 -1.251594e-14
   outer loop
     vertex -3.768953e+02  5.050000e+02 -2.665519e+02
     vertex -3.783521e+02  5.050000e+02 -2.671290e+02
     vertex -3.779938e+02  5.050000e+02 -2.645312e+02
   endloop
 endfacet
 facet normal -3.495148e-13  1.000000e+00  6.896703e-15
   outer loop
     vertex -3.771691e+02  5.050000e+02 -2.639439e+02
     vertex -3.768953e+02  5.050000e+02 -2.665519e+02
     vertex -3.779938e+02  5.050000e+02 -2.645312e+02
   endloop
 endfacet
 facet normal -3.653837e-13  1.000000e+00 -5.351648e-15
   outer loop
     vertex -3.785370e+02  5.050000e+02 -2.545081e+02
     vertex -3.800614e+02  5.050000e+02 -2.566418e+02
     vertex -3.800951e+02  5.050000e+02 -2.543420e+02
   endloop
 endfacet
 facet normal -3.411696e-13  1.000000e+00 -2.265212e-14
   outer loop
     vertex -3.785370e+02  5.050000e+02 -2.545081e+02
     vertex -3.790546e+02  5.050000e+02 -2.567491e+02
     vertex -3.800614e+02  5.050000e+02 -2.566418e+02
   endloop
 endfacet
 facet normal -3.603670e-13  1.000000e+00  5.757348e-15
   outer loop
     vertex -3.756188e+02  5.050000e+02 -2.656430e+02
     vertex -3.768953e+02  5.050000e+02 -2.665519e+02
     vertex -3.771691e+02  5.050000e+02 -2.639439e+02
   endloop
 endfacet
 facet normal -3.543879e-13  1.000000e+00 -1.959872e-14
   outer loop
     vertex -3.770638e+02  5.050000e+02 -2.550422e+02
     vertex -3.790546e+02  5.050000e+02 -2.567491e+02
     vertex -3.785370e+02  5.050000e+02 -2.545081e+02
   endloop
 endfacet
 facet normal -3.621360e-13  1.000000e+00 -1.056169e-14
   outer loop
     vertex -3.770638e+02  5.050000e+02 -2.550422e+02
     vertex -3.781028e+02  5.050000e+02 -2.570942e+02
     vertex -3.790546e+02  5.050000e+02 -2.567491e+02
   endloop
 endfacet
 facet normal -3.608602e-13  1.000000e+00 -6.076169e-15
   outer loop
     vertex -3.745970e+02  5.050000e+02 -2.644550e+02
     vertex -3.765088e+02  5.050000e+02 -2.631763e+02
     vertex -3.760515e+02  5.050000e+02 -2.622730e+02
   endloop
 endfacet
 facet normal -3.522609e-13  1.000000e+00  6.780862e-15
   outer loop
     vertex -3.745970e+02  5.050000e+02 -2.644550e+02
     vertex -3.771691e+02  5.050000e+02 -2.639439e+02
     vertex -3.765088e+02  5.050000e+02 -2.631763e+02
   endloop
 endfacet
 facet normal -3.507143e-13  1.000000e+00  1.456457e-14
   outer loop
     vertex -3.745970e+02  5.050000e+02 -2.644550e+02
     vertex -3.756188e+02  5.050000e+02 -2.656430e+02
     vertex -3.771691e+02  5.050000e+02 -2.639439e+02
   endloop
 endfacet
 facet normal -3.818225e-13  1.000000e+00  3.502210e-14
   outer loop
     vertex -3.757614e+02  5.050000e+02 -2.559134e+02
     vertex -3.772612e+02  5.050000e+02 -2.576571e+02
     vertex -3.781028e+02  5.050000e+02 -2.570942e+02
   endloop
 endfacet
 facet normal -3.577015e-13  1.000000e+00 -1.280690e-14
   outer loop
     vertex -3.757614e+02  5.050000e+02 -2.559134e+02
     vertex -3.781028e+02  5.050000e+02 -2.570942e+02
     vertex -3.770638e+02  5.050000e+02 -2.550422e+02
   endloop
 endfacet
 facet normal -3.732416e-13  1.000000e+00 -1.432904e-14
   outer loop
     vertex -3.738892e+02  5.050000e+02 -2.630570e+02
     vertex -3.745970e+02  5.050000e+02 -2.644550e+02
     vertex -3.760515e+02  5.050000e+02 -2.622730e+02
   endloop
 endfacet
 facet normal -3.594503e-13  1.000000e+00  1.577942e-14
   outer loop
     vertex -3.747052e+02  5.050000e+02 -2.570709e+02
     vertex -3.772612e+02  5.050000e+02 -2.576571e+02
     vertex -3.757614e+02  5.050000e+02 -2.559134e+02
   endloop
 endfacet
 facet normal -3.519112e-13  1.000000e+00 -1.709463e-14
   outer loop
     vertex -3.747052e+02  5.050000e+02 -2.570709e+02
     vertex -3.765787e+02  5.050000e+02 -2.584051e+02
     vertex -3.772612e+02  5.050000e+02 -2.576571e+02
   endloop
 endfacet
 facet normal -3.515896e-13  1.000000e+00 -3.402290e-14
   outer loop
     vertex -3.735365e+02  5.050000e+02 -2.615302e+02
     vertex -3.760515e+02  5.050000e+02 -2.622730e+02
     vertex -3.758236e+02  5.050000e+02 -2.612864e+02
   endloop
 endfacet
 facet normal -3.485073e-13  1.000000e+00 -5.104466e-15
   outer loop
     vertex -3.735365e+02  5.050000e+02 -2.615302e+02
     vertex -3.758236e+02  5.050000e+02 -2.612864e+02
     vertex -3.758384e+02  5.050000e+02 -2.602740e+02
   endloop
 endfacet
 facet normal -3.645145e-13  1.000000e+00  9.739645e-15
   outer loop
     vertex -3.735365e+02  5.050000e+02 -2.615302e+02
     vertex -3.738892e+02  5.050000e+02 -2.630570e+02
     vertex -3.760515e+02  5.050000e+02 -2.622730e+02
   endloop
 endfacet
 facet normal -3.686950e-13  1.000000e+00 -8.741878e-15
   outer loop
     vertex -3.739567e+02  5.050000e+02 -2.584476e+02
     vertex -3.760951e+02  5.050000e+02 -2.592946e+02
     vertex -3.765787e+02  5.050000e+02 -2.584051e+02
   endloop
 endfacet
 facet normal -3.684536e-13  1.000000e+00  6.135925e-15
   outer loop
     vertex -3.739567e+02  5.050000e+02 -2.584476e+02
     vertex -3.765787e+02  5.050000e+02 -2.584051e+02
     vertex -3.747052e+02  5.050000e+02 -2.570709e+02
   endloop
 endfacet
 facet normal -3.640729e-13  1.000000e+00 -2.041101e-14
   outer loop
     vertex -3.735595e+02  5.050000e+02 -2.599634e+02
     vertex -3.760951e+02  5.050000e+02 -2.592946e+02
     vertex -3.739567e+02  5.050000e+02 -2.584476e+02
   endloop
 endfacet
 facet normal -3.524352e-13  1.000000e+00  2.371129e-14
   outer loop
     vertex -3.735595e+02  5.050000e+02 -2.599634e+02
     vertex -3.758384e+02  5.050000e+02 -2.602740e+02
     vertex -3.760951e+02  5.050000e+02 -2.592946e+02
   endloop
 endfacet
 facet normal -3.485073e-13  1.000000e+00 -5.104466e-15
   outer loop
     vertex -3.735595e+02  5.050000e+02 -2.599634e+02
     vertex -3.735365e+02  5.050000e+02 -2.615302e+02
     vertex -3.758384e+02  5.050000e+02 -2.602740e+02
   endloop
 endfacet
endsolid
