solid 
 facet normal  4.030640e-13 -9.927089e-01 -1.205367e-01
   outer loop
     vertex -6.750000e+02  3.231500e+02 -2.259279e+02
     vertex -6.757000e+02  3.230570e+02 -2.251621e+02
     vertex -6.757000e+02  3.231500e+02 -2.259279e+02
   endloop
 endfacet
 facet normal  3.796394e-13 -9.350162e-01 -3.546049e-01
   outer loop
     vertex -6.750000e+02  3.230570e+02 -2.251621e+02
     vertex -6.757000e+02  3.227835e+02 -2.244408e+02
     vertex -6.757000e+02  3.230570e+02 -2.251621e+02
   endloop
 endfacet
 facet normal  4.030640e-13 -9.927089e-01 -1.205367e-01
   outer loop
     vertex -6.750000e+02  3.230570e+02 -2.251621e+02
     vertex -6.757000e+02  3.230570e+02 -2.251621e+02
     vertex -6.750000e+02  3.231500e+02 -2.259279e+02
   endloop
 endfacet
 facet normal  3.341515e-13 -8.229839e-01 -5.680647e-01
   outer loop
     vertex -6.750000e+02  3.227835e+02 -2.244408e+02
     vertex -6.757000e+02  3.223452e+02 -2.238059e+02
     vertex -6.757000e+02  3.227835e+02 -2.244408e+02
   endloop
 endfacet
 facet normal  3.796394e-13 -9.350162e-01 -3.546049e-01
   outer loop
     vertex -6.750000e+02  3.227835e+02 -2.244408e+02
     vertex -6.757000e+02  3.227835e+02 -2.244408e+02
     vertex -6.750000e+02  3.230570e+02 -2.251621e+02
   endloop
 endfacet
 facet normal  2.996354e-13 -6.631227e-01 -7.485107e-01
   outer loop
     vertex -6.750000e+02  3.223452e+02 -2.238059e+02
     vertex -6.757000e+02  3.217678e+02 -2.232944e+02
     vertex -6.757000e+02  3.223452e+02 -2.238059e+02
   endloop
 endfacet
 facet normal  3.572164e-13 -8.229839e-01 -5.680647e-01
   outer loop
     vertex -6.750000e+02  3.223452e+02 -2.238059e+02
     vertex -6.757000e+02  3.223452e+02 -2.238059e+02
     vertex -6.750000e+02  3.227835e+02 -2.244408e+02
   endloop
 endfacet
 facet normal  1.886890e-13 -4.647232e-01 -8.854560e-01
   outer loop
     vertex -6.750000e+02  3.217678e+02 -2.232944e+02
     vertex -6.757000e+02  3.210847e+02 -2.229359e+02
     vertex -6.757000e+02  3.217678e+02 -2.232944e+02
   endloop
 endfacet
 facet normal  2.692440e-13 -6.631227e-01 -7.485107e-01
   outer loop
     vertex -6.750000e+02  3.217678e+02 -2.232944e+02
     vertex -6.757000e+02  3.217678e+02 -2.232944e+02
     vertex -6.750000e+02  3.223452e+02 -2.238059e+02
   endloop
 endfacet
 facet normal  7.773440e-14 -2.393157e-01 -9.709418e-01
   outer loop
     vertex -6.750000e+02  3.210847e+02 -2.229359e+02
     vertex -6.757000e+02  3.203357e+02 -2.227512e+02
     vertex -6.757000e+02  3.210847e+02 -2.229359e+02
   endloop
 endfacet
 facet normal  1.509512e-13 -4.647232e-01 -8.854560e-01
   outer loop
     vertex -6.750000e+02  3.210847e+02 -2.229359e+02
     vertex -6.757000e+02  3.210847e+02 -2.229359e+02
     vertex -6.750000e+02  3.217678e+02 -2.232944e+02
   endloop
 endfacet
 facet normal  0.000000e+00  0.000000e+00 -1.000000e+00
   outer loop
     vertex -6.750000e+02  3.203357e+02 -2.227512e+02
     vertex -6.757000e+02  3.195643e+02 -2.227512e+02
     vertex -6.757000e+02  3.203357e+02 -2.227512e+02
   endloop
 endfacet
 facet normal  9.716800e-14 -2.393157e-01 -9.709418e-01
   outer loop
     vertex -6.750000e+02  3.203357e+02 -2.227512e+02
     vertex -6.757000e+02  3.203357e+02 -2.227512e+02
     vertex -6.750000e+02  3.210847e+02 -2.229359e+02
   endloop
 endfacet
 facet normal -1.171570e-13  2.393157e-01 -9.709418e-01
   outer loop
     vertex -6.750000e+02  3.195643e+02 -2.227512e+02
     vertex -6.757000e+02  3.188153e+02 -2.229359e+02
     vertex -6.757000e+02  3.195643e+02 -2.227512e+02
   endloop
 endfacet
 facet normal -4.060244e-14  3.684266e-14 -1.000000e+00
   outer loop
     vertex -6.750000e+02  3.195643e+02 -2.227512e+02
     vertex -6.757000e+02  3.195643e+02 -2.227512e+02
     vertex -6.750000e+02  3.203357e+02 -2.227512e+02
   endloop
 endfacet
 facet normal -1.509512e-13  4.647232e-01 -8.854560e-01
   outer loop
     vertex -6.750000e+02  3.188153e+02 -2.229359e+02
     vertex -6.757000e+02  3.181322e+02 -2.232944e+02
     vertex -6.757000e+02  3.188153e+02 -2.229359e+02
   endloop
 endfacet
 facet normal -7.773440e-14  2.393157e-01 -9.709418e-01
   outer loop
     vertex -6.750000e+02  3.188153e+02 -2.229359e+02
     vertex -6.757000e+02  3.188153e+02 -2.229359e+02
     vertex -6.750000e+02  3.195643e+02 -2.227512e+02
   endloop
 endfacet
 facet normal -2.153952e-13  6.631227e-01 -7.485107e-01
   outer loop
     vertex -6.750000e+02  3.181322e+02 -2.232944e+02
     vertex -6.757000e+02  3.175548e+02 -2.238059e+02
     vertex -6.757000e+02  3.181322e+02 -2.232944e+02
   endloop
 endfacet
 facet normal -1.509512e-13  4.647232e-01 -8.854560e-01
   outer loop
     vertex -6.750000e+02  3.181322e+02 -2.232944e+02
     vertex -6.757000e+02  3.181322e+02 -2.232944e+02
     vertex -6.750000e+02  3.188153e+02 -2.229359e+02
   endloop
 endfacet
 facet normal -3.572164e-13  8.229839e-01 -5.680647e-01
   outer loop
     vertex -6.750000e+02  3.175548e+02 -2.238059e+02
     vertex -6.757000e+02  3.171165e+02 -2.244408e+02
     vertex -6.757000e+02  3.175548e+02 -2.238059e+02
   endloop
 endfacet
 facet normal -2.996354e-13  6.631227e-01 -7.485107e-01
   outer loop
     vertex -6.750000e+02  3.175548e+02 -2.238059e+02
     vertex -6.757000e+02  3.175548e+02 -2.238059e+02
     vertex -6.750000e+02  3.181322e+02 -2.232944e+02
   endloop
 endfacet
 facet normal -2.903861e-13  8.229839e-01 -5.680647e-01
   outer loop
     vertex -6.750000e+02  3.171165e+02 -2.244408e+02
     vertex -6.757000e+02  3.171165e+02 -2.244408e+02
     vertex -6.750000e+02  3.175548e+02 -2.238059e+02
   endloop
 endfacet
 facet normal -3.181094e-13  9.350162e-01 -3.546049e-01
   outer loop
     vertex -6.750000e+02  3.171165e+02 -2.244408e+02
     vertex -6.757000e+02  3.168430e+02 -2.251621e+02
     vertex -6.757000e+02  3.171165e+02 -2.244408e+02
   endloop
 endfacet
 facet normal -3.796394e-13  9.350162e-01 -3.546049e-01
   outer loop
     vertex -6.750000e+02  3.168430e+02 -2.251621e+02
     vertex -6.757000e+02  3.168430e+02 -2.251621e+02
     vertex -6.750000e+02  3.171165e+02 -2.244408e+02
   endloop
 endfacet
 facet normal -4.030640e-13  9.927089e-01 -1.205367e-01
   outer loop
     vertex -6.750000e+02  3.168430e+02 -2.251621e+02
     vertex -6.757000e+02  3.167500e+02 -2.259279e+02
     vertex -6.757000e+02  3.168430e+02 -2.251621e+02
   endloop
 endfacet
 facet normal -4.030640e-13  9.927089e-01 -1.205367e-01
   outer loop
     vertex -6.750000e+02  3.167500e+02 -2.259279e+02
     vertex -6.757000e+02  3.167500e+02 -2.259279e+02
     vertex -6.750000e+02  3.168430e+02 -2.251621e+02
   endloop
 endfacet
 facet normal -4.030640e-13  9.927089e-01  1.205367e-01
   outer loop
     vertex -6.750000e+02  3.167500e+02 -2.259279e+02
     vertex -6.757000e+02  3.168430e+02 -2.266937e+02
     vertex -6.757000e+02  3.167500e+02 -2.259279e+02
   endloop
 endfacet
 facet normal -3.981700e-13  9.927089e-01  1.205367e-01
   outer loop
     vertex -6.750000e+02  3.168430e+02 -2.266937e+02
     vertex -6.757000e+02  3.168430e+02 -2.266937e+02
     vertex -6.750000e+02  3.167500e+02 -2.259279e+02
   endloop
 endfacet
 facet normal -3.652258e-13  9.350162e-01  3.546049e-01
   outer loop
     vertex -6.750000e+02  3.171165e+02 -2.274150e+02
     vertex -6.757000e+02  3.168430e+02 -2.266937e+02
     vertex -6.750000e+02  3.168430e+02 -2.266937e+02
   endloop
 endfacet
 facet normal -4.411695e-13  9.350162e-01  3.546049e-01
   outer loop
     vertex -6.750000e+02  3.171165e+02 -2.274150e+02
     vertex -6.757000e+02  3.171165e+02 -2.274150e+02
     vertex -6.757000e+02  3.168430e+02 -2.266937e+02
   endloop
 endfacet
 facet normal -3.779170e-13  8.229839e-01  5.680647e-01
   outer loop
     vertex -6.750000e+02  3.171165e+02 -2.274150e+02
     vertex -6.757000e+02  3.175548e+02 -2.280499e+02
     vertex -6.757000e+02  3.171165e+02 -2.274150e+02
   endloop
 endfacet
 facet normal -3.110867e-13  8.229839e-01  5.680647e-01
   outer loop
     vertex -6.750000e+02  3.175548e+02 -2.280499e+02
     vertex -6.757000e+02  3.175548e+02 -2.280499e+02
     vertex -6.750000e+02  3.171165e+02 -2.274150e+02
   endloop
 endfacet
 facet normal -2.388526e-13  6.631227e-01  7.485107e-01
   outer loop
     vertex -6.750000e+02  3.175548e+02 -2.280499e+02
     vertex -6.757000e+02  3.181322e+02 -2.285615e+02
     vertex -6.757000e+02  3.175548e+02 -2.280499e+02
   endloop
 endfacet
 facet normal -3.230928e-13  6.631227e-01  7.485107e-01
   outer loop
     vertex -6.750000e+02  3.181322e+02 -2.285615e+02
     vertex -6.757000e+02  3.181322e+02 -2.285615e+02
     vertex -6.750000e+02  3.175548e+02 -2.280499e+02
   endloop
 endfacet
 facet normal -2.264267e-13  4.647232e-01  8.854560e-01
   outer loop
     vertex -6.750000e+02  3.181322e+02 -2.285615e+02
     vertex -6.757000e+02  3.188153e+02 -2.289200e+02
     vertex -6.757000e+02  3.181322e+02 -2.285615e+02
   endloop
 endfacet
 facet normal -2.264267e-13  4.647232e-01  8.854560e-01
   outer loop
     vertex -6.750000e+02  3.188153e+02 -2.289200e+02
     vertex -6.757000e+02  3.188153e+02 -2.289200e+02
     vertex -6.750000e+02  3.181322e+02 -2.285615e+02
   endloop
 endfacet
 facet normal -1.166016e-13  2.393157e-01  9.709418e-01
   outer loop
     vertex -6.750000e+02  3.188153e+02 -2.289200e+02
     vertex -6.757000e+02  3.195643e+02 -2.291046e+02
     vertex -6.757000e+02  3.188153e+02 -2.289200e+02
   endloop
 endfacet
 facet normal -7.717900e-14  2.393157e-01  9.709418e-01
   outer loop
     vertex -6.750000e+02  3.195643e+02 -2.291046e+02
     vertex -6.757000e+02  3.195643e+02 -2.291046e+02
     vertex -6.750000e+02  3.188153e+02 -2.289200e+02
   endloop
 endfacet
 facet normal  4.060244e-14  3.684266e-14  1.000000e+00
   outer loop
     vertex -6.750000e+02  3.195643e+02 -2.291046e+02
     vertex -6.757000e+02  3.203357e+02 -2.291046e+02
     vertex -6.757000e+02  3.195643e+02 -2.291046e+02
   endloop
 endfacet
 facet normal  0.000000e+00  0.000000e+00  1.000000e+00
   outer loop
     vertex -6.750000e+02  3.203357e+02 -2.291046e+02
     vertex -6.757000e+02  3.203357e+02 -2.291046e+02
     vertex -6.750000e+02  3.195643e+02 -2.291046e+02
   endloop
 endfacet
 facet normal  9.718681e-14 -2.393157e-01  9.709418e-01
   outer loop
     vertex -6.750000e+02  3.210847e+02 -2.289200e+02
     vertex -6.757000e+02  3.203357e+02 -2.291046e+02
     vertex -6.750000e+02  3.203357e+02 -2.291046e+02
   endloop
 endfacet
 facet normal  1.166016e-13 -2.393157e-01  9.709418e-01
   outer loop
     vertex -6.750000e+02  3.210847e+02 -2.289200e+02
     vertex -6.757000e+02  3.210847e+02 -2.289200e+02
     vertex -6.757000e+02  3.203357e+02 -2.291046e+02
   endloop
 endfacet
 facet normal  2.264060e-13 -4.647232e-01  8.854560e-01
   outer loop
     vertex -6.750000e+02  3.217678e+02 -2.285615e+02
     vertex -6.757000e+02  3.210847e+02 -2.289200e+02
     vertex -6.750000e+02  3.210847e+02 -2.289200e+02
   endloop
 endfacet
 facet normal  1.886890e-13 -4.647232e-01  8.854560e-01
   outer loop
     vertex -6.750000e+02  3.217678e+02 -2.285615e+02
     vertex -6.757000e+02  3.217678e+02 -2.285615e+02
     vertex -6.757000e+02  3.210847e+02 -2.289200e+02
   endloop
 endfacet
 facet normal  2.692440e-13 -6.631227e-01  7.485107e-01
   outer loop
     vertex -6.750000e+02  3.217678e+02 -2.285615e+02
     vertex -6.757000e+02  3.223452e+02 -2.280499e+02
     vertex -6.757000e+02  3.217678e+02 -2.285615e+02
   endloop
 endfacet
 facet normal  2.388526e-13 -6.631227e-01  7.485107e-01
   outer loop
     vertex -6.750000e+02  3.223452e+02 -2.280499e+02
     vertex -6.757000e+02  3.223452e+02 -2.280499e+02
     vertex -6.750000e+02  3.217678e+02 -2.285615e+02
   endloop
 endfacet
 facet normal  3.341515e-13 -8.229839e-01  5.680647e-01
   outer loop
     vertex -6.750000e+02  3.227835e+02 -2.274150e+02
     vertex -6.757000e+02  3.227835e+02 -2.274150e+02
     vertex -6.757000e+02  3.223452e+02 -2.280499e+02
   endloop
 endfacet
 facet normal  3.110424e-13 -8.229839e-01  5.680647e-01
   outer loop
     vertex -6.750000e+02  3.227835e+02 -2.274150e+02
     vertex -6.757000e+02  3.223452e+02 -2.280499e+02
     vertex -6.750000e+02  3.223452e+02 -2.280499e+02
   endloop
 endfacet
 facet normal  3.796394e-13 -9.350162e-01  3.546049e-01
   outer loop
     vertex -6.750000e+02  3.230570e+02 -2.266937e+02
     vertex -6.757000e+02  3.230570e+02 -2.266937e+02
     vertex -6.757000e+02  3.227835e+02 -2.274150e+02
   endloop
 endfacet
 facet normal  4.030640e-13 -9.927089e-01  1.205367e-01
   outer loop
     vertex -6.750000e+02  3.230570e+02 -2.266937e+02
     vertex -6.757000e+02  3.231500e+02 -2.259279e+02
     vertex -6.757000e+02  3.230570e+02 -2.266937e+02
   endloop
 endfacet
 facet normal  3.796237e-13 -9.350162e-01  3.546049e-01
   outer loop
     vertex -6.750000e+02  3.230570e+02 -2.266937e+02
     vertex -6.757000e+02  3.227835e+02 -2.274150e+02
     vertex -6.750000e+02  3.227835e+02 -2.274150e+02
   endloop
 endfacet
 facet normal  4.030640e-13 -9.927089e-01  1.205367e-01
   outer loop
     vertex -6.750000e+02  3.231500e+02 -2.259279e+02
     vertex -6.757000e+02  3.231500e+02 -2.259279e+02
     vertex -6.750000e+02  3.230570e+02 -2.266937e+02
   endloop
 endfacet
 facet normal -4.030734e-13  9.927089e-01  1.205367e-01
   outer loop
     vertex -6.750000e+02  3.248047e+02 -2.247313e+02
     vertex -6.750000e+02  3.249500e+02 -2.259279e+02
     vertex -6.757000e+02  3.249500e+02 -2.259279e+02
   endloop
 endfacet
 facet normal -4.030640e-13  9.927089e-01  1.205367e-01
   outer loop
     vertex -6.750000e+02  3.248047e+02 -2.247313e+02
     vertex -6.757000e+02  3.249500e+02 -2.259279e+02
     vertex -6.757000e+02  3.248047e+02 -2.247313e+02
   endloop
 endfacet
 facet normal -3.796394e-13  9.350162e-01  3.546049e-01
   outer loop
     vertex -6.750000e+02  3.243773e+02 -2.236043e+02
     vertex -6.757000e+02  3.248047e+02 -2.247313e+02
     vertex -6.757000e+02  3.243773e+02 -2.236043e+02
   endloop
 endfacet
 facet normal -3.796468e-13  9.350162e-01  3.546049e-01
   outer loop
     vertex -6.750000e+02  3.243773e+02 -2.236043e+02
     vertex -6.750000e+02  3.248047e+02 -2.247313e+02
     vertex -6.757000e+02  3.248047e+02 -2.247313e+02
   endloop
 endfacet
 facet normal -3.341515e-13  8.229839e-01  5.680647e-01
   outer loop
     vertex -6.750000e+02  3.236926e+02 -2.226123e+02
     vertex -6.757000e+02  3.243773e+02 -2.236043e+02
     vertex -6.757000e+02  3.236926e+02 -2.226123e+02
   endloop
 endfacet
 facet normal -3.341410e-13  8.229839e-01  5.680647e-01
   outer loop
     vertex -6.750000e+02  3.236926e+02 -2.226123e+02
     vertex -6.750000e+02  3.243773e+02 -2.236043e+02
     vertex -6.757000e+02  3.243773e+02 -2.236043e+02
   endloop
 endfacet
 facet normal -2.692440e-13  6.631227e-01  7.485107e-01
   outer loop
     vertex -6.750000e+02  3.227903e+02 -2.218130e+02
     vertex -6.757000e+02  3.236926e+02 -2.226123e+02
     vertex -6.757000e+02  3.227903e+02 -2.218130e+02
   endloop
 endfacet
 facet normal -2.692824e-13  6.631227e-01  7.485107e-01
   outer loop
     vertex -6.750000e+02  3.227903e+02 -2.218130e+02
     vertex -6.750000e+02  3.236926e+02 -2.226123e+02
     vertex -6.757000e+02  3.236926e+02 -2.226123e+02
   endloop
 endfacet
 facet normal -1.886890e-13  4.647232e-01  8.854560e-01
   outer loop
     vertex -6.750000e+02  3.217230e+02 -2.212528e+02
     vertex -6.757000e+02  3.227903e+02 -2.218130e+02
     vertex -6.757000e+02  3.217230e+02 -2.212528e+02
   endloop
 endfacet
 facet normal -1.886915e-13  4.647232e-01  8.854560e-01
   outer loop
     vertex -6.750000e+02  3.217230e+02 -2.212528e+02
     vertex -6.750000e+02  3.227903e+02 -2.218130e+02
     vertex -6.757000e+02  3.227903e+02 -2.218130e+02
   endloop
 endfacet
 facet normal -9.716800e-14  2.393157e-01  9.709418e-01
   outer loop
     vertex -6.750000e+02  3.205527e+02 -2.209644e+02
     vertex -6.757000e+02  3.217230e+02 -2.212528e+02
     vertex -6.757000e+02  3.205527e+02 -2.209644e+02
   endloop
 endfacet
 facet normal -9.714554e-14  2.393157e-01  9.709418e-01
   outer loop
     vertex -6.750000e+02  3.205527e+02 -2.209644e+02
     vertex -6.750000e+02  3.217230e+02 -2.212528e+02
     vertex -6.757000e+02  3.217230e+02 -2.212528e+02
   endloop
 endfacet
 facet normal  0.000000e+00  0.000000e+00  1.000000e+00
   outer loop
     vertex -6.750000e+02  3.193473e+02 -2.209644e+02
     vertex -6.757000e+02  3.205527e+02 -2.209644e+02
     vertex -6.757000e+02  3.193473e+02 -2.209644e+02
   endloop
 endfacet
 facet normal  0.000000e+00  0.000000e+00  1.000000e+00
   outer loop
     vertex -6.750000e+02  3.193473e+02 -2.209644e+02
     vertex -6.750000e+02  3.205527e+02 -2.209644e+02
     vertex -6.757000e+02  3.205527e+02 -2.209644e+02
   endloop
 endfacet
 facet normal  9.716800e-14 -2.393157e-01  9.709418e-01
   outer loop
     vertex -6.750000e+02  3.181770e+02 -2.212528e+02
     vertex -6.757000e+02  3.193473e+02 -2.209644e+02
     vertex -6.757000e+02  3.181770e+02 -2.212528e+02
   endloop
 endfacet
 facet normal  9.720004e-14 -2.393157e-01  9.709418e-01
   outer loop
     vertex -6.750000e+02  3.181770e+02 -2.212528e+02
     vertex -6.750000e+02  3.193473e+02 -2.209644e+02
     vertex -6.757000e+02  3.193473e+02 -2.209644e+02
   endloop
 endfacet
 facet normal  1.886890e-13 -4.647232e-01  8.854560e-01
   outer loop
     vertex -6.750000e+02  3.171097e+02 -2.218130e+02
     vertex -6.757000e+02  3.181770e+02 -2.212528e+02
     vertex -6.757000e+02  3.171097e+02 -2.218130e+02
   endloop
 endfacet
 facet normal  1.886614e-13 -4.647232e-01  8.854560e-01
   outer loop
     vertex -6.750000e+02  3.171097e+02 -2.218130e+02
     vertex -6.750000e+02  3.181770e+02 -2.212528e+02
     vertex -6.757000e+02  3.181770e+02 -2.212528e+02
   endloop
 endfacet
 facet normal  3.341515e-13 -8.229839e-01  5.680647e-01
   outer loop
     vertex -6.750000e+02  3.162074e+02 -2.226123e+02
     vertex -6.757000e+02  3.162074e+02 -2.226123e+02
     vertex -6.757000e+02  3.155227e+02 -2.236043e+02
   endloop
 endfacet
 facet normal  2.692440e-13 -6.631227e-01  7.485107e-01
   outer loop
     vertex -6.750000e+02  3.162074e+02 -2.226123e+02
     vertex -6.757000e+02  3.171097e+02 -2.218130e+02
     vertex -6.757000e+02  3.162074e+02 -2.226123e+02
   endloop
 endfacet
 facet normal  2.692786e-13 -6.631227e-01  7.485107e-01
   outer loop
     vertex -6.750000e+02  3.162074e+02 -2.226123e+02
     vertex -6.750000e+02  3.171097e+02 -2.218130e+02
     vertex -6.757000e+02  3.171097e+02 -2.218130e+02
   endloop
 endfacet
 facet normal  3.796394e-13 -9.350162e-01  3.546049e-01
   outer loop
     vertex -6.750000e+02  3.155227e+02 -2.236043e+02
     vertex -6.757000e+02  3.155227e+02 -2.236043e+02
     vertex -6.757000e+02  3.150953e+02 -2.247313e+02
   endloop
 endfacet
 facet normal  3.341515e-13 -8.229839e-01  5.680647e-01
   outer loop
     vertex -6.750000e+02  3.155227e+02 -2.236043e+02
     vertex -6.750000e+02  3.162074e+02 -2.226123e+02
     vertex -6.757000e+02  3.155227e+02 -2.236043e+02
   endloop
 endfacet
 facet normal  3.796394e-13 -9.350162e-01  3.546049e-01
   outer loop
     vertex -6.750000e+02  3.150953e+02 -2.247313e+02
     vertex -6.750000e+02  3.155227e+02 -2.236043e+02
     vertex -6.757000e+02  3.150953e+02 -2.247313e+02
   endloop
 endfacet
 facet normal  4.030795e-13 -9.927089e-01  1.205367e-01
   outer loop
     vertex -6.750000e+02  3.149500e+02 -2.259279e+02
     vertex -6.750000e+02  3.150953e+02 -2.247313e+02
     vertex -6.757000e+02  3.150953e+02 -2.247313e+02
   endloop
 endfacet
 facet normal  4.030640e-13 -9.927089e-01  1.205367e-01
   outer loop
     vertex -6.750000e+02  3.149500e+02 -2.259279e+02
     vertex -6.757000e+02  3.150953e+02 -2.247313e+02
     vertex -6.757000e+02  3.149500e+02 -2.259279e+02
   endloop
 endfacet
 facet normal  4.030572e-13 -9.927089e-01 -1.205367e-01
   outer loop
     vertex -6.750000e+02  3.150953e+02 -2.271245e+02
     vertex -6.750000e+02  3.149500e+02 -2.259279e+02
     vertex -6.757000e+02  3.149500e+02 -2.259279e+02
   endloop
 endfacet
 facet normal  4.030640e-13 -9.927089e-01 -1.205367e-01
   outer loop
     vertex -6.750000e+02  3.150953e+02 -2.271245e+02
     vertex -6.757000e+02  3.149500e+02 -2.259279e+02
     vertex -6.757000e+02  3.150953e+02 -2.271245e+02
   endloop
 endfacet
 facet normal  3.796409e-13 -9.350162e-01 -3.546049e-01
   outer loop
     vertex -6.750000e+02  3.155227e+02 -2.282515e+02
     vertex -6.750000e+02  3.150953e+02 -2.271245e+02
     vertex -6.757000e+02  3.150953e+02 -2.271245e+02
   endloop
 endfacet
 facet normal  3.796394e-13 -9.350162e-01 -3.546049e-01
   outer loop
     vertex -6.750000e+02  3.155227e+02 -2.282515e+02
     vertex -6.757000e+02  3.150953e+02 -2.271245e+02
     vertex -6.757000e+02  3.155227e+02 -2.282515e+02
   endloop
 endfacet
 facet normal  3.341967e-13 -8.229839e-01 -5.680647e-01
   outer loop
     vertex -6.750000e+02  3.162074e+02 -2.292435e+02
     vertex -6.750000e+02  3.155227e+02 -2.282515e+02
     vertex -6.757000e+02  3.155227e+02 -2.282515e+02
   endloop
 endfacet
 facet normal  3.341515e-13 -8.229839e-01 -5.680647e-01
   outer loop
     vertex -6.750000e+02  3.162074e+02 -2.292435e+02
     vertex -6.757000e+02  3.155227e+02 -2.282515e+02
     vertex -6.757000e+02  3.162074e+02 -2.292435e+02
   endloop
 endfacet
 facet normal  2.692783e-13 -6.631227e-01 -7.485107e-01
   outer loop
     vertex -6.750000e+02  3.171097e+02 -2.300428e+02
     vertex -6.750000e+02  3.162074e+02 -2.292435e+02
     vertex -6.757000e+02  3.162074e+02 -2.292435e+02
   endloop
 endfacet
 facet normal  2.692440e-13 -6.631227e-01 -7.485107e-01
   outer loop
     vertex -6.750000e+02  3.171097e+02 -2.300428e+02
     vertex -6.757000e+02  3.162074e+02 -2.292435e+02
     vertex -6.757000e+02  3.171097e+02 -2.300428e+02
   endloop
 endfacet
 facet normal  1.886826e-13 -4.647232e-01 -8.854560e-01
   outer loop
     vertex -6.750000e+02  3.181770e+02 -2.306030e+02
     vertex -6.750000e+02  3.171097e+02 -2.300428e+02
     vertex -6.757000e+02  3.171097e+02 -2.300428e+02
   endloop
 endfacet
 facet normal  1.886890e-13 -4.647232e-01 -8.854560e-01
   outer loop
     vertex -6.750000e+02  3.181770e+02 -2.306030e+02
     vertex -6.757000e+02  3.171097e+02 -2.300428e+02
     vertex -6.757000e+02  3.181770e+02 -2.306030e+02
   endloop
 endfacet
 facet normal  9.716800e-14 -2.393157e-01 -9.709418e-01
   outer loop
     vertex -6.750000e+02  3.193473e+02 -2.308914e+02
     vertex -6.757000e+02  3.181770e+02 -2.306030e+02
     vertex -6.757000e+02  3.193473e+02 -2.308914e+02
   endloop
 endfacet
 facet normal  9.719950e-14 -2.393157e-01 -9.709418e-01
   outer loop
     vertex -6.750000e+02  3.193473e+02 -2.308914e+02
     vertex -6.750000e+02  3.181770e+02 -2.306030e+02
     vertex -6.757000e+02  3.181770e+02 -2.306030e+02
   endloop
 endfacet
 facet normal  0.000000e+00 -0.000000e+00 -1.000000e+00
   outer loop
     vertex -6.750000e+02  3.205527e+02 -2.308914e+02
     vertex -6.750000e+02  3.193473e+02 -2.308914e+02
     vertex -6.757000e+02  3.193473e+02 -2.308914e+02
   endloop
 endfacet
 facet normal  0.000000e+00  0.000000e+00 -1.000000e+00
   outer loop
     vertex -6.750000e+02  3.205527e+02 -2.308914e+02
     vertex -6.757000e+02  3.193473e+02 -2.308914e+02
     vertex -6.757000e+02  3.205527e+02 -2.308914e+02
   endloop
 endfacet
 facet normal -9.716800e-14  2.393157e-01 -9.709418e-01
   outer loop
     vertex -6.750000e+02  3.217230e+02 -2.306030e+02
     vertex -6.757000e+02  3.205527e+02 -2.308914e+02
     vertex -6.757000e+02  3.217230e+02 -2.306030e+02
   endloop
 endfacet
 facet normal -9.714500e-14  2.393157e-01 -9.709418e-01
   outer loop
     vertex -6.750000e+02  3.217230e+02 -2.306030e+02
     vertex -6.750000e+02  3.205527e+02 -2.308914e+02
     vertex -6.757000e+02  3.205527e+02 -2.308914e+02
   endloop
 endfacet
 facet normal -1.887127e-13  4.647232e-01 -8.854560e-01
   outer loop
     vertex -6.750000e+02  3.227903e+02 -2.300428e+02
     vertex -6.750000e+02  3.217230e+02 -2.306030e+02
     vertex -6.757000e+02  3.217230e+02 -2.306030e+02
   endloop
 endfacet
 facet normal -1.886890e-13  4.647232e-01 -8.854560e-01
   outer loop
     vertex -6.750000e+02  3.227903e+02 -2.300428e+02
     vertex -6.757000e+02  3.217230e+02 -2.306030e+02
     vertex -6.757000e+02  3.227903e+02 -2.300428e+02
   endloop
 endfacet
 facet normal -2.996354e-13  6.631227e-01 -7.485107e-01
   outer loop
     vertex -6.750000e+02  3.236926e+02 -2.292435e+02
     vertex -6.757000e+02  3.227903e+02 -2.300428e+02
     vertex -6.757000e+02  3.236926e+02 -2.292435e+02
   endloop
 endfacet
 facet normal -2.692783e-13  6.631227e-01 -7.485107e-01
   outer loop
     vertex -6.750000e+02  3.236926e+02 -2.292435e+02
     vertex -6.750000e+02  3.227903e+02 -2.300428e+02
     vertex -6.757000e+02  3.227903e+02 -2.300428e+02
   endloop
 endfacet
 facet normal -3.341515e-13  8.229839e-01 -5.680647e-01
   outer loop
     vertex -6.750000e+02  3.243773e+02 -2.282515e+02
     vertex -6.757000e+02  3.236926e+02 -2.292435e+02
     vertex -6.757000e+02  3.243773e+02 -2.282515e+02
   endloop
 endfacet
 facet normal -3.572234e-13  8.229839e-01 -5.680647e-01
   outer loop
     vertex -6.750000e+02  3.243773e+02 -2.282515e+02
     vertex -6.750000e+02  3.236926e+02 -2.292435e+02
     vertex -6.757000e+02  3.236926e+02 -2.292435e+02
   endloop
 endfacet
 facet normal -4.030640e-13  9.927089e-01 -1.205367e-01
   outer loop
     vertex -6.750000e+02  3.248047e+02 -2.271245e+02
     vertex -6.757000e+02  3.248047e+02 -2.271245e+02
     vertex -6.757000e+02  3.249500e+02 -2.259279e+02
   endloop
 endfacet
 facet normal -3.796394e-13  9.350162e-01 -3.546049e-01
   outer loop
     vertex -6.750000e+02  3.248047e+02 -2.271245e+02
     vertex -6.757000e+02  3.243773e+02 -2.282515e+02
     vertex -6.757000e+02  3.248047e+02 -2.271245e+02
   endloop
 endfacet
 facet normal -3.796353e-13  9.350162e-01 -3.546049e-01
   outer loop
     vertex -6.750000e+02  3.248047e+02 -2.271245e+02
     vertex -6.750000e+02  3.243773e+02 -2.282515e+02
     vertex -6.757000e+02  3.243773e+02 -2.282515e+02
   endloop
 endfacet
 facet normal -4.030640e-13  9.927089e-01 -1.205367e-01
   outer loop
     vertex -6.750000e+02  3.249500e+02 -2.259279e+02
     vertex -6.750000e+02  3.248047e+02 -2.271245e+02
     vertex -6.757000e+02  3.249500e+02 -2.259279e+02
   endloop
 endfacet
 facet normal  1.000000e+00  3.577698e-13 -2.285718e-14
   outer loop
     vertex -6.750000e+02  3.175548e+02 -2.280499e+02
     vertex -6.750000e+02  3.162074e+02 -2.292435e+02
     vertex -6.750000e+02  3.171097e+02 -2.300428e+02
   endloop
 endfacet
 facet normal  1.000000e+00  3.232765e-13  7.091345e-15
   outer loop
     vertex -6.750000e+02  3.181322e+02 -2.285615e+02
     vertex -6.750000e+02  3.171097e+02 -2.300428e+02
     vertex -6.750000e+02  3.181770e+02 -2.306030e+02
   endloop
 endfacet
 facet normal  1.000000e+00  3.709189e-13 -2.579384e-14
   outer loop
     vertex -6.750000e+02  3.181322e+02 -2.285615e+02
     vertex -6.750000e+02  3.175548e+02 -2.280499e+02
     vertex -6.750000e+02  3.171097e+02 -2.300428e+02
   endloop
 endfacet
 facet normal  1.000000e+00  4.466254e-13 -3.552866e-14
   outer loop
     vertex -6.750000e+02  3.171165e+02 -2.274150e+02
     vertex -6.750000e+02  3.155227e+02 -2.282515e+02
     vertex -6.750000e+02  3.162074e+02 -2.292435e+02
   endloop
 endfacet
 facet normal  1.000000e+00  3.078862e-13  3.344978e-14
   outer loop
     vertex -6.750000e+02  3.171165e+02 -2.274150e+02
     vertex -6.750000e+02  3.162074e+02 -2.292435e+02
     vertex -6.750000e+02  3.175548e+02 -2.280499e+02
   endloop
 endfacet
 facet normal  1.000000e+00  3.367464e-13  7.386818e-15
   outer loop
     vertex -6.750000e+02  3.188153e+02 -2.289200e+02
     vertex -6.750000e+02  3.181322e+02 -2.285615e+02
     vertex -6.750000e+02  3.181770e+02 -2.306030e+02
   endloop
 endfacet
 facet normal  1.000000e+00  4.391587e-13  6.567865e-14
   outer loop
     vertex -6.750000e+02  3.168430e+02 -2.266937e+02
     vertex -6.750000e+02  3.150953e+02 -2.271245e+02
     vertex -6.750000e+02  3.155227e+02 -2.282515e+02
   endloop
 endfacet
 facet normal  1.000000e+00  3.569326e-13  1.353667e-13
   outer loop
     vertex -6.750000e+02  3.168430e+02 -2.266937e+02
     vertex -6.750000e+02  3.155227e+02 -2.282515e+02
     vertex -6.750000e+02  3.171165e+02 -2.274150e+02
   endloop
 endfacet
 facet normal  1.000000e+00  3.924949e-13  1.596573e-14
   outer loop
     vertex -6.750000e+02  3.195643e+02 -2.291046e+02
     vertex -6.750000e+02  3.181770e+02 -2.306030e+02
     vertex -6.750000e+02  3.193473e+02 -2.308914e+02
   endloop
 endfacet
 facet normal  1.000000e+00  4.468701e-13 -3.437759e-14
   outer loop
     vertex -6.750000e+02  3.195643e+02 -2.291046e+02
     vertex -6.750000e+02  3.188153e+02 -2.289200e+02
     vertex -6.750000e+02  3.181770e+02 -2.306030e+02
   endloop
 endfacet
 facet normal  1.000000e+00  3.789561e-13  1.410235e-13
   outer loop
     vertex -6.750000e+02  3.167500e+02 -2.259279e+02
     vertex -6.750000e+02  3.149500e+02 -2.259279e+02
     vertex -6.750000e+02  3.150953e+02 -2.271245e+02
   endloop
 endfacet
 facet normal  1.000000e+00  4.421155e-13  5.368254e-14
   outer loop
     vertex -6.750000e+02  3.167500e+02 -2.259279e+02
     vertex -6.750000e+02  3.150953e+02 -2.271245e+02
     vertex -6.750000e+02  3.168430e+02 -2.266937e+02
   endloop
 endfacet
 facet normal  1.000000e+00  3.772689e-13 -1.781451e-14
   outer loop
     vertex -6.750000e+02  3.203357e+02 -2.291046e+02
     vertex -6.750000e+02  3.193473e+02 -2.308914e+02
     vertex -6.750000e+02  3.205527e+02 -2.308914e+02
   endloop
 endfacet
 facet normal  1.000000e+00  2.947413e-13  2.783517e-14
   outer loop
     vertex -6.750000e+02  3.203357e+02 -2.291046e+02
     vertex -6.750000e+02  3.195643e+02 -2.291046e+02
     vertex -6.750000e+02  3.193473e+02 -2.308914e+02
   endloop
 endfacet
 facet normal  1.000000e+00  3.789561e-13 -4.601360e-14
   outer loop
     vertex -6.750000e+02  3.168430e+02 -2.251621e+02
     vertex -6.750000e+02  3.150953e+02 -2.247313e+02
     vertex -6.750000e+02  3.149500e+02 -2.259279e+02
   endloop
 endfacet
 facet normal  1.000000e+00  3.789561e-13 -4.601360e-14
   outer loop
     vertex -6.750000e+02  3.168430e+02 -2.251621e+02
     vertex -6.750000e+02  3.149500e+02 -2.259279e+02
     vertex -6.750000e+02  3.167500e+02 -2.259279e+02
   endloop
 endfacet
 facet normal  1.000000e+00  3.857954e-13  1.121503e-14
   outer loop
     vertex -6.750000e+02  3.210847e+02 -2.289200e+02
     vertex -6.750000e+02  3.205527e+02 -2.308914e+02
     vertex -6.750000e+02  3.217230e+02 -2.306030e+02
   endloop
 endfacet
 facet normal  1.000000e+00  4.573380e-13 -8.092355e-15
   outer loop
     vertex -6.750000e+02  3.210847e+02 -2.289200e+02
     vertex -6.750000e+02  3.203357e+02 -2.291046e+02
     vertex -6.750000e+02  3.205527e+02 -2.308914e+02
   endloop
 endfacet
 facet normal  1.000000e+00  3.857505e-13  5.544869e-14
   outer loop
     vertex -6.750000e+02  3.171165e+02 -2.244408e+02
     vertex -6.750000e+02  3.155227e+02 -2.236043e+02
     vertex -6.750000e+02  3.150953e+02 -2.247313e+02
   endloop
 endfacet
 facet normal  1.000000e+00  3.924597e-13  8.772590e-15
   outer loop
     vertex -6.750000e+02  3.171165e+02 -2.244408e+02
     vertex -6.750000e+02  3.150953e+02 -2.247313e+02
     vertex -6.750000e+02  3.168430e+02 -2.251621e+02
   endloop
 endfacet
 facet normal  1.000000e+00  3.232765e-13 -7.091345e-15
   outer loop
     vertex -6.750000e+02  3.217678e+02 -2.285615e+02
     vertex -6.750000e+02  3.217230e+02 -2.306030e+02
     vertex -6.750000e+02  3.227903e+02 -2.300428e+02
   endloop
 endfacet
 facet normal  1.000000e+00  3.367464e-13 -7.386818e-15
   outer loop
     vertex -6.750000e+02  3.217678e+02 -2.285615e+02
     vertex -6.750000e+02  3.210847e+02 -2.289200e+02
     vertex -6.750000e+02  3.217230e+02 -2.306030e+02
   endloop
 endfacet
 facet normal  1.000000e+00  3.354501e-13 -2.336551e-15
   outer loop
     vertex -6.750000e+02  3.175548e+02 -2.238059e+02
     vertex -6.750000e+02  3.162074e+02 -2.226123e+02
     vertex -6.750000e+02  3.155227e+02 -2.236043e+02
   endloop
 endfacet
 facet normal  1.000000e+00  3.307941e-13 -4.926196e-14
   outer loop
     vertex -6.750000e+02  3.175548e+02 -2.238059e+02
     vertex -6.750000e+02  3.155227e+02 -2.236043e+02
     vertex -6.750000e+02  3.171165e+02 -2.244408e+02
   endloop
 endfacet
 facet normal  1.000000e+00  3.709189e-13  2.579384e-14
   outer loop
     vertex -6.750000e+02  3.223452e+02 -2.280499e+02
     vertex -6.750000e+02  3.217678e+02 -2.285615e+02
     vertex -6.750000e+02  3.227903e+02 -2.300428e+02
   endloop
 endfacet
 facet normal  1.000000e+00  3.577698e-13  2.285718e-14
   outer loop
     vertex -6.750000e+02  3.236926e+02 -2.292435e+02
     vertex -6.750000e+02  3.223452e+02 -2.280499e+02
     vertex -6.750000e+02  3.227903e+02 -2.300428e+02
   endloop
 endfacet
 facet normal  1.000000e+00  3.656452e-13  3.174667e-14
   outer loop
     vertex -6.750000e+02  3.181322e+02 -2.232944e+02
     vertex -6.750000e+02  3.162074e+02 -2.226123e+02
     vertex -6.750000e+02  3.175548e+02 -2.238059e+02
   endloop
 endfacet
 facet normal  1.000000e+00  3.611450e-13  1.904736e-14
   outer loop
     vertex -6.750000e+02  3.171097e+02 -2.218130e+02
     vertex -6.750000e+02  3.162074e+02 -2.226123e+02
     vertex -6.750000e+02  3.181322e+02 -2.232944e+02
   endloop
 endfacet
 facet normal  1.000000e+00  3.078862e-13 -3.344978e-14
   outer loop
     vertex -6.750000e+02  3.227835e+02 -2.274150e+02
     vertex -6.750000e+02  3.223452e+02 -2.280499e+02
     vertex -6.750000e+02  3.236926e+02 -2.292435e+02
   endloop
 endfacet
 facet normal  1.000000e+00  3.501111e-13 -1.245634e-14
   outer loop
     vertex -6.750000e+02  3.243773e+02 -2.282515e+02
     vertex -6.750000e+02  3.227835e+02 -2.274150e+02
     vertex -6.750000e+02  3.236926e+02 -2.292435e+02
   endloop
 endfacet
 facet normal  1.000000e+00  3.232765e-13 -7.091345e-15
   outer loop
     vertex -6.750000e+02  3.181770e+02 -2.212528e+02
     vertex -6.750000e+02  3.171097e+02 -2.218130e+02
     vertex -6.750000e+02  3.181322e+02 -2.232944e+02
   endloop
 endfacet
 facet normal  1.000000e+00  3.367464e-13 -7.386818e-15
   outer loop
     vertex -6.750000e+02  3.181770e+02 -2.212528e+02
     vertex -6.750000e+02  3.181322e+02 -2.232944e+02
     vertex -6.750000e+02  3.188153e+02 -2.229359e+02
   endloop
 endfacet
 facet normal  1.000000e+00  4.468701e-13  3.437759e-14
   outer loop
     vertex -6.750000e+02  3.181770e+02 -2.212528e+02
     vertex -6.750000e+02  3.188153e+02 -2.229359e+02
     vertex -6.750000e+02  3.195643e+02 -2.227512e+02
   endloop
 endfacet
 facet normal  1.000000e+00  3.857505e-13  5.544869e-14
   outer loop
     vertex -6.750000e+02  3.248047e+02 -2.271245e+02
     vertex -6.750000e+02  3.227835e+02 -2.274150e+02
     vertex -6.750000e+02  3.243773e+02 -2.282515e+02
   endloop
 endfacet
 facet normal  1.000000e+00  3.684981e-13  1.754730e-13
   outer loop
     vertex -6.750000e+02  3.248047e+02 -2.271245e+02
     vertex -6.750000e+02  3.230570e+02 -2.266937e+02
     vertex -6.750000e+02  3.227835e+02 -2.274150e+02
   endloop
 endfacet
 facet normal  1.000000e+00  3.924949e-13 -1.596573e-14
   outer loop
     vertex -6.750000e+02  3.193473e+02 -2.209644e+02
     vertex -6.750000e+02  3.181770e+02 -2.212528e+02
     vertex -6.750000e+02  3.195643e+02 -2.227512e+02
   endloop
 endfacet
 facet normal  1.000000e+00  2.947413e-13 -2.783517e-14
   outer loop
     vertex -6.750000e+02  3.193473e+02 -2.209644e+02
     vertex -6.750000e+02  3.195643e+02 -2.227512e+02
     vertex -6.750000e+02  3.203357e+02 -2.227512e+02
   endloop
 endfacet
 facet normal  1.000000e+00  3.789561e-13 -4.601360e-14
   outer loop
     vertex -6.750000e+02  3.249500e+02 -2.259279e+02
     vertex -6.750000e+02  3.231500e+02 -2.259279e+02
     vertex -6.750000e+02  3.230570e+02 -2.266937e+02
   endloop
 endfacet
 facet normal  1.000000e+00  3.385341e-13  5.390446e-14
   outer loop
     vertex -6.750000e+02  3.249500e+02 -2.259279e+02
     vertex -6.750000e+02  3.230570e+02 -2.266937e+02
     vertex -6.750000e+02  3.248047e+02 -2.271245e+02
   endloop
 endfacet
 facet normal  1.000000e+00  3.772689e-13  1.781451e-14
   outer loop
     vertex -6.750000e+02  3.205527e+02 -2.209644e+02
     vertex -6.750000e+02  3.193473e+02 -2.209644e+02
     vertex -6.750000e+02  3.203357e+02 -2.227512e+02
   endloop
 endfacet
 facet normal  1.000000e+00  3.789561e-13  4.601360e-14
   outer loop
     vertex -6.750000e+02  3.248047e+02 -2.247313e+02
     vertex -6.750000e+02  3.231500e+02 -2.259279e+02
     vertex -6.750000e+02  3.249500e+02 -2.259279e+02
   endloop
 endfacet
 facet normal  1.000000e+00  3.789561e-13  4.601360e-14
   outer loop
     vertex -6.750000e+02  3.248047e+02 -2.247313e+02
     vertex -6.750000e+02  3.230570e+02 -2.251621e+02
     vertex -6.750000e+02  3.231500e+02 -2.259279e+02
   endloop
 endfacet
 facet normal  1.000000e+00  3.924949e-13  1.596573e-14
   outer loop
     vertex -6.750000e+02  3.217230e+02 -2.212528e+02
     vertex -6.750000e+02  3.205527e+02 -2.209644e+02
     vertex -6.750000e+02  3.203357e+02 -2.227512e+02
   endloop
 endfacet
 facet normal  1.000000e+00  4.468701e-13 -3.437759e-14
   outer loop
     vertex -6.750000e+02  3.217230e+02 -2.212528e+02
     vertex -6.750000e+02  3.203357e+02 -2.227512e+02
     vertex -6.750000e+02  3.210847e+02 -2.229359e+02
   endloop
 endfacet
 facet normal  1.000000e+00  4.259221e-13  3.918035e-15
   outer loop
     vertex -6.750000e+02  3.243773e+02 -2.236043e+02
     vertex -6.750000e+02  3.227835e+02 -2.244408e+02
     vertex -6.750000e+02  3.230570e+02 -2.251621e+02
   endloop
 endfacet
 facet normal  1.000000e+00  3.796699e-13  4.311754e-14
   outer loop
     vertex -6.750000e+02  3.243773e+02 -2.236043e+02
     vertex -6.750000e+02  3.230570e+02 -2.251621e+02
     vertex -6.750000e+02  3.248047e+02 -2.247313e+02
   endloop
 endfacet
 facet normal  1.000000e+00  3.256419e-13  1.159819e-14
   outer loop
     vertex -6.750000e+02  3.227903e+02 -2.218130e+02
     vertex -6.750000e+02  3.217230e+02 -2.212528e+02
     vertex -6.750000e+02  3.210847e+02 -2.229359e+02
   endloop
 endfacet
 facet normal  1.000000e+00  3.330505e-13  3.448700e-16
   outer loop
     vertex -6.750000e+02  3.227903e+02 -2.218130e+02
     vertex -6.750000e+02  3.210847e+02 -2.229359e+02
     vertex -6.750000e+02  3.217678e+02 -2.232944e+02
   endloop
 endfacet
 facet normal  1.000000e+00  3.656452e-13 -3.174667e-14
   outer loop
     vertex -6.750000e+02  3.236926e+02 -2.226123e+02
     vertex -6.750000e+02  3.217678e+02 -2.232944e+02
     vertex -6.750000e+02  3.223452e+02 -2.238059e+02
   endloop
 endfacet
 facet normal  1.000000e+00  3.078862e-13  3.344978e-14
   outer loop
     vertex -6.750000e+02  3.236926e+02 -2.226123e+02
     vertex -6.750000e+02  3.223452e+02 -2.238059e+02
     vertex -6.750000e+02  3.227835e+02 -2.244408e+02
   endloop
 endfacet
 facet normal  1.000000e+00  3.611450e-13 -1.904736e-14
   outer loop
     vertex -6.750000e+02  3.236926e+02 -2.226123e+02
     vertex -6.750000e+02  3.227903e+02 -2.218130e+02
     vertex -6.750000e+02  3.217678e+02 -2.232944e+02
   endloop
 endfacet
 facet normal  1.000000e+00  4.466254e-13 -3.552866e-14
   outer loop
     vertex -6.750000e+02  3.236926e+02 -2.226123e+02
     vertex -6.750000e+02  3.227835e+02 -2.244408e+02
     vertex -6.750000e+02  3.243773e+02 -2.236043e+02
   endloop
 endfacet
 facet normal -1.000000e+00 -3.984533e-13  6.877941e-14
   outer loop
     vertex -6.757000e+02  3.175548e+02 -2.280499e+02
     vertex -6.757000e+02  3.162074e+02 -2.292435e+02
     vertex -6.757000e+02  3.155227e+02 -2.282515e+02
   endloop
 endfacet
 facet normal -1.000000e+00 -3.611450e-13  1.904736e-14
   outer loop
     vertex -6.757000e+02  3.181322e+02 -2.285615e+02
     vertex -6.757000e+02  3.171097e+02 -2.300428e+02
     vertex -6.757000e+02  3.162074e+02 -2.292435e+02
   endloop
 endfacet
 facet normal -1.000000e+00 -3.656452e-13  3.174667e-14
   outer loop
     vertex -6.757000e+02  3.181322e+02 -2.285615e+02
     vertex -6.757000e+02  3.162074e+02 -2.292435e+02
     vertex -6.757000e+02  3.175548e+02 -2.280499e+02
   endloop
 endfacet
 facet normal -1.000000e+00 -4.010859e-13 -5.123954e-14
   outer loop
     vertex -6.757000e+02  3.171165e+02 -2.274150e+02
     vertex -6.757000e+02  3.155227e+02 -2.282515e+02
     vertex -6.757000e+02  3.150953e+02 -2.271245e+02
   endloop
 endfacet
 facet normal -1.000000e+00 -3.831550e-13 -8.540408e-14
   outer loop
     vertex -6.757000e+02  3.171165e+02 -2.274150e+02
     vertex -6.757000e+02  3.175548e+02 -2.280499e+02
     vertex -6.757000e+02  3.155227e+02 -2.282515e+02
   endloop
 endfacet
 facet normal -1.000000e+00 -3.256419e-13 -1.159819e-14
   outer loop
     vertex -6.757000e+02  3.188153e+02 -2.289200e+02
     vertex -6.757000e+02  3.181770e+02 -2.306030e+02
     vertex -6.757000e+02  3.171097e+02 -2.300428e+02
   endloop
 endfacet
 facet normal -1.000000e+00 -3.330505e-13 -3.448700e-16
   outer loop
     vertex -6.757000e+02  3.188153e+02 -2.289200e+02
     vertex -6.757000e+02  3.171097e+02 -2.300428e+02
     vertex -6.757000e+02  3.181322e+02 -2.285615e+02
   endloop
 endfacet
 facet normal -1.000000e+00 -4.193781e-13 -1.459317e-13
   outer loop
     vertex -6.757000e+02  3.168430e+02 -2.266937e+02
     vertex -6.757000e+02  3.150953e+02 -2.271245e+02
     vertex -6.757000e+02  3.149500e+02 -2.259279e+02
   endloop
 endfacet
 facet normal -1.000000e+00 -4.164213e-13 -1.579278e-13
   outer loop
     vertex -6.757000e+02  3.168430e+02 -2.266937e+02
     vertex -6.757000e+02  3.171165e+02 -2.274150e+02
     vertex -6.757000e+02  3.150953e+02 -2.271245e+02
   endloop
 endfacet
 facet normal -1.000000e+00 -3.924949e-13 -1.596573e-14
   outer loop
     vertex -6.757000e+02  3.195643e+02 -2.291046e+02
     vertex -6.757000e+02  3.193473e+02 -2.308914e+02
     vertex -6.757000e+02  3.181770e+02 -2.306030e+02
   endloop
 endfacet
 facet normal -1.000000e+00 -4.468701e-13  3.437759e-14
   outer loop
     vertex -6.757000e+02  3.195643e+02 -2.291046e+02
     vertex -6.757000e+02  3.181770e+02 -2.306030e+02
     vertex -6.757000e+02  3.188153e+02 -2.289200e+02
   endloop
 endfacet
 facet normal -1.000000e+00 -3.789561e-13  4.601360e-14
   outer loop
     vertex -6.757000e+02  3.167500e+02 -2.259279e+02
     vertex -6.757000e+02  3.149500e+02 -2.259279e+02
     vertex -6.757000e+02  3.150953e+02 -2.247313e+02
   endloop
 endfacet
 facet normal -1.000000e+00 -3.789561e-13 -4.601360e-14
   outer loop
     vertex -6.757000e+02  3.167500e+02 -2.259279e+02
     vertex -6.757000e+02  3.168430e+02 -2.266937e+02
     vertex -6.757000e+02  3.149500e+02 -2.259279e+02
   endloop
 endfacet
 facet normal -1.000000e+00 -3.772689e-13  1.781451e-14
   outer loop
     vertex -6.757000e+02  3.203357e+02 -2.291046e+02
     vertex -6.757000e+02  3.205527e+02 -2.308914e+02
     vertex -6.757000e+02  3.193473e+02 -2.308914e+02
   endloop
 endfacet
 facet normal -1.000000e+00 -2.947413e-13 -2.783517e-14
   outer loop
     vertex -6.757000e+02  3.203357e+02 -2.291046e+02
     vertex -6.757000e+02  3.193473e+02 -2.308914e+02
     vertex -6.757000e+02  3.195643e+02 -2.291046e+02
   endloop
 endfacet
 facet normal -1.000000e+00 -3.789561e-13  4.601360e-14
   outer loop
     vertex -6.757000e+02  3.168430e+02 -2.251621e+02
     vertex -6.757000e+02  3.167500e+02 -2.259279e+02
     vertex -6.757000e+02  3.150953e+02 -2.247313e+02
   endloop
 endfacet
 facet normal -1.000000e+00 -4.024073e-13 -4.913158e-14
   outer loop
     vertex -6.757000e+02  3.155227e+02 -2.236043e+02
     vertex -6.757000e+02  3.168430e+02 -2.251621e+02
     vertex -6.757000e+02  3.150953e+02 -2.247313e+02
   endloop
 endfacet
 facet normal -1.000000e+00 -3.857954e-13 -1.121503e-14
   outer loop
     vertex -6.757000e+02  3.210847e+02 -2.289200e+02
     vertex -6.757000e+02  3.217230e+02 -2.306030e+02
     vertex -6.757000e+02  3.205527e+02 -2.308914e+02
   endloop
 endfacet
 facet normal -1.000000e+00 -4.573380e-13  8.092355e-15
   outer loop
     vertex -6.757000e+02  3.210847e+02 -2.289200e+02
     vertex -6.757000e+02  3.205527e+02 -2.308914e+02
     vertex -6.757000e+02  3.203357e+02 -2.291046e+02
   endloop
 endfacet
 facet normal -1.000000e+00 -3.664334e-13 -1.864308e-14
   outer loop
     vertex -6.757000e+02  3.171165e+02 -2.244408e+02
     vertex -6.757000e+02  3.168430e+02 -2.251621e+02
     vertex -6.757000e+02  3.155227e+02 -2.236043e+02
   endloop
 endfacet
 facet normal -1.000000e+00 -3.232765e-13  7.091345e-15
   outer loop
     vertex -6.757000e+02  3.217678e+02 -2.285615e+02
     vertex -6.757000e+02  3.227903e+02 -2.300428e+02
     vertex -6.757000e+02  3.217230e+02 -2.306030e+02
   endloop
 endfacet
 facet normal -1.000000e+00 -3.367464e-13  7.386818e-15
   outer loop
     vertex -6.757000e+02  3.217678e+02 -2.285615e+02
     vertex -6.757000e+02  3.217230e+02 -2.306030e+02
     vertex -6.757000e+02  3.210847e+02 -2.289200e+02
   endloop
 endfacet
 facet normal -1.000000e+00 -3.501111e-13  1.245634e-14
   outer loop
     vertex -6.757000e+02  3.162074e+02 -2.226123e+02
     vertex -6.757000e+02  3.171165e+02 -2.244408e+02
     vertex -6.757000e+02  3.155227e+02 -2.236043e+02
   endloop
 endfacet
 facet normal -1.000000e+00 -3.078862e-13  3.344978e-14
   outer loop
     vertex -6.757000e+02  3.175548e+02 -2.238059e+02
     vertex -6.757000e+02  3.171165e+02 -2.244408e+02
     vertex -6.757000e+02  3.162074e+02 -2.226123e+02
   endloop
 endfacet
 facet normal -1.000000e+00 -3.709189e-13 -2.579384e-14
   outer loop
     vertex -6.757000e+02  3.223452e+02 -2.280499e+02
     vertex -6.757000e+02  3.227903e+02 -2.300428e+02
     vertex -6.757000e+02  3.217678e+02 -2.285615e+02
   endloop
 endfacet
 facet normal -1.000000e+00 -3.577698e-13 -2.285718e-14
   outer loop
     vertex -6.757000e+02  3.236926e+02 -2.292435e+02
     vertex -6.757000e+02  3.227903e+02 -2.300428e+02
     vertex -6.757000e+02  3.223452e+02 -2.280499e+02
   endloop
 endfacet
 facet normal -1.000000e+00 -3.577698e-13 -2.285718e-14
   outer loop
     vertex -6.757000e+02  3.171097e+02 -2.218130e+02
     vertex -6.757000e+02  3.175548e+02 -2.238059e+02
     vertex -6.757000e+02  3.162074e+02 -2.226123e+02
   endloop
 endfacet
 facet normal -1.000000e+00 -3.709189e-13 -2.579384e-14
   outer loop
     vertex -6.757000e+02  3.171097e+02 -2.218130e+02
     vertex -6.757000e+02  3.181322e+02 -2.232944e+02
     vertex -6.757000e+02  3.175548e+02 -2.238059e+02
   endloop
 endfacet
 facet normal -1.000000e+00 -3.078862e-13  3.344978e-14
   outer loop
     vertex -6.757000e+02  3.227835e+02 -2.274150e+02
     vertex -6.757000e+02  3.236926e+02 -2.292435e+02
     vertex -6.757000e+02  3.223452e+02 -2.280499e+02
   endloop
 endfacet
 facet normal -1.000000e+00 -3.501111e-13  1.245634e-14
   outer loop
     vertex -6.757000e+02  3.243773e+02 -2.282515e+02
     vertex -6.757000e+02  3.236926e+02 -2.292435e+02
     vertex -6.757000e+02  3.227835e+02 -2.274150e+02
   endloop
 endfacet
 facet normal -1.000000e+00 -4.354229e-13 -1.500917e-13
   outer loop
     vertex -6.757000e+02  3.230570e+02 -2.266937e+02
     vertex -6.757000e+02  3.243773e+02 -2.282515e+02
     vertex -6.757000e+02  3.227835e+02 -2.274150e+02
   endloop
 endfacet
 facet normal -1.000000e+00 -3.232765e-13  7.091345e-15
   outer loop
     vertex -6.757000e+02  3.181770e+02 -2.212528e+02
     vertex -6.757000e+02  3.181322e+02 -2.232944e+02
     vertex -6.757000e+02  3.171097e+02 -2.218130e+02
   endloop
 endfacet
 facet normal -1.000000e+00 -3.367464e-13  7.386818e-15
   outer loop
     vertex -6.757000e+02  3.181770e+02 -2.212528e+02
     vertex -6.757000e+02  3.188153e+02 -2.229359e+02
     vertex -6.757000e+02  3.181322e+02 -2.232944e+02
   endloop
 endfacet
 facet normal -1.000000e+00 -3.429185e-13 -7.169269e-14
   outer loop
     vertex -6.757000e+02  3.248047e+02 -2.271245e+02
     vertex -6.757000e+02  3.243773e+02 -2.282515e+02
     vertex -6.757000e+02  3.230570e+02 -2.266937e+02
   endloop
 endfacet
 facet normal -1.000000e+00 -3.857954e-13 -1.121503e-14
   outer loop
     vertex -6.757000e+02  3.193473e+02 -2.209644e+02
     vertex -6.757000e+02  3.188153e+02 -2.229359e+02
     vertex -6.757000e+02  3.181770e+02 -2.212528e+02
   endloop
 endfacet
 facet normal -1.000000e+00 -4.573380e-13  8.092355e-15
   outer loop
     vertex -6.757000e+02  3.193473e+02 -2.209644e+02
     vertex -6.757000e+02  3.195643e+02 -2.227512e+02
     vertex -6.757000e+02  3.188153e+02 -2.229359e+02
   endloop
 endfacet
 facet normal -1.000000e+00 -3.385341e-13 -5.390446e-14
   outer loop
     vertex -6.757000e+02  3.249500e+02 -2.259279e+02
     vertex -6.757000e+02  3.248047e+02 -2.271245e+02
     vertex -6.757000e+02  3.230570e+02 -2.266937e+02
   endloop
 endfacet
 facet normal -1.000000e+00 -3.789561e-13  4.601360e-14
   outer loop
     vertex -6.757000e+02  3.249500e+02 -2.259279e+02
     vertex -6.757000e+02  3.230570e+02 -2.266937e+02
     vertex -6.757000e+02  3.231500e+02 -2.259279e+02
   endloop
 endfacet
 facet normal -1.000000e+00 -2.947413e-13 -2.783517e-14
   outer loop
     vertex -6.757000e+02  3.205527e+02 -2.209644e+02
     vertex -6.757000e+02  3.203357e+02 -2.227512e+02
     vertex -6.757000e+02  3.195643e+02 -2.227512e+02
   endloop
 endfacet
 facet normal -1.000000e+00 -3.772689e-13  1.781451e-14
   outer loop
     vertex -6.757000e+02  3.205527e+02 -2.209644e+02
     vertex -6.757000e+02  3.195643e+02 -2.227512e+02
     vertex -6.757000e+02  3.193473e+02 -2.209644e+02
   endloop
 endfacet
 facet normal -1.000000e+00 -3.789561e-13 -4.601360e-14
   outer loop
     vertex -6.757000e+02  3.248047e+02 -2.247313e+02
     vertex -6.757000e+02  3.249500e+02 -2.259279e+02
     vertex -6.757000e+02  3.231500e+02 -2.259279e+02
   endloop
 endfacet
 facet normal -1.000000e+00 -3.789561e-13 -4.601360e-14
   outer loop
     vertex -6.757000e+02  3.248047e+02 -2.247313e+02
     vertex -6.757000e+02  3.231500e+02 -2.259279e+02
     vertex -6.757000e+02  3.230570e+02 -2.251621e+02
   endloop
 endfacet
 facet normal -1.000000e+00 -3.924597e-13  8.772590e-15
   outer loop
     vertex -6.757000e+02  3.248047e+02 -2.247313e+02
     vertex -6.757000e+02  3.230570e+02 -2.251621e+02
     vertex -6.757000e+02  3.227835e+02 -2.244408e+02
   endloop
 endfacet
 facet normal -1.000000e+00 -3.924949e-13 -1.596573e-14
   outer loop
     vertex -6.757000e+02  3.217230e+02 -2.212528e+02
     vertex -6.757000e+02  3.203357e+02 -2.227512e+02
     vertex -6.757000e+02  3.205527e+02 -2.209644e+02
   endloop
 endfacet
 facet normal -1.000000e+00 -4.468701e-13  3.437759e-14
   outer loop
     vertex -6.757000e+02  3.217230e+02 -2.212528e+02
     vertex -6.757000e+02  3.210847e+02 -2.229359e+02
     vertex -6.757000e+02  3.203357e+02 -2.227512e+02
   endloop
 endfacet
 facet normal -1.000000e+00 -4.010859e-13 -5.123954e-14
   outer loop
     vertex -6.757000e+02  3.243773e+02 -2.236043e+02
     vertex -6.757000e+02  3.248047e+02 -2.247313e+02
     vertex -6.757000e+02  3.227835e+02 -2.244408e+02
   endloop
 endfacet
 facet normal -1.000000e+00 -3.256419e-13 -1.159819e-14
   outer loop
     vertex -6.757000e+02  3.227903e+02 -2.218130e+02
     vertex -6.757000e+02  3.210847e+02 -2.229359e+02
     vertex -6.757000e+02  3.217230e+02 -2.212528e+02
   endloop
 endfacet
 facet normal -1.000000e+00 -3.330505e-13 -3.448700e-16
   outer loop
     vertex -6.757000e+02  3.227903e+02 -2.218130e+02
     vertex -6.757000e+02  3.217678e+02 -2.232944e+02
     vertex -6.757000e+02  3.210847e+02 -2.229359e+02
   endloop
 endfacet
 facet normal -1.000000e+00 -3.078862e-13 -3.344978e-14
   outer loop
     vertex -6.757000e+02  3.236926e+02 -2.226123e+02
     vertex -6.757000e+02  3.227835e+02 -2.244408e+02
     vertex -6.757000e+02  3.223452e+02 -2.238059e+02
   endloop
 endfacet
 facet normal -1.000000e+00 -3.656452e-13  3.174667e-14
   outer loop
     vertex -6.757000e+02  3.236926e+02 -2.226123e+02
     vertex -6.757000e+02  3.223452e+02 -2.238059e+02
     vertex -6.757000e+02  3.217678e+02 -2.232944e+02
   endloop
 endfacet
 facet normal -1.000000e+00 -4.466254e-13  3.552866e-14
   outer loop
     vertex -6.757000e+02  3.236926e+02 -2.226123e+02
     vertex -6.757000e+02  3.243773e+02 -2.236043e+02
     vertex -6.757000e+02  3.227835e+02 -2.244408e+02
   endloop
 endfacet
 facet normal -1.000000e+00 -3.611450e-13  1.904736e-14
   outer loop
     vertex -6.757000e+02  3.236926e+02 -2.226123e+02
     vertex -6.757000e+02  3.217678e+02 -2.232944e+02
     vertex -6.757000e+02  3.227903e+02 -2.218130e+02
   endloop
 endfacet
endsolid
