solid 
 facet normal -8.969920e-01 -0.000000e+00 -4.420467e-01
   outer loop
     vertex -3.764839e+02 -5.012026e+02 -2.576994e+02
     vertex -3.760364e+02 -5.020026e+02 -2.586076e+02
     vertex -3.764839e+02 -5.020026e+02 -2.576994e+02
   endloop
 endfacet
 facet normal -9.767158e-01 -0.000000e+00 -2.145374e-01
   outer loop
     vertex -3.760364e+02 -5.012026e+02 -2.586076e+02
     vertex -3.758191e+02 -5.020026e+02 -2.595965e+02
     vertex -3.760364e+02 -5.020026e+02 -2.586076e+02
   endloop
 endfacet
 facet normal -8.969920e-01 -0.000000e+00 -4.420467e-01
   outer loop
     vertex -3.760364e+02 -5.012026e+02 -2.586076e+02
     vertex -3.760364e+02 -5.020026e+02 -2.586076e+02
     vertex -3.764839e+02 -5.012026e+02 -2.576994e+02
   endloop
 endfacet
 facet normal -9.996763e-01  0.000000e+00  2.544005e-02
   outer loop
     vertex -3.758191e+02 -5.012026e+02 -2.595965e+02
     vertex -3.758449e+02 -5.020026e+02 -2.606087e+02
     vertex -3.758191e+02 -5.020026e+02 -2.595965e+02
   endloop
 endfacet
 facet normal -9.767158e-01 -0.000000e+00 -2.145374e-01
   outer loop
     vertex -3.758191e+02 -5.012026e+02 -2.595965e+02
     vertex -3.758191e+02 -5.020026e+02 -2.595965e+02
     vertex -3.760364e+02 -5.012026e+02 -2.586076e+02
   endloop
 endfacet
 facet normal -9.645394e-01  8.728864e-14  2.639390e-01
   outer loop
     vertex -3.758449e+02 -5.012026e+02 -2.606087e+02
     vertex -3.761121e+02 -5.020026e+02 -2.615853e+02
     vertex -3.758449e+02 -5.020026e+02 -2.606087e+02
   endloop
 endfacet
 facet normal -9.996763e-01  7.283890e-14  2.544005e-02
   outer loop
     vertex -3.758449e+02 -5.012026e+02 -2.606087e+02
     vertex -3.758449e+02 -5.020026e+02 -2.606087e+02
     vertex -3.758191e+02 -5.012026e+02 -2.595965e+02
   endloop
 endfacet
 facet normal -8.733469e-01  0.000000e+00  4.870988e-01
   outer loop
     vertex -3.761121e+02 -5.012026e+02 -2.615853e+02
     vertex -3.766053e+02 -5.020026e+02 -2.624696e+02
     vertex -3.761121e+02 -5.020026e+02 -2.615853e+02
   endloop
 endfacet
 facet normal -9.645394e-01  0.000000e+00  2.639390e-01
   outer loop
     vertex -3.761121e+02 -5.012026e+02 -2.615853e+02
     vertex -3.761121e+02 -5.020026e+02 -2.615853e+02
     vertex -3.758449e+02 -5.012026e+02 -2.606087e+02
   endloop
 endfacet
 facet normal -7.313986e-01 -1.039380e-13  6.819502e-01
   outer loop
     vertex -3.766053e+02 -5.012026e+02 -2.624696e+02
     vertex -3.772958e+02 -5.020026e+02 -2.632101e+02
     vertex -3.766053e+02 -5.020026e+02 -2.624696e+02
   endloop
 endfacet
 facet normal -8.733469e-01 -1.241101e-13  4.870988e-01
   outer loop
     vertex -3.766053e+02 -5.012026e+02 -2.624696e+02
     vertex -3.766053e+02 -5.020026e+02 -2.624696e+02
     vertex -3.761121e+02 -5.012026e+02 -2.615853e+02
   endloop
 endfacet
 facet normal -5.469441e-01  0.000000e+00  8.371691e-01
   outer loop
     vertex -3.772958e+02 -5.012026e+02 -2.632101e+02
     vertex -3.781434e+02 -5.020026e+02 -2.637639e+02
     vertex -3.772958e+02 -5.020026e+02 -2.632101e+02
   endloop
 endfacet
 facet normal -7.313986e-01  0.000000e+00  6.819502e-01
   outer loop
     vertex -3.772958e+02 -5.012026e+02 -2.632101e+02
     vertex -3.772958e+02 -5.020026e+02 -2.632101e+02
     vertex -3.766053e+02 -5.012026e+02 -2.624696e+02
   endloop
 endfacet
 facet normal -3.307033e-01  0.000000e+00  9.437348e-01
   outer loop
     vertex -3.781434e+02 -5.012026e+02 -2.637639e+02
     vertex -3.790990e+02 -5.020026e+02 -2.640987e+02
     vertex -3.781434e+02 -5.020026e+02 -2.637639e+02
   endloop
 endfacet
 facet normal -5.469441e-01  0.000000e+00  8.371691e-01
   outer loop
     vertex -3.781434e+02 -5.012026e+02 -2.637639e+02
     vertex -3.781434e+02 -5.020026e+02 -2.637639e+02
     vertex -3.772958e+02 -5.012026e+02 -2.632101e+02
   endloop
 endfacet
 facet normal -9.524310e-02  5.042898e-14  9.954540e-01
   outer loop
     vertex -3.790990e+02 -5.012026e+02 -2.640987e+02
     vertex -3.801069e+02 -5.020026e+02 -2.641952e+02
     vertex -3.790990e+02 -5.020026e+02 -2.640987e+02
   endloop
 endfacet
 facet normal -3.307033e-01 -3.437249e-15  9.437348e-01
   outer loop
     vertex -3.790990e+02 -5.012026e+02 -2.640987e+02
     vertex -3.790990e+02 -5.020026e+02 -2.640987e+02
     vertex -3.781434e+02 -5.012026e+02 -2.637639e+02
   endloop
 endfacet
 facet normal  1.457522e-01  0.000000e+00  9.893211e-01
   outer loop
     vertex -3.801069e+02 -5.012026e+02 -2.641952e+02
     vertex -3.811086e+02 -5.020026e+02 -2.640476e+02
     vertex -3.801069e+02 -5.020026e+02 -2.641952e+02
   endloop
 endfacet
 facet normal -9.524310e-02  0.000000e+00  9.954540e-01
   outer loop
     vertex -3.801069e+02 -5.012026e+02 -2.641952e+02
     vertex -3.801069e+02 -5.020026e+02 -2.641952e+02
     vertex -3.790990e+02 -5.012026e+02 -2.640987e+02
   endloop
 endfacet
 facet normal  3.782770e-01 -1.046706e-13  9.256925e-01
   outer loop
     vertex -3.811086e+02 -5.012026e+02 -2.640476e+02
     vertex -3.820459e+02 -5.020026e+02 -2.636646e+02
     vertex -3.811086e+02 -5.020026e+02 -2.640476e+02
   endloop
 endfacet
 facet normal  1.457522e-01 -1.302347e-13  9.893211e-01
   outer loop
     vertex -3.811086e+02 -5.012026e+02 -2.640476e+02
     vertex -3.811086e+02 -5.020026e+02 -2.640476e+02
     vertex -3.801069e+02 -5.012026e+02 -2.641952e+02
   endloop
 endfacet
 facet normal  3.782770e-01  0.000000e+00  9.256925e-01
   outer loop
     vertex -3.820459e+02 -5.012026e+02 -2.636646e+02
     vertex -3.820459e+02 -5.020026e+02 -2.636646e+02
     vertex -3.811086e+02 -5.012026e+02 -2.640476e+02
   endloop
 endfacet
 facet normal  5.888176e-01  0.000000e+00  8.082659e-01
   outer loop
     vertex -3.820459e+02 -5.012026e+02 -2.636646e+02
     vertex -3.828642e+02 -5.020026e+02 -2.630684e+02
     vertex -3.820459e+02 -5.020026e+02 -2.636646e+02
   endloop
 endfacet
 facet normal  5.888176e-01  8.367602e-14  8.082659e-01
   outer loop
     vertex -3.828642e+02 -5.012026e+02 -2.630684e+02
     vertex -3.828642e+02 -5.020026e+02 -2.630684e+02
     vertex -3.820459e+02 -5.012026e+02 -2.636646e+02
   endloop
 endfacet
 facet normal  7.651384e-01  1.087327e-13  6.438659e-01
   outer loop
     vertex -3.828642e+02 -5.012026e+02 -2.630684e+02
     vertex -3.835162e+02 -5.020026e+02 -2.622937e+02
     vertex -3.828642e+02 -5.020026e+02 -2.630684e+02
   endloop
 endfacet
 facet normal  7.651384e-01  0.000000e+00  6.438659e-01
   outer loop
     vertex -3.835162e+02 -5.012026e+02 -2.622937e+02
     vertex -3.835162e+02 -5.020026e+02 -2.622937e+02
     vertex -3.828642e+02 -5.012026e+02 -2.630684e+02
   endloop
 endfacet
 facet normal  8.969920e-01  0.000000e+00  4.420467e-01
   outer loop
     vertex -3.835162e+02 -5.012026e+02 -2.622937e+02
     vertex -3.839637e+02 -5.020026e+02 -2.613855e+02
     vertex -3.835162e+02 -5.020026e+02 -2.622937e+02
   endloop
 endfacet
 facet normal  8.969920e-01 -1.265537e-13  4.420467e-01
   outer loop
     vertex -3.839637e+02 -5.012026e+02 -2.613855e+02
     vertex -3.839637e+02 -5.020026e+02 -2.613855e+02
     vertex -3.835162e+02 -5.012026e+02 -2.622937e+02
   endloop
 endfacet
 facet normal  9.767158e-01 -9.988827e-14  2.145374e-01
   outer loop
     vertex -3.841809e+02 -5.012026e+02 -2.603966e+02
     vertex -3.839637e+02 -5.020026e+02 -2.613855e+02
     vertex -3.839637e+02 -5.012026e+02 -2.613855e+02
   endloop
 endfacet
 facet normal  9.767158e-01 -1.540435e-13  2.145374e-01
   outer loop
     vertex -3.841809e+02 -5.012026e+02 -2.603966e+02
     vertex -3.841809e+02 -5.020026e+02 -2.603966e+02
     vertex -3.839637e+02 -5.020026e+02 -2.613855e+02
   endloop
 endfacet
 facet normal  9.996763e-01 -1.402549e-13 -2.544005e-02
   outer loop
     vertex -3.841809e+02 -5.012026e+02 -2.603966e+02
     vertex -3.841552e+02 -5.020026e+02 -2.593844e+02
     vertex -3.841809e+02 -5.020026e+02 -2.603966e+02
   endloop
 endfacet
 facet normal  9.996763e-01  0.000000e+00 -2.544005e-02
   outer loop
     vertex -3.841552e+02 -5.012026e+02 -2.593844e+02
     vertex -3.841552e+02 -5.020026e+02 -2.593844e+02
     vertex -3.841809e+02 -5.012026e+02 -2.603966e+02
   endloop
 endfacet
 facet normal  9.645394e-01  0.000000e+00 -2.639390e-01
   outer loop
     vertex -3.841552e+02 -5.012026e+02 -2.593844e+02
     vertex -3.838879e+02 -5.020026e+02 -2.584078e+02
     vertex -3.841552e+02 -5.020026e+02 -2.593844e+02
   endloop
 endfacet
 facet normal  9.645394e-01  0.000000e+00 -2.639390e-01
   outer loop
     vertex -3.838879e+02 -5.012026e+02 -2.584078e+02
     vertex -3.838879e+02 -5.020026e+02 -2.584078e+02
     vertex -3.841552e+02 -5.012026e+02 -2.593844e+02
   endloop
 endfacet
 facet normal  8.733469e-01  0.000000e+00 -4.870988e-01
   outer loop
     vertex -3.838879e+02 -5.012026e+02 -2.584078e+02
     vertex -3.833948e+02 -5.020026e+02 -2.575235e+02
     vertex -3.838879e+02 -5.020026e+02 -2.584078e+02
   endloop
 endfacet
 facet normal  8.733469e-01  0.000000e+00 -4.870988e-01
   outer loop
     vertex -3.833948e+02 -5.012026e+02 -2.575235e+02
     vertex -3.833948e+02 -5.020026e+02 -2.575235e+02
     vertex -3.838879e+02 -5.012026e+02 -2.584078e+02
   endloop
 endfacet
 facet normal  7.313986e-01  0.000000e+00 -6.819502e-01
   outer loop
     vertex -3.833948e+02 -5.012026e+02 -2.575235e+02
     vertex -3.827043e+02 -5.020026e+02 -2.567830e+02
     vertex -3.833948e+02 -5.020026e+02 -2.575235e+02
   endloop
 endfacet
 facet normal  7.313986e-01  0.000000e+00 -6.819502e-01
   outer loop
     vertex -3.827043e+02 -5.012026e+02 -2.567830e+02
     vertex -3.827043e+02 -5.020026e+02 -2.567830e+02
     vertex -3.833948e+02 -5.012026e+02 -2.575235e+02
   endloop
 endfacet
 facet normal  5.469441e-01  0.000000e+00 -8.371691e-01
   outer loop
     vertex -3.827043e+02 -5.012026e+02 -2.567830e+02
     vertex -3.818566e+02 -5.020026e+02 -2.562292e+02
     vertex -3.827043e+02 -5.020026e+02 -2.567830e+02
   endloop
 endfacet
 facet normal  5.469441e-01  0.000000e+00 -8.371691e-01
   outer loop
     vertex -3.818566e+02 -5.012026e+02 -2.562292e+02
     vertex -3.818566e+02 -5.020026e+02 -2.562292e+02
     vertex -3.827043e+02 -5.012026e+02 -2.567830e+02
   endloop
 endfacet
 facet normal  3.307033e-01  0.000000e+00 -9.437348e-01
   outer loop
     vertex -3.818566e+02 -5.012026e+02 -2.562292e+02
     vertex -3.809011e+02 -5.020026e+02 -2.558943e+02
     vertex -3.818566e+02 -5.020026e+02 -2.562292e+02
   endloop
 endfacet
 facet normal  3.307033e-01  0.000000e+00 -9.437348e-01
   outer loop
     vertex -3.809011e+02 -5.012026e+02 -2.558943e+02
     vertex -3.809011e+02 -5.020026e+02 -2.558943e+02
     vertex -3.818566e+02 -5.012026e+02 -2.562292e+02
   endloop
 endfacet
 facet normal  9.524310e-02 -8.176357e-18 -9.954540e-01
   outer loop
     vertex -3.798932e+02 -5.012026e+02 -2.557979e+02
     vertex -3.809011e+02 -5.020026e+02 -2.558943e+02
     vertex -3.809011e+02 -5.012026e+02 -2.558943e+02
   endloop
 endfacet
 facet normal  9.524310e-02  0.000000e+00 -9.954540e-01
   outer loop
     vertex -3.798932e+02 -5.012026e+02 -2.557979e+02
     vertex -3.798932e+02 -5.020026e+02 -2.557979e+02
     vertex -3.809011e+02 -5.020026e+02 -2.558943e+02
   endloop
 endfacet
 facet normal -1.457522e-01 -0.000000e+00 -9.893211e-01
   outer loop
     vertex -3.798932e+02 -5.012026e+02 -2.557979e+02
     vertex -3.788915e+02 -5.020026e+02 -2.559455e+02
     vertex -3.798932e+02 -5.020026e+02 -2.557979e+02
   endloop
 endfacet
 facet normal -1.457522e-01 -4.078789e-15 -9.893211e-01
   outer loop
     vertex -3.788915e+02 -5.012026e+02 -2.559455e+02
     vertex -3.788915e+02 -5.020026e+02 -2.559455e+02
     vertex -3.798932e+02 -5.012026e+02 -2.557979e+02
   endloop
 endfacet
 facet normal -3.782770e-01  4.774739e-14 -9.256925e-01
   outer loop
     vertex -3.788915e+02 -5.012026e+02 -2.559455e+02
     vertex -3.779542e+02 -5.020026e+02 -2.563285e+02
     vertex -3.788915e+02 -5.020026e+02 -2.559455e+02
   endloop
 endfacet
 facet normal -3.782770e-01 -6.577441e-14 -9.256925e-01
   outer loop
     vertex -3.779542e+02 -5.012026e+02 -2.563285e+02
     vertex -3.779542e+02 -5.020026e+02 -2.563285e+02
     vertex -3.788915e+02 -5.012026e+02 -2.559455e+02
   endloop
 endfacet
 facet normal -5.888176e-01 -0.000000e+00 -8.082659e-01
   outer loop
     vertex -3.771358e+02 -5.012026e+02 -2.569247e+02
     vertex -3.771358e+02 -5.020026e+02 -2.569247e+02
     vertex -3.779542e+02 -5.020026e+02 -2.563285e+02
   endloop
 endfacet
 facet normal -7.651384e-01 -0.000000e+00 -6.438659e-01
   outer loop
     vertex -3.771358e+02 -5.012026e+02 -2.569247e+02
     vertex -3.764839e+02 -5.020026e+02 -2.576994e+02
     vertex -3.771358e+02 -5.020026e+02 -2.569247e+02
   endloop
 endfacet
 facet normal -5.888176e-01 -5.744111e-14 -8.082659e-01
   outer loop
     vertex -3.771358e+02 -5.012026e+02 -2.569247e+02
     vertex -3.779542e+02 -5.020026e+02 -2.563285e+02
     vertex -3.779542e+02 -5.012026e+02 -2.563285e+02
   endloop
 endfacet
 facet normal -7.651384e-01 -0.000000e+00 -6.438659e-01
   outer loop
     vertex -3.764839e+02 -5.012026e+02 -2.576994e+02
     vertex -3.764839e+02 -5.020026e+02 -2.576994e+02
     vertex -3.771358e+02 -5.012026e+02 -2.569247e+02
   endloop
 endfacet
 facet normal  8.969920e-01 -1.468763e-17  4.420467e-01
   outer loop
     vertex -3.738658e+02 -5.012026e+02 -2.578470e+02
     vertex -3.745584e+02 -5.012026e+02 -2.564414e+02
     vertex -3.745584e+02 -5.020026e+02 -2.564414e+02
   endloop
 endfacet
 facet normal  8.969920e-01  0.000000e+00  4.420467e-01
   outer loop
     vertex -3.738658e+02 -5.012026e+02 -2.578470e+02
     vertex -3.745584e+02 -5.020026e+02 -2.564414e+02
     vertex -3.738658e+02 -5.020026e+02 -2.578470e+02
   endloop
 endfacet
 facet normal  9.767158e-01  0.000000e+00  2.145374e-01
   outer loop
     vertex -3.735296e+02 -5.012026e+02 -2.593775e+02
     vertex -3.738658e+02 -5.020026e+02 -2.578470e+02
     vertex -3.735296e+02 -5.020026e+02 -2.593775e+02
   endloop
 endfacet
 facet normal  9.767158e-01 -1.994381e-17  2.145374e-01
   outer loop
     vertex -3.735296e+02 -5.012026e+02 -2.593775e+02
     vertex -3.738658e+02 -5.012026e+02 -2.578470e+02
     vertex -3.738658e+02 -5.020026e+02 -2.578470e+02
   endloop
 endfacet
 facet normal  9.996763e-01  0.000000e+00 -2.544005e-02
   outer loop
     vertex -3.735695e+02 -5.012026e+02 -2.609439e+02
     vertex -3.735296e+02 -5.020026e+02 -2.593775e+02
     vertex -3.735695e+02 -5.020026e+02 -2.609439e+02
   endloop
 endfacet
 facet normal  9.996763e-01  1.510944e-18 -2.544005e-02
   outer loop
     vertex -3.735695e+02 -5.012026e+02 -2.609439e+02
     vertex -3.735296e+02 -5.012026e+02 -2.593775e+02
     vertex -3.735296e+02 -5.020026e+02 -2.593775e+02
   endloop
 endfacet
 facet normal  9.645394e-01  0.000000e+00 -2.639390e-01
   outer loop
     vertex -3.739830e+02 -5.012026e+02 -2.624553e+02
     vertex -3.735695e+02 -5.020026e+02 -2.609439e+02
     vertex -3.739830e+02 -5.020026e+02 -2.624553e+02
   endloop
 endfacet
 facet normal  9.645394e-01  3.079446e-18 -2.639390e-01
   outer loop
     vertex -3.739830e+02 -5.012026e+02 -2.624553e+02
     vertex -3.735695e+02 -5.012026e+02 -2.609439e+02
     vertex -3.735695e+02 -5.020026e+02 -2.609439e+02
   endloop
 endfacet
 facet normal  8.733469e-01  0.000000e+00 -4.870988e-01
   outer loop
     vertex -3.747463e+02 -5.012026e+02 -2.638239e+02
     vertex -3.739830e+02 -5.020026e+02 -2.624553e+02
     vertex -3.747463e+02 -5.020026e+02 -2.638239e+02
   endloop
 endfacet
 facet normal  8.733469e-01  6.378380e-17 -4.870988e-01
   outer loop
     vertex -3.747463e+02 -5.012026e+02 -2.638239e+02
     vertex -3.739830e+02 -5.012026e+02 -2.624553e+02
     vertex -3.739830e+02 -5.020026e+02 -2.624553e+02
   endloop
 endfacet
 facet normal  7.313986e-01  0.000000e+00 -6.819502e-01
   outer loop
     vertex -3.758149e+02 -5.012026e+02 -2.649699e+02
     vertex -3.747463e+02 -5.020026e+02 -2.638239e+02
     vertex -3.758149e+02 -5.020026e+02 -2.649699e+02
   endloop
 endfacet
 facet normal  7.313986e-01  4.225643e-17 -6.819502e-01
   outer loop
     vertex -3.758149e+02 -5.012026e+02 -2.649699e+02
     vertex -3.747463e+02 -5.012026e+02 -2.638239e+02
     vertex -3.747463e+02 -5.020026e+02 -2.638239e+02
   endloop
 endfacet
 facet normal  5.469441e-01  0.000000e+00 -8.371691e-01
   outer loop
     vertex -3.771267e+02 -5.012026e+02 -2.658270e+02
     vertex -3.758149e+02 -5.020026e+02 -2.649699e+02
     vertex -3.771267e+02 -5.020026e+02 -2.658270e+02
   endloop
 endfacet
 facet normal  5.469441e-01 -4.511331e-17 -8.371691e-01
   outer loop
     vertex -3.771267e+02 -5.012026e+02 -2.658270e+02
     vertex -3.758149e+02 -5.012026e+02 -2.649699e+02
     vertex -3.758149e+02 -5.020026e+02 -2.649699e+02
   endloop
 endfacet
 facet normal  3.307033e-01  0.000000e+00 -9.437348e-01
   outer loop
     vertex -3.786055e+02 -5.012026e+02 -2.663452e+02
     vertex -3.771267e+02 -5.020026e+02 -2.658270e+02
     vertex -3.786055e+02 -5.020026e+02 -2.663452e+02
   endloop
 endfacet
 facet normal  3.307033e-01  4.331450e-18 -9.437348e-01
   outer loop
     vertex -3.786055e+02 -5.012026e+02 -2.663452e+02
     vertex -3.771267e+02 -5.012026e+02 -2.658270e+02
     vertex -3.771267e+02 -5.020026e+02 -2.658270e+02
   endloop
 endfacet
 facet normal  9.524310e-02  0.000000e+00 -9.954540e-01
   outer loop
     vertex -3.801654e+02 -5.012026e+02 -2.664944e+02
     vertex -3.786055e+02 -5.020026e+02 -2.663452e+02
     vertex -3.801654e+02 -5.020026e+02 -2.664944e+02
   endloop
 endfacet
 facet normal  9.524310e-02 -5.198769e-18 -9.954540e-01
   outer loop
     vertex -3.801654e+02 -5.012026e+02 -2.664944e+02
     vertex -3.786055e+02 -5.012026e+02 -2.663452e+02
     vertex -3.786055e+02 -5.020026e+02 -2.663452e+02
   endloop
 endfacet
 facet normal -1.457522e-01 -0.000000e+00 -9.893211e-01
   outer loop
     vertex -3.817156e+02 -5.012026e+02 -2.662660e+02
     vertex -3.801654e+02 -5.020026e+02 -2.664944e+02
     vertex -3.817156e+02 -5.020026e+02 -2.662660e+02
   endloop
 endfacet
 facet normal -1.457522e-01 -1.546982e-17 -9.893211e-01
   outer loop
     vertex -3.817156e+02 -5.012026e+02 -2.662660e+02
     vertex -3.801654e+02 -5.012026e+02 -2.664944e+02
     vertex -3.801654e+02 -5.020026e+02 -2.664944e+02
   endloop
 endfacet
 facet normal -3.782770e-01  3.357093e-17 -9.256925e-01
   outer loop
     vertex -3.831662e+02 -5.012026e+02 -2.656733e+02
     vertex -3.817156e+02 -5.012026e+02 -2.662660e+02
     vertex -3.817156e+02 -5.020026e+02 -2.662660e+02
   endloop
 endfacet
 facet normal -3.782770e-01 -0.000000e+00 -9.256925e-01
   outer loop
     vertex -3.831662e+02 -5.012026e+02 -2.656733e+02
     vertex -3.817156e+02 -5.020026e+02 -2.662660e+02
     vertex -3.831662e+02 -5.020026e+02 -2.656733e+02
   endloop
 endfacet
 facet normal -5.888176e-01  6.738001e-17 -8.082659e-01
   outer loop
     vertex -3.844327e+02 -5.012026e+02 -2.647506e+02
     vertex -3.831662e+02 -5.012026e+02 -2.656733e+02
     vertex -3.831662e+02 -5.020026e+02 -2.656733e+02
   endloop
 endfacet
 facet normal -5.888176e-01 -0.000000e+00 -8.082659e-01
   outer loop
     vertex -3.844327e+02 -5.012026e+02 -2.647506e+02
     vertex -3.831662e+02 -5.020026e+02 -2.656733e+02
     vertex -3.844327e+02 -5.020026e+02 -2.647506e+02
   endloop
 endfacet
 facet normal -7.651384e-01  3.494927e-17 -6.438659e-01
   outer loop
     vertex -3.854416e+02 -5.012026e+02 -2.635517e+02
     vertex -3.844327e+02 -5.012026e+02 -2.647506e+02
     vertex -3.844327e+02 -5.020026e+02 -2.647506e+02
   endloop
 endfacet
 facet normal -7.651384e-01 -0.000000e+00 -6.438659e-01
   outer loop
     vertex -3.854416e+02 -5.012026e+02 -2.635517e+02
     vertex -3.844327e+02 -5.020026e+02 -2.647506e+02
     vertex -3.854416e+02 -5.020026e+02 -2.635517e+02
   endloop
 endfacet
 facet normal -8.969920e-01  1.182111e-17 -4.420467e-01
   outer loop
     vertex -3.861343e+02 -5.012026e+02 -2.621461e+02
     vertex -3.854416e+02 -5.012026e+02 -2.635517e+02
     vertex -3.854416e+02 -5.020026e+02 -2.635517e+02
   endloop
 endfacet
 facet normal -8.969920e-01 -3.140931e-14 -4.420467e-01
   outer loop
     vertex -3.861343e+02 -5.012026e+02 -2.621461e+02
     vertex -3.854416e+02 -5.020026e+02 -2.635517e+02
     vertex -3.861343e+02 -5.020026e+02 -2.621461e+02
   endloop
 endfacet
 facet normal -9.767158e-01 -1.522751e-14 -2.145374e-01
   outer loop
     vertex -3.864705e+02 -5.012026e+02 -2.606156e+02
     vertex -3.861343e+02 -5.012026e+02 -2.621461e+02
     vertex -3.861343e+02 -5.020026e+02 -2.621461e+02
   endloop
 endfacet
 facet normal -9.767158e-01 -0.000000e+00 -2.145374e-01
   outer loop
     vertex -3.864705e+02 -5.012026e+02 -2.606156e+02
     vertex -3.861343e+02 -5.020026e+02 -2.621461e+02
     vertex -3.864705e+02 -5.020026e+02 -2.606156e+02
   endloop
 endfacet
 facet normal -9.996763e-01  1.983579e-18  2.544005e-02
   outer loop
     vertex -3.864306e+02 -5.012026e+02 -2.590492e+02
     vertex -3.864705e+02 -5.012026e+02 -2.606156e+02
     vertex -3.864705e+02 -5.020026e+02 -2.606156e+02
   endloop
 endfacet
 facet normal -9.996763e-01  0.000000e+00  2.544005e-02
   outer loop
     vertex -3.864306e+02 -5.012026e+02 -2.590492e+02
     vertex -3.864705e+02 -5.020026e+02 -2.606156e+02
     vertex -3.864306e+02 -5.020026e+02 -2.590492e+02
   endloop
 endfacet
 facet normal -9.645394e-01  1.070961e-17  2.639390e-01
   outer loop
     vertex -3.860170e+02 -5.012026e+02 -2.575377e+02
     vertex -3.864306e+02 -5.012026e+02 -2.590492e+02
     vertex -3.864306e+02 -5.020026e+02 -2.590492e+02
   endloop
 endfacet
 facet normal -9.645394e-01  0.000000e+00  2.639390e-01
   outer loop
     vertex -3.860170e+02 -5.012026e+02 -2.575377e+02
     vertex -3.864306e+02 -5.020026e+02 -2.590492e+02
     vertex -3.860170e+02 -5.020026e+02 -2.575377e+02
   endloop
 endfacet
 facet normal -8.733469e-01  7.407693e-17  4.870988e-01
   outer loop
     vertex -3.852538e+02 -5.012026e+02 -2.561692e+02
     vertex -3.860170e+02 -5.012026e+02 -2.575377e+02
     vertex -3.860170e+02 -5.020026e+02 -2.575377e+02
   endloop
 endfacet
 facet normal -7.313986e-01  0.000000e+00  6.819502e-01
   outer loop
     vertex -3.852538e+02 -5.012026e+02 -2.561692e+02
     vertex -3.852538e+02 -5.020026e+02 -2.561692e+02
     vertex -3.841852e+02 -5.020026e+02 -2.550231e+02
   endloop
 endfacet
 facet normal -8.733469e-01  0.000000e+00  4.870988e-01
   outer loop
     vertex -3.852538e+02 -5.012026e+02 -2.561692e+02
     vertex -3.860170e+02 -5.020026e+02 -2.575377e+02
     vertex -3.852538e+02 -5.020026e+02 -2.561692e+02
   endloop
 endfacet
 facet normal -7.313986e-01  7.619674e-14  6.819502e-01
   outer loop
     vertex -3.841852e+02 -5.012026e+02 -2.550231e+02
     vertex -3.852538e+02 -5.012026e+02 -2.561692e+02
     vertex -3.841852e+02 -5.020026e+02 -2.550231e+02
   endloop
 endfacet
 facet normal -3.307033e-01  0.000000e+00  9.437348e-01
   outer loop
     vertex -3.828733e+02 -5.012026e+02 -2.541661e+02
     vertex -3.828733e+02 -5.020026e+02 -2.541661e+02
     vertex -3.813945e+02 -5.020026e+02 -2.536479e+02
   endloop
 endfacet
 facet normal -5.469441e-01  0.000000e+00  8.371691e-01
   outer loop
     vertex -3.828733e+02 -5.012026e+02 -2.541661e+02
     vertex -3.841852e+02 -5.020026e+02 -2.550231e+02
     vertex -3.828733e+02 -5.020026e+02 -2.541661e+02
   endloop
 endfacet
 facet normal -5.469441e-01  6.855170e-14  8.371691e-01
   outer loop
     vertex -3.828733e+02 -5.012026e+02 -2.541661e+02
     vertex -3.841852e+02 -5.012026e+02 -2.550231e+02
     vertex -3.841852e+02 -5.020026e+02 -2.550231e+02
   endloop
 endfacet
 facet normal -3.307033e-01  0.000000e+00  9.437348e-01
   outer loop
     vertex -3.813945e+02 -5.012026e+02 -2.536479e+02
     vertex -3.828733e+02 -5.012026e+02 -2.541661e+02
     vertex -3.813945e+02 -5.020026e+02 -2.536479e+02
   endloop
 endfacet
 facet normal -9.524310e-02  0.000000e+00  9.954540e-01
   outer loop
     vertex -3.798347e+02 -5.012026e+02 -2.534986e+02
     vertex -3.813945e+02 -5.020026e+02 -2.536479e+02
     vertex -3.798347e+02 -5.020026e+02 -2.534986e+02
   endloop
 endfacet
 facet normal -9.524310e-02  7.639317e-18  9.954540e-01
   outer loop
     vertex -3.798347e+02 -5.012026e+02 -2.534986e+02
     vertex -3.813945e+02 -5.012026e+02 -2.536479e+02
     vertex -3.813945e+02 -5.020026e+02 -2.536479e+02
   endloop
 endfacet
 facet normal  3.782770e-01  0.000000e+00  9.256925e-01
   outer loop
     vertex -3.782844e+02 -5.012026e+02 -2.537270e+02
     vertex -3.782844e+02 -5.020026e+02 -2.537270e+02
     vertex -3.768339e+02 -5.020026e+02 -2.543198e+02
   endloop
 endfacet
 facet normal  1.457522e-01  0.000000e+00  9.893211e-01
   outer loop
     vertex -3.782844e+02 -5.012026e+02 -2.537270e+02
     vertex -3.798347e+02 -5.020026e+02 -2.534986e+02
     vertex -3.782844e+02 -5.020026e+02 -2.537270e+02
   endloop
 endfacet
 facet normal  1.457522e-01 -1.748211e-17  9.893211e-01
   outer loop
     vertex -3.782844e+02 -5.012026e+02 -2.537270e+02
     vertex -3.798347e+02 -5.012026e+02 -2.534986e+02
     vertex -3.798347e+02 -5.020026e+02 -2.534986e+02
   endloop
 endfacet
 facet normal  3.782770e-01  0.000000e+00  9.256925e-01
   outer loop
     vertex -3.768339e+02 -5.012026e+02 -2.543198e+02
     vertex -3.782844e+02 -5.012026e+02 -2.537270e+02
     vertex -3.768339e+02 -5.020026e+02 -2.543198e+02
   endloop
 endfacet
 facet normal  5.888176e-01  0.000000e+00  8.082659e-01
   outer loop
     vertex -3.755674e+02 -5.012026e+02 -2.552424e+02
     vertex -3.768339e+02 -5.020026e+02 -2.543198e+02
     vertex -3.755674e+02 -5.020026e+02 -2.552424e+02
   endloop
 endfacet
 facet normal  5.888176e-01 -7.398852e-17  8.082659e-01
   outer loop
     vertex -3.755674e+02 -5.012026e+02 -2.552424e+02
     vertex -3.768339e+02 -5.012026e+02 -2.543198e+02
     vertex -3.768339e+02 -5.020026e+02 -2.543198e+02
   endloop
 endfacet
 facet normal  7.651384e-01  0.000000e+00  6.438659e-01
   outer loop
     vertex -3.745584e+02 -5.012026e+02 -2.564414e+02
     vertex -3.755674e+02 -5.020026e+02 -2.552424e+02
     vertex -3.745584e+02 -5.020026e+02 -2.564414e+02
   endloop
 endfacet
 facet normal  7.651384e-01 -2.740332e-17  6.438659e-01
   outer loop
     vertex -3.745584e+02 -5.012026e+02 -2.564414e+02
     vertex -3.755674e+02 -5.012026e+02 -2.552424e+02
     vertex -3.755674e+02 -5.020026e+02 -2.552424e+02
   endloop
 endfacet
 facet normal  0.000000e+00  1.000000e+00  0.000000e+00
   outer loop
     vertex -3.841552e+02 -5.012026e+02 -2.593844e+02
     vertex -3.864705e+02 -5.012026e+02 -2.606156e+02
     vertex -3.864306e+02 -5.012026e+02 -2.590492e+02
   endloop
 endfacet
 facet normal  0.000000e+00  1.000000e+00  0.000000e+00
   outer loop
     vertex -3.838879e+02 -5.012026e+02 -2.584078e+02
     vertex -3.864306e+02 -5.012026e+02 -2.590492e+02
     vertex -3.860170e+02 -5.012026e+02 -2.575377e+02
   endloop
 endfacet
 facet normal  0.000000e+00  1.000000e+00  0.000000e+00
   outer loop
     vertex -3.838879e+02 -5.012026e+02 -2.584078e+02
     vertex -3.841552e+02 -5.012026e+02 -2.593844e+02
     vertex -3.864306e+02 -5.012026e+02 -2.590492e+02
   endloop
 endfacet
 facet normal  0.000000e+00  1.000000e+00  0.000000e+00
   outer loop
     vertex -3.841809e+02 -5.012026e+02 -2.603966e+02
     vertex -3.861343e+02 -5.012026e+02 -2.621461e+02
     vertex -3.864705e+02 -5.012026e+02 -2.606156e+02
   endloop
 endfacet
 facet normal  0.000000e+00  1.000000e+00 -0.000000e+00
   outer loop
     vertex -3.841809e+02 -5.012026e+02 -2.603966e+02
     vertex -3.864705e+02 -5.012026e+02 -2.606156e+02
     vertex -3.841552e+02 -5.012026e+02 -2.593844e+02
   endloop
 endfacet
 facet normal  0.000000e+00  1.000000e+00  0.000000e+00
   outer loop
     vertex -3.833948e+02 -5.012026e+02 -2.575235e+02
     vertex -3.860170e+02 -5.012026e+02 -2.575377e+02
     vertex -3.852538e+02 -5.012026e+02 -2.561692e+02
   endloop
 endfacet
 facet normal  0.000000e+00  1.000000e+00  0.000000e+00
   outer loop
     vertex -3.833948e+02 -5.012026e+02 -2.575235e+02
     vertex -3.838879e+02 -5.012026e+02 -2.584078e+02
     vertex -3.860170e+02 -5.012026e+02 -2.575377e+02
   endloop
 endfacet
 facet normal  0.000000e+00  1.000000e+00  0.000000e+00
   outer loop
     vertex -3.839637e+02 -5.012026e+02 -2.613855e+02
     vertex -3.861343e+02 -5.012026e+02 -2.621461e+02
     vertex -3.841809e+02 -5.012026e+02 -2.603966e+02
   endloop
 endfacet
 facet normal  0.000000e+00  1.000000e+00  0.000000e+00
   outer loop
     vertex -3.827043e+02 -5.012026e+02 -2.567830e+02
     vertex -3.852538e+02 -5.012026e+02 -2.561692e+02
     vertex -3.841852e+02 -5.012026e+02 -2.550231e+02
   endloop
 endfacet
 facet normal  0.000000e+00  1.000000e+00  0.000000e+00
   outer loop
     vertex -3.827043e+02 -5.012026e+02 -2.567830e+02
     vertex -3.833948e+02 -5.012026e+02 -2.575235e+02
     vertex -3.852538e+02 -5.012026e+02 -2.561692e+02
   endloop
 endfacet
 facet normal  0.000000e+00  1.000000e+00  0.000000e+00
   outer loop
     vertex -3.835162e+02 -5.012026e+02 -2.622937e+02
     vertex -3.854416e+02 -5.012026e+02 -2.635517e+02
     vertex -3.861343e+02 -5.012026e+02 -2.621461e+02
   endloop
 endfacet
 facet normal  0.000000e+00  1.000000e+00  0.000000e+00
   outer loop
     vertex -3.835162e+02 -5.012026e+02 -2.622937e+02
     vertex -3.861343e+02 -5.012026e+02 -2.621461e+02
     vertex -3.839637e+02 -5.012026e+02 -2.613855e+02
   endloop
 endfacet
 facet normal  0.000000e+00  1.000000e+00  0.000000e+00
   outer loop
     vertex -3.818566e+02 -5.012026e+02 -2.562292e+02
     vertex -3.841852e+02 -5.012026e+02 -2.550231e+02
     vertex -3.828733e+02 -5.012026e+02 -2.541661e+02
   endloop
 endfacet
 facet normal  0.000000e+00  1.000000e+00  0.000000e+00
   outer loop
     vertex -3.818566e+02 -5.012026e+02 -2.562292e+02
     vertex -3.827043e+02 -5.012026e+02 -2.567830e+02
     vertex -3.841852e+02 -5.012026e+02 -2.550231e+02
   endloop
 endfacet
 facet normal  0.000000e+00  1.000000e+00  0.000000e+00
   outer loop
     vertex -3.828642e+02 -5.012026e+02 -2.630684e+02
     vertex -3.844327e+02 -5.012026e+02 -2.647506e+02
     vertex -3.854416e+02 -5.012026e+02 -2.635517e+02
   endloop
 endfacet
 facet normal  0.000000e+00  1.000000e+00  0.000000e+00
   outer loop
     vertex -3.828642e+02 -5.012026e+02 -2.630684e+02
     vertex -3.854416e+02 -5.012026e+02 -2.635517e+02
     vertex -3.835162e+02 -5.012026e+02 -2.622937e+02
   endloop
 endfacet
 facet normal  0.000000e+00  1.000000e+00  0.000000e+00
   outer loop
     vertex -3.809011e+02 -5.012026e+02 -2.558943e+02
     vertex -3.828733e+02 -5.012026e+02 -2.541661e+02
     vertex -3.813945e+02 -5.012026e+02 -2.536479e+02
   endloop
 endfacet
 facet normal  0.000000e+00  1.000000e+00  0.000000e+00
   outer loop
     vertex -3.809011e+02 -5.012026e+02 -2.558943e+02
     vertex -3.818566e+02 -5.012026e+02 -2.562292e+02
     vertex -3.828733e+02 -5.012026e+02 -2.541661e+02
   endloop
 endfacet
 facet normal  0.000000e+00  1.000000e+00  0.000000e+00
   outer loop
     vertex -3.820459e+02 -5.012026e+02 -2.636646e+02
     vertex -3.831662e+02 -5.012026e+02 -2.656733e+02
     vertex -3.844327e+02 -5.012026e+02 -2.647506e+02
   endloop
 endfacet
 facet normal  0.000000e+00  1.000000e+00  0.000000e+00
   outer loop
     vertex -3.820459e+02 -5.012026e+02 -2.636646e+02
     vertex -3.844327e+02 -5.012026e+02 -2.647506e+02
     vertex -3.828642e+02 -5.012026e+02 -2.630684e+02
   endloop
 endfacet
 facet normal  0.000000e+00  1.000000e+00  0.000000e+00
   outer loop
     vertex -3.798347e+02 -5.012026e+02 -2.534986e+02
     vertex -3.809011e+02 -5.012026e+02 -2.558943e+02
     vertex -3.813945e+02 -5.012026e+02 -2.536479e+02
   endloop
 endfacet
 facet normal  0.000000e+00  1.000000e+00 -0.000000e+00
   outer loop
     vertex -3.798932e+02 -5.012026e+02 -2.557979e+02
     vertex -3.809011e+02 -5.012026e+02 -2.558943e+02
     vertex -3.798347e+02 -5.012026e+02 -2.534986e+02
   endloop
 endfacet
 facet normal  0.000000e+00  1.000000e+00  0.000000e+00
   outer loop
     vertex -3.811086e+02 -5.012026e+02 -2.640476e+02
     vertex -3.817156e+02 -5.012026e+02 -2.662660e+02
     vertex -3.831662e+02 -5.012026e+02 -2.656733e+02
   endloop
 endfacet
 facet normal  0.000000e+00  1.000000e+00  0.000000e+00
   outer loop
     vertex -3.811086e+02 -5.012026e+02 -2.640476e+02
     vertex -3.831662e+02 -5.012026e+02 -2.656733e+02
     vertex -3.820459e+02 -5.012026e+02 -2.636646e+02
   endloop
 endfacet
 facet normal  0.000000e+00  1.000000e+00  0.000000e+00
   outer loop
     vertex -3.782844e+02 -5.012026e+02 -2.537270e+02
     vertex -3.788915e+02 -5.012026e+02 -2.559455e+02
     vertex -3.798932e+02 -5.012026e+02 -2.557979e+02
   endloop
 endfacet
 facet normal  0.000000e+00  1.000000e+00  0.000000e+00
   outer loop
     vertex -3.782844e+02 -5.012026e+02 -2.537270e+02
     vertex -3.798932e+02 -5.012026e+02 -2.557979e+02
     vertex -3.798347e+02 -5.012026e+02 -2.534986e+02
   endloop
 endfacet
 facet normal  0.000000e+00  1.000000e+00  0.000000e+00
   outer loop
     vertex -3.801069e+02 -5.012026e+02 -2.641952e+02
     vertex -3.817156e+02 -5.012026e+02 -2.662660e+02
     vertex -3.811086e+02 -5.012026e+02 -2.640476e+02
   endloop
 endfacet
 facet normal  0.000000e+00  1.000000e+00 -0.000000e+00
   outer loop
     vertex -3.801654e+02 -5.012026e+02 -2.664944e+02
     vertex -3.817156e+02 -5.012026e+02 -2.662660e+02
     vertex -3.801069e+02 -5.012026e+02 -2.641952e+02
   endloop
 endfacet
 facet normal  0.000000e+00  1.000000e+00  0.000000e+00
   outer loop
     vertex -3.768339e+02 -5.012026e+02 -2.543198e+02
     vertex -3.788915e+02 -5.012026e+02 -2.559455e+02
     vertex -3.782844e+02 -5.012026e+02 -2.537270e+02
   endloop
 endfacet
 facet normal  0.000000e+00  1.000000e+00  0.000000e+00
   outer loop
     vertex -3.768339e+02 -5.012026e+02 -2.543198e+02
     vertex -3.779542e+02 -5.012026e+02 -2.563285e+02
     vertex -3.788915e+02 -5.012026e+02 -2.559455e+02
   endloop
 endfacet
 facet normal  0.000000e+00  1.000000e+00  0.000000e+00
   outer loop
     vertex -3.786055e+02 -5.012026e+02 -2.663452e+02
     vertex -3.801069e+02 -5.012026e+02 -2.641952e+02
     vertex -3.790990e+02 -5.012026e+02 -2.640987e+02
   endloop
 endfacet
 facet normal  0.000000e+00  1.000000e+00  0.000000e+00
   outer loop
     vertex -3.786055e+02 -5.012026e+02 -2.663452e+02
     vertex -3.801654e+02 -5.012026e+02 -2.664944e+02
     vertex -3.801069e+02 -5.012026e+02 -2.641952e+02
   endloop
 endfacet
 facet normal  0.000000e+00  1.000000e+00  0.000000e+00
   outer loop
     vertex -3.755674e+02 -5.012026e+02 -2.552424e+02
     vertex -3.779542e+02 -5.012026e+02 -2.563285e+02
     vertex -3.768339e+02 -5.012026e+02 -2.543198e+02
   endloop
 endfacet
 facet normal  0.000000e+00  1.000000e+00  0.000000e+00
   outer loop
     vertex -3.755674e+02 -5.012026e+02 -2.552424e+02
     vertex -3.771358e+02 -5.012026e+02 -2.569247e+02
     vertex -3.779542e+02 -5.012026e+02 -2.563285e+02
   endloop
 endfacet
 facet normal  0.000000e+00  1.000000e+00  0.000000e+00
   outer loop
     vertex -3.771267e+02 -5.012026e+02 -2.658270e+02
     vertex -3.786055e+02 -5.012026e+02 -2.663452e+02
     vertex -3.790990e+02 -5.012026e+02 -2.640987e+02
   endloop
 endfacet
 facet normal  0.000000e+00  1.000000e+00  0.000000e+00
   outer loop
     vertex -3.771267e+02 -5.012026e+02 -2.658270e+02
     vertex -3.790990e+02 -5.012026e+02 -2.640987e+02
     vertex -3.781434e+02 -5.012026e+02 -2.637639e+02
   endloop
 endfacet
 facet normal  0.000000e+00  1.000000e+00  0.000000e+00
   outer loop
     vertex -3.771267e+02 -5.012026e+02 -2.658270e+02
     vertex -3.781434e+02 -5.012026e+02 -2.637639e+02
     vertex -3.772958e+02 -5.012026e+02 -2.632101e+02
   endloop
 endfacet
 facet normal  0.000000e+00  1.000000e+00  0.000000e+00
   outer loop
     vertex -3.745584e+02 -5.012026e+02 -2.564414e+02
     vertex -3.764839e+02 -5.012026e+02 -2.576994e+02
     vertex -3.771358e+02 -5.012026e+02 -2.569247e+02
   endloop
 endfacet
 facet normal  0.000000e+00  1.000000e+00  0.000000e+00
   outer loop
     vertex -3.745584e+02 -5.012026e+02 -2.564414e+02
     vertex -3.771358e+02 -5.012026e+02 -2.569247e+02
     vertex -3.755674e+02 -5.012026e+02 -2.552424e+02
   endloop
 endfacet
 facet normal  0.000000e+00  1.000000e+00  0.000000e+00
   outer loop
     vertex -3.758149e+02 -5.012026e+02 -2.649699e+02
     vertex -3.771267e+02 -5.012026e+02 -2.658270e+02
     vertex -3.772958e+02 -5.012026e+02 -2.632101e+02
   endloop
 endfacet
 facet normal  0.000000e+00  1.000000e+00  0.000000e+00
   outer loop
     vertex -3.738658e+02 -5.012026e+02 -2.578470e+02
     vertex -3.764839e+02 -5.012026e+02 -2.576994e+02
     vertex -3.745584e+02 -5.012026e+02 -2.564414e+02
   endloop
 endfacet
 facet normal  0.000000e+00  1.000000e+00  0.000000e+00
   outer loop
     vertex -3.738658e+02 -5.012026e+02 -2.578470e+02
     vertex -3.758191e+02 -5.012026e+02 -2.595965e+02
     vertex -3.760364e+02 -5.012026e+02 -2.586076e+02
   endloop
 endfacet
 facet normal  0.000000e+00  1.000000e+00  0.000000e+00
   outer loop
     vertex -3.738658e+02 -5.012026e+02 -2.578470e+02
     vertex -3.760364e+02 -5.012026e+02 -2.586076e+02
     vertex -3.764839e+02 -5.012026e+02 -2.576994e+02
   endloop
 endfacet
 facet normal  0.000000e+00  1.000000e+00  0.000000e+00
   outer loop
     vertex -3.747463e+02 -5.012026e+02 -2.638239e+02
     vertex -3.758149e+02 -5.012026e+02 -2.649699e+02
     vertex -3.772958e+02 -5.012026e+02 -2.632101e+02
   endloop
 endfacet
 facet normal  0.000000e+00  1.000000e+00  0.000000e+00
   outer loop
     vertex -3.747463e+02 -5.012026e+02 -2.638239e+02
     vertex -3.772958e+02 -5.012026e+02 -2.632101e+02
     vertex -3.766053e+02 -5.012026e+02 -2.624696e+02
   endloop
 endfacet
 facet normal  0.000000e+00  1.000000e+00  0.000000e+00
   outer loop
     vertex -3.735296e+02 -5.012026e+02 -2.593775e+02
     vertex -3.758191e+02 -5.012026e+02 -2.595965e+02
     vertex -3.738658e+02 -5.012026e+02 -2.578470e+02
   endloop
 endfacet
 facet normal  0.000000e+00  1.000000e+00  0.000000e+00
   outer loop
     vertex -3.739830e+02 -5.012026e+02 -2.624553e+02
     vertex -3.766053e+02 -5.012026e+02 -2.624696e+02
     vertex -3.761121e+02 -5.012026e+02 -2.615853e+02
   endloop
 endfacet
 facet normal  0.000000e+00  1.000000e+00  0.000000e+00
   outer loop
     vertex -3.739830e+02 -5.012026e+02 -2.624553e+02
     vertex -3.747463e+02 -5.012026e+02 -2.638239e+02
     vertex -3.766053e+02 -5.012026e+02 -2.624696e+02
   endloop
 endfacet
 facet normal  0.000000e+00  1.000000e+00  0.000000e+00
   outer loop
     vertex -3.735695e+02 -5.012026e+02 -2.609439e+02
     vertex -3.761121e+02 -5.012026e+02 -2.615853e+02
     vertex -3.758449e+02 -5.012026e+02 -2.606087e+02
   endloop
 endfacet
 facet normal  0.000000e+00  1.000000e+00  0.000000e+00
   outer loop
     vertex -3.735695e+02 -5.012026e+02 -2.609439e+02
     vertex -3.758449e+02 -5.012026e+02 -2.606087e+02
     vertex -3.758191e+02 -5.012026e+02 -2.595965e+02
   endloop
 endfacet
 facet normal  0.000000e+00  1.000000e+00  0.000000e+00
   outer loop
     vertex -3.735695e+02 -5.012026e+02 -2.609439e+02
     vertex -3.739830e+02 -5.012026e+02 -2.624553e+02
     vertex -3.761121e+02 -5.012026e+02 -2.615853e+02
   endloop
 endfacet
 facet normal  0.000000e+00  1.000000e+00 -0.000000e+00
   outer loop
     vertex -3.735695e+02 -5.012026e+02 -2.609439e+02
     vertex -3.758191e+02 -5.012026e+02 -2.595965e+02
     vertex -3.735296e+02 -5.012026e+02 -2.593775e+02
   endloop
 endfacet
 facet normal -0.000000e+00 -1.000000e+00  0.000000e+00
   outer loop
     vertex -3.841552e+02 -5.020026e+02 -2.593844e+02
     vertex -3.864306e+02 -5.020026e+02 -2.590492e+02
     vertex -3.864705e+02 -5.020026e+02 -2.606156e+02
   endloop
 endfacet
 facet normal -0.000000e+00 -1.000000e+00  0.000000e+00
   outer loop
     vertex -3.838879e+02 -5.020026e+02 -2.584078e+02
     vertex -3.860170e+02 -5.020026e+02 -2.575377e+02
     vertex -3.864306e+02 -5.020026e+02 -2.590492e+02
   endloop
 endfacet
 facet normal  0.000000e+00 -1.000000e+00  0.000000e+00
   outer loop
     vertex -3.838879e+02 -5.020026e+02 -2.584078e+02
     vertex -3.864306e+02 -5.020026e+02 -2.590492e+02
     vertex -3.841552e+02 -5.020026e+02 -2.593844e+02
   endloop
 endfacet
 facet normal  0.000000e+00 -1.000000e+00  0.000000e+00
   outer loop
     vertex -3.841809e+02 -5.020026e+02 -2.603966e+02
     vertex -3.864705e+02 -5.020026e+02 -2.606156e+02
     vertex -3.861343e+02 -5.020026e+02 -2.621461e+02
   endloop
 endfacet
 facet normal -0.000000e+00 -1.000000e+00  0.000000e+00
   outer loop
     vertex -3.841809e+02 -5.020026e+02 -2.603966e+02
     vertex -3.841552e+02 -5.020026e+02 -2.593844e+02
     vertex -3.864705e+02 -5.020026e+02 -2.606156e+02
   endloop
 endfacet
 facet normal -0.000000e+00 -1.000000e+00  0.000000e+00
   outer loop
     vertex -3.833948e+02 -5.020026e+02 -2.575235e+02
     vertex -3.852538e+02 -5.020026e+02 -2.561692e+02
     vertex -3.860170e+02 -5.020026e+02 -2.575377e+02
   endloop
 endfacet
 facet normal  0.000000e+00 -1.000000e+00  0.000000e+00
   outer loop
     vertex -3.833948e+02 -5.020026e+02 -2.575235e+02
     vertex -3.860170e+02 -5.020026e+02 -2.575377e+02
     vertex -3.838879e+02 -5.020026e+02 -2.584078e+02
   endloop
 endfacet
 facet normal  0.000000e+00 -1.000000e+00  0.000000e+00
   outer loop
     vertex -3.839637e+02 -5.020026e+02 -2.613855e+02
     vertex -3.861343e+02 -5.020026e+02 -2.621461e+02
     vertex -3.854416e+02 -5.020026e+02 -2.635517e+02
   endloop
 endfacet
 facet normal -0.000000e+00 -1.000000e+00  0.000000e+00
   outer loop
     vertex -3.839637e+02 -5.020026e+02 -2.613855e+02
     vertex -3.841809e+02 -5.020026e+02 -2.603966e+02
     vertex -3.861343e+02 -5.020026e+02 -2.621461e+02
   endloop
 endfacet
 facet normal  0.000000e+00 -1.000000e+00  0.000000e+00
   outer loop
     vertex -3.827043e+02 -5.020026e+02 -2.567830e+02
     vertex -3.841852e+02 -5.020026e+02 -2.550231e+02
     vertex -3.852538e+02 -5.020026e+02 -2.561692e+02
   endloop
 endfacet
 facet normal -0.000000e+00 -1.000000e+00  0.000000e+00
   outer loop
     vertex -3.827043e+02 -5.020026e+02 -2.567830e+02
     vertex -3.852538e+02 -5.020026e+02 -2.561692e+02
     vertex -3.833948e+02 -5.020026e+02 -2.575235e+02
   endloop
 endfacet
 facet normal  0.000000e+00 -1.000000e+00  0.000000e+00
   outer loop
     vertex -3.835162e+02 -5.020026e+02 -2.622937e+02
     vertex -3.854416e+02 -5.020026e+02 -2.635517e+02
     vertex -3.844327e+02 -5.020026e+02 -2.647506e+02
   endloop
 endfacet
 facet normal -0.000000e+00 -1.000000e+00  0.000000e+00
   outer loop
     vertex -3.835162e+02 -5.020026e+02 -2.622937e+02
     vertex -3.839637e+02 -5.020026e+02 -2.613855e+02
     vertex -3.854416e+02 -5.020026e+02 -2.635517e+02
   endloop
 endfacet
 facet normal  0.000000e+00 -1.000000e+00  0.000000e+00
   outer loop
     vertex -3.818566e+02 -5.020026e+02 -2.562292e+02
     vertex -3.828733e+02 -5.020026e+02 -2.541661e+02
     vertex -3.841852e+02 -5.020026e+02 -2.550231e+02
   endloop
 endfacet
 facet normal -0.000000e+00 -1.000000e+00  0.000000e+00
   outer loop
     vertex -3.818566e+02 -5.020026e+02 -2.562292e+02
     vertex -3.841852e+02 -5.020026e+02 -2.550231e+02
     vertex -3.827043e+02 -5.020026e+02 -2.567830e+02
   endloop
 endfacet
 facet normal -0.000000e+00 -1.000000e+00  0.000000e+00
   outer loop
     vertex -3.828642e+02 -5.020026e+02 -2.630684e+02
     vertex -3.835162e+02 -5.020026e+02 -2.622937e+02
     vertex -3.844327e+02 -5.020026e+02 -2.647506e+02
   endloop
 endfacet
 facet normal  0.000000e+00 -1.000000e+00  0.000000e+00
   outer loop
     vertex -3.831662e+02 -5.020026e+02 -2.656733e+02
     vertex -3.828642e+02 -5.020026e+02 -2.630684e+02
     vertex -3.844327e+02 -5.020026e+02 -2.647506e+02
   endloop
 endfacet
 facet normal  0.000000e+00 -1.000000e+00  0.000000e+00
   outer loop
     vertex -3.809011e+02 -5.020026e+02 -2.558943e+02
     vertex -3.813945e+02 -5.020026e+02 -2.536479e+02
     vertex -3.828733e+02 -5.020026e+02 -2.541661e+02
   endloop
 endfacet
 facet normal -0.000000e+00 -1.000000e+00  0.000000e+00
   outer loop
     vertex -3.809011e+02 -5.020026e+02 -2.558943e+02
     vertex -3.828733e+02 -5.020026e+02 -2.541661e+02
     vertex -3.818566e+02 -5.020026e+02 -2.562292e+02
   endloop
 endfacet
 facet normal -0.000000e+00 -1.000000e+00  0.000000e+00
   outer loop
     vertex -3.820459e+02 -5.020026e+02 -2.636646e+02
     vertex -3.828642e+02 -5.020026e+02 -2.630684e+02
     vertex -3.831662e+02 -5.020026e+02 -2.656733e+02
   endloop
 endfacet
 facet normal  0.000000e+00 -1.000000e+00  0.000000e+00
   outer loop
     vertex -3.798932e+02 -5.020026e+02 -2.557979e+02
     vertex -3.798347e+02 -5.020026e+02 -2.534986e+02
     vertex -3.813945e+02 -5.020026e+02 -2.536479e+02
   endloop
 endfacet
 facet normal -0.000000e+00 -1.000000e+00  0.000000e+00
   outer loop
     vertex -3.798932e+02 -5.020026e+02 -2.557979e+02
     vertex -3.813945e+02 -5.020026e+02 -2.536479e+02
     vertex -3.809011e+02 -5.020026e+02 -2.558943e+02
   endloop
 endfacet
 facet normal  0.000000e+00 -1.000000e+00  0.000000e+00
   outer loop
     vertex -3.817156e+02 -5.020026e+02 -2.662660e+02
     vertex -3.820459e+02 -5.020026e+02 -2.636646e+02
     vertex -3.831662e+02 -5.020026e+02 -2.656733e+02
   endloop
 endfacet
 facet normal -0.000000e+00 -1.000000e+00  0.000000e+00
   outer loop
     vertex -3.811086e+02 -5.020026e+02 -2.640476e+02
     vertex -3.820459e+02 -5.020026e+02 -2.636646e+02
     vertex -3.817156e+02 -5.020026e+02 -2.662660e+02
   endloop
 endfacet
 facet normal  0.000000e+00 -1.000000e+00  0.000000e+00
   outer loop
     vertex -3.788915e+02 -5.020026e+02 -2.559455e+02
     vertex -3.798347e+02 -5.020026e+02 -2.534986e+02
     vertex -3.798932e+02 -5.020026e+02 -2.557979e+02
   endloop
 endfacet
 facet normal -0.000000e+00 -1.000000e+00  0.000000e+00
   outer loop
     vertex -3.782844e+02 -5.020026e+02 -2.537270e+02
     vertex -3.798347e+02 -5.020026e+02 -2.534986e+02
     vertex -3.788915e+02 -5.020026e+02 -2.559455e+02
   endloop
 endfacet
 facet normal  0.000000e+00 -1.000000e+00  0.000000e+00
   outer loop
     vertex -3.801654e+02 -5.020026e+02 -2.664944e+02
     vertex -3.811086e+02 -5.020026e+02 -2.640476e+02
     vertex -3.817156e+02 -5.020026e+02 -2.662660e+02
   endloop
 endfacet
 facet normal  0.000000e+00 -1.000000e+00  0.000000e+00
   outer loop
     vertex -3.801654e+02 -5.020026e+02 -2.664944e+02
     vertex -3.801069e+02 -5.020026e+02 -2.641952e+02
     vertex -3.811086e+02 -5.020026e+02 -2.640476e+02
   endloop
 endfacet
 facet normal  0.000000e+00 -1.000000e+00  0.000000e+00
   outer loop
     vertex -3.779542e+02 -5.020026e+02 -2.563285e+02
     vertex -3.782844e+02 -5.020026e+02 -2.537270e+02
     vertex -3.788915e+02 -5.020026e+02 -2.559455e+02
   endloop
 endfacet
 facet normal -0.000000e+00 -1.000000e+00  0.000000e+00
   outer loop
     vertex -3.768339e+02 -5.020026e+02 -2.543198e+02
     vertex -3.782844e+02 -5.020026e+02 -2.537270e+02
     vertex -3.779542e+02 -5.020026e+02 -2.563285e+02
   endloop
 endfacet
 facet normal  0.000000e+00 -1.000000e+00  0.000000e+00
   outer loop
     vertex -3.771358e+02 -5.020026e+02 -2.569247e+02
     vertex -3.768339e+02 -5.020026e+02 -2.543198e+02
     vertex -3.779542e+02 -5.020026e+02 -2.563285e+02
   endloop
 endfacet
 facet normal -0.000000e+00 -1.000000e+00  0.000000e+00
   outer loop
     vertex -3.786055e+02 -5.020026e+02 -2.663452e+02
     vertex -3.801069e+02 -5.020026e+02 -2.641952e+02
     vertex -3.801654e+02 -5.020026e+02 -2.664944e+02
   endloop
 endfacet
 facet normal  0.000000e+00 -1.000000e+00  0.000000e+00
   outer loop
     vertex -3.786055e+02 -5.020026e+02 -2.663452e+02
     vertex -3.790990e+02 -5.020026e+02 -2.640987e+02
     vertex -3.801069e+02 -5.020026e+02 -2.641952e+02
   endloop
 endfacet
 facet normal -0.000000e+00 -1.000000e+00  0.000000e+00
   outer loop
     vertex -3.755674e+02 -5.020026e+02 -2.552424e+02
     vertex -3.768339e+02 -5.020026e+02 -2.543198e+02
     vertex -3.771358e+02 -5.020026e+02 -2.569247e+02
   endloop
 endfacet
 facet normal -0.000000e+00 -1.000000e+00  0.000000e+00
   outer loop
     vertex -3.771267e+02 -5.020026e+02 -2.658270e+02
     vertex -3.790990e+02 -5.020026e+02 -2.640987e+02
     vertex -3.786055e+02 -5.020026e+02 -2.663452e+02
   endloop
 endfacet
 facet normal  0.000000e+00 -1.000000e+00  0.000000e+00
   outer loop
     vertex -3.771267e+02 -5.020026e+02 -2.658270e+02
     vertex -3.781434e+02 -5.020026e+02 -2.637639e+02
     vertex -3.790990e+02 -5.020026e+02 -2.640987e+02
   endloop
 endfacet
 facet normal  0.000000e+00 -1.000000e+00  0.000000e+00
   outer loop
     vertex -3.745584e+02 -5.020026e+02 -2.564414e+02
     vertex -3.764839e+02 -5.020026e+02 -2.576994e+02
     vertex -3.760364e+02 -5.020026e+02 -2.586076e+02
   endloop
 endfacet
 facet normal  0.000000e+00 -1.000000e+00  0.000000e+00
   outer loop
     vertex -3.745584e+02 -5.020026e+02 -2.564414e+02
     vertex -3.771358e+02 -5.020026e+02 -2.569247e+02
     vertex -3.764839e+02 -5.020026e+02 -2.576994e+02
   endloop
 endfacet
 facet normal -0.000000e+00 -1.000000e+00  0.000000e+00
   outer loop
     vertex -3.745584e+02 -5.020026e+02 -2.564414e+02
     vertex -3.755674e+02 -5.020026e+02 -2.552424e+02
     vertex -3.771358e+02 -5.020026e+02 -2.569247e+02
   endloop
 endfacet
 facet normal  0.000000e+00 -1.000000e+00  0.000000e+00
   outer loop
     vertex -3.758149e+02 -5.020026e+02 -2.649699e+02
     vertex -3.772958e+02 -5.020026e+02 -2.632101e+02
     vertex -3.781434e+02 -5.020026e+02 -2.637639e+02
   endloop
 endfacet
 facet normal -0.000000e+00 -1.000000e+00  0.000000e+00
   outer loop
     vertex -3.758149e+02 -5.020026e+02 -2.649699e+02
     vertex -3.781434e+02 -5.020026e+02 -2.637639e+02
     vertex -3.771267e+02 -5.020026e+02 -2.658270e+02
   endloop
 endfacet
 facet normal -0.000000e+00 -1.000000e+00  0.000000e+00
   outer loop
     vertex -3.738658e+02 -5.020026e+02 -2.578470e+02
     vertex -3.745584e+02 -5.020026e+02 -2.564414e+02
     vertex -3.760364e+02 -5.020026e+02 -2.586076e+02
   endloop
 endfacet
 facet normal -0.000000e+00 -1.000000e+00  0.000000e+00
   outer loop
     vertex -3.747463e+02 -5.020026e+02 -2.638239e+02
     vertex -3.772958e+02 -5.020026e+02 -2.632101e+02
     vertex -3.758149e+02 -5.020026e+02 -2.649699e+02
   endloop
 endfacet
 facet normal  0.000000e+00 -1.000000e+00  0.000000e+00
   outer loop
     vertex -3.747463e+02 -5.020026e+02 -2.638239e+02
     vertex -3.766053e+02 -5.020026e+02 -2.624696e+02
     vertex -3.772958e+02 -5.020026e+02 -2.632101e+02
   endloop
 endfacet
 facet normal -0.000000e+00 -1.000000e+00  0.000000e+00
   outer loop
     vertex -3.735296e+02 -5.020026e+02 -2.593775e+02
     vertex -3.760364e+02 -5.020026e+02 -2.586076e+02
     vertex -3.758191e+02 -5.020026e+02 -2.595965e+02
   endloop
 endfacet
 facet normal  0.000000e+00 -1.000000e+00  0.000000e+00
   outer loop
     vertex -3.735296e+02 -5.020026e+02 -2.593775e+02
     vertex -3.758191e+02 -5.020026e+02 -2.595965e+02
     vertex -3.758449e+02 -5.020026e+02 -2.606087e+02
   endloop
 endfacet
 facet normal  0.000000e+00 -1.000000e+00  0.000000e+00
   outer loop
     vertex -3.735296e+02 -5.020026e+02 -2.593775e+02
     vertex -3.738658e+02 -5.020026e+02 -2.578470e+02
     vertex -3.760364e+02 -5.020026e+02 -2.586076e+02
   endloop
 endfacet
 facet normal -0.000000e+00 -1.000000e+00  0.000000e+00
   outer loop
     vertex -3.739830e+02 -5.020026e+02 -2.624553e+02
     vertex -3.761121e+02 -5.020026e+02 -2.615853e+02
     vertex -3.766053e+02 -5.020026e+02 -2.624696e+02
   endloop
 endfacet
 facet normal  0.000000e+00 -1.000000e+00  0.000000e+00
   outer loop
     vertex -3.739830e+02 -5.020026e+02 -2.624553e+02
     vertex -3.766053e+02 -5.020026e+02 -2.624696e+02
     vertex -3.747463e+02 -5.020026e+02 -2.638239e+02
   endloop
 endfacet
 facet normal  0.000000e+00 -1.000000e+00  0.000000e+00
   outer loop
     vertex -3.735695e+02 -5.020026e+02 -2.609439e+02
     vertex -3.761121e+02 -5.020026e+02 -2.615853e+02
     vertex -3.739830e+02 -5.020026e+02 -2.624553e+02
   endloop
 endfacet
 facet normal -0.000000e+00 -1.000000e+00  0.000000e+00
   outer loop
     vertex -3.735695e+02 -5.020026e+02 -2.609439e+02
     vertex -3.758449e+02 -5.020026e+02 -2.606087e+02
     vertex -3.761121e+02 -5.020026e+02 -2.615853e+02
   endloop
 endfacet
 facet normal  0.000000e+00 -1.000000e+00  0.000000e+00
   outer loop
     vertex -3.735695e+02 -5.020026e+02 -2.609439e+02
     vertex -3.735296e+02 -5.020026e+02 -2.593775e+02
     vertex -3.758449e+02 -5.020026e+02 -2.606087e+02
   endloop
 endfacet
endsolid
