solid 
 facet normal  9.927089e-01  1.205367e-01  0.000000e+00
   outer loop
     vertex  2.263580e+02 -1.600000e+02 -2.500000e+01
     vertex  2.264800e+02 -1.610051e+02 -2.580000e+01
     vertex  2.263580e+02 -1.600000e+02 -2.580000e+01
   endloop
 endfacet
 facet normal  9.350162e-01  3.546049e-01  0.000000e+00
   outer loop
     vertex  2.264800e+02 -1.610051e+02 -2.500000e+01
     vertex  2.268391e+02 -1.619518e+02 -2.580000e+01
     vertex  2.264800e+02 -1.610051e+02 -2.580000e+01
   endloop
 endfacet
 facet normal  9.927089e-01  1.205367e-01  0.000000e+00
   outer loop
     vertex  2.264800e+02 -1.610051e+02 -2.500000e+01
     vertex  2.264800e+02 -1.610051e+02 -2.580000e+01
     vertex  2.263580e+02 -1.600000e+02 -2.500000e+01
   endloop
 endfacet
 facet normal  8.229839e-01  5.680647e-01  0.000000e+00
   outer loop
     vertex  2.268391e+02 -1.619518e+02 -2.500000e+01
     vertex  2.274143e+02 -1.627851e+02 -2.580000e+01
     vertex  2.268391e+02 -1.619518e+02 -2.580000e+01
   endloop
 endfacet
 facet normal  9.350162e-01  3.546049e-01  0.000000e+00
   outer loop
     vertex  2.268391e+02 -1.619518e+02 -2.500000e+01
     vertex  2.268391e+02 -1.619518e+02 -2.580000e+01
     vertex  2.264800e+02 -1.610051e+02 -2.500000e+01
   endloop
 endfacet
 facet normal  6.631227e-01  7.485107e-01  5.318489e-14
   outer loop
     vertex  2.274143e+02 -1.627851e+02 -2.500000e+01
     vertex  2.281721e+02 -1.634565e+02 -2.580000e+01
     vertex  2.274143e+02 -1.627851e+02 -2.580000e+01
   endloop
 endfacet
 facet normal  8.229839e-01  5.680647e-01  4.036343e-14
   outer loop
     vertex  2.274143e+02 -1.627851e+02 -2.500000e+01
     vertex  2.274143e+02 -1.627851e+02 -2.580000e+01
     vertex  2.268391e+02 -1.619518e+02 -2.500000e+01
   endloop
 endfacet
 facet normal  4.647232e-01  8.854560e-01  0.000000e+00
   outer loop
     vertex  2.281721e+02 -1.634565e+02 -2.500000e+01
     vertex  2.290687e+02 -1.639271e+02 -2.580000e+01
     vertex  2.281721e+02 -1.634565e+02 -2.580000e+01
   endloop
 endfacet
 facet normal  6.631227e-01  7.485107e-01  0.000000e+00
   outer loop
     vertex  2.281721e+02 -1.634565e+02 -2.500000e+01
     vertex  2.281721e+02 -1.634565e+02 -2.580000e+01
     vertex  2.274143e+02 -1.627851e+02 -2.500000e+01
   endloop
 endfacet
 facet normal  2.393157e-01  9.709418e-01 -1.029984e-13
   outer loop
     vertex  2.290687e+02 -1.639271e+02 -2.500000e+01
     vertex  2.300517e+02 -1.641694e+02 -2.580000e+01
     vertex  2.290687e+02 -1.639271e+02 -2.580000e+01
   endloop
 endfacet
 facet normal  4.647232e-01  8.854560e-01 -1.289566e-13
   outer loop
     vertex  2.290687e+02 -1.639271e+02 -2.500000e+01
     vertex  2.290687e+02 -1.639271e+02 -2.580000e+01
     vertex  2.281721e+02 -1.634565e+02 -2.500000e+01
   endloop
 endfacet
 facet normal  0.000000e+00  1.000000e+00  0.000000e+00
   outer loop
     vertex  2.300517e+02 -1.641694e+02 -2.500000e+01
     vertex  2.310643e+02 -1.641694e+02 -2.580000e+01
     vertex  2.300517e+02 -1.641694e+02 -2.580000e+01
   endloop
 endfacet
 facet normal  2.393157e-01  9.709418e-01  0.000000e+00
   outer loop
     vertex  2.300517e+02 -1.641694e+02 -2.500000e+01
     vertex  2.300517e+02 -1.641694e+02 -2.580000e+01
     vertex  2.290687e+02 -1.639271e+02 -2.500000e+01
   endloop
 endfacet
 facet normal -2.393157e-01  9.709418e-01  0.000000e+00
   outer loop
     vertex  2.310643e+02 -1.641694e+02 -2.500000e+01
     vertex  2.320473e+02 -1.639271e+02 -2.580000e+01
     vertex  2.310643e+02 -1.641694e+02 -2.580000e+01
   endloop
 endfacet
 facet normal  0.000000e+00  1.000000e+00  0.000000e+00
   outer loop
     vertex  2.310643e+02 -1.641694e+02 -2.500000e+01
     vertex  2.310643e+02 -1.641694e+02 -2.580000e+01
     vertex  2.300517e+02 -1.641694e+02 -2.500000e+01
   endloop
 endfacet
 facet normal -4.647232e-01  8.854560e-01  6.916683e-14
   outer loop
     vertex  2.320473e+02 -1.639271e+02 -2.500000e+01
     vertex  2.329439e+02 -1.634565e+02 -2.580000e+01
     vertex  2.320473e+02 -1.639271e+02 -2.580000e+01
   endloop
 endfacet
 facet normal -2.393157e-01  9.709418e-01 -9.719628e-16
   outer loop
     vertex  2.320473e+02 -1.639271e+02 -2.500000e+01
     vertex  2.320473e+02 -1.639271e+02 -2.580000e+01
     vertex  2.310643e+02 -1.641694e+02 -2.500000e+01
   endloop
 endfacet
 facet normal -6.631227e-01  7.485107e-01  0.000000e+00
   outer loop
     vertex  2.329439e+02 -1.634565e+02 -2.500000e+01
     vertex  2.337017e+02 -1.627851e+02 -2.580000e+01
     vertex  2.329439e+02 -1.634565e+02 -2.580000e+01
   endloop
 endfacet
 facet normal -4.647232e-01  8.854560e-01  0.000000e+00
   outer loop
     vertex  2.329439e+02 -1.634565e+02 -2.500000e+01
     vertex  2.329439e+02 -1.634565e+02 -2.580000e+01
     vertex  2.320473e+02 -1.639271e+02 -2.500000e+01
   endloop
 endfacet
 facet normal -8.229839e-01  5.680647e-01 -8.072686e-14
   outer loop
     vertex  2.337017e+02 -1.627851e+02 -2.500000e+01
     vertex  2.342769e+02 -1.619518e+02 -2.580000e+01
     vertex  2.337017e+02 -1.627851e+02 -2.580000e+01
   endloop
 endfacet
 facet normal -6.631227e-01  7.485107e-01 -1.063698e-13
   outer loop
     vertex  2.337017e+02 -1.627851e+02 -2.500000e+01
     vertex  2.337017e+02 -1.627851e+02 -2.580000e+01
     vertex  2.329439e+02 -1.634565e+02 -2.500000e+01
   endloop
 endfacet
 facet normal -8.229839e-01  5.680647e-01  0.000000e+00
   outer loop
     vertex  2.342769e+02 -1.619518e+02 -2.500000e+01
     vertex  2.342769e+02 -1.619518e+02 -2.580000e+01
     vertex  2.337017e+02 -1.627851e+02 -2.500000e+01
   endloop
 endfacet
 facet normal -9.350162e-01  3.546049e-01  0.000000e+00
   outer loop
     vertex  2.342769e+02 -1.619518e+02 -2.500000e+01
     vertex  2.346360e+02 -1.610051e+02 -2.580000e+01
     vertex  2.342769e+02 -1.619518e+02 -2.580000e+01
   endloop
 endfacet
 facet normal -9.350162e-01  3.546049e-01  1.076776e-13
   outer loop
     vertex  2.346360e+02 -1.610051e+02 -2.500000e+01
     vertex  2.346360e+02 -1.610051e+02 -2.580000e+01
     vertex  2.342769e+02 -1.619518e+02 -2.500000e+01
   endloop
 endfacet
 facet normal -9.927089e-01  1.205367e-01  1.325078e-13
   outer loop
     vertex  2.346360e+02 -1.610051e+02 -2.500000e+01
     vertex  2.347580e+02 -1.600000e+02 -2.580000e+01
     vertex  2.346360e+02 -1.610051e+02 -2.580000e+01
   endloop
 endfacet
 facet normal -9.927089e-01  1.205367e-01  0.000000e+00
   outer loop
     vertex  2.347580e+02 -1.600000e+02 -2.500000e+01
     vertex  2.347580e+02 -1.600000e+02 -2.580000e+01
     vertex  2.346360e+02 -1.610051e+02 -2.500000e+01
   endloop
 endfacet
 facet normal -9.927089e-01 -1.205367e-01 -0.000000e+00
   outer loop
     vertex  2.347580e+02 -1.600000e+02 -2.500000e+01
     vertex  2.346360e+02 -1.589949e+02 -2.580000e+01
     vertex  2.347580e+02 -1.600000e+02 -2.580000e+01
   endloop
 endfacet
 facet normal -9.927089e-01 -1.205367e-01 -1.325078e-13
   outer loop
     vertex  2.346360e+02 -1.589949e+02 -2.500000e+01
     vertex  2.346360e+02 -1.589949e+02 -2.580000e+01
     vertex  2.347580e+02 -1.600000e+02 -2.500000e+01
   endloop
 endfacet
 facet normal -9.350162e-01 -3.546049e-01 -1.076687e-13
   outer loop
     vertex  2.342769e+02 -1.580482e+02 -2.500000e+01
     vertex  2.346360e+02 -1.589949e+02 -2.580000e+01
     vertex  2.346360e+02 -1.589949e+02 -2.500000e+01
   endloop
 endfacet
 facet normal -9.350162e-01 -3.546049e-01 -1.328738e-13
   outer loop
     vertex  2.342769e+02 -1.580482e+02 -2.500000e+01
     vertex  2.342769e+02 -1.580482e+02 -2.580000e+01
     vertex  2.346360e+02 -1.589949e+02 -2.580000e+01
   endloop
 endfacet
 facet normal -8.229839e-01 -5.680647e-01 -1.169530e-13
   outer loop
     vertex  2.342769e+02 -1.580482e+02 -2.500000e+01
     vertex  2.337017e+02 -1.572149e+02 -2.580000e+01
     vertex  2.342769e+02 -1.580482e+02 -2.580000e+01
   endloop
 endfacet
 facet normal -8.229839e-01 -5.680647e-01 -0.000000e+00
   outer loop
     vertex  2.337017e+02 -1.572149e+02 -2.500000e+01
     vertex  2.337017e+02 -1.572149e+02 -2.580000e+01
     vertex  2.342769e+02 -1.580482e+02 -2.500000e+01
   endloop
 endfacet
 facet normal -6.631227e-01 -7.485107e-01 -0.000000e+00
   outer loop
     vertex  2.337017e+02 -1.572149e+02 -2.500000e+01
     vertex  2.329439e+02 -1.565435e+02 -2.580000e+01
     vertex  2.337017e+02 -1.572149e+02 -2.580000e+01
   endloop
 endfacet
 facet normal -6.631227e-01 -7.485107e-01 -0.000000e+00
   outer loop
     vertex  2.329439e+02 -1.565435e+02 -2.500000e+01
     vertex  2.329439e+02 -1.565435e+02 -2.580000e+01
     vertex  2.337017e+02 -1.572149e+02 -2.500000e+01
   endloop
 endfacet
 facet normal -4.647232e-01 -8.854560e-01 -0.000000e+00
   outer loop
     vertex  2.329439e+02 -1.565435e+02 -2.500000e+01
     vertex  2.320473e+02 -1.560729e+02 -2.580000e+01
     vertex  2.329439e+02 -1.565435e+02 -2.580000e+01
   endloop
 endfacet
 facet normal -4.647232e-01 -8.854560e-01 -0.000000e+00
   outer loop
     vertex  2.320473e+02 -1.560729e+02 -2.500000e+01
     vertex  2.320473e+02 -1.560729e+02 -2.580000e+01
     vertex  2.329439e+02 -1.565435e+02 -2.500000e+01
   endloop
 endfacet
 facet normal -2.393157e-01 -9.709418e-01 -0.000000e+00
   outer loop
     vertex  2.320473e+02 -1.560729e+02 -2.500000e+01
     vertex  2.310643e+02 -1.558306e+02 -2.580000e+01
     vertex  2.320473e+02 -1.560729e+02 -2.580000e+01
   endloop
 endfacet
 facet normal -2.393157e-01 -9.709418e-01 -0.000000e+00
   outer loop
     vertex  2.310643e+02 -1.558306e+02 -2.500000e+01
     vertex  2.310643e+02 -1.558306e+02 -2.580000e+01
     vertex  2.320473e+02 -1.560729e+02 -2.500000e+01
   endloop
 endfacet
 facet normal  0.000000e+00 -1.000000e+00 -0.000000e+00
   outer loop
     vertex  2.310643e+02 -1.558306e+02 -2.500000e+01
     vertex  2.300517e+02 -1.558306e+02 -2.580000e+01
     vertex  2.310643e+02 -1.558306e+02 -2.580000e+01
   endloop
 endfacet
 facet normal  0.000000e+00 -1.000000e+00  0.000000e+00
   outer loop
     vertex  2.300517e+02 -1.558306e+02 -2.500000e+01
     vertex  2.300517e+02 -1.558306e+02 -2.580000e+01
     vertex  2.310643e+02 -1.558306e+02 -2.500000e+01
   endloop
 endfacet
 facet normal  2.393157e-01 -9.709418e-01  0.000000e+00
   outer loop
     vertex  2.300517e+02 -1.558306e+02 -2.500000e+01
     vertex  2.290687e+02 -1.560729e+02 -2.580000e+01
     vertex  2.300517e+02 -1.558306e+02 -2.580000e+01
   endloop
 endfacet
 facet normal  2.393157e-01 -9.709418e-01  0.000000e+00
   outer loop
     vertex  2.290687e+02 -1.560729e+02 -2.500000e+01
     vertex  2.290687e+02 -1.560729e+02 -2.580000e+01
     vertex  2.300517e+02 -1.558306e+02 -2.500000e+01
   endloop
 endfacet
 facet normal  4.647232e-01 -8.854560e-01 -2.846044e-17
   outer loop
     vertex  2.281721e+02 -1.565435e+02 -2.500000e+01
     vertex  2.290687e+02 -1.560729e+02 -2.580000e+01
     vertex  2.290687e+02 -1.560729e+02 -2.500000e+01
   endloop
 endfacet
 facet normal  4.647232e-01 -8.854560e-01  0.000000e+00
   outer loop
     vertex  2.281721e+02 -1.565435e+02 -2.500000e+01
     vertex  2.281721e+02 -1.565435e+02 -2.580000e+01
     vertex  2.290687e+02 -1.560729e+02 -2.580000e+01
   endloop
 endfacet
 facet normal  6.631227e-01 -7.485107e-01  0.000000e+00
   outer loop
     vertex  2.281721e+02 -1.565435e+02 -2.500000e+01
     vertex  2.274143e+02 -1.572149e+02 -2.580000e+01
     vertex  2.281721e+02 -1.565435e+02 -2.580000e+01
   endloop
 endfacet
 facet normal  6.631227e-01 -7.485107e-01 -1.213438e-14
   outer loop
     vertex  2.274143e+02 -1.572149e+02 -2.500000e+01
     vertex  2.274143e+02 -1.572149e+02 -2.580000e+01
     vertex  2.281721e+02 -1.565435e+02 -2.500000e+01
   endloop
 endfacet
 facet normal  8.229839e-01 -5.680647e-01  3.622619e-14
   outer loop
     vertex  2.274143e+02 -1.572149e+02 -2.500000e+01
     vertex  2.268391e+02 -1.580482e+02 -2.580000e+01
     vertex  2.274143e+02 -1.572149e+02 -2.580000e+01
   endloop
 endfacet
 facet normal  8.229839e-01 -5.680647e-01 -4.036343e-14
   outer loop
     vertex  2.268391e+02 -1.580482e+02 -2.500000e+01
     vertex  2.268391e+02 -1.580482e+02 -2.580000e+01
     vertex  2.274143e+02 -1.572149e+02 -2.500000e+01
   endloop
 endfacet
 facet normal  9.350162e-01 -3.546049e-01  0.000000e+00
   outer loop
     vertex  2.264800e+02 -1.589949e+02 -2.500000e+01
     vertex  2.264800e+02 -1.589949e+02 -2.580000e+01
     vertex  2.268391e+02 -1.580482e+02 -2.580000e+01
   endloop
 endfacet
 facet normal  9.927089e-01 -1.205367e-01  0.000000e+00
   outer loop
     vertex  2.264800e+02 -1.589949e+02 -2.500000e+01
     vertex  2.263580e+02 -1.600000e+02 -2.580000e+01
     vertex  2.264800e+02 -1.589949e+02 -2.580000e+01
   endloop
 endfacet
 facet normal  9.350162e-01 -3.546049e-01 -2.518163e-14
   outer loop
     vertex  2.264800e+02 -1.589949e+02 -2.500000e+01
     vertex  2.268391e+02 -1.580482e+02 -2.580000e+01
     vertex  2.268391e+02 -1.580482e+02 -2.500000e+01
   endloop
 endfacet
 facet normal  9.927089e-01 -1.205367e-01  0.000000e+00
   outer loop
     vertex  2.263580e+02 -1.600000e+02 -2.500000e+01
     vertex  2.263580e+02 -1.600000e+02 -2.580000e+01
     vertex  2.264800e+02 -1.589949e+02 -2.500000e+01
   endloop
 endfacet
 facet normal -9.927089e-01 -1.205367e-01 -2.104026e-19
   outer loop
     vertex  2.242469e+02 -1.615556e+02 -2.500000e+01
     vertex  2.240580e+02 -1.600000e+02 -2.500000e+01
     vertex  2.240580e+02 -1.600000e+02 -2.580000e+01
   endloop
 endfacet
 facet normal -9.927089e-01 -1.205367e-01 -0.000000e+00
   outer loop
     vertex  2.242469e+02 -1.615556e+02 -2.500000e+01
     vertex  2.240580e+02 -1.600000e+02 -2.580000e+01
     vertex  2.242469e+02 -1.615556e+02 -2.580000e+01
   endloop
 endfacet
 facet normal -9.350162e-01 -3.546049e-01 -0.000000e+00
   outer loop
     vertex  2.248025e+02 -1.630207e+02 -2.500000e+01
     vertex  2.242469e+02 -1.615556e+02 -2.580000e+01
     vertex  2.248025e+02 -1.630207e+02 -2.580000e+01
   endloop
 endfacet
 facet normal -9.350162e-01 -3.546049e-01 -1.497134e-18
   outer loop
     vertex  2.248025e+02 -1.630207e+02 -2.500000e+01
     vertex  2.242469e+02 -1.615556e+02 -2.500000e+01
     vertex  2.242469e+02 -1.615556e+02 -2.580000e+01
   endloop
 endfacet
 facet normal -8.229839e-01 -5.680647e-01 -0.000000e+00
   outer loop
     vertex  2.256927e+02 -1.643103e+02 -2.500000e+01
     vertex  2.248025e+02 -1.630207e+02 -2.580000e+01
     vertex  2.256927e+02 -1.643103e+02 -2.580000e+01
   endloop
 endfacet
 facet normal -8.229839e-01 -5.680647e-01 -2.126292e-18
   outer loop
     vertex  2.256927e+02 -1.643103e+02 -2.500000e+01
     vertex  2.248025e+02 -1.630207e+02 -2.500000e+01
     vertex  2.248025e+02 -1.630207e+02 -2.580000e+01
   endloop
 endfacet
 facet normal -6.631227e-01 -7.485107e-01 -0.000000e+00
   outer loop
     vertex  2.268656e+02 -1.653494e+02 -2.500000e+01
     vertex  2.256927e+02 -1.643103e+02 -2.580000e+01
     vertex  2.268656e+02 -1.653494e+02 -2.580000e+01
   endloop
 endfacet
 facet normal -6.631227e-01 -7.485107e-01 -6.573609e-17
   outer loop
     vertex  2.268656e+02 -1.653494e+02 -2.500000e+01
     vertex  2.256927e+02 -1.643103e+02 -2.500000e+01
     vertex  2.256927e+02 -1.643103e+02 -2.580000e+01
   endloop
 endfacet
 facet normal -4.647232e-01 -8.854560e-01 -0.000000e+00
   outer loop
     vertex  2.282531e+02 -1.660776e+02 -2.500000e+01
     vertex  2.268656e+02 -1.653494e+02 -2.580000e+01
     vertex  2.282531e+02 -1.660776e+02 -2.580000e+01
   endloop
 endfacet
 facet normal -4.647232e-01 -8.854560e-01  3.373332e-17
   outer loop
     vertex  2.282531e+02 -1.660776e+02 -2.500000e+01
     vertex  2.268656e+02 -1.653494e+02 -2.500000e+01
     vertex  2.268656e+02 -1.653494e+02 -2.580000e+01
   endloop
 endfacet
 facet normal -2.393157e-01 -9.709418e-01 -0.000000e+00
   outer loop
     vertex  2.297745e+02 -1.664526e+02 -2.500000e+01
     vertex  2.282531e+02 -1.660776e+02 -2.580000e+01
     vertex  2.297745e+02 -1.664526e+02 -2.580000e+01
   endloop
 endfacet
 facet normal -2.393157e-01 -9.709418e-01 -3.308842e-17
   outer loop
     vertex  2.297745e+02 -1.664526e+02 -2.500000e+01
     vertex  2.282531e+02 -1.660776e+02 -2.500000e+01
     vertex  2.282531e+02 -1.660776e+02 -2.580000e+01
   endloop
 endfacet
 facet normal  0.000000e+00 -1.000000e+00 -0.000000e+00
   outer loop
     vertex  2.313415e+02 -1.664526e+02 -2.500000e+01
     vertex  2.297745e+02 -1.664526e+02 -2.580000e+01
     vertex  2.313415e+02 -1.664526e+02 -2.580000e+01
   endloop
 endfacet
 facet normal -0.000000e+00 -1.000000e+00  0.000000e+00
   outer loop
     vertex  2.313415e+02 -1.664526e+02 -2.500000e+01
     vertex  2.297745e+02 -1.664526e+02 -2.500000e+01
     vertex  2.297745e+02 -1.664526e+02 -2.580000e+01
   endloop
 endfacet
 facet normal  2.393157e-01 -9.709418e-01  0.000000e+00
   outer loop
     vertex  2.328629e+02 -1.660776e+02 -2.500000e+01
     vertex  2.313415e+02 -1.664526e+02 -2.580000e+01
     vertex  2.328629e+02 -1.660776e+02 -2.580000e+01
   endloop
 endfacet
 facet normal  2.393157e-01 -9.709418e-01  3.308842e-17
   outer loop
     vertex  2.328629e+02 -1.660776e+02 -2.500000e+01
     vertex  2.313415e+02 -1.664526e+02 -2.500000e+01
     vertex  2.313415e+02 -1.664526e+02 -2.580000e+01
   endloop
 endfacet
 facet normal  4.647232e-01 -8.854560e-01  0.000000e+00
   outer loop
     vertex  2.342504e+02 -1.653494e+02 -2.500000e+01
     vertex  2.328629e+02 -1.660776e+02 -2.580000e+01
     vertex  2.342504e+02 -1.653494e+02 -2.580000e+01
   endloop
 endfacet
 facet normal  4.647232e-01 -8.854560e-01 -3.373332e-17
   outer loop
     vertex  2.342504e+02 -1.653494e+02 -2.500000e+01
     vertex  2.328629e+02 -1.660776e+02 -2.500000e+01
     vertex  2.328629e+02 -1.660776e+02 -2.580000e+01
   endloop
 endfacet
 facet normal  6.631227e-01 -7.485107e-01  0.000000e+00
   outer loop
     vertex  2.354233e+02 -1.643103e+02 -2.500000e+01
     vertex  2.342504e+02 -1.653494e+02 -2.580000e+01
     vertex  2.354233e+02 -1.643103e+02 -2.580000e+01
   endloop
 endfacet
 facet normal  6.631227e-01 -7.485107e-01  1.930257e-17
   outer loop
     vertex  2.354233e+02 -1.643103e+02 -2.500000e+01
     vertex  2.342504e+02 -1.653494e+02 -2.500000e+01
     vertex  2.342504e+02 -1.653494e+02 -2.580000e+01
   endloop
 endfacet
 facet normal  8.229839e-01 -5.680647e-01 -4.146788e-17
   outer loop
     vertex  2.363135e+02 -1.630207e+02 -2.500000e+01
     vertex  2.354233e+02 -1.643103e+02 -2.500000e+01
     vertex  2.354233e+02 -1.643103e+02 -2.580000e+01
   endloop
 endfacet
 facet normal  8.229839e-01 -5.680647e-01  0.000000e+00
   outer loop
     vertex  2.363135e+02 -1.630207e+02 -2.500000e+01
     vertex  2.354233e+02 -1.643103e+02 -2.580000e+01
     vertex  2.363135e+02 -1.630207e+02 -2.580000e+01
   endloop
 endfacet
 facet normal  9.350162e-01 -3.546049e-01 -2.616777e-17
   outer loop
     vertex  2.368691e+02 -1.615556e+02 -2.500000e+01
     vertex  2.363135e+02 -1.630207e+02 -2.500000e+01
     vertex  2.363135e+02 -1.630207e+02 -2.580000e+01
   endloop
 endfacet
 facet normal  9.350162e-01 -3.546049e-01  0.000000e+00
   outer loop
     vertex  2.368691e+02 -1.615556e+02 -2.500000e+01
     vertex  2.363135e+02 -1.630207e+02 -2.580000e+01
     vertex  2.368691e+02 -1.615556e+02 -2.580000e+01
   endloop
 endfacet
 facet normal  9.927089e-01 -1.205367e-01 -2.110128e-18
   outer loop
     vertex  2.370580e+02 -1.600000e+02 -2.500000e+01
     vertex  2.368691e+02 -1.615556e+02 -2.500000e+01
     vertex  2.368691e+02 -1.615556e+02 -2.580000e+01
   endloop
 endfacet
 facet normal  9.927089e-01 -1.205367e-01  0.000000e+00
   outer loop
     vertex  2.370580e+02 -1.600000e+02 -2.500000e+01
     vertex  2.368691e+02 -1.615556e+02 -2.580000e+01
     vertex  2.370580e+02 -1.600000e+02 -2.580000e+01
   endloop
 endfacet
 facet normal  9.927089e-01  1.205367e-01 -1.610145e-17
   outer loop
     vertex  2.368691e+02 -1.584444e+02 -2.500000e+01
     vertex  2.370580e+02 -1.600000e+02 -2.500000e+01
     vertex  2.370580e+02 -1.600000e+02 -2.580000e+01
   endloop
 endfacet
 facet normal  9.927089e-01  1.205367e-01  8.564646e-15
   outer loop
     vertex  2.368691e+02 -1.584444e+02 -2.500000e+01
     vertex  2.370580e+02 -1.600000e+02 -2.580000e+01
     vertex  2.368691e+02 -1.584444e+02 -2.580000e+01
   endloop
 endfacet
 facet normal  9.350162e-01  3.546049e-01  2.517837e-14
   outer loop
     vertex  2.363135e+02 -1.569793e+02 -2.500000e+01
     vertex  2.368691e+02 -1.584444e+02 -2.500000e+01
     vertex  2.368691e+02 -1.584444e+02 -2.580000e+01
   endloop
 endfacet
 facet normal  9.350162e-01  3.546049e-01  0.000000e+00
   outer loop
     vertex  2.363135e+02 -1.569793e+02 -2.500000e+01
     vertex  2.368691e+02 -1.584444e+02 -2.580000e+01
     vertex  2.363135e+02 -1.569793e+02 -2.580000e+01
   endloop
 endfacet
 facet normal  8.229839e-01  5.680647e-01 -2.126292e-18
   outer loop
     vertex  2.354233e+02 -1.556897e+02 -2.500000e+01
     vertex  2.363135e+02 -1.569793e+02 -2.500000e+01
     vertex  2.363135e+02 -1.569793e+02 -2.580000e+01
   endloop
 endfacet
 facet normal  8.229839e-01  5.680647e-01  0.000000e+00
   outer loop
     vertex  2.354233e+02 -1.556897e+02 -2.500000e+01
     vertex  2.363135e+02 -1.569793e+02 -2.580000e+01
     vertex  2.354233e+02 -1.556897e+02 -2.580000e+01
   endloop
 endfacet
 facet normal  6.631227e-01  7.485107e-01 -1.930257e-17
   outer loop
     vertex  2.342504e+02 -1.546506e+02 -2.500000e+01
     vertex  2.354233e+02 -1.556897e+02 -2.500000e+01
     vertex  2.354233e+02 -1.556897e+02 -2.580000e+01
   endloop
 endfacet
 facet normal  6.631227e-01  7.485107e-01  0.000000e+00
   outer loop
     vertex  2.342504e+02 -1.546506e+02 -2.500000e+01
     vertex  2.354233e+02 -1.556897e+02 -2.580000e+01
     vertex  2.342504e+02 -1.546506e+02 -2.580000e+01
   endloop
 endfacet
 facet normal  4.647232e-01  8.854560e-01 -1.197517e-18
   outer loop
     vertex  2.328629e+02 -1.539224e+02 -2.500000e+01
     vertex  2.342504e+02 -1.546506e+02 -2.500000e+01
     vertex  2.342504e+02 -1.546506e+02 -2.580000e+01
   endloop
 endfacet
 facet normal  2.393157e-01  9.709418e-01  0.000000e+00
   outer loop
     vertex  2.328629e+02 -1.539224e+02 -2.500000e+01
     vertex  2.328629e+02 -1.539224e+02 -2.580000e+01
     vertex  2.313415e+02 -1.535474e+02 -2.580000e+01
   endloop
 endfacet
 facet normal  4.647232e-01  8.854560e-01  0.000000e+00
   outer loop
     vertex  2.328629e+02 -1.539224e+02 -2.500000e+01
     vertex  2.342504e+02 -1.546506e+02 -2.580000e+01
     vertex  2.328629e+02 -1.539224e+02 -2.580000e+01
   endloop
 endfacet
 facet normal  2.393157e-01  9.709418e-01  6.898957e-14
   outer loop
     vertex  2.313415e+02 -1.535474e+02 -2.500000e+01
     vertex  2.328629e+02 -1.539224e+02 -2.500000e+01
     vertex  2.313415e+02 -1.535474e+02 -2.580000e+01
   endloop
 endfacet
 facet normal -2.393157e-01  9.709418e-01  0.000000e+00
   outer loop
     vertex  2.297745e+02 -1.535474e+02 -2.500000e+01
     vertex  2.297745e+02 -1.535474e+02 -2.580000e+01
     vertex  2.282531e+02 -1.539224e+02 -2.580000e+01
   endloop
 endfacet
 facet normal -3.627585e-14  1.000000e+00  0.000000e+00
   outer loop
     vertex  2.297745e+02 -1.535474e+02 -2.500000e+01
     vertex  2.313415e+02 -1.535474e+02 -2.580000e+01
     vertex  2.297745e+02 -1.535474e+02 -2.580000e+01
   endloop
 endfacet
 facet normal -0.000000e+00  1.000000e+00  7.105427e-14
   outer loop
     vertex  2.297745e+02 -1.535474e+02 -2.500000e+01
     vertex  2.313415e+02 -1.535474e+02 -2.500000e+01
     vertex  2.313415e+02 -1.535474e+02 -2.580000e+01
   endloop
 endfacet
 facet normal -2.393157e-01  9.709418e-01  0.000000e+00
   outer loop
     vertex  2.282531e+02 -1.539224e+02 -2.500000e+01
     vertex  2.297745e+02 -1.535474e+02 -2.500000e+01
     vertex  2.282531e+02 -1.539224e+02 -2.580000e+01
   endloop
 endfacet
 facet normal -4.647232e-01  8.854560e-01  0.000000e+00
   outer loop
     vertex  2.268656e+02 -1.546506e+02 -2.500000e+01
     vertex  2.282531e+02 -1.539224e+02 -2.580000e+01
     vertex  2.268656e+02 -1.546506e+02 -2.580000e+01
   endloop
 endfacet
 facet normal -4.647232e-01  8.854560e-01 -6.866415e-17
   outer loop
     vertex  2.268656e+02 -1.546506e+02 -2.500000e+01
     vertex  2.282531e+02 -1.539224e+02 -2.500000e+01
     vertex  2.282531e+02 -1.539224e+02 -2.580000e+01
   endloop
 endfacet
 facet normal -8.229839e-01  5.680647e-01  0.000000e+00
   outer loop
     vertex  2.256927e+02 -1.556897e+02 -2.500000e+01
     vertex  2.256927e+02 -1.556897e+02 -2.580000e+01
     vertex  2.248025e+02 -1.569793e+02 -2.580000e+01
   endloop
 endfacet
 facet normal -6.631227e-01  7.485107e-01  0.000000e+00
   outer loop
     vertex  2.256927e+02 -1.556897e+02 -2.500000e+01
     vertex  2.268656e+02 -1.546506e+02 -2.580000e+01
     vertex  2.256927e+02 -1.556897e+02 -2.580000e+01
   endloop
 endfacet
 facet normal -6.631227e-01  7.485107e-01 -6.495858e-17
   outer loop
     vertex  2.256927e+02 -1.556897e+02 -2.500000e+01
     vertex  2.268656e+02 -1.546506e+02 -2.500000e+01
     vertex  2.268656e+02 -1.546506e+02 -2.580000e+01
   endloop
 endfacet
 facet normal -8.229839e-01  5.680647e-01  0.000000e+00
   outer loop
     vertex  2.248025e+02 -1.569793e+02 -2.500000e+01
     vertex  2.256927e+02 -1.556897e+02 -2.500000e+01
     vertex  2.248025e+02 -1.569793e+02 -2.580000e+01
   endloop
 endfacet
 facet normal -9.350162e-01  3.546049e-01  0.000000e+00
   outer loop
     vertex  2.242469e+02 -1.584444e+02 -2.500000e+01
     vertex  2.248025e+02 -1.569793e+02 -2.580000e+01
     vertex  2.242469e+02 -1.584444e+02 -2.580000e+01
   endloop
 endfacet
 facet normal -9.350162e-01  3.546049e-01 -2.616777e-17
   outer loop
     vertex  2.242469e+02 -1.584444e+02 -2.500000e+01
     vertex  2.248025e+02 -1.569793e+02 -2.500000e+01
     vertex  2.248025e+02 -1.569793e+02 -2.580000e+01
   endloop
 endfacet
 facet normal -9.927089e-01  1.205367e-01  0.000000e+00
   outer loop
     vertex  2.240580e+02 -1.600000e+02 -2.500000e+01
     vertex  2.242469e+02 -1.584444e+02 -2.580000e+01
     vertex  2.240580e+02 -1.600000e+02 -2.580000e+01
   endloop
 endfacet
 facet normal -9.927089e-01  1.205367e-01  8.069295e-18
   outer loop
     vertex  2.240580e+02 -1.600000e+02 -2.500000e+01
     vertex  2.242469e+02 -1.584444e+02 -2.500000e+01
     vertex  2.242469e+02 -1.584444e+02 -2.580000e+01
   endloop
 endfacet
 facet normal -1.280565e-15 -8.839105e-16  1.000000e+00
   outer loop
     vertex  2.337017e+02 -1.572149e+02 -2.500000e+01
     vertex  2.363135e+02 -1.569793e+02 -2.500000e+01
     vertex  2.354233e+02 -1.556897e+02 -2.500000e+01
   endloop
 endfacet
 facet normal -1.031821e-15 -1.164685e-15  1.000000e+00
   outer loop
     vertex  2.329439e+02 -1.565435e+02 -2.500000e+01
     vertex  2.354233e+02 -1.556897e+02 -2.500000e+01
     vertex  2.342504e+02 -1.546506e+02 -2.500000e+01
   endloop
 endfacet
 facet normal -1.031821e-15 -1.164685e-15  1.000000e+00
   outer loop
     vertex  2.329439e+02 -1.565435e+02 -2.500000e+01
     vertex  2.337017e+02 -1.572149e+02 -2.500000e+01
     vertex  2.354233e+02 -1.556897e+02 -2.500000e+01
   endloop
 endfacet
 facet normal -1.454888e-15 -5.517663e-16  1.000000e+00
   outer loop
     vertex  2.342769e+02 -1.580482e+02 -2.500000e+01
     vertex  2.368691e+02 -1.584444e+02 -2.500000e+01
     vertex  2.363135e+02 -1.569793e+02 -2.500000e+01
   endloop
 endfacet
 facet normal -1.280565e-15 -8.839105e-16  1.000000e+00
   outer loop
     vertex  2.342769e+02 -1.580482e+02 -2.500000e+01
     vertex  2.363135e+02 -1.569793e+02 -2.500000e+01
     vertex  2.337017e+02 -1.572149e+02 -2.500000e+01
   endloop
 endfacet
 facet normal -2.135477e-15  8.098796e-16  1.000000e+00
   outer loop
     vertex  2.320473e+02 -1.560729e+02 -2.500000e+01
     vertex  2.342504e+02 -1.546506e+02 -2.500000e+01
     vertex  2.328629e+02 -1.539224e+02 -2.500000e+01
   endloop
 endfacet
 facet normal -7.231107e-16 -1.377772e-15  1.000000e+00
   outer loop
     vertex  2.320473e+02 -1.560729e+02 -2.500000e+01
     vertex  2.329439e+02 -1.565435e+02 -2.500000e+01
     vertex  2.342504e+02 -1.546506e+02 -2.500000e+01
   endloop
 endfacet
 facet normal -1.454888e-15 -5.517663e-16  1.000000e+00
   outer loop
     vertex  2.346360e+02 -1.589949e+02 -2.500000e+01
     vertex  2.368691e+02 -1.584444e+02 -2.500000e+01
     vertex  2.342769e+02 -1.580482e+02 -2.500000e+01
   endloop
 endfacet
 facet normal  0.000000e+00  0.000000e+00  1.000000e+00
   outer loop
     vertex  2.310643e+02 -1.558306e+02 -2.500000e+01
     vertex  2.328629e+02 -1.539224e+02 -2.500000e+01
     vertex  2.313415e+02 -1.535474e+02 -2.500000e+01
   endloop
 endfacet
 facet normal -0.000000e+00  0.000000e+00  1.000000e+00
   outer loop
     vertex  2.310643e+02 -1.558306e+02 -2.500000e+01
     vertex  2.320473e+02 -1.560729e+02 -2.500000e+01
     vertex  2.328629e+02 -1.539224e+02 -2.500000e+01
   endloop
 endfacet
 facet normal -1.544658e-15 -1.875555e-16  1.000000e+00
   outer loop
     vertex  2.347580e+02 -1.600000e+02 -2.500000e+01
     vertex  2.370580e+02 -1.600000e+02 -2.500000e+01
     vertex  2.368691e+02 -1.584444e+02 -2.500000e+01
   endloop
 endfacet
 facet normal -1.544658e-15 -1.875555e-16  1.000000e+00
   outer loop
     vertex  2.347580e+02 -1.600000e+02 -2.500000e+01
     vertex  2.368691e+02 -1.584444e+02 -2.500000e+01
     vertex  2.346360e+02 -1.589949e+02 -2.500000e+01
   endloop
 endfacet
 facet normal  0.000000e+00 -1.556003e-15  1.000000e+00
   outer loop
     vertex  2.300517e+02 -1.558306e+02 -2.500000e+01
     vertex  2.313415e+02 -1.535474e+02 -2.500000e+01
     vertex  2.297745e+02 -1.535474e+02 -2.500000e+01
   endloop
 endfacet
 facet normal -3.508825e-15  4.260485e-16  1.000000e+00
   outer loop
     vertex  2.300517e+02 -1.558306e+02 -2.500000e+01
     vertex  2.310643e+02 -1.558306e+02 -2.500000e+01
     vertex  2.313415e+02 -1.535474e+02 -2.500000e+01
   endloop
 endfacet
 facet normal -5.465713e-16 -2.217527e-15  1.000000e+00
   outer loop
     vertex  2.346360e+02 -1.610051e+02 -2.500000e+01
     vertex  2.368691e+02 -1.615556e+02 -2.500000e+01
     vertex  2.370580e+02 -1.600000e+02 -2.500000e+01
   endloop
 endfacet
 facet normal -1.544658e-15  1.875555e-16  1.000000e+00
   outer loop
     vertex  2.346360e+02 -1.610051e+02 -2.500000e+01
     vertex  2.370580e+02 -1.600000e+02 -2.500000e+01
     vertex  2.347580e+02 -1.600000e+02 -2.500000e+01
   endloop
 endfacet
 facet normal -2.135477e-15 -8.098796e-16  1.000000e+00
   outer loop
     vertex  2.290687e+02 -1.560729e+02 -2.500000e+01
     vertex  2.297745e+02 -1.535474e+02 -2.500000e+01
     vertex  2.282531e+02 -1.539224e+02 -2.500000e+01
   endloop
 endfacet
 facet normal  3.723759e-16 -1.510789e-15  1.000000e+00
   outer loop
     vertex  2.290687e+02 -1.560729e+02 -2.500000e+01
     vertex  2.300517e+02 -1.558306e+02 -2.500000e+01
     vertex  2.297745e+02 -1.535474e+02 -2.500000e+01
   endloop
 endfacet
 facet normal -0.000000e+00  0.000000e+00  1.000000e+00
   outer loop
     vertex  2.342769e+02 -1.619518e+02 -2.500000e+01
     vertex  2.363135e+02 -1.630207e+02 -2.500000e+01
     vertex  2.368691e+02 -1.615556e+02 -2.500000e+01
   endloop
 endfacet
 facet normal  0.000000e+00  0.000000e+00  1.000000e+00
   outer loop
     vertex  2.342769e+02 -1.619518e+02 -2.500000e+01
     vertex  2.368691e+02 -1.615556e+02 -2.500000e+01
     vertex  2.346360e+02 -1.610051e+02 -2.500000e+01
   endloop
 endfacet
 facet normal -0.000000e+00  0.000000e+00  1.000000e+00
   outer loop
     vertex  2.268656e+02 -1.546506e+02 -2.500000e+01
     vertex  2.290687e+02 -1.560729e+02 -2.500000e+01
     vertex  2.282531e+02 -1.539224e+02 -2.500000e+01
   endloop
 endfacet
 facet normal  0.000000e+00 -0.000000e+00  1.000000e+00
   outer loop
     vertex  2.281721e+02 -1.565435e+02 -2.500000e+01
     vertex  2.290687e+02 -1.560729e+02 -2.500000e+01
     vertex  2.268656e+02 -1.546506e+02 -2.500000e+01
   endloop
 endfacet
 facet normal -1.280565e-15  8.839105e-16  1.000000e+00
   outer loop
     vertex  2.337017e+02 -1.627851e+02 -2.500000e+01
     vertex  2.354233e+02 -1.643103e+02 -2.500000e+01
     vertex  2.363135e+02 -1.630207e+02 -2.500000e+01
   endloop
 endfacet
 facet normal -1.642609e-15 -3.129729e-15  1.000000e+00
   outer loop
     vertex  2.337017e+02 -1.627851e+02 -2.500000e+01
     vertex  2.363135e+02 -1.630207e+02 -2.500000e+01
     vertex  2.342769e+02 -1.619518e+02 -2.500000e+01
   endloop
 endfacet
 facet normal -1.031821e-15  1.164685e-15  1.000000e+00
   outer loop
     vertex  2.256927e+02 -1.556897e+02 -2.500000e+01
     vertex  2.274143e+02 -1.572149e+02 -2.500000e+01
     vertex  2.281721e+02 -1.565435e+02 -2.500000e+01
   endloop
 endfacet
 facet normal -1.879607e-15 -1.297399e-15  1.000000e+00
   outer loop
     vertex  2.256927e+02 -1.556897e+02 -2.500000e+01
     vertex  2.281721e+02 -1.565435e+02 -2.500000e+01
     vertex  2.268656e+02 -1.546506e+02 -2.500000e+01
   endloop
 endfacet
 facet normal -1.031821e-15  1.164685e-15  1.000000e+00
   outer loop
     vertex  2.329439e+02 -1.634565e+02 -2.500000e+01
     vertex  2.354233e+02 -1.643103e+02 -2.500000e+01
     vertex  2.337017e+02 -1.627851e+02 -2.500000e+01
   endloop
 endfacet
 facet normal -1.879607e-15 -1.297399e-15  1.000000e+00
   outer loop
     vertex  2.342504e+02 -1.653494e+02 -2.500000e+01
     vertex  2.354233e+02 -1.643103e+02 -2.500000e+01
     vertex  2.329439e+02 -1.634565e+02 -2.500000e+01
   endloop
 endfacet
 facet normal -1.280565e-15  8.839105e-16  1.000000e+00
   outer loop
     vertex  2.248025e+02 -1.569793e+02 -2.500000e+01
     vertex  2.274143e+02 -1.572149e+02 -2.500000e+01
     vertex  2.256927e+02 -1.556897e+02 -2.500000e+01
   endloop
 endfacet
 facet normal -1.642609e-15 -3.129729e-15  1.000000e+00
   outer loop
     vertex  2.248025e+02 -1.569793e+02 -2.500000e+01
     vertex  2.268391e+02 -1.580482e+02 -2.500000e+01
     vertex  2.274143e+02 -1.572149e+02 -2.500000e+01
   endloop
 endfacet
 facet normal  0.000000e+00 -0.000000e+00  1.000000e+00
   outer loop
     vertex  2.328629e+02 -1.660776e+02 -2.500000e+01
     vertex  2.329439e+02 -1.634565e+02 -2.500000e+01
     vertex  2.320473e+02 -1.639271e+02 -2.500000e+01
   endloop
 endfacet
 facet normal  0.000000e+00  0.000000e+00  1.000000e+00
   outer loop
     vertex  2.328629e+02 -1.660776e+02 -2.500000e+01
     vertex  2.342504e+02 -1.653494e+02 -2.500000e+01
     vertex  2.329439e+02 -1.634565e+02 -2.500000e+01
   endloop
 endfacet
 facet normal  0.000000e+00  0.000000e+00  1.000000e+00
   outer loop
     vertex  2.242469e+02 -1.584444e+02 -2.500000e+01
     vertex  2.268391e+02 -1.580482e+02 -2.500000e+01
     vertex  2.248025e+02 -1.569793e+02 -2.500000e+01
   endloop
 endfacet
 facet normal -0.000000e+00  0.000000e+00  1.000000e+00
   outer loop
     vertex  2.242469e+02 -1.584444e+02 -2.500000e+01
     vertex  2.264800e+02 -1.589949e+02 -2.500000e+01
     vertex  2.268391e+02 -1.580482e+02 -2.500000e+01
   endloop
 endfacet
 facet normal -2.135477e-15 -8.098796e-16  1.000000e+00
   outer loop
     vertex  2.313415e+02 -1.664526e+02 -2.500000e+01
     vertex  2.328629e+02 -1.660776e+02 -2.500000e+01
     vertex  2.320473e+02 -1.639271e+02 -2.500000e+01
   endloop
 endfacet
 facet normal  3.723759e-16 -1.510789e-15  1.000000e+00
   outer loop
     vertex  2.313415e+02 -1.664526e+02 -2.500000e+01
     vertex  2.320473e+02 -1.639271e+02 -2.500000e+01
     vertex  2.310643e+02 -1.641694e+02 -2.500000e+01
   endloop
 endfacet
 facet normal -3.508825e-15 -1.982052e-15  1.000000e+00
   outer loop
     vertex  2.313415e+02 -1.664526e+02 -2.500000e+01
     vertex  2.310643e+02 -1.641694e+02 -2.500000e+01
     vertex  2.300517e+02 -1.641694e+02 -2.500000e+01
   endloop
 endfacet
 facet normal -1.544658e-15  1.875555e-16  1.000000e+00
   outer loop
     vertex  2.240580e+02 -1.600000e+02 -2.500000e+01
     vertex  2.263580e+02 -1.600000e+02 -2.500000e+01
     vertex  2.264800e+02 -1.589949e+02 -2.500000e+01
   endloop
 endfacet
 facet normal -5.465713e-16 -2.217527e-15  1.000000e+00
   outer loop
     vertex  2.240580e+02 -1.600000e+02 -2.500000e+01
     vertex  2.264800e+02 -1.589949e+02 -2.500000e+01
     vertex  2.242469e+02 -1.584444e+02 -2.500000e+01
   endloop
 endfacet
 facet normal  0.000000e+00  0.000000e+00  1.000000e+00
   outer loop
     vertex  2.297745e+02 -1.664526e+02 -2.500000e+01
     vertex  2.313415e+02 -1.664526e+02 -2.500000e+01
     vertex  2.300517e+02 -1.641694e+02 -2.500000e+01
   endloop
 endfacet
 facet normal -1.544658e-15 -1.875555e-16  1.000000e+00
   outer loop
     vertex  2.242469e+02 -1.615556e+02 -2.500000e+01
     vertex  2.263580e+02 -1.600000e+02 -2.500000e+01
     vertex  2.240580e+02 -1.600000e+02 -2.500000e+01
   endloop
 endfacet
 facet normal -1.454888e-15 -5.517663e-16  1.000000e+00
   outer loop
     vertex  2.242469e+02 -1.615556e+02 -2.500000e+01
     vertex  2.268391e+02 -1.619518e+02 -2.500000e+01
     vertex  2.264800e+02 -1.610051e+02 -2.500000e+01
   endloop
 endfacet
 facet normal -1.544658e-15 -1.875555e-16  1.000000e+00
   outer loop
     vertex  2.242469e+02 -1.615556e+02 -2.500000e+01
     vertex  2.264800e+02 -1.610051e+02 -2.500000e+01
     vertex  2.263580e+02 -1.600000e+02 -2.500000e+01
   endloop
 endfacet
 facet normal -0.000000e+00  0.000000e+00  1.000000e+00
   outer loop
     vertex  2.282531e+02 -1.660776e+02 -2.500000e+01
     vertex  2.297745e+02 -1.664526e+02 -2.500000e+01
     vertex  2.300517e+02 -1.641694e+02 -2.500000e+01
   endloop
 endfacet
 facet normal  0.000000e+00  0.000000e+00  1.000000e+00
   outer loop
     vertex  2.282531e+02 -1.660776e+02 -2.500000e+01
     vertex  2.300517e+02 -1.641694e+02 -2.500000e+01
     vertex  2.290687e+02 -1.639271e+02 -2.500000e+01
   endloop
 endfacet
 facet normal -1.454888e-15 -5.517663e-16  1.000000e+00
   outer loop
     vertex  2.248025e+02 -1.630207e+02 -2.500000e+01
     vertex  2.268391e+02 -1.619518e+02 -2.500000e+01
     vertex  2.242469e+02 -1.615556e+02 -2.500000e+01
   endloop
 endfacet
 facet normal -7.231107e-16 -1.377772e-15  1.000000e+00
   outer loop
     vertex  2.268656e+02 -1.653494e+02 -2.500000e+01
     vertex  2.290687e+02 -1.639271e+02 -2.500000e+01
     vertex  2.281721e+02 -1.634565e+02 -2.500000e+01
   endloop
 endfacet
 facet normal -2.135477e-15  8.098796e-16  1.000000e+00
   outer loop
     vertex  2.268656e+02 -1.653494e+02 -2.500000e+01
     vertex  2.282531e+02 -1.660776e+02 -2.500000e+01
     vertex  2.290687e+02 -1.639271e+02 -2.500000e+01
   endloop
 endfacet
 facet normal -1.031821e-15 -1.164685e-15  1.000000e+00
   outer loop
     vertex  2.256927e+02 -1.643103e+02 -2.500000e+01
     vertex  2.281721e+02 -1.634565e+02 -2.500000e+01
     vertex  2.274143e+02 -1.627851e+02 -2.500000e+01
   endloop
 endfacet
 facet normal -1.280565e-15 -8.839105e-16  1.000000e+00
   outer loop
     vertex  2.256927e+02 -1.643103e+02 -2.500000e+01
     vertex  2.274143e+02 -1.627851e+02 -2.500000e+01
     vertex  2.268391e+02 -1.619518e+02 -2.500000e+01
   endloop
 endfacet
 facet normal -1.031821e-15 -1.164685e-15  1.000000e+00
   outer loop
     vertex  2.256927e+02 -1.643103e+02 -2.500000e+01
     vertex  2.268656e+02 -1.653494e+02 -2.500000e+01
     vertex  2.281721e+02 -1.634565e+02 -2.500000e+01
   endloop
 endfacet
 facet normal -1.280565e-15 -8.839105e-16  1.000000e+00
   outer loop
     vertex  2.256927e+02 -1.643103e+02 -2.500000e+01
     vertex  2.268391e+02 -1.619518e+02 -2.500000e+01
     vertex  2.248025e+02 -1.630207e+02 -2.500000e+01
   endloop
 endfacet
 facet normal  1.280565e-15  8.839105e-16 -1.000000e+00
   outer loop
     vertex  2.337017e+02 -1.572149e+02 -2.580000e+01
     vertex  2.354233e+02 -1.556897e+02 -2.580000e+01
     vertex  2.363135e+02 -1.569793e+02 -2.580000e+01
   endloop
 endfacet
 facet normal  1.031821e-15  1.164685e-15 -1.000000e+00
   outer loop
     vertex  2.329439e+02 -1.565435e+02 -2.580000e+01
     vertex  2.342504e+02 -1.546506e+02 -2.580000e+01
     vertex  2.354233e+02 -1.556897e+02 -2.580000e+01
   endloop
 endfacet
 facet normal  1.031821e-15  1.164685e-15 -1.000000e+00
   outer loop
     vertex  2.329439e+02 -1.565435e+02 -2.580000e+01
     vertex  2.354233e+02 -1.556897e+02 -2.580000e+01
     vertex  2.337017e+02 -1.572149e+02 -2.580000e+01
   endloop
 endfacet
 facet normal  1.454888e-15  5.517663e-16 -1.000000e+00
   outer loop
     vertex  2.342769e+02 -1.580482e+02 -2.580000e+01
     vertex  2.363135e+02 -1.569793e+02 -2.580000e+01
     vertex  2.368691e+02 -1.584444e+02 -2.580000e+01
   endloop
 endfacet
 facet normal  1.280565e-15  8.839105e-16 -1.000000e+00
   outer loop
     vertex  2.342769e+02 -1.580482e+02 -2.580000e+01
     vertex  2.337017e+02 -1.572149e+02 -2.580000e+01
     vertex  2.363135e+02 -1.569793e+02 -2.580000e+01
   endloop
 endfacet
 facet normal  2.135477e-15 -8.098796e-16 -1.000000e+00
   outer loop
     vertex  2.320473e+02 -1.560729e+02 -2.580000e+01
     vertex  2.328629e+02 -1.539224e+02 -2.580000e+01
     vertex  2.342504e+02 -1.546506e+02 -2.580000e+01
   endloop
 endfacet
 facet normal  7.231107e-16  1.377772e-15 -1.000000e+00
   outer loop
     vertex  2.320473e+02 -1.560729e+02 -2.580000e+01
     vertex  2.342504e+02 -1.546506e+02 -2.580000e+01
     vertex  2.329439e+02 -1.565435e+02 -2.580000e+01
   endloop
 endfacet
 facet normal  1.544658e-15  1.875555e-16 -1.000000e+00
   outer loop
     vertex  2.346360e+02 -1.589949e+02 -2.580000e+01
     vertex  2.368691e+02 -1.584444e+02 -2.580000e+01
     vertex  2.370580e+02 -1.600000e+02 -2.580000e+01
   endloop
 endfacet
 facet normal  1.454888e-15  5.517663e-16 -1.000000e+00
   outer loop
     vertex  2.346360e+02 -1.589949e+02 -2.580000e+01
     vertex  2.342769e+02 -1.580482e+02 -2.580000e+01
     vertex  2.368691e+02 -1.584444e+02 -2.580000e+01
   endloop
 endfacet
 facet normal  0.000000e+00  0.000000e+00 -1.000000e+00
   outer loop
     vertex  2.310643e+02 -1.558306e+02 -2.580000e+01
     vertex  2.313415e+02 -1.535474e+02 -2.580000e+01
     vertex  2.328629e+02 -1.539224e+02 -2.580000e+01
   endloop
 endfacet
 facet normal  0.000000e+00  0.000000e+00 -1.000000e+00
   outer loop
     vertex  2.310643e+02 -1.558306e+02 -2.580000e+01
     vertex  2.328629e+02 -1.539224e+02 -2.580000e+01
     vertex  2.320473e+02 -1.560729e+02 -2.580000e+01
   endloop
 endfacet
 facet normal  1.544658e-15  2.096337e-15 -1.000000e+00
   outer loop
     vertex  2.347580e+02 -1.600000e+02 -2.580000e+01
     vertex  2.370580e+02 -1.600000e+02 -2.580000e+01
     vertex  2.368691e+02 -1.615556e+02 -2.580000e+01
   endloop
 endfacet
 facet normal  1.544658e-15  1.875555e-16 -1.000000e+00
   outer loop
     vertex  2.347580e+02 -1.600000e+02 -2.580000e+01
     vertex  2.346360e+02 -1.589949e+02 -2.580000e+01
     vertex  2.370580e+02 -1.600000e+02 -2.580000e+01
   endloop
 endfacet
 facet normal -5.644534e-29  1.556003e-15 -1.000000e+00
   outer loop
     vertex  2.300517e+02 -1.558306e+02 -2.580000e+01
     vertex  2.297745e+02 -1.535474e+02 -2.580000e+01
     vertex  2.313415e+02 -1.535474e+02 -2.580000e+01
   endloop
 endfacet
 facet normal  3.508825e-15 -4.260485e-16 -1.000000e+00
   outer loop
     vertex  2.300517e+02 -1.558306e+02 -2.580000e+01
     vertex  2.313415e+02 -1.535474e+02 -2.580000e+01
     vertex  2.310643e+02 -1.558306e+02 -2.580000e+01
   endloop
 endfacet
 facet normal  0.000000e+00  0.000000e+00 -1.000000e+00
   outer loop
     vertex  2.346360e+02 -1.610051e+02 -2.580000e+01
     vertex  2.347580e+02 -1.600000e+02 -2.580000e+01
     vertex  2.368691e+02 -1.615556e+02 -2.580000e+01
   endloop
 endfacet
 facet normal  0.000000e+00  0.000000e+00 -1.000000e+00
   outer loop
     vertex  2.363135e+02 -1.630207e+02 -2.580000e+01
     vertex  2.346360e+02 -1.610051e+02 -2.580000e+01
     vertex  2.368691e+02 -1.615556e+02 -2.580000e+01
   endloop
 endfacet
 facet normal  2.135477e-15  8.098796e-16 -1.000000e+00
   outer loop
     vertex  2.290687e+02 -1.560729e+02 -2.580000e+01
     vertex  2.282531e+02 -1.539224e+02 -2.580000e+01
     vertex  2.297745e+02 -1.535474e+02 -2.580000e+01
   endloop
 endfacet
 facet normal -3.723759e-16  1.510789e-15 -1.000000e+00
   outer loop
     vertex  2.290687e+02 -1.560729e+02 -2.580000e+01
     vertex  2.297745e+02 -1.535474e+02 -2.580000e+01
     vertex  2.300517e+02 -1.558306e+02 -2.580000e+01
   endloop
 endfacet
 facet normal  0.000000e+00  0.000000e+00 -1.000000e+00
   outer loop
     vertex  2.342769e+02 -1.619518e+02 -2.580000e+01
     vertex  2.346360e+02 -1.610051e+02 -2.580000e+01
     vertex  2.363135e+02 -1.630207e+02 -2.580000e+01
   endloop
 endfacet
 facet normal  0.000000e+00  0.000000e+00 -1.000000e+00
   outer loop
     vertex  2.281721e+02 -1.565435e+02 -2.580000e+01
     vertex  2.268656e+02 -1.546506e+02 -2.580000e+01
     vertex  2.282531e+02 -1.539224e+02 -2.580000e+01
   endloop
 endfacet
 facet normal  0.000000e+00  0.000000e+00 -1.000000e+00
   outer loop
     vertex  2.281721e+02 -1.565435e+02 -2.580000e+01
     vertex  2.282531e+02 -1.539224e+02 -2.580000e+01
     vertex  2.290687e+02 -1.560729e+02 -2.580000e+01
   endloop
 endfacet
 facet normal  0.000000e+00  0.000000e+00 -1.000000e+00
   outer loop
     vertex  2.354233e+02 -1.643103e+02 -2.580000e+01
     vertex  2.342769e+02 -1.619518e+02 -2.580000e+01
     vertex  2.363135e+02 -1.630207e+02 -2.580000e+01
   endloop
 endfacet
 facet normal  3.624436e-15  1.761773e-15 -1.000000e+00
   outer loop
     vertex  2.337017e+02 -1.627851e+02 -2.580000e+01
     vertex  2.342769e+02 -1.619518e+02 -2.580000e+01
     vertex  2.354233e+02 -1.643103e+02 -2.580000e+01
   endloop
 endfacet
 facet normal  0.000000e+00  0.000000e+00 -1.000000e+00
   outer loop
     vertex  2.274143e+02 -1.572149e+02 -2.580000e+01
     vertex  2.268656e+02 -1.546506e+02 -2.580000e+01
     vertex  2.281721e+02 -1.565435e+02 -2.580000e+01
   endloop
 endfacet
 facet normal  2.546322e-15  5.448333e-16 -1.000000e+00
   outer loop
     vertex  2.256927e+02 -1.556897e+02 -2.580000e+01
     vertex  2.268656e+02 -1.546506e+02 -2.580000e+01
     vertex  2.274143e+02 -1.572149e+02 -2.580000e+01
   endloop
 endfacet
 facet normal  2.546322e-15  5.448333e-16 -1.000000e+00
   outer loop
     vertex  2.342504e+02 -1.653494e+02 -2.580000e+01
     vertex  2.337017e+02 -1.627851e+02 -2.580000e+01
     vertex  2.354233e+02 -1.643103e+02 -2.580000e+01
   endloop
 endfacet
 facet normal  0.000000e+00  0.000000e+00 -1.000000e+00
   outer loop
     vertex  2.342504e+02 -1.653494e+02 -2.580000e+01
     vertex  2.329439e+02 -1.634565e+02 -2.580000e+01
     vertex  2.337017e+02 -1.627851e+02 -2.580000e+01
   endloop
 endfacet
 facet normal  3.624436e-15  1.761773e-15 -1.000000e+00
   outer loop
     vertex  2.268391e+02 -1.580482e+02 -2.580000e+01
     vertex  2.256927e+02 -1.556897e+02 -2.580000e+01
     vertex  2.274143e+02 -1.572149e+02 -2.580000e+01
   endloop
 endfacet
 facet normal  0.000000e+00  0.000000e+00 -1.000000e+00
   outer loop
     vertex  2.248025e+02 -1.569793e+02 -2.580000e+01
     vertex  2.256927e+02 -1.556897e+02 -2.580000e+01
     vertex  2.268391e+02 -1.580482e+02 -2.580000e+01
   endloop
 endfacet
 facet normal  0.000000e+00  0.000000e+00 -1.000000e+00
   outer loop
     vertex  2.264800e+02 -1.589949e+02 -2.580000e+01
     vertex  2.248025e+02 -1.569793e+02 -2.580000e+01
     vertex  2.268391e+02 -1.580482e+02 -2.580000e+01
   endloop
 endfacet
 facet normal  0.000000e+00  0.000000e+00 -1.000000e+00
   outer loop
     vertex  2.328629e+02 -1.660776e+02 -2.580000e+01
     vertex  2.329439e+02 -1.634565e+02 -2.580000e+01
     vertex  2.342504e+02 -1.653494e+02 -2.580000e+01
   endloop
 endfacet
 facet normal  0.000000e+00  0.000000e+00 -1.000000e+00
   outer loop
     vertex  2.328629e+02 -1.660776e+02 -2.580000e+01
     vertex  2.320473e+02 -1.639271e+02 -2.580000e+01
     vertex  2.329439e+02 -1.634565e+02 -2.580000e+01
   endloop
 endfacet
 facet normal  0.000000e+00  0.000000e+00 -1.000000e+00
   outer loop
     vertex  2.242469e+02 -1.584444e+02 -2.580000e+01
     vertex  2.248025e+02 -1.569793e+02 -2.580000e+01
     vertex  2.264800e+02 -1.589949e+02 -2.580000e+01
   endloop
 endfacet
 facet normal  2.135477e-15  8.098796e-16 -1.000000e+00
   outer loop
     vertex  2.313415e+02 -1.664526e+02 -2.580000e+01
     vertex  2.320473e+02 -1.639271e+02 -2.580000e+01
     vertex  2.328629e+02 -1.660776e+02 -2.580000e+01
   endloop
 endfacet
 facet normal -3.723759e-16  1.510789e-15 -1.000000e+00
   outer loop
     vertex  2.313415e+02 -1.664526e+02 -2.580000e+01
     vertex  2.310643e+02 -1.641694e+02 -2.580000e+01
     vertex  2.320473e+02 -1.639271e+02 -2.580000e+01
   endloop
 endfacet
 facet normal  1.544658e-15  1.875555e-16 -1.000000e+00
   outer loop
     vertex  2.240580e+02 -1.600000e+02 -2.580000e+01
     vertex  2.263580e+02 -1.600000e+02 -2.580000e+01
     vertex  2.264800e+02 -1.610051e+02 -2.580000e+01
   endloop
 endfacet
 facet normal  1.544658e-15 -1.875555e-16 -1.000000e+00
   outer loop
     vertex  2.240580e+02 -1.600000e+02 -2.580000e+01
     vertex  2.264800e+02 -1.589949e+02 -2.580000e+01
     vertex  2.263580e+02 -1.600000e+02 -2.580000e+01
   endloop
 endfacet
 facet normal  5.465713e-16  2.217527e-15 -1.000000e+00
   outer loop
     vertex  2.240580e+02 -1.600000e+02 -2.580000e+01
     vertex  2.242469e+02 -1.584444e+02 -2.580000e+01
     vertex  2.264800e+02 -1.589949e+02 -2.580000e+01
   endloop
 endfacet
 facet normal  3.508825e-15 -4.260485e-16 -1.000000e+00
   outer loop
     vertex  2.297745e+02 -1.664526e+02 -2.580000e+01
     vertex  2.300517e+02 -1.641694e+02 -2.580000e+01
     vertex  2.310643e+02 -1.641694e+02 -2.580000e+01
   endloop
 endfacet
 facet normal  0.000000e+00  1.556003e-15 -1.000000e+00
   outer loop
     vertex  2.297745e+02 -1.664526e+02 -2.580000e+01
     vertex  2.310643e+02 -1.641694e+02 -2.580000e+01
     vertex  2.313415e+02 -1.664526e+02 -2.580000e+01
   endloop
 endfacet
 facet normal  1.544658e-15  1.875555e-16 -1.000000e+00
   outer loop
     vertex  2.242469e+02 -1.615556e+02 -2.580000e+01
     vertex  2.240580e+02 -1.600000e+02 -2.580000e+01
     vertex  2.264800e+02 -1.610051e+02 -2.580000e+01
   endloop
 endfacet
 facet normal  0.000000e+00  0.000000e+00 -1.000000e+00
   outer loop
     vertex  2.282531e+02 -1.660776e+02 -2.580000e+01
     vertex  2.300517e+02 -1.641694e+02 -2.580000e+01
     vertex  2.297745e+02 -1.664526e+02 -2.580000e+01
   endloop
 endfacet
 facet normal  0.000000e+00  0.000000e+00 -1.000000e+00
   outer loop
     vertex  2.282531e+02 -1.660776e+02 -2.580000e+01
     vertex  2.290687e+02 -1.639271e+02 -2.580000e+01
     vertex  2.300517e+02 -1.641694e+02 -2.580000e+01
   endloop
 endfacet
 facet normal  1.454888e-15  5.517663e-16 -1.000000e+00
   outer loop
     vertex  2.248025e+02 -1.630207e+02 -2.580000e+01
     vertex  2.264800e+02 -1.610051e+02 -2.580000e+01
     vertex  2.268391e+02 -1.619518e+02 -2.580000e+01
   endloop
 endfacet
 facet normal  1.280565e-15  8.839105e-16 -1.000000e+00
   outer loop
     vertex  2.248025e+02 -1.630207e+02 -2.580000e+01
     vertex  2.268391e+02 -1.619518e+02 -2.580000e+01
     vertex  2.274143e+02 -1.627851e+02 -2.580000e+01
   endloop
 endfacet
 facet normal  1.454888e-15  5.517663e-16 -1.000000e+00
   outer loop
     vertex  2.248025e+02 -1.630207e+02 -2.580000e+01
     vertex  2.242469e+02 -1.615556e+02 -2.580000e+01
     vertex  2.264800e+02 -1.610051e+02 -2.580000e+01
   endloop
 endfacet
 facet normal  7.231107e-16  1.377772e-15 -1.000000e+00
   outer loop
     vertex  2.268656e+02 -1.653494e+02 -2.580000e+01
     vertex  2.281721e+02 -1.634565e+02 -2.580000e+01
     vertex  2.290687e+02 -1.639271e+02 -2.580000e+01
   endloop
 endfacet
 facet normal  2.135477e-15 -8.098796e-16 -1.000000e+00
   outer loop
     vertex  2.268656e+02 -1.653494e+02 -2.580000e+01
     vertex  2.290687e+02 -1.639271e+02 -2.580000e+01
     vertex  2.282531e+02 -1.660776e+02 -2.580000e+01
   endloop
 endfacet
 facet normal  1.031821e-15  1.164685e-15 -1.000000e+00
   outer loop
     vertex  2.256927e+02 -1.643103e+02 -2.580000e+01
     vertex  2.281721e+02 -1.634565e+02 -2.580000e+01
     vertex  2.268656e+02 -1.653494e+02 -2.580000e+01
   endloop
 endfacet
 facet normal  1.031821e-15  1.164685e-15 -1.000000e+00
   outer loop
     vertex  2.256927e+02 -1.643103e+02 -2.580000e+01
     vertex  2.274143e+02 -1.627851e+02 -2.580000e+01
     vertex  2.281721e+02 -1.634565e+02 -2.580000e+01
   endloop
 endfacet
 facet normal  1.280565e-15  8.839105e-16 -1.000000e+00
   outer loop
     vertex  2.256927e+02 -1.643103e+02 -2.580000e+01
     vertex  2.248025e+02 -1.630207e+02 -2.580000e+01
     vertex  2.274143e+02 -1.627851e+02 -2.580000e+01
   endloop
 endfacet
endsolid
