solid 
 facet normal -9.088027e-01 -3.228716e-13  4.172261e-01
   outer loop
     vertex  2.835780e+02  5.042000e+02 -2.630410e+02
     vertex  2.840004e+02  5.050000e+02 -2.621208e+02
     vertex  2.835780e+02  5.050000e+02 -2.630410e+02
   endloop
 endfacet
 facet normal -9.822433e-01 -3.489629e-13  1.876116e-01
   outer loop
     vertex  2.840004e+02  5.042000e+02 -2.621208e+02
     vertex  2.841904e+02  5.050000e+02 -2.611263e+02
     vertex  2.840004e+02  5.050000e+02 -2.621208e+02
   endloop
 endfacet
 facet normal -9.088027e-01 -3.228716e-13  4.172261e-01
   outer loop
     vertex  2.840004e+02  5.042000e+02 -2.621208e+02
     vertex  2.840004e+02  5.050000e+02 -2.621208e+02
     vertex  2.835780e+02  5.042000e+02 -2.630410e+02
   endloop
 endfacet
 facet normal -9.985995e-01 -3.547738e-13 -5.290629e-02
   outer loop
     vertex  2.841904e+02  5.042000e+02 -2.611263e+02
     vertex  2.841368e+02  5.050000e+02 -2.601152e+02
     vertex  2.841904e+02  5.050000e+02 -2.611263e+02
   endloop
 endfacet
 facet normal -9.822433e-01 -3.489629e-13  1.876116e-01
   outer loop
     vertex  2.841904e+02  5.042000e+02 -2.611263e+02
     vertex  2.841904e+02  5.050000e+02 -2.611263e+02
     vertex  2.840004e+02  5.042000e+02 -2.621208e+02
   endloop
 endfacet
 facet normal -9.569207e-01 -3.399665e-13 -2.903494e-01
   outer loop
     vertex  2.841368e+02  5.042000e+02 -2.601152e+02
     vertex  2.838428e+02  5.050000e+02 -2.591463e+02
     vertex  2.841368e+02  5.050000e+02 -2.601152e+02
   endloop
 endfacet
 facet normal -9.985995e-01 -3.547738e-13 -5.290629e-02
   outer loop
     vertex  2.841368e+02  5.042000e+02 -2.601152e+02
     vertex  2.841368e+02  5.050000e+02 -2.601152e+02
     vertex  2.841904e+02  5.042000e+02 -2.611263e+02
   endloop
 endfacet
 facet normal -8.596291e-01 -3.054016e-13 -5.109185e-01
   outer loop
     vertex  2.838428e+02  5.042000e+02 -2.591463e+02
     vertex  2.833255e+02  5.050000e+02 -2.582759e+02
     vertex  2.838428e+02  5.050000e+02 -2.591463e+02
   endloop
 endfacet
 facet normal -9.569207e-01 -3.399665e-13 -2.903494e-01
   outer loop
     vertex  2.838428e+02  5.042000e+02 -2.591463e+02
     vertex  2.838428e+02  5.050000e+02 -2.591463e+02
     vertex  2.841368e+02  5.042000e+02 -2.601152e+02
   endloop
 endfacet
 facet normal -7.123791e-01 -1.518527e-13 -7.017949e-01
   outer loop
     vertex  2.833255e+02  5.042000e+02 -2.582759e+02
     vertex  2.826150e+02  5.050000e+02 -2.575546e+02
     vertex  2.833255e+02  5.050000e+02 -2.582759e+02
   endloop
 endfacet
 facet normal -8.596291e-01 -1.832410e-13 -5.109185e-01
   outer loop
     vertex  2.833255e+02  5.042000e+02 -2.582759e+02
     vertex  2.833255e+02  5.050000e+02 -2.582759e+02
     vertex  2.838428e+02  5.042000e+02 -2.591463e+02
   endloop
 endfacet
 facet normal -5.237281e-01 -1.860656e-13 -8.518855e-01
   outer loop
     vertex  2.826150e+02  5.042000e+02 -2.575546e+02
     vertex  2.817524e+02  5.050000e+02 -2.570243e+02
     vertex  2.826150e+02  5.050000e+02 -2.575546e+02
   endloop
 endfacet
 facet normal -7.123791e-01 -2.530879e-13 -7.017949e-01
   outer loop
     vertex  2.826150e+02  5.042000e+02 -2.575546e+02
     vertex  2.826150e+02  5.050000e+02 -2.575546e+02
     vertex  2.833255e+02  5.042000e+02 -2.582759e+02
   endloop
 endfacet
 facet normal -3.046400e-01 -1.082299e-13 -9.524676e-01
   outer loop
     vertex  2.817524e+02  5.042000e+02 -2.570243e+02
     vertex  2.807880e+02  5.050000e+02 -2.567159e+02
     vertex  2.817524e+02  5.050000e+02 -2.570243e+02
   endloop
 endfacet
 facet normal -5.237281e-01 -1.860656e-13 -8.518855e-01
   outer loop
     vertex  2.817524e+02  5.042000e+02 -2.570243e+02
     vertex  2.817524e+02  5.050000e+02 -2.570243e+02
     vertex  2.826150e+02  5.042000e+02 -2.575546e+02
   endloop
 endfacet
 facet normal -6.784732e-02 -7.571139e-14 -9.976957e-01
   outer loop
     vertex  2.807880e+02  5.042000e+02 -2.567159e+02
     vertex  2.797779e+02  5.050000e+02 -2.566472e+02
     vertex  2.807880e+02  5.050000e+02 -2.567159e+02
   endloop
 endfacet
 facet normal -3.046400e-01 -8.932287e-14 -9.524676e-01
   outer loop
     vertex  2.807880e+02  5.042000e+02 -2.567159e+02
     vertex  2.807880e+02  5.050000e+02 -2.567159e+02
     vertex  2.817524e+02  5.042000e+02 -2.570243e+02
   endloop
 endfacet
 facet normal  1.728884e-01  6.142230e-14 -9.849414e-01
   outer loop
     vertex  2.797779e+02  5.042000e+02 -2.566472e+02
     vertex  2.787806e+02  5.050000e+02 -2.568222e+02
     vertex  2.797779e+02  5.050000e+02 -2.566472e+02
   endloop
 endfacet
 facet normal -6.784732e-02 -2.410421e-14 -9.976957e-01
   outer loop
     vertex  2.797779e+02  5.042000e+02 -2.566472e+02
     vertex  2.797779e+02  5.050000e+02 -2.566472e+02
     vertex  2.807880e+02  5.042000e+02 -2.567159e+02
   endloop
 endfacet
 facet normal  4.035765e-01  2.083900e-13 -9.149459e-01
   outer loop
     vertex  2.787806e+02  5.042000e+02 -2.568222e+02
     vertex  2.778542e+02  5.050000e+02 -2.572309e+02
     vertex  2.787806e+02  5.050000e+02 -2.568222e+02
   endloop
 endfacet
 facet normal  1.728884e-01  1.314066e-13 -9.849414e-01
   outer loop
     vertex  2.787806e+02  5.042000e+02 -2.568222e+02
     vertex  2.787806e+02  5.050000e+02 -2.568222e+02
     vertex  2.797779e+02  5.042000e+02 -2.566472e+02
   endloop
 endfacet
 facet normal  4.035765e-01  1.433792e-13 -9.149459e-01
   outer loop
     vertex  2.778542e+02  5.042000e+02 -2.572309e+02
     vertex  2.778542e+02  5.050000e+02 -2.572309e+02
     vertex  2.787806e+02  5.042000e+02 -2.568222e+02
   endloop
 endfacet
 facet normal  6.108102e-01  2.170034e-13 -7.917771e-01
   outer loop
     vertex  2.778542e+02  5.042000e+02 -2.572309e+02
     vertex  2.770525e+02  5.050000e+02 -2.578493e+02
     vertex  2.778542e+02  5.050000e+02 -2.572309e+02
   endloop
 endfacet
 facet normal  6.108102e-01  1.302020e-13 -7.917771e-01
   outer loop
     vertex  2.770525e+02  5.042000e+02 -2.578493e+02
     vertex  2.770525e+02  5.050000e+02 -2.578493e+02
     vertex  2.778542e+02  5.042000e+02 -2.572309e+02
   endloop
 endfacet
 facet normal  7.825458e-01  1.668097e-13 -6.225930e-01
   outer loop
     vertex  2.770525e+02  5.042000e+02 -2.578493e+02
     vertex  2.764221e+02  5.050000e+02 -2.586416e+02
     vertex  2.770525e+02  5.050000e+02 -2.578493e+02
   endloop
 endfacet
 facet normal  7.825458e-01  3.336193e-13 -6.225930e-01
   outer loop
     vertex  2.764221e+02  5.042000e+02 -2.586416e+02
     vertex  2.764221e+02  5.050000e+02 -2.586416e+02
     vertex  2.770525e+02  5.042000e+02 -2.578493e+02
   endloop
 endfacet
 facet normal  9.088027e-01  3.874459e-13 -4.172261e-01
   outer loop
     vertex  2.764221e+02  5.042000e+02 -2.586416e+02
     vertex  2.759997e+02  5.050000e+02 -2.595618e+02
     vertex  2.764221e+02  5.050000e+02 -2.586416e+02
   endloop
 endfacet
 facet normal  9.088027e-01  4.467373e-13 -4.172261e-01
   outer loop
     vertex  2.759997e+02  5.042000e+02 -2.595618e+02
     vertex  2.759997e+02  5.050000e+02 -2.595618e+02
     vertex  2.764221e+02  5.042000e+02 -2.586416e+02
   endloop
 endfacet
 facet normal  9.822433e-01  4.454298e-13 -1.876116e-01
   outer loop
     vertex  2.758097e+02  5.042000e+02 -2.605563e+02
     vertex  2.759997e+02  5.050000e+02 -2.595618e+02
     vertex  2.759997e+02  5.042000e+02 -2.595618e+02
   endloop
 endfacet
 facet normal  9.822433e-01  5.018787e-13 -1.876116e-01
   outer loop
     vertex  2.758097e+02  5.042000e+02 -2.605563e+02
     vertex  2.758097e+02  5.050000e+02 -2.605563e+02
     vertex  2.759997e+02  5.050000e+02 -2.595618e+02
   endloop
 endfacet
 facet normal  9.985995e-01  4.929241e-13  5.290629e-02
   outer loop
     vertex  2.758097e+02  5.042000e+02 -2.605563e+02
     vertex  2.758633e+02  5.050000e+02 -2.615674e+02
     vertex  2.758097e+02  5.050000e+02 -2.605563e+02
   endloop
 endfacet
 facet normal  9.985995e-01  3.547738e-13  5.290629e-02
   outer loop
     vertex  2.758633e+02  5.042000e+02 -2.615674e+02
     vertex  2.758633e+02  5.050000e+02 -2.615674e+02
     vertex  2.758097e+02  5.042000e+02 -2.605563e+02
   endloop
 endfacet
 facet normal  9.569207e-01  3.399665e-13  2.903494e-01
   outer loop
     vertex  2.758633e+02  5.042000e+02 -2.615674e+02
     vertex  2.761573e+02  5.050000e+02 -2.625363e+02
     vertex  2.758633e+02  5.050000e+02 -2.615674e+02
   endloop
 endfacet
 facet normal  9.569207e-01  3.399665e-13  2.903494e-01
   outer loop
     vertex  2.761573e+02  5.042000e+02 -2.625363e+02
     vertex  2.761573e+02  5.050000e+02 -2.625363e+02
     vertex  2.758633e+02  5.042000e+02 -2.615674e+02
   endloop
 endfacet
 facet normal  8.596291e-01  3.054016e-13  5.109185e-01
   outer loop
     vertex  2.761573e+02  5.042000e+02 -2.625363e+02
     vertex  2.766746e+02  5.050000e+02 -2.634067e+02
     vertex  2.761573e+02  5.050000e+02 -2.625363e+02
   endloop
 endfacet
 facet normal  8.596291e-01  3.054016e-13  5.109185e-01
   outer loop
     vertex  2.766746e+02  5.042000e+02 -2.634067e+02
     vertex  2.766746e+02  5.050000e+02 -2.634067e+02
     vertex  2.761573e+02  5.042000e+02 -2.625363e+02
   endloop
 endfacet
 facet normal  7.123791e-01  2.530879e-13  7.017949e-01
   outer loop
     vertex  2.766746e+02  5.042000e+02 -2.634067e+02
     vertex  2.773852e+02  5.050000e+02 -2.641280e+02
     vertex  2.766746e+02  5.050000e+02 -2.634067e+02
   endloop
 endfacet
 facet normal  7.123791e-01  2.530879e-13  7.017949e-01
   outer loop
     vertex  2.773852e+02  5.042000e+02 -2.641280e+02
     vertex  2.773852e+02  5.050000e+02 -2.641280e+02
     vertex  2.766746e+02  5.042000e+02 -2.634067e+02
   endloop
 endfacet
 facet normal  5.237281e-01  1.860656e-13  8.518855e-01
   outer loop
     vertex  2.773852e+02  5.042000e+02 -2.641280e+02
     vertex  2.782477e+02  5.050000e+02 -2.646583e+02
     vertex  2.773852e+02  5.050000e+02 -2.641280e+02
   endloop
 endfacet
 facet normal  5.237281e-01  1.860656e-13  8.518855e-01
   outer loop
     vertex  2.782477e+02  5.042000e+02 -2.646583e+02
     vertex  2.782477e+02  5.050000e+02 -2.646583e+02
     vertex  2.773852e+02  5.042000e+02 -2.641280e+02
   endloop
 endfacet
 facet normal  3.046400e-01  1.082299e-13  9.524676e-01
   outer loop
     vertex  2.782477e+02  5.042000e+02 -2.646583e+02
     vertex  2.792121e+02  5.050000e+02 -2.649667e+02
     vertex  2.782477e+02  5.050000e+02 -2.646583e+02
   endloop
 endfacet
 facet normal  3.046400e-01  1.082299e-13  9.524676e-01
   outer loop
     vertex  2.792121e+02  5.042000e+02 -2.649667e+02
     vertex  2.792121e+02  5.050000e+02 -2.649667e+02
     vertex  2.782477e+02  5.042000e+02 -2.646583e+02
   endloop
 endfacet
 facet normal  6.784732e-02  2.411218e-14  9.976957e-01
   outer loop
     vertex  2.802223e+02  5.042000e+02 -2.650354e+02
     vertex  2.792121e+02  5.050000e+02 -2.649667e+02
     vertex  2.792121e+02  5.042000e+02 -2.649667e+02
   endloop
 endfacet
 facet normal  6.784732e-02  2.410421e-14  9.976957e-01
   outer loop
     vertex  2.802223e+02  5.042000e+02 -2.650354e+02
     vertex  2.802223e+02  5.050000e+02 -2.650354e+02
     vertex  2.792121e+02  5.050000e+02 -2.649667e+02
   endloop
 endfacet
 facet normal -1.728884e-01 -6.142230e-14  9.849414e-01
   outer loop
     vertex  2.802223e+02  5.042000e+02 -2.650354e+02
     vertex  2.812195e+02  5.050000e+02 -2.648604e+02
     vertex  2.802223e+02  5.050000e+02 -2.650354e+02
   endloop
 endfacet
 facet normal -1.728884e-01 -9.827568e-14  9.849414e-01
   outer loop
     vertex  2.812195e+02  5.042000e+02 -2.648604e+02
     vertex  2.812195e+02  5.050000e+02 -2.648604e+02
     vertex  2.802223e+02  5.042000e+02 -2.650354e+02
   endloop
 endfacet
 facet normal -4.035765e-01 -2.294067e-13  9.149459e-01
   outer loop
     vertex  2.812195e+02  5.042000e+02 -2.648604e+02
     vertex  2.821459e+02  5.050000e+02 -2.644517e+02
     vertex  2.812195e+02  5.050000e+02 -2.648604e+02
   endloop
 endfacet
 facet normal -4.035765e-01 -1.070442e-13  9.149459e-01
   outer loop
     vertex  2.821459e+02  5.042000e+02 -2.644517e+02
     vertex  2.821459e+02  5.050000e+02 -2.644517e+02
     vertex  2.812195e+02  5.042000e+02 -2.648604e+02
   endloop
 endfacet
 facet normal -6.108102e-01 -2.170034e-13  7.917771e-01
   outer loop
     vertex  2.829476e+02  5.042000e+02 -2.638333e+02
     vertex  2.829476e+02  5.050000e+02 -2.638333e+02
     vertex  2.821459e+02  5.050000e+02 -2.644517e+02
   endloop
 endfacet
 facet normal -7.825458e-01 -2.780161e-13  6.225930e-01
   outer loop
     vertex  2.829476e+02  5.042000e+02 -2.638333e+02
     vertex  2.835780e+02  5.050000e+02 -2.630410e+02
     vertex  2.829476e+02  5.050000e+02 -2.638333e+02
   endloop
 endfacet
 facet normal -6.108102e-01 -2.041348e-13  7.917771e-01
   outer loop
     vertex  2.829476e+02  5.042000e+02 -2.638333e+02
     vertex  2.821459e+02  5.050000e+02 -2.644517e+02
     vertex  2.821459e+02  5.042000e+02 -2.644517e+02
   endloop
 endfacet
 facet normal -7.825458e-01 -2.780161e-13  6.225930e-01
   outer loop
     vertex  2.835780e+02  5.042000e+02 -2.630410e+02
     vertex  2.835780e+02  5.050000e+02 -2.630410e+02
     vertex  2.829476e+02  5.042000e+02 -2.638333e+02
   endloop
 endfacet
 facet normal  9.088027e-01  3.228881e-13 -4.172261e-01
   outer loop
     vertex  2.861911e+02  5.042000e+02 -2.628215e+02
     vertex  2.855373e+02  5.042000e+02 -2.642455e+02
     vertex  2.855373e+02  5.050000e+02 -2.642455e+02
   endloop
 endfacet
 facet normal  9.088027e-01  3.874459e-13 -4.172261e-01
   outer loop
     vertex  2.861911e+02  5.042000e+02 -2.628215e+02
     vertex  2.855373e+02  5.050000e+02 -2.642455e+02
     vertex  2.861911e+02  5.050000e+02 -2.628215e+02
   endloop
 endfacet
 facet normal  9.822433e-01  3.489629e-13 -1.876116e-01
   outer loop
     vertex  2.864851e+02  5.042000e+02 -2.612823e+02
     vertex  2.861911e+02  5.050000e+02 -2.628215e+02
     vertex  2.864851e+02  5.050000e+02 -2.612823e+02
   endloop
 endfacet
 facet normal  9.822433e-01  4.187513e-13 -1.876116e-01
   outer loop
     vertex  2.864851e+02  5.042000e+02 -2.612823e+02
     vertex  2.861911e+02  5.042000e+02 -2.628215e+02
     vertex  2.861911e+02  5.050000e+02 -2.628215e+02
   endloop
 endfacet
 facet normal  9.985995e-01  4.257286e-13  5.290629e-02
   outer loop
     vertex  2.864022e+02  5.042000e+02 -2.597175e+02
     vertex  2.864851e+02  5.050000e+02 -2.612823e+02
     vertex  2.864022e+02  5.050000e+02 -2.597175e+02
   endloop
 endfacet
 facet normal  9.985995e-01  3.547765e-13  5.290629e-02
   outer loop
     vertex  2.864022e+02  5.042000e+02 -2.597175e+02
     vertex  2.864851e+02  5.042000e+02 -2.612823e+02
     vertex  2.864851e+02  5.050000e+02 -2.612823e+02
   endloop
 endfacet
 facet normal  9.569207e-01  3.399665e-13  2.903494e-01
   outer loop
     vertex  2.859472e+02  5.042000e+02 -2.582181e+02
     vertex  2.864022e+02  5.050000e+02 -2.597175e+02
     vertex  2.859472e+02  5.050000e+02 -2.582181e+02
   endloop
 endfacet
 facet normal  9.569207e-01  4.079751e-13  2.903494e-01
   outer loop
     vertex  2.859472e+02  5.042000e+02 -2.582181e+02
     vertex  2.864022e+02  5.042000e+02 -2.597175e+02
     vertex  2.864022e+02  5.050000e+02 -2.597175e+02
   endloop
 endfacet
 facet normal  8.596291e-01  3.054016e-13  5.109185e-01
   outer loop
     vertex  2.851466e+02  5.042000e+02 -2.568710e+02
     vertex  2.859472e+02  5.050000e+02 -2.582181e+02
     vertex  2.851466e+02  5.050000e+02 -2.568710e+02
   endloop
 endfacet
 facet normal  8.596291e-01  3.053688e-13  5.109185e-01
   outer loop
     vertex  2.851466e+02  5.042000e+02 -2.568710e+02
     vertex  2.859472e+02  5.042000e+02 -2.582181e+02
     vertex  2.859472e+02  5.050000e+02 -2.582181e+02
   endloop
 endfacet
 facet normal  7.123791e-01  2.530879e-13  7.017949e-01
   outer loop
     vertex  2.840469e+02  5.042000e+02 -2.557548e+02
     vertex  2.851466e+02  5.050000e+02 -2.568710e+02
     vertex  2.840469e+02  5.050000e+02 -2.557548e+02
   endloop
 endfacet
 facet normal  7.123791e-01  2.530098e-13  7.017949e-01
   outer loop
     vertex  2.840469e+02  5.042000e+02 -2.557548e+02
     vertex  2.851466e+02  5.042000e+02 -2.568710e+02
     vertex  2.851466e+02  5.050000e+02 -2.568710e+02
   endloop
 endfacet
 facet normal  5.237281e-01  1.860656e-13  8.518855e-01
   outer loop
     vertex  2.827120e+02  5.042000e+02 -2.549341e+02
     vertex  2.840469e+02  5.050000e+02 -2.557548e+02
     vertex  2.827120e+02  5.050000e+02 -2.549341e+02
   endloop
 endfacet
 facet normal  5.237281e-01  1.860671e-13  8.518855e-01
   outer loop
     vertex  2.827120e+02  5.042000e+02 -2.549341e+02
     vertex  2.840469e+02  5.042000e+02 -2.557548e+02
     vertex  2.840469e+02  5.050000e+02 -2.557548e+02
   endloop
 endfacet
 facet normal  3.046400e-01  1.082299e-13  9.524676e-01
   outer loop
     vertex  2.812195e+02  5.042000e+02 -2.544567e+02
     vertex  2.827120e+02  5.050000e+02 -2.549341e+02
     vertex  2.812195e+02  5.050000e+02 -2.544567e+02
   endloop
 endfacet
 facet normal  3.046400e-01  1.082126e-13  9.524676e-01
   outer loop
     vertex  2.812195e+02  5.042000e+02 -2.544567e+02
     vertex  2.827120e+02  5.042000e+02 -2.549341e+02
     vertex  2.827120e+02  5.050000e+02 -2.549341e+02
   endloop
 endfacet
 facet normal  6.784732e-02  2.410421e-14  9.976957e-01
   outer loop
     vertex  2.796562e+02  5.042000e+02 -2.543504e+02
     vertex  2.812195e+02  5.050000e+02 -2.544567e+02
     vertex  2.796562e+02  5.050000e+02 -2.543504e+02
   endloop
 endfacet
 facet normal  6.784732e-02  2.411328e-14  9.976957e-01
   outer loop
     vertex  2.796562e+02  5.042000e+02 -2.543504e+02
     vertex  2.812195e+02  5.042000e+02 -2.544567e+02
     vertex  2.812195e+02  5.050000e+02 -2.544567e+02
   endloop
 endfacet
 facet normal -1.728884e-01 -7.370676e-14  9.849414e-01
   outer loop
     vertex  2.781128e+02  5.042000e+02 -2.546213e+02
     vertex  2.796562e+02  5.050000e+02 -2.543504e+02
     vertex  2.781128e+02  5.050000e+02 -2.546213e+02
   endloop
 endfacet
 facet normal -1.728884e-01 -6.140570e-14  9.849414e-01
   outer loop
     vertex  2.781128e+02  5.042000e+02 -2.546213e+02
     vertex  2.796562e+02  5.042000e+02 -2.543504e+02
     vertex  2.796562e+02  5.050000e+02 -2.543504e+02
   endloop
 endfacet
 facet normal -4.035765e-01 -1.720842e-13  9.149459e-01
   outer loop
     vertex  2.766791e+02  5.042000e+02 -2.552537e+02
     vertex  2.781128e+02  5.042000e+02 -2.546213e+02
     vertex  2.781128e+02  5.050000e+02 -2.546213e+02
   endloop
 endfacet
 facet normal -4.035765e-01 -1.720550e-13  9.149459e-01
   outer loop
     vertex  2.766791e+02  5.042000e+02 -2.552537e+02
     vertex  2.781128e+02  5.050000e+02 -2.546213e+02
     vertex  2.766791e+02  5.050000e+02 -2.552537e+02
   endloop
 endfacet
 facet normal -6.108102e-01 -2.603511e-13  7.917771e-01
   outer loop
     vertex  2.754384e+02  5.042000e+02 -2.562108e+02
     vertex  2.766791e+02  5.042000e+02 -2.552537e+02
     vertex  2.766791e+02  5.050000e+02 -2.552537e+02
   endloop
 endfacet
 facet normal -6.108102e-01 -2.604040e-13  7.917771e-01
   outer loop
     vertex  2.754384e+02  5.042000e+02 -2.562108e+02
     vertex  2.766791e+02  5.050000e+02 -2.552537e+02
     vertex  2.754384e+02  5.050000e+02 -2.562108e+02
   endloop
 endfacet
 facet normal -7.825458e-01 -3.337000e-13  6.225930e-01
   outer loop
     vertex  2.744628e+02  5.042000e+02 -2.574371e+02
     vertex  2.754384e+02  5.042000e+02 -2.562108e+02
     vertex  2.754384e+02  5.050000e+02 -2.562108e+02
   endloop
 endfacet
 facet normal -7.825458e-01 -2.780161e-13  6.225930e-01
   outer loop
     vertex  2.744628e+02  5.042000e+02 -2.574371e+02
     vertex  2.754384e+02  5.050000e+02 -2.562108e+02
     vertex  2.744628e+02  5.050000e+02 -2.574371e+02
   endloop
 endfacet
 facet normal -9.088027e-01 -3.229116e-13  4.172261e-01
   outer loop
     vertex  2.738090e+02  5.042000e+02 -2.588611e+02
     vertex  2.744628e+02  5.042000e+02 -2.574371e+02
     vertex  2.744628e+02  5.050000e+02 -2.574371e+02
   endloop
 endfacet
 facet normal -9.088027e-01 -3.578002e-13  4.172261e-01
   outer loop
     vertex  2.738090e+02  5.042000e+02 -2.588611e+02
     vertex  2.744628e+02  5.050000e+02 -2.574371e+02
     vertex  2.738090e+02  5.050000e+02 -2.588611e+02
   endloop
 endfacet
 facet normal -9.822433e-01 -4.054203e-13  1.876116e-01
   outer loop
     vertex  2.735150e+02  5.042000e+02 -2.604003e+02
     vertex  2.738090e+02  5.042000e+02 -2.588611e+02
     vertex  2.738090e+02  5.050000e+02 -2.588611e+02
   endloop
 endfacet
 facet normal -9.822433e-01 -4.187555e-13  1.876116e-01
   outer loop
     vertex  2.735150e+02  5.042000e+02 -2.604003e+02
     vertex  2.738090e+02  5.050000e+02 -2.588611e+02
     vertex  2.735150e+02  5.050000e+02 -2.604003e+02
   endloop
 endfacet
 facet normal -9.985995e-01 -4.257361e-13 -5.290629e-02
   outer loop
     vertex  2.735979e+02  5.042000e+02 -2.619651e+02
     vertex  2.735150e+02  5.042000e+02 -2.604003e+02
     vertex  2.735150e+02  5.050000e+02 -2.604003e+02
   endloop
 endfacet
 facet normal -9.985995e-01 -4.257286e-13 -5.290629e-02
   outer loop
     vertex  2.735979e+02  5.042000e+02 -2.619651e+02
     vertex  2.735150e+02  5.050000e+02 -2.604003e+02
     vertex  2.735979e+02  5.050000e+02 -2.619651e+02
   endloop
 endfacet
 facet normal -9.569207e-01 -4.079782e-13 -2.903494e-01
   outer loop
     vertex  2.740529e+02  5.042000e+02 -2.634645e+02
     vertex  2.735979e+02  5.042000e+02 -2.619651e+02
     vertex  2.735979e+02  5.050000e+02 -2.619651e+02
   endloop
 endfacet
 facet normal -9.569207e-01 -3.399665e-13 -2.903494e-01
   outer loop
     vertex  2.740529e+02  5.042000e+02 -2.634645e+02
     vertex  2.735979e+02  5.050000e+02 -2.619651e+02
     vertex  2.740529e+02  5.050000e+02 -2.634645e+02
   endloop
 endfacet
 facet normal -8.596291e-01 -3.054178e-13 -5.109185e-01
   outer loop
     vertex  2.748535e+02  5.042000e+02 -2.648116e+02
     vertex  2.740529e+02  5.042000e+02 -2.634645e+02
     vertex  2.740529e+02  5.050000e+02 -2.634645e+02
   endloop
 endfacet
 facet normal -7.123791e-01 -2.530879e-13 -7.017949e-01
   outer loop
     vertex  2.748535e+02  5.042000e+02 -2.648116e+02
     vertex  2.748535e+02  5.050000e+02 -2.648116e+02
     vertex  2.759532e+02  5.050000e+02 -2.659278e+02
   endloop
 endfacet
 facet normal -8.596291e-01 -3.054016e-13 -5.109185e-01
   outer loop
     vertex  2.748535e+02  5.042000e+02 -2.648116e+02
     vertex  2.740529e+02  5.050000e+02 -2.634645e+02
     vertex  2.748535e+02  5.050000e+02 -2.648116e+02
   endloop
 endfacet
 facet normal -7.123791e-01 -3.535710e-13 -7.017949e-01
   outer loop
     vertex  2.759532e+02  5.042000e+02 -2.659278e+02
     vertex  2.748535e+02  5.042000e+02 -2.648116e+02
     vertex  2.759532e+02  5.050000e+02 -2.659278e+02
   endloop
 endfacet
 facet normal -3.046400e-01 -1.082299e-13 -9.524676e-01
   outer loop
     vertex  2.772881e+02  5.042000e+02 -2.667485e+02
     vertex  2.772881e+02  5.050000e+02 -2.667485e+02
     vertex  2.787806e+02  5.050000e+02 -2.672259e+02
   endloop
 endfacet
 facet normal -5.237281e-01 -1.860656e-13 -8.518855e-01
   outer loop
     vertex  2.772881e+02  5.042000e+02 -2.667485e+02
     vertex  2.759532e+02  5.050000e+02 -2.659278e+02
     vertex  2.772881e+02  5.050000e+02 -2.667485e+02
   endloop
 endfacet
 facet normal -5.237281e-01 -2.838321e-13 -8.518855e-01
   outer loop
     vertex  2.772881e+02  5.042000e+02 -2.667485e+02
     vertex  2.759532e+02  5.042000e+02 -2.659278e+02
     vertex  2.759532e+02  5.050000e+02 -2.659278e+02
   endloop
 endfacet
 facet normal -3.046400e-01 -1.082299e-13 -9.524676e-01
   outer loop
     vertex  2.787806e+02  5.042000e+02 -2.672259e+02
     vertex  2.772881e+02  5.042000e+02 -2.667485e+02
     vertex  2.787806e+02  5.050000e+02 -2.672259e+02
   endloop
 endfacet
 facet normal -6.784732e-02 -2.410421e-14 -9.976957e-01
   outer loop
     vertex  2.803440e+02  5.042000e+02 -2.673322e+02
     vertex  2.787806e+02  5.050000e+02 -2.672259e+02
     vertex  2.803440e+02  5.050000e+02 -2.673322e+02
   endloop
 endfacet
 facet normal -6.784732e-02 -2.411227e-14 -9.976957e-01
   outer loop
     vertex  2.803440e+02  5.042000e+02 -2.673322e+02
     vertex  2.787806e+02  5.042000e+02 -2.672259e+02
     vertex  2.787806e+02  5.050000e+02 -2.672259e+02
   endloop
 endfacet
 facet normal  4.035765e-01  1.720550e-13 -9.149459e-01
   outer loop
     vertex  2.818873e+02  5.042000e+02 -2.670613e+02
     vertex  2.818873e+02  5.050000e+02 -2.670613e+02
     vertex  2.833210e+02  5.050000e+02 -2.664289e+02
   endloop
 endfacet
 facet normal  1.728884e-01  7.370676e-14 -9.849414e-01
   outer loop
     vertex  2.818873e+02  5.042000e+02 -2.670613e+02
     vertex  2.803440e+02  5.050000e+02 -2.673322e+02
     vertex  2.818873e+02  5.050000e+02 -2.670613e+02
   endloop
 endfacet
 facet normal  1.728884e-01  6.140567e-14 -9.849414e-01
   outer loop
     vertex  2.818873e+02  5.042000e+02 -2.670613e+02
     vertex  2.803440e+02  5.042000e+02 -2.673322e+02
     vertex  2.803440e+02  5.050000e+02 -2.673322e+02
   endloop
 endfacet
 facet normal  4.035765e-01  1.433792e-13 -9.149459e-01
   outer loop
     vertex  2.833210e+02  5.042000e+02 -2.664289e+02
     vertex  2.818873e+02  5.042000e+02 -2.670613e+02
     vertex  2.833210e+02  5.050000e+02 -2.664289e+02
   endloop
 endfacet
 facet normal  6.108102e-01  2.170034e-13 -7.917771e-01
   outer loop
     vertex  2.845617e+02  5.042000e+02 -2.654718e+02
     vertex  2.833210e+02  5.050000e+02 -2.664289e+02
     vertex  2.845617e+02  5.050000e+02 -2.654718e+02
   endloop
 endfacet
 facet normal  6.108102e-01  2.170563e-13 -7.917771e-01
   outer loop
     vertex  2.845617e+02  5.042000e+02 -2.654718e+02
     vertex  2.833210e+02  5.042000e+02 -2.664289e+02
     vertex  2.833210e+02  5.050000e+02 -2.664289e+02
   endloop
 endfacet
 facet normal  7.825458e-01  2.780161e-13 -6.225930e-01
   outer loop
     vertex  2.855373e+02  5.042000e+02 -2.642455e+02
     vertex  2.845617e+02  5.050000e+02 -2.654718e+02
     vertex  2.855373e+02  5.050000e+02 -2.642455e+02
   endloop
 endfacet
 facet normal  7.825458e-01  2.780543e-13 -6.225930e-01
   outer loop
     vertex  2.855373e+02  5.042000e+02 -2.642455e+02
     vertex  2.845617e+02  5.042000e+02 -2.654718e+02
     vertex  2.845617e+02  5.050000e+02 -2.654718e+02
   endloop
 endfacet
 facet normal  3.543743e-13 -1.000000e+00 -1.755180e-14
   outer loop
     vertex  2.758633e+02  5.042000e+02 -2.615674e+02
     vertex  2.735150e+02  5.042000e+02 -2.604003e+02
     vertex  2.735979e+02  5.042000e+02 -2.619651e+02
   endloop
 endfacet
 facet normal  3.539489e-13 -1.000000e+00 -6.331442e-15
   outer loop
     vertex  2.761573e+02  5.042000e+02 -2.625363e+02
     vertex  2.735979e+02  5.042000e+02 -2.619651e+02
     vertex  2.740529e+02  5.042000e+02 -2.634645e+02
   endloop
 endfacet
 facet normal  3.530845e-13 -1.000000e+00 -1.020409e-14
   outer loop
     vertex  2.761573e+02  5.042000e+02 -2.625363e+02
     vertex  2.758633e+02  5.042000e+02 -2.615674e+02
     vertex  2.735979e+02  5.042000e+02 -2.619651e+02
   endloop
 endfacet
 facet normal  3.717683e-13 -1.000000e+00  2.854359e-15
   outer loop
     vertex  2.758097e+02  5.042000e+02 -2.605563e+02
     vertex  2.738090e+02  5.042000e+02 -2.588611e+02
     vertex  2.735150e+02  5.042000e+02 -2.604003e+02
   endloop
 endfacet
 facet normal  3.729177e-13 -1.000000e+00  1.975737e-14
   outer loop
     vertex  2.758097e+02  5.042000e+02 -2.605563e+02
     vertex  2.735150e+02  5.042000e+02 -2.604003e+02
     vertex  2.758633e+02  5.042000e+02 -2.615674e+02
   endloop
 endfacet
 facet normal  3.470171e-13 -1.000000e+00 -4.748335e-15
   outer loop
     vertex  2.766746e+02  5.042000e+02 -2.634067e+02
     vertex  2.740529e+02  5.042000e+02 -2.634645e+02
     vertex  2.748535e+02  5.042000e+02 -2.648116e+02
   endloop
 endfacet
 facet normal  3.466889e-13 -1.000000e+00  1.012781e-14
   outer loop
     vertex  2.766746e+02  5.042000e+02 -2.634067e+02
     vertex  2.761573e+02  5.042000e+02 -2.625363e+02
     vertex  2.740529e+02  5.042000e+02 -2.634645e+02
   endloop
 endfacet
 facet normal  3.595842e-13 -1.000000e+00 -1.152561e-14
   outer loop
     vertex  2.759997e+02  5.042000e+02 -2.595618e+02
     vertex  2.738090e+02  5.042000e+02 -2.588611e+02
     vertex  2.758097e+02  5.042000e+02 -2.605563e+02
   endloop
 endfacet
 facet normal  3.597909e-13 -1.000000e+00 -2.009520e-15
   outer loop
     vertex  2.773852e+02  5.042000e+02 -2.641280e+02
     vertex  2.748535e+02  5.042000e+02 -2.648116e+02
     vertex  2.759532e+02  5.042000e+02 -2.659278e+02
   endloop
 endfacet
 facet normal  3.678071e-13 -1.000000e+00 -3.169784e-14
   outer loop
     vertex  2.773852e+02  5.042000e+02 -2.641280e+02
     vertex  2.766746e+02  5.042000e+02 -2.634067e+02
     vertex  2.748535e+02  5.042000e+02 -2.648116e+02
   endloop
 endfacet
 facet normal  3.706857e-13 -1.000000e+00 -1.051531e-14
   outer loop
     vertex  2.764221e+02  5.042000e+02 -2.586416e+02
     vertex  2.744628e+02  5.042000e+02 -2.574371e+02
     vertex  2.738090e+02  5.042000e+02 -2.588611e+02
   endloop
 endfacet
 facet normal  3.684438e-13 -1.000000e+00  1.617427e-14
   outer loop
     vertex  2.764221e+02  5.042000e+02 -2.586416e+02
     vertex  2.738090e+02  5.042000e+02 -2.588611e+02
     vertex  2.759997e+02  5.042000e+02 -2.595618e+02
   endloop
 endfacet
 facet normal  3.569492e-13 -1.000000e+00  2.648891e-14
   outer loop
     vertex  2.782477e+02  5.042000e+02 -2.646583e+02
     vertex  2.759532e+02  5.042000e+02 -2.659278e+02
     vertex  2.772881e+02  5.042000e+02 -2.667485e+02
   endloop
 endfacet
 facet normal  3.828833e-13 -1.000000e+00 -2.038177e-14
   outer loop
     vertex  2.782477e+02  5.042000e+02 -2.646583e+02
     vertex  2.773852e+02  5.042000e+02 -2.641280e+02
     vertex  2.759532e+02  5.042000e+02 -2.659278e+02
   endloop
 endfacet
 facet normal  3.770467e-13 -1.000000e+00  2.451525e-14
   outer loop
     vertex  2.770525e+02  5.042000e+02 -2.578493e+02
     vertex  2.754384e+02  5.042000e+02 -2.562108e+02
     vertex  2.744628e+02  5.042000e+02 -2.574371e+02
   endloop
 endfacet
 facet normal  3.717446e-13 -1.000000e+00 -8.792845e-15
   outer loop
     vertex  2.770525e+02  5.042000e+02 -2.578493e+02
     vertex  2.744628e+02  5.042000e+02 -2.574371e+02
     vertex  2.764221e+02  5.042000e+02 -2.586416e+02
   endloop
 endfacet
 facet normal  3.816872e-13 -1.000000e+00  2.580486e-15
   outer loop
     vertex  2.792121e+02  5.042000e+02 -2.649667e+02
     vertex  2.772881e+02  5.042000e+02 -2.667485e+02
     vertex  2.787806e+02  5.042000e+02 -2.672259e+02
   endloop
 endfacet
 facet normal  3.614664e-13 -1.000000e+00  2.441508e-14
   outer loop
     vertex  2.792121e+02  5.042000e+02 -2.649667e+02
     vertex  2.782477e+02  5.042000e+02 -2.646583e+02
     vertex  2.772881e+02  5.042000e+02 -2.667485e+02
   endloop
 endfacet
 facet normal  3.577498e-13 -1.000000e+00  1.137619e-14
   outer loop
     vertex  2.778542e+02  5.042000e+02 -2.572309e+02
     vertex  2.766791e+02  5.042000e+02 -2.552537e+02
     vertex  2.754384e+02  5.042000e+02 -2.562108e+02
   endloop
 endfacet
 facet normal  3.535054e-13 -1.000000e+00  1.323697e-15
   outer loop
     vertex  2.778542e+02  5.042000e+02 -2.572309e+02
     vertex  2.754384e+02  5.042000e+02 -2.562108e+02
     vertex  2.770525e+02  5.042000e+02 -2.578493e+02
   endloop
 endfacet
 facet normal  3.640015e-13 -1.000000e+00  5.958493e-15
   outer loop
     vertex  2.803440e+02  5.042000e+02 -2.673322e+02
     vertex  2.792121e+02  5.042000e+02 -2.649667e+02
     vertex  2.787806e+02  5.042000e+02 -2.672259e+02
   endloop
 endfacet
 facet normal  3.371569e-13 -1.000000e+00 -6.886455e-15
   outer loop
     vertex  2.802223e+02  5.042000e+02 -2.650354e+02
     vertex  2.792121e+02  5.042000e+02 -2.649667e+02
     vertex  2.803440e+02  5.042000e+02 -2.673322e+02
   endloop
 endfacet
 facet normal  3.549025e-13 -1.000000e+00  4.376129e-15
   outer loop
     vertex  2.787806e+02  5.042000e+02 -2.568222e+02
     vertex  2.781128e+02  5.042000e+02 -2.546213e+02
     vertex  2.766791e+02  5.042000e+02 -2.552537e+02
   endloop
 endfacet
 facet normal  3.620226e-13 -1.000000e+00  1.391572e-14
   outer loop
     vertex  2.787806e+02  5.042000e+02 -2.568222e+02
     vertex  2.766791e+02  5.042000e+02 -2.552537e+02
     vertex  2.778542e+02  5.042000e+02 -2.572309e+02
   endloop
 endfacet
 facet normal  3.960377e-13 -1.000000e+00  1.685741e-14
   outer loop
     vertex  2.818873e+02  5.042000e+02 -2.670613e+02
     vertex  2.812195e+02  5.042000e+02 -2.648604e+02
     vertex  2.802223e+02  5.042000e+02 -2.650354e+02
   endloop
 endfacet
 facet normal  3.692153e-13 -1.000000e+00 -5.187983e-15
   outer loop
     vertex  2.818873e+02  5.042000e+02 -2.670613e+02
     vertex  2.802223e+02  5.042000e+02 -2.650354e+02
     vertex  2.803440e+02  5.042000e+02 -2.673322e+02
   endloop
 endfacet
 facet normal  3.960377e-13 -1.000000e+00  1.685741e-14
   outer loop
     vertex  2.797779e+02  5.042000e+02 -2.566472e+02
     vertex  2.781128e+02  5.042000e+02 -2.546213e+02
     vertex  2.787806e+02  5.042000e+02 -2.568222e+02
   endloop
 endfacet
 facet normal  3.692153e-13 -1.000000e+00 -5.187983e-15
   outer loop
     vertex  2.796562e+02  5.042000e+02 -2.543504e+02
     vertex  2.781128e+02  5.042000e+02 -2.546213e+02
     vertex  2.797779e+02  5.042000e+02 -2.566472e+02
   endloop
 endfacet
 facet normal  3.549025e-13 -1.000000e+00  4.376129e-15
   outer loop
     vertex  2.833210e+02  5.042000e+02 -2.664289e+02
     vertex  2.812195e+02  5.042000e+02 -2.648604e+02
     vertex  2.818873e+02  5.042000e+02 -2.670613e+02
   endloop
 endfacet
 facet normal  3.620226e-13 -1.000000e+00  1.391572e-14
   outer loop
     vertex  2.833210e+02  5.042000e+02 -2.664289e+02
     vertex  2.821459e+02  5.042000e+02 -2.644517e+02
     vertex  2.812195e+02  5.042000e+02 -2.648604e+02
   endloop
 endfacet
 facet normal  3.383634e-13 -1.000000e+00  1.085546e-14
   outer loop
     vertex  2.812195e+02  5.042000e+02 -2.544567e+02
     vertex  2.797779e+02  5.042000e+02 -2.566472e+02
     vertex  2.807880e+02  5.042000e+02 -2.567159e+02
   endloop
 endfacet
 facet normal  3.632219e-13 -1.000000e+00 -5.505514e-15
   outer loop
     vertex  2.812195e+02  5.042000e+02 -2.544567e+02
     vertex  2.796562e+02  5.042000e+02 -2.543504e+02
     vertex  2.797779e+02  5.042000e+02 -2.566472e+02
   endloop
 endfacet
 facet normal  3.577498e-13 -1.000000e+00  1.137619e-14
   outer loop
     vertex  2.845617e+02  5.042000e+02 -2.654718e+02
     vertex  2.821459e+02  5.042000e+02 -2.644517e+02
     vertex  2.833210e+02  5.042000e+02 -2.664289e+02
   endloop
 endfacet
 facet normal  3.535054e-13 -1.000000e+00  1.323697e-15
   outer loop
     vertex  2.845617e+02  5.042000e+02 -2.654718e+02
     vertex  2.829476e+02  5.042000e+02 -2.638333e+02
     vertex  2.821459e+02  5.042000e+02 -2.644517e+02
   endloop
 endfacet
 facet normal  3.816872e-13 -1.000000e+00  2.580486e-15
   outer loop
     vertex  2.827120e+02  5.042000e+02 -2.549341e+02
     vertex  2.812195e+02  5.042000e+02 -2.544567e+02
     vertex  2.807880e+02  5.042000e+02 -2.567159e+02
   endloop
 endfacet
 facet normal  3.614664e-13 -1.000000e+00  2.441508e-14
   outer loop
     vertex  2.827120e+02  5.042000e+02 -2.549341e+02
     vertex  2.807880e+02  5.042000e+02 -2.567159e+02
     vertex  2.817524e+02  5.042000e+02 -2.570243e+02
   endloop
 endfacet
 facet normal  3.996474e-13 -1.000000e+00  6.886403e-15
   outer loop
     vertex  2.827120e+02  5.042000e+02 -2.549341e+02
     vertex  2.817524e+02  5.042000e+02 -2.570243e+02
     vertex  2.826150e+02  5.042000e+02 -2.575546e+02
   endloop
 endfacet
 facet normal  3.717446e-13 -1.000000e+00 -8.792845e-15
   outer loop
     vertex  2.855373e+02  5.042000e+02 -2.642455e+02
     vertex  2.835780e+02  5.042000e+02 -2.630410e+02
     vertex  2.829476e+02  5.042000e+02 -2.638333e+02
   endloop
 endfacet
 facet normal  3.770467e-13 -1.000000e+00  2.451525e-14
   outer loop
     vertex  2.855373e+02  5.042000e+02 -2.642455e+02
     vertex  2.829476e+02  5.042000e+02 -2.638333e+02
     vertex  2.845617e+02  5.042000e+02 -2.654718e+02
   endloop
 endfacet
 facet normal  3.461170e-13 -1.000000e+00  8.869474e-15
   outer loop
     vertex  2.840469e+02  5.042000e+02 -2.557548e+02
     vertex  2.827120e+02  5.042000e+02 -2.549341e+02
     vertex  2.826150e+02  5.042000e+02 -2.575546e+02
   endloop
 endfacet
 facet normal  3.706857e-13 -1.000000e+00 -1.051531e-14
   outer loop
     vertex  2.861911e+02  5.042000e+02 -2.628215e+02
     vertex  2.835780e+02  5.042000e+02 -2.630410e+02
     vertex  2.855373e+02  5.042000e+02 -2.642455e+02
   endloop
 endfacet
 facet normal  3.595842e-13 -1.000000e+00 -1.152561e-14
   outer loop
     vertex  2.861911e+02  5.042000e+02 -2.628215e+02
     vertex  2.841904e+02  5.042000e+02 -2.611263e+02
     vertex  2.840004e+02  5.042000e+02 -2.621208e+02
   endloop
 endfacet
 facet normal  3.684438e-13 -1.000000e+00  1.617427e-14
   outer loop
     vertex  2.861911e+02  5.042000e+02 -2.628215e+02
     vertex  2.840004e+02  5.042000e+02 -2.621208e+02
     vertex  2.835780e+02  5.042000e+02 -2.630410e+02
   endloop
 endfacet
 facet normal  3.597909e-13 -1.000000e+00 -2.009520e-15
   outer loop
     vertex  2.851466e+02  5.042000e+02 -2.568710e+02
     vertex  2.840469e+02  5.042000e+02 -2.557548e+02
     vertex  2.826150e+02  5.042000e+02 -2.575546e+02
   endloop
 endfacet
 facet normal  3.678071e-13 -1.000000e+00 -3.169784e-14
   outer loop
     vertex  2.851466e+02  5.042000e+02 -2.568710e+02
     vertex  2.826150e+02  5.042000e+02 -2.575546e+02
     vertex  2.833255e+02  5.042000e+02 -2.582759e+02
   endloop
 endfacet
 facet normal  3.717683e-13 -1.000000e+00  2.854359e-15
   outer loop
     vertex  2.864851e+02  5.042000e+02 -2.612823e+02
     vertex  2.841904e+02  5.042000e+02 -2.611263e+02
     vertex  2.861911e+02  5.042000e+02 -2.628215e+02
   endloop
 endfacet
 facet normal  3.466889e-13 -1.000000e+00  1.012781e-14
   outer loop
     vertex  2.859472e+02  5.042000e+02 -2.582181e+02
     vertex  2.833255e+02  5.042000e+02 -2.582759e+02
     vertex  2.838428e+02  5.042000e+02 -2.591463e+02
   endloop
 endfacet
 facet normal  3.470171e-13 -1.000000e+00 -4.748335e-15
   outer loop
     vertex  2.859472e+02  5.042000e+02 -2.582181e+02
     vertex  2.851466e+02  5.042000e+02 -2.568710e+02
     vertex  2.833255e+02  5.042000e+02 -2.582759e+02
   endloop
 endfacet
 facet normal  3.530845e-13 -1.000000e+00 -1.020409e-14
   outer loop
     vertex  2.864022e+02  5.042000e+02 -2.597175e+02
     vertex  2.838428e+02  5.042000e+02 -2.591463e+02
     vertex  2.841368e+02  5.042000e+02 -2.601152e+02
   endloop
 endfacet
 facet normal  3.480566e-13 -1.000000e+00  1.844021e-14
   outer loop
     vertex  2.864022e+02  5.042000e+02 -2.597175e+02
     vertex  2.841368e+02  5.042000e+02 -2.601152e+02
     vertex  2.841904e+02  5.042000e+02 -2.611263e+02
   endloop
 endfacet
 facet normal  3.539489e-13 -1.000000e+00 -6.331442e-15
   outer loop
     vertex  2.864022e+02  5.042000e+02 -2.597175e+02
     vertex  2.859472e+02  5.042000e+02 -2.582181e+02
     vertex  2.838428e+02  5.042000e+02 -2.591463e+02
   endloop
 endfacet
 facet normal  3.704384e-13 -1.000000e+00 -1.670072e-14
   outer loop
     vertex  2.864022e+02  5.042000e+02 -2.597175e+02
     vertex  2.841904e+02  5.042000e+02 -2.611263e+02
     vertex  2.864851e+02  5.042000e+02 -2.612823e+02
   endloop
 endfacet
 facet normal -3.543743e-13  1.000000e+00  1.755180e-14
   outer loop
     vertex  2.758633e+02  5.050000e+02 -2.615674e+02
     vertex  2.735979e+02  5.050000e+02 -2.619651e+02
     vertex  2.735150e+02  5.050000e+02 -2.604003e+02
   endloop
 endfacet
 facet normal -3.539489e-13  1.000000e+00  6.331442e-15
   outer loop
     vertex  2.761573e+02  5.050000e+02 -2.625363e+02
     vertex  2.740529e+02  5.050000e+02 -2.634645e+02
     vertex  2.735979e+02  5.050000e+02 -2.619651e+02
   endloop
 endfacet
 facet normal -3.530845e-13  1.000000e+00  1.020409e-14
   outer loop
     vertex  2.761573e+02  5.050000e+02 -2.625363e+02
     vertex  2.735979e+02  5.050000e+02 -2.619651e+02
     vertex  2.758633e+02  5.050000e+02 -2.615674e+02
   endloop
 endfacet
 facet normal -3.717683e-13  1.000000e+00 -2.854359e-15
   outer loop
     vertex  2.758097e+02  5.050000e+02 -2.605563e+02
     vertex  2.735150e+02  5.050000e+02 -2.604003e+02
     vertex  2.738090e+02  5.050000e+02 -2.588611e+02
   endloop
 endfacet
 facet normal -3.729177e-13  1.000000e+00 -1.975737e-14
   outer loop
     vertex  2.758097e+02  5.050000e+02 -2.605563e+02
     vertex  2.758633e+02  5.050000e+02 -2.615674e+02
     vertex  2.735150e+02  5.050000e+02 -2.604003e+02
   endloop
 endfacet
 facet normal -3.470171e-13  1.000000e+00  4.748335e-15
   outer loop
     vertex  2.766746e+02  5.050000e+02 -2.634067e+02
     vertex  2.748535e+02  5.050000e+02 -2.648116e+02
     vertex  2.740529e+02  5.050000e+02 -2.634645e+02
   endloop
 endfacet
 facet normal -3.466889e-13  1.000000e+00 -1.012781e-14
   outer loop
     vertex  2.766746e+02  5.050000e+02 -2.634067e+02
     vertex  2.740529e+02  5.050000e+02 -2.634645e+02
     vertex  2.761573e+02  5.050000e+02 -2.625363e+02
   endloop
 endfacet
 facet normal -3.612873e-13  1.000000e+00  6.200588e-15
   outer loop
     vertex  2.759997e+02  5.050000e+02 -2.595618e+02
     vertex  2.738090e+02  5.050000e+02 -2.588611e+02
     vertex  2.744628e+02  5.050000e+02 -2.574371e+02
   endloop
 endfacet
 facet normal -3.595842e-13  1.000000e+00  1.152561e-14
   outer loop
     vertex  2.759997e+02  5.050000e+02 -2.595618e+02
     vertex  2.758097e+02  5.050000e+02 -2.605563e+02
     vertex  2.738090e+02  5.050000e+02 -2.588611e+02
   endloop
 endfacet
 facet normal -3.597909e-13  1.000000e+00  2.009520e-15
   outer loop
     vertex  2.773852e+02  5.050000e+02 -2.641280e+02
     vertex  2.759532e+02  5.050000e+02 -2.659278e+02
     vertex  2.748535e+02  5.050000e+02 -2.648116e+02
   endloop
 endfacet
 facet normal -3.678071e-13  1.000000e+00  3.169784e-14
   outer loop
     vertex  2.773852e+02  5.050000e+02 -2.641280e+02
     vertex  2.748535e+02  5.050000e+02 -2.648116e+02
     vertex  2.766746e+02  5.050000e+02 -2.634067e+02
   endloop
 endfacet
 facet normal -3.872375e-13  1.000000e+00 -1.640750e-14
   outer loop
     vertex  2.764221e+02  5.050000e+02 -2.586416e+02
     vertex  2.744628e+02  5.050000e+02 -2.574371e+02
     vertex  2.754384e+02  5.050000e+02 -2.562108e+02
   endloop
 endfacet
 facet normal -3.829888e-13  1.000000e+00 -9.496736e-15
   outer loop
     vertex  2.764221e+02  5.050000e+02 -2.586416e+02
     vertex  2.759997e+02  5.050000e+02 -2.595618e+02
     vertex  2.744628e+02  5.050000e+02 -2.574371e+02
   endloop
 endfacet
 facet normal -3.569492e-13  1.000000e+00 -2.648891e-14
   outer loop
     vertex  2.782477e+02  5.050000e+02 -2.646583e+02
     vertex  2.772881e+02  5.050000e+02 -2.667485e+02
     vertex  2.759532e+02  5.050000e+02 -2.659278e+02
   endloop
 endfacet
 facet normal -3.828833e-13  1.000000e+00  2.038177e-14
   outer loop
     vertex  2.782477e+02  5.050000e+02 -2.646583e+02
     vertex  2.759532e+02  5.050000e+02 -2.659278e+02
     vertex  2.773852e+02  5.050000e+02 -2.641280e+02
   endloop
 endfacet
 facet normal -3.559732e-13  1.000000e+00 -3.754860e-15
   outer loop
     vertex  2.770525e+02  5.050000e+02 -2.578493e+02
     vertex  2.764221e+02  5.050000e+02 -2.586416e+02
     vertex  2.754384e+02  5.050000e+02 -2.562108e+02
   endloop
 endfacet
 facet normal -3.603233e-13  1.000000e+00 -8.040294e-15
   outer loop
     vertex  2.766791e+02  5.050000e+02 -2.552537e+02
     vertex  2.770525e+02  5.050000e+02 -2.578493e+02
     vertex  2.754384e+02  5.050000e+02 -2.562108e+02
   endloop
 endfacet
 facet normal -3.816872e-13  1.000000e+00 -2.580486e-15
   outer loop
     vertex  2.792121e+02  5.050000e+02 -2.649667e+02
     vertex  2.787806e+02  5.050000e+02 -2.672259e+02
     vertex  2.772881e+02  5.050000e+02 -2.667485e+02
   endloop
 endfacet
 facet normal -3.614664e-13  1.000000e+00 -2.441508e-14
   outer loop
     vertex  2.792121e+02  5.050000e+02 -2.649667e+02
     vertex  2.772881e+02  5.050000e+02 -2.667485e+02
     vertex  2.782477e+02  5.050000e+02 -2.646583e+02
   endloop
 endfacet
 facet normal -3.495227e-13  1.000000e+00 -6.486396e-15
   outer loop
     vertex  2.778542e+02  5.050000e+02 -2.572309e+02
     vertex  2.770525e+02  5.050000e+02 -2.578493e+02
     vertex  2.766791e+02  5.050000e+02 -2.552537e+02
   endloop
 endfacet
 facet normal -3.632219e-13  1.000000e+00  5.505514e-15
   outer loop
     vertex  2.802223e+02  5.050000e+02 -2.650354e+02
     vertex  2.803440e+02  5.050000e+02 -2.673322e+02
     vertex  2.787806e+02  5.050000e+02 -2.672259e+02
   endloop
 endfacet
 facet normal -3.383634e-13  1.000000e+00 -1.085546e-14
   outer loop
     vertex  2.802223e+02  5.050000e+02 -2.650354e+02
     vertex  2.787806e+02  5.050000e+02 -2.672259e+02
     vertex  2.792121e+02  5.050000e+02 -2.649667e+02
   endloop
 endfacet
 facet normal -3.530476e-13  1.000000e+00 -8.581398e-15
   outer loop
     vertex  2.781128e+02  5.050000e+02 -2.546213e+02
     vertex  2.778542e+02  5.050000e+02 -2.572309e+02
     vertex  2.766791e+02  5.050000e+02 -2.552537e+02
   endloop
 endfacet
 facet normal -3.648933e-13  1.000000e+00 -7.407567e-15
   outer loop
     vertex  2.787806e+02  5.050000e+02 -2.568222e+02
     vertex  2.778542e+02  5.050000e+02 -2.572309e+02
     vertex  2.781128e+02  5.050000e+02 -2.546213e+02
   endloop
 endfacet
 facet normal -3.996246e-13  1.000000e+00  3.576885e-15
   outer loop
     vertex  2.812195e+02  5.050000e+02 -2.648604e+02
     vertex  2.803440e+02  5.050000e+02 -2.673322e+02
     vertex  2.802223e+02  5.050000e+02 -2.650354e+02
   endloop
 endfacet
 facet normal -3.668976e-13  1.000000e+00 -8.015714e-15
   outer loop
     vertex  2.818873e+02  5.050000e+02 -2.670613e+02
     vertex  2.803440e+02  5.050000e+02 -2.673322e+02
     vertex  2.812195e+02  5.050000e+02 -2.648604e+02
   endloop
 endfacet
 facet normal -3.668976e-13  1.000000e+00 -8.015714e-15
   outer loop
     vertex  2.796562e+02  5.050000e+02 -2.543504e+02
     vertex  2.787806e+02  5.050000e+02 -2.568222e+02
     vertex  2.781128e+02  5.050000e+02 -2.546213e+02
   endloop
 endfacet
 facet normal -3.996246e-13  1.000000e+00  3.576885e-15
   outer loop
     vertex  2.796562e+02  5.050000e+02 -2.543504e+02
     vertex  2.797779e+02  5.050000e+02 -2.566472e+02
     vertex  2.787806e+02  5.050000e+02 -2.568222e+02
   endloop
 endfacet
 facet normal -3.648933e-13  1.000000e+00 -7.407567e-15
   outer loop
     vertex  2.821459e+02  5.050000e+02 -2.644517e+02
     vertex  2.818873e+02  5.050000e+02 -2.670613e+02
     vertex  2.812195e+02  5.050000e+02 -2.648604e+02
   endloop
 endfacet
 facet normal -3.530476e-13  1.000000e+00 -8.581398e-15
   outer loop
     vertex  2.833210e+02  5.050000e+02 -2.664289e+02
     vertex  2.818873e+02  5.050000e+02 -2.670613e+02
     vertex  2.821459e+02  5.050000e+02 -2.644517e+02
   endloop
 endfacet
 facet normal -3.495227e-13  1.000000e+00 -6.486396e-15
   outer loop
     vertex  2.829476e+02  5.050000e+02 -2.638333e+02
     vertex  2.833210e+02  5.050000e+02 -2.664289e+02
     vertex  2.821459e+02  5.050000e+02 -2.644517e+02
   endloop
 endfacet
 facet normal -3.632219e-13  1.000000e+00  5.505514e-15
   outer loop
     vertex  2.812195e+02  5.050000e+02 -2.544567e+02
     vertex  2.797779e+02  5.050000e+02 -2.566472e+02
     vertex  2.796562e+02  5.050000e+02 -2.543504e+02
   endloop
 endfacet
 facet normal -3.383634e-13  1.000000e+00 -1.085546e-14
   outer loop
     vertex  2.812195e+02  5.050000e+02 -2.544567e+02
     vertex  2.807880e+02  5.050000e+02 -2.567159e+02
     vertex  2.797779e+02  5.050000e+02 -2.566472e+02
   endloop
 endfacet
 facet normal -3.603233e-13  1.000000e+00 -8.040294e-15
   outer loop
     vertex  2.845617e+02  5.050000e+02 -2.654718e+02
     vertex  2.833210e+02  5.050000e+02 -2.664289e+02
     vertex  2.829476e+02  5.050000e+02 -2.638333e+02
   endloop
 endfacet
 facet normal -3.816872e-13  1.000000e+00 -2.580486e-15
   outer loop
     vertex  2.827120e+02  5.050000e+02 -2.549341e+02
     vertex  2.807880e+02  5.050000e+02 -2.567159e+02
     vertex  2.812195e+02  5.050000e+02 -2.544567e+02
   endloop
 endfacet
 facet normal -3.614664e-13  1.000000e+00 -2.441508e-14
   outer loop
     vertex  2.827120e+02  5.050000e+02 -2.549341e+02
     vertex  2.817524e+02  5.050000e+02 -2.570243e+02
     vertex  2.807880e+02  5.050000e+02 -2.567159e+02
   endloop
 endfacet
 facet normal -3.829888e-13  1.000000e+00 -9.496736e-15
   outer loop
     vertex  2.855373e+02  5.050000e+02 -2.642455e+02
     vertex  2.835780e+02  5.050000e+02 -2.630410e+02
     vertex  2.840004e+02  5.050000e+02 -2.621208e+02
   endloop
 endfacet
 facet normal -3.717446e-13  1.000000e+00  8.792845e-15
   outer loop
     vertex  2.855373e+02  5.050000e+02 -2.642455e+02
     vertex  2.829476e+02  5.050000e+02 -2.638333e+02
     vertex  2.835780e+02  5.050000e+02 -2.630410e+02
   endloop
 endfacet
 facet normal -3.770467e-13  1.000000e+00 -2.451525e-14
   outer loop
     vertex  2.855373e+02  5.050000e+02 -2.642455e+02
     vertex  2.845617e+02  5.050000e+02 -2.654718e+02
     vertex  2.829476e+02  5.050000e+02 -2.638333e+02
   endloop
 endfacet
 facet normal -3.828833e-13  1.000000e+00  2.038177e-14
   outer loop
     vertex  2.840469e+02  5.050000e+02 -2.557548e+02
     vertex  2.826150e+02  5.050000e+02 -2.575546e+02
     vertex  2.817524e+02  5.050000e+02 -2.570243e+02
   endloop
 endfacet
 facet normal -3.569492e-13  1.000000e+00 -2.648891e-14
   outer loop
     vertex  2.840469e+02  5.050000e+02 -2.557548e+02
     vertex  2.817524e+02  5.050000e+02 -2.570243e+02
     vertex  2.827120e+02  5.050000e+02 -2.549341e+02
   endloop
 endfacet
 facet normal -3.612873e-13  1.000000e+00  6.200588e-15
   outer loop
     vertex  2.861911e+02  5.050000e+02 -2.628215e+02
     vertex  2.855373e+02  5.050000e+02 -2.642455e+02
     vertex  2.840004e+02  5.050000e+02 -2.621208e+02
   endloop
 endfacet
 facet normal -3.597909e-13  1.000000e+00  2.009520e-15
   outer loop
     vertex  2.851466e+02  5.050000e+02 -2.568710e+02
     vertex  2.826150e+02  5.050000e+02 -2.575546e+02
     vertex  2.840469e+02  5.050000e+02 -2.557548e+02
   endloop
 endfacet
 facet normal -3.678071e-13  1.000000e+00  3.169784e-14
   outer loop
     vertex  2.851466e+02  5.050000e+02 -2.568710e+02
     vertex  2.833255e+02  5.050000e+02 -2.582759e+02
     vertex  2.826150e+02  5.050000e+02 -2.575546e+02
   endloop
 endfacet
 facet normal -3.706467e-13  1.000000e+00  1.363858e-14
   outer loop
     vertex  2.864851e+02  5.050000e+02 -2.612823e+02
     vertex  2.840004e+02  5.050000e+02 -2.621208e+02
     vertex  2.841904e+02  5.050000e+02 -2.611263e+02
   endloop
 endfacet
 facet normal -3.729177e-13  1.000000e+00 -1.975737e-14
   outer loop
     vertex  2.864851e+02  5.050000e+02 -2.612823e+02
     vertex  2.841904e+02  5.050000e+02 -2.611263e+02
     vertex  2.841368e+02  5.050000e+02 -2.601152e+02
   endloop
 endfacet
 facet normal -3.646202e-13  1.000000e+00 -4.219666e-15
   outer loop
     vertex  2.864851e+02  5.050000e+02 -2.612823e+02
     vertex  2.861911e+02  5.050000e+02 -2.628215e+02
     vertex  2.840004e+02  5.050000e+02 -2.621208e+02
   endloop
 endfacet
 facet normal -3.466889e-13  1.000000e+00 -1.012781e-14
   outer loop
     vertex  2.859472e+02  5.050000e+02 -2.582181e+02
     vertex  2.838428e+02  5.050000e+02 -2.591463e+02
     vertex  2.833255e+02  5.050000e+02 -2.582759e+02
   endloop
 endfacet
 facet normal -3.470171e-13  1.000000e+00  4.748335e-15
   outer loop
     vertex  2.859472e+02  5.050000e+02 -2.582181e+02
     vertex  2.833255e+02  5.050000e+02 -2.582759e+02
     vertex  2.851466e+02  5.050000e+02 -2.568710e+02
   endloop
 endfacet
 facet normal -3.539489e-13  1.000000e+00  6.331442e-15
   outer loop
     vertex  2.864022e+02  5.050000e+02 -2.597175e+02
     vertex  2.838428e+02  5.050000e+02 -2.591463e+02
     vertex  2.859472e+02  5.050000e+02 -2.582181e+02
   endloop
 endfacet
 facet normal -3.530845e-13  1.000000e+00  1.020409e-14
   outer loop
     vertex  2.864022e+02  5.050000e+02 -2.597175e+02
     vertex  2.841368e+02  5.050000e+02 -2.601152e+02
     vertex  2.838428e+02  5.050000e+02 -2.591463e+02
   endloop
 endfacet
 facet normal -3.543743e-13  1.000000e+00  1.755180e-14
   outer loop
     vertex  2.864022e+02  5.050000e+02 -2.597175e+02
     vertex  2.864851e+02  5.050000e+02 -2.612823e+02
     vertex  2.841368e+02  5.050000e+02 -2.601152e+02
   endloop
 endfacet
endsolid
