solid 
 facet normal  6.059941e-02  4.990811e-01 -8.644338e-01
   outer loop
     vertex  5.615427e+02 -2.827334e+02 -2.119646e+01
     vertex  5.625000e+02 -2.821730e+02 -2.080584e+01
     vertex  5.625000e+02 -2.828496e+02 -2.119646e+01
   endloop
 endfacet
 facet normal  6.059941e-02  4.990811e-01 -8.644338e-01
   outer loop
     vertex  5.615427e+02 -2.827334e+02 -2.119646e+01
     vertex  5.617046e+02 -2.820765e+02 -2.080584e+01
     vertex  5.625000e+02 -2.821730e+02 -2.080584e+01
   endloop
 endfacet
 facet normal  1.782764e-01  4.700763e-01 -8.644338e-01
   outer loop
     vertex  5.606411e+02 -2.823914e+02 -2.119646e+01
     vertex  5.609555e+02 -2.817923e+02 -2.080584e+01
     vertex  5.617046e+02 -2.820765e+02 -2.080584e+01
   endloop
 endfacet
 facet normal  1.782764e-01  4.700763e-01 -8.644338e-01
   outer loop
     vertex  5.606411e+02 -2.823914e+02 -2.119646e+01
     vertex  5.617046e+02 -2.820765e+02 -2.080584e+01
     vertex  5.615427e+02 -2.827334e+02 -2.119646e+01
   endloop
 endfacet
 facet normal  2.855927e-01  4.137524e-01 -8.644338e-01
   outer loop
     vertex  5.598475e+02 -2.818436e+02 -2.119646e+01
     vertex  5.602961e+02 -2.813372e+02 -2.080584e+01
     vertex  5.609555e+02 -2.817923e+02 -2.080584e+01
   endloop
 endfacet
 facet normal  2.855927e-01  4.137524e-01 -8.644338e-01
   outer loop
     vertex  5.598475e+02 -2.818436e+02 -2.119646e+01
     vertex  5.609555e+02 -2.817923e+02 -2.080584e+01
     vertex  5.606411e+02 -2.823914e+02 -2.119646e+01
   endloop
 endfacet
 facet normal  3.763113e-01  3.333827e-01 -8.644338e-01
   outer loop
     vertex  5.592080e+02 -2.811218e+02 -2.119646e+01
     vertex  5.597648e+02 -2.807375e+02 -2.080584e+01
     vertex  5.602961e+02 -2.813372e+02 -2.080584e+01
   endloop
 endfacet
 facet normal  3.763113e-01  3.333827e-01 -8.644338e-01
   outer loop
     vertex  5.592080e+02 -2.811218e+02 -2.119646e+01
     vertex  5.602961e+02 -2.813372e+02 -2.080584e+01
     vertex  5.598475e+02 -2.818436e+02 -2.119646e+01
   endloop
 endfacet
 facet normal  4.451601e-01  2.336380e-01 -8.644338e-01
   outer loop
     vertex  5.587599e+02 -2.802680e+02 -2.119646e+01
     vertex  5.593925e+02 -2.800281e+02 -2.080584e+01
     vertex  5.597648e+02 -2.807375e+02 -2.080584e+01
   endloop
 endfacet
 facet normal  4.451601e-01  2.336380e-01 -8.644338e-01
   outer loop
     vertex  5.587599e+02 -2.802680e+02 -2.119646e+01
     vertex  5.597648e+02 -2.807375e+02 -2.080584e+01
     vertex  5.592080e+02 -2.811218e+02 -2.119646e+01
   endloop
 endfacet
 facet normal  4.881378e-01  1.203152e-01 -8.644338e-01
   outer loop
     vertex  5.585291e+02 -2.793317e+02 -2.119646e+01
     vertex  5.592007e+02 -2.792501e+02 -2.080584e+01
     vertex  5.593925e+02 -2.800281e+02 -2.080584e+01
   endloop
 endfacet
 facet normal  4.881378e-01  1.203152e-01 -8.644338e-01
   outer loop
     vertex  5.585291e+02 -2.793317e+02 -2.119646e+01
     vertex  5.593925e+02 -2.800281e+02 -2.080584e+01
     vertex  5.587599e+02 -2.802680e+02 -2.119646e+01
   endloop
 endfacet
 facet normal  5.027467e-01  3.834361e-15 -8.644338e-01
   outer loop
     vertex  5.585291e+02 -2.783674e+02 -2.119646e+01
     vertex  5.592007e+02 -2.784489e+02 -2.080584e+01
     vertex  5.592007e+02 -2.792501e+02 -2.080584e+01
   endloop
 endfacet
 facet normal  5.027467e-01  3.184739e-15 -8.644338e-01
   outer loop
     vertex  5.585291e+02 -2.783674e+02 -2.119646e+01
     vertex  5.592007e+02 -2.792501e+02 -2.080584e+01
     vertex  5.585291e+02 -2.793317e+02 -2.119646e+01
   endloop
 endfacet
 facet normal  4.881378e-01 -1.203152e-01 -8.644338e-01
   outer loop
     vertex  5.587599e+02 -2.774311e+02 -2.119646e+01
     vertex  5.593925e+02 -2.776710e+02 -2.080584e+01
     vertex  5.592007e+02 -2.784489e+02 -2.080584e+01
   endloop
 endfacet
 facet normal  4.881378e-01 -1.203152e-01 -8.644338e-01
   outer loop
     vertex  5.587599e+02 -2.774311e+02 -2.119646e+01
     vertex  5.592007e+02 -2.784489e+02 -2.080584e+01
     vertex  5.585291e+02 -2.783674e+02 -2.119646e+01
   endloop
 endfacet
 facet normal  4.451601e-01 -2.336380e-01 -8.644338e-01
   outer loop
     vertex  5.592080e+02 -2.765772e+02 -2.119646e+01
     vertex  5.597648e+02 -2.769616e+02 -2.080584e+01
     vertex  5.593925e+02 -2.776710e+02 -2.080584e+01
   endloop
 endfacet
 facet normal  4.451601e-01 -2.336380e-01 -8.644338e-01
   outer loop
     vertex  5.592080e+02 -2.765772e+02 -2.119646e+01
     vertex  5.593925e+02 -2.776710e+02 -2.080584e+01
     vertex  5.587599e+02 -2.774311e+02 -2.119646e+01
   endloop
 endfacet
 facet normal  3.763113e-01 -3.333827e-01 -8.644338e-01
   outer loop
     vertex  5.598475e+02 -2.758554e+02 -2.119646e+01
     vertex  5.602961e+02 -2.763619e+02 -2.080584e+01
     vertex  5.597648e+02 -2.769616e+02 -2.080584e+01
   endloop
 endfacet
 facet normal  3.763113e-01 -3.333827e-01 -8.644338e-01
   outer loop
     vertex  5.598475e+02 -2.758554e+02 -2.119646e+01
     vertex  5.597648e+02 -2.769616e+02 -2.080584e+01
     vertex  5.592080e+02 -2.765772e+02 -2.119646e+01
   endloop
 endfacet
 facet normal  2.855927e-01 -4.137524e-01 -8.644338e-01
   outer loop
     vertex  5.606411e+02 -2.753076e+02 -2.119646e+01
     vertex  5.609555e+02 -2.759067e+02 -2.080584e+01
     vertex  5.602961e+02 -2.763619e+02 -2.080584e+01
   endloop
 endfacet
 facet normal  2.855927e-01 -4.137524e-01 -8.644338e-01
   outer loop
     vertex  5.606411e+02 -2.753076e+02 -2.119646e+01
     vertex  5.602961e+02 -2.763619e+02 -2.080584e+01
     vertex  5.598475e+02 -2.758554e+02 -2.119646e+01
   endloop
 endfacet
 facet normal  1.782764e-01 -4.700763e-01 -8.644338e-01
   outer loop
     vertex  5.615427e+02 -2.749657e+02 -2.119646e+01
     vertex  5.609555e+02 -2.759067e+02 -2.080584e+01
     vertex  5.606411e+02 -2.753076e+02 -2.119646e+01
   endloop
 endfacet
 facet normal  1.782764e-01 -4.700763e-01 -8.644338e-01
   outer loop
     vertex  5.615427e+02 -2.749657e+02 -2.119646e+01
     vertex  5.617046e+02 -2.756226e+02 -2.080584e+01
     vertex  5.609555e+02 -2.759067e+02 -2.080584e+01
   endloop
 endfacet
 facet normal  6.059941e-02 -4.990811e-01 -8.644338e-01
   outer loop
     vertex  5.625000e+02 -2.748495e+02 -2.119646e+01
     vertex  5.617046e+02 -2.756226e+02 -2.080584e+01
     vertex  5.615427e+02 -2.749657e+02 -2.119646e+01
   endloop
 endfacet
 facet normal  6.059941e-02 -4.990811e-01 -8.644338e-01
   outer loop
     vertex  5.625000e+02 -2.748495e+02 -2.119646e+01
     vertex  5.625000e+02 -2.755260e+02 -2.080584e+01
     vertex  5.617046e+02 -2.756226e+02 -2.080584e+01
   endloop
 endfacet
 facet normal -6.059941e-02 -4.990811e-01 -8.644338e-01
   outer loop
     vertex  5.634573e+02 -2.749657e+02 -2.119646e+01
     vertex  5.625000e+02 -2.755260e+02 -2.080584e+01
     vertex  5.625000e+02 -2.748495e+02 -2.119646e+01
   endloop
 endfacet
 facet normal -6.059941e-02 -4.990811e-01 -8.644338e-01
   outer loop
     vertex  5.634573e+02 -2.749657e+02 -2.119646e+01
     vertex  5.632954e+02 -2.756226e+02 -2.080584e+01
     vertex  5.625000e+02 -2.755260e+02 -2.080584e+01
   endloop
 endfacet
 facet normal -1.782764e-01 -4.700763e-01 -8.644338e-01
   outer loop
     vertex  5.643589e+02 -2.753076e+02 -2.119646e+01
     vertex  5.632954e+02 -2.756226e+02 -2.080584e+01
     vertex  5.634573e+02 -2.749657e+02 -2.119646e+01
   endloop
 endfacet
 facet normal -1.782764e-01 -4.700763e-01 -8.644338e-01
   outer loop
     vertex  5.643589e+02 -2.753076e+02 -2.119646e+01
     vertex  5.640445e+02 -2.759067e+02 -2.080584e+01
     vertex  5.632954e+02 -2.756226e+02 -2.080584e+01
   endloop
 endfacet
 facet normal -2.855927e-01 -4.137524e-01 -8.644338e-01
   outer loop
     vertex  5.651525e+02 -2.758554e+02 -2.119646e+01
     vertex  5.640445e+02 -2.759067e+02 -2.080584e+01
     vertex  5.643589e+02 -2.753076e+02 -2.119646e+01
   endloop
 endfacet
 facet normal -2.855927e-01 -4.137524e-01 -8.644338e-01
   outer loop
     vertex  5.651525e+02 -2.758554e+02 -2.119646e+01
     vertex  5.647039e+02 -2.763619e+02 -2.080584e+01
     vertex  5.640445e+02 -2.759067e+02 -2.080584e+01
   endloop
 endfacet
 facet normal -3.763113e-01 -3.333827e-01 -8.644338e-01
   outer loop
     vertex  5.657920e+02 -2.765772e+02 -2.119646e+01
     vertex  5.647039e+02 -2.763619e+02 -2.080584e+01
     vertex  5.651525e+02 -2.758554e+02 -2.119646e+01
   endloop
 endfacet
 facet normal -3.763113e-01 -3.333827e-01 -8.644338e-01
   outer loop
     vertex  5.657920e+02 -2.765772e+02 -2.119646e+01
     vertex  5.652352e+02 -2.769616e+02 -2.080584e+01
     vertex  5.647039e+02 -2.763619e+02 -2.080584e+01
   endloop
 endfacet
 facet normal -4.451601e-01 -2.336380e-01 -8.644338e-01
   outer loop
     vertex  5.662401e+02 -2.774311e+02 -2.119646e+01
     vertex  5.652352e+02 -2.769616e+02 -2.080584e+01
     vertex  5.657920e+02 -2.765772e+02 -2.119646e+01
   endloop
 endfacet
 facet normal -4.451601e-01 -2.336380e-01 -8.644338e-01
   outer loop
     vertex  5.662401e+02 -2.774311e+02 -2.119646e+01
     vertex  5.656075e+02 -2.776710e+02 -2.080584e+01
     vertex  5.652352e+02 -2.769616e+02 -2.080584e+01
   endloop
 endfacet
 facet normal -4.881378e-01 -1.203152e-01 -8.644338e-01
   outer loop
     vertex  5.664709e+02 -2.783674e+02 -2.119646e+01
     vertex  5.656075e+02 -2.776710e+02 -2.080584e+01
     vertex  5.662401e+02 -2.774311e+02 -2.119646e+01
   endloop
 endfacet
 facet normal -4.881378e-01 -1.203152e-01 -8.644338e-01
   outer loop
     vertex  5.664709e+02 -2.783674e+02 -2.119646e+01
     vertex  5.657993e+02 -2.784489e+02 -2.080584e+01
     vertex  5.656075e+02 -2.776710e+02 -2.080584e+01
   endloop
 endfacet
 facet normal -5.027467e-01  3.834361e-15 -8.644338e-01
   outer loop
     vertex  5.664709e+02 -2.793317e+02 -2.119646e+01
     vertex  5.657993e+02 -2.792501e+02 -2.080584e+01
     vertex  5.657993e+02 -2.784489e+02 -2.080584e+01
   endloop
 endfacet
 facet normal -5.027467e-01  3.184739e-15 -8.644338e-01
   outer loop
     vertex  5.664709e+02 -2.793317e+02 -2.119646e+01
     vertex  5.657993e+02 -2.784489e+02 -2.080584e+01
     vertex  5.664709e+02 -2.783674e+02 -2.119646e+01
   endloop
 endfacet
 facet normal -4.881378e-01  1.203152e-01 -8.644338e-01
   outer loop
     vertex  5.662401e+02 -2.802680e+02 -2.119646e+01
     vertex  5.656075e+02 -2.800281e+02 -2.080584e+01
     vertex  5.657993e+02 -2.792501e+02 -2.080584e+01
   endloop
 endfacet
 facet normal -4.881378e-01  1.203152e-01 -8.644338e-01
   outer loop
     vertex  5.662401e+02 -2.802680e+02 -2.119646e+01
     vertex  5.657993e+02 -2.792501e+02 -2.080584e+01
     vertex  5.664709e+02 -2.793317e+02 -2.119646e+01
   endloop
 endfacet
 facet normal -4.451601e-01  2.336380e-01 -8.644338e-01
   outer loop
     vertex  5.657920e+02 -2.811218e+02 -2.119646e+01
     vertex  5.652352e+02 -2.807375e+02 -2.080584e+01
     vertex  5.656075e+02 -2.800281e+02 -2.080584e+01
   endloop
 endfacet
 facet normal -4.451601e-01  2.336380e-01 -8.644338e-01
   outer loop
     vertex  5.657920e+02 -2.811218e+02 -2.119646e+01
     vertex  5.656075e+02 -2.800281e+02 -2.080584e+01
     vertex  5.662401e+02 -2.802680e+02 -2.119646e+01
   endloop
 endfacet
 facet normal -3.763113e-01  3.333827e-01 -8.644338e-01
   outer loop
     vertex  5.651525e+02 -2.818436e+02 -2.119646e+01
     vertex  5.647039e+02 -2.813372e+02 -2.080584e+01
     vertex  5.652352e+02 -2.807375e+02 -2.080584e+01
   endloop
 endfacet
 facet normal -3.763113e-01  3.333827e-01 -8.644338e-01
   outer loop
     vertex  5.651525e+02 -2.818436e+02 -2.119646e+01
     vertex  5.652352e+02 -2.807375e+02 -2.080584e+01
     vertex  5.657920e+02 -2.811218e+02 -2.119646e+01
   endloop
 endfacet
 facet normal -2.855927e-01  4.137524e-01 -8.644338e-01
   outer loop
     vertex  5.643589e+02 -2.823914e+02 -2.119646e+01
     vertex  5.640445e+02 -2.817923e+02 -2.080584e+01
     vertex  5.647039e+02 -2.813372e+02 -2.080584e+01
   endloop
 endfacet
 facet normal -2.855927e-01  4.137524e-01 -8.644338e-01
   outer loop
     vertex  5.643589e+02 -2.823914e+02 -2.119646e+01
     vertex  5.647039e+02 -2.813372e+02 -2.080584e+01
     vertex  5.651525e+02 -2.818436e+02 -2.119646e+01
   endloop
 endfacet
 facet normal -1.782764e-01  4.700763e-01 -8.644338e-01
   outer loop
     vertex  5.634573e+02 -2.827334e+02 -2.119646e+01
     vertex  5.632954e+02 -2.820765e+02 -2.080584e+01
     vertex  5.640445e+02 -2.817923e+02 -2.080584e+01
   endloop
 endfacet
 facet normal -1.782764e-01  4.700763e-01 -8.644338e-01
   outer loop
     vertex  5.634573e+02 -2.827334e+02 -2.119646e+01
     vertex  5.640445e+02 -2.817923e+02 -2.080584e+01
     vertex  5.643589e+02 -2.823914e+02 -2.119646e+01
   endloop
 endfacet
 facet normal -6.059941e-02  4.990811e-01 -8.644338e-01
   outer loop
     vertex  5.625000e+02 -2.821730e+02 -2.080584e+01
     vertex  5.632954e+02 -2.820765e+02 -2.080584e+01
     vertex  5.634573e+02 -2.827334e+02 -2.119646e+01
   endloop
 endfacet
 facet normal -6.059941e-02  4.990811e-01 -8.644338e-01
   outer loop
     vertex  5.625000e+02 -2.828496e+02 -2.119646e+01
     vertex  5.625000e+02 -2.821730e+02 -2.080584e+01
     vertex  5.634573e+02 -2.827334e+02 -2.119646e+01
   endloop
 endfacet
 facet normal -1.205367e-01  9.927089e-01  0.000000e+00
   outer loop
     vertex  5.625000e+02 -2.821730e+02 -1.478709e+01
     vertex  5.632954e+02 -2.820765e+02 -2.080584e+01
     vertex  5.625000e+02 -2.821730e+02 -2.080584e+01
   endloop
 endfacet
 facet normal -3.546049e-01  9.350162e-01  8.830658e-15
   outer loop
     vertex  5.632954e+02 -2.820765e+02 -1.478709e+01
     vertex  5.640445e+02 -2.817923e+02 -2.080584e+01
     vertex  5.632954e+02 -2.820765e+02 -2.080584e+01
   endloop
 endfacet
 facet normal -1.205367e-01  9.927089e-01  9.375529e-15
   outer loop
     vertex  5.632954e+02 -2.820765e+02 -1.478709e+01
     vertex  5.632954e+02 -2.820765e+02 -2.080584e+01
     vertex  5.625000e+02 -2.821730e+02 -1.478709e+01
   endloop
 endfacet
 facet normal -5.680647e-01  8.229839e-01  0.000000e+00
   outer loop
     vertex  5.640445e+02 -2.817923e+02 -1.478709e+01
     vertex  5.647039e+02 -2.813372e+02 -2.080584e+01
     vertex  5.640445e+02 -2.817923e+02 -2.080584e+01
   endloop
 endfacet
 facet normal -3.546049e-01  9.350162e-01  0.000000e+00
   outer loop
     vertex  5.640445e+02 -2.817923e+02 -1.478709e+01
     vertex  5.640445e+02 -2.817923e+02 -2.080584e+01
     vertex  5.632954e+02 -2.820765e+02 -1.478709e+01
   endloop
 endfacet
 facet normal -7.485107e-01  6.631227e-01 -6.262789e-15
   outer loop
     vertex  5.647039e+02 -2.813372e+02 -1.478709e+01
     vertex  5.652352e+02 -2.807375e+02 -2.080584e+01
     vertex  5.647039e+02 -2.813372e+02 -2.080584e+01
   endloop
 endfacet
 facet normal -5.680647e-01  8.229839e-01 -7.772580e-15
   outer loop
     vertex  5.647039e+02 -2.813372e+02 -1.478709e+01
     vertex  5.647039e+02 -2.813372e+02 -2.080584e+01
     vertex  5.640445e+02 -2.817923e+02 -1.478709e+01
   endloop
 endfacet
 facet normal -8.854560e-01  4.647232e-01 -4.389027e-15
   outer loop
     vertex  5.652352e+02 -2.807375e+02 -1.478709e+01
     vertex  5.656075e+02 -2.800281e+02 -2.080584e+01
     vertex  5.652352e+02 -2.807375e+02 -2.080584e+01
   endloop
 endfacet
 facet normal -7.485107e-01  6.631227e-01 -6.262789e-15
   outer loop
     vertex  5.652352e+02 -2.807375e+02 -1.478709e+01
     vertex  5.652352e+02 -2.807375e+02 -2.080584e+01
     vertex  5.647039e+02 -2.813372e+02 -1.478709e+01
   endloop
 endfacet
 facet normal -9.709418e-01  2.393157e-01 -2.260190e-15
   outer loop
     vertex  5.656075e+02 -2.800281e+02 -1.478709e+01
     vertex  5.657993e+02 -2.792501e+02 -2.080584e+01
     vertex  5.656075e+02 -2.800281e+02 -2.080584e+01
   endloop
 endfacet
 facet normal -8.854560e-01  4.647232e-01 -4.389027e-15
   outer loop
     vertex  5.656075e+02 -2.800281e+02 -1.478709e+01
     vertex  5.656075e+02 -2.800281e+02 -2.080584e+01
     vertex  5.652352e+02 -2.807375e+02 -1.478709e+01
   endloop
 endfacet
 facet normal -1.000000e+00  0.000000e+00 -0.000000e+00
   outer loop
     vertex  5.657993e+02 -2.792501e+02 -1.478709e+01
     vertex  5.657993e+02 -2.784489e+02 -2.080584e+01
     vertex  5.657993e+02 -2.792501e+02 -2.080584e+01
   endloop
 endfacet
 facet normal -9.709418e-01  2.393157e-01 -2.260190e-15
   outer loop
     vertex  5.657993e+02 -2.792501e+02 -1.478709e+01
     vertex  5.657993e+02 -2.792501e+02 -2.080584e+01
     vertex  5.656075e+02 -2.800281e+02 -1.478709e+01
   endloop
 endfacet
 facet normal -9.709418e-01 -2.393157e-01  2.260190e-15
   outer loop
     vertex  5.657993e+02 -2.784489e+02 -1.478709e+01
     vertex  5.656075e+02 -2.776710e+02 -2.080584e+01
     vertex  5.657993e+02 -2.784489e+02 -2.080584e+01
   endloop
 endfacet
 facet normal -1.000000e+00  0.000000e+00  0.000000e+00
   outer loop
     vertex  5.657993e+02 -2.784489e+02 -1.478709e+01
     vertex  5.657993e+02 -2.784489e+02 -2.080584e+01
     vertex  5.657993e+02 -2.792501e+02 -1.478709e+01
   endloop
 endfacet
 facet normal -8.854560e-01 -4.647232e-01 -0.000000e+00
   outer loop
     vertex  5.656075e+02 -2.776710e+02 -1.478709e+01
     vertex  5.652352e+02 -2.769616e+02 -2.080584e+01
     vertex  5.656075e+02 -2.776710e+02 -2.080584e+01
   endloop
 endfacet
 facet normal -9.709418e-01 -2.393157e-01 -0.000000e+00
   outer loop
     vertex  5.656075e+02 -2.776710e+02 -1.478709e+01
     vertex  5.656075e+02 -2.776710e+02 -2.080584e+01
     vertex  5.657993e+02 -2.784489e+02 -1.478709e+01
   endloop
 endfacet
 facet normal -7.485107e-01 -6.631227e-01 -0.000000e+00
   outer loop
     vertex  5.652352e+02 -2.769616e+02 -1.478709e+01
     vertex  5.647039e+02 -2.763619e+02 -2.080584e+01
     vertex  5.652352e+02 -2.769616e+02 -2.080584e+01
   endloop
 endfacet
 facet normal -8.854560e-01 -4.647232e-01 -0.000000e+00
   outer loop
     vertex  5.652352e+02 -2.769616e+02 -1.478709e+01
     vertex  5.652352e+02 -2.769616e+02 -2.080584e+01
     vertex  5.656075e+02 -2.776710e+02 -1.478709e+01
   endloop
 endfacet
 facet normal -5.680647e-01 -8.229839e-01  7.772580e-15
   outer loop
     vertex  5.647039e+02 -2.763619e+02 -1.478709e+01
     vertex  5.640445e+02 -2.759067e+02 -2.080584e+01
     vertex  5.647039e+02 -2.763619e+02 -2.080584e+01
   endloop
 endfacet
 facet normal -7.485107e-01 -6.631227e-01  6.262789e-15
   outer loop
     vertex  5.647039e+02 -2.763619e+02 -1.478709e+01
     vertex  5.647039e+02 -2.763619e+02 -2.080584e+01
     vertex  5.652352e+02 -2.769616e+02 -1.478709e+01
   endloop
 endfacet
 facet normal -5.680647e-01 -8.229839e-01  7.772580e-15
   outer loop
     vertex  5.640445e+02 -2.759067e+02 -1.478709e+01
     vertex  5.640445e+02 -2.759067e+02 -2.080584e+01
     vertex  5.647039e+02 -2.763619e+02 -1.478709e+01
   endloop
 endfacet
 facet normal -3.546049e-01 -9.350162e-01  8.830658e-15
   outer loop
     vertex  5.640445e+02 -2.759067e+02 -1.478709e+01
     vertex  5.632954e+02 -2.756226e+02 -2.080584e+01
     vertex  5.640445e+02 -2.759067e+02 -2.080584e+01
   endloop
 endfacet
 facet normal -3.546049e-01 -9.350162e-01  8.830658e-15
   outer loop
     vertex  5.632954e+02 -2.756226e+02 -1.478709e+01
     vertex  5.632954e+02 -2.756226e+02 -2.080584e+01
     vertex  5.640445e+02 -2.759067e+02 -1.478709e+01
   endloop
 endfacet
 facet normal -1.205367e-01 -9.927089e-01  9.376171e-15
   outer loop
     vertex  5.625000e+02 -2.755260e+02 -1.478709e+01
     vertex  5.632954e+02 -2.756226e+02 -2.080584e+01
     vertex  5.632954e+02 -2.756226e+02 -1.478709e+01
   endloop
 endfacet
 facet normal -1.205367e-01 -9.927089e-01 -9.375529e-15
   outer loop
     vertex  5.625000e+02 -2.755260e+02 -1.478709e+01
     vertex  5.625000e+02 -2.755260e+02 -2.080584e+01
     vertex  5.632954e+02 -2.756226e+02 -2.080584e+01
   endloop
 endfacet
 facet normal  1.205367e-01 -9.927089e-01 -9.375529e-15
   outer loop
     vertex  5.625000e+02 -2.755260e+02 -1.478709e+01
     vertex  5.617046e+02 -2.756226e+02 -2.080584e+01
     vertex  5.625000e+02 -2.755260e+02 -2.080584e+01
   endloop
 endfacet
 facet normal  1.205367e-01 -9.927089e-01  2.276791e-15
   outer loop
     vertex  5.617046e+02 -2.756226e+02 -1.478709e+01
     vertex  5.617046e+02 -2.756226e+02 -2.080584e+01
     vertex  5.625000e+02 -2.755260e+02 -1.478709e+01
   endloop
 endfacet
 facet normal  3.546049e-01 -9.350162e-01  6.698053e-15
   outer loop
     vertex  5.617046e+02 -2.756226e+02 -1.478709e+01
     vertex  5.609555e+02 -2.759067e+02 -2.080584e+01
     vertex  5.617046e+02 -2.756226e+02 -2.080584e+01
   endloop
 endfacet
 facet normal  3.546049e-01 -9.350162e-01  0.000000e+00
   outer loop
     vertex  5.609555e+02 -2.759067e+02 -1.478709e+01
     vertex  5.609555e+02 -2.759067e+02 -2.080584e+01
     vertex  5.617046e+02 -2.756226e+02 -1.478709e+01
   endloop
 endfacet
 facet normal  5.680647e-01 -8.229839e-01  0.000000e+00
   outer loop
     vertex  5.609555e+02 -2.759067e+02 -1.478709e+01
     vertex  5.602961e+02 -2.763619e+02 -2.080584e+01
     vertex  5.609555e+02 -2.759067e+02 -2.080584e+01
   endloop
 endfacet
 facet normal  5.680647e-01 -8.229839e-01  0.000000e+00
   outer loop
     vertex  5.602961e+02 -2.763619e+02 -1.478709e+01
     vertex  5.602961e+02 -2.763619e+02 -2.080584e+01
     vertex  5.609555e+02 -2.759067e+02 -1.478709e+01
   endloop
 endfacet
 facet normal  7.485107e-01 -6.631227e-01  5.354046e-18
   outer loop
     vertex  5.597648e+02 -2.769616e+02 -1.478709e+01
     vertex  5.602961e+02 -2.763619e+02 -2.080584e+01
     vertex  5.602961e+02 -2.763619e+02 -1.478709e+01
   endloop
 endfacet
 facet normal  7.485107e-01 -6.631227e-01 -6.262789e-15
   outer loop
     vertex  5.597648e+02 -2.769616e+02 -1.478709e+01
     vertex  5.597648e+02 -2.769616e+02 -2.080584e+01
     vertex  5.602961e+02 -2.763619e+02 -2.080584e+01
   endloop
 endfacet
 facet normal  8.854560e-01 -4.647232e-01 -4.389027e-15
   outer loop
     vertex  5.597648e+02 -2.769616e+02 -1.478709e+01
     vertex  5.593925e+02 -2.776710e+02 -2.080584e+01
     vertex  5.597648e+02 -2.769616e+02 -2.080584e+01
   endloop
 endfacet
 facet normal  8.854560e-01 -4.647232e-01 -4.389027e-15
   outer loop
     vertex  5.593925e+02 -2.776710e+02 -1.478709e+01
     vertex  5.593925e+02 -2.776710e+02 -2.080584e+01
     vertex  5.597648e+02 -2.769616e+02 -1.478709e+01
   endloop
 endfacet
 facet normal  9.709418e-01 -2.393157e-01 -2.262075e-15
   outer loop
     vertex  5.592007e+02 -2.784489e+02 -1.478709e+01
     vertex  5.593925e+02 -2.776710e+02 -2.080584e+01
     vertex  5.593925e+02 -2.776710e+02 -1.478709e+01
   endloop
 endfacet
 facet normal  9.709418e-01 -2.393157e-01 -2.260190e-15
   outer loop
     vertex  5.592007e+02 -2.784489e+02 -1.478709e+01
     vertex  5.592007e+02 -2.784489e+02 -2.080584e+01
     vertex  5.593925e+02 -2.776710e+02 -2.080584e+01
   endloop
 endfacet
 facet normal  1.000000e+00  0.000000e+00  0.000000e+00
   outer loop
     vertex  5.592007e+02 -2.784489e+02 -1.478709e+01
     vertex  5.592007e+02 -2.792501e+02 -2.080584e+01
     vertex  5.592007e+02 -2.784489e+02 -2.080584e+01
   endloop
 endfacet
 facet normal  1.000000e+00 -0.000000e+00  0.000000e+00
   outer loop
     vertex  5.592007e+02 -2.792501e+02 -1.478709e+01
     vertex  5.592007e+02 -2.792501e+02 -2.080584e+01
     vertex  5.592007e+02 -2.784489e+02 -1.478709e+01
   endloop
 endfacet
 facet normal  9.709418e-01  2.393157e-01  2.260190e-15
   outer loop
     vertex  5.592007e+02 -2.792501e+02 -1.478709e+01
     vertex  5.593925e+02 -2.800281e+02 -2.080584e+01
     vertex  5.592007e+02 -2.792501e+02 -2.080584e+01
   endloop
 endfacet
 facet normal  9.709418e-01  2.393157e-01  0.000000e+00
   outer loop
     vertex  5.593925e+02 -2.800281e+02 -1.478709e+01
     vertex  5.593925e+02 -2.800281e+02 -2.080584e+01
     vertex  5.592007e+02 -2.792501e+02 -1.478709e+01
   endloop
 endfacet
 facet normal  8.854560e-01  4.647232e-01  0.000000e+00
   outer loop
     vertex  5.593925e+02 -2.800281e+02 -1.478709e+01
     vertex  5.597648e+02 -2.807375e+02 -2.080584e+01
     vertex  5.593925e+02 -2.800281e+02 -2.080584e+01
   endloop
 endfacet
 facet normal  8.854560e-01  4.647232e-01  0.000000e+00
   outer loop
     vertex  5.597648e+02 -2.807375e+02 -1.478709e+01
     vertex  5.597648e+02 -2.807375e+02 -2.080584e+01
     vertex  5.593925e+02 -2.800281e+02 -1.478709e+01
   endloop
 endfacet
 facet normal  7.485107e-01  6.631227e-01  0.000000e+00
   outer loop
     vertex  5.597648e+02 -2.807375e+02 -1.478709e+01
     vertex  5.602961e+02 -2.813372e+02 -2.080584e+01
     vertex  5.597648e+02 -2.807375e+02 -2.080584e+01
   endloop
 endfacet
 facet normal  7.485107e-01  6.631227e-01  6.262789e-15
   outer loop
     vertex  5.602961e+02 -2.813372e+02 -1.478709e+01
     vertex  5.602961e+02 -2.813372e+02 -2.080584e+01
     vertex  5.597648e+02 -2.807375e+02 -1.478709e+01
   endloop
 endfacet
 facet normal  5.680647e-01  8.229839e-01  7.772580e-15
   outer loop
     vertex  5.609555e+02 -2.817923e+02 -1.478709e+01
     vertex  5.609555e+02 -2.817923e+02 -2.080584e+01
     vertex  5.602961e+02 -2.813372e+02 -2.080584e+01
   endloop
 endfacet
 facet normal  5.680647e-01  8.229839e-01  7.776676e-15
   outer loop
     vertex  5.609555e+02 -2.817923e+02 -1.478709e+01
     vertex  5.602961e+02 -2.813372e+02 -2.080584e+01
     vertex  5.602961e+02 -2.813372e+02 -1.478709e+01
   endloop
 endfacet
 facet normal  3.546049e-01  9.350162e-01  2.132604e-15
   outer loop
     vertex  5.617046e+02 -2.820765e+02 -1.478709e+01
     vertex  5.617046e+02 -2.820765e+02 -2.080584e+01
     vertex  5.609555e+02 -2.817923e+02 -2.080584e+01
   endloop
 endfacet
 facet normal  1.205367e-01  9.927089e-01  7.098738e-15
   outer loop
     vertex  5.617046e+02 -2.820765e+02 -1.478709e+01
     vertex  5.625000e+02 -2.821730e+02 -2.080584e+01
     vertex  5.617046e+02 -2.820765e+02 -2.080584e+01
   endloop
 endfacet
 facet normal  3.546049e-01  9.350162e-01  8.832999e-15
   outer loop
     vertex  5.617046e+02 -2.820765e+02 -1.478709e+01
     vertex  5.609555e+02 -2.817923e+02 -2.080584e+01
     vertex  5.609555e+02 -2.817923e+02 -1.478709e+01
   endloop
 endfacet
 facet normal  1.205367e-01  9.927089e-01  0.000000e+00
   outer loop
     vertex  5.625000e+02 -2.821730e+02 -1.478709e+01
     vertex  5.625000e+02 -2.821730e+02 -2.080584e+01
     vertex  5.617046e+02 -2.820765e+02 -1.478709e+01
   endloop
 endfacet
 facet normal -2.789447e-15  6.980314e-15 -1.000000e+00
   outer loop
     vertex  5.651525e+02 -2.818436e+02 -2.119646e+01
     vertex  5.668414e+02 -2.826956e+02 -2.119646e+01
     vertex  5.657948e+02 -2.836228e+02 -2.119646e+01
   endloop
 endfacet
 facet normal  1.713773e-16  9.143881e-15 -1.000000e+00
   outer loop
     vertex  5.657920e+02 -2.811218e+02 -2.119646e+01
     vertex  5.676356e+02 -2.815449e+02 -2.119646e+01
     vertex  5.668414e+02 -2.826956e+02 -2.119646e+01
   endloop
 endfacet
 facet normal -2.645467e-15  7.265706e-15 -1.000000e+00
   outer loop
     vertex  5.657920e+02 -2.811218e+02 -2.119646e+01
     vertex  5.668414e+02 -2.826956e+02 -2.119646e+01
     vertex  5.651525e+02 -2.818436e+02 -2.119646e+01
   endloop
 endfacet
 facet normal -4.598206e-15  3.293651e-15 -1.000000e+00
   outer loop
     vertex  5.643589e+02 -2.823914e+02 -2.119646e+01
     vertex  5.657948e+02 -2.836228e+02 -2.119646e+01
     vertex  5.645567e+02 -2.842726e+02 -2.119646e+01
   endloop
 endfacet
 facet normal -8.297971e-16  7.687680e-15 -1.000000e+00
   outer loop
     vertex  5.643589e+02 -2.823914e+02 -2.119646e+01
     vertex  5.651525e+02 -2.818436e+02 -2.119646e+01
     vertex  5.657948e+02 -2.836228e+02 -2.119646e+01
   endloop
 endfacet
 facet normal -3.779916e-15  1.433533e-15 -1.000000e+00
   outer loop
     vertex  5.662401e+02 -2.802680e+02 -2.119646e+01
     vertex  5.681315e+02 -2.802376e+02 -2.119646e+01
     vertex  5.676356e+02 -2.815449e+02 -2.119646e+01
   endloop
 endfacet
 facet normal -8.676659e-16  4.616169e-15 -1.000000e+00
   outer loop
     vertex  5.662401e+02 -2.802680e+02 -2.119646e+01
     vertex  5.676356e+02 -2.815449e+02 -2.119646e+01
     vertex  5.657920e+02 -2.811218e+02 -2.119646e+01
   endloop
 endfacet
 facet normal -9.674624e-16  3.925149e-15 -1.000000e+00
   outer loop
     vertex  5.634573e+02 -2.827334e+02 -2.119646e+01
     vertex  5.645567e+02 -2.842726e+02 -2.119646e+01
     vertex  5.631991e+02 -2.846072e+02 -2.119646e+01
   endloop
 endfacet
 facet normal -1.377532e-15  3.632252e-15 -1.000000e+00
   outer loop
     vertex  5.634573e+02 -2.827334e+02 -2.119646e+01
     vertex  5.643589e+02 -2.823914e+02 -2.119646e+01
     vertex  5.645567e+02 -2.842726e+02 -2.119646e+01
   endloop
 endfacet
 facet normal -2.091054e-15  7.932505e-15 -1.000000e+00
   outer loop
     vertex  5.664709e+02 -2.793317e+02 -2.119646e+01
     vertex  5.683000e+02 -2.788495e+02 -2.119646e+01
     vertex  5.681315e+02 -2.802376e+02 -2.119646e+01
   endloop
 endfacet
 facet normal -3.833081e-15  4.739220e-15 -1.000000e+00
   outer loop
     vertex  5.664709e+02 -2.793317e+02 -2.119646e+01
     vertex  5.681315e+02 -2.802376e+02 -2.119646e+01
     vertex  5.662401e+02 -2.802680e+02 -2.119646e+01
   endloop
 endfacet
 facet normal  0.000000e+00  4.042620e-15 -1.000000e+00
   outer loop
     vertex  5.625000e+02 -2.828496e+02 -2.119646e+01
     vertex  5.631991e+02 -2.846072e+02 -2.119646e+01
     vertex  5.618009e+02 -2.846072e+02 -2.119646e+01
   endloop
 endfacet
 facet normal -4.682482e-16  3.856371e-15 -1.000000e+00
   outer loop
     vertex  5.625000e+02 -2.828496e+02 -2.119646e+01
     vertex  5.634573e+02 -2.827334e+02 -2.119646e+01
     vertex  5.631991e+02 -2.846072e+02 -2.119646e+01
   endloop
 endfacet
 facet normal -6.125368e-16  5.044695e-15 -1.000000e+00
   outer loop
     vertex  5.664709e+02 -2.783674e+02 -2.119646e+01
     vertex  5.681315e+02 -2.774615e+02 -2.119646e+01
     vertex  5.683000e+02 -2.788495e+02 -2.119646e+01
   endloop
 endfacet
 facet normal -9.711736e-16  3.684190e-15 -1.000000e+00
   outer loop
     vertex  5.664709e+02 -2.783674e+02 -2.119646e+01
     vertex  5.683000e+02 -2.788495e+02 -2.119646e+01
     vertex  5.664709e+02 -2.793317e+02 -2.119646e+01
   endloop
 endfacet
 facet normal  3.676368e-15  4.298366e-15 -1.000000e+00
   outer loop
     vertex  5.615427e+02 -2.827334e+02 -2.119646e+01
     vertex  5.618009e+02 -2.846072e+02 -2.119646e+01
     vertex  5.604433e+02 -2.842726e+02 -2.119646e+01
   endloop
 endfacet
 facet normal  4.682482e-16  3.856371e-15 -1.000000e+00
   outer loop
     vertex  5.615427e+02 -2.827334e+02 -2.119646e+01
     vertex  5.625000e+02 -2.828496e+02 -2.119646e+01
     vertex  5.618009e+02 -2.846072e+02 -2.119646e+01
   endloop
 endfacet
 facet normal  8.794576e-17  5.468282e-15 -1.000000e+00
   outer loop
     vertex  5.662401e+02 -2.774311e+02 -2.119646e+01
     vertex  5.676356e+02 -2.761541e+02 -2.119646e+01
     vertex  5.681315e+02 -2.774615e+02 -2.119646e+01
   endloop
 endfacet
 facet normal  6.126859e-17  3.809551e-15 -1.000000e+00
   outer loop
     vertex  5.662401e+02 -2.774311e+02 -2.119646e+01
     vertex  5.681315e+02 -2.774615e+02 -2.119646e+01
     vertex  5.664709e+02 -2.783674e+02 -2.119646e+01
   endloop
 endfacet
 facet normal -1.034097e-15  7.662873e-15 -1.000000e+00
   outer loop
     vertex  5.606411e+02 -2.823914e+02 -2.119646e+01
     vertex  5.615427e+02 -2.827334e+02 -2.119646e+01
     vertex  5.604433e+02 -2.842726e+02 -2.119646e+01
   endloop
 endfacet
 facet normal  1.037892e-15  7.445037e-15 -1.000000e+00
   outer loop
     vertex  5.592052e+02 -2.836228e+02 -2.119646e+01
     vertex  5.606411e+02 -2.823914e+02 -2.119646e+01
     vertex  5.604433e+02 -2.842726e+02 -2.119646e+01
   endloop
 endfacet
 facet normal  3.439726e-15  1.805307e-15 -1.000000e+00
   outer loop
     vertex  5.657920e+02 -2.765772e+02 -2.119646e+01
     vertex  5.676356e+02 -2.761541e+02 -2.119646e+01
     vertex  5.662401e+02 -2.774311e+02 -2.119646e+01
   endloop
 endfacet
 facet normal  2.715384e-15  4.961685e-15 -1.000000e+00
   outer loop
     vertex  5.668414e+02 -2.750034e+02 -2.119646e+01
     vertex  5.676356e+02 -2.761541e+02 -2.119646e+01
     vertex  5.657920e+02 -2.765772e+02 -2.119646e+01
   endloop
 endfacet
 facet normal  8.297971e-16  7.687680e-15 -1.000000e+00
   outer loop
     vertex  5.598475e+02 -2.818436e+02 -2.119646e+01
     vertex  5.606411e+02 -2.823914e+02 -2.119646e+01
     vertex  5.592052e+02 -2.836228e+02 -2.119646e+01
   endloop
 endfacet
 facet normal  1.191599e-15  5.977692e-15 -1.000000e+00
   outer loop
     vertex  5.651525e+02 -2.758554e+02 -2.119646e+01
     vertex  5.668414e+02 -2.750034e+02 -2.119646e+01
     vertex  5.657920e+02 -2.765772e+02 -2.119646e+01
   endloop
 endfacet
 facet normal -2.354671e-15  8.837163e-15 -1.000000e+00
   outer loop
     vertex  5.581586e+02 -2.826956e+02 -2.119646e+01
     vertex  5.598475e+02 -2.818436e+02 -2.119646e+01
     vertex  5.592052e+02 -2.836228e+02 -2.119646e+01
   endloop
 endfacet
 facet normal -2.622685e-16  4.689678e-15 -1.000000e+00
   outer loop
     vertex  5.592080e+02 -2.811218e+02 -2.119646e+01
     vertex  5.598475e+02 -2.818436e+02 -2.119646e+01
     vertex  5.581586e+02 -2.826956e+02 -2.119646e+01
   endloop
 endfacet
 facet normal  2.173880e-16  7.908738e-15 -1.000000e+00
   outer loop
     vertex  5.657948e+02 -2.740762e+02 -2.119646e+01
     vertex  5.668414e+02 -2.750034e+02 -2.119646e+01
     vertex  5.651525e+02 -2.758554e+02 -2.119646e+01
   endloop
 endfacet
 facet normal -2.753922e-15  8.981278e-15 -1.000000e+00
   outer loop
     vertex  5.643589e+02 -2.753076e+02 -2.119646e+01
     vertex  5.657948e+02 -2.740762e+02 -2.119646e+01
     vertex  5.651525e+02 -2.758554e+02 -2.119646e+01
   endloop
 endfacet
 facet normal  8.676659e-16  4.616169e-15 -1.000000e+00
   outer loop
     vertex  5.573644e+02 -2.815449e+02 -2.119646e+01
     vertex  5.587599e+02 -2.802680e+02 -2.119646e+01
     vertex  5.592080e+02 -2.811218e+02 -2.119646e+01
   endloop
 endfacet
 facet normal  1.051878e-15  3.813450e-15 -1.000000e+00
   outer loop
     vertex  5.573644e+02 -2.815449e+02 -2.119646e+01
     vertex  5.592080e+02 -2.811218e+02 -2.119646e+01
     vertex  5.581586e+02 -2.826956e+02 -2.119646e+01
   endloop
 endfacet
 facet normal  9.854274e-17  5.655256e-15 -1.000000e+00
   outer loop
     vertex  5.645567e+02 -2.734264e+02 -2.119646e+01
     vertex  5.657948e+02 -2.740762e+02 -2.119646e+01
     vertex  5.643589e+02 -2.753076e+02 -2.119646e+01
   endloop
 endfacet
 facet normal -1.722863e-15  5.846747e-15 -1.000000e+00
   outer loop
     vertex  5.645567e+02 -2.734264e+02 -2.119646e+01
     vertex  5.643589e+02 -2.753076e+02 -2.119646e+01
     vertex  5.634573e+02 -2.749657e+02 -2.119646e+01
   endloop
 endfacet
 facet normal  8.794576e-17  5.468282e-15 -1.000000e+00
   outer loop
     vertex  5.568685e+02 -2.802376e+02 -2.119646e+01
     vertex  5.587599e+02 -2.802680e+02 -2.119646e+01
     vertex  5.573644e+02 -2.815449e+02 -2.119646e+01
   endloop
 endfacet
 facet normal  6.126859e-17  3.809551e-15 -1.000000e+00
   outer loop
     vertex  5.568685e+02 -2.802376e+02 -2.119646e+01
     vertex  5.585291e+02 -2.793317e+02 -2.119646e+01
     vertex  5.587599e+02 -2.802680e+02 -2.119646e+01
   endloop
 endfacet
 facet normal  9.674624e-16  3.925149e-15 -1.000000e+00
   outer loop
     vertex  5.631991e+02 -2.730918e+02 -2.119646e+01
     vertex  5.645567e+02 -2.734264e+02 -2.119646e+01
     vertex  5.634573e+02 -2.749657e+02 -2.119646e+01
   endloop
 endfacet
 facet normal  4.682482e-16  3.856371e-15 -1.000000e+00
   outer loop
     vertex  5.631991e+02 -2.730918e+02 -2.119646e+01
     vertex  5.634573e+02 -2.749657e+02 -2.119646e+01
     vertex  5.625000e+02 -2.748495e+02 -2.119646e+01
   endloop
 endfacet
 facet normal -6.125368e-16  5.044695e-15 -1.000000e+00
   outer loop
     vertex  5.567000e+02 -2.788495e+02 -2.119646e+01
     vertex  5.585291e+02 -2.793317e+02 -2.119646e+01
     vertex  5.568685e+02 -2.802376e+02 -2.119646e+01
   endloop
 endfacet
 facet normal -9.711736e-16  3.684190e-15 -1.000000e+00
   outer loop
     vertex  5.567000e+02 -2.788495e+02 -2.119646e+01
     vertex  5.585291e+02 -2.783674e+02 -2.119646e+01
     vertex  5.585291e+02 -2.793317e+02 -2.119646e+01
   endloop
 endfacet
 facet normal  2.540873e-15  3.031965e-15 -1.000000e+00
   outer loop
     vertex  5.618009e+02 -2.730918e+02 -2.119646e+01
     vertex  5.631991e+02 -2.730918e+02 -2.119646e+01
     vertex  5.625000e+02 -2.748495e+02 -2.119646e+01
   endloop
 endfacet
 facet normal -2.341241e-16  1.928185e-15 -1.000000e+00
   outer loop
     vertex  5.618009e+02 -2.730918e+02 -2.119646e+01
     vertex  5.625000e+02 -2.748495e+02 -2.119646e+01
     vertex  5.615427e+02 -2.749657e+02 -2.119646e+01
   endloop
 endfacet
 facet normal -1.394036e-15  5.288337e-15 -1.000000e+00
   outer loop
     vertex  5.568685e+02 -2.774615e+02 -2.119646e+01
     vertex  5.585291e+02 -2.783674e+02 -2.119646e+01
     vertex  5.567000e+02 -2.788495e+02 -2.119646e+01
   endloop
 endfacet
 facet normal -1.947175e-15  4.274386e-15 -1.000000e+00
   outer loop
     vertex  5.568685e+02 -2.774615e+02 -2.119646e+01
     vertex  5.587599e+02 -2.774311e+02 -2.119646e+01
     vertex  5.585291e+02 -2.783674e+02 -2.119646e+01
   endloop
 endfacet
 facet normal -1.377532e-15  3.632252e-15 -1.000000e+00
   outer loop
     vertex  5.604433e+02 -2.734264e+02 -2.119646e+01
     vertex  5.615427e+02 -2.749657e+02 -2.119646e+01
     vertex  5.606411e+02 -2.753076e+02 -2.119646e+01
   endloop
 endfacet
 facet normal -3.192637e-15  2.335791e-15 -1.000000e+00
   outer loop
     vertex  5.604433e+02 -2.734264e+02 -2.119646e+01
     vertex  5.618009e+02 -2.730918e+02 -2.119646e+01
     vertex  5.615427e+02 -2.749657e+02 -2.119646e+01
   endloop
 endfacet
 facet normal -8.676659e-16  4.616169e-15 -1.000000e+00
   outer loop
     vertex  5.573644e+02 -2.761541e+02 -2.119646e+01
     vertex  5.592080e+02 -2.765772e+02 -2.119646e+01
     vertex  5.587599e+02 -2.774311e+02 -2.119646e+01
   endloop
 endfacet
 facet normal -1.933931e-15  3.450907e-15 -1.000000e+00
   outer loop
     vertex  5.573644e+02 -2.761541e+02 -2.119646e+01
     vertex  5.587599e+02 -2.774311e+02 -2.119646e+01
     vertex  5.568685e+02 -2.774615e+02 -2.119646e+01
   endloop
 endfacet
 facet normal -1.878699e-15  3.579563e-15 -1.000000e+00
   outer loop
     vertex  5.592052e+02 -2.740762e+02 -2.119646e+01
     vertex  5.604433e+02 -2.734264e+02 -2.119646e+01
     vertex  5.606411e+02 -2.753076e+02 -2.119646e+01
   endloop
 endfacet
 facet normal  2.735818e-16  6.089160e-15 -1.000000e+00
   outer loop
     vertex  5.592052e+02 -2.740762e+02 -2.119646e+01
     vertex  5.606411e+02 -2.753076e+02 -2.119646e+01
     vertex  5.598475e+02 -2.758554e+02 -2.119646e+01
   endloop
 endfacet
 facet normal -1.449071e-15  5.467342e-15 -1.000000e+00
   outer loop
     vertex  5.581586e+02 -2.750034e+02 -2.119646e+01
     vertex  5.592052e+02 -2.740762e+02 -2.119646e+01
     vertex  5.598475e+02 -2.758554e+02 -2.119646e+01
   endloop
 endfacet
 facet normal -1.191599e-15  5.977692e-15 -1.000000e+00
   outer loop
     vertex  5.581586e+02 -2.750034e+02 -2.119646e+01
     vertex  5.598475e+02 -2.758554e+02 -2.119646e+01
     vertex  5.592080e+02 -2.765772e+02 -2.119646e+01
   endloop
 endfacet
 facet normal -4.402504e-16  6.478665e-15 -1.000000e+00
   outer loop
     vertex  5.581586e+02 -2.750034e+02 -2.119646e+01
     vertex  5.592080e+02 -2.765772e+02 -2.119646e+01
     vertex  5.573644e+02 -2.761541e+02 -2.119646e+01
   endloop
 endfacet
 facet normal  6.059941e-02 -4.990811e-01  8.644338e-01
   outer loop
     vertex  5.615427e+02 -2.749657e+02 -1.439646e+01
     vertex  5.625000e+02 -2.755260e+02 -1.478709e+01
     vertex  5.625000e+02 -2.748495e+02 -1.439646e+01
   endloop
 endfacet
 facet normal  6.059941e-02 -4.990811e-01  8.644338e-01
   outer loop
     vertex  5.615427e+02 -2.749657e+02 -1.439646e+01
     vertex  5.617046e+02 -2.756226e+02 -1.478709e+01
     vertex  5.625000e+02 -2.755260e+02 -1.478709e+01
   endloop
 endfacet
 facet normal  1.782764e-01 -4.700763e-01  8.644338e-01
   outer loop
     vertex  5.606411e+02 -2.753076e+02 -1.439646e+01
     vertex  5.609555e+02 -2.759067e+02 -1.478709e+01
     vertex  5.617046e+02 -2.756226e+02 -1.478709e+01
   endloop
 endfacet
 facet normal  1.782764e-01 -4.700763e-01  8.644338e-01
   outer loop
     vertex  5.606411e+02 -2.753076e+02 -1.439646e+01
     vertex  5.617046e+02 -2.756226e+02 -1.478709e+01
     vertex  5.615427e+02 -2.749657e+02 -1.439646e+01
   endloop
 endfacet
 facet normal  2.855927e-01 -4.137524e-01  8.644338e-01
   outer loop
     vertex  5.598475e+02 -2.758554e+02 -1.439646e+01
     vertex  5.602961e+02 -2.763619e+02 -1.478709e+01
     vertex  5.609555e+02 -2.759067e+02 -1.478709e+01
   endloop
 endfacet
 facet normal  2.855927e-01 -4.137524e-01  8.644338e-01
   outer loop
     vertex  5.598475e+02 -2.758554e+02 -1.439646e+01
     vertex  5.609555e+02 -2.759067e+02 -1.478709e+01
     vertex  5.606411e+02 -2.753076e+02 -1.439646e+01
   endloop
 endfacet
 facet normal  3.763113e-01 -3.333827e-01  8.644338e-01
   outer loop
     vertex  5.592080e+02 -2.765772e+02 -1.439646e+01
     vertex  5.597648e+02 -2.769616e+02 -1.478709e+01
     vertex  5.602961e+02 -2.763619e+02 -1.478709e+01
   endloop
 endfacet
 facet normal  3.763113e-01 -3.333827e-01  8.644338e-01
   outer loop
     vertex  5.592080e+02 -2.765772e+02 -1.439646e+01
     vertex  5.602961e+02 -2.763619e+02 -1.478709e+01
     vertex  5.598475e+02 -2.758554e+02 -1.439646e+01
   endloop
 endfacet
 facet normal  4.451601e-01 -2.336380e-01  8.644338e-01
   outer loop
     vertex  5.587599e+02 -2.774311e+02 -1.439646e+01
     vertex  5.593925e+02 -2.776710e+02 -1.478709e+01
     vertex  5.597648e+02 -2.769616e+02 -1.478709e+01
   endloop
 endfacet
 facet normal  4.451601e-01 -2.336380e-01  8.644338e-01
   outer loop
     vertex  5.587599e+02 -2.774311e+02 -1.439646e+01
     vertex  5.597648e+02 -2.769616e+02 -1.478709e+01
     vertex  5.592080e+02 -2.765772e+02 -1.439646e+01
   endloop
 endfacet
 facet normal  4.881378e-01 -1.203152e-01  8.644338e-01
   outer loop
     vertex  5.585291e+02 -2.783674e+02 -1.439646e+01
     vertex  5.592007e+02 -2.784489e+02 -1.478709e+01
     vertex  5.593925e+02 -2.776710e+02 -1.478709e+01
   endloop
 endfacet
 facet normal  4.881378e-01 -1.203152e-01  8.644338e-01
   outer loop
     vertex  5.585291e+02 -2.783674e+02 -1.439646e+01
     vertex  5.593925e+02 -2.776710e+02 -1.478709e+01
     vertex  5.587599e+02 -2.774311e+02 -1.439646e+01
   endloop
 endfacet
 facet normal  5.027467e-01 -3.834361e-15  8.644338e-01
   outer loop
     vertex  5.585291e+02 -2.793317e+02 -1.439646e+01
     vertex  5.592007e+02 -2.792501e+02 -1.478709e+01
     vertex  5.592007e+02 -2.784489e+02 -1.478709e+01
   endloop
 endfacet
 facet normal  5.027467e-01 -1.592369e-15  8.644338e-01
   outer loop
     vertex  5.585291e+02 -2.793317e+02 -1.439646e+01
     vertex  5.592007e+02 -2.784489e+02 -1.478709e+01
     vertex  5.585291e+02 -2.783674e+02 -1.439646e+01
   endloop
 endfacet
 facet normal  4.881378e-01  1.203152e-01  8.644338e-01
   outer loop
     vertex  5.587599e+02 -2.802680e+02 -1.439646e+01
     vertex  5.593925e+02 -2.800281e+02 -1.478709e+01
     vertex  5.592007e+02 -2.792501e+02 -1.478709e+01
   endloop
 endfacet
 facet normal  4.881378e-01  1.203152e-01  8.644338e-01
   outer loop
     vertex  5.587599e+02 -2.802680e+02 -1.439646e+01
     vertex  5.592007e+02 -2.792501e+02 -1.478709e+01
     vertex  5.585291e+02 -2.793317e+02 -1.439646e+01
   endloop
 endfacet
 facet normal  4.451601e-01  2.336380e-01  8.644338e-01
   outer loop
     vertex  5.592080e+02 -2.811218e+02 -1.439646e+01
     vertex  5.597648e+02 -2.807375e+02 -1.478709e+01
     vertex  5.593925e+02 -2.800281e+02 -1.478709e+01
   endloop
 endfacet
 facet normal  4.451601e-01  2.336380e-01  8.644338e-01
   outer loop
     vertex  5.592080e+02 -2.811218e+02 -1.439646e+01
     vertex  5.593925e+02 -2.800281e+02 -1.478709e+01
     vertex  5.587599e+02 -2.802680e+02 -1.439646e+01
   endloop
 endfacet
 facet normal  3.763113e-01  3.333827e-01  8.644338e-01
   outer loop
     vertex  5.598475e+02 -2.818436e+02 -1.439646e+01
     vertex  5.602961e+02 -2.813372e+02 -1.478709e+01
     vertex  5.597648e+02 -2.807375e+02 -1.478709e+01
   endloop
 endfacet
 facet normal  3.763113e-01  3.333827e-01  8.644338e-01
   outer loop
     vertex  5.598475e+02 -2.818436e+02 -1.439646e+01
     vertex  5.597648e+02 -2.807375e+02 -1.478709e+01
     vertex  5.592080e+02 -2.811218e+02 -1.439646e+01
   endloop
 endfacet
 facet normal  2.855927e-01  4.137524e-01  8.644338e-01
   outer loop
     vertex  5.606411e+02 -2.823914e+02 -1.439646e+01
     vertex  5.609555e+02 -2.817923e+02 -1.478709e+01
     vertex  5.602961e+02 -2.813372e+02 -1.478709e+01
   endloop
 endfacet
 facet normal  2.855927e-01  4.137524e-01  8.644338e-01
   outer loop
     vertex  5.606411e+02 -2.823914e+02 -1.439646e+01
     vertex  5.602961e+02 -2.813372e+02 -1.478709e+01
     vertex  5.598475e+02 -2.818436e+02 -1.439646e+01
   endloop
 endfacet
 facet normal  1.782764e-01  4.700763e-01  8.644338e-01
   outer loop
     vertex  5.615427e+02 -2.827334e+02 -1.439646e+01
     vertex  5.609555e+02 -2.817923e+02 -1.478709e+01
     vertex  5.606411e+02 -2.823914e+02 -1.439646e+01
   endloop
 endfacet
 facet normal  1.782764e-01  4.700763e-01  8.644338e-01
   outer loop
     vertex  5.615427e+02 -2.827334e+02 -1.439646e+01
     vertex  5.617046e+02 -2.820765e+02 -1.478709e+01
     vertex  5.609555e+02 -2.817923e+02 -1.478709e+01
   endloop
 endfacet
 facet normal  6.059941e-02  4.990811e-01  8.644338e-01
   outer loop
     vertex  5.625000e+02 -2.828496e+02 -1.439646e+01
     vertex  5.617046e+02 -2.820765e+02 -1.478709e+01
     vertex  5.615427e+02 -2.827334e+02 -1.439646e+01
   endloop
 endfacet
 facet normal  6.059941e-02  4.990811e-01  8.644338e-01
   outer loop
     vertex  5.625000e+02 -2.828496e+02 -1.439646e+01
     vertex  5.625000e+02 -2.821730e+02 -1.478709e+01
     vertex  5.617046e+02 -2.820765e+02 -1.478709e+01
   endloop
 endfacet
 facet normal -6.059941e-02  4.990811e-01  8.644338e-01
   outer loop
     vertex  5.634573e+02 -2.827334e+02 -1.439646e+01
     vertex  5.625000e+02 -2.821730e+02 -1.478709e+01
     vertex  5.625000e+02 -2.828496e+02 -1.439646e+01
   endloop
 endfacet
 facet normal -6.059941e-02  4.990811e-01  8.644338e-01
   outer loop
     vertex  5.634573e+02 -2.827334e+02 -1.439646e+01
     vertex  5.632954e+02 -2.820765e+02 -1.478709e+01
     vertex  5.625000e+02 -2.821730e+02 -1.478709e+01
   endloop
 endfacet
 facet normal -1.782764e-01  4.700763e-01  8.644338e-01
   outer loop
     vertex  5.643589e+02 -2.823914e+02 -1.439646e+01
     vertex  5.632954e+02 -2.820765e+02 -1.478709e+01
     vertex  5.634573e+02 -2.827334e+02 -1.439646e+01
   endloop
 endfacet
 facet normal -1.782764e-01  4.700763e-01  8.644338e-01
   outer loop
     vertex  5.643589e+02 -2.823914e+02 -1.439646e+01
     vertex  5.640445e+02 -2.817923e+02 -1.478709e+01
     vertex  5.632954e+02 -2.820765e+02 -1.478709e+01
   endloop
 endfacet
 facet normal -2.855927e-01  4.137524e-01  8.644338e-01
   outer loop
     vertex  5.651525e+02 -2.818436e+02 -1.439646e+01
     vertex  5.640445e+02 -2.817923e+02 -1.478709e+01
     vertex  5.643589e+02 -2.823914e+02 -1.439646e+01
   endloop
 endfacet
 facet normal -2.855927e-01  4.137524e-01  8.644338e-01
   outer loop
     vertex  5.651525e+02 -2.818436e+02 -1.439646e+01
     vertex  5.647039e+02 -2.813372e+02 -1.478709e+01
     vertex  5.640445e+02 -2.817923e+02 -1.478709e+01
   endloop
 endfacet
 facet normal -3.763113e-01  3.333827e-01  8.644338e-01
   outer loop
     vertex  5.657920e+02 -2.811218e+02 -1.439646e+01
     vertex  5.647039e+02 -2.813372e+02 -1.478709e+01
     vertex  5.651525e+02 -2.818436e+02 -1.439646e+01
   endloop
 endfacet
 facet normal -3.763113e-01  3.333827e-01  8.644338e-01
   outer loop
     vertex  5.657920e+02 -2.811218e+02 -1.439646e+01
     vertex  5.652352e+02 -2.807375e+02 -1.478709e+01
     vertex  5.647039e+02 -2.813372e+02 -1.478709e+01
   endloop
 endfacet
 facet normal -4.451601e-01  2.336380e-01  8.644338e-01
   outer loop
     vertex  5.662401e+02 -2.802680e+02 -1.439646e+01
     vertex  5.652352e+02 -2.807375e+02 -1.478709e+01
     vertex  5.657920e+02 -2.811218e+02 -1.439646e+01
   endloop
 endfacet
 facet normal -4.451601e-01  2.336380e-01  8.644338e-01
   outer loop
     vertex  5.662401e+02 -2.802680e+02 -1.439646e+01
     vertex  5.656075e+02 -2.800281e+02 -1.478709e+01
     vertex  5.652352e+02 -2.807375e+02 -1.478709e+01
   endloop
 endfacet
 facet normal -4.881378e-01  1.203152e-01  8.644338e-01
   outer loop
     vertex  5.664709e+02 -2.793317e+02 -1.439646e+01
     vertex  5.656075e+02 -2.800281e+02 -1.478709e+01
     vertex  5.662401e+02 -2.802680e+02 -1.439646e+01
   endloop
 endfacet
 facet normal -4.881378e-01  1.203152e-01  8.644338e-01
   outer loop
     vertex  5.664709e+02 -2.793317e+02 -1.439646e+01
     vertex  5.657993e+02 -2.792501e+02 -1.478709e+01
     vertex  5.656075e+02 -2.800281e+02 -1.478709e+01
   endloop
 endfacet
 facet normal -5.027467e-01 -3.184739e-15  8.644338e-01
   outer loop
     vertex  5.664709e+02 -2.783674e+02 -1.439646e+01
     vertex  5.657993e+02 -2.792501e+02 -1.478709e+01
     vertex  5.664709e+02 -2.793317e+02 -1.439646e+01
   endloop
 endfacet
 facet normal -5.027467e-01 -3.834361e-15  8.644338e-01
   outer loop
     vertex  5.664709e+02 -2.783674e+02 -1.439646e+01
     vertex  5.657993e+02 -2.784489e+02 -1.478709e+01
     vertex  5.657993e+02 -2.792501e+02 -1.478709e+01
   endloop
 endfacet
 facet normal -4.881378e-01 -1.203152e-01  8.644338e-01
   outer loop
     vertex  5.662401e+02 -2.774311e+02 -1.439646e+01
     vertex  5.657993e+02 -2.784489e+02 -1.478709e+01
     vertex  5.664709e+02 -2.783674e+02 -1.439646e+01
   endloop
 endfacet
 facet normal -4.881378e-01 -1.203152e-01  8.644338e-01
   outer loop
     vertex  5.662401e+02 -2.774311e+02 -1.439646e+01
     vertex  5.656075e+02 -2.776710e+02 -1.478709e+01
     vertex  5.657993e+02 -2.784489e+02 -1.478709e+01
   endloop
 endfacet
 facet normal -4.451601e-01 -2.336380e-01  8.644338e-01
   outer loop
     vertex  5.657920e+02 -2.765772e+02 -1.439646e+01
     vertex  5.656075e+02 -2.776710e+02 -1.478709e+01
     vertex  5.662401e+02 -2.774311e+02 -1.439646e+01
   endloop
 endfacet
 facet normal -4.451601e-01 -2.336380e-01  8.644338e-01
   outer loop
     vertex  5.657920e+02 -2.765772e+02 -1.439646e+01
     vertex  5.652352e+02 -2.769616e+02 -1.478709e+01
     vertex  5.656075e+02 -2.776710e+02 -1.478709e+01
   endloop
 endfacet
 facet normal -3.763113e-01 -3.333827e-01  8.644338e-01
   outer loop
     vertex  5.651525e+02 -2.758554e+02 -1.439646e+01
     vertex  5.647039e+02 -2.763619e+02 -1.478709e+01
     vertex  5.652352e+02 -2.769616e+02 -1.478709e+01
   endloop
 endfacet
 facet normal -3.763113e-01 -3.333827e-01  8.644338e-01
   outer loop
     vertex  5.651525e+02 -2.758554e+02 -1.439646e+01
     vertex  5.652352e+02 -2.769616e+02 -1.478709e+01
     vertex  5.657920e+02 -2.765772e+02 -1.439646e+01
   endloop
 endfacet
 facet normal -2.855927e-01 -4.137524e-01  8.644338e-01
   outer loop
     vertex  5.640445e+02 -2.759067e+02 -1.478709e+01
     vertex  5.647039e+02 -2.763619e+02 -1.478709e+01
     vertex  5.651525e+02 -2.758554e+02 -1.439646e+01
   endloop
 endfacet
 facet normal -2.855927e-01 -4.137524e-01  8.644338e-01
   outer loop
     vertex  5.643589e+02 -2.753076e+02 -1.439646e+01
     vertex  5.640445e+02 -2.759067e+02 -1.478709e+01
     vertex  5.651525e+02 -2.758554e+02 -1.439646e+01
   endloop
 endfacet
 facet normal -1.782764e-01 -4.700763e-01  8.644338e-01
   outer loop
     vertex  5.634573e+02 -2.749657e+02 -1.439646e+01
     vertex  5.632954e+02 -2.756226e+02 -1.478709e+01
     vertex  5.640445e+02 -2.759067e+02 -1.478709e+01
   endloop
 endfacet
 facet normal -1.782764e-01 -4.700763e-01  8.644338e-01
   outer loop
     vertex  5.634573e+02 -2.749657e+02 -1.439646e+01
     vertex  5.640445e+02 -2.759067e+02 -1.478709e+01
     vertex  5.643589e+02 -2.753076e+02 -1.439646e+01
   endloop
 endfacet
 facet normal -6.059941e-02 -4.990811e-01  8.644338e-01
   outer loop
     vertex  5.625000e+02 -2.755260e+02 -1.478709e+01
     vertex  5.632954e+02 -2.756226e+02 -1.478709e+01
     vertex  5.634573e+02 -2.749657e+02 -1.439646e+01
   endloop
 endfacet
 facet normal -6.059941e-02 -4.990811e-01  8.644338e-01
   outer loop
     vertex  5.625000e+02 -2.748495e+02 -1.439646e+01
     vertex  5.625000e+02 -2.755260e+02 -1.478709e+01
     vertex  5.634573e+02 -2.749657e+02 -1.439646e+01
   endloop
 endfacet
 facet normal  1.086940e-16 -3.954369e-15  1.000000e+00
   outer loop
     vertex  5.651525e+02 -2.818436e+02 -1.439646e+01
     vertex  5.657948e+02 -2.836228e+02 -1.439646e+01
     vertex  5.668414e+02 -2.826956e+02 -1.439646e+01
   endloop
 endfacet
 facet normal  1.051878e-15 -3.813450e-15  1.000000e+00
   outer loop
     vertex  5.657920e+02 -2.811218e+02 -1.439646e+01
     vertex  5.668414e+02 -2.826956e+02 -1.439646e+01
     vertex  5.676356e+02 -2.815449e+02 -1.439646e+01
   endloop
 endfacet
 facet normal -2.622685e-16 -4.689678e-15  1.000000e+00
   outer loop
     vertex  5.657920e+02 -2.811218e+02 -1.439646e+01
     vertex  5.651525e+02 -2.818436e+02 -1.439646e+01
     vertex  5.668414e+02 -2.826956e+02 -1.439646e+01
   endloop
 endfacet
 facet normal  9.854274e-17 -5.655256e-15  1.000000e+00
   outer loop
     vertex  5.643589e+02 -2.823914e+02 -1.439646e+01
     vertex  5.645567e+02 -2.842726e+02 -1.439646e+01
     vertex  5.657948e+02 -2.836228e+02 -1.439646e+01
   endloop
 endfacet
 facet normal  2.206758e-15 -3.197041e-15  1.000000e+00
   outer loop
     vertex  5.643589e+02 -2.823914e+02 -1.439646e+01
     vertex  5.657948e+02 -2.836228e+02 -1.439646e+01
     vertex  5.651525e+02 -2.818436e+02 -1.439646e+01
   endloop
 endfacet
 facet normal  8.794576e-17 -5.468282e-15  1.000000e+00
   outer loop
     vertex  5.662401e+02 -2.802680e+02 -1.439646e+01
     vertex  5.676356e+02 -2.815449e+02 -1.439646e+01
     vertex  5.681315e+02 -2.802376e+02 -1.439646e+01
   endloop
 endfacet
 facet normal  8.676659e-16 -4.616169e-15  1.000000e+00
   outer loop
     vertex  5.662401e+02 -2.802680e+02 -1.439646e+01
     vertex  5.657920e+02 -2.811218e+02 -1.439646e+01
     vertex  5.676356e+02 -2.815449e+02 -1.439646e+01
   endloop
 endfacet
 facet normal  3.192637e-15 -2.335791e-15  1.000000e+00
   outer loop
     vertex  5.634573e+02 -2.827334e+02 -1.439646e+01
     vertex  5.631991e+02 -2.846072e+02 -1.439646e+01
     vertex  5.645567e+02 -2.842726e+02 -1.439646e+01
   endloop
 endfacet
 facet normal -1.722863e-15 -5.846747e-15  1.000000e+00
   outer loop
     vertex  5.634573e+02 -2.827334e+02 -1.439646e+01
     vertex  5.645567e+02 -2.842726e+02 -1.439646e+01
     vertex  5.643589e+02 -2.823914e+02 -1.439646e+01
   endloop
 endfacet
 facet normal  1.394036e-15 -5.288337e-15  1.000000e+00
   outer loop
     vertex  5.664709e+02 -2.793317e+02 -1.439646e+01
     vertex  5.681315e+02 -2.802376e+02 -1.439646e+01
     vertex  5.683000e+02 -2.788495e+02 -1.439646e+01
   endloop
 endfacet
 facet normal  1.225372e-16 -7.619103e-15  1.000000e+00
   outer loop
     vertex  5.664709e+02 -2.793317e+02 -1.439646e+01
     vertex  5.662401e+02 -2.802680e+02 -1.439646e+01
     vertex  5.681315e+02 -2.802376e+02 -1.439646e+01
   endloop
 endfacet
 facet normal -2.540873e-15 -5.053276e-15  1.000000e+00
   outer loop
     vertex  5.625000e+02 -2.828496e+02 -1.439646e+01
     vertex  5.618009e+02 -2.846072e+02 -1.439646e+01
     vertex  5.631991e+02 -2.846072e+02 -1.439646e+01
   endloop
 endfacet
 facet normal  4.008515e-15 -2.448198e-15  1.000000e+00
   outer loop
     vertex  5.625000e+02 -2.828496e+02 -1.439646e+01
     vertex  5.631991e+02 -2.846072e+02 -1.439646e+01
     vertex  5.634573e+02 -2.827334e+02 -1.439646e+01
   endloop
 endfacet
 facet normal  6.125368e-16 -5.044695e-15  1.000000e+00
   outer loop
     vertex  5.664709e+02 -2.783674e+02 -1.439646e+01
     vertex  5.683000e+02 -2.788495e+02 -1.439646e+01
     vertex  5.681315e+02 -2.774615e+02 -1.439646e+01
   endloop
 endfacet
 facet normal  9.711736e-16 -3.684190e-15  1.000000e+00
   outer loop
     vertex  5.664709e+02 -2.783674e+02 -1.439646e+01
     vertex  5.664709e+02 -2.793317e+02 -1.439646e+01
     vertex  5.683000e+02 -2.788495e+02 -1.439646e+01
   endloop
 endfacet
 facet normal  1.257712e-15 -5.514507e-15  1.000000e+00
   outer loop
     vertex  5.615427e+02 -2.827334e+02 -1.439646e+01
     vertex  5.604433e+02 -2.842726e+02 -1.439646e+01
     vertex  5.618009e+02 -2.846072e+02 -1.439646e+01
   endloop
 endfacet
 facet normal -7.023722e-16 -5.784556e-15  1.000000e+00
   outer loop
     vertex  5.615427e+02 -2.827334e+02 -1.439646e+01
     vertex  5.618009e+02 -2.846072e+02 -1.439646e+01
     vertex  5.625000e+02 -2.828496e+02 -1.439646e+01
   endloop
 endfacet
 facet normal -4.397288e-17 -2.734141e-15  1.000000e+00
   outer loop
     vertex  5.662401e+02 -2.774311e+02 -1.439646e+01
     vertex  5.681315e+02 -2.774615e+02 -1.439646e+01
     vertex  5.676356e+02 -2.761541e+02 -1.439646e+01
   endloop
 endfacet
 facet normal -6.126859e-17 -3.809551e-15  1.000000e+00
   outer loop
     vertex  5.662401e+02 -2.774311e+02 -1.439646e+01
     vertex  5.664709e+02 -2.783674e+02 -1.439646e+01
     vertex  5.681315e+02 -2.774615e+02 -1.439646e+01
   endloop
 endfacet
 facet normal -1.377532e-15 -3.632252e-15  1.000000e+00
   outer loop
     vertex  5.606411e+02 -2.823914e+02 -1.439646e+01
     vertex  5.604433e+02 -2.842726e+02 -1.439646e+01
     vertex  5.615427e+02 -2.827334e+02 -1.439646e+01
   endloop
 endfacet
 facet normal  8.408070e-16 -3.865475e-15  1.000000e+00
   outer loop
     vertex  5.592052e+02 -2.836228e+02 -1.439646e+01
     vertex  5.604433e+02 -2.842726e+02 -1.439646e+01
     vertex  5.606411e+02 -2.823914e+02 -1.439646e+01
   endloop
 endfacet
 facet normal  8.521971e-16 -3.713515e-15  1.000000e+00
   outer loop
     vertex  5.657920e+02 -2.765772e+02 -1.439646e+01
     vertex  5.662401e+02 -2.774311e+02 -1.439646e+01
     vertex  5.676356e+02 -2.761541e+02 -1.439646e+01
   endloop
 endfacet
 facet normal  1.223255e-15 -5.330430e-15  1.000000e+00
   outer loop
     vertex  5.668414e+02 -2.750034e+02 -1.439646e+01
     vertex  5.657920e+02 -2.765772e+02 -1.439646e+01
     vertex  5.676356e+02 -2.761541e+02 -1.439646e+01
   endloop
 endfacet
 facet normal  3.857300e-15 -7.382758e-15  1.000000e+00
   outer loop
     vertex  5.598475e+02 -2.818436e+02 -1.439646e+01
     vertex  5.592052e+02 -2.836228e+02 -1.439646e+01
     vertex  5.606411e+02 -2.823914e+02 -1.439646e+01
   endloop
 endfacet
 facet normal  2.622685e-16 -4.689678e-15  1.000000e+00
   outer loop
     vertex  5.651525e+02 -2.758554e+02 -1.439646e+01
     vertex  5.657920e+02 -2.765772e+02 -1.439646e+01
     vertex  5.668414e+02 -2.750034e+02 -1.439646e+01
   endloop
 endfacet
 facet normal -1.449071e-15 -5.467342e-15  1.000000e+00
   outer loop
     vertex  5.581586e+02 -2.826956e+02 -1.439646e+01
     vertex  5.592052e+02 -2.836228e+02 -1.439646e+01
     vertex  5.598475e+02 -2.818436e+02 -1.439646e+01
   endloop
 endfacet
 facet normal -2.907735e-15 -2.576029e-15  1.000000e+00
   outer loop
     vertex  5.592080e+02 -2.811218e+02 -1.439646e+01
     vertex  5.581586e+02 -2.826956e+02 -1.439646e+01
     vertex  5.598475e+02 -2.818436e+02 -1.439646e+01
   endloop
 endfacet
 facet normal -1.086940e-16 -3.954369e-15  1.000000e+00
   outer loop
     vertex  5.657948e+02 -2.740762e+02 -1.439646e+01
     vertex  5.651525e+02 -2.758554e+02 -1.439646e+01
     vertex  5.668414e+02 -2.750034e+02 -1.439646e+01
   endloop
 endfacet
 facet normal  1.376961e-15 -4.490639e-15  1.000000e+00
   outer loop
     vertex  5.643589e+02 -2.753076e+02 -1.439646e+01
     vertex  5.651525e+02 -2.758554e+02 -1.439646e+01
     vertex  5.657948e+02 -2.740762e+02 -1.439646e+01
   endloop
 endfacet
 facet normal  1.223255e-15 -5.330430e-15  1.000000e+00
   outer loop
     vertex  5.573644e+02 -2.815449e+02 -1.439646e+01
     vertex  5.581586e+02 -2.826956e+02 -1.439646e+01
     vertex  5.592080e+02 -2.811218e+02 -1.439646e+01
   endloop
 endfacet
 facet normal  8.521971e-16 -3.713515e-15  1.000000e+00
   outer loop
     vertex  5.573644e+02 -2.815449e+02 -1.439646e+01
     vertex  5.592080e+02 -2.811218e+02 -1.439646e+01
     vertex  5.587599e+02 -2.802680e+02 -1.439646e+01
   endloop
 endfacet
 facet normal  2.620964e-15 -5.941168e-15  1.000000e+00
   outer loop
     vertex  5.645567e+02 -2.734264e+02 -1.439646e+01
     vertex  5.643589e+02 -2.753076e+02 -1.439646e+01
     vertex  5.657948e+02 -2.740762e+02 -1.439646e+01
   endloop
 endfacet
 facet normal -2.066297e-15 -5.448378e-15  1.000000e+00
   outer loop
     vertex  5.645567e+02 -2.734264e+02 -1.439646e+01
     vertex  5.634573e+02 -2.749657e+02 -1.439646e+01
     vertex  5.643589e+02 -2.753076e+02 -1.439646e+01
   endloop
 endfacet
 facet normal  1.802012e-15 -4.751515e-15  1.000000e+00
   outer loop
     vertex  5.568685e+02 -2.802376e+02 -1.439646e+01
     vertex  5.573644e+02 -2.815449e+02 -1.439646e+01
     vertex  5.587599e+02 -2.802680e+02 -1.439646e+01
   endloop
 endfacet
 facet normal  1.763369e-15 -7.154269e-15  1.000000e+00
   outer loop
     vertex  5.568685e+02 -2.802376e+02 -1.439646e+01
     vertex  5.587599e+02 -2.802680e+02 -1.439646e+01
     vertex  5.585291e+02 -2.793317e+02 -1.439646e+01
   endloop
 endfacet
 facet normal -1.451194e-15 -5.887724e-15  1.000000e+00
   outer loop
     vertex  5.631991e+02 -2.730918e+02 -1.439646e+01
     vertex  5.634573e+02 -2.749657e+02 -1.439646e+01
     vertex  5.645567e+02 -2.734264e+02 -1.439646e+01
   endloop
 endfacet
 facet normal  3.072018e-15 -5.264543e-15  1.000000e+00
   outer loop
     vertex  5.631991e+02 -2.730918e+02 -1.439646e+01
     vertex  5.625000e+02 -2.748495e+02 -1.439646e+01
     vertex  5.634573e+02 -2.749657e+02 -1.439646e+01
   endloop
 endfacet
 facet normal -6.970179e-16 -2.644168e-15  1.000000e+00
   outer loop
     vertex  5.567000e+02 -2.788495e+02 -1.439646e+01
     vertex  5.568685e+02 -2.802376e+02 -1.439646e+01
     vertex  5.585291e+02 -2.793317e+02 -1.439646e+01
   endloop
 endfacet
 facet normal -4.855868e-16 -1.842095e-15  1.000000e+00
   outer loop
     vertex  5.567000e+02 -2.788495e+02 -1.439646e+01
     vertex  5.585291e+02 -2.793317e+02 -1.439646e+01
     vertex  5.585291e+02 -2.783674e+02 -1.439646e+01
   endloop
 endfacet
 facet normal  4.682482e-16 -3.856371e-15  1.000000e+00
   outer loop
     vertex  5.618009e+02 -2.730918e+02 -1.439646e+01
     vertex  5.615427e+02 -2.749657e+02 -1.439646e+01
     vertex  5.625000e+02 -2.748495e+02 -1.439646e+01
   endloop
 endfacet
 facet normal  0.000000e+00 -4.042620e-15  1.000000e+00
   outer loop
     vertex  5.618009e+02 -2.730918e+02 -1.439646e+01
     vertex  5.625000e+02 -2.748495e+02 -1.439646e+01
     vertex  5.631991e+02 -2.730918e+02 -1.439646e+01
   endloop
 endfacet
 facet normal  9.190288e-17 -5.714327e-15  1.000000e+00
   outer loop
     vertex  5.568685e+02 -2.774615e+02 -1.439646e+01
     vertex  5.585291e+02 -2.783674e+02 -1.439646e+01
     vertex  5.587599e+02 -2.774311e+02 -1.439646e+01
   endloop
 endfacet
 facet normal  3.907494e-16 -5.166516e-15  1.000000e+00
   outer loop
     vertex  5.568685e+02 -2.774615e+02 -1.439646e+01
     vertex  5.567000e+02 -2.788495e+02 -1.439646e+01
     vertex  5.585291e+02 -2.783674e+02 -1.439646e+01
   endloop
 endfacet
 facet normal  9.674624e-16 -3.925149e-15  1.000000e+00
   outer loop
     vertex  5.604433e+02 -2.734264e+02 -1.439646e+01
     vertex  5.615427e+02 -2.749657e+02 -1.439646e+01
     vertex  5.618009e+02 -2.730918e+02 -1.439646e+01
   endloop
 endfacet
 facet normal -1.722863e-15 -5.846747e-15  1.000000e+00
   outer loop
     vertex  5.604433e+02 -2.734264e+02 -1.439646e+01
     vertex  5.606411e+02 -2.753076e+02 -1.439646e+01
     vertex  5.615427e+02 -2.749657e+02 -1.439646e+01
   endloop
 endfacet
 facet normal  8.794576e-17 -5.468282e-15  1.000000e+00
   outer loop
     vertex  5.573644e+02 -2.761541e+02 -1.439646e+01
     vertex  5.568685e+02 -2.774615e+02 -1.439646e+01
     vertex  5.587599e+02 -2.774311e+02 -1.439646e+01
   endloop
 endfacet
 facet normal  8.676659e-16 -4.616169e-15  1.000000e+00
   outer loop
     vertex  5.573644e+02 -2.761541e+02 -1.439646e+01
     vertex  5.587599e+02 -2.774311e+02 -1.439646e+01
     vertex  5.592080e+02 -2.765772e+02 -1.439646e+01
   endloop
 endfacet
 facet normal  2.206758e-15 -3.197041e-15  1.000000e+00
   outer loop
     vertex  5.592052e+02 -2.740762e+02 -1.439646e+01
     vertex  5.598475e+02 -2.758554e+02 -1.439646e+01
     vertex  5.606411e+02 -2.753076e+02 -1.439646e+01
   endloop
 endfacet
 facet normal  9.854274e-17 -5.655256e-15  1.000000e+00
   outer loop
     vertex  5.592052e+02 -2.740762e+02 -1.439646e+01
     vertex  5.606411e+02 -2.753076e+02 -1.439646e+01
     vertex  5.604433e+02 -2.734264e+02 -1.439646e+01
   endloop
 endfacet
 facet normal  4.402504e-16 -6.478665e-15  1.000000e+00
   outer loop
     vertex  5.581586e+02 -2.750034e+02 -1.439646e+01
     vertex  5.573644e+02 -2.761541e+02 -1.439646e+01
     vertex  5.592080e+02 -2.765772e+02 -1.439646e+01
   endloop
 endfacet
 facet normal  1.191599e-15 -5.977692e-15  1.000000e+00
   outer loop
     vertex  5.581586e+02 -2.750034e+02 -1.439646e+01
     vertex  5.592080e+02 -2.765772e+02 -1.439646e+01
     vertex  5.598475e+02 -2.758554e+02 -1.439646e+01
   endloop
 endfacet
 facet normal  2.680753e-15 -3.025945e-15  1.000000e+00
   outer loop
     vertex  5.581586e+02 -2.750034e+02 -1.439646e+01
     vertex  5.598475e+02 -2.758554e+02 -1.439646e+01
     vertex  5.592052e+02 -2.740762e+02 -1.439646e+01
   endloop
 endfacet
 facet normal  4.990811e-01  6.059941e-02 -8.644338e-01
   outer loop
     vertex  5.700056e+02 -2.788495e+02 -2.021176e+01
     vertex  5.683000e+02 -2.788495e+02 -2.119646e+01
     vertex  5.681315e+02 -2.774615e+02 -2.119646e+01
   endloop
 endfacet
 facet normal  4.500616e-01  1.706858e-01 -8.765335e-01
   outer loop
     vertex  5.687144e+02 -2.766132e+02 -2.073196e+01
     vertex  5.681315e+02 -2.774615e+02 -2.119646e+01
     vertex  5.676356e+02 -2.761541e+02 -2.119646e+01
   endloop
 endfacet
 facet normal  5.221954e-01  1.046118e-01 -8.463855e-01
   outer loop
     vertex  5.687144e+02 -2.766132e+02 -2.073196e+01
     vertex  5.700056e+02 -2.788495e+02 -2.021176e+01
     vertex  5.681315e+02 -2.774615e+02 -2.119646e+01
   endloop
 endfacet
 facet normal  4.073637e-01  2.811829e-01 -8.689022e-01
   outer loop
     vertex  5.675439e+02 -2.745859e+02 -2.073196e+01
     vertex  5.676356e+02 -2.761541e+02 -2.119646e+01
     vertex  5.668414e+02 -2.750034e+02 -2.119646e+01
   endloop
 endfacet
 facet normal  4.766124e-01  2.751723e-01 -8.349377e-01
   outer loop
     vertex  5.675439e+02 -2.745859e+02 -2.073196e+01
     vertex  5.687144e+02 -2.766132e+02 -2.073196e+01
     vertex  5.676356e+02 -2.761541e+02 -2.119646e+01
   endloop
 endfacet
 facet normal  3.398011e-01  3.835562e-01 -8.587316e-01
   outer loop
     vertex  5.657948e+02 -2.740762e+02 -2.119646e+01
     vertex  5.675439e+02 -2.745859e+02 -2.073196e+01
     vertex  5.668414e+02 -2.750034e+02 -2.119646e+01
   endloop
 endfacet
 facet normal  2.287112e-01  4.357727e-01 -8.705133e-01
   outer loop
     vertex  5.662528e+02 -2.723495e+02 -2.021176e+01
     vertex  5.657948e+02 -2.740762e+02 -2.119646e+01
     vertex  5.645567e+02 -2.734264e+02 -2.119646e+01
   endloop
 endfacet
 facet normal  3.416517e-01  3.955597e-01 -8.525295e-01
   outer loop
     vertex  5.662528e+02 -2.723495e+02 -2.021176e+01
     vertex  5.675439e+02 -2.745859e+02 -2.073196e+01
     vertex  5.657948e+02 -2.740762e+02 -2.119646e+01
   endloop
 endfacet
 facet normal  1.164971e-01  4.726475e-01 -8.735175e-01
   outer loop
     vertex  5.636705e+02 -2.723495e+02 -2.073196e+01
     vertex  5.645567e+02 -2.734264e+02 -2.119646e+01
     vertex  5.631991e+02 -2.730918e+02 -2.119646e+01
   endloop
 endfacet
 facet normal  1.704283e-01  5.051720e-01 -8.460233e-01
   outer loop
     vertex  5.636705e+02 -2.723495e+02 -2.073196e+01
     vertex  5.662528e+02 -2.723495e+02 -2.021176e+01
     vertex  5.645567e+02 -2.734264e+02 -2.119646e+01
   endloop
 endfacet
 facet normal  2.153901e-15  5.304680e-01 -8.477050e-01
   outer loop
     vertex  5.613295e+02 -2.723495e+02 -2.073196e+01
     vertex  5.631991e+02 -2.730918e+02 -2.119646e+01
     vertex  5.618009e+02 -2.730918e+02 -2.119646e+01
   endloop
 endfacet
 facet normal  1.286536e-15  5.304680e-01 -8.477050e-01
   outer loop
     vertex  5.613295e+02 -2.723495e+02 -2.073196e+01
     vertex  5.636705e+02 -2.723495e+02 -2.073196e+01
     vertex  5.631991e+02 -2.730918e+02 -2.119646e+01
   endloop
 endfacet
 facet normal -1.164971e-01  4.726475e-01 -8.735175e-01
   outer loop
     vertex  5.604433e+02 -2.734264e+02 -2.119646e+01
     vertex  5.613295e+02 -2.723495e+02 -2.073196e+01
     vertex  5.618009e+02 -2.730918e+02 -2.119646e+01
   endloop
 endfacet
 facet normal -2.287112e-01  4.357727e-01 -8.705133e-01
   outer loop
     vertex  5.587472e+02 -2.723495e+02 -2.021176e+01
     vertex  5.604433e+02 -2.734264e+02 -2.119646e+01
     vertex  5.592052e+02 -2.740762e+02 -2.119646e+01
   endloop
 endfacet
 facet normal -1.704283e-01  5.051720e-01 -8.460233e-01
   outer loop
     vertex  5.587472e+02 -2.723495e+02 -2.021176e+01
     vertex  5.613295e+02 -2.723495e+02 -2.073196e+01
     vertex  5.604433e+02 -2.734264e+02 -2.119646e+01
   endloop
 endfacet
 facet normal -3.398011e-01  3.835562e-01 -8.587316e-01
   outer loop
     vertex  5.574561e+02 -2.745859e+02 -2.073196e+01
     vertex  5.592052e+02 -2.740762e+02 -2.119646e+01
     vertex  5.581586e+02 -2.750034e+02 -2.119646e+01
   endloop
 endfacet
 facet normal -3.416517e-01  3.955597e-01 -8.525295e-01
   outer loop
     vertex  5.574561e+02 -2.745859e+02 -2.073196e+01
     vertex  5.587472e+02 -2.723495e+02 -2.021176e+01
     vertex  5.592052e+02 -2.740762e+02 -2.119646e+01
   endloop
 endfacet
 facet normal -4.073637e-01  2.811829e-01 -8.689022e-01
   outer loop
     vertex  5.573644e+02 -2.761541e+02 -2.119646e+01
     vertex  5.574561e+02 -2.745859e+02 -2.073196e+01
     vertex  5.581586e+02 -2.750034e+02 -2.119646e+01
   endloop
 endfacet
 facet normal -4.500616e-01  1.706858e-01 -8.765335e-01
   outer loop
     vertex  5.562856e+02 -2.766132e+02 -2.073196e+01
     vertex  5.573644e+02 -2.761541e+02 -2.119646e+01
     vertex  5.568685e+02 -2.774615e+02 -2.119646e+01
   endloop
 endfacet
 facet normal -4.766124e-01  2.751723e-01 -8.349377e-01
   outer loop
     vertex  5.562856e+02 -2.766132e+02 -2.073196e+01
     vertex  5.574561e+02 -2.745859e+02 -2.073196e+01
     vertex  5.573644e+02 -2.761541e+02 -2.119646e+01
   endloop
 endfacet
 facet normal -4.990811e-01 -6.059941e-02 -8.644338e-01
   outer loop
     vertex  5.549944e+02 -2.788495e+02 -2.021176e+01
     vertex  5.567000e+02 -2.788495e+02 -2.119646e+01
     vertex  5.568685e+02 -2.802376e+02 -2.119646e+01
   endloop
 endfacet
 facet normal -4.990811e-01  6.059941e-02 -8.644338e-01
   outer loop
     vertex  5.549944e+02 -2.788495e+02 -2.021176e+01
     vertex  5.568685e+02 -2.774615e+02 -2.119646e+01
     vertex  5.567000e+02 -2.788495e+02 -2.119646e+01
   endloop
 endfacet
 facet normal -5.221954e-01  1.046118e-01 -8.463855e-01
   outer loop
     vertex  5.549944e+02 -2.788495e+02 -2.021176e+01
     vertex  5.562856e+02 -2.766132e+02 -2.073196e+01
     vertex  5.568685e+02 -2.774615e+02 -2.119646e+01
   endloop
 endfacet
 facet normal -4.500616e-01 -1.706858e-01 -8.765335e-01
   outer loop
     vertex  5.562856e+02 -2.810859e+02 -2.073196e+01
     vertex  5.568685e+02 -2.802376e+02 -2.119646e+01
     vertex  5.573644e+02 -2.815449e+02 -2.119646e+01
   endloop
 endfacet
 facet normal -5.221954e-01 -1.046118e-01 -8.463855e-01
   outer loop
     vertex  5.562856e+02 -2.810859e+02 -2.073196e+01
     vertex  5.549944e+02 -2.788495e+02 -2.021176e+01
     vertex  5.568685e+02 -2.802376e+02 -2.119646e+01
   endloop
 endfacet
 facet normal -4.766124e-01 -2.751723e-01 -8.349377e-01
   outer loop
     vertex  5.574561e+02 -2.831132e+02 -2.073196e+01
     vertex  5.562856e+02 -2.810859e+02 -2.073196e+01
     vertex  5.573644e+02 -2.815449e+02 -2.119646e+01
   endloop
 endfacet
 facet normal -4.073637e-01 -2.811829e-01 -8.689022e-01
   outer loop
     vertex  5.574561e+02 -2.831132e+02 -2.073196e+01
     vertex  5.573644e+02 -2.815449e+02 -2.119646e+01
     vertex  5.581586e+02 -2.826956e+02 -2.119646e+01
   endloop
 endfacet
 facet normal -3.398011e-01 -3.835562e-01 -8.587316e-01
   outer loop
     vertex  5.592052e+02 -2.836228e+02 -2.119646e+01
     vertex  5.574561e+02 -2.831132e+02 -2.073196e+01
     vertex  5.581586e+02 -2.826956e+02 -2.119646e+01
   endloop
 endfacet
 facet normal -3.416517e-01 -3.955597e-01 -8.525295e-01
   outer loop
     vertex  5.587472e+02 -2.853495e+02 -2.021176e+01
     vertex  5.574561e+02 -2.831132e+02 -2.073196e+01
     vertex  5.592052e+02 -2.836228e+02 -2.119646e+01
   endloop
 endfacet
 facet normal -2.287112e-01 -4.357727e-01 -8.705133e-01
   outer loop
     vertex  5.587472e+02 -2.853495e+02 -2.021176e+01
     vertex  5.592052e+02 -2.836228e+02 -2.119646e+01
     vertex  5.604433e+02 -2.842726e+02 -2.119646e+01
   endloop
 endfacet
 facet normal -1.704283e-01 -5.051720e-01 -8.460233e-01
   outer loop
     vertex  5.613295e+02 -2.853495e+02 -2.073196e+01
     vertex  5.587472e+02 -2.853495e+02 -2.021176e+01
     vertex  5.604433e+02 -2.842726e+02 -2.119646e+01
   endloop
 endfacet
 facet normal -1.164971e-01 -4.726475e-01 -8.735175e-01
   outer loop
     vertex  5.613295e+02 -2.853495e+02 -2.073196e+01
     vertex  5.604433e+02 -2.842726e+02 -2.119646e+01
     vertex  5.618009e+02 -2.846072e+02 -2.119646e+01
   endloop
 endfacet
 facet normal -1.286536e-15 -5.304680e-01 -8.477050e-01
   outer loop
     vertex  5.636705e+02 -2.853495e+02 -2.073196e+01
     vertex  5.613295e+02 -2.853495e+02 -2.073196e+01
     vertex  5.618009e+02 -2.846072e+02 -2.119646e+01
   endloop
 endfacet
 facet normal -2.178049e-17 -5.304680e-01 -8.477050e-01
   outer loop
     vertex  5.636705e+02 -2.853495e+02 -2.073196e+01
     vertex  5.618009e+02 -2.846072e+02 -2.119646e+01
     vertex  5.631991e+02 -2.846072e+02 -2.119646e+01
   endloop
 endfacet
 facet normal  1.164971e-01 -4.726475e-01 -8.735175e-01
   outer loop
     vertex  5.645567e+02 -2.842726e+02 -2.119646e+01
     vertex  5.636705e+02 -2.853495e+02 -2.073196e+01
     vertex  5.631991e+02 -2.846072e+02 -2.119646e+01
   endloop
 endfacet
 facet normal  1.704283e-01 -5.051720e-01 -8.460233e-01
   outer loop
     vertex  5.662528e+02 -2.853495e+02 -2.021176e+01
     vertex  5.636705e+02 -2.853495e+02 -2.073196e+01
     vertex  5.645567e+02 -2.842726e+02 -2.119646e+01
   endloop
 endfacet
 facet normal  2.287112e-01 -4.357727e-01 -8.705133e-01
   outer loop
     vertex  5.662528e+02 -2.853495e+02 -2.021176e+01
     vertex  5.645567e+02 -2.842726e+02 -2.119646e+01
     vertex  5.657948e+02 -2.836228e+02 -2.119646e+01
   endloop
 endfacet
 facet normal  3.398011e-01 -3.835562e-01 -8.587316e-01
   outer loop
     vertex  5.675439e+02 -2.831132e+02 -2.073196e+01
     vertex  5.657948e+02 -2.836228e+02 -2.119646e+01
     vertex  5.668414e+02 -2.826956e+02 -2.119646e+01
   endloop
 endfacet
 facet normal  3.416517e-01 -3.955597e-01 -8.525295e-01
   outer loop
     vertex  5.675439e+02 -2.831132e+02 -2.073196e+01
     vertex  5.662528e+02 -2.853495e+02 -2.021176e+01
     vertex  5.657948e+02 -2.836228e+02 -2.119646e+01
   endloop
 endfacet
 facet normal  4.073637e-01 -2.811829e-01 -8.689022e-01
   outer loop
     vertex  5.676356e+02 -2.815449e+02 -2.119646e+01
     vertex  5.675439e+02 -2.831132e+02 -2.073196e+01
     vertex  5.668414e+02 -2.826956e+02 -2.119646e+01
   endloop
 endfacet
 facet normal  4.500616e-01 -1.706858e-01 -8.765335e-01
   outer loop
     vertex  5.687144e+02 -2.810859e+02 -2.073196e+01
     vertex  5.676356e+02 -2.815449e+02 -2.119646e+01
     vertex  5.681315e+02 -2.802376e+02 -2.119646e+01
   endloop
 endfacet
 facet normal  4.766124e-01 -2.751723e-01 -8.349377e-01
   outer loop
     vertex  5.687144e+02 -2.810859e+02 -2.073196e+01
     vertex  5.675439e+02 -2.831132e+02 -2.073196e+01
     vertex  5.676356e+02 -2.815449e+02 -2.119646e+01
   endloop
 endfacet
 facet normal  4.990811e-01 -6.059941e-02 -8.644338e-01
   outer loop
     vertex  5.700056e+02 -2.788495e+02 -2.021176e+01
     vertex  5.681315e+02 -2.802376e+02 -2.119646e+01
     vertex  5.683000e+02 -2.788495e+02 -2.119646e+01
   endloop
 endfacet
 facet normal  5.221954e-01 -1.046118e-01 -8.463855e-01
   outer loop
     vertex  5.700056e+02 -2.788495e+02 -2.021176e+01
     vertex  5.687144e+02 -2.810859e+02 -2.073196e+01
     vertex  5.681315e+02 -2.802376e+02 -2.119646e+01
   endloop
 endfacet
 facet normal  4.990811e-01 -6.059941e-02  8.644338e-01
   outer loop
     vertex  5.700056e+02 -2.788495e+02 -1.538116e+01
     vertex  5.683000e+02 -2.788495e+02 -1.439646e+01
     vertex  5.681315e+02 -2.802376e+02 -1.439646e+01
   endloop
 endfacet
 facet normal  4.500616e-01 -1.706858e-01  8.765335e-01
   outer loop
     vertex  5.687144e+02 -2.810859e+02 -1.486096e+01
     vertex  5.681315e+02 -2.802376e+02 -1.439646e+01
     vertex  5.676356e+02 -2.815449e+02 -1.439646e+01
   endloop
 endfacet
 facet normal  5.221954e-01 -1.046118e-01  8.463855e-01
   outer loop
     vertex  5.687144e+02 -2.810859e+02 -1.486096e+01
     vertex  5.700056e+02 -2.788495e+02 -1.538116e+01
     vertex  5.681315e+02 -2.802376e+02 -1.439646e+01
   endloop
 endfacet
 facet normal  4.073637e-01 -2.811829e-01  8.689022e-01
   outer loop
     vertex  5.675439e+02 -2.831132e+02 -1.486096e+01
     vertex  5.676356e+02 -2.815449e+02 -1.439646e+01
     vertex  5.668414e+02 -2.826956e+02 -1.439646e+01
   endloop
 endfacet
 facet normal  4.766124e-01 -2.751723e-01  8.349377e-01
   outer loop
     vertex  5.675439e+02 -2.831132e+02 -1.486096e+01
     vertex  5.687144e+02 -2.810859e+02 -1.486096e+01
     vertex  5.676356e+02 -2.815449e+02 -1.439646e+01
   endloop
 endfacet
 facet normal  3.398011e-01 -3.835562e-01  8.587316e-01
   outer loop
     vertex  5.657948e+02 -2.836228e+02 -1.439646e+01
     vertex  5.675439e+02 -2.831132e+02 -1.486096e+01
     vertex  5.668414e+02 -2.826956e+02 -1.439646e+01
   endloop
 endfacet
 facet normal  2.287112e-01 -4.357727e-01  8.705133e-01
   outer loop
     vertex  5.662528e+02 -2.853495e+02 -1.538116e+01
     vertex  5.657948e+02 -2.836228e+02 -1.439646e+01
     vertex  5.645567e+02 -2.842726e+02 -1.439646e+01
   endloop
 endfacet
 facet normal  3.416517e-01 -3.955597e-01  8.525295e-01
   outer loop
     vertex  5.662528e+02 -2.853495e+02 -1.538116e+01
     vertex  5.675439e+02 -2.831132e+02 -1.486096e+01
     vertex  5.657948e+02 -2.836228e+02 -1.439646e+01
   endloop
 endfacet
 facet normal  1.164971e-01 -4.726475e-01  8.735175e-01
   outer loop
     vertex  5.636705e+02 -2.853495e+02 -1.486096e+01
     vertex  5.645567e+02 -2.842726e+02 -1.439646e+01
     vertex  5.631991e+02 -2.846072e+02 -1.439646e+01
   endloop
 endfacet
 facet normal  1.704283e-01 -5.051720e-01  8.460233e-01
   outer loop
     vertex  5.636705e+02 -2.853495e+02 -1.486096e+01
     vertex  5.662528e+02 -2.853495e+02 -1.538116e+01
     vertex  5.645567e+02 -2.842726e+02 -1.439646e+01
   endloop
 endfacet
 facet normal -2.131544e-15 -5.304680e-01  8.477050e-01
   outer loop
     vertex  5.613295e+02 -2.853495e+02 -1.486096e+01
     vertex  5.631991e+02 -2.846072e+02 -1.439646e+01
     vertex  5.618009e+02 -2.846072e+02 -1.439646e+01
   endloop
 endfacet
 facet normal  2.640567e-14 -5.304680e-01  8.477050e-01
   outer loop
     vertex  5.613295e+02 -2.853495e+02 -1.486096e+01
     vertex  5.636705e+02 -2.853495e+02 -1.486096e+01
     vertex  5.631991e+02 -2.846072e+02 -1.439646e+01
   endloop
 endfacet
 facet normal -1.164971e-01 -4.726475e-01  8.735175e-01
   outer loop
     vertex  5.604433e+02 -2.842726e+02 -1.439646e+01
     vertex  5.613295e+02 -2.853495e+02 -1.486096e+01
     vertex  5.618009e+02 -2.846072e+02 -1.439646e+01
   endloop
 endfacet
 facet normal -2.287112e-01 -4.357727e-01  8.705133e-01
   outer loop
     vertex  5.587472e+02 -2.853495e+02 -1.538116e+01
     vertex  5.604433e+02 -2.842726e+02 -1.439646e+01
     vertex  5.592052e+02 -2.836228e+02 -1.439646e+01
   endloop
 endfacet
 facet normal -1.704283e-01 -5.051720e-01  8.460233e-01
   outer loop
     vertex  5.587472e+02 -2.853495e+02 -1.538116e+01
     vertex  5.613295e+02 -2.853495e+02 -1.486096e+01
     vertex  5.604433e+02 -2.842726e+02 -1.439646e+01
   endloop
 endfacet
 facet normal -3.398011e-01 -3.835562e-01  8.587316e-01
   outer loop
     vertex  5.574561e+02 -2.831132e+02 -1.486096e+01
     vertex  5.592052e+02 -2.836228e+02 -1.439646e+01
     vertex  5.581586e+02 -2.826956e+02 -1.439646e+01
   endloop
 endfacet
 facet normal -3.416517e-01 -3.955597e-01  8.525295e-01
   outer loop
     vertex  5.574561e+02 -2.831132e+02 -1.486096e+01
     vertex  5.587472e+02 -2.853495e+02 -1.538116e+01
     vertex  5.592052e+02 -2.836228e+02 -1.439646e+01
   endloop
 endfacet
 facet normal -4.073637e-01 -2.811829e-01  8.689022e-01
   outer loop
     vertex  5.573644e+02 -2.815449e+02 -1.439646e+01
     vertex  5.574561e+02 -2.831132e+02 -1.486096e+01
     vertex  5.581586e+02 -2.826956e+02 -1.439646e+01
   endloop
 endfacet
 facet normal -4.500616e-01 -1.706858e-01  8.765335e-01
   outer loop
     vertex  5.562856e+02 -2.810859e+02 -1.486096e+01
     vertex  5.573644e+02 -2.815449e+02 -1.439646e+01
     vertex  5.568685e+02 -2.802376e+02 -1.439646e+01
   endloop
 endfacet
 facet normal -4.766124e-01 -2.751723e-01  8.349377e-01
   outer loop
     vertex  5.562856e+02 -2.810859e+02 -1.486096e+01
     vertex  5.574561e+02 -2.831132e+02 -1.486096e+01
     vertex  5.573644e+02 -2.815449e+02 -1.439646e+01
   endloop
 endfacet
 facet normal -4.990811e-01  6.059941e-02  8.644338e-01
   outer loop
     vertex  5.549944e+02 -2.788495e+02 -1.538116e+01
     vertex  5.567000e+02 -2.788495e+02 -1.439646e+01
     vertex  5.568685e+02 -2.774615e+02 -1.439646e+01
   endloop
 endfacet
 facet normal -4.990811e-01 -6.059941e-02  8.644338e-01
   outer loop
     vertex  5.549944e+02 -2.788495e+02 -1.538116e+01
     vertex  5.568685e+02 -2.802376e+02 -1.439646e+01
     vertex  5.567000e+02 -2.788495e+02 -1.439646e+01
   endloop
 endfacet
 facet normal -5.221954e-01 -1.046118e-01  8.463855e-01
   outer loop
     vertex  5.549944e+02 -2.788495e+02 -1.538116e+01
     vertex  5.562856e+02 -2.810859e+02 -1.486096e+01
     vertex  5.568685e+02 -2.802376e+02 -1.439646e+01
   endloop
 endfacet
 facet normal -4.500616e-01  1.706858e-01  8.765335e-01
   outer loop
     vertex  5.562856e+02 -2.766132e+02 -1.486096e+01
     vertex  5.568685e+02 -2.774615e+02 -1.439646e+01
     vertex  5.573644e+02 -2.761541e+02 -1.439646e+01
   endloop
 endfacet
 facet normal -5.221954e-01  1.046118e-01  8.463855e-01
   outer loop
     vertex  5.562856e+02 -2.766132e+02 -1.486096e+01
     vertex  5.549944e+02 -2.788495e+02 -1.538116e+01
     vertex  5.568685e+02 -2.774615e+02 -1.439646e+01
   endloop
 endfacet
 facet normal -4.766124e-01  2.751723e-01  8.349377e-01
   outer loop
     vertex  5.574561e+02 -2.745859e+02 -1.486096e+01
     vertex  5.562856e+02 -2.766132e+02 -1.486096e+01
     vertex  5.573644e+02 -2.761541e+02 -1.439646e+01
   endloop
 endfacet
 facet normal -4.073637e-01  2.811829e-01  8.689022e-01
   outer loop
     vertex  5.574561e+02 -2.745859e+02 -1.486096e+01
     vertex  5.573644e+02 -2.761541e+02 -1.439646e+01
     vertex  5.581586e+02 -2.750034e+02 -1.439646e+01
   endloop
 endfacet
 facet normal -3.398011e-01  3.835562e-01  8.587316e-01
   outer loop
     vertex  5.592052e+02 -2.740762e+02 -1.439646e+01
     vertex  5.574561e+02 -2.745859e+02 -1.486096e+01
     vertex  5.581586e+02 -2.750034e+02 -1.439646e+01
   endloop
 endfacet
 facet normal -3.416517e-01  3.955597e-01  8.525295e-01
   outer loop
     vertex  5.587472e+02 -2.723495e+02 -1.538116e+01
     vertex  5.574561e+02 -2.745859e+02 -1.486096e+01
     vertex  5.592052e+02 -2.740762e+02 -1.439646e+01
   endloop
 endfacet
 facet normal -2.287112e-01  4.357727e-01  8.705133e-01
   outer loop
     vertex  5.587472e+02 -2.723495e+02 -1.538116e+01
     vertex  5.592052e+02 -2.740762e+02 -1.439646e+01
     vertex  5.604433e+02 -2.734264e+02 -1.439646e+01
   endloop
 endfacet
 facet normal -1.704283e-01  5.051720e-01  8.460233e-01
   outer loop
     vertex  5.613295e+02 -2.723495e+02 -1.486096e+01
     vertex  5.587472e+02 -2.723495e+02 -1.538116e+01
     vertex  5.604433e+02 -2.734264e+02 -1.439646e+01
   endloop
 endfacet
 facet normal -1.164971e-01  4.726475e-01  8.735175e-01
   outer loop
     vertex  5.613295e+02 -2.723495e+02 -1.486096e+01
     vertex  5.604433e+02 -2.734264e+02 -1.439646e+01
     vertex  5.618009e+02 -2.730918e+02 -1.439646e+01
   endloop
 endfacet
 facet normal -1.159467e-14  5.304680e-01  8.477050e-01
   outer loop
     vertex  5.636705e+02 -2.723495e+02 -1.486096e+01
     vertex  5.613295e+02 -2.723495e+02 -1.486096e+01
     vertex  5.618009e+02 -2.730918e+02 -1.439646e+01
   endloop
 endfacet
 facet normal -6.482635e-18  5.304680e-01  8.477050e-01
   outer loop
     vertex  5.636705e+02 -2.723495e+02 -1.486096e+01
     vertex  5.618009e+02 -2.730918e+02 -1.439646e+01
     vertex  5.631991e+02 -2.730918e+02 -1.439646e+01
   endloop
 endfacet
 facet normal  1.164971e-01  4.726475e-01  8.735175e-01
   outer loop
     vertex  5.645567e+02 -2.734264e+02 -1.439646e+01
     vertex  5.636705e+02 -2.723495e+02 -1.486096e+01
     vertex  5.631991e+02 -2.730918e+02 -1.439646e+01
   endloop
 endfacet
 facet normal  1.704283e-01  5.051720e-01  8.460233e-01
   outer loop
     vertex  5.662528e+02 -2.723495e+02 -1.538116e+01
     vertex  5.636705e+02 -2.723495e+02 -1.486096e+01
     vertex  5.645567e+02 -2.734264e+02 -1.439646e+01
   endloop
 endfacet
 facet normal  2.287112e-01  4.357727e-01  8.705133e-01
   outer loop
     vertex  5.662528e+02 -2.723495e+02 -1.538116e+01
     vertex  5.645567e+02 -2.734264e+02 -1.439646e+01
     vertex  5.657948e+02 -2.740762e+02 -1.439646e+01
   endloop
 endfacet
 facet normal  3.398011e-01  3.835562e-01  8.587316e-01
   outer loop
     vertex  5.675439e+02 -2.745859e+02 -1.486096e+01
     vertex  5.657948e+02 -2.740762e+02 -1.439646e+01
     vertex  5.668414e+02 -2.750034e+02 -1.439646e+01
   endloop
 endfacet
 facet normal  3.416517e-01  3.955597e-01  8.525295e-01
   outer loop
     vertex  5.675439e+02 -2.745859e+02 -1.486096e+01
     vertex  5.662528e+02 -2.723495e+02 -1.538116e+01
     vertex  5.657948e+02 -2.740762e+02 -1.439646e+01
   endloop
 endfacet
 facet normal  4.073637e-01  2.811829e-01  8.689022e-01
   outer loop
     vertex  5.676356e+02 -2.761541e+02 -1.439646e+01
     vertex  5.675439e+02 -2.745859e+02 -1.486096e+01
     vertex  5.668414e+02 -2.750034e+02 -1.439646e+01
   endloop
 endfacet
 facet normal  4.500616e-01  1.706858e-01  8.765335e-01
   outer loop
     vertex  5.687144e+02 -2.766132e+02 -1.486096e+01
     vertex  5.676356e+02 -2.761541e+02 -1.439646e+01
     vertex  5.681315e+02 -2.774615e+02 -1.439646e+01
   endloop
 endfacet
 facet normal  4.766124e-01  2.751723e-01  8.349377e-01
   outer loop
     vertex  5.687144e+02 -2.766132e+02 -1.486096e+01
     vertex  5.675439e+02 -2.745859e+02 -1.486096e+01
     vertex  5.676356e+02 -2.761541e+02 -1.439646e+01
   endloop
 endfacet
 facet normal  4.990811e-01  6.059941e-02  8.644338e-01
   outer loop
     vertex  5.700056e+02 -2.788495e+02 -1.538116e+01
     vertex  5.681315e+02 -2.774615e+02 -1.439646e+01
     vertex  5.683000e+02 -2.788495e+02 -1.439646e+01
   endloop
 endfacet
 facet normal  5.221954e-01  1.046118e-01  8.463855e-01
   outer loop
     vertex  5.700056e+02 -2.788495e+02 -1.538116e+01
     vertex  5.687144e+02 -2.766132e+02 -1.486096e+01
     vertex  5.681315e+02 -2.774615e+02 -1.439646e+01
   endloop
 endfacet
 facet normal -8.660254e-01  5.000000e-01  0.000000e+00
   outer loop
     vertex  5.574561e+02 -2.745859e+02 -1.486096e+01
     vertex  5.587472e+02 -2.723495e+02 -2.021176e+01
     vertex  5.574561e+02 -2.745859e+02 -2.073196e+01
   endloop
 endfacet
 facet normal -8.660254e-01  5.000000e-01  5.881621e-15
   outer loop
     vertex  5.574561e+02 -2.745859e+02 -1.486096e+01
     vertex  5.587472e+02 -2.723495e+02 -1.538116e+01
     vertex  5.587472e+02 -2.723495e+02 -2.021176e+01
   endloop
 endfacet
 facet normal -8.660254e-01  5.000000e-01  4.841036e-15
   outer loop
     vertex  5.562856e+02 -2.766132e+02 -1.486096e+01
     vertex  5.574561e+02 -2.745859e+02 -2.073196e+01
     vertex  5.562856e+02 -2.766132e+02 -2.073196e+01
   endloop
 endfacet
 facet normal -8.660254e-01  5.000000e-01  4.841036e-15
   outer loop
     vertex  5.562856e+02 -2.766132e+02 -1.486096e+01
     vertex  5.562856e+02 -2.766132e+02 -2.073196e+01
     vertex  5.549944e+02 -2.788495e+02 -2.021176e+01
   endloop
 endfacet
 facet normal -8.660254e-01  5.000000e-01 -1.232017e-17
   outer loop
     vertex  5.562856e+02 -2.766132e+02 -1.486096e+01
     vertex  5.574561e+02 -2.745859e+02 -1.486096e+01
     vertex  5.574561e+02 -2.745859e+02 -2.073196e+01
   endloop
 endfacet
 facet normal -8.660254e-01  5.000000e-01  5.883685e-15
   outer loop
     vertex  5.549944e+02 -2.788495e+02 -1.538116e+01
     vertex  5.562856e+02 -2.766132e+02 -1.486096e+01
     vertex  5.549944e+02 -2.788495e+02 -2.021176e+01
   endloop
 endfacet
 facet normal -2.370494e-15  1.000000e+00 -1.176737e-14
   outer loop
     vertex  5.662528e+02 -2.723495e+02 -2.021176e+01
     vertex  5.636705e+02 -2.723495e+02 -1.486096e+01
     vertex  5.662528e+02 -2.723495e+02 -1.538116e+01
   endloop
 endfacet
 facet normal  1.950418e-15  1.000000e+00 -9.682073e-15
   outer loop
     vertex  5.636705e+02 -2.723495e+02 -2.073196e+01
     vertex  5.636705e+02 -2.723495e+02 -1.486096e+01
     vertex  5.662528e+02 -2.723495e+02 -2.021176e+01
   endloop
 endfacet
 facet normal -2.201248e-14  1.000000e+00  0.000000e+00
   outer loop
     vertex  5.613295e+02 -2.723495e+02 -2.073196e+01
     vertex  5.587472e+02 -2.723495e+02 -1.538116e+01
     vertex  5.613295e+02 -2.723495e+02 -1.486096e+01
   endloop
 endfacet
 facet normal -2.428271e-14  1.000000e+00  0.000000e+00
   outer loop
     vertex  5.613295e+02 -2.723495e+02 -2.073196e+01
     vertex  5.613295e+02 -2.723495e+02 -1.486096e+01
     vertex  5.636705e+02 -2.723495e+02 -1.486096e+01
   endloop
 endfacet
 facet normal  1.469419e-29  1.000000e+00 -9.682073e-15
   outer loop
     vertex  5.613295e+02 -2.723495e+02 -2.073196e+01
     vertex  5.636705e+02 -2.723495e+02 -1.486096e+01
     vertex  5.636705e+02 -2.723495e+02 -2.073196e+01
   endloop
 endfacet
 facet normal  2.370494e-15  1.000000e+00  1.176737e-14
   outer loop
     vertex  5.587472e+02 -2.723495e+02 -2.021176e+01
     vertex  5.587472e+02 -2.723495e+02 -1.538116e+01
     vertex  5.613295e+02 -2.723495e+02 -2.073196e+01
   endloop
 endfacet
 facet normal -8.660254e-01 -5.000000e-01 -4.841036e-15
   outer loop
     vertex  5.574561e+02 -2.831132e+02 -1.486096e+01
     vertex  5.574561e+02 -2.831132e+02 -2.073196e+01
     vertex  5.587472e+02 -2.853495e+02 -2.021176e+01
   endloop
 endfacet
 facet normal -8.660254e-01 -5.000000e-01 -5.899128e-15
   outer loop
     vertex  5.574561e+02 -2.831132e+02 -1.486096e+01
     vertex  5.587472e+02 -2.853495e+02 -2.021176e+01
     vertex  5.587472e+02 -2.853495e+02 -1.538116e+01
   endloop
 endfacet
 facet normal -8.660254e-01 -5.000000e-01 -4.841036e-15
   outer loop
     vertex  5.562856e+02 -2.810859e+02 -1.486096e+01
     vertex  5.549944e+02 -2.788495e+02 -2.021176e+01
     vertex  5.562856e+02 -2.810859e+02 -2.073196e+01
   endloop
 endfacet
 facet normal -8.660254e-01 -5.000000e-01 -4.841036e-15
   outer loop
     vertex  5.562856e+02 -2.810859e+02 -1.486096e+01
     vertex  5.562856e+02 -2.810859e+02 -2.073196e+01
     vertex  5.574561e+02 -2.831132e+02 -2.073196e+01
   endloop
 endfacet
 facet normal -8.660254e-01 -5.000000e-01 -4.839969e-15
   outer loop
     vertex  5.562856e+02 -2.810859e+02 -1.486096e+01
     vertex  5.574561e+02 -2.831132e+02 -2.073196e+01
     vertex  5.574561e+02 -2.831132e+02 -1.486096e+01
   endloop
 endfacet
 facet normal -8.660254e-01 -5.000000e-01 -5.883685e-15
   outer loop
     vertex  5.549944e+02 -2.788495e+02 -1.538116e+01
     vertex  5.549944e+02 -2.788495e+02 -2.021176e+01
     vertex  5.562856e+02 -2.810859e+02 -1.486096e+01
   endloop
 endfacet
 facet normal -1.950418e-15 -1.000000e+00  9.682073e-15
   outer loop
     vertex  5.636705e+02 -2.853495e+02 -1.486096e+01
     vertex  5.636705e+02 -2.853495e+02 -2.073196e+01
     vertex  5.662528e+02 -2.853495e+02 -2.021176e+01
   endloop
 endfacet
 facet normal  2.370494e-15 -1.000000e+00  1.176737e-14
   outer loop
     vertex  5.636705e+02 -2.853495e+02 -1.486096e+01
     vertex  5.662528e+02 -2.853495e+02 -2.021176e+01
     vertex  5.662528e+02 -2.853495e+02 -1.538116e+01
   endloop
 endfacet
 facet normal -1.469419e-29 -1.000000e+00 -9.682073e-15
   outer loop
     vertex  5.613295e+02 -2.853495e+02 -1.486096e+01
     vertex  5.613295e+02 -2.853495e+02 -2.073196e+01
     vertex  5.636705e+02 -2.853495e+02 -2.073196e+01
   endloop
 endfacet
 facet normal  4.856543e-14 -1.000000e+00  9.682073e-15
   outer loop
     vertex  5.613295e+02 -2.853495e+02 -1.486096e+01
     vertex  5.636705e+02 -2.853495e+02 -2.073196e+01
     vertex  5.636705e+02 -2.853495e+02 -1.486096e+01
   endloop
 endfacet
 facet normal -2.370494e-15 -1.000000e+00 -1.176737e-14
   outer loop
     vertex  5.587472e+02 -2.853495e+02 -1.538116e+01
     vertex  5.587472e+02 -2.853495e+02 -2.021176e+01
     vertex  5.613295e+02 -2.853495e+02 -2.073196e+01
   endloop
 endfacet
 facet normal  1.950418e-15 -1.000000e+00 -9.682073e-15
   outer loop
     vertex  5.587472e+02 -2.853495e+02 -1.538116e+01
     vertex  5.613295e+02 -2.853495e+02 -2.073196e+01
     vertex  5.613295e+02 -2.853495e+02 -1.486096e+01
   endloop
 endfacet
 facet normal  8.660254e-01  5.000000e-01 -5.883685e-15
   outer loop
     vertex  5.700056e+02 -2.788495e+02 -2.021176e+01
     vertex  5.687144e+02 -2.766132e+02 -1.486096e+01
     vertex  5.700056e+02 -2.788495e+02 -1.538116e+01
   endloop
 endfacet
 facet normal  8.660254e-01  5.000000e-01 -0.000000e+00
   outer loop
     vertex  5.687144e+02 -2.766132e+02 -2.073196e+01
     vertex  5.687144e+02 -2.766132e+02 -1.486096e+01
     vertex  5.700056e+02 -2.788495e+02 -2.021176e+01
   endloop
 endfacet
 facet normal  8.660254e-01  5.000000e-01 -4.841036e-15
   outer loop
     vertex  5.675439e+02 -2.745859e+02 -2.073196e+01
     vertex  5.675439e+02 -2.745859e+02 -1.486096e+01
     vertex  5.687144e+02 -2.766132e+02 -1.486096e+01
   endloop
 endfacet
 facet normal  8.660254e-01  5.000000e-01  6.959551e-18
   outer loop
     vertex  5.675439e+02 -2.745859e+02 -2.073196e+01
     vertex  5.687144e+02 -2.766132e+02 -1.486096e+01
     vertex  5.687144e+02 -2.766132e+02 -2.073196e+01
   endloop
 endfacet
 facet normal  8.660254e-01  5.000000e-01 -5.883685e-15
   outer loop
     vertex  5.662528e+02 -2.723495e+02 -2.021176e+01
     vertex  5.662528e+02 -2.723495e+02 -1.538116e+01
     vertex  5.675439e+02 -2.745859e+02 -1.486096e+01
   endloop
 endfacet
 facet normal  8.660254e-01  5.000000e-01 -4.853743e-15
   outer loop
     vertex  5.662528e+02 -2.723495e+02 -2.021176e+01
     vertex  5.675439e+02 -2.745859e+02 -1.486096e+01
     vertex  5.675439e+02 -2.745859e+02 -2.073196e+01
   endloop
 endfacet
 facet normal  8.660254e-01 -5.000000e-01  0.000000e+00
   outer loop
     vertex  5.675439e+02 -2.831132e+02 -1.486096e+01
     vertex  5.662528e+02 -2.853495e+02 -2.021176e+01
     vertex  5.675439e+02 -2.831132e+02 -2.073196e+01
   endloop
 endfacet
 facet normal  8.660254e-01 -5.000000e-01  0.000000e+00
   outer loop
     vertex  5.675439e+02 -2.831132e+02 -1.486096e+01
     vertex  5.675439e+02 -2.831132e+02 -2.073196e+01
     vertex  5.687144e+02 -2.810859e+02 -2.073196e+01
   endloop
 endfacet
 facet normal  8.660254e-01 -5.000000e-01  5.881621e-15
   outer loop
     vertex  5.675439e+02 -2.831132e+02 -1.486096e+01
     vertex  5.662528e+02 -2.853495e+02 -1.538116e+01
     vertex  5.662528e+02 -2.853495e+02 -2.021176e+01
   endloop
 endfacet
 facet normal  8.660254e-01 -5.000000e-01  4.841036e-15
   outer loop
     vertex  5.687144e+02 -2.810859e+02 -1.486096e+01
     vertex  5.687144e+02 -2.810859e+02 -2.073196e+01
     vertex  5.700056e+02 -2.788495e+02 -2.021176e+01
   endloop
 endfacet
 facet normal  8.660254e-01 -5.000000e-01  4.841036e-15
   outer loop
     vertex  5.687144e+02 -2.810859e+02 -1.486096e+01
     vertex  5.675439e+02 -2.831132e+02 -1.486096e+01
     vertex  5.687144e+02 -2.810859e+02 -2.073196e+01
   endloop
 endfacet
 facet normal  8.660254e-01 -5.000000e-01  5.883685e-15
   outer loop
     vertex  5.700056e+02 -2.788495e+02 -1.538116e+01
     vertex  5.687144e+02 -2.810859e+02 -1.486096e+01
     vertex  5.700056e+02 -2.788495e+02 -2.021176e+01
   endloop
 endfacet
endsolid
