solid 
 facet normal -8.928507e-01  0.000000e+00  4.503529e-01
   outer loop
     vertex  6.534447e+02 -2.950000e+02  2.364489e+01
     vertex  6.539007e+02 -2.942000e+02  2.454891e+01
     vertex  6.534447e+02 -2.942000e+02  2.364489e+01
   endloop
 endfacet
 facet normal -9.746825e-01  0.000000e+00  2.235933e-01
   outer loop
     vertex  6.539007e+02 -2.950000e+02  2.454891e+01
     vertex  6.541271e+02 -2.942000e+02  2.553578e+01
     vertex  6.539007e+02 -2.942000e+02  2.454891e+01
   endloop
 endfacet
 facet normal -8.928507e-01  0.000000e+00  4.503529e-01
   outer loop
     vertex  6.539007e+02 -2.950000e+02  2.454891e+01
     vertex  6.539007e+02 -2.942000e+02  2.454891e+01
     vertex  6.534447e+02 -2.950000e+02  2.364489e+01
   endloop
 endfacet
 facet normal -9.998694e-01  0.000000e+00 -1.616074e-02
   outer loop
     vertex  6.541271e+02 -2.950000e+02  2.553578e+01
     vertex  6.541107e+02 -2.942000e+02  2.654816e+01
     vertex  6.541271e+02 -2.942000e+02  2.553578e+01
   endloop
 endfacet
 facet normal -9.746825e-01  0.000000e+00  2.235933e-01
   outer loop
     vertex  6.541271e+02 -2.950000e+02  2.553578e+01
     vertex  6.541271e+02 -2.942000e+02  2.553578e+01
     vertex  6.539007e+02 -2.950000e+02  2.454891e+01
   endloop
 endfacet
 facet normal -9.669475e-01 -1.521317e-13 -2.549755e-01
   outer loop
     vertex  6.541107e+02 -2.950000e+02  2.654816e+01
     vertex  6.538525e+02 -2.942000e+02  2.752720e+01
     vertex  6.541107e+02 -2.942000e+02  2.654816e+01
   endloop
 endfacet
 facet normal -9.998694e-01 -1.430230e-13 -1.616074e-02
   outer loop
     vertex  6.541107e+02 -2.950000e+02  2.654816e+01
     vertex  6.541107e+02 -2.942000e+02  2.654816e+01
     vertex  6.541271e+02 -2.950000e+02  2.553578e+01
   endloop
 endfacet
 facet normal -8.778301e-01 -1.247472e-13 -4.789721e-01
   outer loop
     vertex  6.538525e+02 -2.950000e+02  2.752720e+01
     vertex  6.533676e+02 -2.942000e+02  2.841601e+01
     vertex  6.538525e+02 -2.942000e+02  2.752720e+01
   endloop
 endfacet
 facet normal -9.669475e-01 -1.374115e-13 -2.549755e-01
   outer loop
     vertex  6.538525e+02 -2.950000e+02  2.752720e+01
     vertex  6.538525e+02 -2.942000e+02  2.752720e+01
     vertex  6.541107e+02 -2.950000e+02  2.654816e+01
   endloop
 endfacet
 facet normal -7.376964e-01 -1.199276e-14 -6.751325e-01
   outer loop
     vertex  6.533676e+02 -2.950000e+02  2.841601e+01
     vertex  6.526840e+02 -2.942000e+02  2.916294e+01
     vertex  6.533676e+02 -2.942000e+02  2.841601e+01
   endloop
 endfacet
 facet normal -8.778301e-01 -8.508254e-15 -4.789721e-01
   outer loop
     vertex  6.533676e+02 -2.950000e+02  2.841601e+01
     vertex  6.533676e+02 -2.942000e+02  2.841601e+01
     vertex  6.538525e+02 -2.950000e+02  2.752720e+01
   endloop
 endfacet
 facet normal -5.546905e-01  0.000000e+00 -8.320567e-01
   outer loop
     vertex  6.526840e+02 -2.950000e+02  2.916294e+01
     vertex  6.518415e+02 -2.942000e+02  2.972457e+01
     vertex  6.526840e+02 -2.942000e+02  2.916294e+01
   endloop
 endfacet
 facet normal -7.376964e-01  0.000000e+00 -6.751325e-01
   outer loop
     vertex  6.526840e+02 -2.950000e+02  2.916294e+01
     vertex  6.526840e+02 -2.942000e+02  2.916294e+01
     vertex  6.533676e+02 -2.950000e+02  2.841601e+01
   endloop
 endfacet
 facet normal -3.394480e-01  0.000000e+00 -9.406248e-01
   outer loop
     vertex  6.518415e+02 -2.950000e+02  2.972457e+01
     vertex  6.508891e+02 -2.942000e+02  3.006826e+01
     vertex  6.518415e+02 -2.942000e+02  2.972457e+01
   endloop
 endfacet
 facet normal -5.546905e-01  0.000000e+00 -8.320567e-01
   outer loop
     vertex  6.518415e+02 -2.950000e+02  2.972457e+01
     vertex  6.518415e+02 -2.942000e+02  2.972457e+01
     vertex  6.526840e+02 -2.950000e+02  2.916294e+01
   endloop
 endfacet
 facet normal -1.044780e-01 -6.747049e-14 -9.945272e-01
   outer loop
     vertex  6.508891e+02 -2.950000e+02  3.006826e+01
     vertex  6.498822e+02 -2.942000e+02  3.017404e+01
     vertex  6.508891e+02 -2.942000e+02  3.006826e+01
   endloop
 endfacet
 facet normal -3.394480e-01  4.578240e-15 -9.406248e-01
   outer loop
     vertex  6.508891e+02 -2.950000e+02  3.006826e+01
     vertex  6.508891e+02 -2.942000e+02  3.006826e+01
     vertex  6.518415e+02 -2.950000e+02  2.972457e+01
   endloop
 endfacet
 facet normal  1.365638e-01  0.000000e+00 -9.906313e-01
   outer loop
     vertex  6.498822e+02 -2.950000e+02  3.017404e+01
     vertex  6.488791e+02 -2.942000e+02  3.003577e+01
     vertex  6.498822e+02 -2.942000e+02  3.017404e+01
   endloop
 endfacet
 facet normal -1.044780e-01  0.000000e+00 -9.945272e-01
   outer loop
     vertex  6.498822e+02 -2.950000e+02  3.017404e+01
     vertex  6.498822e+02 -2.942000e+02  3.017404e+01
     vertex  6.508891e+02 -2.950000e+02  3.006826e+01
   endloop
 endfacet
 facet normal  3.696691e-01  1.114105e-13 -9.291635e-01
   outer loop
     vertex  6.488791e+02 -2.950000e+02  3.003577e+01
     vertex  6.479384e+02 -2.942000e+02  2.966148e+01
     vertex  6.488791e+02 -2.942000e+02  3.003577e+01
   endloop
 endfacet
 facet normal  1.365638e-01  1.187807e-13 -9.906313e-01
   outer loop
     vertex  6.488791e+02 -2.950000e+02  3.003577e+01
     vertex  6.488791e+02 -2.942000e+02  3.003577e+01
     vertex  6.498822e+02 -2.950000e+02  3.017404e+01
   endloop
 endfacet
 facet normal  3.696691e-01  0.000000e+00 -9.291635e-01
   outer loop
     vertex  6.479384e+02 -2.950000e+02  2.966148e+01
     vertex  6.479384e+02 -2.942000e+02  2.966148e+01
     vertex  6.488791e+02 -2.950000e+02  3.003577e+01
   endloop
 endfacet
 facet normal  5.812906e-01  0.000000e+00 -8.136960e-01
   outer loop
     vertex  6.479384e+02 -2.950000e+02  2.966148e+01
     vertex  6.471145e+02 -2.942000e+02  2.907292e+01
     vertex  6.479384e+02 -2.942000e+02  2.966148e+01
   endloop
 endfacet
 facet normal  5.812906e-01 -9.706051e-14 -8.136960e-01
   outer loop
     vertex  6.471145e+02 -2.950000e+02  2.907292e+01
     vertex  6.471145e+02 -2.942000e+02  2.907292e+01
     vertex  6.479384e+02 -2.950000e+02  2.966148e+01
   endloop
 endfacet
 facet normal  7.591295e-01 -1.194418e-13 -6.509396e-01
   outer loop
     vertex  6.471145e+02 -2.950000e+02  2.907292e+01
     vertex  6.464554e+02 -2.942000e+02  2.830429e+01
     vertex  6.471145e+02 -2.942000e+02  2.907292e+01
   endloop
 endfacet
 facet normal  7.591295e-01  1.078788e-13 -6.509396e-01
   outer loop
     vertex  6.464554e+02 -2.950000e+02  2.830429e+01
     vertex  6.464554e+02 -2.942000e+02  2.830429e+01
     vertex  6.471145e+02 -2.950000e+02  2.907292e+01
   endloop
 endfacet
 facet normal  8.928507e-01  1.268817e-13 -4.503529e-01
   outer loop
     vertex  6.464554e+02 -2.950000e+02  2.830429e+01
     vertex  6.459994e+02 -2.942000e+02  2.740027e+01
     vertex  6.464554e+02 -2.942000e+02  2.830429e+01
   endloop
 endfacet
 facet normal  8.928507e-01  6.199902e-14 -4.503529e-01
   outer loop
     vertex  6.459994e+02 -2.950000e+02  2.740027e+01
     vertex  6.459994e+02 -2.942000e+02  2.740027e+01
     vertex  6.464554e+02 -2.950000e+02  2.830429e+01
   endloop
 endfacet
 facet normal  9.746825e-01  3.079233e-14 -2.235933e-01
   outer loop
     vertex  6.457730e+02 -2.950000e+02  2.641340e+01
     vertex  6.459994e+02 -2.942000e+02  2.740027e+01
     vertex  6.459994e+02 -2.950000e+02  2.740027e+01
   endloop
 endfacet
 facet normal  9.746825e-01  2.948946e-13 -2.235933e-01
   outer loop
     vertex  6.457730e+02 -2.950000e+02  2.641340e+01
     vertex  6.457730e+02 -2.942000e+02  2.641340e+01
     vertex  6.459994e+02 -2.942000e+02  2.740027e+01
   endloop
 endfacet
 facet normal  9.998694e-01  2.828882e-13  1.616074e-02
   outer loop
     vertex  6.457730e+02 -2.950000e+02  2.641340e+01
     vertex  6.457894e+02 -2.942000e+02  2.540102e+01
     vertex  6.457730e+02 -2.942000e+02  2.641340e+01
   endloop
 endfacet
 facet normal  9.998694e-01 -0.000000e+00  1.616074e-02
   outer loop
     vertex  6.457894e+02 -2.950000e+02  2.540102e+01
     vertex  6.457894e+02 -2.942000e+02  2.540102e+01
     vertex  6.457730e+02 -2.950000e+02  2.641340e+01
   endloop
 endfacet
 facet normal  9.669475e-01 -0.000000e+00  2.549755e-01
   outer loop
     vertex  6.457894e+02 -2.950000e+02  2.540102e+01
     vertex  6.460476e+02 -2.942000e+02  2.442198e+01
     vertex  6.457894e+02 -2.942000e+02  2.540102e+01
   endloop
 endfacet
 facet normal  9.669475e-01 -0.000000e+00  2.549755e-01
   outer loop
     vertex  6.460476e+02 -2.950000e+02  2.442198e+01
     vertex  6.460476e+02 -2.942000e+02  2.442198e+01
     vertex  6.457894e+02 -2.950000e+02  2.540102e+01
   endloop
 endfacet
 facet normal  8.778301e-01 -0.000000e+00  4.789721e-01
   outer loop
     vertex  6.460476e+02 -2.950000e+02  2.442198e+01
     vertex  6.465325e+02 -2.942000e+02  2.353317e+01
     vertex  6.460476e+02 -2.942000e+02  2.442198e+01
   endloop
 endfacet
 facet normal  8.778301e-01  1.247472e-13  4.789721e-01
   outer loop
     vertex  6.465325e+02 -2.950000e+02  2.353317e+01
     vertex  6.465325e+02 -2.942000e+02  2.353317e+01
     vertex  6.460476e+02 -2.950000e+02  2.442198e+01
   endloop
 endfacet
 facet normal  7.376964e-01  1.048330e-13  6.751325e-01
   outer loop
     vertex  6.465325e+02 -2.950000e+02  2.353317e+01
     vertex  6.472161e+02 -2.942000e+02  2.278625e+01
     vertex  6.465325e+02 -2.942000e+02  2.353317e+01
   endloop
 endfacet
 facet normal  7.376964e-01  1.048330e-13  6.751325e-01
   outer loop
     vertex  6.472161e+02 -2.950000e+02  2.278625e+01
     vertex  6.472161e+02 -2.942000e+02  2.278625e+01
     vertex  6.465325e+02 -2.950000e+02  2.353317e+01
   endloop
 endfacet
 facet normal  5.546905e-01  7.882627e-14  8.320567e-01
   outer loop
     vertex  6.472161e+02 -2.950000e+02  2.278625e+01
     vertex  6.480586e+02 -2.942000e+02  2.222462e+01
     vertex  6.472161e+02 -2.942000e+02  2.278625e+01
   endloop
 endfacet
 facet normal  5.546905e-01 -0.000000e+00  8.320567e-01
   outer loop
     vertex  6.480586e+02 -2.950000e+02  2.222462e+01
     vertex  6.480586e+02 -2.942000e+02  2.222462e+01
     vertex  6.472161e+02 -2.950000e+02  2.278625e+01
   endloop
 endfacet
 facet normal  3.394480e-01 -0.000000e+00  9.406248e-01
   outer loop
     vertex  6.480586e+02 -2.950000e+02  2.222462e+01
     vertex  6.490109e+02 -2.942000e+02  2.188093e+01
     vertex  6.480586e+02 -2.942000e+02  2.222462e+01
   endloop
 endfacet
 facet normal  3.394480e-01 -0.000000e+00  9.406248e-01
   outer loop
     vertex  6.490109e+02 -2.950000e+02  2.188093e+01
     vertex  6.490109e+02 -2.942000e+02  2.188093e+01
     vertex  6.480586e+02 -2.950000e+02  2.222462e+01
   endloop
 endfacet
 facet normal  1.044780e-01 -6.706205e-19  9.945272e-01
   outer loop
     vertex  6.500179e+02 -2.950000e+02  2.177514e+01
     vertex  6.490109e+02 -2.942000e+02  2.188093e+01
     vertex  6.490109e+02 -2.950000e+02  2.188093e+01
   endloop
 endfacet
 facet normal  1.044780e-01 -0.000000e+00  9.945272e-01
   outer loop
     vertex  6.500179e+02 -2.950000e+02  2.177514e+01
     vertex  6.500179e+02 -2.942000e+02  2.177514e+01
     vertex  6.490109e+02 -2.942000e+02  2.188093e+01
   endloop
 endfacet
 facet normal -1.365638e-01  0.000000e+00  9.906313e-01
   outer loop
     vertex  6.500179e+02 -2.950000e+02  2.177514e+01
     vertex  6.510209e+02 -2.942000e+02  2.191341e+01
     vertex  6.500179e+02 -2.942000e+02  2.177514e+01
   endloop
 endfacet
 facet normal -1.365638e-01  7.798000e-16  9.906313e-01
   outer loop
     vertex  6.510209e+02 -2.950000e+02  2.191341e+01
     vertex  6.510209e+02 -2.942000e+02  2.191341e+01
     vertex  6.500179e+02 -2.950000e+02  2.177514e+01
   endloop
 endfacet
 facet normal -3.696691e-01 -6.792945e-14  9.291635e-01
   outer loop
     vertex  6.510209e+02 -2.950000e+02  2.191341e+01
     vertex  6.519617e+02 -2.942000e+02  2.228771e+01
     vertex  6.510209e+02 -2.942000e+02  2.191341e+01
   endloop
 endfacet
 facet normal -3.696691e-01  1.108948e-15  9.291635e-01
   outer loop
     vertex  6.519617e+02 -2.950000e+02  2.228771e+01
     vertex  6.519617e+02 -2.942000e+02  2.228771e+01
     vertex  6.510209e+02 -2.950000e+02  2.191341e+01
   endloop
 endfacet
 facet normal -5.812906e-01  0.000000e+00  8.136960e-01
   outer loop
     vertex  6.527856e+02 -2.950000e+02  2.287627e+01
     vertex  6.527856e+02 -2.942000e+02  2.287627e+01
     vertex  6.519617e+02 -2.942000e+02  2.228771e+01
   endloop
 endfacet
 facet normal -7.591295e-01  0.000000e+00  6.509396e-01
   outer loop
     vertex  6.527856e+02 -2.950000e+02  2.287627e+01
     vertex  6.534447e+02 -2.942000e+02  2.364489e+01
     vertex  6.527856e+02 -2.942000e+02  2.287627e+01
   endloop
 endfacet
 facet normal -5.812906e-01 -3.565400e-14  8.136960e-01
   outer loop
     vertex  6.527856e+02 -2.950000e+02  2.287627e+01
     vertex  6.519617e+02 -2.942000e+02  2.228771e+01
     vertex  6.519617e+02 -2.950000e+02  2.228771e+01
   endloop
 endfacet
 facet normal -7.591295e-01  0.000000e+00  6.509396e-01
   outer loop
     vertex  6.534447e+02 -2.950000e+02  2.364489e+01
     vertex  6.534447e+02 -2.942000e+02  2.364489e+01
     vertex  6.527856e+02 -2.950000e+02  2.287627e+01
   endloop
 endfacet
 facet normal  8.928507e-01  1.268904e-13 -4.503529e-01
   outer loop
     vertex  6.560641e+02 -2.950000e+02  2.376818e+01
     vertex  6.553584e+02 -2.950000e+02  2.236910e+01
     vertex  6.553584e+02 -2.942000e+02  2.236910e+01
   endloop
 endfacet
 facet normal  8.928507e-01  1.268817e-13 -4.503529e-01
   outer loop
     vertex  6.560641e+02 -2.950000e+02  2.376818e+01
     vertex  6.553584e+02 -2.942000e+02  2.236910e+01
     vertex  6.560641e+02 -2.942000e+02  2.376818e+01
   endloop
 endfacet
 facet normal  9.746825e-01  0.000000e+00 -2.235933e-01
   outer loop
     vertex  6.564145e+02 -2.950000e+02  2.529549e+01
     vertex  6.560641e+02 -2.942000e+02  2.376818e+01
     vertex  6.564145e+02 -2.942000e+02  2.529549e+01
   endloop
 endfacet
 facet normal  9.746825e-01  1.385287e-13 -2.235933e-01
   outer loop
     vertex  6.564145e+02 -2.950000e+02  2.529549e+01
     vertex  6.560641e+02 -2.950000e+02  2.376818e+01
     vertex  6.560641e+02 -2.942000e+02  2.376818e+01
   endloop
 endfacet
 facet normal  9.998694e-01  1.420900e-13  1.616074e-02
   outer loop
     vertex  6.563891e+02 -2.950000e+02  2.686226e+01
     vertex  6.564145e+02 -2.942000e+02  2.529549e+01
     vertex  6.563891e+02 -2.942000e+02  2.686226e+01
   endloop
 endfacet
 facet normal  9.998694e-01  2.485371e-18  1.616074e-02
   outer loop
     vertex  6.563891e+02 -2.950000e+02  2.686226e+01
     vertex  6.564145e+02 -2.950000e+02  2.529549e+01
     vertex  6.564145e+02 -2.942000e+02  2.529549e+01
   endloop
 endfacet
 facet normal  9.669475e-01  1.374115e-13  2.549755e-01
   outer loop
     vertex  6.559896e+02 -2.950000e+02  2.837744e+01
     vertex  6.563891e+02 -2.942000e+02  2.686226e+01
     vertex  6.559896e+02 -2.942000e+02  2.837744e+01
   endloop
 endfacet
 facet normal  9.669475e-01  1.374180e-13  2.549755e-01
   outer loop
     vertex  6.559896e+02 -2.950000e+02  2.837744e+01
     vertex  6.563891e+02 -2.950000e+02  2.686226e+01
     vertex  6.563891e+02 -2.942000e+02  2.686226e+01
   endloop
 endfacet
 facet normal  8.778301e-01  1.268742e-13  4.789721e-01
   outer loop
     vertex  6.552391e+02 -2.950000e+02  2.975298e+01
     vertex  6.559896e+02 -2.942000e+02  2.837744e+01
     vertex  6.552391e+02 -2.942000e+02  2.975298e+01
   endloop
 endfacet
 facet normal  8.778301e-01  1.247516e-13  4.789721e-01
   outer loop
     vertex  6.552391e+02 -2.950000e+02  2.975298e+01
     vertex  6.559896e+02 -2.950000e+02  2.837744e+01
     vertex  6.559896e+02 -2.942000e+02  2.837744e+01
   endloop
 endfacet
 facet normal  7.376964e-01 -0.000000e+00  6.751325e-01
   outer loop
     vertex  6.541811e+02 -2.950000e+02  3.090893e+01
     vertex  6.552391e+02 -2.942000e+02  2.975298e+01
     vertex  6.541811e+02 -2.942000e+02  3.090893e+01
   endloop
 endfacet
 facet normal  7.376964e-01  1.079034e-13  6.751325e-01
   outer loop
     vertex  6.541811e+02 -2.950000e+02  3.090893e+01
     vertex  6.552391e+02 -2.950000e+02  2.975298e+01
     vertex  6.552391e+02 -2.942000e+02  2.975298e+01
   endloop
 endfacet
 facet normal  5.546905e-01  8.252134e-14  8.320567e-01
   outer loop
     vertex  6.528773e+02 -2.950000e+02  3.177812e+01
     vertex  6.541811e+02 -2.942000e+02  3.090893e+01
     vertex  6.528773e+02 -2.942000e+02  3.177812e+01
   endloop
 endfacet
 facet normal  5.546905e-01  2.954076e-17  8.320567e-01
   outer loop
     vertex  6.528773e+02 -2.950000e+02  3.177812e+01
     vertex  6.541811e+02 -2.950000e+02  3.090893e+01
     vertex  6.541811e+02 -2.942000e+02  3.090893e+01
   endloop
 endfacet
 facet normal  3.394480e-01 -0.000000e+00  9.406248e-01
   outer loop
     vertex  6.514034e+02 -2.950000e+02  3.231003e+01
     vertex  6.528773e+02 -2.942000e+02  3.177812e+01
     vertex  6.514034e+02 -2.942000e+02  3.231003e+01
   endloop
 endfacet
 facet normal  3.394480e-01  5.238070e-14  9.406248e-01
   outer loop
     vertex  6.514034e+02 -2.950000e+02  3.231003e+01
     vertex  6.528773e+02 -2.950000e+02  3.177812e+01
     vertex  6.528773e+02 -2.942000e+02  3.177812e+01
   endloop
 endfacet
 facet normal  1.044780e-01  1.484722e-14  9.945272e-01
   outer loop
     vertex  6.498450e+02 -2.950000e+02  3.247374e+01
     vertex  6.514034e+02 -2.942000e+02  3.231003e+01
     vertex  6.498450e+02 -2.942000e+02  3.247374e+01
   endloop
 endfacet
 facet normal  1.044780e-01 -3.994704e-18  9.945272e-01
   outer loop
     vertex  6.498450e+02 -2.950000e+02  3.247374e+01
     vertex  6.514034e+02 -2.950000e+02  3.231003e+01
     vertex  6.514034e+02 -2.942000e+02  3.231003e+01
   endloop
 endfacet
 facet normal -1.365638e-01 -1.940689e-14  9.906313e-01
   outer loop
     vertex  6.482927e+02 -2.950000e+02  3.225975e+01
     vertex  6.498450e+02 -2.942000e+02  3.247374e+01
     vertex  6.482927e+02 -2.942000e+02  3.225975e+01
   endloop
 endfacet
 facet normal -1.365638e-01 -1.940626e-14  9.906313e-01
   outer loop
     vertex  6.482927e+02 -2.950000e+02  3.225975e+01
     vertex  6.498450e+02 -2.950000e+02  3.247374e+01
     vertex  6.498450e+02 -2.942000e+02  3.247374e+01
   endloop
 endfacet
 facet normal -3.696691e-01 -5.256612e-14  9.291635e-01
   outer loop
     vertex  6.468367e+02 -2.950000e+02  3.168049e+01
     vertex  6.482927e+02 -2.950000e+02  3.225975e+01
     vertex  6.482927e+02 -2.942000e+02  3.225975e+01
   endloop
 endfacet
 facet normal -3.696691e-01  0.000000e+00  9.291635e-01
   outer loop
     vertex  6.468367e+02 -2.950000e+02  3.168049e+01
     vertex  6.482927e+02 -2.942000e+02  3.225975e+01
     vertex  6.468367e+02 -2.942000e+02  3.168049e+01
   endloop
 endfacet
 facet normal -5.812906e-01  5.604835e-17  8.136960e-01
   outer loop
     vertex  6.455617e+02 -2.950000e+02  3.076962e+01
     vertex  6.468367e+02 -2.950000e+02  3.168049e+01
     vertex  6.468367e+02 -2.942000e+02  3.168049e+01
   endloop
 endfacet
 facet normal -5.812906e-01  0.000000e+00  8.136960e-01
   outer loop
     vertex  6.455617e+02 -2.950000e+02  3.076962e+01
     vertex  6.468367e+02 -2.942000e+02  3.168049e+01
     vertex  6.455617e+02 -2.942000e+02  3.076962e+01
   endloop
 endfacet
 facet normal -7.591295e-01 -6.715789e-17  6.509396e-01
   outer loop
     vertex  6.445417e+02 -2.950000e+02  2.958008e+01
     vertex  6.455617e+02 -2.950000e+02  3.076962e+01
     vertex  6.455617e+02 -2.942000e+02  3.076962e+01
   endloop
 endfacet
 facet normal -7.591295e-01  0.000000e+00  6.509396e-01
   outer loop
     vertex  6.445417e+02 -2.950000e+02  2.958008e+01
     vertex  6.455617e+02 -2.942000e+02  3.076962e+01
     vertex  6.445417e+02 -2.942000e+02  2.958008e+01
   endloop
 endfacet
 facet normal -8.928507e-01  3.141203e-17  4.503529e-01
   outer loop
     vertex  6.438360e+02 -2.950000e+02  2.818100e+01
     vertex  6.445417e+02 -2.950000e+02  2.958008e+01
     vertex  6.445417e+02 -2.942000e+02  2.958008e+01
   endloop
 endfacet
 facet normal -8.928507e-01 -1.008821e-13  4.503529e-01
   outer loop
     vertex  6.438360e+02 -2.950000e+02  2.818100e+01
     vertex  6.445417e+02 -2.942000e+02  2.958008e+01
     vertex  6.438360e+02 -2.942000e+02  2.818100e+01
   endloop
 endfacet
 facet normal -9.746825e-01 -1.256444e-13  2.235933e-01
   outer loop
     vertex  6.434856e+02 -2.950000e+02  2.665370e+01
     vertex  6.438360e+02 -2.950000e+02  2.818100e+01
     vertex  6.438360e+02 -2.942000e+02  2.818100e+01
   endloop
 endfacet
 facet normal -9.746825e-01  0.000000e+00  2.235933e-01
   outer loop
     vertex  6.434856e+02 -2.950000e+02  2.665370e+01
     vertex  6.438360e+02 -2.942000e+02  2.818100e+01
     vertex  6.434856e+02 -2.942000e+02  2.665370e+01
   endloop
 endfacet
 facet normal -9.998694e-01  2.318184e-18 -1.616074e-02
   outer loop
     vertex  6.435109e+02 -2.950000e+02  2.508693e+01
     vertex  6.434856e+02 -2.950000e+02  2.665370e+01
     vertex  6.434856e+02 -2.942000e+02  2.665370e+01
   endloop
 endfacet
 facet normal -9.998694e-01  0.000000e+00 -1.616074e-02
   outer loop
     vertex  6.435109e+02 -2.950000e+02  2.508693e+01
     vertex  6.434856e+02 -2.942000e+02  2.665370e+01
     vertex  6.435109e+02 -2.942000e+02  2.508693e+01
   endloop
 endfacet
 facet normal -9.669475e-01  4.400638e-17 -2.549755e-01
   outer loop
     vertex  6.439105e+02 -2.950000e+02  2.357174e+01
     vertex  6.435109e+02 -2.950000e+02  2.508693e+01
     vertex  6.435109e+02 -2.942000e+02  2.508693e+01
   endloop
 endfacet
 facet normal -9.669475e-01  0.000000e+00 -2.549755e-01
   outer loop
     vertex  6.439105e+02 -2.950000e+02  2.357174e+01
     vertex  6.435109e+02 -2.942000e+02  2.508693e+01
     vertex  6.439105e+02 -2.942000e+02  2.357174e+01
   endloop
 endfacet
 facet normal -8.778301e-01 -1.381877e-17 -4.789721e-01
   outer loop
     vertex  6.446610e+02 -2.950000e+02  2.219620e+01
     vertex  6.439105e+02 -2.950000e+02  2.357174e+01
     vertex  6.439105e+02 -2.942000e+02  2.357174e+01
   endloop
 endfacet
 facet normal -7.376964e-01  0.000000e+00 -6.751325e-01
   outer loop
     vertex  6.446610e+02 -2.950000e+02  2.219620e+01
     vertex  6.446610e+02 -2.942000e+02  2.219620e+01
     vertex  6.457189e+02 -2.942000e+02  2.104025e+01
   endloop
 endfacet
 facet normal -8.778301e-01  0.000000e+00 -4.789721e-01
   outer loop
     vertex  6.446610e+02 -2.950000e+02  2.219620e+01
     vertex  6.439105e+02 -2.942000e+02  2.357174e+01
     vertex  6.446610e+02 -2.942000e+02  2.219620e+01
   endloop
 endfacet
 facet normal -7.376964e-01 -1.468076e-13 -6.751325e-01
   outer loop
     vertex  6.457189e+02 -2.950000e+02  2.104025e+01
     vertex  6.446610e+02 -2.950000e+02  2.219620e+01
     vertex  6.457189e+02 -2.942000e+02  2.104025e+01
   endloop
 endfacet
 facet normal -3.394480e-01  0.000000e+00 -9.406248e-01
   outer loop
     vertex  6.470227e+02 -2.950000e+02  2.017106e+01
     vertex  6.470227e+02 -2.942000e+02  2.017106e+01
     vertex  6.484967e+02 -2.942000e+02  1.963916e+01
   endloop
 endfacet
 facet normal -5.546905e-01  0.000000e+00 -8.320567e-01
   outer loop
     vertex  6.470227e+02 -2.950000e+02  2.017106e+01
     vertex  6.457189e+02 -2.942000e+02  2.104025e+01
     vertex  6.470227e+02 -2.942000e+02  2.017106e+01
   endloop
 endfacet
 facet normal -5.546905e-01 -1.305506e-13 -8.320567e-01
   outer loop
     vertex  6.470227e+02 -2.950000e+02  2.017106e+01
     vertex  6.457189e+02 -2.950000e+02  2.104025e+01
     vertex  6.457189e+02 -2.942000e+02  2.104025e+01
   endloop
 endfacet
 facet normal -3.394480e-01  0.000000e+00 -9.406248e-01
   outer loop
     vertex  6.484967e+02 -2.950000e+02  1.963916e+01
     vertex  6.470227e+02 -2.950000e+02  2.017106e+01
     vertex  6.484967e+02 -2.942000e+02  1.963916e+01
   endloop
 endfacet
 facet normal -1.044780e-01 -1.484722e-14 -9.945272e-01
   outer loop
     vertex  6.500551e+02 -2.950000e+02  1.947544e+01
     vertex  6.484967e+02 -2.942000e+02  1.963916e+01
     vertex  6.500551e+02 -2.942000e+02  1.947544e+01
   endloop
 endfacet
 facet normal -1.044780e-01 -1.849137e-17 -9.945272e-01
   outer loop
     vertex  6.500551e+02 -2.950000e+02  1.947544e+01
     vertex  6.484967e+02 -2.950000e+02  1.963916e+01
     vertex  6.484967e+02 -2.942000e+02  1.963916e+01
   endloop
 endfacet
 facet normal  3.696691e-01  0.000000e+00 -9.291635e-01
   outer loop
     vertex  6.516074e+02 -2.950000e+02  1.968943e+01
     vertex  6.516074e+02 -2.942000e+02  1.968943e+01
     vertex  6.530634e+02 -2.942000e+02  2.026870e+01
   endloop
 endfacet
 facet normal  1.365638e-01  0.000000e+00 -9.906313e-01
   outer loop
     vertex  6.516074e+02 -2.950000e+02  1.968943e+01
     vertex  6.500551e+02 -2.942000e+02  1.947544e+01
     vertex  6.516074e+02 -2.942000e+02  1.968943e+01
   endloop
 endfacet
 facet normal  1.365638e-01  1.942381e-14 -9.906313e-01
   outer loop
     vertex  6.516074e+02 -2.950000e+02  1.968943e+01
     vertex  6.500551e+02 -2.950000e+02  1.947544e+01
     vertex  6.500551e+02 -2.942000e+02  1.947544e+01
   endloop
 endfacet
 facet normal  3.696691e-01  0.000000e+00 -9.291635e-01
   outer loop
     vertex  6.530634e+02 -2.950000e+02  2.026870e+01
     vertex  6.516074e+02 -2.950000e+02  1.968943e+01
     vertex  6.530634e+02 -2.942000e+02  2.026870e+01
   endloop
 endfacet
 facet normal  5.812906e-01  0.000000e+00 -8.136960e-01
   outer loop
     vertex  6.543384e+02 -2.950000e+02  2.117957e+01
     vertex  6.530634e+02 -2.942000e+02  2.026870e+01
     vertex  6.543384e+02 -2.942000e+02  2.117957e+01
   endloop
 endfacet
 facet normal  5.812906e-01  5.604835e-17 -8.136960e-01
   outer loop
     vertex  6.543384e+02 -2.950000e+02  2.117957e+01
     vertex  6.530634e+02 -2.950000e+02  2.026870e+01
     vertex  6.530634e+02 -2.942000e+02  2.026870e+01
   endloop
 endfacet
 facet normal  7.591295e-01  1.078788e-13 -6.509396e-01
   outer loop
     vertex  6.553584e+02 -2.950000e+02  2.236910e+01
     vertex  6.543384e+02 -2.942000e+02  2.117957e+01
     vertex  6.553584e+02 -2.942000e+02  2.236910e+01
   endloop
 endfacet
 facet normal  7.591295e-01  6.782883e-17 -6.509396e-01
   outer loop
     vertex  6.553584e+02 -2.950000e+02  2.236910e+01
     vertex  6.543384e+02 -2.950000e+02  2.117957e+01
     vertex  6.543384e+02 -2.942000e+02  2.117957e+01
   endloop
 endfacet
 facet normal  2.489280e-14 -1.000000e+00  4.023385e-16
   outer loop
     vertex  6.457894e+02 -2.950000e+02  2.540102e+01
     vertex  6.434856e+02 -2.950000e+02  2.665370e+01
     vertex  6.435109e+02 -2.950000e+02  2.508693e+01
   endloop
 endfacet
 facet normal  2.407317e-14 -1.000000e+00  6.347884e-15
   outer loop
     vertex  6.460476e+02 -2.950000e+02  2.442198e+01
     vertex  6.435109e+02 -2.950000e+02  2.508693e+01
     vertex  6.439105e+02 -2.950000e+02  2.357174e+01
   endloop
 endfacet
 facet normal  2.407317e-14 -1.000000e+00  6.347884e-15
   outer loop
     vertex  6.460476e+02 -2.950000e+02  2.442198e+01
     vertex  6.457894e+02 -2.950000e+02  2.540102e+01
     vertex  6.435109e+02 -2.950000e+02  2.508693e+01
   endloop
 endfacet
 facet normal  2.426575e-14 -1.000000e+00 -5.566589e-15
   outer loop
     vertex  6.457730e+02 -2.950000e+02  2.641340e+01
     vertex  6.438360e+02 -2.950000e+02  2.818100e+01
     vertex  6.434856e+02 -2.950000e+02  2.665370e+01
   endloop
 endfacet
 facet normal  2.489280e-14 -1.000000e+00  4.023385e-16
   outer loop
     vertex  6.457730e+02 -2.950000e+02  2.641340e+01
     vertex  6.434856e+02 -2.950000e+02  2.665370e+01
     vertex  6.457894e+02 -2.950000e+02  2.540102e+01
   endloop
 endfacet
 facet normal  4.370901e-14 -1.000000e+00  2.384903e-14
   outer loop
     vertex  6.465325e+02 -2.950000e+02  2.353317e+01
     vertex  6.439105e+02 -2.950000e+02  2.357174e+01
     vertex  6.446610e+02 -2.950000e+02  2.219620e+01
   endloop
 endfacet
 facet normal  4.276060e-14 -1.000000e+00 -4.062297e-14
   outer loop
     vertex  6.465325e+02 -2.950000e+02  2.353317e+01
     vertex  6.460476e+02 -2.950000e+02  2.442198e+01
     vertex  6.439105e+02 -2.950000e+02  2.357174e+01
   endloop
 endfacet
 facet normal  2.426575e-14 -1.000000e+00 -5.566589e-15
   outer loop
     vertex  6.459994e+02 -2.950000e+02  2.740027e+01
     vertex  6.438360e+02 -2.950000e+02  2.818100e+01
     vertex  6.457730e+02 -2.950000e+02  2.641340e+01
   endloop
 endfacet
 facet normal  4.610606e-14 -1.000000e+00 -6.978686e-15
   outer loop
     vertex  6.472161e+02 -2.950000e+02  2.278625e+01
     vertex  6.446610e+02 -2.950000e+02  2.219620e+01
     vertex  6.457189e+02 -2.950000e+02  2.104025e+01
   endloop
 endfacet
 facet normal  3.673146e-14 -1.000000e+00  3.361627e-14
   outer loop
     vertex  6.472161e+02 -2.950000e+02  2.278625e+01
     vertex  6.465325e+02 -2.950000e+02  2.353317e+01
     vertex  6.446610e+02 -2.950000e+02  2.219620e+01
   endloop
 endfacet
 facet normal  4.445691e-14 -1.000000e+00 -2.242401e-14
   outer loop
     vertex  6.464554e+02 -2.950000e+02  2.830429e+01
     vertex  6.445417e+02 -2.950000e+02  2.958008e+01
     vertex  6.438360e+02 -2.950000e+02  2.818100e+01
   endloop
 endfacet
 facet normal  4.142544e-14 -1.000000e+00  4.198365e-14
   outer loop
     vertex  6.464554e+02 -2.950000e+02  2.830429e+01
     vertex  6.438360e+02 -2.950000e+02  2.818100e+01
     vertex  6.459994e+02 -2.950000e+02  2.740027e+01
   endloop
 endfacet
 facet normal  4.643641e-14 -1.000000e+00  4.258003e-15
   outer loop
     vertex  6.480586e+02 -2.950000e+02  2.222462e+01
     vertex  6.457189e+02 -2.950000e+02  2.104025e+01
     vertex  6.470227e+02 -2.950000e+02  2.017106e+01
   endloop
 endfacet
 facet normal  5.674106e-14 -1.000000e+00 -1.609801e-14
   outer loop
     vertex  6.480586e+02 -2.950000e+02  2.222462e+01
     vertex  6.472161e+02 -2.950000e+02  2.278625e+01
     vertex  6.457189e+02 -2.950000e+02  2.104025e+01
   endloop
 endfacet
 facet normal  4.585644e-14 -1.000000e+00  8.465062e-15
   outer loop
     vertex  6.471145e+02 -2.950000e+02  2.907292e+01
     vertex  6.455617e+02 -2.950000e+02  3.076962e+01
     vertex  6.445417e+02 -2.950000e+02  2.958008e+01
   endloop
 endfacet
 facet normal  3.779865e-14 -1.000000e+00 -3.241165e-14
   outer loop
     vertex  6.471145e+02 -2.950000e+02  2.907292e+01
     vertex  6.445417e+02 -2.950000e+02  2.958008e+01
     vertex  6.464554e+02 -2.950000e+02  2.830429e+01
   endloop
 endfacet
 facet normal  3.561713e-14 -1.000000e+00 -8.170609e-15
   outer loop
     vertex  6.490109e+02 -2.950000e+02  2.188093e+01
     vertex  6.470227e+02 -2.950000e+02  2.017106e+01
     vertex  6.484967e+02 -2.950000e+02  1.963916e+01
   endloop
 endfacet
 facet normal  8.450915e-15 -1.000000e+00  2.341784e-14
   outer loop
     vertex  6.490109e+02 -2.950000e+02  2.188093e+01
     vertex  6.480586e+02 -2.950000e+02  2.222462e+01
     vertex  6.470227e+02 -2.950000e+02  2.017106e+01
   endloop
 endfacet
 facet normal  4.654976e-14 -1.000000e+00 -2.755082e-15
   outer loop
     vertex  6.479384e+02 -2.950000e+02  2.966148e+01
     vertex  6.468367e+02 -2.950000e+02  3.168049e+01
     vertex  6.455617e+02 -2.950000e+02  3.076962e+01
   endloop
 endfacet
 facet normal  5.619118e-14 -1.000000e+00  1.792332e-14
   outer loop
     vertex  6.479384e+02 -2.950000e+02  2.966148e+01
     vertex  6.455617e+02 -2.950000e+02  3.076962e+01
     vertex  6.471145e+02 -2.950000e+02  2.907292e+01
   endloop
 endfacet
 facet normal  3.561713e-14 -1.000000e+00 -8.170609e-15
   outer loop
     vertex  6.500551e+02 -2.950000e+02  1.947544e+01
     vertex  6.490109e+02 -2.950000e+02  2.188093e+01
     vertex  6.484967e+02 -2.950000e+02  1.963916e+01
   endloop
 endfacet
 facet normal  5.654615e-14 -1.000000e+00  9.139468e-16
   outer loop
     vertex  6.500179e+02 -2.950000e+02  2.177514e+01
     vertex  6.490109e+02 -2.950000e+02  2.188093e+01
     vertex  6.500551e+02 -2.950000e+02  1.947544e+01
   endloop
 endfacet
 facet normal  3.533447e-14 -1.000000e+00  9.317389e-15
   outer loop
     vertex  6.488791e+02 -2.950000e+02  3.003577e+01
     vertex  6.482927e+02 -2.950000e+02  3.225975e+01
     vertex  6.468367e+02 -2.950000e+02  3.168049e+01
   endloop
 endfacet
 facet normal  9.203301e-15 -1.000000e+00 -2.313250e-14
   outer loop
     vertex  6.488791e+02 -2.950000e+02  3.003577e+01
     vertex  6.468367e+02 -2.950000e+02  3.168049e+01
     vertex  6.479384e+02 -2.950000e+02  2.966148e+01
   endloop
 endfacet
 facet normal  5.468430e-14 -1.000000e+00  1.441977e-14
   outer loop
     vertex  6.516074e+02 -2.950000e+02  1.968943e+01
     vertex  6.510209e+02 -2.950000e+02  2.191341e+01
     vertex  6.500179e+02 -2.950000e+02  2.177514e+01
   endloop
 endfacet
 facet normal  3.653751e-14 -1.000000e+00  5.905502e-16
   outer loop
     vertex  6.516074e+02 -2.950000e+02  1.968943e+01
     vertex  6.500179e+02 -2.950000e+02  2.177514e+01
     vertex  6.500551e+02 -2.950000e+02  1.947544e+01
   endloop
 endfacet
 facet normal  5.468430e-14 -1.000000e+00  1.441977e-14
   outer loop
     vertex  6.498822e+02 -2.950000e+02  3.017404e+01
     vertex  6.482927e+02 -2.950000e+02  3.225975e+01
     vertex  6.488791e+02 -2.950000e+02  3.003577e+01
   endloop
 endfacet
 facet normal  3.653751e-14 -1.000000e+00  5.905502e-16
   outer loop
     vertex  6.498450e+02 -2.950000e+02  3.247374e+01
     vertex  6.482927e+02 -2.950000e+02  3.225975e+01
     vertex  6.498822e+02 -2.950000e+02  3.017404e+01
   endloop
 endfacet
 facet normal  3.533447e-14 -1.000000e+00  9.317389e-15
   outer loop
     vertex  6.530634e+02 -2.950000e+02  2.026870e+01
     vertex  6.510209e+02 -2.950000e+02  2.191341e+01
     vertex  6.516074e+02 -2.950000e+02  1.968943e+01
   endloop
 endfacet
 facet normal  9.203301e-15 -1.000000e+00 -2.313250e-14
   outer loop
     vertex  6.530634e+02 -2.950000e+02  2.026870e+01
     vertex  6.519617e+02 -2.950000e+02  2.228771e+01
     vertex  6.510209e+02 -2.950000e+02  2.191341e+01
   endloop
 endfacet
 facet normal  5.512175e-14 -1.000000e+00 -1.264499e-14
   outer loop
     vertex  6.514034e+02 -2.950000e+02  3.231003e+01
     vertex  6.498822e+02 -2.950000e+02  3.017404e+01
     vertex  6.508891e+02 -2.950000e+02  3.006826e+01
   endloop
 endfacet
 facet normal  3.653751e-14 -1.000000e+00  5.905502e-16
   outer loop
     vertex  6.514034e+02 -2.950000e+02  3.231003e+01
     vertex  6.498450e+02 -2.950000e+02  3.247374e+01
     vertex  6.498822e+02 -2.950000e+02  3.017404e+01
   endloop
 endfacet
 facet normal  4.654976e-14 -1.000000e+00 -2.755082e-15
   outer loop
     vertex  6.543384e+02 -2.950000e+02  2.117957e+01
     vertex  6.519617e+02 -2.950000e+02  2.228771e+01
     vertex  6.530634e+02 -2.950000e+02  2.026870e+01
   endloop
 endfacet
 facet normal  5.619118e-14 -1.000000e+00  1.792332e-14
   outer loop
     vertex  6.543384e+02 -2.950000e+02  2.117957e+01
     vertex  6.527856e+02 -2.950000e+02  2.287627e+01
     vertex  6.519617e+02 -2.950000e+02  2.228771e+01
   endloop
 endfacet
 facet normal  3.561713e-14 -1.000000e+00 -8.170609e-15
   outer loop
     vertex  6.528773e+02 -2.950000e+02  3.177812e+01
     vertex  6.514034e+02 -2.950000e+02  3.231003e+01
     vertex  6.508891e+02 -2.950000e+02  3.006826e+01
   endloop
 endfacet
 facet normal  8.450915e-15 -1.000000e+00  2.341784e-14
   outer loop
     vertex  6.528773e+02 -2.950000e+02  3.177812e+01
     vertex  6.508891e+02 -2.950000e+02  3.006826e+01
     vertex  6.518415e+02 -2.950000e+02  2.972457e+01
   endloop
 endfacet
 facet normal  6.430347e-14 -1.000000e+00 -4.754121e-15
   outer loop
     vertex  6.528773e+02 -2.950000e+02  3.177812e+01
     vertex  6.518415e+02 -2.950000e+02  2.972457e+01
     vertex  6.526840e+02 -2.950000e+02  2.916294e+01
   endloop
 endfacet
 facet normal  3.779865e-14 -1.000000e+00 -3.241165e-14
   outer loop
     vertex  6.553584e+02 -2.950000e+02  2.236910e+01
     vertex  6.534447e+02 -2.950000e+02  2.364489e+01
     vertex  6.527856e+02 -2.950000e+02  2.287627e+01
   endloop
 endfacet
 facet normal  4.585644e-14 -1.000000e+00  8.465062e-15
   outer loop
     vertex  6.553584e+02 -2.950000e+02  2.236910e+01
     vertex  6.527856e+02 -2.950000e+02  2.287627e+01
     vertex  6.543384e+02 -2.950000e+02  2.117957e+01
   endloop
 endfacet
 facet normal  4.154993e-14 -1.000000e+00 -3.071894e-15
   outer loop
     vertex  6.541811e+02 -2.950000e+02  3.090893e+01
     vertex  6.528773e+02 -2.950000e+02  3.177812e+01
     vertex  6.526840e+02 -2.950000e+02  2.916294e+01
   endloop
 endfacet
 facet normal  4.445691e-14 -1.000000e+00 -2.242401e-14
   outer loop
     vertex  6.560641e+02 -2.950000e+02  2.376818e+01
     vertex  6.534447e+02 -2.950000e+02  2.364489e+01
     vertex  6.553584e+02 -2.950000e+02  2.236910e+01
   endloop
 endfacet
 facet normal  2.426575e-14 -1.000000e+00 -5.566589e-15
   outer loop
     vertex  6.560641e+02 -2.950000e+02  2.376818e+01
     vertex  6.541271e+02 -2.950000e+02  2.553578e+01
     vertex  6.539007e+02 -2.950000e+02  2.454891e+01
   endloop
 endfacet
 facet normal  4.142544e-14 -1.000000e+00  4.198365e-14
   outer loop
     vertex  6.560641e+02 -2.950000e+02  2.376818e+01
     vertex  6.539007e+02 -2.950000e+02  2.454891e+01
     vertex  6.534447e+02 -2.950000e+02  2.364489e+01
   endloop
 endfacet
 facet normal  4.610606e-14 -1.000000e+00 -6.978686e-15
   outer loop
     vertex  6.552391e+02 -2.950000e+02  2.975298e+01
     vertex  6.541811e+02 -2.950000e+02  3.090893e+01
     vertex  6.526840e+02 -2.950000e+02  2.916294e+01
   endloop
 endfacet
 facet normal  3.673146e-14 -1.000000e+00  3.361627e-14
   outer loop
     vertex  6.552391e+02 -2.950000e+02  2.975298e+01
     vertex  6.526840e+02 -2.950000e+02  2.916294e+01
     vertex  6.533676e+02 -2.950000e+02  2.841601e+01
   endloop
 endfacet
 facet normal  2.426575e-14 -1.000000e+00 -5.566589e-15
   outer loop
     vertex  6.564145e+02 -2.950000e+02  2.529549e+01
     vertex  6.541271e+02 -2.950000e+02  2.553578e+01
     vertex  6.560641e+02 -2.950000e+02  2.376818e+01
   endloop
 endfacet
 facet normal  4.276060e-14 -1.000000e+00 -4.062297e-14
   outer loop
     vertex  6.559896e+02 -2.950000e+02  2.837744e+01
     vertex  6.533676e+02 -2.950000e+02  2.841601e+01
     vertex  6.538525e+02 -2.950000e+02  2.752720e+01
   endloop
 endfacet
 facet normal  4.370901e-14 -1.000000e+00  2.384903e-14
   outer loop
     vertex  6.559896e+02 -2.950000e+02  2.837744e+01
     vertex  6.552391e+02 -2.950000e+02  2.975298e+01
     vertex  6.533676e+02 -2.950000e+02  2.841601e+01
   endloop
 endfacet
 facet normal  2.407317e-14 -1.000000e+00  6.347884e-15
   outer loop
     vertex  6.563891e+02 -2.950000e+02  2.686226e+01
     vertex  6.538525e+02 -2.950000e+02  2.752720e+01
     vertex  6.541107e+02 -2.950000e+02  2.654816e+01
   endloop
 endfacet
 facet normal  2.489280e-14 -1.000000e+00  4.023385e-16
   outer loop
     vertex  6.563891e+02 -2.950000e+02  2.686226e+01
     vertex  6.541107e+02 -2.950000e+02  2.654816e+01
     vertex  6.541271e+02 -2.950000e+02  2.553578e+01
   endloop
 endfacet
 facet normal  2.407317e-14 -1.000000e+00  6.347884e-15
   outer loop
     vertex  6.563891e+02 -2.950000e+02  2.686226e+01
     vertex  6.559896e+02 -2.950000e+02  2.837744e+01
     vertex  6.538525e+02 -2.950000e+02  2.752720e+01
   endloop
 endfacet
 facet normal  2.489280e-14 -1.000000e+00  4.023385e-16
   outer loop
     vertex  6.563891e+02 -2.950000e+02  2.686226e+01
     vertex  6.541271e+02 -2.950000e+02  2.553578e+01
     vertex  6.564145e+02 -2.950000e+02  2.529549e+01
   endloop
 endfacet
 facet normal -2.489280e-14  1.000000e+00 -4.023385e-16
   outer loop
     vertex  6.457894e+02 -2.942000e+02  2.540102e+01
     vertex  6.435109e+02 -2.942000e+02  2.508693e+01
     vertex  6.434856e+02 -2.942000e+02  2.665370e+01
   endloop
 endfacet
 facet normal -2.407317e-14  1.000000e+00 -6.347884e-15
   outer loop
     vertex  6.460476e+02 -2.942000e+02  2.442198e+01
     vertex  6.439105e+02 -2.942000e+02  2.357174e+01
     vertex  6.435109e+02 -2.942000e+02  2.508693e+01
   endloop
 endfacet
 facet normal -2.407317e-14  1.000000e+00 -6.347884e-15
   outer loop
     vertex  6.460476e+02 -2.942000e+02  2.442198e+01
     vertex  6.435109e+02 -2.942000e+02  2.508693e+01
     vertex  6.457894e+02 -2.942000e+02  2.540102e+01
   endloop
 endfacet
 facet normal -2.426575e-14  1.000000e+00  5.566589e-15
   outer loop
     vertex  6.457730e+02 -2.942000e+02  2.641340e+01
     vertex  6.434856e+02 -2.942000e+02  2.665370e+01
     vertex  6.438360e+02 -2.942000e+02  2.818100e+01
   endloop
 endfacet
 facet normal -2.489280e-14  1.000000e+00 -4.023385e-16
   outer loop
     vertex  6.457730e+02 -2.942000e+02  2.641340e+01
     vertex  6.457894e+02 -2.942000e+02  2.540102e+01
     vertex  6.434856e+02 -2.942000e+02  2.665370e+01
   endloop
 endfacet
 facet normal -4.370901e-14  1.000000e+00 -2.384903e-14
   outer loop
     vertex  6.465325e+02 -2.942000e+02  2.353317e+01
     vertex  6.446610e+02 -2.942000e+02  2.219620e+01
     vertex  6.439105e+02 -2.942000e+02  2.357174e+01
   endloop
 endfacet
 facet normal -4.276060e-14  1.000000e+00  4.062297e-14
   outer loop
     vertex  6.465325e+02 -2.942000e+02  2.353317e+01
     vertex  6.439105e+02 -2.942000e+02  2.357174e+01
     vertex  6.460476e+02 -2.942000e+02  2.442198e+01
   endloop
 endfacet
 facet normal -2.222845e-14  1.000000e+00  1.121201e-14
   outer loop
     vertex  6.459994e+02 -2.942000e+02  2.740027e+01
     vertex  6.438360e+02 -2.942000e+02  2.818100e+01
     vertex  6.445417e+02 -2.942000e+02  2.958008e+01
   endloop
 endfacet
 facet normal -2.426575e-14  1.000000e+00  5.566589e-15
   outer loop
     vertex  6.459994e+02 -2.942000e+02  2.740027e+01
     vertex  6.457730e+02 -2.942000e+02  2.641340e+01
     vertex  6.438360e+02 -2.942000e+02  2.818100e+01
   endloop
 endfacet
 facet normal -4.610606e-14  1.000000e+00  6.978686e-15
   outer loop
     vertex  6.472161e+02 -2.942000e+02  2.278625e+01
     vertex  6.457189e+02 -2.942000e+02  2.104025e+01
     vertex  6.446610e+02 -2.942000e+02  2.219620e+01
   endloop
 endfacet
 facet normal -3.673146e-14  1.000000e+00 -3.361627e-14
   outer loop
     vertex  6.472161e+02 -2.942000e+02  2.278625e+01
     vertex  6.446610e+02 -2.942000e+02  2.219620e+01
     vertex  6.465325e+02 -2.942000e+02  2.353317e+01
   endloop
 endfacet
 facet normal -5.806831e-14  1.000000e+00  2.006394e-15
   outer loop
     vertex  6.464554e+02 -2.942000e+02  2.830429e+01
     vertex  6.445417e+02 -2.942000e+02  2.958008e+01
     vertex  6.455617e+02 -2.942000e+02  3.076962e+01
   endloop
 endfacet
 facet normal -7.582662e-14  1.000000e+00 -2.463174e-14
   outer loop
     vertex  6.464554e+02 -2.942000e+02  2.830429e+01
     vertex  6.459994e+02 -2.942000e+02  2.740027e+01
     vertex  6.445417e+02 -2.942000e+02  2.958008e+01
   endloop
 endfacet
 facet normal -4.643641e-14  1.000000e+00 -4.258003e-15
   outer loop
     vertex  6.480586e+02 -2.942000e+02  2.222462e+01
     vertex  6.470227e+02 -2.942000e+02  2.017106e+01
     vertex  6.457189e+02 -2.942000e+02  2.104025e+01
   endloop
 endfacet
 facet normal -5.674106e-14  1.000000e+00  1.609801e-14
   outer loop
     vertex  6.480586e+02 -2.942000e+02  2.222462e+01
     vertex  6.457189e+02 -2.942000e+02  2.104025e+01
     vertex  6.472161e+02 -2.942000e+02  2.278625e+01
   endloop
 endfacet
 facet normal -1.889933e-14  1.000000e+00  1.620582e-14
   outer loop
     vertex  6.471145e+02 -2.942000e+02  2.907292e+01
     vertex  6.464554e+02 -2.942000e+02  2.830429e+01
     vertex  6.455617e+02 -2.942000e+02  3.076962e+01
   endloop
 endfacet
 facet normal -4.142895e-14  1.000000e+00 -4.413069e-15
   outer loop
     vertex  6.468367e+02 -2.942000e+02  3.168049e+01
     vertex  6.471145e+02 -2.942000e+02  2.907292e+01
     vertex  6.455617e+02 -2.942000e+02  3.076962e+01
   endloop
 endfacet
 facet normal -3.561713e-14  1.000000e+00  8.170609e-15
   outer loop
     vertex  6.490109e+02 -2.942000e+02  2.188093e+01
     vertex  6.484967e+02 -2.942000e+02  1.963916e+01
     vertex  6.470227e+02 -2.942000e+02  2.017106e+01
   endloop
 endfacet
 facet normal -8.450915e-15  1.000000e+00 -2.341784e-14
   outer loop
     vertex  6.490109e+02 -2.942000e+02  2.188093e+01
     vertex  6.470227e+02 -2.942000e+02  2.017106e+01
     vertex  6.480586e+02 -2.942000e+02  2.222462e+01
   endloop
 endfacet
 facet normal -6.411624e-14  1.000000e+00 -6.829749e-15
   outer loop
     vertex  6.479384e+02 -2.942000e+02  2.966148e+01
     vertex  6.471145e+02 -2.942000e+02  2.907292e+01
     vertex  6.468367e+02 -2.942000e+02  3.168049e+01
   endloop
 endfacet
 facet normal -3.653751e-14  1.000000e+00 -5.905502e-16
   outer loop
     vertex  6.500179e+02 -2.942000e+02  2.177514e+01
     vertex  6.500551e+02 -2.942000e+02  1.947544e+01
     vertex  6.484967e+02 -2.942000e+02  1.963916e+01
   endloop
 endfacet
 facet normal -5.512175e-14  1.000000e+00  1.264499e-14
   outer loop
     vertex  6.500179e+02 -2.942000e+02  2.177514e+01
     vertex  6.484967e+02 -2.942000e+02  1.963916e+01
     vertex  6.490109e+02 -2.942000e+02  2.188093e+01
   endloop
 endfacet
 facet normal -4.128122e-14  1.000000e+00  5.629765e-15
   outer loop
     vertex  6.482927e+02 -2.942000e+02  3.225975e+01
     vertex  6.479384e+02 -2.942000e+02  2.966148e+01
     vertex  6.468367e+02 -2.942000e+02  3.168049e+01
   endloop
 endfacet
 facet normal  0.000000e+00  1.000000e+00  0.000000e+00
   outer loop
     vertex  6.488791e+02 -2.942000e+02  3.003577e+01
     vertex  6.479384e+02 -2.942000e+02  2.966148e+01
     vertex  6.482927e+02 -2.942000e+02  3.225975e+01
   endloop
 endfacet
 facet normal -5.654615e-14  1.000000e+00 -9.139468e-16
   outer loop
     vertex  6.510209e+02 -2.942000e+02  2.191341e+01
     vertex  6.500551e+02 -2.942000e+02  1.947544e+01
     vertex  6.500179e+02 -2.942000e+02  2.177514e+01
   endloop
 endfacet
 facet normal -3.533447e-14  1.000000e+00 -9.317389e-15
   outer loop
     vertex  6.516074e+02 -2.942000e+02  1.968943e+01
     vertex  6.500551e+02 -2.942000e+02  1.947544e+01
     vertex  6.510209e+02 -2.942000e+02  2.191341e+01
   endloop
 endfacet
 facet normal -3.533447e-14  1.000000e+00 -9.317389e-15
   outer loop
     vertex  6.498450e+02 -2.942000e+02  3.247374e+01
     vertex  6.488791e+02 -2.942000e+02  3.003577e+01
     vertex  6.482927e+02 -2.942000e+02  3.225975e+01
   endloop
 endfacet
 facet normal -5.654615e-14  1.000000e+00 -9.139468e-16
   outer loop
     vertex  6.498450e+02 -2.942000e+02  3.247374e+01
     vertex  6.498822e+02 -2.942000e+02  3.017404e+01
     vertex  6.488791e+02 -2.942000e+02  3.003577e+01
   endloop
 endfacet
 facet normal  0.000000e+00  1.000000e+00  0.000000e+00
   outer loop
     vertex  6.519617e+02 -2.942000e+02  2.228771e+01
     vertex  6.516074e+02 -2.942000e+02  1.968943e+01
     vertex  6.510209e+02 -2.942000e+02  2.191341e+01
   endloop
 endfacet
 facet normal -4.128122e-14  1.000000e+00  5.629765e-15
   outer loop
     vertex  6.530634e+02 -2.942000e+02  2.026870e+01
     vertex  6.516074e+02 -2.942000e+02  1.968943e+01
     vertex  6.519617e+02 -2.942000e+02  2.228771e+01
   endloop
 endfacet
 facet normal -6.411624e-14  1.000000e+00 -6.829749e-15
   outer loop
     vertex  6.527856e+02 -2.942000e+02  2.287627e+01
     vertex  6.530634e+02 -2.942000e+02  2.026870e+01
     vertex  6.519617e+02 -2.942000e+02  2.228771e+01
   endloop
 endfacet
 facet normal -3.653751e-14  1.000000e+00 -5.905502e-16
   outer loop
     vertex  6.514034e+02 -2.942000e+02  3.231003e+01
     vertex  6.498822e+02 -2.942000e+02  3.017404e+01
     vertex  6.498450e+02 -2.942000e+02  3.247374e+01
   endloop
 endfacet
 facet normal -5.512175e-14  1.000000e+00  1.264499e-14
   outer loop
     vertex  6.514034e+02 -2.942000e+02  3.231003e+01
     vertex  6.508891e+02 -2.942000e+02  3.006826e+01
     vertex  6.498822e+02 -2.942000e+02  3.017404e+01
   endloop
 endfacet
 facet normal -4.142895e-14  1.000000e+00 -4.413069e-15
   outer loop
     vertex  6.543384e+02 -2.942000e+02  2.117957e+01
     vertex  6.530634e+02 -2.942000e+02  2.026870e+01
     vertex  6.527856e+02 -2.942000e+02  2.287627e+01
   endloop
 endfacet
 facet normal -3.561713e-14  1.000000e+00  8.170609e-15
   outer loop
     vertex  6.528773e+02 -2.942000e+02  3.177812e+01
     vertex  6.508891e+02 -2.942000e+02  3.006826e+01
     vertex  6.514034e+02 -2.942000e+02  3.231003e+01
   endloop
 endfacet
 facet normal -8.450915e-15  1.000000e+00 -2.341784e-14
   outer loop
     vertex  6.528773e+02 -2.942000e+02  3.177812e+01
     vertex  6.518415e+02 -2.942000e+02  2.972457e+01
     vertex  6.508891e+02 -2.942000e+02  3.006826e+01
   endloop
 endfacet
 facet normal -7.582662e-14  1.000000e+00 -2.463174e-14
   outer loop
     vertex  6.553584e+02 -2.942000e+02  2.236910e+01
     vertex  6.534447e+02 -2.942000e+02  2.364489e+01
     vertex  6.539007e+02 -2.942000e+02  2.454891e+01
   endloop
 endfacet
 facet normal -3.779865e-14  1.000000e+00  3.241165e-14
   outer loop
     vertex  6.553584e+02 -2.942000e+02  2.236910e+01
     vertex  6.527856e+02 -2.942000e+02  2.287627e+01
     vertex  6.534447e+02 -2.942000e+02  2.364489e+01
   endloop
 endfacet
 facet normal -4.585644e-14  1.000000e+00 -8.465062e-15
   outer loop
     vertex  6.553584e+02 -2.942000e+02  2.236910e+01
     vertex  6.543384e+02 -2.942000e+02  2.117957e+01
     vertex  6.527856e+02 -2.942000e+02  2.287627e+01
   endloop
 endfacet
 facet normal -5.674106e-14  1.000000e+00  1.609801e-14
   outer loop
     vertex  6.541811e+02 -2.942000e+02  3.090893e+01
     vertex  6.526840e+02 -2.942000e+02  2.916294e+01
     vertex  6.518415e+02 -2.942000e+02  2.972457e+01
   endloop
 endfacet
 facet normal -4.643641e-14  1.000000e+00 -4.258003e-15
   outer loop
     vertex  6.541811e+02 -2.942000e+02  3.090893e+01
     vertex  6.518415e+02 -2.942000e+02  2.972457e+01
     vertex  6.528773e+02 -2.942000e+02  3.177812e+01
   endloop
 endfacet
 facet normal -2.222845e-14  1.000000e+00  1.121201e-14
   outer loop
     vertex  6.560641e+02 -2.942000e+02  2.376818e+01
     vertex  6.553584e+02 -2.942000e+02  2.236910e+01
     vertex  6.539007e+02 -2.942000e+02  2.454891e+01
   endloop
 endfacet
 facet normal -4.610606e-14  1.000000e+00  6.978686e-15
   outer loop
     vertex  6.552391e+02 -2.942000e+02  2.975298e+01
     vertex  6.526840e+02 -2.942000e+02  2.916294e+01
     vertex  6.541811e+02 -2.942000e+02  3.090893e+01
   endloop
 endfacet
 facet normal -3.673146e-14  1.000000e+00 -3.361627e-14
   outer loop
     vertex  6.552391e+02 -2.942000e+02  2.975298e+01
     vertex  6.533676e+02 -2.942000e+02  2.841601e+01
     vertex  6.526840e+02 -2.942000e+02  2.916294e+01
   endloop
 endfacet
 facet normal -2.426575e-14  1.000000e+00  5.566589e-15
   outer loop
     vertex  6.564145e+02 -2.942000e+02  2.529549e+01
     vertex  6.539007e+02 -2.942000e+02  2.454891e+01
     vertex  6.541271e+02 -2.942000e+02  2.553578e+01
   endloop
 endfacet
 facet normal -2.489280e-14  1.000000e+00 -4.023385e-16
   outer loop
     vertex  6.564145e+02 -2.942000e+02  2.529549e+01
     vertex  6.541271e+02 -2.942000e+02  2.553578e+01
     vertex  6.541107e+02 -2.942000e+02  2.654816e+01
   endloop
 endfacet
 facet normal -2.426575e-14  1.000000e+00  5.566589e-15
   outer loop
     vertex  6.564145e+02 -2.942000e+02  2.529549e+01
     vertex  6.560641e+02 -2.942000e+02  2.376818e+01
     vertex  6.539007e+02 -2.942000e+02  2.454891e+01
   endloop
 endfacet
 facet normal -4.276060e-14  1.000000e+00  4.062297e-14
   outer loop
     vertex  6.559896e+02 -2.942000e+02  2.837744e+01
     vertex  6.538525e+02 -2.942000e+02  2.752720e+01
     vertex  6.533676e+02 -2.942000e+02  2.841601e+01
   endloop
 endfacet
 facet normal -4.370901e-14  1.000000e+00 -2.384903e-14
   outer loop
     vertex  6.559896e+02 -2.942000e+02  2.837744e+01
     vertex  6.533676e+02 -2.942000e+02  2.841601e+01
     vertex  6.552391e+02 -2.942000e+02  2.975298e+01
   endloop
 endfacet
 facet normal -2.407317e-14  1.000000e+00 -6.347884e-15
   outer loop
     vertex  6.563891e+02 -2.942000e+02  2.686226e+01
     vertex  6.538525e+02 -2.942000e+02  2.752720e+01
     vertex  6.559896e+02 -2.942000e+02  2.837744e+01
   endloop
 endfacet
 facet normal -2.407317e-14  1.000000e+00 -6.347884e-15
   outer loop
     vertex  6.563891e+02 -2.942000e+02  2.686226e+01
     vertex  6.541107e+02 -2.942000e+02  2.654816e+01
     vertex  6.538525e+02 -2.942000e+02  2.752720e+01
   endloop
 endfacet
 facet normal -2.489280e-14  1.000000e+00 -4.023385e-16
   outer loop
     vertex  6.563891e+02 -2.942000e+02  2.686226e+01
     vertex  6.564145e+02 -2.942000e+02  2.529549e+01
     vertex  6.541107e+02 -2.942000e+02  2.654816e+01
   endloop
 endfacet
endsolid
