solid 
 facet normal  3.354620e-01 -3.744589e-01  8.644338e-01
   outer loop
     vertex  3.262393e+02 -4.766475e+02 -2.819965e+02
     vertex  3.276019e+02 -4.765088e+02 -2.824653e+02
     vertex  3.271370e+02 -4.758432e+02 -2.819965e+02
   endloop
 endfacet
 facet normal  3.354620e-01 -3.744589e-01  8.644338e-01
   outer loop
     vertex  3.262393e+02 -4.766475e+02 -2.819965e+02
     vertex  3.268499e+02 -4.771825e+02 -2.824653e+02
     vertex  3.276019e+02 -4.765088e+02 -2.824653e+02
   endloop
 endfacet
 facet normal  4.153280e-01 -2.832965e-01  8.644338e-01
   outer loop
     vertex  3.255600e+02 -4.776433e+02 -2.819965e+02
     vertex  3.262810e+02 -4.780166e+02 -2.824653e+02
     vertex  3.268499e+02 -4.771825e+02 -2.824653e+02
   endloop
 endfacet
 facet normal  4.153280e-01 -2.832965e-01  8.644338e-01
   outer loop
     vertex  3.255600e+02 -4.776433e+02 -2.819965e+02
     vertex  3.268499e+02 -4.771825e+02 -2.824653e+02
     vertex  3.262393e+02 -4.766475e+02 -2.819965e+02
   endloop
 endfacet
 facet normal  4.710566e-01 -1.756699e-01  8.644338e-01
   outer loop
     vertex  3.251389e+02 -4.787726e+02 -2.819965e+02
     vertex  3.259282e+02 -4.789625e+02 -2.824653e+02
     vertex  3.262810e+02 -4.780166e+02 -2.824653e+02
   endloop
 endfacet
 facet normal  4.710566e-01 -1.756699e-01  8.644338e-01
   outer loop
     vertex  3.251389e+02 -4.787726e+02 -2.819965e+02
     vertex  3.262810e+02 -4.780166e+02 -2.824653e+02
     vertex  3.255600e+02 -4.776433e+02 -2.819965e+02
   endloop
 endfacet
 facet normal  4.994091e-01 -5.783407e-02  8.644338e-01
   outer loop
     vertex  3.250002e+02 -4.799700e+02 -2.819965e+02
     vertex  3.258121e+02 -4.799655e+02 -2.824653e+02
     vertex  3.259282e+02 -4.789625e+02 -2.824653e+02
   endloop
 endfacet
 facet normal  4.994091e-01 -5.783407e-02  8.644338e-01
   outer loop
     vertex  3.250002e+02 -4.799700e+02 -2.819965e+02
     vertex  3.259282e+02 -4.789625e+02 -2.824653e+02
     vertex  3.251389e+02 -4.787726e+02 -2.819965e+02
   endloop
 endfacet
 facet normal  4.987378e-01  6.336291e-02  8.644338e-01
   outer loop
     vertex  3.251521e+02 -4.811657e+02 -2.819965e+02
     vertex  3.259393e+02 -4.809670e+02 -2.824653e+02
     vertex  3.258121e+02 -4.799655e+02 -2.824653e+02
   endloop
 endfacet
 facet normal  4.987378e-01  6.336291e-02  8.644338e-01
   outer loop
     vertex  3.251521e+02 -4.811657e+02 -2.819965e+02
     vertex  3.258121e+02 -4.799655e+02 -2.824653e+02
     vertex  3.250002e+02 -4.799700e+02 -2.819965e+02
   endloop
 endfacet
 facet normal  4.690816e-01  1.808775e-01  8.644338e-01
   outer loop
     vertex  3.255858e+02 -4.822903e+02 -2.819965e+02
     vertex  3.263026e+02 -4.819090e+02 -2.824653e+02
     vertex  3.259393e+02 -4.809670e+02 -2.824653e+02
   endloop
 endfacet
 facet normal  4.690816e-01  1.808775e-01  8.644338e-01
   outer loop
     vertex  3.255858e+02 -4.822903e+02 -2.819965e+02
     vertex  3.259393e+02 -4.809670e+02 -2.824653e+02
     vertex  3.251521e+02 -4.811657e+02 -2.819965e+02
   endloop
 endfacet
 facet normal  4.121641e-01  2.878801e-01  8.644338e-01
   outer loop
     vertex  3.262760e+02 -4.832785e+02 -2.819965e+02
     vertex  3.268807e+02 -4.827367e+02 -2.824653e+02
     vertex  3.263026e+02 -4.819090e+02 -2.824653e+02
   endloop
 endfacet
 facet normal  4.121641e-01  2.878801e-01  8.644338e-01
   outer loop
     vertex  3.262760e+02 -4.832785e+02 -2.819965e+02
     vertex  3.263026e+02 -4.819090e+02 -2.824653e+02
     vertex  3.255858e+02 -4.822903e+02 -2.819965e+02
   endloop
 endfacet
 facet normal  3.312932e-01  3.781521e-01  8.644338e-01
   outer loop
     vertex  3.271826e+02 -4.840728e+02 -2.819965e+02
     vertex  3.276401e+02 -4.834020e+02 -2.824653e+02
     vertex  3.268807e+02 -4.827367e+02 -2.824653e+02
   endloop
 endfacet
 facet normal  3.312932e-01  3.781521e-01  8.644338e-01
   outer loop
     vertex  3.271826e+02 -4.840728e+02 -2.819965e+02
     vertex  3.268807e+02 -4.827367e+02 -2.824653e+02
     vertex  3.262760e+02 -4.832785e+02 -2.819965e+02
   endloop
 endfacet
 facet normal  2.311687e-01  4.464474e-01  8.644338e-01
   outer loop
     vertex  3.282530e+02 -4.846270e+02 -2.819965e+02
     vertex  3.285367e+02 -4.838663e+02 -2.824653e+02
     vertex  3.276401e+02 -4.834020e+02 -2.824653e+02
   endloop
 endfacet
 facet normal  2.311687e-01  4.464474e-01  8.644338e-01
   outer loop
     vertex  3.282530e+02 -4.846270e+02 -2.819965e+02
     vertex  3.276401e+02 -4.834020e+02 -2.824653e+02
     vertex  3.271826e+02 -4.840728e+02 -2.819965e+02
   endloop
 endfacet
 facet normal  1.176095e-01  4.887967e-01  8.644338e-01
   outer loop
     vertex  3.294249e+02 -4.849090e+02 -2.819965e+02
     vertex  3.295183e+02 -4.841025e+02 -2.824653e+02
     vertex  3.285367e+02 -4.838663e+02 -2.824653e+02
   endloop
 endfacet
 facet normal  1.176095e-01  4.887967e-01  8.644338e-01
   outer loop
     vertex  3.294249e+02 -4.849090e+02 -2.819965e+02
     vertex  3.285367e+02 -4.838663e+02 -2.824653e+02
     vertex  3.282530e+02 -4.846270e+02 -2.819965e+02
   endloop
 endfacet
 facet normal -2.784724e-03  5.027390e-01  8.644338e-01
   outer loop
     vertex  3.306302e+02 -4.849023e+02 -2.819965e+02
     vertex  3.305279e+02 -4.840969e+02 -2.824653e+02
     vertex  3.295183e+02 -4.841025e+02 -2.824653e+02
   endloop
 endfacet
 facet normal -2.784724e-03  5.027390e-01  8.644338e-01
   outer loop
     vertex  3.306302e+02 -4.849023e+02 -2.819965e+02
     vertex  3.295183e+02 -4.841025e+02 -2.824653e+02
     vertex  3.294249e+02 -4.849090e+02 -2.819965e+02
   endloop
 endfacet
 facet normal -1.230171e-01  4.874639e-01  8.644338e-01
   outer loop
     vertex  3.317989e+02 -4.846074e+02 -2.819965e+02
     vertex  3.305279e+02 -4.840969e+02 -2.824653e+02
     vertex  3.306302e+02 -4.849023e+02 -2.819965e+02
   endloop
 endfacet
 facet normal -1.230171e-01  4.874639e-01  8.644338e-01
   outer loop
     vertex  3.317989e+02 -4.846074e+02 -2.819965e+02
     vertex  3.315068e+02 -4.838498e+02 -2.824653e+02
     vertex  3.305279e+02 -4.840969e+02 -2.824653e+02
   endloop
 endfacet
 facet normal -2.361002e-01  4.438591e-01  8.644338e-01
   outer loop
     vertex  3.328631e+02 -4.840413e+02 -2.819965e+02
     vertex  3.315068e+02 -4.838498e+02 -2.824653e+02
     vertex  3.317989e+02 -4.846074e+02 -2.819965e+02
   endloop
 endfacet
 facet normal -2.361002e-01  4.438591e-01  8.644338e-01
   outer loop
     vertex  3.328631e+02 -4.840413e+02 -2.819965e+02
     vertex  3.323981e+02 -4.833757e+02 -2.824653e+02
     vertex  3.315068e+02 -4.838498e+02 -2.824653e+02
   endloop
 endfacet
 facet normal -3.354620e-01  3.744589e-01  8.644338e-01
   outer loop
     vertex  3.337608e+02 -4.832370e+02 -2.819965e+02
     vertex  3.323981e+02 -4.833757e+02 -2.824653e+02
     vertex  3.328631e+02 -4.840413e+02 -2.819965e+02
   endloop
 endfacet
 facet normal -3.354620e-01  3.744589e-01  8.644338e-01
   outer loop
     vertex  3.337608e+02 -4.832370e+02 -2.819965e+02
     vertex  3.331501e+02 -4.827020e+02 -2.824653e+02
     vertex  3.323981e+02 -4.833757e+02 -2.824653e+02
   endloop
 endfacet
 facet normal -4.153280e-01  2.832965e-01  8.644338e-01
   outer loop
     vertex  3.344400e+02 -4.822413e+02 -2.819965e+02
     vertex  3.331501e+02 -4.827020e+02 -2.824653e+02
     vertex  3.337608e+02 -4.832370e+02 -2.819965e+02
   endloop
 endfacet
 facet normal -4.153280e-01  2.832965e-01  8.644338e-01
   outer loop
     vertex  3.344400e+02 -4.822413e+02 -2.819965e+02
     vertex  3.337191e+02 -4.818680e+02 -2.824653e+02
     vertex  3.331501e+02 -4.827020e+02 -2.824653e+02
   endloop
 endfacet
 facet normal -4.710566e-01  1.756699e-01  8.644338e-01
   outer loop
     vertex  3.348612e+02 -4.811119e+02 -2.819965e+02
     vertex  3.337191e+02 -4.818680e+02 -2.824653e+02
     vertex  3.344400e+02 -4.822413e+02 -2.819965e+02
   endloop
 endfacet
 facet normal -4.710566e-01  1.756699e-01  8.644338e-01
   outer loop
     vertex  3.348612e+02 -4.811119e+02 -2.819965e+02
     vertex  3.340718e+02 -4.809220e+02 -2.824653e+02
     vertex  3.337191e+02 -4.818680e+02 -2.824653e+02
   endloop
 endfacet
 facet normal -4.994091e-01  5.783407e-02  8.644338e-01
   outer loop
     vertex  3.349999e+02 -4.799146e+02 -2.819965e+02
     vertex  3.340718e+02 -4.809220e+02 -2.824653e+02
     vertex  3.348612e+02 -4.811119e+02 -2.819965e+02
   endloop
 endfacet
 facet normal -4.994091e-01  5.783407e-02  8.644338e-01
   outer loop
     vertex  3.349999e+02 -4.799146e+02 -2.819965e+02
     vertex  3.341880e+02 -4.799191e+02 -2.824653e+02
     vertex  3.340718e+02 -4.809220e+02 -2.824653e+02
   endloop
 endfacet
 facet normal -4.987378e-01 -6.336291e-02  8.644338e-01
   outer loop
     vertex  3.348479e+02 -4.787188e+02 -2.819965e+02
     vertex  3.341880e+02 -4.799191e+02 -2.824653e+02
     vertex  3.349999e+02 -4.799146e+02 -2.819965e+02
   endloop
 endfacet
 facet normal -4.987378e-01 -6.336291e-02  8.644338e-01
   outer loop
     vertex  3.348479e+02 -4.787188e+02 -2.819965e+02
     vertex  3.340607e+02 -4.789175e+02 -2.824653e+02
     vertex  3.341880e+02 -4.799191e+02 -2.824653e+02
   endloop
 endfacet
 facet normal -4.690816e-01 -1.808775e-01  8.644338e-01
   outer loop
     vertex  3.344143e+02 -4.775942e+02 -2.819965e+02
     vertex  3.340607e+02 -4.789175e+02 -2.824653e+02
     vertex  3.348479e+02 -4.787188e+02 -2.819965e+02
   endloop
 endfacet
 facet normal -4.690816e-01 -1.808775e-01  8.644338e-01
   outer loop
     vertex  3.344143e+02 -4.775942e+02 -2.819965e+02
     vertex  3.336975e+02 -4.779755e+02 -2.824653e+02
     vertex  3.340607e+02 -4.789175e+02 -2.824653e+02
   endloop
 endfacet
 facet normal -4.121641e-01 -2.878801e-01  8.644338e-01
   outer loop
     vertex  3.337241e+02 -4.766060e+02 -2.819965e+02
     vertex  3.331194e+02 -4.771478e+02 -2.824653e+02
     vertex  3.336975e+02 -4.779755e+02 -2.824653e+02
   endloop
 endfacet
 facet normal -4.121641e-01 -2.878801e-01  8.644338e-01
   outer loop
     vertex  3.337241e+02 -4.766060e+02 -2.819965e+02
     vertex  3.336975e+02 -4.779755e+02 -2.824653e+02
     vertex  3.344143e+02 -4.775942e+02 -2.819965e+02
   endloop
 endfacet
 facet normal -3.312932e-01 -3.781521e-01  8.644338e-01
   outer loop
     vertex  3.328175e+02 -4.758118e+02 -2.819965e+02
     vertex  3.323600e+02 -4.764825e+02 -2.824653e+02
     vertex  3.331194e+02 -4.771478e+02 -2.824653e+02
   endloop
 endfacet
 facet normal -3.312932e-01 -3.781521e-01  8.644338e-01
   outer loop
     vertex  3.328175e+02 -4.758118e+02 -2.819965e+02
     vertex  3.331194e+02 -4.771478e+02 -2.824653e+02
     vertex  3.337241e+02 -4.766060e+02 -2.819965e+02
   endloop
 endfacet
 facet normal -2.311687e-01 -4.464474e-01  8.644338e-01
   outer loop
     vertex  3.317471e+02 -4.752575e+02 -2.819965e+02
     vertex  3.314634e+02 -4.760183e+02 -2.824653e+02
     vertex  3.323600e+02 -4.764825e+02 -2.824653e+02
   endloop
 endfacet
 facet normal -2.311687e-01 -4.464474e-01  8.644338e-01
   outer loop
     vertex  3.317471e+02 -4.752575e+02 -2.819965e+02
     vertex  3.323600e+02 -4.764825e+02 -2.824653e+02
     vertex  3.328175e+02 -4.758118e+02 -2.819965e+02
   endloop
 endfacet
 facet normal -1.176095e-01 -4.887967e-01  8.644338e-01
   outer loop
     vertex  3.305752e+02 -4.749756e+02 -2.819965e+02
     vertex  3.304818e+02 -4.757821e+02 -2.824653e+02
     vertex  3.314634e+02 -4.760183e+02 -2.824653e+02
   endloop
 endfacet
 facet normal -1.176095e-01 -4.887967e-01  8.644338e-01
   outer loop
     vertex  3.305752e+02 -4.749756e+02 -2.819965e+02
     vertex  3.314634e+02 -4.760183e+02 -2.824653e+02
     vertex  3.317471e+02 -4.752575e+02 -2.819965e+02
   endloop
 endfacet
 facet normal  2.784724e-03 -5.027390e-01  8.644338e-01
   outer loop
     vertex  3.293699e+02 -4.749822e+02 -2.819965e+02
     vertex  3.294722e+02 -4.757877e+02 -2.824653e+02
     vertex  3.304818e+02 -4.757821e+02 -2.824653e+02
   endloop
 endfacet
 facet normal  2.784724e-03 -5.027390e-01  8.644338e-01
   outer loop
     vertex  3.293699e+02 -4.749822e+02 -2.819965e+02
     vertex  3.304818e+02 -4.757821e+02 -2.824653e+02
     vertex  3.305752e+02 -4.749756e+02 -2.819965e+02
   endloop
 endfacet
 facet normal  1.230171e-01 -4.874639e-01  8.644338e-01
   outer loop
     vertex  3.282012e+02 -4.752772e+02 -2.819965e+02
     vertex  3.284933e+02 -4.760347e+02 -2.824653e+02
     vertex  3.294722e+02 -4.757877e+02 -2.824653e+02
   endloop
 endfacet
 facet normal  1.230171e-01 -4.874639e-01  8.644338e-01
   outer loop
     vertex  3.282012e+02 -4.752772e+02 -2.819965e+02
     vertex  3.294722e+02 -4.757877e+02 -2.824653e+02
     vertex  3.293699e+02 -4.749822e+02 -2.819965e+02
   endloop
 endfacet
 facet normal  2.361002e-01 -4.438591e-01  8.644338e-01
   outer loop
     vertex  3.271370e+02 -4.758432e+02 -2.819965e+02
     vertex  3.276019e+02 -4.765088e+02 -2.824653e+02
     vertex  3.284933e+02 -4.760347e+02 -2.824653e+02
   endloop
 endfacet
 facet normal  2.361002e-01 -4.438591e-01  8.644338e-01
   outer loop
     vertex  3.271370e+02 -4.758432e+02 -2.819965e+02
     vertex  3.284933e+02 -4.760347e+02 -2.824653e+02
     vertex  3.282012e+02 -4.752772e+02 -2.819965e+02
   endloop
 endfacet
 facet normal  4.696206e-01 -8.828683e-01  0.000000e+00
   outer loop
     vertex  3.276019e+02 -4.765088e+02 -2.895278e+02
     vertex  3.284933e+02 -4.760347e+02 -2.824653e+02
     vertex  3.276019e+02 -4.765088e+02 -2.824653e+02
   endloop
 endfacet
 facet normal  2.446901e-01 -9.696013e-01  0.000000e+00
   outer loop
     vertex  3.284933e+02 -4.760347e+02 -2.895278e+02
     vertex  3.294722e+02 -4.757877e+02 -2.824653e+02
     vertex  3.284933e+02 -4.760347e+02 -2.824653e+02
   endloop
 endfacet
 facet normal  4.696206e-01 -8.828683e-01  0.000000e+00
   outer loop
     vertex  3.284933e+02 -4.760347e+02 -2.895278e+02
     vertex  3.284933e+02 -4.760347e+02 -2.824653e+02
     vertex  3.276019e+02 -4.765088e+02 -2.895278e+02
   endloop
 endfacet
 facet normal  5.539020e-03 -9.999847e-01  0.000000e+00
   outer loop
     vertex  3.294722e+02 -4.757877e+02 -2.895278e+02
     vertex  3.304818e+02 -4.757821e+02 -2.824653e+02
     vertex  3.294722e+02 -4.757877e+02 -2.824653e+02
   endloop
 endfacet
 facet normal  2.446901e-01 -9.696013e-01  0.000000e+00
   outer loop
     vertex  3.294722e+02 -4.757877e+02 -2.895278e+02
     vertex  3.294722e+02 -4.757877e+02 -2.824653e+02
     vertex  3.284933e+02 -4.760347e+02 -2.895278e+02
   endloop
 endfacet
 facet normal  5.539020e-03 -9.999847e-01  0.000000e+00
   outer loop
     vertex  3.304818e+02 -4.757821e+02 -2.895278e+02
     vertex  3.304818e+02 -4.757821e+02 -2.824653e+02
     vertex  3.294722e+02 -4.757877e+02 -2.895278e+02
   endloop
 endfacet
 facet normal -2.339339e-01 -9.722525e-01  0.000000e+00
   outer loop
     vertex  3.314634e+02 -4.760183e+02 -2.895278e+02
     vertex  3.314634e+02 -4.760183e+02 -2.824653e+02
     vertex  3.304818e+02 -4.757821e+02 -2.824653e+02
   endloop
 endfacet
 facet normal -2.339339e-01 -9.722525e-01  1.668616e-18
   outer loop
     vertex  3.314634e+02 -4.760183e+02 -2.895278e+02
     vertex  3.304818e+02 -4.757821e+02 -2.824653e+02
     vertex  3.304818e+02 -4.757821e+02 -2.895278e+02
   endloop
 endfacet
 facet normal -4.598115e-01 -8.880166e-01  1.059378e-14
   outer loop
     vertex  3.323600e+02 -4.764825e+02 -2.895278e+02
     vertex  3.323600e+02 -4.764825e+02 -2.824653e+02
     vertex  3.314634e+02 -4.760183e+02 -2.824653e+02
   endloop
 endfacet
 facet normal -6.589665e-01 -7.521723e-01  6.804132e-15
   outer loop
     vertex  3.323600e+02 -4.764825e+02 -2.895278e+02
     vertex  3.331194e+02 -4.771478e+02 -2.824653e+02
     vertex  3.323600e+02 -4.764825e+02 -2.824653e+02
   endloop
 endfacet
 facet normal -4.598115e-01 -8.880166e-01  8.109503e-19
   outer loop
     vertex  3.323600e+02 -4.764825e+02 -2.895278e+02
     vertex  3.314634e+02 -4.760183e+02 -2.824653e+02
     vertex  3.314634e+02 -4.760183e+02 -2.895278e+02
   endloop
 endfacet
 facet normal -8.198247e-01 -5.726146e-01  0.000000e+00
   outer loop
     vertex  3.331194e+02 -4.771478e+02 -2.895278e+02
     vertex  3.336975e+02 -4.779755e+02 -2.824653e+02
     vertex  3.331194e+02 -4.771478e+02 -2.824653e+02
   endloop
 endfacet
 facet normal -6.589665e-01 -7.521723e-01  0.000000e+00
   outer loop
     vertex  3.331194e+02 -4.771478e+02 -2.895278e+02
     vertex  3.331194e+02 -4.771478e+02 -2.824653e+02
     vertex  3.323600e+02 -4.764825e+02 -2.895278e+02
   endloop
 endfacet
 facet normal -9.330377e-01 -3.597785e-01  0.000000e+00
   outer loop
     vertex  3.336975e+02 -4.779755e+02 -2.895278e+02
     vertex  3.340607e+02 -4.789175e+02 -2.824653e+02
     vertex  3.336975e+02 -4.779755e+02 -2.824653e+02
   endloop
 endfacet
 facet normal -8.198247e-01 -5.726146e-01  0.000000e+00
   outer loop
     vertex  3.336975e+02 -4.779755e+02 -2.895278e+02
     vertex  3.336975e+02 -4.779755e+02 -2.824653e+02
     vertex  3.331194e+02 -4.771478e+02 -2.895278e+02
   endloop
 endfacet
 facet normal -9.330377e-01 -3.597785e-01  0.000000e+00
   outer loop
     vertex  3.340607e+02 -4.789175e+02 -2.895278e+02
     vertex  3.340607e+02 -4.789175e+02 -2.824653e+02
     vertex  3.336975e+02 -4.779755e+02 -2.895278e+02
   endloop
 endfacet
 facet normal -9.920260e-01 -1.260335e-01  0.000000e+00
   outer loop
     vertex  3.341880e+02 -4.799191e+02 -2.895278e+02
     vertex  3.341880e+02 -4.799191e+02 -2.824653e+02
     vertex  3.340607e+02 -4.789175e+02 -2.824653e+02
   endloop
 endfacet
 facet normal -9.920260e-01 -1.260335e-01  1.710763e-18
   outer loop
     vertex  3.341880e+02 -4.799191e+02 -2.895278e+02
     vertex  3.340607e+02 -4.789175e+02 -2.824653e+02
     vertex  3.340607e+02 -4.789175e+02 -2.895278e+02
   endloop
 endfacet
 facet normal -9.933613e-01  1.150362e-01  0.000000e+00
   outer loop
     vertex  3.340718e+02 -4.809220e+02 -2.895278e+02
     vertex  3.340718e+02 -4.809220e+02 -2.824653e+02
     vertex  3.341880e+02 -4.799191e+02 -2.824653e+02
   endloop
 endfacet
 facet normal -9.369661e-01  3.494204e-01  0.000000e+00
   outer loop
     vertex  3.340718e+02 -4.809220e+02 -2.895278e+02
     vertex  3.337191e+02 -4.818680e+02 -2.824653e+02
     vertex  3.340718e+02 -4.809220e+02 -2.824653e+02
   endloop
 endfacet
 facet normal -9.933613e-01  1.150362e-01 -6.015387e-20
   outer loop
     vertex  3.340718e+02 -4.809220e+02 -2.895278e+02
     vertex  3.341880e+02 -4.799191e+02 -2.824653e+02
     vertex  3.341880e+02 -4.799191e+02 -2.895278e+02
   endloop
 endfacet
 facet normal -9.369661e-01  3.494204e-01  0.000000e+00
   outer loop
     vertex  3.337191e+02 -4.818680e+02 -2.895278e+02
     vertex  3.337191e+02 -4.818680e+02 -2.824653e+02
     vertex  3.340718e+02 -4.809220e+02 -2.895278e+02
   endloop
 endfacet
 facet normal -8.261178e-01  5.634975e-01 -4.240414e-19
   outer loop
     vertex  3.331501e+02 -4.827020e+02 -2.895278e+02
     vertex  3.337191e+02 -4.818680e+02 -2.824653e+02
     vertex  3.337191e+02 -4.818680e+02 -2.895278e+02
   endloop
 endfacet
 facet normal -8.261178e-01  5.634975e-01  0.000000e+00
   outer loop
     vertex  3.331501e+02 -4.827020e+02 -2.895278e+02
     vertex  3.331501e+02 -4.827020e+02 -2.824653e+02
     vertex  3.337191e+02 -4.818680e+02 -2.824653e+02
   endloop
 endfacet
 facet normal -6.672585e-01  7.448262e-01  6.119573e-18
   outer loop
     vertex  3.323981e+02 -4.833757e+02 -2.895278e+02
     vertex  3.331501e+02 -4.827020e+02 -2.824653e+02
     vertex  3.331501e+02 -4.827020e+02 -2.895278e+02
   endloop
 endfacet
 facet normal -6.672585e-01  7.448262e-01  1.673586e-14
   outer loop
     vertex  3.323981e+02 -4.833757e+02 -2.895278e+02
     vertex  3.323981e+02 -4.833757e+02 -2.824653e+02
     vertex  3.331501e+02 -4.827020e+02 -2.824653e+02
   endloop
 endfacet
 facet normal -4.696206e-01  8.828683e-01  1.466421e-14
   outer loop
     vertex  3.315068e+02 -4.838498e+02 -2.895278e+02
     vertex  3.323981e+02 -4.833757e+02 -2.824653e+02
     vertex  3.323981e+02 -4.833757e+02 -2.895278e+02
   endloop
 endfacet
 facet normal -4.696206e-01  8.828683e-01 -3.779800e-15
   outer loop
     vertex  3.315068e+02 -4.838498e+02 -2.895278e+02
     vertex  3.315068e+02 -4.838498e+02 -2.824653e+02
     vertex  3.323981e+02 -4.833757e+02 -2.824653e+02
   endloop
 endfacet
 facet normal -2.446901e-01  9.696013e-01 -1.969419e-15
   outer loop
     vertex  3.315068e+02 -4.838498e+02 -2.895278e+02
     vertex  3.305279e+02 -4.840969e+02 -2.824653e+02
     vertex  3.315068e+02 -4.838498e+02 -2.824653e+02
   endloop
 endfacet
 facet normal -2.446901e-01  9.696013e-01  0.000000e+00
   outer loop
     vertex  3.305279e+02 -4.840969e+02 -2.895278e+02
     vertex  3.305279e+02 -4.840969e+02 -2.824653e+02
     vertex  3.315068e+02 -4.838498e+02 -2.895278e+02
   endloop
 endfacet
 facet normal -5.539020e-03  9.999847e-01  0.000000e+00
   outer loop
     vertex  3.305279e+02 -4.840969e+02 -2.895278e+02
     vertex  3.295183e+02 -4.841025e+02 -2.824653e+02
     vertex  3.305279e+02 -4.840969e+02 -2.824653e+02
   endloop
 endfacet
 facet normal -5.539020e-03  9.999847e-01  4.458150e-17
   outer loop
     vertex  3.295183e+02 -4.841025e+02 -2.895278e+02
     vertex  3.295183e+02 -4.841025e+02 -2.824653e+02
     vertex  3.305279e+02 -4.840969e+02 -2.895278e+02
   endloop
 endfacet
 facet normal  2.339339e-01  9.722525e-01 -1.882847e-15
   outer loop
     vertex  3.295183e+02 -4.841025e+02 -2.895278e+02
     vertex  3.285367e+02 -4.838663e+02 -2.824653e+02
     vertex  3.295183e+02 -4.841025e+02 -2.824653e+02
   endloop
 endfacet
 facet normal  2.339339e-01  9.722525e-01  2.347589e-14
   outer loop
     vertex  3.285367e+02 -4.838663e+02 -2.895278e+02
     vertex  3.285367e+02 -4.838663e+02 -2.824653e+02
     vertex  3.295183e+02 -4.841025e+02 -2.895278e+02
   endloop
 endfacet
 facet normal  4.598115e-01  8.880166e-01  2.144194e-14
   outer loop
     vertex  3.285367e+02 -4.838663e+02 -2.895278e+02
     vertex  3.276401e+02 -4.834020e+02 -2.824653e+02
     vertex  3.285367e+02 -4.838663e+02 -2.824653e+02
   endloop
 endfacet
 facet normal  4.598115e-01  8.880166e-01 -0.000000e+00
   outer loop
     vertex  3.276401e+02 -4.834020e+02 -2.895278e+02
     vertex  3.276401e+02 -4.834020e+02 -2.824653e+02
     vertex  3.285367e+02 -4.838663e+02 -2.895278e+02
   endloop
 endfacet
 facet normal  6.589665e-01  7.521723e-01 -0.000000e+00
   outer loop
     vertex  3.276401e+02 -4.834020e+02 -2.895278e+02
     vertex  3.268807e+02 -4.827367e+02 -2.824653e+02
     vertex  3.276401e+02 -4.834020e+02 -2.824653e+02
   endloop
 endfacet
 facet normal  6.589665e-01  7.521723e-01 -0.000000e+00
   outer loop
     vertex  3.268807e+02 -4.827367e+02 -2.895278e+02
     vertex  3.268807e+02 -4.827367e+02 -2.824653e+02
     vertex  3.276401e+02 -4.834020e+02 -2.895278e+02
   endloop
 endfacet
 facet normal  8.198247e-01  5.726146e-01  2.852619e-18
   outer loop
     vertex  3.263026e+02 -4.819090e+02 -2.895278e+02
     vertex  3.268807e+02 -4.827367e+02 -2.824653e+02
     vertex  3.268807e+02 -4.827367e+02 -2.895278e+02
   endloop
 endfacet
 facet normal  8.198247e-01  5.726146e-01 -0.000000e+00
   outer loop
     vertex  3.263026e+02 -4.819090e+02 -2.895278e+02
     vertex  3.263026e+02 -4.819090e+02 -2.824653e+02
     vertex  3.268807e+02 -4.827367e+02 -2.824653e+02
   endloop
 endfacet
 facet normal  9.330377e-01  3.597785e-01 -0.000000e+00
   outer loop
     vertex  3.263026e+02 -4.819090e+02 -2.895278e+02
     vertex  3.259393e+02 -4.809670e+02 -2.824653e+02
     vertex  3.263026e+02 -4.819090e+02 -2.824653e+02
   endloop
 endfacet
 facet normal  9.330377e-01  3.597785e-01 -0.000000e+00
   outer loop
     vertex  3.259393e+02 -4.809670e+02 -2.895278e+02
     vertex  3.259393e+02 -4.809670e+02 -2.824653e+02
     vertex  3.263026e+02 -4.819090e+02 -2.895278e+02
   endloop
 endfacet
 facet normal  9.920260e-01  1.260335e-01  1.710763e-18
   outer loop
     vertex  3.258121e+02 -4.799655e+02 -2.895278e+02
     vertex  3.259393e+02 -4.809670e+02 -2.824653e+02
     vertex  3.259393e+02 -4.809670e+02 -2.895278e+02
   endloop
 endfacet
 facet normal  9.920260e-01  1.260335e-01 -0.000000e+00
   outer loop
     vertex  3.258121e+02 -4.799655e+02 -2.895278e+02
     vertex  3.258121e+02 -4.799655e+02 -2.824653e+02
     vertex  3.259393e+02 -4.809670e+02 -2.824653e+02
   endloop
 endfacet
 facet normal  9.933613e-01 -1.150362e-01  0.000000e+00
   outer loop
     vertex  3.258121e+02 -4.799655e+02 -2.895278e+02
     vertex  3.259282e+02 -4.789625e+02 -2.824653e+02
     vertex  3.258121e+02 -4.799655e+02 -2.824653e+02
   endloop
 endfacet
 facet normal  9.933613e-01 -1.150362e-01  7.995193e-15
   outer loop
     vertex  3.259282e+02 -4.789625e+02 -2.895278e+02
     vertex  3.259282e+02 -4.789625e+02 -2.824653e+02
     vertex  3.258121e+02 -4.799655e+02 -2.895278e+02
   endloop
 endfacet
 facet normal  9.369661e-01 -3.494204e-01  0.000000e+00
   outer loop
     vertex  3.262810e+02 -4.780166e+02 -2.895278e+02
     vertex  3.262810e+02 -4.780166e+02 -2.824653e+02
     vertex  3.259282e+02 -4.789625e+02 -2.824653e+02
   endloop
 endfacet
 facet normal  8.261178e-01 -5.634975e-01  0.000000e+00
   outer loop
     vertex  3.262810e+02 -4.780166e+02 -2.895278e+02
     vertex  3.268499e+02 -4.771825e+02 -2.824653e+02
     vertex  3.262810e+02 -4.780166e+02 -2.824653e+02
   endloop
 endfacet
 facet normal  9.369661e-01 -3.494204e-01  7.544337e-15
   outer loop
     vertex  3.262810e+02 -4.780166e+02 -2.895278e+02
     vertex  3.259282e+02 -4.789625e+02 -2.824653e+02
     vertex  3.259282e+02 -4.789625e+02 -2.895278e+02
   endloop
 endfacet
 facet normal  8.261178e-01 -5.634975e-01  0.000000e+00
   outer loop
     vertex  3.268499e+02 -4.771825e+02 -2.895278e+02
     vertex  3.268499e+02 -4.771825e+02 -2.824653e+02
     vertex  3.262810e+02 -4.780166e+02 -2.895278e+02
   endloop
 endfacet
 facet normal  6.672585e-01 -7.448262e-01  0.000000e+00
   outer loop
     vertex  3.276019e+02 -4.765088e+02 -2.895278e+02
     vertex  3.276019e+02 -4.765088e+02 -2.824653e+02
     vertex  3.268499e+02 -4.771825e+02 -2.824653e+02
   endloop
 endfacet
 facet normal  6.672585e-01 -7.448262e-01 -6.721696e-18
   outer loop
     vertex  3.276019e+02 -4.765088e+02 -2.895278e+02
     vertex  3.268499e+02 -4.771825e+02 -2.824653e+02
     vertex  3.268499e+02 -4.771825e+02 -2.895278e+02
   endloop
 endfacet
 facet normal  0.000000e+00  0.000000e+00  1.000000e+00
   outer loop
     vertex  3.294249e+02 -4.849090e+02 -2.819965e+02
     vertex  3.282104e+02 -4.873800e+02 -2.819965e+02
     vertex  3.300424e+02 -4.875921e+02 -2.819965e+02
   endloop
 endfacet
 facet normal  0.000000e+00  0.000000e+00  1.000000e+00
   outer loop
     vertex  3.282530e+02 -4.846270e+02 -2.819965e+02
     vertex  3.264825e+02 -4.867356e+02 -2.819965e+02
     vertex  3.282104e+02 -4.873800e+02 -2.819965e+02
   endloop
 endfacet
 facet normal  0.000000e+00  0.000000e+00  1.000000e+00
   outer loop
     vertex  3.282530e+02 -4.846270e+02 -2.819965e+02
     vertex  3.282104e+02 -4.873800e+02 -2.819965e+02
     vertex  3.294249e+02 -4.849090e+02 -2.819965e+02
   endloop
 endfacet
 facet normal  0.000000e+00  0.000000e+00  1.000000e+00
   outer loop
     vertex  3.306302e+02 -4.849023e+02 -2.819965e+02
     vertex  3.300424e+02 -4.875921e+02 -2.819965e+02
     vertex  3.318719e+02 -4.873597e+02 -2.819965e+02
   endloop
 endfacet
 facet normal  0.000000e+00  0.000000e+00  1.000000e+00
   outer loop
     vertex  3.306302e+02 -4.849023e+02 -2.819965e+02
     vertex  3.294249e+02 -4.849090e+02 -2.819965e+02
     vertex  3.300424e+02 -4.875921e+02 -2.819965e+02
   endloop
 endfacet
 facet normal  0.000000e+00  0.000000e+00  1.000000e+00
   outer loop
     vertex  3.271826e+02 -4.840728e+02 -2.819965e+02
     vertex  3.249589e+02 -4.856964e+02 -2.819965e+02
     vertex  3.264825e+02 -4.867356e+02 -2.819965e+02
   endloop
 endfacet
 facet normal  0.000000e+00  0.000000e+00  1.000000e+00
   outer loop
     vertex  3.271826e+02 -4.840728e+02 -2.819965e+02
     vertex  3.264825e+02 -4.867356e+02 -2.819965e+02
     vertex  3.282530e+02 -4.846270e+02 -2.819965e+02
   endloop
 endfacet
 facet normal  0.000000e+00  0.000000e+00  1.000000e+00
   outer loop
     vertex  3.317989e+02 -4.846074e+02 -2.819965e+02
     vertex  3.318719e+02 -4.873597e+02 -2.819965e+02
     vertex  3.335926e+02 -4.866962e+02 -2.819965e+02
   endloop
 endfacet
 facet normal  0.000000e+00  0.000000e+00  1.000000e+00
   outer loop
     vertex  3.317989e+02 -4.846074e+02 -2.819965e+02
     vertex  3.306302e+02 -4.849023e+02 -2.819965e+02
     vertex  3.318719e+02 -4.873597e+02 -2.819965e+02
   endloop
 endfacet
 facet normal  0.000000e+00  0.000000e+00  1.000000e+00
   outer loop
     vertex  3.262760e+02 -4.832785e+02 -2.819965e+02
     vertex  3.237284e+02 -4.843228e+02 -2.819965e+02
     vertex  3.249589e+02 -4.856964e+02 -2.819965e+02
   endloop
 endfacet
 facet normal  0.000000e+00  0.000000e+00  1.000000e+00
   outer loop
     vertex  3.262760e+02 -4.832785e+02 -2.819965e+02
     vertex  3.249589e+02 -4.856964e+02 -2.819965e+02
     vertex  3.271826e+02 -4.840728e+02 -2.819965e+02
   endloop
 endfacet
 facet normal  0.000000e+00  0.000000e+00  1.000000e+00
   outer loop
     vertex  3.328631e+02 -4.840413e+02 -2.819965e+02
     vertex  3.335926e+02 -4.866962e+02 -2.819965e+02
     vertex  3.351046e+02 -4.856402e+02 -2.819965e+02
   endloop
 endfacet
 facet normal  0.000000e+00  0.000000e+00  1.000000e+00
   outer loop
     vertex  3.328631e+02 -4.840413e+02 -2.819965e+02
     vertex  3.317989e+02 -4.846074e+02 -2.819965e+02
     vertex  3.335926e+02 -4.866962e+02 -2.819965e+02
   endloop
 endfacet
 facet normal  0.000000e+00  0.000000e+00  1.000000e+00
   outer loop
     vertex  3.255858e+02 -4.822903e+02 -2.819965e+02
     vertex  3.228623e+02 -4.826946e+02 -2.819965e+02
     vertex  3.237284e+02 -4.843228e+02 -2.819965e+02
   endloop
 endfacet
 facet normal  0.000000e+00  0.000000e+00  1.000000e+00
   outer loop
     vertex  3.255858e+02 -4.822903e+02 -2.819965e+02
     vertex  3.237284e+02 -4.843228e+02 -2.819965e+02
     vertex  3.262760e+02 -4.832785e+02 -2.819965e+02
   endloop
 endfacet
 facet normal  0.000000e+00  0.000000e+00  1.000000e+00
   outer loop
     vertex  3.337608e+02 -4.832370e+02 -2.819965e+02
     vertex  3.351046e+02 -4.856402e+02 -2.819965e+02
     vertex  3.363198e+02 -4.842530e+02 -2.819965e+02
   endloop
 endfacet
 facet normal  0.000000e+00  0.000000e+00  1.000000e+00
   outer loop
     vertex  3.337608e+02 -4.832370e+02 -2.819965e+02
     vertex  3.328631e+02 -4.840413e+02 -2.819965e+02
     vertex  3.351046e+02 -4.856402e+02 -2.819965e+02
   endloop
 endfacet
 facet normal  0.000000e+00  0.000000e+00  1.000000e+00
   outer loop
     vertex  3.251521e+02 -4.811657e+02 -2.819965e+02
     vertex  3.224110e+02 -4.809064e+02 -2.819965e+02
     vertex  3.228623e+02 -4.826946e+02 -2.819965e+02
   endloop
 endfacet
 facet normal  0.000000e+00  0.000000e+00  1.000000e+00
   outer loop
     vertex  3.251521e+02 -4.811657e+02 -2.819965e+02
     vertex  3.228623e+02 -4.826946e+02 -2.819965e+02
     vertex  3.255858e+02 -4.822903e+02 -2.819965e+02
   endloop
 endfacet
 facet normal  0.000000e+00  0.000000e+00  1.000000e+00
   outer loop
     vertex  3.344400e+02 -4.822413e+02 -2.819965e+02
     vertex  3.337608e+02 -4.832370e+02 -2.819965e+02
     vertex  3.363198e+02 -4.842530e+02 -2.819965e+02
   endloop
 endfacet
 facet normal  0.000000e+00  0.000000e+00  1.000000e+00
   outer loop
     vertex  3.371678e+02 -4.826153e+02 -2.819965e+02
     vertex  3.344400e+02 -4.822413e+02 -2.819965e+02
     vertex  3.363198e+02 -4.842530e+02 -2.819965e+02
   endloop
 endfacet
 facet normal  0.000000e+00  0.000000e+00  1.000000e+00
   outer loop
     vertex  3.250002e+02 -4.799700e+02 -2.819965e+02
     vertex  3.224110e+02 -4.809064e+02 -2.819965e+02
     vertex  3.251521e+02 -4.811657e+02 -2.819965e+02
   endloop
 endfacet
 facet normal  0.000000e+00  0.000000e+00  1.000000e+00
   outer loop
     vertex  3.224008e+02 -4.790622e+02 -2.819965e+02
     vertex  3.224110e+02 -4.809064e+02 -2.819965e+02
     vertex  3.250002e+02 -4.799700e+02 -2.819965e+02
   endloop
 endfacet
 facet normal  0.000000e+00  0.000000e+00  1.000000e+00
   outer loop
     vertex  3.348612e+02 -4.811119e+02 -2.819965e+02
     vertex  3.344400e+02 -4.822413e+02 -2.819965e+02
     vertex  3.371678e+02 -4.826153e+02 -2.819965e+02
   endloop
 endfacet
 facet normal  0.000000e+00  0.000000e+00  1.000000e+00
   outer loop
     vertex  3.251389e+02 -4.787726e+02 -2.819965e+02
     vertex  3.224008e+02 -4.790622e+02 -2.819965e+02
     vertex  3.250002e+02 -4.799700e+02 -2.819965e+02
   endloop
 endfacet
 facet normal  0.000000e+00  0.000000e+00  1.000000e+00
   outer loop
     vertex  3.375993e+02 -4.808223e+02 -2.819965e+02
     vertex  3.348612e+02 -4.811119e+02 -2.819965e+02
     vertex  3.371678e+02 -4.826153e+02 -2.819965e+02
   endloop
 endfacet
 facet normal  0.000000e+00  0.000000e+00  1.000000e+00
   outer loop
     vertex  3.349999e+02 -4.799146e+02 -2.819965e+02
     vertex  3.348612e+02 -4.811119e+02 -2.819965e+02
     vertex  3.375993e+02 -4.808223e+02 -2.819965e+02
   endloop
 endfacet
 facet normal  0.000000e+00  0.000000e+00  1.000000e+00
   outer loop
     vertex  3.228322e+02 -4.772692e+02 -2.819965e+02
     vertex  3.224008e+02 -4.790622e+02 -2.819965e+02
     vertex  3.251389e+02 -4.787726e+02 -2.819965e+02
   endloop
 endfacet
 facet normal  0.000000e+00  0.000000e+00  1.000000e+00
   outer loop
     vertex  3.255600e+02 -4.776433e+02 -2.819965e+02
     vertex  3.228322e+02 -4.772692e+02 -2.819965e+02
     vertex  3.251389e+02 -4.787726e+02 -2.819965e+02
   endloop
 endfacet
 facet normal  0.000000e+00  0.000000e+00  1.000000e+00
   outer loop
     vertex  3.375890e+02 -4.789781e+02 -2.819965e+02
     vertex  3.348479e+02 -4.787188e+02 -2.819965e+02
     vertex  3.349999e+02 -4.799146e+02 -2.819965e+02
   endloop
 endfacet
 facet normal  0.000000e+00  0.000000e+00  1.000000e+00
   outer loop
     vertex  3.375890e+02 -4.789781e+02 -2.819965e+02
     vertex  3.349999e+02 -4.799146e+02 -2.819965e+02
     vertex  3.375993e+02 -4.808223e+02 -2.819965e+02
   endloop
 endfacet
 facet normal  0.000000e+00  0.000000e+00  1.000000e+00
   outer loop
     vertex  3.236802e+02 -4.756315e+02 -2.819965e+02
     vertex  3.228322e+02 -4.772692e+02 -2.819965e+02
     vertex  3.255600e+02 -4.776433e+02 -2.819965e+02
   endloop
 endfacet
 facet normal  0.000000e+00  0.000000e+00  1.000000e+00
   outer loop
     vertex  3.236802e+02 -4.756315e+02 -2.819965e+02
     vertex  3.255600e+02 -4.776433e+02 -2.819965e+02
     vertex  3.262393e+02 -4.766475e+02 -2.819965e+02
   endloop
 endfacet
 facet normal  0.000000e+00  0.000000e+00  1.000000e+00
   outer loop
     vertex  3.371378e+02 -4.771900e+02 -2.819965e+02
     vertex  3.348479e+02 -4.787188e+02 -2.819965e+02
     vertex  3.375890e+02 -4.789781e+02 -2.819965e+02
   endloop
 endfacet
 facet normal  0.000000e+00  0.000000e+00  1.000000e+00
   outer loop
     vertex  3.371378e+02 -4.771900e+02 -2.819965e+02
     vertex  3.344143e+02 -4.775942e+02 -2.819965e+02
     vertex  3.348479e+02 -4.787188e+02 -2.819965e+02
   endloop
 endfacet
 facet normal  0.000000e+00  0.000000e+00  1.000000e+00
   outer loop
     vertex  3.248955e+02 -4.742443e+02 -2.819965e+02
     vertex  3.236802e+02 -4.756315e+02 -2.819965e+02
     vertex  3.262393e+02 -4.766475e+02 -2.819965e+02
   endloop
 endfacet
 facet normal  0.000000e+00  0.000000e+00  1.000000e+00
   outer loop
     vertex  3.248955e+02 -4.742443e+02 -2.819965e+02
     vertex  3.262393e+02 -4.766475e+02 -2.819965e+02
     vertex  3.271370e+02 -4.758432e+02 -2.819965e+02
   endloop
 endfacet
 facet normal  0.000000e+00  0.000000e+00  1.000000e+00
   outer loop
     vertex  3.362717e+02 -4.755618e+02 -2.819965e+02
     vertex  3.344143e+02 -4.775942e+02 -2.819965e+02
     vertex  3.371378e+02 -4.771900e+02 -2.819965e+02
   endloop
 endfacet
 facet normal  0.000000e+00  0.000000e+00  1.000000e+00
   outer loop
     vertex  3.362717e+02 -4.755618e+02 -2.819965e+02
     vertex  3.337241e+02 -4.766060e+02 -2.819965e+02
     vertex  3.344143e+02 -4.775942e+02 -2.819965e+02
   endloop
 endfacet
 facet normal  0.000000e+00  0.000000e+00  1.000000e+00
   outer loop
     vertex  3.264074e+02 -4.731883e+02 -2.819965e+02
     vertex  3.248955e+02 -4.742443e+02 -2.819965e+02
     vertex  3.271370e+02 -4.758432e+02 -2.819965e+02
   endloop
 endfacet
 facet normal  0.000000e+00  0.000000e+00  1.000000e+00
   outer loop
     vertex  3.264074e+02 -4.731883e+02 -2.819965e+02
     vertex  3.271370e+02 -4.758432e+02 -2.819965e+02
     vertex  3.282012e+02 -4.752772e+02 -2.819965e+02
   endloop
 endfacet
 facet normal  0.000000e+00  0.000000e+00  1.000000e+00
   outer loop
     vertex  3.350411e+02 -4.741881e+02 -2.819965e+02
     vertex  3.337241e+02 -4.766060e+02 -2.819965e+02
     vertex  3.362717e+02 -4.755618e+02 -2.819965e+02
   endloop
 endfacet
 facet normal  0.000000e+00  0.000000e+00  1.000000e+00
   outer loop
     vertex  3.350411e+02 -4.741881e+02 -2.819965e+02
     vertex  3.328175e+02 -4.758118e+02 -2.819965e+02
     vertex  3.337241e+02 -4.766060e+02 -2.819965e+02
   endloop
 endfacet
 facet normal  0.000000e+00  0.000000e+00  1.000000e+00
   outer loop
     vertex  3.281282e+02 -4.725248e+02 -2.819965e+02
     vertex  3.264074e+02 -4.731883e+02 -2.819965e+02
     vertex  3.282012e+02 -4.752772e+02 -2.819965e+02
   endloop
 endfacet
 facet normal  0.000000e+00  0.000000e+00  1.000000e+00
   outer loop
     vertex  3.281282e+02 -4.725248e+02 -2.819965e+02
     vertex  3.282012e+02 -4.752772e+02 -2.819965e+02
     vertex  3.293699e+02 -4.749822e+02 -2.819965e+02
   endloop
 endfacet
 facet normal  0.000000e+00  0.000000e+00  1.000000e+00
   outer loop
     vertex  3.335176e+02 -4.731489e+02 -2.819965e+02
     vertex  3.317471e+02 -4.752575e+02 -2.819965e+02
     vertex  3.328175e+02 -4.758118e+02 -2.819965e+02
   endloop
 endfacet
 facet normal  0.000000e+00  0.000000e+00  1.000000e+00
   outer loop
     vertex  3.335176e+02 -4.731489e+02 -2.819965e+02
     vertex  3.328175e+02 -4.758118e+02 -2.819965e+02
     vertex  3.350411e+02 -4.741881e+02 -2.819965e+02
   endloop
 endfacet
 facet normal  0.000000e+00  0.000000e+00  1.000000e+00
   outer loop
     vertex  3.299577e+02 -4.722924e+02 -2.819965e+02
     vertex  3.293699e+02 -4.749822e+02 -2.819965e+02
     vertex  3.305752e+02 -4.749756e+02 -2.819965e+02
   endloop
 endfacet
 facet normal  0.000000e+00  0.000000e+00  1.000000e+00
   outer loop
     vertex  3.299577e+02 -4.722924e+02 -2.819965e+02
     vertex  3.281282e+02 -4.725248e+02 -2.819965e+02
     vertex  3.293699e+02 -4.749822e+02 -2.819965e+02
   endloop
 endfacet
 facet normal  0.000000e+00  0.000000e+00  1.000000e+00
   outer loop
     vertex  3.317896e+02 -4.725045e+02 -2.819965e+02
     vertex  3.299577e+02 -4.722924e+02 -2.819965e+02
     vertex  3.305752e+02 -4.749756e+02 -2.819965e+02
   endloop
 endfacet
 facet normal  0.000000e+00  0.000000e+00  1.000000e+00
   outer loop
     vertex  3.317896e+02 -4.725045e+02 -2.819965e+02
     vertex  3.305752e+02 -4.749756e+02 -2.819965e+02
     vertex  3.317471e+02 -4.752575e+02 -2.819965e+02
   endloop
 endfacet
 facet normal  0.000000e+00  0.000000e+00  1.000000e+00
   outer loop
     vertex  3.317896e+02 -4.725045e+02 -2.819965e+02
     vertex  3.317471e+02 -4.752575e+02 -2.819965e+02
     vertex  3.335176e+02 -4.731489e+02 -2.819965e+02
   endloop
 endfacet
 facet normal -2.361002e-01  4.438591e-01 -8.644338e-01
   outer loop
     vertex  3.317989e+02 -4.846074e+02 -2.899965e+02
     vertex  3.323981e+02 -4.833757e+02 -2.895278e+02
     vertex  3.328631e+02 -4.840413e+02 -2.899965e+02
   endloop
 endfacet
 facet normal -2.361002e-01  4.438591e-01 -8.644338e-01
   outer loop
     vertex  3.317989e+02 -4.846074e+02 -2.899965e+02
     vertex  3.315068e+02 -4.838498e+02 -2.895278e+02
     vertex  3.323981e+02 -4.833757e+02 -2.895278e+02
   endloop
 endfacet
 facet normal -1.230171e-01  4.874639e-01 -8.644338e-01
   outer loop
     vertex  3.306302e+02 -4.849023e+02 -2.899965e+02
     vertex  3.305279e+02 -4.840969e+02 -2.895278e+02
     vertex  3.315068e+02 -4.838498e+02 -2.895278e+02
   endloop
 endfacet
 facet normal -1.230171e-01  4.874639e-01 -8.644338e-01
   outer loop
     vertex  3.306302e+02 -4.849023e+02 -2.899965e+02
     vertex  3.315068e+02 -4.838498e+02 -2.895278e+02
     vertex  3.317989e+02 -4.846074e+02 -2.899965e+02
   endloop
 endfacet
 facet normal -2.784724e-03  5.027390e-01 -8.644338e-01
   outer loop
     vertex  3.294249e+02 -4.849090e+02 -2.899965e+02
     vertex  3.295183e+02 -4.841025e+02 -2.895278e+02
     vertex  3.305279e+02 -4.840969e+02 -2.895278e+02
   endloop
 endfacet
 facet normal -2.784724e-03  5.027390e-01 -8.644338e-01
   outer loop
     vertex  3.294249e+02 -4.849090e+02 -2.899965e+02
     vertex  3.305279e+02 -4.840969e+02 -2.895278e+02
     vertex  3.306302e+02 -4.849023e+02 -2.899965e+02
   endloop
 endfacet
 facet normal  1.176095e-01  4.887967e-01 -8.644338e-01
   outer loop
     vertex  3.282530e+02 -4.846270e+02 -2.899965e+02
     vertex  3.285367e+02 -4.838663e+02 -2.895278e+02
     vertex  3.295183e+02 -4.841025e+02 -2.895278e+02
   endloop
 endfacet
 facet normal  1.176095e-01  4.887967e-01 -8.644338e-01
   outer loop
     vertex  3.282530e+02 -4.846270e+02 -2.899965e+02
     vertex  3.295183e+02 -4.841025e+02 -2.895278e+02
     vertex  3.294249e+02 -4.849090e+02 -2.899965e+02
   endloop
 endfacet
 facet normal  2.311687e-01  4.464474e-01 -8.644338e-01
   outer loop
     vertex  3.271826e+02 -4.840728e+02 -2.899965e+02
     vertex  3.276401e+02 -4.834020e+02 -2.895278e+02
     vertex  3.285367e+02 -4.838663e+02 -2.895278e+02
   endloop
 endfacet
 facet normal  2.311687e-01  4.464474e-01 -8.644338e-01
   outer loop
     vertex  3.271826e+02 -4.840728e+02 -2.899965e+02
     vertex  3.285367e+02 -4.838663e+02 -2.895278e+02
     vertex  3.282530e+02 -4.846270e+02 -2.899965e+02
   endloop
 endfacet
 facet normal  3.312932e-01  3.781521e-01 -8.644338e-01
   outer loop
     vertex  3.262760e+02 -4.832785e+02 -2.899965e+02
     vertex  3.268807e+02 -4.827367e+02 -2.895278e+02
     vertex  3.276401e+02 -4.834020e+02 -2.895278e+02
   endloop
 endfacet
 facet normal  3.312932e-01  3.781521e-01 -8.644338e-01
   outer loop
     vertex  3.262760e+02 -4.832785e+02 -2.899965e+02
     vertex  3.276401e+02 -4.834020e+02 -2.895278e+02
     vertex  3.271826e+02 -4.840728e+02 -2.899965e+02
   endloop
 endfacet
 facet normal  4.121641e-01  2.878801e-01 -8.644338e-01
   outer loop
     vertex  3.255858e+02 -4.822903e+02 -2.899965e+02
     vertex  3.263026e+02 -4.819090e+02 -2.895278e+02
     vertex  3.268807e+02 -4.827367e+02 -2.895278e+02
   endloop
 endfacet
 facet normal  4.121641e-01  2.878801e-01 -8.644338e-01
   outer loop
     vertex  3.255858e+02 -4.822903e+02 -2.899965e+02
     vertex  3.268807e+02 -4.827367e+02 -2.895278e+02
     vertex  3.262760e+02 -4.832785e+02 -2.899965e+02
   endloop
 endfacet
 facet normal  4.690816e-01  1.808775e-01 -8.644338e-01
   outer loop
     vertex  3.251521e+02 -4.811657e+02 -2.899965e+02
     vertex  3.259393e+02 -4.809670e+02 -2.895278e+02
     vertex  3.263026e+02 -4.819090e+02 -2.895278e+02
   endloop
 endfacet
 facet normal  4.690816e-01  1.808775e-01 -8.644338e-01
   outer loop
     vertex  3.251521e+02 -4.811657e+02 -2.899965e+02
     vertex  3.263026e+02 -4.819090e+02 -2.895278e+02
     vertex  3.255858e+02 -4.822903e+02 -2.899965e+02
   endloop
 endfacet
 facet normal  4.987378e-01  6.336291e-02 -8.644338e-01
   outer loop
     vertex  3.250002e+02 -4.799700e+02 -2.899965e+02
     vertex  3.258121e+02 -4.799655e+02 -2.895278e+02
     vertex  3.259393e+02 -4.809670e+02 -2.895278e+02
   endloop
 endfacet
 facet normal  4.987378e-01  6.336291e-02 -8.644338e-01
   outer loop
     vertex  3.250002e+02 -4.799700e+02 -2.899965e+02
     vertex  3.259393e+02 -4.809670e+02 -2.895278e+02
     vertex  3.251521e+02 -4.811657e+02 -2.899965e+02
   endloop
 endfacet
 facet normal  4.994091e-01 -5.783407e-02 -8.644338e-01
   outer loop
     vertex  3.251389e+02 -4.787726e+02 -2.899965e+02
     vertex  3.259282e+02 -4.789625e+02 -2.895278e+02
     vertex  3.258121e+02 -4.799655e+02 -2.895278e+02
   endloop
 endfacet
 facet normal  4.994091e-01 -5.783407e-02 -8.644338e-01
   outer loop
     vertex  3.251389e+02 -4.787726e+02 -2.899965e+02
     vertex  3.258121e+02 -4.799655e+02 -2.895278e+02
     vertex  3.250002e+02 -4.799700e+02 -2.899965e+02
   endloop
 endfacet
 facet normal  4.710566e-01 -1.756699e-01 -8.644338e-01
   outer loop
     vertex  3.255600e+02 -4.776433e+02 -2.899965e+02
     vertex  3.262810e+02 -4.780166e+02 -2.895278e+02
     vertex  3.259282e+02 -4.789625e+02 -2.895278e+02
   endloop
 endfacet
 facet normal  4.710566e-01 -1.756699e-01 -8.644338e-01
   outer loop
     vertex  3.255600e+02 -4.776433e+02 -2.899965e+02
     vertex  3.259282e+02 -4.789625e+02 -2.895278e+02
     vertex  3.251389e+02 -4.787726e+02 -2.899965e+02
   endloop
 endfacet
 facet normal  4.153280e-01 -2.832965e-01 -8.644338e-01
   outer loop
     vertex  3.262393e+02 -4.766475e+02 -2.899965e+02
     vertex  3.262810e+02 -4.780166e+02 -2.895278e+02
     vertex  3.255600e+02 -4.776433e+02 -2.899965e+02
   endloop
 endfacet
 facet normal  4.153280e-01 -2.832965e-01 -8.644338e-01
   outer loop
     vertex  3.262393e+02 -4.766475e+02 -2.899965e+02
     vertex  3.268499e+02 -4.771825e+02 -2.895278e+02
     vertex  3.262810e+02 -4.780166e+02 -2.895278e+02
   endloop
 endfacet
 facet normal  3.354620e-01 -3.744589e-01 -8.644338e-01
   outer loop
     vertex  3.271370e+02 -4.758432e+02 -2.899965e+02
     vertex  3.268499e+02 -4.771825e+02 -2.895278e+02
     vertex  3.262393e+02 -4.766475e+02 -2.899965e+02
   endloop
 endfacet
 facet normal  3.354620e-01 -3.744589e-01 -8.644338e-01
   outer loop
     vertex  3.271370e+02 -4.758432e+02 -2.899965e+02
     vertex  3.276019e+02 -4.765088e+02 -2.895278e+02
     vertex  3.268499e+02 -4.771825e+02 -2.895278e+02
   endloop
 endfacet
 facet normal  2.361002e-01 -4.438591e-01 -8.644338e-01
   outer loop
     vertex  3.282012e+02 -4.752772e+02 -2.899965e+02
     vertex  3.276019e+02 -4.765088e+02 -2.895278e+02
     vertex  3.271370e+02 -4.758432e+02 -2.899965e+02
   endloop
 endfacet
 facet normal  2.361002e-01 -4.438591e-01 -8.644338e-01
   outer loop
     vertex  3.282012e+02 -4.752772e+02 -2.899965e+02
     vertex  3.284933e+02 -4.760347e+02 -2.895278e+02
     vertex  3.276019e+02 -4.765088e+02 -2.895278e+02
   endloop
 endfacet
 facet normal  1.230171e-01 -4.874639e-01 -8.644338e-01
   outer loop
     vertex  3.293699e+02 -4.749822e+02 -2.899965e+02
     vertex  3.284933e+02 -4.760347e+02 -2.895278e+02
     vertex  3.282012e+02 -4.752772e+02 -2.899965e+02
   endloop
 endfacet
 facet normal  1.230171e-01 -4.874639e-01 -8.644338e-01
   outer loop
     vertex  3.293699e+02 -4.749822e+02 -2.899965e+02
     vertex  3.294722e+02 -4.757877e+02 -2.895278e+02
     vertex  3.284933e+02 -4.760347e+02 -2.895278e+02
   endloop
 endfacet
 facet normal  2.784724e-03 -5.027390e-01 -8.644338e-01
   outer loop
     vertex  3.305752e+02 -4.749756e+02 -2.899965e+02
     vertex  3.294722e+02 -4.757877e+02 -2.895278e+02
     vertex  3.293699e+02 -4.749822e+02 -2.899965e+02
   endloop
 endfacet
 facet normal  2.784724e-03 -5.027390e-01 -8.644338e-01
   outer loop
     vertex  3.305752e+02 -4.749756e+02 -2.899965e+02
     vertex  3.304818e+02 -4.757821e+02 -2.895278e+02
     vertex  3.294722e+02 -4.757877e+02 -2.895278e+02
   endloop
 endfacet
 facet normal -1.176095e-01 -4.887967e-01 -8.644338e-01
   outer loop
     vertex  3.317471e+02 -4.752575e+02 -2.899965e+02
     vertex  3.304818e+02 -4.757821e+02 -2.895278e+02
     vertex  3.305752e+02 -4.749756e+02 -2.899965e+02
   endloop
 endfacet
 facet normal -1.176095e-01 -4.887967e-01 -8.644338e-01
   outer loop
     vertex  3.317471e+02 -4.752575e+02 -2.899965e+02
     vertex  3.314634e+02 -4.760183e+02 -2.895278e+02
     vertex  3.304818e+02 -4.757821e+02 -2.895278e+02
   endloop
 endfacet
 facet normal -2.311687e-01 -4.464474e-01 -8.644338e-01
   outer loop
     vertex  3.328175e+02 -4.758118e+02 -2.899965e+02
     vertex  3.314634e+02 -4.760183e+02 -2.895278e+02
     vertex  3.317471e+02 -4.752575e+02 -2.899965e+02
   endloop
 endfacet
 facet normal -2.311687e-01 -4.464474e-01 -8.644338e-01
   outer loop
     vertex  3.328175e+02 -4.758118e+02 -2.899965e+02
     vertex  3.323600e+02 -4.764825e+02 -2.895278e+02
     vertex  3.314634e+02 -4.760183e+02 -2.895278e+02
   endloop
 endfacet
 facet normal -3.312932e-01 -3.781521e-01 -8.644338e-01
   outer loop
     vertex  3.337241e+02 -4.766060e+02 -2.899965e+02
     vertex  3.323600e+02 -4.764825e+02 -2.895278e+02
     vertex  3.328175e+02 -4.758118e+02 -2.899965e+02
   endloop
 endfacet
 facet normal -3.312932e-01 -3.781521e-01 -8.644338e-01
   outer loop
     vertex  3.337241e+02 -4.766060e+02 -2.899965e+02
     vertex  3.331194e+02 -4.771478e+02 -2.895278e+02
     vertex  3.323600e+02 -4.764825e+02 -2.895278e+02
   endloop
 endfacet
 facet normal -4.121641e-01 -2.878801e-01 -8.644338e-01
   outer loop
     vertex  3.344143e+02 -4.775942e+02 -2.899965e+02
     vertex  3.331194e+02 -4.771478e+02 -2.895278e+02
     vertex  3.337241e+02 -4.766060e+02 -2.899965e+02
   endloop
 endfacet
 facet normal -4.121641e-01 -2.878801e-01 -8.644338e-01
   outer loop
     vertex  3.344143e+02 -4.775942e+02 -2.899965e+02
     vertex  3.336975e+02 -4.779755e+02 -2.895278e+02
     vertex  3.331194e+02 -4.771478e+02 -2.895278e+02
   endloop
 endfacet
 facet normal -4.690816e-01 -1.808775e-01 -8.644338e-01
   outer loop
     vertex  3.348479e+02 -4.787188e+02 -2.899965e+02
     vertex  3.336975e+02 -4.779755e+02 -2.895278e+02
     vertex  3.344143e+02 -4.775942e+02 -2.899965e+02
   endloop
 endfacet
 facet normal -4.690816e-01 -1.808775e-01 -8.644338e-01
   outer loop
     vertex  3.348479e+02 -4.787188e+02 -2.899965e+02
     vertex  3.340607e+02 -4.789175e+02 -2.895278e+02
     vertex  3.336975e+02 -4.779755e+02 -2.895278e+02
   endloop
 endfacet
 facet normal -4.987378e-01 -6.336291e-02 -8.644338e-01
   outer loop
     vertex  3.349999e+02 -4.799146e+02 -2.899965e+02
     vertex  3.340607e+02 -4.789175e+02 -2.895278e+02
     vertex  3.348479e+02 -4.787188e+02 -2.899965e+02
   endloop
 endfacet
 facet normal -4.987378e-01 -6.336291e-02 -8.644338e-01
   outer loop
     vertex  3.349999e+02 -4.799146e+02 -2.899965e+02
     vertex  3.341880e+02 -4.799191e+02 -2.895278e+02
     vertex  3.340607e+02 -4.789175e+02 -2.895278e+02
   endloop
 endfacet
 facet normal -4.994091e-01  5.783407e-02 -8.644338e-01
   outer loop
     vertex  3.340718e+02 -4.809220e+02 -2.895278e+02
     vertex  3.341880e+02 -4.799191e+02 -2.895278e+02
     vertex  3.349999e+02 -4.799146e+02 -2.899965e+02
   endloop
 endfacet
 facet normal -4.994091e-01  5.783407e-02 -8.644338e-01
   outer loop
     vertex  3.348612e+02 -4.811119e+02 -2.899965e+02
     vertex  3.340718e+02 -4.809220e+02 -2.895278e+02
     vertex  3.349999e+02 -4.799146e+02 -2.899965e+02
   endloop
 endfacet
 facet normal -4.710566e-01  1.756699e-01 -8.644338e-01
   outer loop
     vertex  3.344400e+02 -4.822413e+02 -2.899965e+02
     vertex  3.337191e+02 -4.818680e+02 -2.895278e+02
     vertex  3.340718e+02 -4.809220e+02 -2.895278e+02
   endloop
 endfacet
 facet normal -4.710566e-01  1.756699e-01 -8.644338e-01
   outer loop
     vertex  3.344400e+02 -4.822413e+02 -2.899965e+02
     vertex  3.340718e+02 -4.809220e+02 -2.895278e+02
     vertex  3.348612e+02 -4.811119e+02 -2.899965e+02
   endloop
 endfacet
 facet normal -4.153280e-01  2.832965e-01 -8.644338e-01
   outer loop
     vertex  3.337608e+02 -4.832370e+02 -2.899965e+02
     vertex  3.331501e+02 -4.827020e+02 -2.895278e+02
     vertex  3.337191e+02 -4.818680e+02 -2.895278e+02
   endloop
 endfacet
 facet normal -4.153280e-01  2.832965e-01 -8.644338e-01
   outer loop
     vertex  3.337608e+02 -4.832370e+02 -2.899965e+02
     vertex  3.337191e+02 -4.818680e+02 -2.895278e+02
     vertex  3.344400e+02 -4.822413e+02 -2.899965e+02
   endloop
 endfacet
 facet normal -3.354620e-01  3.744589e-01 -8.644338e-01
   outer loop
     vertex  3.328631e+02 -4.840413e+02 -2.899965e+02
     vertex  3.323981e+02 -4.833757e+02 -2.895278e+02
     vertex  3.331501e+02 -4.827020e+02 -2.895278e+02
   endloop
 endfacet
 facet normal -3.354620e-01  3.744589e-01 -8.644338e-01
   outer loop
     vertex  3.328631e+02 -4.840413e+02 -2.899965e+02
     vertex  3.331501e+02 -4.827020e+02 -2.895278e+02
     vertex  3.337608e+02 -4.832370e+02 -2.899965e+02
   endloop
 endfacet
 facet normal  0.000000e+00 -0.000000e+00 -1.000000e+00
   outer loop
     vertex  3.294249e+02 -4.849090e+02 -2.899965e+02
     vertex  3.300424e+02 -4.875921e+02 -2.899965e+02
     vertex  3.282104e+02 -4.873800e+02 -2.899965e+02
   endloop
 endfacet
 facet normal  0.000000e+00  0.000000e+00 -1.000000e+00
   outer loop
     vertex  3.282530e+02 -4.846270e+02 -2.899965e+02
     vertex  3.282104e+02 -4.873800e+02 -2.899965e+02
     vertex  3.264825e+02 -4.867356e+02 -2.899965e+02
   endloop
 endfacet
 facet normal  0.000000e+00 -0.000000e+00 -1.000000e+00
   outer loop
     vertex  3.282530e+02 -4.846270e+02 -2.899965e+02
     vertex  3.294249e+02 -4.849090e+02 -2.899965e+02
     vertex  3.282104e+02 -4.873800e+02 -2.899965e+02
   endloop
 endfacet
 facet normal  0.000000e+00 -0.000000e+00 -1.000000e+00
   outer loop
     vertex  3.306302e+02 -4.849023e+02 -2.899965e+02
     vertex  3.318719e+02 -4.873597e+02 -2.899965e+02
     vertex  3.300424e+02 -4.875921e+02 -2.899965e+02
   endloop
 endfacet
 facet normal  0.000000e+00  0.000000e+00 -1.000000e+00
   outer loop
     vertex  3.306302e+02 -4.849023e+02 -2.899965e+02
     vertex  3.300424e+02 -4.875921e+02 -2.899965e+02
     vertex  3.294249e+02 -4.849090e+02 -2.899965e+02
   endloop
 endfacet
 facet normal  0.000000e+00  0.000000e+00 -1.000000e+00
   outer loop
     vertex  3.271826e+02 -4.840728e+02 -2.899965e+02
     vertex  3.264825e+02 -4.867356e+02 -2.899965e+02
     vertex  3.249589e+02 -4.856964e+02 -2.899965e+02
   endloop
 endfacet
 facet normal  0.000000e+00 -0.000000e+00 -1.000000e+00
   outer loop
     vertex  3.271826e+02 -4.840728e+02 -2.899965e+02
     vertex  3.282530e+02 -4.846270e+02 -2.899965e+02
     vertex  3.264825e+02 -4.867356e+02 -2.899965e+02
   endloop
 endfacet
 facet normal  0.000000e+00  0.000000e+00 -1.000000e+00
   outer loop
     vertex  3.317989e+02 -4.846074e+02 -2.899965e+02
     vertex  3.335926e+02 -4.866962e+02 -2.899965e+02
     vertex  3.318719e+02 -4.873597e+02 -2.899965e+02
   endloop
 endfacet
 facet normal  0.000000e+00 -0.000000e+00 -1.000000e+00
   outer loop
     vertex  3.317989e+02 -4.846074e+02 -2.899965e+02
     vertex  3.318719e+02 -4.873597e+02 -2.899965e+02
     vertex  3.306302e+02 -4.849023e+02 -2.899965e+02
   endloop
 endfacet
 facet normal  0.000000e+00  0.000000e+00 -1.000000e+00
   outer loop
     vertex  3.262760e+02 -4.832785e+02 -2.899965e+02
     vertex  3.249589e+02 -4.856964e+02 -2.899965e+02
     vertex  3.237284e+02 -4.843228e+02 -2.899965e+02
   endloop
 endfacet
 facet normal  0.000000e+00 -0.000000e+00 -1.000000e+00
   outer loop
     vertex  3.262760e+02 -4.832785e+02 -2.899965e+02
     vertex  3.271826e+02 -4.840728e+02 -2.899965e+02
     vertex  3.249589e+02 -4.856964e+02 -2.899965e+02
   endloop
 endfacet
 facet normal  0.000000e+00  0.000000e+00 -1.000000e+00
   outer loop
     vertex  3.328631e+02 -4.840413e+02 -2.899965e+02
     vertex  3.351046e+02 -4.856402e+02 -2.899965e+02
     vertex  3.335926e+02 -4.866962e+02 -2.899965e+02
   endloop
 endfacet
 facet normal  0.000000e+00 -0.000000e+00 -1.000000e+00
   outer loop
     vertex  3.328631e+02 -4.840413e+02 -2.899965e+02
     vertex  3.335926e+02 -4.866962e+02 -2.899965e+02
     vertex  3.317989e+02 -4.846074e+02 -2.899965e+02
   endloop
 endfacet
 facet normal  0.000000e+00  0.000000e+00 -1.000000e+00
   outer loop
     vertex  3.255858e+02 -4.822903e+02 -2.899965e+02
     vertex  3.237284e+02 -4.843228e+02 -2.899965e+02
     vertex  3.228623e+02 -4.826946e+02 -2.899965e+02
   endloop
 endfacet
 facet normal  0.000000e+00 -0.000000e+00 -1.000000e+00
   outer loop
     vertex  3.255858e+02 -4.822903e+02 -2.899965e+02
     vertex  3.262760e+02 -4.832785e+02 -2.899965e+02
     vertex  3.237284e+02 -4.843228e+02 -2.899965e+02
   endloop
 endfacet
 facet normal  0.000000e+00  0.000000e+00 -1.000000e+00
   outer loop
     vertex  3.337608e+02 -4.832370e+02 -2.899965e+02
     vertex  3.363198e+02 -4.842530e+02 -2.899965e+02
     vertex  3.351046e+02 -4.856402e+02 -2.899965e+02
   endloop
 endfacet
 facet normal  0.000000e+00 -0.000000e+00 -1.000000e+00
   outer loop
     vertex  3.337608e+02 -4.832370e+02 -2.899965e+02
     vertex  3.351046e+02 -4.856402e+02 -2.899965e+02
     vertex  3.328631e+02 -4.840413e+02 -2.899965e+02
   endloop
 endfacet
 facet normal -0.000000e+00  0.000000e+00 -1.000000e+00
   outer loop
     vertex  3.251521e+02 -4.811657e+02 -2.899965e+02
     vertex  3.228623e+02 -4.826946e+02 -2.899965e+02
     vertex  3.224110e+02 -4.809064e+02 -2.899965e+02
   endloop
 endfacet
 facet normal  0.000000e+00 -0.000000e+00 -1.000000e+00
   outer loop
     vertex  3.251521e+02 -4.811657e+02 -2.899965e+02
     vertex  3.255858e+02 -4.822903e+02 -2.899965e+02
     vertex  3.228623e+02 -4.826946e+02 -2.899965e+02
   endloop
 endfacet
 facet normal  0.000000e+00 -0.000000e+00 -1.000000e+00
   outer loop
     vertex  3.344400e+02 -4.822413e+02 -2.899965e+02
     vertex  3.363198e+02 -4.842530e+02 -2.899965e+02
     vertex  3.337608e+02 -4.832370e+02 -2.899965e+02
   endloop
 endfacet
 facet normal -0.000000e+00  0.000000e+00 -1.000000e+00
   outer loop
     vertex  3.371678e+02 -4.826153e+02 -2.899965e+02
     vertex  3.363198e+02 -4.842530e+02 -2.899965e+02
     vertex  3.344400e+02 -4.822413e+02 -2.899965e+02
   endloop
 endfacet
 facet normal  0.000000e+00 -0.000000e+00 -1.000000e+00
   outer loop
     vertex  3.250002e+02 -4.799700e+02 -2.899965e+02
     vertex  3.251521e+02 -4.811657e+02 -2.899965e+02
     vertex  3.224110e+02 -4.809064e+02 -2.899965e+02
   endloop
 endfacet
 facet normal  0.000000e+00  0.000000e+00 -1.000000e+00
   outer loop
     vertex  3.224008e+02 -4.790622e+02 -2.899965e+02
     vertex  3.250002e+02 -4.799700e+02 -2.899965e+02
     vertex  3.224110e+02 -4.809064e+02 -2.899965e+02
   endloop
 endfacet
 facet normal  0.000000e+00 -0.000000e+00 -1.000000e+00
   outer loop
     vertex  3.348612e+02 -4.811119e+02 -2.899965e+02
     vertex  3.371678e+02 -4.826153e+02 -2.899965e+02
     vertex  3.344400e+02 -4.822413e+02 -2.899965e+02
   endloop
 endfacet
 facet normal  0.000000e+00  0.000000e+00 -1.000000e+00
   outer loop
     vertex  3.251389e+02 -4.787726e+02 -2.899965e+02
     vertex  3.250002e+02 -4.799700e+02 -2.899965e+02
     vertex  3.224008e+02 -4.790622e+02 -2.899965e+02
   endloop
 endfacet
 facet normal  0.000000e+00  0.000000e+00 -1.000000e+00
   outer loop
     vertex  3.375993e+02 -4.808223e+02 -2.899965e+02
     vertex  3.371678e+02 -4.826153e+02 -2.899965e+02
     vertex  3.348612e+02 -4.811119e+02 -2.899965e+02
   endloop
 endfacet
 facet normal  0.000000e+00 -0.000000e+00 -1.000000e+00
   outer loop
     vertex  3.349999e+02 -4.799146e+02 -2.899965e+02
     vertex  3.375993e+02 -4.808223e+02 -2.899965e+02
     vertex  3.348612e+02 -4.811119e+02 -2.899965e+02
   endloop
 endfacet
 facet normal  0.000000e+00 -0.000000e+00 -1.000000e+00
   outer loop
     vertex  3.228322e+02 -4.772692e+02 -2.899965e+02
     vertex  3.251389e+02 -4.787726e+02 -2.899965e+02
     vertex  3.224008e+02 -4.790622e+02 -2.899965e+02
   endloop
 endfacet
 facet normal -0.000000e+00  0.000000e+00 -1.000000e+00
   outer loop
     vertex  3.255600e+02 -4.776433e+02 -2.899965e+02
     vertex  3.251389e+02 -4.787726e+02 -2.899965e+02
     vertex  3.228322e+02 -4.772692e+02 -2.899965e+02
   endloop
 endfacet
 facet normal  0.000000e+00 -0.000000e+00 -1.000000e+00
   outer loop
     vertex  3.375890e+02 -4.789781e+02 -2.899965e+02
     vertex  3.375993e+02 -4.808223e+02 -2.899965e+02
     vertex  3.349999e+02 -4.799146e+02 -2.899965e+02
   endloop
 endfacet
 facet normal -0.000000e+00  0.000000e+00 -1.000000e+00
   outer loop
     vertex  3.375890e+02 -4.789781e+02 -2.899965e+02
     vertex  3.349999e+02 -4.799146e+02 -2.899965e+02
     vertex  3.348479e+02 -4.787188e+02 -2.899965e+02
   endloop
 endfacet
 facet normal  0.000000e+00 -0.000000e+00 -1.000000e+00
   outer loop
     vertex  3.236802e+02 -4.756315e+02 -2.899965e+02
     vertex  3.255600e+02 -4.776433e+02 -2.899965e+02
     vertex  3.228322e+02 -4.772692e+02 -2.899965e+02
   endloop
 endfacet
 facet normal  0.000000e+00  0.000000e+00 -1.000000e+00
   outer loop
     vertex  3.236802e+02 -4.756315e+02 -2.899965e+02
     vertex  3.262393e+02 -4.766475e+02 -2.899965e+02
     vertex  3.255600e+02 -4.776433e+02 -2.899965e+02
   endloop
 endfacet
 facet normal  0.000000e+00 -0.000000e+00 -1.000000e+00
   outer loop
     vertex  3.371378e+02 -4.771900e+02 -2.899965e+02
     vertex  3.375890e+02 -4.789781e+02 -2.899965e+02
     vertex  3.348479e+02 -4.787188e+02 -2.899965e+02
   endloop
 endfacet
 facet normal  0.000000e+00  0.000000e+00 -1.000000e+00
   outer loop
     vertex  3.371378e+02 -4.771900e+02 -2.899965e+02
     vertex  3.348479e+02 -4.787188e+02 -2.899965e+02
     vertex  3.344143e+02 -4.775942e+02 -2.899965e+02
   endloop
 endfacet
 facet normal  0.000000e+00  0.000000e+00 -1.000000e+00
   outer loop
     vertex  3.248955e+02 -4.742443e+02 -2.899965e+02
     vertex  3.271370e+02 -4.758432e+02 -2.899965e+02
     vertex  3.262393e+02 -4.766475e+02 -2.899965e+02
   endloop
 endfacet
 facet normal  0.000000e+00 -0.000000e+00 -1.000000e+00
   outer loop
     vertex  3.248955e+02 -4.742443e+02 -2.899965e+02
     vertex  3.262393e+02 -4.766475e+02 -2.899965e+02
     vertex  3.236802e+02 -4.756315e+02 -2.899965e+02
   endloop
 endfacet
 facet normal  0.000000e+00 -0.000000e+00 -1.000000e+00
   outer loop
     vertex  3.362717e+02 -4.755618e+02 -2.899965e+02
     vertex  3.371378e+02 -4.771900e+02 -2.899965e+02
     vertex  3.344143e+02 -4.775942e+02 -2.899965e+02
   endloop
 endfacet
 facet normal  0.000000e+00  0.000000e+00 -1.000000e+00
   outer loop
     vertex  3.362717e+02 -4.755618e+02 -2.899965e+02
     vertex  3.344143e+02 -4.775942e+02 -2.899965e+02
     vertex  3.337241e+02 -4.766060e+02 -2.899965e+02
   endloop
 endfacet
 facet normal  0.000000e+00 -0.000000e+00 -1.000000e+00
   outer loop
     vertex  3.264074e+02 -4.731883e+02 -2.899965e+02
     vertex  3.271370e+02 -4.758432e+02 -2.899965e+02
     vertex  3.248955e+02 -4.742443e+02 -2.899965e+02
   endloop
 endfacet
 facet normal  0.000000e+00  0.000000e+00 -1.000000e+00
   outer loop
     vertex  3.264074e+02 -4.731883e+02 -2.899965e+02
     vertex  3.282012e+02 -4.752772e+02 -2.899965e+02
     vertex  3.271370e+02 -4.758432e+02 -2.899965e+02
   endloop
 endfacet
 facet normal  0.000000e+00  0.000000e+00 -1.000000e+00
   outer loop
     vertex  3.350411e+02 -4.741881e+02 -2.899965e+02
     vertex  3.337241e+02 -4.766060e+02 -2.899965e+02
     vertex  3.328175e+02 -4.758118e+02 -2.899965e+02
   endloop
 endfacet
 facet normal  0.000000e+00 -0.000000e+00 -1.000000e+00
   outer loop
     vertex  3.350411e+02 -4.741881e+02 -2.899965e+02
     vertex  3.362717e+02 -4.755618e+02 -2.899965e+02
     vertex  3.337241e+02 -4.766060e+02 -2.899965e+02
   endloop
 endfacet
 facet normal  0.000000e+00  0.000000e+00 -1.000000e+00
   outer loop
     vertex  3.281282e+02 -4.725248e+02 -2.899965e+02
     vertex  3.293699e+02 -4.749822e+02 -2.899965e+02
     vertex  3.282012e+02 -4.752772e+02 -2.899965e+02
   endloop
 endfacet
 facet normal  0.000000e+00 -0.000000e+00 -1.000000e+00
   outer loop
     vertex  3.281282e+02 -4.725248e+02 -2.899965e+02
     vertex  3.282012e+02 -4.752772e+02 -2.899965e+02
     vertex  3.264074e+02 -4.731883e+02 -2.899965e+02
   endloop
 endfacet
 facet normal  0.000000e+00  0.000000e+00 -1.000000e+00
   outer loop
     vertex  3.335176e+02 -4.731489e+02 -2.899965e+02
     vertex  3.328175e+02 -4.758118e+02 -2.899965e+02
     vertex  3.317471e+02 -4.752575e+02 -2.899965e+02
   endloop
 endfacet
 facet normal  0.000000e+00 -0.000000e+00 -1.000000e+00
   outer loop
     vertex  3.335176e+02 -4.731489e+02 -2.899965e+02
     vertex  3.350411e+02 -4.741881e+02 -2.899965e+02
     vertex  3.328175e+02 -4.758118e+02 -2.899965e+02
   endloop
 endfacet
 facet normal  0.000000e+00 -0.000000e+00 -1.000000e+00
   outer loop
     vertex  3.299577e+02 -4.722924e+02 -2.899965e+02
     vertex  3.305752e+02 -4.749756e+02 -2.899965e+02
     vertex  3.293699e+02 -4.749822e+02 -2.899965e+02
   endloop
 endfacet
 facet normal  0.000000e+00  0.000000e+00 -1.000000e+00
   outer loop
     vertex  3.299577e+02 -4.722924e+02 -2.899965e+02
     vertex  3.293699e+02 -4.749822e+02 -2.899965e+02
     vertex  3.281282e+02 -4.725248e+02 -2.899965e+02
   endloop
 endfacet
 facet normal  0.000000e+00 -0.000000e+00 -1.000000e+00
   outer loop
     vertex  3.317896e+02 -4.725045e+02 -2.899965e+02
     vertex  3.335176e+02 -4.731489e+02 -2.899965e+02
     vertex  3.317471e+02 -4.752575e+02 -2.899965e+02
   endloop
 endfacet
 facet normal  0.000000e+00  0.000000e+00 -1.000000e+00
   outer loop
     vertex  3.317896e+02 -4.725045e+02 -2.899965e+02
     vertex  3.317471e+02 -4.752575e+02 -2.899965e+02
     vertex  3.305752e+02 -4.749756e+02 -2.899965e+02
   endloop
 endfacet
 facet normal -0.000000e+00  0.000000e+00 -1.000000e+00
   outer loop
     vertex  3.317896e+02 -4.725045e+02 -2.899965e+02
     vertex  3.305752e+02 -4.749756e+02 -2.899965e+02
     vertex  3.299577e+02 -4.722924e+02 -2.899965e+02
   endloop
 endfacet
 facet normal  4.438591e-01  2.361002e-01  8.644338e-01
   outer loop
     vertex  3.380466e+02 -4.743221e+02 -2.832465e+02
     vertex  3.362717e+02 -4.755618e+02 -2.819965e+02
     vertex  3.371378e+02 -4.771900e+02 -2.819965e+02
   endloop
 endfacet
 facet normal  4.898549e-01  2.131997e-01  8.453331e-01
   outer loop
     vertex  3.383369e+02 -4.776865e+02 -2.825662e+02
     vertex  3.380466e+02 -4.743221e+02 -2.832465e+02
     vertex  3.371378e+02 -4.771900e+02 -2.819965e+02
   endloop
 endfacet
 facet normal  4.653863e-01  1.174456e-01  8.772811e-01
   outer loop
     vertex  3.375890e+02 -4.789781e+02 -2.819965e+02
     vertex  3.383369e+02 -4.776865e+02 -2.825662e+02
     vertex  3.371378e+02 -4.771900e+02 -2.819965e+02
   endloop
 endfacet
 facet normal  4.944690e-01  2.738915e-03  8.691910e-01
   outer loop
     vertex  3.386002e+02 -4.807363e+02 -2.825662e+02
     vertex  3.375890e+02 -4.789781e+02 -2.819965e+02
     vertex  3.375993e+02 -4.808223e+02 -2.819965e+02
   endloop
 endfacet
 facet normal  5.518894e-01  4.763139e-02  8.325559e-01
   outer loop
     vertex  3.386002e+02 -4.807363e+02 -2.825662e+02
     vertex  3.383369e+02 -4.776865e+02 -2.825662e+02
     vertex  3.375890e+02 -4.789781e+02 -2.819965e+02
   endloop
 endfacet
 facet normal  4.988413e-01 -1.200263e-01  8.583420e-01
   outer loop
     vertex  3.371678e+02 -4.826153e+02 -2.819965e+02
     vertex  3.386002e+02 -4.807363e+02 -2.825662e+02
     vertex  3.375993e+02 -4.808223e+02 -2.819965e+02
   endloop
 endfacet
 facet normal  4.367537e-01 -2.261494e-01  8.706909e-01
   outer loop
     vertex  3.388905e+02 -4.841007e+02 -2.832465e+02
     vertex  3.371678e+02 -4.826153e+02 -2.819965e+02
     vertex  3.363198e+02 -4.842530e+02 -2.819965e+02
   endloop
 endfacet
 facet normal  5.074389e-01 -1.284863e-01  8.520546e-01
   outer loop
     vertex  3.388905e+02 -4.841007e+02 -2.832465e+02
     vertex  3.386002e+02 -4.807363e+02 -2.825662e+02
     vertex  3.371678e+02 -4.826153e+02 -2.819965e+02
   endloop
 endfacet
 facet normal  3.653795e-01 -3.201033e-01  8.740890e-01
   outer loop
     vertex  3.361221e+02 -4.860343e+02 -2.825662e+02
     vertex  3.363198e+02 -4.842530e+02 -2.819965e+02
     vertex  3.351046e+02 -4.856402e+02 -2.819965e+02
   endloop
 endfacet
 facet normal  4.297543e-01 -3.179804e-01  8.451034e-01
   outer loop
     vertex  3.361221e+02 -4.860343e+02 -2.825662e+02
     vertex  3.388905e+02 -4.841007e+02 -2.832465e+02
     vertex  3.363198e+02 -4.842530e+02 -2.819965e+02
   endloop
 endfacet
 facet normal  3.048557e-01 -4.364685e-01  8.464977e-01
   outer loop
     vertex  3.336124e+02 -4.877872e+02 -2.825662e+02
     vertex  3.351046e+02 -4.856402e+02 -2.819965e+02
     vertex  3.335926e+02 -4.866962e+02 -2.819965e+02
   endloop
 endfacet
 facet normal  3.048557e-01 -4.364685e-01  8.464977e-01
   outer loop
     vertex  3.336124e+02 -4.877872e+02 -2.825662e+02
     vertex  3.361221e+02 -4.860343e+02 -2.825662e+02
     vertex  3.351046e+02 -4.856402e+02 -2.819965e+02
   endloop
 endfacet
 facet normal  1.747681e-01 -4.532377e-01  8.740890e-01
   outer loop
     vertex  3.318719e+02 -4.873597e+02 -2.819965e+02
     vertex  3.336124e+02 -4.877872e+02 -2.825662e+02
     vertex  3.335926e+02 -4.866962e+02 -2.819965e+02
   endloop
 endfacet
 facet normal  6.198712e-02 -4.879087e-01  8.706909e-01
   outer loop
     vertex  3.308440e+02 -4.897209e+02 -2.832465e+02
     vertex  3.318719e+02 -4.873597e+02 -2.819965e+02
     vertex  3.300424e+02 -4.875921e+02 -2.819965e+02
   endloop
 endfacet
 facet normal  1.506155e-01 -5.129476e-01  8.451034e-01
   outer loop
     vertex  3.308440e+02 -4.897209e+02 -2.832465e+02
     vertex  3.336124e+02 -4.877872e+02 -2.825662e+02
     vertex  3.318719e+02 -4.873597e+02 -2.819965e+02
   endloop
 endfacet
 facet normal -5.902254e-02 -5.096718e-01  8.583420e-01
   outer loop
     vertex  3.277852e+02 -4.882901e+02 -2.825662e+02
     vertex  3.300424e+02 -4.875921e+02 -2.819965e+02
     vertex  3.282104e+02 -4.873800e+02 -2.819965e+02
   endloop
 endfacet
 facet normal -5.403911e-02 -5.206561e-01  8.520546e-01
   outer loop
     vertex  3.277852e+02 -4.882901e+02 -2.825662e+02
     vertex  3.308440e+02 -4.897209e+02 -2.832465e+02
     vertex  3.300424e+02 -4.875921e+02 -2.819965e+02
   endloop
 endfacet
 facet normal -1.727802e-01 -4.633077e-01  8.691910e-01
   outer loop
     vertex  3.264825e+02 -4.867356e+02 -2.819965e+02
     vertex  3.277852e+02 -4.882901e+02 -2.825662e+02
     vertex  3.282104e+02 -4.873800e+02 -2.819965e+02
   endloop
 endfacet
 facet normal -2.704658e-01 -3.965175e-01  8.772811e-01
   outer loop
     vertex  3.250123e+02 -4.869932e+02 -2.825662e+02
     vertex  3.264825e+02 -4.867356e+02 -2.819965e+02
     vertex  3.249589e+02 -4.856964e+02 -2.819965e+02
   endloop
 endfacet
 facet normal -2.346947e-01 -5.017659e-01  8.325559e-01
   outer loop
     vertex  3.250123e+02 -4.869932e+02 -2.825662e+02
     vertex  3.277852e+02 -4.882901e+02 -2.825662e+02
     vertex  3.264825e+02 -4.867356e+02 -2.819965e+02
   endloop
 endfacet
 facet normal -4.438591e-01 -2.361002e-01  8.644338e-01
   outer loop
     vertex  3.219535e+02 -4.855625e+02 -2.832465e+02
     vertex  3.237284e+02 -4.843228e+02 -2.819965e+02
     vertex  3.228623e+02 -4.826946e+02 -2.819965e+02
   endloop
 endfacet
 facet normal -3.744589e-01 -3.354620e-01  8.644338e-01
   outer loop
     vertex  3.219535e+02 -4.855625e+02 -2.832465e+02
     vertex  3.249589e+02 -4.856964e+02 -2.819965e+02
     vertex  3.237284e+02 -4.843228e+02 -2.819965e+02
   endloop
 endfacet
 facet normal -3.687909e-01 -3.865298e-01  8.453331e-01
   outer loop
     vertex  3.219535e+02 -4.855625e+02 -2.832465e+02
     vertex  3.250123e+02 -4.869932e+02 -2.825662e+02
     vertex  3.249589e+02 -4.856964e+02 -2.819965e+02
   endloop
 endfacet
 facet normal -4.898549e-01 -2.131997e-01  8.453331e-01
   outer loop
     vertex  3.216631e+02 -4.821981e+02 -2.825662e+02
     vertex  3.219535e+02 -4.855625e+02 -2.832465e+02
     vertex  3.228623e+02 -4.826946e+02 -2.819965e+02
   endloop
 endfacet
 facet normal -4.653863e-01 -1.174456e-01  8.772811e-01
   outer loop
     vertex  3.224110e+02 -4.809064e+02 -2.819965e+02
     vertex  3.216631e+02 -4.821981e+02 -2.825662e+02
     vertex  3.228623e+02 -4.826946e+02 -2.819965e+02
   endloop
 endfacet
 facet normal -5.518894e-01 -4.763139e-02  8.325559e-01
   outer loop
     vertex  3.213999e+02 -4.791482e+02 -2.825662e+02
     vertex  3.216631e+02 -4.821981e+02 -2.825662e+02
     vertex  3.224110e+02 -4.809064e+02 -2.819965e+02
   endloop
 endfacet
 facet normal -4.944690e-01 -2.738915e-03  8.691910e-01
   outer loop
     vertex  3.213999e+02 -4.791482e+02 -2.825662e+02
     vertex  3.224110e+02 -4.809064e+02 -2.819965e+02
     vertex  3.224008e+02 -4.790622e+02 -2.819965e+02
   endloop
 endfacet
 facet normal -4.988413e-01  1.200263e-01  8.583420e-01
   outer loop
     vertex  3.228322e+02 -4.772692e+02 -2.819965e+02
     vertex  3.213999e+02 -4.791482e+02 -2.825662e+02
     vertex  3.224008e+02 -4.790622e+02 -2.819965e+02
   endloop
 endfacet
 facet normal -5.074389e-01  1.284863e-01  8.520546e-01
   outer loop
     vertex  3.211095e+02 -4.757838e+02 -2.832465e+02
     vertex  3.213999e+02 -4.791482e+02 -2.825662e+02
     vertex  3.228322e+02 -4.772692e+02 -2.819965e+02
   endloop
 endfacet
 facet normal -4.367537e-01  2.261494e-01  8.706909e-01
   outer loop
     vertex  3.211095e+02 -4.757838e+02 -2.832465e+02
     vertex  3.228322e+02 -4.772692e+02 -2.819965e+02
     vertex  3.236802e+02 -4.756315e+02 -2.819965e+02
   endloop
 endfacet
 facet normal -4.297543e-01  3.179804e-01  8.451034e-01
   outer loop
     vertex  3.238780e+02 -4.738502e+02 -2.825662e+02
     vertex  3.211095e+02 -4.757838e+02 -2.832465e+02
     vertex  3.236802e+02 -4.756315e+02 -2.819965e+02
   endloop
 endfacet
 facet normal -3.653795e-01  3.201033e-01  8.740890e-01
   outer loop
     vertex  3.238780e+02 -4.738502e+02 -2.825662e+02
     vertex  3.236802e+02 -4.756315e+02 -2.819965e+02
     vertex  3.248955e+02 -4.742443e+02 -2.819965e+02
   endloop
 endfacet
 facet normal -3.048557e-01  4.364685e-01  8.464977e-01
   outer loop
     vertex  3.263876e+02 -4.720973e+02 -2.825662e+02
     vertex  3.238780e+02 -4.738502e+02 -2.825662e+02
     vertex  3.248955e+02 -4.742443e+02 -2.819965e+02
   endloop
 endfacet
 facet normal -3.048557e-01  4.364685e-01  8.464977e-01
   outer loop
     vertex  3.263876e+02 -4.720973e+02 -2.825662e+02
     vertex  3.248955e+02 -4.742443e+02 -2.819965e+02
     vertex  3.264074e+02 -4.731883e+02 -2.819965e+02
   endloop
 endfacet
 facet normal -1.747681e-01  4.532377e-01  8.740890e-01
   outer loop
     vertex  3.281282e+02 -4.725248e+02 -2.819965e+02
     vertex  3.263876e+02 -4.720973e+02 -2.825662e+02
     vertex  3.264074e+02 -4.731883e+02 -2.819965e+02
   endloop
 endfacet
 facet normal -1.506155e-01  5.129476e-01  8.451034e-01
   outer loop
     vertex  3.291561e+02 -4.701637e+02 -2.832465e+02
     vertex  3.263876e+02 -4.720973e+02 -2.825662e+02
     vertex  3.281282e+02 -4.725248e+02 -2.819965e+02
   endloop
 endfacet
 facet normal -6.198712e-02  4.879087e-01  8.706909e-01
   outer loop
     vertex  3.291561e+02 -4.701637e+02 -2.832465e+02
     vertex  3.281282e+02 -4.725248e+02 -2.819965e+02
     vertex  3.299577e+02 -4.722924e+02 -2.819965e+02
   endloop
 endfacet
 facet normal  5.902254e-02  5.096718e-01  8.583420e-01
   outer loop
     vertex  3.322149e+02 -4.715944e+02 -2.825662e+02
     vertex  3.299577e+02 -4.722924e+02 -2.819965e+02
     vertex  3.317896e+02 -4.725045e+02 -2.819965e+02
   endloop
 endfacet
 facet normal  5.403911e-02  5.206561e-01  8.520546e-01
   outer loop
     vertex  3.322149e+02 -4.715944e+02 -2.825662e+02
     vertex  3.291561e+02 -4.701637e+02 -2.832465e+02
     vertex  3.299577e+02 -4.722924e+02 -2.819965e+02
   endloop
 endfacet
 facet normal  1.727802e-01  4.633077e-01  8.691910e-01
   outer loop
     vertex  3.335176e+02 -4.731489e+02 -2.819965e+02
     vertex  3.322149e+02 -4.715944e+02 -2.825662e+02
     vertex  3.317896e+02 -4.725045e+02 -2.819965e+02
   endloop
 endfacet
 facet normal  2.704658e-01  3.965175e-01  8.772811e-01
   outer loop
     vertex  3.349878e+02 -4.728914e+02 -2.825662e+02
     vertex  3.335176e+02 -4.731489e+02 -2.819965e+02
     vertex  3.350411e+02 -4.741881e+02 -2.819965e+02
   endloop
 endfacet
 facet normal  2.346947e-01  5.017659e-01  8.325559e-01
   outer loop
     vertex  3.349878e+02 -4.728914e+02 -2.825662e+02
     vertex  3.322149e+02 -4.715944e+02 -2.825662e+02
     vertex  3.335176e+02 -4.731489e+02 -2.819965e+02
   endloop
 endfacet
 facet normal  3.744589e-01  3.354620e-01  8.644338e-01
   outer loop
     vertex  3.380466e+02 -4.743221e+02 -2.832465e+02
     vertex  3.350411e+02 -4.741881e+02 -2.819965e+02
     vertex  3.362717e+02 -4.755618e+02 -2.819965e+02
   endloop
 endfacet
 facet normal  3.687909e-01  3.865298e-01  8.453331e-01
   outer loop
     vertex  3.380466e+02 -4.743221e+02 -2.832465e+02
     vertex  3.349878e+02 -4.728914e+02 -2.825662e+02
     vertex  3.350411e+02 -4.741881e+02 -2.819965e+02
   endloop
 endfacet
 facet normal  3.744589e-01  3.354620e-01 -8.644338e-01
   outer loop
     vertex  3.380466e+02 -4.743221e+02 -2.887466e+02
     vertex  3.362717e+02 -4.755618e+02 -2.899965e+02
     vertex  3.350411e+02 -4.741881e+02 -2.899965e+02
   endloop
 endfacet
 facet normal  3.687909e-01  3.865298e-01 -8.453331e-01
   outer loop
     vertex  3.349878e+02 -4.728914e+02 -2.894269e+02
     vertex  3.380466e+02 -4.743221e+02 -2.887466e+02
     vertex  3.350411e+02 -4.741881e+02 -2.899965e+02
   endloop
 endfacet
 facet normal  2.704658e-01  3.965175e-01 -8.772811e-01
   outer loop
     vertex  3.335176e+02 -4.731489e+02 -2.899965e+02
     vertex  3.349878e+02 -4.728914e+02 -2.894269e+02
     vertex  3.350411e+02 -4.741881e+02 -2.899965e+02
   endloop
 endfacet
 facet normal  1.727802e-01  4.633077e-01 -8.691910e-01
   outer loop
     vertex  3.322149e+02 -4.715944e+02 -2.894269e+02
     vertex  3.335176e+02 -4.731489e+02 -2.899965e+02
     vertex  3.317896e+02 -4.725045e+02 -2.899965e+02
   endloop
 endfacet
 facet normal  2.346947e-01  5.017659e-01 -8.325559e-01
   outer loop
     vertex  3.322149e+02 -4.715944e+02 -2.894269e+02
     vertex  3.349878e+02 -4.728914e+02 -2.894269e+02
     vertex  3.335176e+02 -4.731489e+02 -2.899965e+02
   endloop
 endfacet
 facet normal  5.902254e-02  5.096718e-01 -8.583420e-01
   outer loop
     vertex  3.299577e+02 -4.722924e+02 -2.899965e+02
     vertex  3.322149e+02 -4.715944e+02 -2.894269e+02
     vertex  3.317896e+02 -4.725045e+02 -2.899965e+02
   endloop
 endfacet
 facet normal -6.198712e-02  4.879087e-01 -8.706909e-01
   outer loop
     vertex  3.291561e+02 -4.701637e+02 -2.887466e+02
     vertex  3.299577e+02 -4.722924e+02 -2.899965e+02
     vertex  3.281282e+02 -4.725248e+02 -2.899965e+02
   endloop
 endfacet
 facet normal  5.403911e-02  5.206561e-01 -8.520546e-01
   outer loop
     vertex  3.291561e+02 -4.701637e+02 -2.887466e+02
     vertex  3.322149e+02 -4.715944e+02 -2.894269e+02
     vertex  3.299577e+02 -4.722924e+02 -2.899965e+02
   endloop
 endfacet
 facet normal -1.747681e-01  4.532377e-01 -8.740890e-01
   outer loop
     vertex  3.263876e+02 -4.720973e+02 -2.894269e+02
     vertex  3.281282e+02 -4.725248e+02 -2.899965e+02
     vertex  3.264074e+02 -4.731883e+02 -2.899965e+02
   endloop
 endfacet
 facet normal -1.506155e-01  5.129476e-01 -8.451034e-01
   outer loop
     vertex  3.263876e+02 -4.720973e+02 -2.894269e+02
     vertex  3.291561e+02 -4.701637e+02 -2.887466e+02
     vertex  3.281282e+02 -4.725248e+02 -2.899965e+02
   endloop
 endfacet
 facet normal -3.048557e-01  4.364685e-01 -8.464977e-01
   outer loop
     vertex  3.238780e+02 -4.738502e+02 -2.894269e+02
     vertex  3.264074e+02 -4.731883e+02 -2.899965e+02
     vertex  3.248955e+02 -4.742443e+02 -2.899965e+02
   endloop
 endfacet
 facet normal -3.048557e-01  4.364685e-01 -8.464977e-01
   outer loop
     vertex  3.238780e+02 -4.738502e+02 -2.894269e+02
     vertex  3.263876e+02 -4.720973e+02 -2.894269e+02
     vertex  3.264074e+02 -4.731883e+02 -2.899965e+02
   endloop
 endfacet
 facet normal -3.653795e-01  3.201033e-01 -8.740890e-01
   outer loop
     vertex  3.236802e+02 -4.756315e+02 -2.899965e+02
     vertex  3.238780e+02 -4.738502e+02 -2.894269e+02
     vertex  3.248955e+02 -4.742443e+02 -2.899965e+02
   endloop
 endfacet
 facet normal -4.367537e-01  2.261494e-01 -8.706909e-01
   outer loop
     vertex  3.211095e+02 -4.757838e+02 -2.887466e+02
     vertex  3.236802e+02 -4.756315e+02 -2.899965e+02
     vertex  3.228322e+02 -4.772692e+02 -2.899965e+02
   endloop
 endfacet
 facet normal -4.297543e-01  3.179804e-01 -8.451034e-01
   outer loop
     vertex  3.211095e+02 -4.757838e+02 -2.887466e+02
     vertex  3.238780e+02 -4.738502e+02 -2.894269e+02
     vertex  3.236802e+02 -4.756315e+02 -2.899965e+02
   endloop
 endfacet
 facet normal -4.988413e-01  1.200263e-01 -8.583420e-01
   outer loop
     vertex  3.213999e+02 -4.791482e+02 -2.894269e+02
     vertex  3.228322e+02 -4.772692e+02 -2.899965e+02
     vertex  3.224008e+02 -4.790622e+02 -2.899965e+02
   endloop
 endfacet
 facet normal -5.074389e-01  1.284863e-01 -8.520546e-01
   outer loop
     vertex  3.213999e+02 -4.791482e+02 -2.894269e+02
     vertex  3.211095e+02 -4.757838e+02 -2.887466e+02
     vertex  3.228322e+02 -4.772692e+02 -2.899965e+02
   endloop
 endfacet
 facet normal -4.944690e-01 -2.738915e-03 -8.691910e-01
   outer loop
     vertex  3.224110e+02 -4.809064e+02 -2.899965e+02
     vertex  3.213999e+02 -4.791482e+02 -2.894269e+02
     vertex  3.224008e+02 -4.790622e+02 -2.899965e+02
   endloop
 endfacet
 facet normal -4.653863e-01 -1.174456e-01 -8.772811e-01
   outer loop
     vertex  3.216631e+02 -4.821981e+02 -2.894269e+02
     vertex  3.224110e+02 -4.809064e+02 -2.899965e+02
     vertex  3.228623e+02 -4.826946e+02 -2.899965e+02
   endloop
 endfacet
 facet normal -5.518894e-01 -4.763139e-02 -8.325559e-01
   outer loop
     vertex  3.216631e+02 -4.821981e+02 -2.894269e+02
     vertex  3.213999e+02 -4.791482e+02 -2.894269e+02
     vertex  3.224110e+02 -4.809064e+02 -2.899965e+02
   endloop
 endfacet
 facet normal -3.744589e-01 -3.354620e-01 -8.644338e-01
   outer loop
     vertex  3.219535e+02 -4.855625e+02 -2.887466e+02
     vertex  3.237284e+02 -4.843228e+02 -2.899965e+02
     vertex  3.249589e+02 -4.856964e+02 -2.899965e+02
   endloop
 endfacet
 facet normal -4.438591e-01 -2.361002e-01 -8.644338e-01
   outer loop
     vertex  3.219535e+02 -4.855625e+02 -2.887466e+02
     vertex  3.228623e+02 -4.826946e+02 -2.899965e+02
     vertex  3.237284e+02 -4.843228e+02 -2.899965e+02
   endloop
 endfacet
 facet normal -4.898549e-01 -2.131997e-01 -8.453331e-01
   outer loop
     vertex  3.219535e+02 -4.855625e+02 -2.887466e+02
     vertex  3.216631e+02 -4.821981e+02 -2.894269e+02
     vertex  3.228623e+02 -4.826946e+02 -2.899965e+02
   endloop
 endfacet
 facet normal -3.687909e-01 -3.865298e-01 -8.453331e-01
   outer loop
     vertex  3.250123e+02 -4.869932e+02 -2.894269e+02
     vertex  3.219535e+02 -4.855625e+02 -2.887466e+02
     vertex  3.249589e+02 -4.856964e+02 -2.899965e+02
   endloop
 endfacet
 facet normal -2.704658e-01 -3.965175e-01 -8.772811e-01
   outer loop
     vertex  3.264825e+02 -4.867356e+02 -2.899965e+02
     vertex  3.250123e+02 -4.869932e+02 -2.894269e+02
     vertex  3.249589e+02 -4.856964e+02 -2.899965e+02
   endloop
 endfacet
 facet normal -2.346947e-01 -5.017659e-01 -8.325559e-01
   outer loop
     vertex  3.277852e+02 -4.882901e+02 -2.894269e+02
     vertex  3.250123e+02 -4.869932e+02 -2.894269e+02
     vertex  3.264825e+02 -4.867356e+02 -2.899965e+02
   endloop
 endfacet
 facet normal -1.727802e-01 -4.633077e-01 -8.691910e-01
   outer loop
     vertex  3.277852e+02 -4.882901e+02 -2.894269e+02
     vertex  3.264825e+02 -4.867356e+02 -2.899965e+02
     vertex  3.282104e+02 -4.873800e+02 -2.899965e+02
   endloop
 endfacet
 facet normal -5.902254e-02 -5.096718e-01 -8.583420e-01
   outer loop
     vertex  3.300424e+02 -4.875921e+02 -2.899965e+02
     vertex  3.277852e+02 -4.882901e+02 -2.894269e+02
     vertex  3.282104e+02 -4.873800e+02 -2.899965e+02
   endloop
 endfacet
 facet normal -5.403911e-02 -5.206561e-01 -8.520546e-01
   outer loop
     vertex  3.308440e+02 -4.897209e+02 -2.887466e+02
     vertex  3.277852e+02 -4.882901e+02 -2.894269e+02
     vertex  3.300424e+02 -4.875921e+02 -2.899965e+02
   endloop
 endfacet
 facet normal  6.198712e-02 -4.879087e-01 -8.706909e-01
   outer loop
     vertex  3.308440e+02 -4.897209e+02 -2.887466e+02
     vertex  3.300424e+02 -4.875921e+02 -2.899965e+02
     vertex  3.318719e+02 -4.873597e+02 -2.899965e+02
   endloop
 endfacet
 facet normal  1.506155e-01 -5.129476e-01 -8.451034e-01
   outer loop
     vertex  3.336124e+02 -4.877872e+02 -2.894269e+02
     vertex  3.308440e+02 -4.897209e+02 -2.887466e+02
     vertex  3.318719e+02 -4.873597e+02 -2.899965e+02
   endloop
 endfacet
 facet normal  1.747681e-01 -4.532377e-01 -8.740890e-01
   outer loop
     vertex  3.336124e+02 -4.877872e+02 -2.894269e+02
     vertex  3.318719e+02 -4.873597e+02 -2.899965e+02
     vertex  3.335926e+02 -4.866962e+02 -2.899965e+02
   endloop
 endfacet
 facet normal  3.048557e-01 -4.364685e-01 -8.464977e-01
   outer loop
     vertex  3.351046e+02 -4.856402e+02 -2.899965e+02
     vertex  3.336124e+02 -4.877872e+02 -2.894269e+02
     vertex  3.335926e+02 -4.866962e+02 -2.899965e+02
   endloop
 endfacet
 facet normal  3.048557e-01 -4.364685e-01 -8.464977e-01
   outer loop
     vertex  3.361221e+02 -4.860343e+02 -2.894269e+02
     vertex  3.336124e+02 -4.877872e+02 -2.894269e+02
     vertex  3.351046e+02 -4.856402e+02 -2.899965e+02
   endloop
 endfacet
 facet normal  3.653795e-01 -3.201033e-01 -8.740890e-01
   outer loop
     vertex  3.363198e+02 -4.842530e+02 -2.899965e+02
     vertex  3.361221e+02 -4.860343e+02 -2.894269e+02
     vertex  3.351046e+02 -4.856402e+02 -2.899965e+02
   endloop
 endfacet
 facet normal  4.297543e-01 -3.179804e-01 -8.451034e-01
   outer loop
     vertex  3.388905e+02 -4.841007e+02 -2.887466e+02
     vertex  3.361221e+02 -4.860343e+02 -2.894269e+02
     vertex  3.363198e+02 -4.842530e+02 -2.899965e+02
   endloop
 endfacet
 facet normal  4.367537e-01 -2.261494e-01 -8.706909e-01
   outer loop
     vertex  3.388905e+02 -4.841007e+02 -2.887466e+02
     vertex  3.363198e+02 -4.842530e+02 -2.899965e+02
     vertex  3.371678e+02 -4.826153e+02 -2.899965e+02
   endloop
 endfacet
 facet normal  4.988413e-01 -1.200263e-01 -8.583420e-01
   outer loop
     vertex  3.386002e+02 -4.807363e+02 -2.894269e+02
     vertex  3.371678e+02 -4.826153e+02 -2.899965e+02
     vertex  3.375993e+02 -4.808223e+02 -2.899965e+02
   endloop
 endfacet
 facet normal  5.074389e-01 -1.284863e-01 -8.520546e-01
   outer loop
     vertex  3.386002e+02 -4.807363e+02 -2.894269e+02
     vertex  3.388905e+02 -4.841007e+02 -2.887466e+02
     vertex  3.371678e+02 -4.826153e+02 -2.899965e+02
   endloop
 endfacet
 facet normal  4.944690e-01  2.738915e-03 -8.691910e-01
   outer loop
     vertex  3.375890e+02 -4.789781e+02 -2.899965e+02
     vertex  3.386002e+02 -4.807363e+02 -2.894269e+02
     vertex  3.375993e+02 -4.808223e+02 -2.899965e+02
   endloop
 endfacet
 facet normal  4.653863e-01  1.174456e-01 -8.772811e-01
   outer loop
     vertex  3.383369e+02 -4.776865e+02 -2.894269e+02
     vertex  3.375890e+02 -4.789781e+02 -2.899965e+02
     vertex  3.371378e+02 -4.771900e+02 -2.899965e+02
   endloop
 endfacet
 facet normal  5.518894e-01  4.763139e-02 -8.325559e-01
   outer loop
     vertex  3.383369e+02 -4.776865e+02 -2.894269e+02
     vertex  3.386002e+02 -4.807363e+02 -2.894269e+02
     vertex  3.375890e+02 -4.789781e+02 -2.899965e+02
   endloop
 endfacet
 facet normal  4.438591e-01  2.361002e-01 -8.644338e-01
   outer loop
     vertex  3.380466e+02 -4.743221e+02 -2.887466e+02
     vertex  3.371378e+02 -4.771900e+02 -2.899965e+02
     vertex  3.362717e+02 -4.755618e+02 -2.899965e+02
   endloop
 endfacet
 facet normal  4.898549e-01  2.131997e-01 -8.453331e-01
   outer loop
     vertex  3.380466e+02 -4.743221e+02 -2.887466e+02
     vertex  3.383369e+02 -4.776865e+02 -2.894269e+02
     vertex  3.371378e+02 -4.771900e+02 -2.899965e+02
   endloop
 endfacet
 facet normal  4.236818e-01  9.058111e-01 -0.000000e+00
   outer loop
     vertex  3.291561e+02 -4.701637e+02 -2.887466e+02
     vertex  3.291561e+02 -4.701637e+02 -2.832465e+02
     vertex  3.322149e+02 -4.715944e+02 -2.825662e+02
   endloop
 endfacet
 facet normal  4.236818e-01  9.058111e-01 -0.000000e+00
   outer loop
     vertex  3.322149e+02 -4.715944e+02 -2.894269e+02
     vertex  3.322149e+02 -4.715944e+02 -2.825662e+02
     vertex  3.349878e+02 -4.728914e+02 -2.825662e+02
   endloop
 endfacet
 facet normal  4.236818e-01  9.058111e-01 -0.000000e+00
   outer loop
     vertex  3.322149e+02 -4.715944e+02 -2.894269e+02
     vertex  3.291561e+02 -4.701637e+02 -2.887466e+02
     vertex  3.322149e+02 -4.715944e+02 -2.825662e+02
   endloop
 endfacet
 facet normal  4.236818e-01  9.058111e-01 -0.000000e+00
   outer loop
     vertex  3.349878e+02 -4.728914e+02 -2.894269e+02
     vertex  3.322149e+02 -4.715944e+02 -2.894269e+02
     vertex  3.349878e+02 -4.728914e+02 -2.825662e+02
   endloop
 endfacet
 facet normal  4.236818e-01  9.058111e-01 -0.000000e+00
   outer loop
     vertex  3.380466e+02 -4.743221e+02 -2.887466e+02
     vertex  3.349878e+02 -4.728914e+02 -2.825662e+02
     vertex  3.380466e+02 -4.743221e+02 -2.832465e+02
   endloop
 endfacet
 facet normal  4.236818e-01  9.058111e-01 -1.865420e-17
   outer loop
     vertex  3.380466e+02 -4.743221e+02 -2.887466e+02
     vertex  3.349878e+02 -4.728914e+02 -2.894269e+02
     vertex  3.349878e+02 -4.728914e+02 -2.825662e+02
   endloop
 endfacet
 facet normal -5.726146e-01  8.198247e-01  6.792599e-15
   outer loop
     vertex  3.238780e+02 -4.738502e+02 -2.825662e+02
     vertex  3.238780e+02 -4.738502e+02 -2.894269e+02
     vertex  3.211095e+02 -4.757838e+02 -2.887466e+02
   endloop
 endfacet
 facet normal -5.726146e-01  8.198247e-01  1.709465e-17
   outer loop
     vertex  3.238780e+02 -4.738502e+02 -2.825662e+02
     vertex  3.211095e+02 -4.757838e+02 -2.887466e+02
     vertex  3.211095e+02 -4.757838e+02 -2.832465e+02
   endloop
 endfacet
 facet normal -5.726146e-01  8.198247e-01  0.000000e+00
   outer loop
     vertex  3.263876e+02 -4.720973e+02 -2.825662e+02
     vertex  3.291561e+02 -4.701637e+02 -2.887466e+02
     vertex  3.263876e+02 -4.720973e+02 -2.894269e+02
   endloop
 endfacet
 facet normal -5.726146e-01  8.198247e-01  0.000000e+00
   outer loop
     vertex  3.263876e+02 -4.720973e+02 -2.825662e+02
     vertex  3.263876e+02 -4.720973e+02 -2.894269e+02
     vertex  3.238780e+02 -4.738502e+02 -2.894269e+02
   endloop
 endfacet
 facet normal -5.726146e-01  8.198247e-01  6.797761e-15
   outer loop
     vertex  3.263876e+02 -4.720973e+02 -2.825662e+02
     vertex  3.238780e+02 -4.738502e+02 -2.894269e+02
     vertex  3.238780e+02 -4.738502e+02 -2.825662e+02
   endloop
 endfacet
 facet normal -5.726146e-01  8.198247e-01  0.000000e+00
   outer loop
     vertex  3.291561e+02 -4.701637e+02 -2.832465e+02
     vertex  3.291561e+02 -4.701637e+02 -2.887466e+02
     vertex  3.263876e+02 -4.720973e+02 -2.825662e+02
   endloop
 endfacet
 facet normal  9.962963e-01  8.598639e-02 -0.000000e+00
   outer loop
     vertex  3.388905e+02 -4.841007e+02 -2.887466e+02
     vertex  3.386002e+02 -4.807363e+02 -2.825662e+02
     vertex  3.388905e+02 -4.841007e+02 -2.832465e+02
   endloop
 endfacet
 facet normal  9.962963e-01  8.598639e-02 -0.000000e+00
   outer loop
     vertex  3.386002e+02 -4.807363e+02 -2.894269e+02
     vertex  3.383369e+02 -4.776865e+02 -2.825662e+02
     vertex  3.386002e+02 -4.807363e+02 -2.825662e+02
   endloop
 endfacet
 facet normal  9.962963e-01  8.598639e-02 -0.000000e+00
   outer loop
     vertex  3.386002e+02 -4.807363e+02 -2.894269e+02
     vertex  3.386002e+02 -4.807363e+02 -2.825662e+02
     vertex  3.388905e+02 -4.841007e+02 -2.887466e+02
   endloop
 endfacet
 facet normal  9.962963e-01  8.598639e-02 -0.000000e+00
   outer loop
     vertex  3.383369e+02 -4.776865e+02 -2.894269e+02
     vertex  3.383369e+02 -4.776865e+02 -2.825662e+02
     vertex  3.386002e+02 -4.807363e+02 -2.894269e+02
   endloop
 endfacet
 facet normal  9.962963e-01  8.598639e-02 -0.000000e+00
   outer loop
     vertex  3.380466e+02 -4.743221e+02 -2.887466e+02
     vertex  3.380466e+02 -4.743221e+02 -2.832465e+02
     vertex  3.383369e+02 -4.776865e+02 -2.825662e+02
   endloop
 endfacet
 facet normal  9.962963e-01  8.598639e-02  1.290468e-18
   outer loop
     vertex  3.380466e+02 -4.743221e+02 -2.887466e+02
     vertex  3.383369e+02 -4.776865e+02 -2.825662e+02
     vertex  3.383369e+02 -4.776865e+02 -2.894269e+02
   endloop
 endfacet
 facet normal  5.726146e-01 -8.198247e-01  0.000000e+00
   outer loop
     vertex  3.336124e+02 -4.877872e+02 -2.894269e+02
     vertex  3.336124e+02 -4.877872e+02 -2.825662e+02
     vertex  3.308440e+02 -4.897209e+02 -2.832465e+02
   endloop
 endfacet
 facet normal  5.726146e-01 -8.198247e-01 -1.339352e-17
   outer loop
     vertex  3.336124e+02 -4.877872e+02 -2.894269e+02
     vertex  3.308440e+02 -4.897209e+02 -2.832465e+02
     vertex  3.308440e+02 -4.897209e+02 -2.887466e+02
   endloop
 endfacet
 facet normal  5.726146e-01 -8.198247e-01  0.000000e+00
   outer loop
     vertex  3.361221e+02 -4.860343e+02 -2.894269e+02
     vertex  3.361221e+02 -4.860343e+02 -2.825662e+02
     vertex  3.336124e+02 -4.877872e+02 -2.825662e+02
   endloop
 endfacet
 facet normal  5.726146e-01 -8.198247e-01 -2.619249e-18
   outer loop
     vertex  3.361221e+02 -4.860343e+02 -2.894269e+02
     vertex  3.336124e+02 -4.877872e+02 -2.825662e+02
     vertex  3.336124e+02 -4.877872e+02 -2.894269e+02
   endloop
 endfacet
 facet normal  5.726146e-01 -8.198247e-01  0.000000e+00
   outer loop
     vertex  3.388905e+02 -4.841007e+02 -2.887466e+02
     vertex  3.388905e+02 -4.841007e+02 -2.832465e+02
     vertex  3.361221e+02 -4.860343e+02 -2.825662e+02
   endloop
 endfacet
 facet normal  5.726146e-01 -8.198247e-01  1.786320e-18
   outer loop
     vertex  3.388905e+02 -4.841007e+02 -2.887466e+02
     vertex  3.361221e+02 -4.860343e+02 -2.825662e+02
     vertex  3.361221e+02 -4.860343e+02 -2.894269e+02
   endloop
 endfacet
 facet normal -9.962963e-01 -8.598639e-02 -8.254742e-15
   outer loop
     vertex  3.216631e+02 -4.821981e+02 -2.825662e+02
     vertex  3.216631e+02 -4.821981e+02 -2.894269e+02
     vertex  3.219535e+02 -4.855625e+02 -2.887466e+02
   endloop
 endfacet
 facet normal -9.962963e-01 -8.598639e-02 -1.150976e-18
   outer loop
     vertex  3.216631e+02 -4.821981e+02 -2.825662e+02
     vertex  3.219535e+02 -4.855625e+02 -2.887466e+02
     vertex  3.219535e+02 -4.855625e+02 -2.832465e+02
   endloop
 endfacet
 facet normal -9.962963e-01 -8.598639e-02 -0.000000e+00
   outer loop
     vertex  3.213999e+02 -4.791482e+02 -2.825662e+02
     vertex  3.211095e+02 -4.757838e+02 -2.887466e+02
     vertex  3.213999e+02 -4.791482e+02 -2.894269e+02
   endloop
 endfacet
 facet normal -9.962963e-01 -8.598639e-02 -0.000000e+00
   outer loop
     vertex  3.213999e+02 -4.791482e+02 -2.825662e+02
     vertex  3.213999e+02 -4.791482e+02 -2.894269e+02
     vertex  3.216631e+02 -4.821981e+02 -2.894269e+02
   endloop
 endfacet
 facet normal -9.962963e-01 -8.598639e-02 -8.254286e-15
   outer loop
     vertex  3.213999e+02 -4.791482e+02 -2.825662e+02
     vertex  3.216631e+02 -4.821981e+02 -2.894269e+02
     vertex  3.216631e+02 -4.821981e+02 -2.825662e+02
   endloop
 endfacet
 facet normal -9.962963e-01 -8.598639e-02 -0.000000e+00
   outer loop
     vertex  3.211095e+02 -4.757838e+02 -2.832465e+02
     vertex  3.211095e+02 -4.757838e+02 -2.887466e+02
     vertex  3.213999e+02 -4.791482e+02 -2.825662e+02
   endloop
 endfacet
 facet normal -4.236818e-01 -9.058111e-01  0.000000e+00
   outer loop
     vertex  3.308440e+02 -4.897209e+02 -2.887466e+02
     vertex  3.308440e+02 -4.897209e+02 -2.832465e+02
     vertex  3.277852e+02 -4.882901e+02 -2.825662e+02
   endloop
 endfacet
 facet normal -4.236818e-01 -9.058111e-01  0.000000e+00
   outer loop
     vertex  3.277852e+02 -4.882901e+02 -2.894269e+02
     vertex  3.308440e+02 -4.897209e+02 -2.887466e+02
     vertex  3.277852e+02 -4.882901e+02 -2.825662e+02
   endloop
 endfacet
 facet normal -4.236818e-01 -9.058111e-01  0.000000e+00
   outer loop
     vertex  3.250123e+02 -4.869932e+02 -2.894269e+02
     vertex  3.277852e+02 -4.882901e+02 -2.825662e+02
     vertex  3.250123e+02 -4.869932e+02 -2.825662e+02
   endloop
 endfacet
 facet normal -4.236818e-01 -9.058111e-01  1.256536e-18
   outer loop
     vertex  3.250123e+02 -4.869932e+02 -2.894269e+02
     vertex  3.277852e+02 -4.882901e+02 -2.894269e+02
     vertex  3.277852e+02 -4.882901e+02 -2.825662e+02
   endloop
 endfacet
 facet normal -4.236818e-01 -9.058111e-01  0.000000e+00
   outer loop
     vertex  3.219535e+02 -4.855625e+02 -2.887466e+02
     vertex  3.250123e+02 -4.869932e+02 -2.825662e+02
     vertex  3.219535e+02 -4.855625e+02 -2.832465e+02
   endloop
 endfacet
 facet normal -4.236818e-01 -9.058111e-01 -1.865420e-17
   outer loop
     vertex  3.219535e+02 -4.855625e+02 -2.887466e+02
     vertex  3.250123e+02 -4.869932e+02 -2.894269e+02
     vertex  3.250123e+02 -4.869932e+02 -2.825662e+02
   endloop
 endfacet
endsolid
