solid 
 facet normal -6.166441e-01 -3.512961e-01 -7.045148e-01
   outer loop
     vertex -3.376274e+02  4.743946e+02 -2.828413e+02
     vertex -3.392222e+02  4.761912e+02 -2.823413e+02
     vertex -3.387611e+02  4.763845e+02 -2.828413e+02
   endloop
 endfacet
 facet normal -6.166441e-01 -3.512961e-01 -7.045148e-01
   outer loop
     vertex -3.380289e+02  4.740965e+02 -2.823413e+02
     vertex -3.392222e+02  4.761912e+02 -2.823413e+02
     vertex -3.376274e+02  4.743946e+02 -2.828413e+02
   endloop
 endfacet
 facet normal -5.146549e-01 -4.886606e-01 -7.045148e-01
   outer loop
     vertex -3.360505e+02  4.727337e+02 -2.828413e+02
     vertex -3.380289e+02  4.740965e+02 -2.823413e+02
     vertex -3.376274e+02  4.743946e+02 -2.828413e+02
   endloop
 endfacet
 facet normal -5.146549e-01 -4.886606e-01 -7.045148e-01
   outer loop
     vertex -3.363690e+02  4.723483e+02 -2.823413e+02
     vertex -3.380289e+02  4.740965e+02 -2.823413e+02
     vertex -3.360505e+02  4.727337e+02 -2.828413e+02
   endloop
 endfacet
 facet normal -3.827558e-01 -5.976260e-01 -7.045148e-01
   outer loop
     vertex -3.341219e+02  4.714986e+02 -2.828413e+02
     vertex -3.363690e+02  4.723483e+02 -2.823413e+02
     vertex -3.360505e+02  4.727337e+02 -2.828413e+02
   endloop
 endfacet
 facet normal -3.827558e-01 -5.976260e-01 -7.045148e-01
   outer loop
     vertex -3.343389e+02  4.710481e+02 -2.823413e+02
     vertex -3.363690e+02  4.723483e+02 -2.823413e+02
     vertex -3.341219e+02  4.714986e+02 -2.828413e+02
   endloop
 endfacet
 facet normal -2.286124e-01 -6.718595e-01 -7.045148e-01
   outer loop
     vertex -3.319538e+02  4.707608e+02 -2.828413e+02
     vertex -3.343389e+02  4.710481e+02 -2.823413e+02
     vertex -3.341219e+02  4.714986e+02 -2.828413e+02
   endloop
 endfacet
 facet normal -2.286124e-01 -6.718595e-01 -7.045148e-01
   outer loop
     vertex -3.320567e+02  4.702715e+02 -2.823413e+02
     vertex -3.343389e+02  4.710481e+02 -2.823413e+02
     vertex -3.319538e+02  4.707608e+02 -2.828413e+02
   endloop
 endfacet
 facet normal -6.118279e-02 -7.070470e-01 -7.045148e-01
   outer loop
     vertex -3.296722e+02  4.705634e+02 -2.828413e+02
     vertex -3.320567e+02  4.702715e+02 -2.823413e+02
     vertex -3.319538e+02  4.707608e+02 -2.828413e+02
   endloop
 endfacet
 facet normal -6.118279e-02 -7.070470e-01 -7.045148e-01
   outer loop
     vertex -3.296549e+02  4.700637e+02 -2.823413e+02
     vertex -3.320567e+02  4.702715e+02 -2.823413e+02
     vertex -3.296722e+02  4.705634e+02 -2.828413e+02
   endloop
 endfacet
 facet normal  1.098025e-01 -7.011435e-01 -7.045148e-01
   outer loop
     vertex -3.274095e+02  4.709177e+02 -2.828413e+02
     vertex -3.296549e+02  4.700637e+02 -2.823413e+02
     vertex -3.296722e+02  4.705634e+02 -2.828413e+02
   endloop
 endfacet
 facet normal  1.098025e-01 -7.011435e-01 -7.045148e-01
   outer loop
     vertex -3.272732e+02  4.704367e+02 -2.823413e+02
     vertex -3.296549e+02  4.700637e+02 -2.823413e+02
     vertex -3.274095e+02  4.709177e+02 -2.828413e+02
   endloop
 endfacet
 facet normal  2.744065e-01 -6.544921e-01 -7.045148e-01
   outer loop
     vertex -3.252975e+02  4.718033e+02 -2.828413e+02
     vertex -3.272732e+02  4.704367e+02 -2.823413e+02
     vertex -3.274095e+02  4.709177e+02 -2.828413e+02
   endloop
 endfacet
 facet normal  2.744065e-01 -6.544921e-01 -7.045148e-01
   outer loop
     vertex -3.250500e+02  4.713688e+02 -2.823413e+02
     vertex -3.272732e+02  4.704367e+02 -2.823413e+02
     vertex -3.252975e+02  4.718033e+02 -2.828413e+02
   endloop
 endfacet
 facet normal  4.230629e-01 -5.698040e-01 -7.045148e-01
   outer loop
     vertex -3.234587e+02  4.731685e+02 -2.828413e+02
     vertex -3.250500e+02  4.713688e+02 -2.823413e+02
     vertex -3.252975e+02  4.718033e+02 -2.828413e+02
   endloop
 endfacet
 facet normal  4.230629e-01 -5.698040e-01 -7.045148e-01
   outer loop
     vertex -3.231144e+02  4.728059e+02 -2.823413e+02
     vertex -3.250500e+02  4.713688e+02 -2.823413e+02
     vertex -3.234587e+02  4.731685e+02 -2.828413e+02
   endloop
 endfacet
 facet normal  5.471325e-01 -4.520009e-01 -7.045148e-01
   outer loop
     vertex -3.220001e+02  4.749341e+02 -2.828413e+02
     vertex -3.231144e+02  4.728059e+02 -2.823413e+02
     vertex -3.234587e+02  4.731685e+02 -2.828413e+02
   endloop
 endfacet
 facet normal  5.471325e-01 -4.520009e-01 -7.045148e-01
   outer loop
     vertex -3.215790e+02  4.746644e+02 -2.823413e+02
     vertex -3.231144e+02  4.728059e+02 -2.823413e+02
     vertex -3.220001e+02  4.749341e+02 -2.828413e+02
   endloop
 endfacet
 facet normal  6.394048e-01 -3.079292e-01 -7.045148e-01
   outer loop
     vertex -3.205330e+02  4.768364e+02 -2.823413e+02
     vertex -3.220001e+02  4.749341e+02 -2.828413e+02
     vertex -3.210064e+02  4.769975e+02 -2.828413e+02
   endloop
 endfacet
 facet normal  6.394048e-01 -3.079292e-01 -7.045148e-01
   outer loop
     vertex -3.205330e+02  4.768364e+02 -2.823413e+02
     vertex -3.215790e+02  4.746644e+02 -2.823413e+02
     vertex -3.220001e+02  4.749341e+02 -2.828413e+02
   endloop
 endfacet
 facet normal  6.945171e-01 -1.459618e-01 -7.045148e-01
   outer loop
     vertex -3.205353e+02  4.792387e+02 -2.828413e+02
     vertex -3.205330e+02  4.768364e+02 -2.823413e+02
     vertex -3.210064e+02  4.769975e+02 -2.828413e+02
   endloop
 endfacet
 facet normal  6.945171e-01 -1.459618e-01 -7.045148e-01
   outer loop
     vertex -3.200372e+02  4.791956e+02 -2.823413e+02
     vertex -3.205330e+02  4.768364e+02 -2.823413e+02
     vertex -3.205353e+02  4.792387e+02 -2.828413e+02
   endloop
 endfacet
 facet normal  7.092666e-01  2.448841e-02 -7.045148e-01
   outer loop
     vertex -3.201204e+02  4.816049e+02 -2.823413e+02
     vertex -3.200372e+02  4.791956e+02 -2.823413e+02
     vertex -3.205353e+02  4.792387e+02 -2.828413e+02
   endloop
 endfacet
 facet normal  7.092666e-01  2.448841e-02 -7.045148e-01
   outer loop
     vertex -3.201204e+02  4.816049e+02 -2.823413e+02
     vertex -3.205353e+02  4.792387e+02 -2.828413e+02
     vertex -3.206144e+02  4.815276e+02 -2.828413e+02
   endloop
 endfacet
 facet normal  6.827962e-01  1.935154e-01 -7.045148e-01
   outer loop
     vertex -3.212388e+02  4.837310e+02 -2.828413e+02
     vertex -3.201204e+02  4.816049e+02 -2.823413e+02
     vertex -3.206144e+02  4.815276e+02 -2.828413e+02
   endloop
 endfacet
 facet normal  6.827962e-01  1.935154e-01 -7.045148e-01
   outer loop
     vertex -3.207777e+02  4.839243e+02 -2.823413e+02
     vertex -3.201204e+02  4.816049e+02 -2.823413e+02
     vertex -3.212388e+02  4.837310e+02 -2.828413e+02
   endloop
 endfacet
 facet normal  6.166441e-01  3.512961e-01 -7.045148e-01
   outer loop
     vertex -3.223725e+02  4.857209e+02 -2.828413e+02
     vertex -3.207777e+02  4.839243e+02 -2.823413e+02
     vertex -3.212388e+02  4.837310e+02 -2.828413e+02
   endloop
 endfacet
 facet normal  6.166441e-01  3.512961e-01 -7.045148e-01
   outer loop
     vertex -3.219710e+02  4.860190e+02 -2.823413e+02
     vertex -3.207777e+02  4.839243e+02 -2.823413e+02
     vertex -3.223725e+02  4.857209e+02 -2.828413e+02
   endloop
 endfacet
 facet normal  5.146549e-01  4.886606e-01 -7.045148e-01
   outer loop
     vertex -3.239494e+02  4.873817e+02 -2.828413e+02
     vertex -3.219710e+02  4.860190e+02 -2.823413e+02
     vertex -3.223725e+02  4.857209e+02 -2.828413e+02
   endloop
 endfacet
 facet normal  5.146549e-01  4.886606e-01 -7.045148e-01
   outer loop
     vertex -3.236310e+02  4.877672e+02 -2.823413e+02
     vertex -3.219710e+02  4.860190e+02 -2.823413e+02
     vertex -3.239494e+02  4.873817e+02 -2.828413e+02
   endloop
 endfacet
 facet normal  3.827558e-01  5.976260e-01 -7.045148e-01
   outer loop
     vertex -3.256610e+02  4.890674e+02 -2.823413e+02
     vertex -3.236310e+02  4.877672e+02 -2.823413e+02
     vertex -3.239494e+02  4.873817e+02 -2.828413e+02
   endloop
 endfacet
 facet normal  3.827558e-01  5.976260e-01 -7.045148e-01
   outer loop
     vertex -3.256610e+02  4.890674e+02 -2.823413e+02
     vertex -3.239494e+02  4.873817e+02 -2.828413e+02
     vertex -3.258780e+02  4.886169e+02 -2.828413e+02
   endloop
 endfacet
 facet normal  2.286124e-01  6.718595e-01 -7.045148e-01
   outer loop
     vertex -3.280461e+02  4.893546e+02 -2.828413e+02
     vertex -3.256610e+02  4.890674e+02 -2.823413e+02
     vertex -3.258780e+02  4.886169e+02 -2.828413e+02
   endloop
 endfacet
 facet normal  2.286124e-01  6.718595e-01 -7.045148e-01
   outer loop
     vertex -3.279433e+02  4.898439e+02 -2.823413e+02
     vertex -3.256610e+02  4.890674e+02 -2.823413e+02
     vertex -3.280461e+02  4.893546e+02 -2.828413e+02
   endloop
 endfacet
 facet normal  6.118279e-02  7.070470e-01 -7.045148e-01
   outer loop
     vertex -3.303450e+02  4.900518e+02 -2.823413e+02
     vertex -3.279433e+02  4.898439e+02 -2.823413e+02
     vertex -3.280461e+02  4.893546e+02 -2.828413e+02
   endloop
 endfacet
 facet normal  6.118279e-02  7.070470e-01 -7.045148e-01
   outer loop
     vertex -3.303450e+02  4.900518e+02 -2.823413e+02
     vertex -3.280461e+02  4.893546e+02 -2.828413e+02
     vertex -3.303278e+02  4.895521e+02 -2.828413e+02
   endloop
 endfacet
 facet normal -1.098025e-01  7.011435e-01 -7.045148e-01
   outer loop
     vertex -3.327267e+02  4.896788e+02 -2.823413e+02
     vertex -3.303450e+02  4.900518e+02 -2.823413e+02
     vertex -3.303278e+02  4.895521e+02 -2.828413e+02
   endloop
 endfacet
 facet normal -1.098025e-01  7.011435e-01 -7.045148e-01
   outer loop
     vertex -3.327267e+02  4.896788e+02 -2.823413e+02
     vertex -3.303278e+02  4.895521e+02 -2.828413e+02
     vertex -3.325904e+02  4.891977e+02 -2.828413e+02
   endloop
 endfacet
 facet normal -2.744065e-01  6.544921e-01 -7.045148e-01
   outer loop
     vertex -3.347025e+02  4.883122e+02 -2.828413e+02
     vertex -3.327267e+02  4.896788e+02 -2.823413e+02
     vertex -3.325904e+02  4.891977e+02 -2.828413e+02
   endloop
 endfacet
 facet normal -2.744065e-01  6.544921e-01 -7.045148e-01
   outer loop
     vertex -3.349500e+02  4.887467e+02 -2.823413e+02
     vertex -3.327267e+02  4.896788e+02 -2.823413e+02
     vertex -3.347025e+02  4.883122e+02 -2.828413e+02
   endloop
 endfacet
 facet normal -4.230629e-01  5.698040e-01 -7.045148e-01
   outer loop
     vertex -3.365412e+02  4.869470e+02 -2.828413e+02
     vertex -3.349500e+02  4.887467e+02 -2.823413e+02
     vertex -3.347025e+02  4.883122e+02 -2.828413e+02
   endloop
 endfacet
 facet normal -4.230629e-01  5.698040e-01 -7.045148e-01
   outer loop
     vertex -3.368855e+02  4.873096e+02 -2.823413e+02
     vertex -3.349500e+02  4.887467e+02 -2.823413e+02
     vertex -3.365412e+02  4.869470e+02 -2.828413e+02
   endloop
 endfacet
 facet normal -5.471325e-01  4.520009e-01 -7.045148e-01
   outer loop
     vertex -3.384209e+02  4.854510e+02 -2.823413e+02
     vertex -3.368855e+02  4.873096e+02 -2.823413e+02
     vertex -3.365412e+02  4.869470e+02 -2.828413e+02
   endloop
 endfacet
 facet normal -5.471325e-01  4.520009e-01 -7.045148e-01
   outer loop
     vertex -3.384209e+02  4.854510e+02 -2.823413e+02
     vertex -3.365412e+02  4.869470e+02 -2.828413e+02
     vertex -3.379999e+02  4.851814e+02 -2.828413e+02
   endloop
 endfacet
 facet normal -6.394048e-01  3.079292e-01 -7.045148e-01
   outer loop
     vertex -3.389936e+02  4.831180e+02 -2.828413e+02
     vertex -3.384209e+02  4.854510e+02 -2.823413e+02
     vertex -3.379999e+02  4.851814e+02 -2.828413e+02
   endloop
 endfacet
 facet normal -6.394048e-01  3.079292e-01 -7.045148e-01
   outer loop
     vertex -3.394669e+02  4.832790e+02 -2.823413e+02
     vertex -3.384209e+02  4.854510e+02 -2.823413e+02
     vertex -3.389936e+02  4.831180e+02 -2.828413e+02
   endloop
 endfacet
 facet normal -6.945171e-01  1.459618e-01 -7.045148e-01
   outer loop
     vertex -3.394646e+02  4.808767e+02 -2.828413e+02
     vertex -3.394669e+02  4.832790e+02 -2.823413e+02
     vertex -3.389936e+02  4.831180e+02 -2.828413e+02
   endloop
 endfacet
 facet normal -6.945171e-01  1.459618e-01 -7.045148e-01
   outer loop
     vertex -3.399627e+02  4.809198e+02 -2.823413e+02
     vertex -3.394669e+02  4.832790e+02 -2.823413e+02
     vertex -3.394646e+02  4.808767e+02 -2.828413e+02
   endloop
 endfacet
 facet normal -7.092666e-01 -2.448841e-02 -7.045148e-01
   outer loop
     vertex -3.393856e+02  4.785879e+02 -2.828413e+02
     vertex -3.399627e+02  4.809198e+02 -2.823413e+02
     vertex -3.394646e+02  4.808767e+02 -2.828413e+02
   endloop
 endfacet
 facet normal -7.092666e-01 -2.448841e-02 -7.045148e-01
   outer loop
     vertex -3.398795e+02  4.785105e+02 -2.823413e+02
     vertex -3.399627e+02  4.809198e+02 -2.823413e+02
     vertex -3.393856e+02  4.785879e+02 -2.828413e+02
   endloop
 endfacet
 facet normal -6.827962e-01 -1.935154e-01 -7.045148e-01
   outer loop
     vertex -3.392222e+02  4.761912e+02 -2.823413e+02
     vertex -3.393856e+02  4.785879e+02 -2.828413e+02
     vertex -3.387611e+02  4.763845e+02 -2.828413e+02
   endloop
 endfacet
 facet normal -6.827962e-01 -1.935154e-01 -7.045148e-01
   outer loop
     vertex -3.392222e+02  4.761912e+02 -2.823413e+02
     vertex -3.398795e+02  4.785105e+02 -2.823413e+02
     vertex -3.393856e+02  4.785879e+02 -2.828413e+02
   endloop
 endfacet
 facet normal -8.688931e-01 -4.949998e-01  1.845973e-17
   outer loop
     vertex -3.380289e+02  4.740965e+02 -2.808413e+02
     vertex -3.392222e+02  4.761912e+02 -2.808413e+02
     vertex -3.392222e+02  4.761912e+02 -2.823413e+02
   endloop
 endfacet
 facet normal -8.688931e-01 -4.949998e-01 -0.000000e+00
   outer loop
     vertex -3.380289e+02  4.740965e+02 -2.808413e+02
     vertex -3.392222e+02  4.761912e+02 -2.823413e+02
     vertex -3.380289e+02  4.740965e+02 -2.823413e+02
   endloop
 endfacet
 facet normal -7.251834e-01 -6.885557e-01 -0.000000e+00
   outer loop
     vertex -3.363690e+02  4.723483e+02 -2.808413e+02
     vertex -3.380289e+02  4.740965e+02 -2.823413e+02
     vertex -3.363690e+02  4.723483e+02 -2.823413e+02
   endloop
 endfacet
 facet normal -7.251834e-01 -6.885557e-01  4.686605e-17
   outer loop
     vertex -3.363690e+02  4.723483e+02 -2.808413e+02
     vertex -3.380289e+02  4.740965e+02 -2.808413e+02
     vertex -3.380289e+02  4.740965e+02 -2.823413e+02
   endloop
 endfacet
 facet normal -5.393287e-01 -8.420953e-01 -0.000000e+00
   outer loop
     vertex -3.343389e+02  4.710481e+02 -2.808413e+02
     vertex -3.363690e+02  4.723483e+02 -2.823413e+02
     vertex -3.343389e+02  4.710481e+02 -2.823413e+02
   endloop
 endfacet
 facet normal -5.393287e-01 -8.420953e-01  3.322582e-17
   outer loop
     vertex -3.343389e+02  4.710481e+02 -2.808413e+02
     vertex -3.363690e+02  4.723483e+02 -2.808413e+02
     vertex -3.363690e+02  4.723483e+02 -2.823413e+02
   endloop
 endfacet
 facet normal -3.221302e-01 -9.466954e-01 -0.000000e+00
   outer loop
     vertex -3.320567e+02  4.702715e+02 -2.808413e+02
     vertex -3.343389e+02  4.710481e+02 -2.823413e+02
     vertex -3.320567e+02  4.702715e+02 -2.823413e+02
   endloop
 endfacet
 facet normal -3.221302e-01 -9.466954e-01  2.374933e-17
   outer loop
     vertex -3.320567e+02  4.702715e+02 -2.808413e+02
     vertex -3.343389e+02  4.710481e+02 -2.808413e+02
     vertex -3.343389e+02  4.710481e+02 -2.823413e+02
   endloop
 endfacet
 facet normal  1.547191e-01 -9.879585e-01  0.000000e+00
   outer loop
     vertex -3.296549e+02  4.700637e+02 -2.808413e+02
     vertex -3.296549e+02  4.700637e+02 -2.823413e+02
     vertex -3.272732e+02  4.704367e+02 -2.823413e+02
   endloop
 endfacet
 facet normal -8.621067e-02 -9.962769e-01 -0.000000e+00
   outer loop
     vertex -3.296549e+02  4.700637e+02 -2.808413e+02
     vertex -3.320567e+02  4.702715e+02 -2.823413e+02
     vertex -3.296549e+02  4.700637e+02 -2.823413e+02
   endloop
 endfacet
 facet normal -8.621067e-02 -9.962769e-01 -4.397427e-18
   outer loop
     vertex -3.296549e+02  4.700637e+02 -2.808413e+02
     vertex -3.320567e+02  4.702715e+02 -2.808413e+02
     vertex -3.320567e+02  4.702715e+02 -2.823413e+02
   endloop
 endfacet
 facet normal  1.547191e-01 -9.879585e-01  0.000000e+00
   outer loop
     vertex -3.272732e+02  4.704367e+02 -2.808413e+02
     vertex -3.296549e+02  4.700637e+02 -2.808413e+02
     vertex -3.272732e+02  4.704367e+02 -2.823413e+02
   endloop
 endfacet
 facet normal  3.866572e-01 -9.222235e-01  0.000000e+00
   outer loop
     vertex -3.250500e+02  4.713688e+02 -2.808413e+02
     vertex -3.272732e+02  4.704367e+02 -2.823413e+02
     vertex -3.250500e+02  4.713688e+02 -2.823413e+02
   endloop
 endfacet
 facet normal  3.866572e-01 -9.222235e-01 -2.774508e-17
   outer loop
     vertex -3.250500e+02  4.713688e+02 -2.808413e+02
     vertex -3.272732e+02  4.704367e+02 -2.808413e+02
     vertex -3.272732e+02  4.704367e+02 -2.823413e+02
   endloop
 endfacet
 facet normal  5.961242e-01 -8.028922e-01  0.000000e+00
   outer loop
     vertex -3.231144e+02  4.728059e+02 -2.808413e+02
     vertex -3.250500e+02  4.713688e+02 -2.823413e+02
     vertex -3.231144e+02  4.728059e+02 -2.823413e+02
   endloop
 endfacet
 facet normal  5.961242e-01 -8.028922e-01 -2.320051e-17
   outer loop
     vertex -3.231144e+02  4.728059e+02 -2.808413e+02
     vertex -3.250500e+02  4.713688e+02 -2.808413e+02
     vertex -3.250500e+02  4.713688e+02 -2.823413e+02
   endloop
 endfacet
 facet normal  7.709466e-01 -6.368998e-01  0.000000e+00
   outer loop
     vertex -3.215790e+02  4.746644e+02 -2.808413e+02
     vertex -3.231144e+02  4.728059e+02 -2.823413e+02
     vertex -3.215790e+02  4.746644e+02 -2.823413e+02
   endloop
 endfacet
 facet normal  7.709466e-01 -6.368998e-01  5.741391e-17
   outer loop
     vertex -3.215790e+02  4.746644e+02 -2.808413e+02
     vertex -3.231144e+02  4.728059e+02 -2.808413e+02
     vertex -3.231144e+02  4.728059e+02 -2.823413e+02
   endloop
 endfacet
 facet normal  9.009644e-01 -4.338930e-01  0.000000e+00
   outer loop
     vertex -3.205330e+02  4.768364e+02 -2.808413e+02
     vertex -3.215790e+02  4.746644e+02 -2.823413e+02
     vertex -3.205330e+02  4.768364e+02 -2.823413e+02
   endloop
 endfacet
 facet normal  9.009644e-01 -4.338930e-01  4.131867e-17
   outer loop
     vertex -3.205330e+02  4.768364e+02 -2.808413e+02
     vertex -3.215790e+02  4.746644e+02 -2.808413e+02
     vertex -3.215790e+02  4.746644e+02 -2.823413e+02
   endloop
 endfacet
 facet normal  9.786214e-01 -2.056700e-01  6.606346e-18
   outer loop
     vertex -3.200372e+02  4.791956e+02 -2.808413e+02
     vertex -3.205330e+02  4.768364e+02 -2.808413e+02
     vertex -3.205330e+02  4.768364e+02 -2.823413e+02
   endloop
 endfacet
 facet normal  9.786214e-01 -2.056700e-01  0.000000e+00
   outer loop
     vertex -3.200372e+02  4.791956e+02 -2.808413e+02
     vertex -3.205330e+02  4.768364e+02 -2.823413e+02
     vertex -3.200372e+02  4.791956e+02 -2.823413e+02
   endloop
 endfacet
 facet normal  9.994045e-01  3.450582e-02 -2.992553e-19
   outer loop
     vertex -3.201204e+02  4.816049e+02 -2.808413e+02
     vertex -3.200372e+02  4.791956e+02 -2.808413e+02
     vertex -3.200372e+02  4.791956e+02 -2.823413e+02
   endloop
 endfacet
 facet normal  9.994045e-01  3.450582e-02  0.000000e+00
   outer loop
     vertex -3.201204e+02  4.816049e+02 -2.808413e+02
     vertex -3.200372e+02  4.791956e+02 -2.823413e+02
     vertex -3.201204e+02  4.816049e+02 -2.823413e+02
   endloop
 endfacet
 facet normal  9.621058e-01  2.726763e-01 -3.315012e-18
   outer loop
     vertex -3.207777e+02  4.839243e+02 -2.808413e+02
     vertex -3.201204e+02  4.816049e+02 -2.808413e+02
     vertex -3.201204e+02  4.816049e+02 -2.823413e+02
   endloop
 endfacet
 facet normal  9.621058e-01  2.726763e-01  0.000000e+00
   outer loop
     vertex -3.207777e+02  4.839243e+02 -2.808413e+02
     vertex -3.201204e+02  4.816049e+02 -2.823413e+02
     vertex -3.207777e+02  4.839243e+02 -2.823413e+02
   endloop
 endfacet
 facet normal  8.688931e-01  4.949998e-01  1.845973e-17
   outer loop
     vertex -3.219710e+02  4.860190e+02 -2.808413e+02
     vertex -3.207777e+02  4.839243e+02 -2.808413e+02
     vertex -3.207777e+02  4.839243e+02 -2.823413e+02
   endloop
 endfacet
 facet normal  7.251834e-01  6.885557e-01  0.000000e+00
   outer loop
     vertex -3.219710e+02  4.860190e+02 -2.808413e+02
     vertex -3.219710e+02  4.860190e+02 -2.823413e+02
     vertex -3.236310e+02  4.877672e+02 -2.823413e+02
   endloop
 endfacet
 facet normal  8.688931e-01  4.949998e-01  0.000000e+00
   outer loop
     vertex -3.219710e+02  4.860190e+02 -2.808413e+02
     vertex -3.207777e+02  4.839243e+02 -2.823413e+02
     vertex -3.219710e+02  4.860190e+02 -2.823413e+02
   endloop
 endfacet
 facet normal  7.251834e-01  6.885557e-01  0.000000e+00
   outer loop
     vertex -3.236310e+02  4.877672e+02 -2.808413e+02
     vertex -3.219710e+02  4.860190e+02 -2.808413e+02
     vertex -3.236310e+02  4.877672e+02 -2.823413e+02
   endloop
 endfacet
 facet normal  5.393287e-01  8.420953e-01  0.000000e+00
   outer loop
     vertex -3.236310e+02  4.877672e+02 -2.808413e+02
     vertex -3.236310e+02  4.877672e+02 -2.823413e+02
     vertex -3.256610e+02  4.890674e+02 -2.823413e+02
   endloop
 endfacet
 facet normal  5.393287e-01  8.420953e-01  0.000000e+00
   outer loop
     vertex -3.256610e+02  4.890674e+02 -2.808413e+02
     vertex -3.236310e+02  4.877672e+02 -2.808413e+02
     vertex -3.256610e+02  4.890674e+02 -2.823413e+02
   endloop
 endfacet
 facet normal  3.221302e-01  9.466954e-01  0.000000e+00
   outer loop
     vertex -3.256610e+02  4.890674e+02 -2.808413e+02
     vertex -3.256610e+02  4.890674e+02 -2.823413e+02
     vertex -3.279433e+02  4.898439e+02 -2.823413e+02
   endloop
 endfacet
 facet normal  3.221302e-01  9.466954e-01  0.000000e+00
   outer loop
     vertex -3.279433e+02  4.898439e+02 -2.808413e+02
     vertex -3.256610e+02  4.890674e+02 -2.808413e+02
     vertex -3.279433e+02  4.898439e+02 -2.823413e+02
   endloop
 endfacet
 facet normal  8.621067e-02  9.962769e-01 -4.984891e-18
   outer loop
     vertex -3.303450e+02  4.900518e+02 -2.808413e+02
     vertex -3.279433e+02  4.898439e+02 -2.808413e+02
     vertex -3.279433e+02  4.898439e+02 -2.823413e+02
   endloop
 endfacet
 facet normal  8.621067e-02  9.962769e-01  0.000000e+00
   outer loop
     vertex -3.303450e+02  4.900518e+02 -2.808413e+02
     vertex -3.279433e+02  4.898439e+02 -2.823413e+02
     vertex -3.303450e+02  4.900518e+02 -2.823413e+02
   endloop
 endfacet
 facet normal -1.547191e-01  9.879585e-01  0.000000e+00
   outer loop
     vertex -3.327267e+02  4.896788e+02 -2.808413e+02
     vertex -3.303450e+02  4.900518e+02 -2.823413e+02
     vertex -3.327267e+02  4.896788e+02 -2.823413e+02
   endloop
 endfacet
 facet normal -1.547191e-01  9.879585e-01 -3.880906e-18
   outer loop
     vertex -3.327267e+02  4.896788e+02 -2.808413e+02
     vertex -3.303450e+02  4.900518e+02 -2.808413e+02
     vertex -3.303450e+02  4.900518e+02 -2.823413e+02
   endloop
 endfacet
 facet normal -3.866572e-01  9.222235e-01 -2.774508e-17
   outer loop
     vertex -3.349500e+02  4.887467e+02 -2.808413e+02
     vertex -3.327267e+02  4.896788e+02 -2.808413e+02
     vertex -3.327267e+02  4.896788e+02 -2.823413e+02
   endloop
 endfacet
 facet normal -3.866572e-01  9.222235e-01  0.000000e+00
   outer loop
     vertex -3.349500e+02  4.887467e+02 -2.808413e+02
     vertex -3.327267e+02  4.896788e+02 -2.823413e+02
     vertex -3.349500e+02  4.887467e+02 -2.823413e+02
   endloop
 endfacet
 facet normal -5.961242e-01  8.028922e-01  0.000000e+00
   outer loop
     vertex -3.368855e+02  4.873096e+02 -2.808413e+02
     vertex -3.349500e+02  4.887467e+02 -2.823413e+02
     vertex -3.368855e+02  4.873096e+02 -2.823413e+02
   endloop
 endfacet
 facet normal -5.961242e-01  8.028922e-01 -2.320051e-17
   outer loop
     vertex -3.368855e+02  4.873096e+02 -2.808413e+02
     vertex -3.349500e+02  4.887467e+02 -2.808413e+02
     vertex -3.349500e+02  4.887467e+02 -2.823413e+02
   endloop
 endfacet
 facet normal -7.709466e-01  6.368998e-01  0.000000e+00
   outer loop
     vertex -3.384209e+02  4.854510e+02 -2.808413e+02
     vertex -3.368855e+02  4.873096e+02 -2.823413e+02
     vertex -3.384209e+02  4.854510e+02 -2.823413e+02
   endloop
 endfacet
 facet normal -7.709466e-01  6.368998e-01  5.262788e-18
   outer loop
     vertex -3.384209e+02  4.854510e+02 -2.808413e+02
     vertex -3.368855e+02  4.873096e+02 -2.808413e+02
     vertex -3.368855e+02  4.873096e+02 -2.823413e+02
   endloop
 endfacet
 facet normal -9.009644e-01  4.338930e-01  0.000000e+00
   outer loop
     vertex -3.394669e+02  4.832790e+02 -2.808413e+02
     vertex -3.384209e+02  4.854510e+02 -2.823413e+02
     vertex -3.394669e+02  4.832790e+02 -2.823413e+02
   endloop
 endfacet
 facet normal -9.009644e-01  4.338930e-01  2.930369e-17
   outer loop
     vertex -3.394669e+02  4.832790e+02 -2.808413e+02
     vertex -3.384209e+02  4.854510e+02 -2.808413e+02
     vertex -3.384209e+02  4.854510e+02 -2.823413e+02
   endloop
 endfacet
 facet normal -9.994045e-01 -3.450582e-02 -0.000000e+00
   outer loop
     vertex -3.399627e+02  4.809198e+02 -2.808413e+02
     vertex -3.399627e+02  4.809198e+02 -2.823413e+02
     vertex -3.398795e+02  4.785105e+02 -2.823413e+02
   endloop
 endfacet
 facet normal -9.786214e-01  2.056700e-01  0.000000e+00
   outer loop
     vertex -3.399627e+02  4.809198e+02 -2.808413e+02
     vertex -3.394669e+02  4.832790e+02 -2.823413e+02
     vertex -3.399627e+02  4.809198e+02 -2.823413e+02
   endloop
 endfacet
 facet normal -9.786214e-01  2.056700e-01  1.380037e-17
   outer loop
     vertex -3.399627e+02  4.809198e+02 -2.808413e+02
     vertex -3.394669e+02  4.832790e+02 -2.808413e+02
     vertex -3.394669e+02  4.832790e+02 -2.823413e+02
   endloop
 endfacet
 facet normal -9.994045e-01 -3.450582e-02 -0.000000e+00
   outer loop
     vertex -3.398795e+02  4.785105e+02 -2.808413e+02
     vertex -3.399627e+02  4.809198e+02 -2.808413e+02
     vertex -3.398795e+02  4.785105e+02 -2.823413e+02
   endloop
 endfacet
 facet normal -9.621058e-01 -2.726763e-01 -0.000000e+00
   outer loop
     vertex -3.392222e+02  4.761912e+02 -2.808413e+02
     vertex -3.398795e+02  4.785105e+02 -2.823413e+02
     vertex -3.392222e+02  4.761912e+02 -2.823413e+02
   endloop
 endfacet
 facet normal -9.621058e-01 -2.726763e-01  1.132978e-17
   outer loop
     vertex -3.392222e+02  4.761912e+02 -2.808413e+02
     vertex -3.398795e+02  4.785105e+02 -2.808413e+02
     vertex -3.398795e+02  4.785105e+02 -2.823413e+02
   endloop
 endfacet
 facet normal  0.000000e+00  0.000000e+00 -1.000000e+00
   outer loop
     vertex -3.310797e+02  4.749200e+02 -2.828413e+02
     vertex -3.319538e+02  4.707608e+02 -2.828413e+02
     vertex -3.341219e+02  4.714986e+02 -2.828413e+02
   endloop
 endfacet
 facet normal -0.000000e+00  0.000000e+00 -1.000000e+00
   outer loop
     vertex -3.310797e+02  4.749200e+02 -2.828413e+02
     vertex -3.341219e+02  4.714986e+02 -2.828413e+02
     vertex -3.322779e+02  4.753277e+02 -2.828413e+02
   endloop
 endfacet
 facet normal  0.000000e+00  0.000000e+00 -1.000000e+00
   outer loop
     vertex -3.333437e+02  4.760103e+02 -2.828413e+02
     vertex -3.341219e+02  4.714986e+02 -2.828413e+02
     vertex -3.360505e+02  4.727337e+02 -2.828413e+02
   endloop
 endfacet
 facet normal  0.000000e+00 -0.000000e+00 -1.000000e+00
   outer loop
     vertex -3.333437e+02  4.760103e+02 -2.828413e+02
     vertex -3.322779e+02  4.753277e+02 -2.828413e+02
     vertex -3.341219e+02  4.714986e+02 -2.828413e+02
   endloop
 endfacet
 facet normal  0.000000e+00 -0.000000e+00 -1.000000e+00
   outer loop
     vertex -3.298188e+02  4.748109e+02 -2.828413e+02
     vertex -3.296722e+02  4.705634e+02 -2.828413e+02
     vertex -3.319538e+02  4.707608e+02 -2.828413e+02
   endloop
 endfacet
 facet normal  0.000000e+00  0.000000e+00 -1.000000e+00
   outer loop
     vertex -3.298188e+02  4.748109e+02 -2.828413e+02
     vertex -3.274095e+02  4.709177e+02 -2.828413e+02
     vertex -3.296722e+02  4.705634e+02 -2.828413e+02
   endloop
 endfacet
 facet normal -0.000000e+00  0.000000e+00 -1.000000e+00
   outer loop
     vertex -3.298188e+02  4.748109e+02 -2.828413e+02
     vertex -3.319538e+02  4.707608e+02 -2.828413e+02
     vertex -3.310797e+02  4.749200e+02 -2.828413e+02
   endloop
 endfacet
 facet normal  0.000000e+00  0.000000e+00 -1.000000e+00
   outer loop
     vertex -3.342151e+02  4.769281e+02 -2.828413e+02
     vertex -3.360505e+02  4.727337e+02 -2.828413e+02
     vertex -3.376274e+02  4.743946e+02 -2.828413e+02
   endloop
 endfacet
 facet normal  0.000000e+00 -0.000000e+00 -1.000000e+00
   outer loop
     vertex -3.342151e+02  4.769281e+02 -2.828413e+02
     vertex -3.333437e+02  4.760103e+02 -2.828413e+02
     vertex -3.360505e+02  4.727337e+02 -2.828413e+02
   endloop
 endfacet
 facet normal  0.000000e+00 -0.000000e+00 -1.000000e+00
   outer loop
     vertex -3.285684e+02  4.750067e+02 -2.828413e+02
     vertex -3.274095e+02  4.709177e+02 -2.828413e+02
     vertex -3.298188e+02  4.748109e+02 -2.828413e+02
   endloop
 endfacet
 facet normal  0.000000e+00  0.000000e+00 -1.000000e+00
   outer loop
     vertex -3.348416e+02  4.780278e+02 -2.828413e+02
     vertex -3.376274e+02  4.743946e+02 -2.828413e+02
     vertex -3.387611e+02  4.763845e+02 -2.828413e+02
   endloop
 endfacet
 facet normal  0.000000e+00 -0.000000e+00 -1.000000e+00
   outer loop
     vertex -3.348416e+02  4.780278e+02 -2.828413e+02
     vertex -3.342151e+02  4.769281e+02 -2.828413e+02
     vertex -3.376274e+02  4.743946e+02 -2.828413e+02
   endloop
 endfacet
 facet normal  0.000000e+00 -0.000000e+00 -1.000000e+00
   outer loop
     vertex -3.274012e+02  4.754960e+02 -2.828413e+02
     vertex -3.252975e+02  4.718033e+02 -2.828413e+02
     vertex -3.274095e+02  4.709177e+02 -2.828413e+02
   endloop
 endfacet
 facet normal  0.000000e+00  0.000000e+00 -1.000000e+00
   outer loop
     vertex -3.274012e+02  4.754960e+02 -2.828413e+02
     vertex -3.274095e+02  4.709177e+02 -2.828413e+02
     vertex -3.285684e+02  4.750067e+02 -2.828413e+02
   endloop
 endfacet
 facet normal  0.000000e+00  0.000000e+00 -1.000000e+00
   outer loop
     vertex -3.351867e+02  4.792455e+02 -2.828413e+02
     vertex -3.387611e+02  4.763845e+02 -2.828413e+02
     vertex -3.393856e+02  4.785879e+02 -2.828413e+02
   endloop
 endfacet
 facet normal  0.000000e+00 -0.000000e+00 -1.000000e+00
   outer loop
     vertex -3.351867e+02  4.792455e+02 -2.828413e+02
     vertex -3.348416e+02  4.780278e+02 -2.828413e+02
     vertex -3.387611e+02  4.763845e+02 -2.828413e+02
   endloop
 endfacet
 facet normal  0.000000e+00  0.000000e+00 -1.000000e+00
   outer loop
     vertex -3.263850e+02  4.762505e+02 -2.828413e+02
     vertex -3.234587e+02  4.731685e+02 -2.828413e+02
     vertex -3.252975e+02  4.718033e+02 -2.828413e+02
   endloop
 endfacet
 facet normal  0.000000e+00 -0.000000e+00 -1.000000e+00
   outer loop
     vertex -3.263850e+02  4.762505e+02 -2.828413e+02
     vertex -3.252975e+02  4.718033e+02 -2.828413e+02
     vertex -3.274012e+02  4.754960e+02 -2.828413e+02
   endloop
 endfacet
 facet normal -0.000000e+00  0.000000e+00 -1.000000e+00
   outer loop
     vertex -3.352304e+02  4.805103e+02 -2.828413e+02
     vertex -3.393856e+02  4.785879e+02 -2.828413e+02
     vertex -3.394646e+02  4.808767e+02 -2.828413e+02
   endloop
 endfacet
 facet normal  0.000000e+00 -0.000000e+00 -1.000000e+00
   outer loop
     vertex -3.352304e+02  4.805103e+02 -2.828413e+02
     vertex -3.351867e+02  4.792455e+02 -2.828413e+02
     vertex -3.393856e+02  4.785879e+02 -2.828413e+02
   endloop
 endfacet
 facet normal  0.000000e+00  0.000000e+00 -1.000000e+00
   outer loop
     vertex -3.255790e+02  4.772263e+02 -2.828413e+02
     vertex -3.220001e+02  4.749341e+02 -2.828413e+02
     vertex -3.234587e+02  4.731685e+02 -2.828413e+02
   endloop
 endfacet
 facet normal  0.000000e+00 -0.000000e+00 -1.000000e+00
   outer loop
     vertex -3.255790e+02  4.772263e+02 -2.828413e+02
     vertex -3.234587e+02  4.731685e+02 -2.828413e+02
     vertex -3.263850e+02  4.762505e+02 -2.828413e+02
   endloop
 endfacet
 facet normal -0.000000e+00  0.000000e+00 -1.000000e+00
   outer loop
     vertex -3.349701e+02  4.817489e+02 -2.828413e+02
     vertex -3.394646e+02  4.808767e+02 -2.828413e+02
     vertex -3.389936e+02  4.831180e+02 -2.828413e+02
   endloop
 endfacet
 facet normal  0.000000e+00  0.000000e+00 -1.000000e+00
   outer loop
     vertex -3.349701e+02  4.817489e+02 -2.828413e+02
     vertex -3.352304e+02  4.805103e+02 -2.828413e+02
     vertex -3.394646e+02  4.808767e+02 -2.828413e+02
   endloop
 endfacet
 facet normal -0.000000e+00  0.000000e+00 -1.000000e+00
   outer loop
     vertex -3.210064e+02  4.769975e+02 -2.828413e+02
     vertex -3.220001e+02  4.749341e+02 -2.828413e+02
     vertex -3.255790e+02  4.772263e+02 -2.828413e+02
   endloop
 endfacet
 facet normal  0.000000e+00  0.000000e+00 -1.000000e+00
   outer loop
     vertex -3.210064e+02  4.769975e+02 -2.828413e+02
     vertex -3.255790e+02  4.772263e+02 -2.828413e+02
     vertex -3.250298e+02  4.783666e+02 -2.828413e+02
   endloop
 endfacet
 facet normal -0.000000e+00  0.000000e+00 -1.000000e+00
   outer loop
     vertex -3.344210e+02  4.828892e+02 -2.828413e+02
     vertex -3.349701e+02  4.817489e+02 -2.828413e+02
     vertex -3.389936e+02  4.831180e+02 -2.828413e+02
   endloop
 endfacet
 facet normal  0.000000e+00 -0.000000e+00 -1.000000e+00
   outer loop
     vertex -3.247695e+02  4.796051e+02 -2.828413e+02
     vertex -3.210064e+02  4.769975e+02 -2.828413e+02
     vertex -3.250298e+02  4.783666e+02 -2.828413e+02
   endloop
 endfacet
 facet normal  0.000000e+00 -0.000000e+00 -1.000000e+00
   outer loop
     vertex -3.379999e+02  4.851814e+02 -2.828413e+02
     vertex -3.344210e+02  4.828892e+02 -2.828413e+02
     vertex -3.389936e+02  4.831180e+02 -2.828413e+02
   endloop
 endfacet
 facet normal -0.000000e+00  0.000000e+00 -1.000000e+00
   outer loop
     vertex -3.205353e+02  4.792387e+02 -2.828413e+02
     vertex -3.210064e+02  4.769975e+02 -2.828413e+02
     vertex -3.247695e+02  4.796051e+02 -2.828413e+02
   endloop
 endfacet
 facet normal  0.000000e+00  0.000000e+00 -1.000000e+00
   outer loop
     vertex -3.205353e+02  4.792387e+02 -2.828413e+02
     vertex -3.247695e+02  4.796051e+02 -2.828413e+02
     vertex -3.248132e+02  4.808700e+02 -2.828413e+02
   endloop
 endfacet
 facet normal  0.000000e+00 -0.000000e+00 -1.000000e+00
   outer loop
     vertex -3.365412e+02  4.869470e+02 -2.828413e+02
     vertex -3.344210e+02  4.828892e+02 -2.828413e+02
     vertex -3.379999e+02  4.851814e+02 -2.828413e+02
   endloop
 endfacet
 facet normal  0.000000e+00  0.000000e+00 -1.000000e+00
   outer loop
     vertex -3.365412e+02  4.869470e+02 -2.828413e+02
     vertex -3.325987e+02  4.846194e+02 -2.828413e+02
     vertex -3.336149e+02  4.838649e+02 -2.828413e+02
   endloop
 endfacet
 facet normal  0.000000e+00  0.000000e+00 -1.000000e+00
   outer loop
     vertex -3.365412e+02  4.869470e+02 -2.828413e+02
     vertex -3.336149e+02  4.838649e+02 -2.828413e+02
     vertex -3.344210e+02  4.828892e+02 -2.828413e+02
   endloop
 endfacet
 facet normal  0.000000e+00 -0.000000e+00 -1.000000e+00
   outer loop
     vertex -3.206144e+02  4.815276e+02 -2.828413e+02
     vertex -3.205353e+02  4.792387e+02 -2.828413e+02
     vertex -3.248132e+02  4.808700e+02 -2.828413e+02
   endloop
 endfacet
 facet normal  0.000000e+00 -0.000000e+00 -1.000000e+00
   outer loop
     vertex -3.347025e+02  4.883122e+02 -2.828413e+02
     vertex -3.325987e+02  4.846194e+02 -2.828413e+02
     vertex -3.365412e+02  4.869470e+02 -2.828413e+02
   endloop
 endfacet
 facet normal  0.000000e+00 -0.000000e+00 -1.000000e+00
   outer loop
     vertex -3.212388e+02  4.837310e+02 -2.828413e+02
     vertex -3.206144e+02  4.815276e+02 -2.828413e+02
     vertex -3.248132e+02  4.808700e+02 -2.828413e+02
   endloop
 endfacet
 facet normal  0.000000e+00  0.000000e+00 -1.000000e+00
   outer loop
     vertex -3.212388e+02  4.837310e+02 -2.828413e+02
     vertex -3.248132e+02  4.808700e+02 -2.828413e+02
     vertex -3.251583e+02  4.820877e+02 -2.828413e+02
   endloop
 endfacet
 facet normal  0.000000e+00  0.000000e+00 -1.000000e+00
   outer loop
     vertex -3.212388e+02  4.837310e+02 -2.828413e+02
     vertex -3.251583e+02  4.820877e+02 -2.828413e+02
     vertex -3.257848e+02  4.831874e+02 -2.828413e+02
   endloop
 endfacet
 facet normal  0.000000e+00  0.000000e+00 -1.000000e+00
   outer loop
     vertex -3.325904e+02  4.891977e+02 -2.828413e+02
     vertex -3.325987e+02  4.846194e+02 -2.828413e+02
     vertex -3.347025e+02  4.883122e+02 -2.828413e+02
   endloop
 endfacet
 facet normal  0.000000e+00  0.000000e+00 -1.000000e+00
   outer loop
     vertex -3.325904e+02  4.891977e+02 -2.828413e+02
     vertex -3.301811e+02  4.853046e+02 -2.828413e+02
     vertex -3.314315e+02  4.851088e+02 -2.828413e+02
   endloop
 endfacet
 facet normal  0.000000e+00 -0.000000e+00 -1.000000e+00
   outer loop
     vertex -3.325904e+02  4.891977e+02 -2.828413e+02
     vertex -3.314315e+02  4.851088e+02 -2.828413e+02
     vertex -3.325987e+02  4.846194e+02 -2.828413e+02
   endloop
 endfacet
 facet normal  0.000000e+00  0.000000e+00 -1.000000e+00
   outer loop
     vertex -3.223725e+02  4.857209e+02 -2.828413e+02
     vertex -3.257848e+02  4.831874e+02 -2.828413e+02
     vertex -3.266562e+02  4.841052e+02 -2.828413e+02
   endloop
 endfacet
 facet normal  0.000000e+00 -0.000000e+00 -1.000000e+00
   outer loop
     vertex -3.223725e+02  4.857209e+02 -2.828413e+02
     vertex -3.212388e+02  4.837310e+02 -2.828413e+02
     vertex -3.257848e+02  4.831874e+02 -2.828413e+02
   endloop
 endfacet
 facet normal  0.000000e+00 -0.000000e+00 -1.000000e+00
   outer loop
     vertex -3.303278e+02  4.895521e+02 -2.828413e+02
     vertex -3.301811e+02  4.853046e+02 -2.828413e+02
     vertex -3.325904e+02  4.891977e+02 -2.828413e+02
   endloop
 endfacet
 facet normal  0.000000e+00 -0.000000e+00 -1.000000e+00
   outer loop
     vertex -3.239494e+02  4.873817e+02 -2.828413e+02
     vertex -3.223725e+02  4.857209e+02 -2.828413e+02
     vertex -3.266562e+02  4.841052e+02 -2.828413e+02
   endloop
 endfacet
 facet normal  0.000000e+00  0.000000e+00 -1.000000e+00
   outer loop
     vertex -3.280461e+02  4.893546e+02 -2.828413e+02
     vertex -3.289202e+02  4.851955e+02 -2.828413e+02
     vertex -3.301811e+02  4.853046e+02 -2.828413e+02
   endloop
 endfacet
 facet normal -0.000000e+00  0.000000e+00 -1.000000e+00
   outer loop
     vertex -3.280461e+02  4.893546e+02 -2.828413e+02
     vertex -3.301811e+02  4.853046e+02 -2.828413e+02
     vertex -3.303278e+02  4.895521e+02 -2.828413e+02
   endloop
 endfacet
 facet normal  0.000000e+00 -0.000000e+00 -1.000000e+00
   outer loop
     vertex -3.258780e+02  4.886169e+02 -2.828413e+02
     vertex -3.239494e+02  4.873817e+02 -2.828413e+02
     vertex -3.266562e+02  4.841052e+02 -2.828413e+02
   endloop
 endfacet
 facet normal  0.000000e+00  0.000000e+00 -1.000000e+00
   outer loop
     vertex -3.258780e+02  4.886169e+02 -2.828413e+02
     vertex -3.266562e+02  4.841052e+02 -2.828413e+02
     vertex -3.277220e+02  4.847878e+02 -2.828413e+02
   endloop
 endfacet
 facet normal  0.000000e+00  0.000000e+00 -1.000000e+00
   outer loop
     vertex -3.258780e+02  4.886169e+02 -2.828413e+02
     vertex -3.277220e+02  4.847878e+02 -2.828413e+02
     vertex -3.289202e+02  4.851955e+02 -2.828413e+02
   endloop
 endfacet
 facet normal -0.000000e+00  0.000000e+00 -1.000000e+00
   outer loop
     vertex -3.258780e+02  4.886169e+02 -2.828413e+02
     vertex -3.289202e+02  4.851955e+02 -2.828413e+02
     vertex -3.280461e+02  4.893546e+02 -2.828413e+02
   endloop
 endfacet
 facet normal  8.688931e-01  4.949998e-01  0.000000e+00
   outer loop
     vertex -3.348416e+02  4.780278e+02 -2.808413e+02
     vertex -3.342151e+02  4.769281e+02 -2.828413e+02
     vertex -3.348416e+02  4.780278e+02 -2.828413e+02
   endloop
 endfacet
 facet normal  7.251834e-01  6.885557e-01  0.000000e+00
   outer loop
     vertex -3.342151e+02  4.769281e+02 -2.808413e+02
     vertex -3.333437e+02  4.760103e+02 -2.828413e+02
     vertex -3.342151e+02  4.769281e+02 -2.828413e+02
   endloop
 endfacet
 facet normal  8.688931e-01  4.949998e-01  0.000000e+00
   outer loop
     vertex -3.342151e+02  4.769281e+02 -2.808413e+02
     vertex -3.342151e+02  4.769281e+02 -2.828413e+02
     vertex -3.348416e+02  4.780278e+02 -2.808413e+02
   endloop
 endfacet
 facet normal  5.393287e-01  8.420953e-01  0.000000e+00
   outer loop
     vertex -3.333437e+02  4.760103e+02 -2.808413e+02
     vertex -3.322779e+02  4.753277e+02 -2.828413e+02
     vertex -3.333437e+02  4.760103e+02 -2.828413e+02
   endloop
 endfacet
 facet normal  7.251834e-01  6.885557e-01  0.000000e+00
   outer loop
     vertex -3.333437e+02  4.760103e+02 -2.808413e+02
     vertex -3.333437e+02  4.760103e+02 -2.828413e+02
     vertex -3.342151e+02  4.769281e+02 -2.808413e+02
   endloop
 endfacet
 facet normal  3.221302e-01  9.466954e-01  0.000000e+00
   outer loop
     vertex -3.322779e+02  4.753277e+02 -2.808413e+02
     vertex -3.310797e+02  4.749200e+02 -2.828413e+02
     vertex -3.322779e+02  4.753277e+02 -2.828413e+02
   endloop
 endfacet
 facet normal  5.393287e-01  8.420953e-01  0.000000e+00
   outer loop
     vertex -3.322779e+02  4.753277e+02 -2.808413e+02
     vertex -3.322779e+02  4.753277e+02 -2.828413e+02
     vertex -3.333437e+02  4.760103e+02 -2.808413e+02
   endloop
 endfacet
 facet normal  8.621067e-02  9.962769e-01  0.000000e+00
   outer loop
     vertex -3.310797e+02  4.749200e+02 -2.808413e+02
     vertex -3.298188e+02  4.748109e+02 -2.828413e+02
     vertex -3.310797e+02  4.749200e+02 -2.828413e+02
   endloop
 endfacet
 facet normal  3.221302e-01  9.466954e-01  0.000000e+00
   outer loop
     vertex -3.310797e+02  4.749200e+02 -2.808413e+02
     vertex -3.310797e+02  4.749200e+02 -2.828413e+02
     vertex -3.322779e+02  4.753277e+02 -2.808413e+02
   endloop
 endfacet
 facet normal -1.547191e-01  9.879585e-01  0.000000e+00
   outer loop
     vertex -3.298188e+02  4.748109e+02 -2.808413e+02
     vertex -3.285684e+02  4.750067e+02 -2.828413e+02
     vertex -3.298188e+02  4.748109e+02 -2.828413e+02
   endloop
 endfacet
 facet normal  8.621067e-02  9.962769e-01  0.000000e+00
   outer loop
     vertex -3.298188e+02  4.748109e+02 -2.808413e+02
     vertex -3.298188e+02  4.748109e+02 -2.828413e+02
     vertex -3.310797e+02  4.749200e+02 -2.808413e+02
   endloop
 endfacet
 facet normal -3.866572e-01  9.222235e-01  1.098946e-14
   outer loop
     vertex -3.285684e+02  4.750067e+02 -2.808413e+02
     vertex -3.274012e+02  4.754960e+02 -2.828413e+02
     vertex -3.285684e+02  4.750067e+02 -2.828413e+02
   endloop
 endfacet
 facet normal -1.547191e-01  9.879585e-01  4.397382e-15
   outer loop
     vertex -3.285684e+02  4.750067e+02 -2.808413e+02
     vertex -3.285684e+02  4.750067e+02 -2.828413e+02
     vertex -3.298188e+02  4.748109e+02 -2.808413e+02
   endloop
 endfacet
 facet normal -5.961242e-01  8.028922e-01  1.694287e-14
   outer loop
     vertex -3.274012e+02  4.754960e+02 -2.808413e+02
     vertex -3.263850e+02  4.762505e+02 -2.828413e+02
     vertex -3.274012e+02  4.754960e+02 -2.828413e+02
   endloop
 endfacet
 facet normal -3.866572e-01  9.222235e-01  1.098946e-14
   outer loop
     vertex -3.274012e+02  4.754960e+02 -2.808413e+02
     vertex -3.274012e+02  4.754960e+02 -2.828413e+02
     vertex -3.285684e+02  4.750067e+02 -2.808413e+02
   endloop
 endfacet
 facet normal -7.709466e-01  6.368998e-01  0.000000e+00
   outer loop
     vertex -3.263850e+02  4.762505e+02 -2.808413e+02
     vertex -3.255790e+02  4.772263e+02 -2.828413e+02
     vertex -3.263850e+02  4.762505e+02 -2.828413e+02
   endloop
 endfacet
 facet normal -5.961242e-01  8.028922e-01  0.000000e+00
   outer loop
     vertex -3.263850e+02  4.762505e+02 -2.808413e+02
     vertex -3.263850e+02  4.762505e+02 -2.828413e+02
     vertex -3.274012e+02  4.754960e+02 -2.808413e+02
   endloop
 endfacet
 facet normal -9.009644e-01  4.338930e-01  0.000000e+00
   outer loop
     vertex -3.255790e+02  4.772263e+02 -2.808413e+02
     vertex -3.250298e+02  4.783666e+02 -2.828413e+02
     vertex -3.255790e+02  4.772263e+02 -2.828413e+02
   endloop
 endfacet
 facet normal -7.709466e-01  6.368998e-01  0.000000e+00
   outer loop
     vertex -3.255790e+02  4.772263e+02 -2.808413e+02
     vertex -3.255790e+02  4.772263e+02 -2.828413e+02
     vertex -3.263850e+02  4.762505e+02 -2.808413e+02
   endloop
 endfacet
 facet normal -9.786214e-01  2.056700e-01  0.000000e+00
   outer loop
     vertex -3.250298e+02  4.783666e+02 -2.808413e+02
     vertex -3.247695e+02  4.796051e+02 -2.828413e+02
     vertex -3.250298e+02  4.783666e+02 -2.828413e+02
   endloop
 endfacet
 facet normal -9.009644e-01  4.338930e-01  0.000000e+00
   outer loop
     vertex -3.250298e+02  4.783666e+02 -2.808413e+02
     vertex -3.250298e+02  4.783666e+02 -2.828413e+02
     vertex -3.255790e+02  4.772263e+02 -2.808413e+02
   endloop
 endfacet
 facet normal -9.786214e-01  2.056700e-01  0.000000e+00
   outer loop
     vertex -3.247695e+02  4.796051e+02 -2.808413e+02
     vertex -3.247695e+02  4.796051e+02 -2.828413e+02
     vertex -3.250298e+02  4.783666e+02 -2.808413e+02
   endloop
 endfacet
 facet normal -9.994045e-01 -3.450582e-02 -0.000000e+00
   outer loop
     vertex -3.247695e+02  4.796051e+02 -2.808413e+02
     vertex -3.248132e+02  4.808700e+02 -2.828413e+02
     vertex -3.247695e+02  4.796051e+02 -2.828413e+02
   endloop
 endfacet
 facet normal -9.994045e-01 -3.450582e-02 -0.000000e+00
   outer loop
     vertex -3.248132e+02  4.808700e+02 -2.808413e+02
     vertex -3.248132e+02  4.808700e+02 -2.828413e+02
     vertex -3.247695e+02  4.796051e+02 -2.808413e+02
   endloop
 endfacet
 facet normal -9.621058e-01 -2.726763e-01 -0.000000e+00
   outer loop
     vertex -3.248132e+02  4.808700e+02 -2.808413e+02
     vertex -3.251583e+02  4.820877e+02 -2.828413e+02
     vertex -3.248132e+02  4.808700e+02 -2.828413e+02
   endloop
 endfacet
 facet normal -9.621058e-01 -2.726763e-01 -0.000000e+00
   outer loop
     vertex -3.251583e+02  4.820877e+02 -2.808413e+02
     vertex -3.251583e+02  4.820877e+02 -2.828413e+02
     vertex -3.248132e+02  4.808700e+02 -2.808413e+02
   endloop
 endfacet
 facet normal -8.688931e-01 -4.949998e-01 -0.000000e+00
   outer loop
     vertex -3.251583e+02  4.820877e+02 -2.808413e+02
     vertex -3.257848e+02  4.831874e+02 -2.828413e+02
     vertex -3.251583e+02  4.820877e+02 -2.828413e+02
   endloop
 endfacet
 facet normal -8.688931e-01 -4.949998e-01 -0.000000e+00
   outer loop
     vertex -3.257848e+02  4.831874e+02 -2.808413e+02
     vertex -3.257848e+02  4.831874e+02 -2.828413e+02
     vertex -3.251583e+02  4.820877e+02 -2.808413e+02
   endloop
 endfacet
 facet normal -7.251834e-01 -6.885557e-01 -0.000000e+00
   outer loop
     vertex -3.257848e+02  4.831874e+02 -2.808413e+02
     vertex -3.266562e+02  4.841052e+02 -2.828413e+02
     vertex -3.257848e+02  4.831874e+02 -2.828413e+02
   endloop
 endfacet
 facet normal -7.251834e-01 -6.885557e-01 -0.000000e+00
   outer loop
     vertex -3.266562e+02  4.841052e+02 -2.808413e+02
     vertex -3.266562e+02  4.841052e+02 -2.828413e+02
     vertex -3.257848e+02  4.831874e+02 -2.808413e+02
   endloop
 endfacet
 facet normal -5.393287e-01 -8.420953e-01 -0.000000e+00
   outer loop
     vertex -3.266562e+02  4.841052e+02 -2.808413e+02
     vertex -3.277220e+02  4.847878e+02 -2.828413e+02
     vertex -3.266562e+02  4.841052e+02 -2.828413e+02
   endloop
 endfacet
 facet normal -5.393287e-01 -8.420953e-01 -0.000000e+00
   outer loop
     vertex -3.277220e+02  4.847878e+02 -2.808413e+02
     vertex -3.277220e+02  4.847878e+02 -2.828413e+02
     vertex -3.266562e+02  4.841052e+02 -2.808413e+02
   endloop
 endfacet
 facet normal -3.221302e-01 -9.466954e-01 -0.000000e+00
   outer loop
     vertex -3.277220e+02  4.847878e+02 -2.808413e+02
     vertex -3.289202e+02  4.851955e+02 -2.828413e+02
     vertex -3.277220e+02  4.847878e+02 -2.828413e+02
   endloop
 endfacet
 facet normal -3.221302e-01 -9.466954e-01 -0.000000e+00
   outer loop
     vertex -3.289202e+02  4.851955e+02 -2.808413e+02
     vertex -3.289202e+02  4.851955e+02 -2.828413e+02
     vertex -3.277220e+02  4.847878e+02 -2.808413e+02
   endloop
 endfacet
 facet normal -8.621067e-02 -9.962769e-01 -2.689825e-20
   outer loop
     vertex -3.301811e+02  4.853046e+02 -2.808413e+02
     vertex -3.289202e+02  4.851955e+02 -2.828413e+02
     vertex -3.289202e+02  4.851955e+02 -2.808413e+02
   endloop
 endfacet
 facet normal -8.621067e-02 -9.962769e-01 -3.076615e-14
   outer loop
     vertex -3.301811e+02  4.853046e+02 -2.808413e+02
     vertex -3.301811e+02  4.853046e+02 -2.828413e+02
     vertex -3.289202e+02  4.851955e+02 -2.828413e+02
   endloop
 endfacet
 facet normal  1.547191e-01 -9.879585e-01 -2.368209e-14
   outer loop
     vertex -3.301811e+02  4.853046e+02 -2.808413e+02
     vertex -3.314315e+02  4.851088e+02 -2.828413e+02
     vertex -3.301811e+02  4.853046e+02 -2.828413e+02
   endloop
 endfacet
 facet normal  1.547191e-01 -9.879585e-01  0.000000e+00
   outer loop
     vertex -3.314315e+02  4.851088e+02 -2.808413e+02
     vertex -3.314315e+02  4.851088e+02 -2.828413e+02
     vertex -3.301811e+02  4.853046e+02 -2.808413e+02
   endloop
 endfacet
 facet normal  3.866572e-01 -9.222235e-01 -1.909216e-17
   outer loop
     vertex -3.325987e+02  4.846194e+02 -2.808413e+02
     vertex -3.314315e+02  4.851088e+02 -2.828413e+02
     vertex -3.314315e+02  4.851088e+02 -2.808413e+02
   endloop
 endfacet
 facet normal  3.866572e-01 -9.222235e-01 -5.242234e-14
   outer loop
     vertex -3.325987e+02  4.846194e+02 -2.808413e+02
     vertex -3.325987e+02  4.846194e+02 -2.828413e+02
     vertex -3.314315e+02  4.851088e+02 -2.828413e+02
   endloop
 endfacet
 facet normal  5.961242e-01 -8.028922e-01 -4.563914e-14
   outer loop
     vertex -3.325987e+02  4.846194e+02 -2.808413e+02
     vertex -3.336149e+02  4.838649e+02 -2.828413e+02
     vertex -3.325987e+02  4.846194e+02 -2.828413e+02
   endloop
 endfacet
 facet normal  5.961242e-01 -8.028922e-01  0.000000e+00
   outer loop
     vertex -3.336149e+02  4.838649e+02 -2.808413e+02
     vertex -3.336149e+02  4.838649e+02 -2.828413e+02
     vertex -3.325987e+02  4.846194e+02 -2.808413e+02
   endloop
 endfacet
 facet normal  7.709466e-01 -6.368998e-01  0.000000e+00
   outer loop
     vertex -3.336149e+02  4.838649e+02 -2.808413e+02
     vertex -3.344210e+02  4.828892e+02 -2.828413e+02
     vertex -3.336149e+02  4.838649e+02 -2.828413e+02
   endloop
 endfacet
 facet normal  7.709466e-01 -6.368998e-01  0.000000e+00
   outer loop
     vertex -3.344210e+02  4.828892e+02 -2.808413e+02
     vertex -3.344210e+02  4.828892e+02 -2.828413e+02
     vertex -3.336149e+02  4.838649e+02 -2.808413e+02
   endloop
 endfacet
 facet normal  9.009644e-01 -4.338930e-01  0.000000e+00
   outer loop
     vertex -3.344210e+02  4.828892e+02 -2.808413e+02
     vertex -3.349701e+02  4.817489e+02 -2.828413e+02
     vertex -3.344210e+02  4.828892e+02 -2.828413e+02
   endloop
 endfacet
 facet normal  9.009644e-01 -4.338930e-01  1.327497e-14
   outer loop
     vertex -3.349701e+02  4.817489e+02 -2.808413e+02
     vertex -3.349701e+02  4.817489e+02 -2.828413e+02
     vertex -3.344210e+02  4.828892e+02 -2.808413e+02
   endloop
 endfacet
 facet normal  9.786214e-01 -2.056700e-01  2.196860e-14
   outer loop
     vertex -3.349701e+02  4.817489e+02 -2.808413e+02
     vertex -3.352304e+02  4.805103e+02 -2.828413e+02
     vertex -3.349701e+02  4.817489e+02 -2.828413e+02
   endloop
 endfacet
 facet normal  9.786214e-01 -2.056700e-01 -1.753648e-14
   outer loop
     vertex -3.352304e+02  4.805103e+02 -2.808413e+02
     vertex -3.352304e+02  4.805103e+02 -2.828413e+02
     vertex -3.349701e+02  4.817489e+02 -2.808413e+02
   endloop
 endfacet
 facet normal  9.994045e-01  3.450582e-02  0.000000e+00
   outer loop
     vertex -3.351867e+02  4.792455e+02 -2.808413e+02
     vertex -3.351867e+02  4.792455e+02 -2.828413e+02
     vertex -3.352304e+02  4.805103e+02 -2.828413e+02
   endloop
 endfacet
 facet normal  9.621058e-01  2.726763e-01  0.000000e+00
   outer loop
     vertex -3.351867e+02  4.792455e+02 -2.808413e+02
     vertex -3.348416e+02  4.780278e+02 -2.828413e+02
     vertex -3.351867e+02  4.792455e+02 -2.828413e+02
   endloop
 endfacet
 facet normal  9.994045e-01  3.450582e-02  2.942710e-15
   outer loop
     vertex -3.351867e+02  4.792455e+02 -2.808413e+02
     vertex -3.352304e+02  4.805103e+02 -2.828413e+02
     vertex -3.352304e+02  4.805103e+02 -2.808413e+02
   endloop
 endfacet
 facet normal  9.621058e-01  2.726763e-01  0.000000e+00
   outer loop
     vertex -3.348416e+02  4.780278e+02 -2.808413e+02
     vertex -3.348416e+02  4.780278e+02 -2.828413e+02
     vertex -3.351867e+02  4.792455e+02 -2.808413e+02
   endloop
 endfacet
 facet normal  0.000000e+00  0.000000e+00  1.000000e+00
   outer loop
     vertex -3.322779e+02  4.753277e+02 -2.808413e+02
     vertex -3.343389e+02  4.710481e+02 -2.808413e+02
     vertex -3.320567e+02  4.702715e+02 -2.808413e+02
   endloop
 endfacet
 facet normal  0.000000e+00  0.000000e+00  1.000000e+00
   outer loop
     vertex -3.310797e+02  4.749200e+02 -2.808413e+02
     vertex -3.322779e+02  4.753277e+02 -2.808413e+02
     vertex -3.320567e+02  4.702715e+02 -2.808413e+02
   endloop
 endfacet
 facet normal  0.000000e+00  0.000000e+00  1.000000e+00
   outer loop
     vertex -3.333437e+02  4.760103e+02 -2.808413e+02
     vertex -3.363690e+02  4.723483e+02 -2.808413e+02
     vertex -3.343389e+02  4.710481e+02 -2.808413e+02
   endloop
 endfacet
 facet normal  0.000000e+00  0.000000e+00  1.000000e+00
   outer loop
     vertex -3.333437e+02  4.760103e+02 -2.808413e+02
     vertex -3.343389e+02  4.710481e+02 -2.808413e+02
     vertex -3.322779e+02  4.753277e+02 -2.808413e+02
   endloop
 endfacet
 facet normal  0.000000e+00  0.000000e+00  1.000000e+00
   outer loop
     vertex -3.298188e+02  4.748109e+02 -2.808413e+02
     vertex -3.320567e+02  4.702715e+02 -2.808413e+02
     vertex -3.296549e+02  4.700637e+02 -2.808413e+02
   endloop
 endfacet
 facet normal  0.000000e+00  0.000000e+00  1.000000e+00
   outer loop
     vertex -3.298188e+02  4.748109e+02 -2.808413e+02
     vertex -3.310797e+02  4.749200e+02 -2.808413e+02
     vertex -3.320567e+02  4.702715e+02 -2.808413e+02
   endloop
 endfacet
 facet normal  0.000000e+00  0.000000e+00  1.000000e+00
   outer loop
     vertex -3.342151e+02  4.769281e+02 -2.808413e+02
     vertex -3.380289e+02  4.740965e+02 -2.808413e+02
     vertex -3.363690e+02  4.723483e+02 -2.808413e+02
   endloop
 endfacet
 facet normal  0.000000e+00  0.000000e+00  1.000000e+00
   outer loop
     vertex -3.342151e+02  4.769281e+02 -2.808413e+02
     vertex -3.363690e+02  4.723483e+02 -2.808413e+02
     vertex -3.333437e+02  4.760103e+02 -2.808413e+02
   endloop
 endfacet
 facet normal  0.000000e+00  0.000000e+00  1.000000e+00
   outer loop
     vertex -3.285684e+02  4.750067e+02 -2.808413e+02
     vertex -3.296549e+02  4.700637e+02 -2.808413e+02
     vertex -3.272732e+02  4.704367e+02 -2.808413e+02
   endloop
 endfacet
 facet normal  0.000000e+00  0.000000e+00  1.000000e+00
   outer loop
     vertex -3.285684e+02  4.750067e+02 -2.808413e+02
     vertex -3.298188e+02  4.748109e+02 -2.808413e+02
     vertex -3.296549e+02  4.700637e+02 -2.808413e+02
   endloop
 endfacet
 facet normal  0.000000e+00  0.000000e+00  1.000000e+00
   outer loop
     vertex -3.348416e+02  4.780278e+02 -2.808413e+02
     vertex -3.392222e+02  4.761912e+02 -2.808413e+02
     vertex -3.380289e+02  4.740965e+02 -2.808413e+02
   endloop
 endfacet
 facet normal  0.000000e+00  0.000000e+00  1.000000e+00
   outer loop
     vertex -3.348416e+02  4.780278e+02 -2.808413e+02
     vertex -3.380289e+02  4.740965e+02 -2.808413e+02
     vertex -3.342151e+02  4.769281e+02 -2.808413e+02
   endloop
 endfacet
 facet normal  0.000000e+00  0.000000e+00  1.000000e+00
   outer loop
     vertex -3.274012e+02  4.754960e+02 -2.808413e+02
     vertex -3.272732e+02  4.704367e+02 -2.808413e+02
     vertex -3.250500e+02  4.713688e+02 -2.808413e+02
   endloop
 endfacet
 facet normal  0.000000e+00  0.000000e+00  1.000000e+00
   outer loop
     vertex -3.274012e+02  4.754960e+02 -2.808413e+02
     vertex -3.285684e+02  4.750067e+02 -2.808413e+02
     vertex -3.272732e+02  4.704367e+02 -2.808413e+02
   endloop
 endfacet
 facet normal  0.000000e+00  0.000000e+00  1.000000e+00
   outer loop
     vertex -3.351867e+02  4.792455e+02 -2.808413e+02
     vertex -3.398795e+02  4.785105e+02 -2.808413e+02
     vertex -3.392222e+02  4.761912e+02 -2.808413e+02
   endloop
 endfacet
 facet normal  0.000000e+00  0.000000e+00  1.000000e+00
   outer loop
     vertex -3.351867e+02  4.792455e+02 -2.808413e+02
     vertex -3.392222e+02  4.761912e+02 -2.808413e+02
     vertex -3.348416e+02  4.780278e+02 -2.808413e+02
   endloop
 endfacet
 facet normal  0.000000e+00  0.000000e+00  1.000000e+00
   outer loop
     vertex -3.263850e+02  4.762505e+02 -2.808413e+02
     vertex -3.250500e+02  4.713688e+02 -2.808413e+02
     vertex -3.231144e+02  4.728059e+02 -2.808413e+02
   endloop
 endfacet
 facet normal  0.000000e+00  0.000000e+00  1.000000e+00
   outer loop
     vertex -3.263850e+02  4.762505e+02 -2.808413e+02
     vertex -3.274012e+02  4.754960e+02 -2.808413e+02
     vertex -3.250500e+02  4.713688e+02 -2.808413e+02
   endloop
 endfacet
 facet normal  0.000000e+00  0.000000e+00  1.000000e+00
   outer loop
     vertex -3.352304e+02  4.805103e+02 -2.808413e+02
     vertex -3.399627e+02  4.809198e+02 -2.808413e+02
     vertex -3.398795e+02  4.785105e+02 -2.808413e+02
   endloop
 endfacet
 facet normal  0.000000e+00  0.000000e+00  1.000000e+00
   outer loop
     vertex -3.352304e+02  4.805103e+02 -2.808413e+02
     vertex -3.398795e+02  4.785105e+02 -2.808413e+02
     vertex -3.351867e+02  4.792455e+02 -2.808413e+02
   endloop
 endfacet
 facet normal  0.000000e+00  0.000000e+00  1.000000e+00
   outer loop
     vertex -3.255790e+02  4.772263e+02 -2.808413e+02
     vertex -3.231144e+02  4.728059e+02 -2.808413e+02
     vertex -3.215790e+02  4.746644e+02 -2.808413e+02
   endloop
 endfacet
 facet normal  0.000000e+00  0.000000e+00  1.000000e+00
   outer loop
     vertex -3.255790e+02  4.772263e+02 -2.808413e+02
     vertex -3.263850e+02  4.762505e+02 -2.808413e+02
     vertex -3.231144e+02  4.728059e+02 -2.808413e+02
   endloop
 endfacet
 facet normal  0.000000e+00  0.000000e+00  1.000000e+00
   outer loop
     vertex -3.349701e+02  4.817489e+02 -2.808413e+02
     vertex -3.394669e+02  4.832790e+02 -2.808413e+02
     vertex -3.399627e+02  4.809198e+02 -2.808413e+02
   endloop
 endfacet
 facet normal  0.000000e+00  0.000000e+00  1.000000e+00
   outer loop
     vertex -3.349701e+02  4.817489e+02 -2.808413e+02
     vertex -3.399627e+02  4.809198e+02 -2.808413e+02
     vertex -3.352304e+02  4.805103e+02 -2.808413e+02
   endloop
 endfacet
 facet normal  0.000000e+00  0.000000e+00  1.000000e+00
   outer loop
     vertex -3.205330e+02  4.768364e+02 -2.808413e+02
     vertex -3.255790e+02  4.772263e+02 -2.808413e+02
     vertex -3.215790e+02  4.746644e+02 -2.808413e+02
   endloop
 endfacet
 facet normal  0.000000e+00  0.000000e+00  1.000000e+00
   outer loop
     vertex -3.205330e+02  4.768364e+02 -2.808413e+02
     vertex -3.250298e+02  4.783666e+02 -2.808413e+02
     vertex -3.255790e+02  4.772263e+02 -2.808413e+02
   endloop
 endfacet
 facet normal  0.000000e+00  0.000000e+00  1.000000e+00
   outer loop
     vertex -3.344210e+02  4.828892e+02 -2.808413e+02
     vertex -3.394669e+02  4.832790e+02 -2.808413e+02
     vertex -3.349701e+02  4.817489e+02 -2.808413e+02
   endloop
 endfacet
 facet normal  0.000000e+00  0.000000e+00  1.000000e+00
   outer loop
     vertex -3.384209e+02  4.854510e+02 -2.808413e+02
     vertex -3.394669e+02  4.832790e+02 -2.808413e+02
     vertex -3.344210e+02  4.828892e+02 -2.808413e+02
   endloop
 endfacet
 facet normal  0.000000e+00  0.000000e+00  1.000000e+00
   outer loop
     vertex -3.200372e+02  4.791956e+02 -2.808413e+02
     vertex -3.250298e+02  4.783666e+02 -2.808413e+02
     vertex -3.205330e+02  4.768364e+02 -2.808413e+02
   endloop
 endfacet
 facet normal  0.000000e+00  0.000000e+00  1.000000e+00
   outer loop
     vertex -3.200372e+02  4.791956e+02 -2.808413e+02
     vertex -3.247695e+02  4.796051e+02 -2.808413e+02
     vertex -3.250298e+02  4.783666e+02 -2.808413e+02
   endloop
 endfacet
 facet normal  0.000000e+00  0.000000e+00  1.000000e+00
   outer loop
     vertex -3.368855e+02  4.873096e+02 -2.808413e+02
     vertex -3.384209e+02  4.854510e+02 -2.808413e+02
     vertex -3.344210e+02  4.828892e+02 -2.808413e+02
   endloop
 endfacet
 facet normal  0.000000e+00  0.000000e+00  1.000000e+00
   outer loop
     vertex -3.368855e+02  4.873096e+02 -2.808413e+02
     vertex -3.344210e+02  4.828892e+02 -2.808413e+02
     vertex -3.336149e+02  4.838649e+02 -2.808413e+02
   endloop
 endfacet
 facet normal  0.000000e+00  0.000000e+00  1.000000e+00
   outer loop
     vertex -3.368855e+02  4.873096e+02 -2.808413e+02
     vertex -3.336149e+02  4.838649e+02 -2.808413e+02
     vertex -3.325987e+02  4.846194e+02 -2.808413e+02
   endloop
 endfacet
 facet normal  0.000000e+00  0.000000e+00  1.000000e+00
   outer loop
     vertex -3.201204e+02  4.816049e+02 -2.808413e+02
     vertex -3.247695e+02  4.796051e+02 -2.808413e+02
     vertex -3.200372e+02  4.791956e+02 -2.808413e+02
   endloop
 endfacet
 facet normal  0.000000e+00  0.000000e+00  1.000000e+00
   outer loop
     vertex -3.201204e+02  4.816049e+02 -2.808413e+02
     vertex -3.248132e+02  4.808700e+02 -2.808413e+02
     vertex -3.247695e+02  4.796051e+02 -2.808413e+02
   endloop
 endfacet
 facet normal  0.000000e+00  0.000000e+00  1.000000e+00
   outer loop
     vertex -3.349500e+02  4.887467e+02 -2.808413e+02
     vertex -3.368855e+02  4.873096e+02 -2.808413e+02
     vertex -3.325987e+02  4.846194e+02 -2.808413e+02
   endloop
 endfacet
 facet normal  0.000000e+00  0.000000e+00  1.000000e+00
   outer loop
     vertex -3.207777e+02  4.839243e+02 -2.808413e+02
     vertex -3.257848e+02  4.831874e+02 -2.808413e+02
     vertex -3.251583e+02  4.820877e+02 -2.808413e+02
   endloop
 endfacet
 facet normal  0.000000e+00  0.000000e+00  1.000000e+00
   outer loop
     vertex -3.207777e+02  4.839243e+02 -2.808413e+02
     vertex -3.251583e+02  4.820877e+02 -2.808413e+02
     vertex -3.248132e+02  4.808700e+02 -2.808413e+02
   endloop
 endfacet
 facet normal  0.000000e+00  0.000000e+00  1.000000e+00
   outer loop
     vertex -3.207777e+02  4.839243e+02 -2.808413e+02
     vertex -3.248132e+02  4.808700e+02 -2.808413e+02
     vertex -3.201204e+02  4.816049e+02 -2.808413e+02
   endloop
 endfacet
 facet normal  0.000000e+00  0.000000e+00  1.000000e+00
   outer loop
     vertex -3.327267e+02  4.896788e+02 -2.808413e+02
     vertex -3.349500e+02  4.887467e+02 -2.808413e+02
     vertex -3.325987e+02  4.846194e+02 -2.808413e+02
   endloop
 endfacet
 facet normal  0.000000e+00  0.000000e+00  1.000000e+00
   outer loop
     vertex -3.327267e+02  4.896788e+02 -2.808413e+02
     vertex -3.325987e+02  4.846194e+02 -2.808413e+02
     vertex -3.314315e+02  4.851088e+02 -2.808413e+02
   endloop
 endfacet
 facet normal  0.000000e+00  0.000000e+00  1.000000e+00
   outer loop
     vertex -3.219710e+02  4.860190e+02 -2.808413e+02
     vertex -3.257848e+02  4.831874e+02 -2.808413e+02
     vertex -3.207777e+02  4.839243e+02 -2.808413e+02
   endloop
 endfacet
 facet normal  0.000000e+00  0.000000e+00  1.000000e+00
   outer loop
     vertex -3.303450e+02  4.900518e+02 -2.808413e+02
     vertex -3.314315e+02  4.851088e+02 -2.808413e+02
     vertex -3.301811e+02  4.853046e+02 -2.808413e+02
   endloop
 endfacet
 facet normal  0.000000e+00  0.000000e+00  1.000000e+00
   outer loop
     vertex -3.303450e+02  4.900518e+02 -2.808413e+02
     vertex -3.301811e+02  4.853046e+02 -2.808413e+02
     vertex -3.289202e+02  4.851955e+02 -2.808413e+02
   endloop
 endfacet
 facet normal  0.000000e+00  0.000000e+00  1.000000e+00
   outer loop
     vertex -3.303450e+02  4.900518e+02 -2.808413e+02
     vertex -3.327267e+02  4.896788e+02 -2.808413e+02
     vertex -3.314315e+02  4.851088e+02 -2.808413e+02
   endloop
 endfacet
 facet normal  0.000000e+00  0.000000e+00  1.000000e+00
   outer loop
     vertex -3.236310e+02  4.877672e+02 -2.808413e+02
     vertex -3.277220e+02  4.847878e+02 -2.808413e+02
     vertex -3.266562e+02  4.841052e+02 -2.808413e+02
   endloop
 endfacet
 facet normal  0.000000e+00  0.000000e+00  1.000000e+00
   outer loop
     vertex -3.236310e+02  4.877672e+02 -2.808413e+02
     vertex -3.266562e+02  4.841052e+02 -2.808413e+02
     vertex -3.257848e+02  4.831874e+02 -2.808413e+02
   endloop
 endfacet
 facet normal  0.000000e+00  0.000000e+00  1.000000e+00
   outer loop
     vertex -3.236310e+02  4.877672e+02 -2.808413e+02
     vertex -3.257848e+02  4.831874e+02 -2.808413e+02
     vertex -3.219710e+02  4.860190e+02 -2.808413e+02
   endloop
 endfacet
 facet normal  0.000000e+00  0.000000e+00  1.000000e+00
   outer loop
     vertex -3.279433e+02  4.898439e+02 -2.808413e+02
     vertex -3.303450e+02  4.900518e+02 -2.808413e+02
     vertex -3.289202e+02  4.851955e+02 -2.808413e+02
   endloop
 endfacet
 facet normal  0.000000e+00  0.000000e+00  1.000000e+00
   outer loop
     vertex -3.279433e+02  4.898439e+02 -2.808413e+02
     vertex -3.289202e+02  4.851955e+02 -2.808413e+02
     vertex -3.277220e+02  4.847878e+02 -2.808413e+02
   endloop
 endfacet
 facet normal  0.000000e+00  0.000000e+00  1.000000e+00
   outer loop
     vertex -3.256610e+02  4.890674e+02 -2.808413e+02
     vertex -3.277220e+02  4.847878e+02 -2.808413e+02
     vertex -3.236310e+02  4.877672e+02 -2.808413e+02
   endloop
 endfacet
 facet normal  0.000000e+00  0.000000e+00  1.000000e+00
   outer loop
     vertex -3.256610e+02  4.890674e+02 -2.808413e+02
     vertex -3.279433e+02  4.898439e+02 -2.808413e+02
     vertex -3.277220e+02  4.847878e+02 -2.808413e+02
   endloop
 endfacet
endsolid
