solid 
 facet normal -8.969920e-01 -4.420467e-01  6.373512e-14
   outer loop
     vertex  2.660161e+02 -2.765524e+02 -2.199646e+01
     vertex  2.664637e+02 -2.774606e+02 -2.119646e+01
     vertex  2.660161e+02 -2.765524e+02 -2.119646e+01
   endloop
 endfacet
 facet normal -9.767158e-01 -2.145374e-01  6.939983e-14
   outer loop
     vertex  2.664637e+02 -2.774606e+02 -2.199646e+01
     vertex  2.666809e+02 -2.784495e+02 -2.119646e+01
     vertex  2.664637e+02 -2.774606e+02 -2.119646e+01
   endloop
 endfacet
 facet normal -8.969920e-01 -4.420467e-01  6.373512e-14
   outer loop
     vertex  2.664637e+02 -2.774606e+02 -2.199646e+01
     vertex  2.664637e+02 -2.774606e+02 -2.119646e+01
     vertex  2.660161e+02 -2.765524e+02 -2.199646e+01
   endloop
 endfacet
 facet normal -9.996763e-01  2.544005e-02  0.000000e+00
   outer loop
     vertex  2.666809e+02 -2.784495e+02 -2.199646e+01
     vertex  2.666551e+02 -2.794617e+02 -2.119646e+01
     vertex  2.666809e+02 -2.784495e+02 -2.119646e+01
   endloop
 endfacet
 facet normal -9.767158e-01 -2.145374e-01  0.000000e+00
   outer loop
     vertex  2.666809e+02 -2.784495e+02 -2.199646e+01
     vertex  2.666809e+02 -2.784495e+02 -2.119646e+01
     vertex  2.664637e+02 -2.774606e+02 -2.199646e+01
   endloop
 endfacet
 facet normal -9.645394e-01  2.639390e-01  0.000000e+00
   outer loop
     vertex  2.666551e+02 -2.794617e+02 -2.199646e+01
     vertex  2.663879e+02 -2.804383e+02 -2.119646e+01
     vertex  2.666551e+02 -2.794617e+02 -2.119646e+01
   endloop
 endfacet
 facet normal -9.996763e-01  2.544005e-02  0.000000e+00
   outer loop
     vertex  2.666551e+02 -2.794617e+02 -2.199646e+01
     vertex  2.666551e+02 -2.794617e+02 -2.119646e+01
     vertex  2.666809e+02 -2.784495e+02 -2.199646e+01
   endloop
 endfacet
 facet normal -8.733469e-01  4.870988e-01  6.205503e-14
   outer loop
     vertex  2.663879e+02 -2.804383e+02 -2.199646e+01
     vertex  2.658947e+02 -2.813226e+02 -2.119646e+01
     vertex  2.663879e+02 -2.804383e+02 -2.119646e+01
   endloop
 endfacet
 facet normal -9.645394e-01  2.639390e-01  6.853464e-14
   outer loop
     vertex  2.663879e+02 -2.804383e+02 -2.199646e+01
     vertex  2.663879e+02 -2.804383e+02 -2.119646e+01
     vertex  2.666551e+02 -2.794617e+02 -2.199646e+01
   endloop
 endfacet
 facet normal -7.313986e-01  6.819502e-01  1.559070e-13
   outer loop
     vertex  2.658947e+02 -2.813226e+02 -2.199646e+01
     vertex  2.652042e+02 -2.820631e+02 -2.119646e+01
     vertex  2.658947e+02 -2.813226e+02 -2.119646e+01
   endloop
 endfacet
 facet normal -8.733469e-01  4.870988e-01  1.861651e-13
   outer loop
     vertex  2.658947e+02 -2.813226e+02 -2.199646e+01
     vertex  2.658947e+02 -2.813226e+02 -2.119646e+01
     vertex  2.663879e+02 -2.804383e+02 -2.199646e+01
   endloop
 endfacet
 facet normal -5.469441e-01  8.371691e-01  0.000000e+00
   outer loop
     vertex  2.652042e+02 -2.820631e+02 -2.199646e+01
     vertex  2.643566e+02 -2.826169e+02 -2.119646e+01
     vertex  2.652042e+02 -2.820631e+02 -2.119646e+01
   endloop
 endfacet
 facet normal -7.313986e-01  6.819502e-01  0.000000e+00
   outer loop
     vertex  2.652042e+02 -2.820631e+02 -2.199646e+01
     vertex  2.652042e+02 -2.820631e+02 -2.119646e+01
     vertex  2.658947e+02 -2.813226e+02 -2.199646e+01
   endloop
 endfacet
 facet normal -3.307033e-01  9.437348e-01  6.705639e-14
   outer loop
     vertex  2.643566e+02 -2.826169e+02 -2.199646e+01
     vertex  2.634011e+02 -2.829517e+02 -2.119646e+01
     vertex  2.643566e+02 -2.826169e+02 -2.119646e+01
   endloop
 endfacet
 facet normal -5.469441e-01  8.371691e-01  5.948444e-14
   outer loop
     vertex  2.643566e+02 -2.826169e+02 -2.199646e+01
     vertex  2.643566e+02 -2.826169e+02 -2.119646e+01
     vertex  2.652042e+02 -2.820631e+02 -2.199646e+01
   endloop
 endfacet
 facet normal -9.524310e-02  9.954540e-01 -4.366155e-14
   outer loop
     vertex  2.634011e+02 -2.829517e+02 -2.199646e+01
     vertex  2.623932e+02 -2.830482e+02 -2.119646e+01
     vertex  2.634011e+02 -2.829517e+02 -2.119646e+01
   endloop
 endfacet
 facet normal -3.307033e-01  9.437348e-01  2.693513e-14
   outer loop
     vertex  2.634011e+02 -2.829517e+02 -2.199646e+01
     vertex  2.634011e+02 -2.829517e+02 -2.119646e+01
     vertex  2.643566e+02 -2.826169e+02 -2.199646e+01
   endloop
 endfacet
 facet normal  1.457522e-01  9.893211e-01 -1.035632e-14
   outer loop
     vertex  2.623932e+02 -2.830482e+02 -2.199646e+01
     vertex  2.613915e+02 -2.829006e+02 -2.119646e+01
     vertex  2.623932e+02 -2.830482e+02 -2.119646e+01
   endloop
 endfacet
 facet normal -9.524310e-02  9.954540e-01  6.767429e-15
   outer loop
     vertex  2.623932e+02 -2.830482e+02 -2.199646e+01
     vertex  2.623932e+02 -2.830482e+02 -2.119646e+01
     vertex  2.634011e+02 -2.829517e+02 -2.199646e+01
   endloop
 endfacet
 facet normal  3.782770e-01  9.256925e-01  1.046706e-13
   outer loop
     vertex  2.613915e+02 -2.829006e+02 -2.199646e+01
     vertex  2.604542e+02 -2.825176e+02 -2.119646e+01
     vertex  2.613915e+02 -2.829006e+02 -2.119646e+01
   endloop
 endfacet
 facet normal  1.457522e-01  9.893211e-01  1.302347e-13
   outer loop
     vertex  2.613915e+02 -2.829006e+02 -2.199646e+01
     vertex  2.613915e+02 -2.829006e+02 -2.119646e+01
     vertex  2.623932e+02 -2.830482e+02 -2.199646e+01
   endloop
 endfacet
 facet normal  3.782770e-01  9.256925e-01 -0.000000e+00
   outer loop
     vertex  2.604542e+02 -2.825176e+02 -2.199646e+01
     vertex  2.604542e+02 -2.825176e+02 -2.119646e+01
     vertex  2.613915e+02 -2.829006e+02 -2.199646e+01
   endloop
 endfacet
 facet normal  5.888176e-01  8.082659e-01 -0.000000e+00
   outer loop
     vertex  2.604542e+02 -2.825176e+02 -2.199646e+01
     vertex  2.596358e+02 -2.819214e+02 -2.119646e+01
     vertex  2.604542e+02 -2.825176e+02 -2.119646e+01
   endloop
 endfacet
 facet normal  5.888176e-01  8.082659e-01 -1.255140e-13
   outer loop
     vertex  2.596358e+02 -2.819214e+02 -2.199646e+01
     vertex  2.596358e+02 -2.819214e+02 -2.119646e+01
     vertex  2.604542e+02 -2.825176e+02 -2.199646e+01
   endloop
 endfacet
 facet normal  7.651384e-01  6.438659e-01 -1.630991e-13
   outer loop
     vertex  2.596358e+02 -2.819214e+02 -2.199646e+01
     vertex  2.589839e+02 -2.811467e+02 -2.119646e+01
     vertex  2.596358e+02 -2.819214e+02 -2.119646e+01
   endloop
 endfacet
 facet normal  7.651384e-01  6.438659e-01 -5.436635e-14
   outer loop
     vertex  2.589839e+02 -2.811467e+02 -2.199646e+01
     vertex  2.589839e+02 -2.811467e+02 -2.119646e+01
     vertex  2.596358e+02 -2.819214e+02 -2.199646e+01
   endloop
 endfacet
 facet normal  8.969920e-01  4.420467e-01 -6.373512e-14
   outer loop
     vertex  2.589839e+02 -2.811467e+02 -2.199646e+01
     vertex  2.585363e+02 -2.802385e+02 -2.119646e+01
     vertex  2.589839e+02 -2.811467e+02 -2.119646e+01
   endloop
 endfacet
 facet normal  8.969920e-01  4.420467e-01  1.265537e-13
   outer loop
     vertex  2.585363e+02 -2.802385e+02 -2.199646e+01
     vertex  2.585363e+02 -2.802385e+02 -2.119646e+01
     vertex  2.589839e+02 -2.811467e+02 -2.199646e+01
   endloop
 endfacet
 facet normal  9.767158e-01  2.145374e-01  9.987499e-14
   outer loop
     vertex  2.583191e+02 -2.792496e+02 -2.199646e+01
     vertex  2.585363e+02 -2.802385e+02 -2.119646e+01
     vertex  2.585363e+02 -2.802385e+02 -2.199646e+01
   endloop
 endfacet
 facet normal  9.767158e-01  2.145374e-01  8.464363e-14
   outer loop
     vertex  2.583191e+02 -2.792496e+02 -2.199646e+01
     vertex  2.583191e+02 -2.792496e+02 -2.119646e+01
     vertex  2.585363e+02 -2.802385e+02 -2.119646e+01
   endloop
 endfacet
 facet normal  9.996763e-01 -2.544005e-02  6.922365e-14
   outer loop
     vertex  2.583191e+02 -2.792496e+02 -2.199646e+01
     vertex  2.583449e+02 -2.782374e+02 -2.119646e+01
     vertex  2.583191e+02 -2.792496e+02 -2.119646e+01
   endloop
 endfacet
 facet normal  9.996763e-01 -2.544005e-02  0.000000e+00
   outer loop
     vertex  2.583449e+02 -2.782374e+02 -2.199646e+01
     vertex  2.583449e+02 -2.782374e+02 -2.119646e+01
     vertex  2.583191e+02 -2.792496e+02 -2.199646e+01
   endloop
 endfacet
 facet normal  9.645394e-01 -2.639390e-01  0.000000e+00
   outer loop
     vertex  2.583449e+02 -2.782374e+02 -2.199646e+01
     vertex  2.586121e+02 -2.772608e+02 -2.119646e+01
     vertex  2.583449e+02 -2.782374e+02 -2.119646e+01
   endloop
 endfacet
 facet normal  9.645394e-01 -2.639390e-01  0.000000e+00
   outer loop
     vertex  2.586121e+02 -2.772608e+02 -2.199646e+01
     vertex  2.586121e+02 -2.772608e+02 -2.119646e+01
     vertex  2.583449e+02 -2.782374e+02 -2.199646e+01
   endloop
 endfacet
 facet normal  8.733469e-01 -4.870988e-01  0.000000e+00
   outer loop
     vertex  2.586121e+02 -2.772608e+02 -2.199646e+01
     vertex  2.591053e+02 -2.763765e+02 -2.119646e+01
     vertex  2.586121e+02 -2.772608e+02 -2.119646e+01
   endloop
 endfacet
 facet normal  8.733469e-01 -4.870988e-01 -6.205503e-14
   outer loop
     vertex  2.591053e+02 -2.763765e+02 -2.199646e+01
     vertex  2.591053e+02 -2.763765e+02 -2.119646e+01
     vertex  2.586121e+02 -2.772608e+02 -2.199646e+01
   endloop
 endfacet
 facet normal  7.313986e-01 -6.819502e-01 -5.196900e-14
   outer loop
     vertex  2.591053e+02 -2.763765e+02 -2.199646e+01
     vertex  2.597958e+02 -2.756360e+02 -2.119646e+01
     vertex  2.591053e+02 -2.763765e+02 -2.119646e+01
   endloop
 endfacet
 facet normal  7.313986e-01 -6.819502e-01  0.000000e+00
   outer loop
     vertex  2.597958e+02 -2.756360e+02 -2.199646e+01
     vertex  2.597958e+02 -2.756360e+02 -2.119646e+01
     vertex  2.591053e+02 -2.763765e+02 -2.199646e+01
   endloop
 endfacet
 facet normal  5.469441e-01 -8.371691e-01  0.000000e+00
   outer loop
     vertex  2.597958e+02 -2.756360e+02 -2.199646e+01
     vertex  2.606434e+02 -2.750822e+02 -2.119646e+01
     vertex  2.597958e+02 -2.756360e+02 -2.119646e+01
   endloop
 endfacet
 facet normal  5.469441e-01 -8.371691e-01 -3.886272e-14
   outer loop
     vertex  2.606434e+02 -2.750822e+02 -2.199646e+01
     vertex  2.606434e+02 -2.750822e+02 -2.119646e+01
     vertex  2.597958e+02 -2.756360e+02 -2.199646e+01
   endloop
 endfacet
 facet normal  3.307033e-01 -9.437348e-01 -2.349788e-14
   outer loop
     vertex  2.606434e+02 -2.750822e+02 -2.199646e+01
     vertex  2.615989e+02 -2.747473e+02 -2.119646e+01
     vertex  2.606434e+02 -2.750822e+02 -2.119646e+01
   endloop
 endfacet
 facet normal  3.307033e-01 -9.437348e-01 -2.349788e-14
   outer loop
     vertex  2.615989e+02 -2.747473e+02 -2.199646e+01
     vertex  2.615989e+02 -2.747473e+02 -2.119646e+01
     vertex  2.606434e+02 -2.750822e+02 -2.199646e+01
   endloop
 endfacet
 facet normal  9.524310e-02 -9.954540e-01 -6.774055e-15
   outer loop
     vertex  2.626068e+02 -2.746509e+02 -2.199646e+01
     vertex  2.615989e+02 -2.747473e+02 -2.119646e+01
     vertex  2.615989e+02 -2.747473e+02 -2.199646e+01
   endloop
 endfacet
 facet normal  9.524310e-02 -9.954540e-01  0.000000e+00
   outer loop
     vertex  2.626068e+02 -2.746509e+02 -2.199646e+01
     vertex  2.626068e+02 -2.746509e+02 -2.119646e+01
     vertex  2.615989e+02 -2.747473e+02 -2.119646e+01
   endloop
 endfacet
 facet normal -1.457522e-01 -9.893211e-01  0.000000e+00
   outer loop
     vertex  2.626068e+02 -2.746509e+02 -2.199646e+01
     vertex  2.636085e+02 -2.747985e+02 -2.119646e+01
     vertex  2.626068e+02 -2.746509e+02 -2.119646e+01
   endloop
 endfacet
 facet normal -1.457522e-01 -9.893211e-01 -2.071264e-14
   outer loop
     vertex  2.636085e+02 -2.747985e+02 -2.199646e+01
     vertex  2.636085e+02 -2.747985e+02 -2.119646e+01
     vertex  2.626068e+02 -2.746509e+02 -2.199646e+01
   endloop
 endfacet
 facet normal -3.782770e-01 -9.256925e-01 -5.375639e-14
   outer loop
     vertex  2.636085e+02 -2.747985e+02 -2.199646e+01
     vertex  2.645458e+02 -2.751815e+02 -2.119646e+01
     vertex  2.636085e+02 -2.747985e+02 -2.119646e+01
   endloop
 endfacet
 facet normal -3.782770e-01 -9.256925e-01  6.577441e-14
   outer loop
     vertex  2.645458e+02 -2.751815e+02 -2.199646e+01
     vertex  2.645458e+02 -2.751815e+02 -2.119646e+01
     vertex  2.636085e+02 -2.747985e+02 -2.199646e+01
   endloop
 endfacet
 facet normal -5.888176e-01 -8.082659e-01  4.183801e-14
   outer loop
     vertex  2.653642e+02 -2.757777e+02 -2.199646e+01
     vertex  2.653642e+02 -2.757777e+02 -2.119646e+01
     vertex  2.645458e+02 -2.751815e+02 -2.119646e+01
   endloop
 endfacet
 facet normal -7.651384e-01 -6.438659e-01  5.436635e-14
   outer loop
     vertex  2.653642e+02 -2.757777e+02 -2.199646e+01
     vertex  2.660161e+02 -2.765524e+02 -2.119646e+01
     vertex  2.653642e+02 -2.757777e+02 -2.119646e+01
   endloop
 endfacet
 facet normal -5.888176e-01 -8.082659e-01  5.746110e-14
   outer loop
     vertex  2.653642e+02 -2.757777e+02 -2.199646e+01
     vertex  2.645458e+02 -2.751815e+02 -2.119646e+01
     vertex  2.645458e+02 -2.751815e+02 -2.199646e+01
   endloop
 endfacet
 facet normal -7.651384e-01 -6.438659e-01  5.436635e-14
   outer loop
     vertex  2.660161e+02 -2.765524e+02 -2.199646e+01
     vertex  2.660161e+02 -2.765524e+02 -2.119646e+01
     vertex  2.653642e+02 -2.757777e+02 -2.199646e+01
   endloop
 endfacet
 facet normal  8.969920e-01  4.420467e-01 -3.642543e-17
   outer loop
     vertex  2.686343e+02 -2.767000e+02 -2.199646e+01
     vertex  2.679416e+02 -2.752944e+02 -2.199646e+01
     vertex  2.679416e+02 -2.752944e+02 -2.119646e+01
   endloop
 endfacet
 facet normal  8.969920e-01  4.420467e-01 -0.000000e+00
   outer loop
     vertex  2.686343e+02 -2.767000e+02 -2.199646e+01
     vertex  2.679416e+02 -2.752944e+02 -2.119646e+01
     vertex  2.686343e+02 -2.767000e+02 -2.119646e+01
   endloop
 endfacet
 facet normal  9.767158e-01  2.145374e-01  1.524380e-14
   outer loop
     vertex  2.689705e+02 -2.782305e+02 -2.199646e+01
     vertex  2.686343e+02 -2.767000e+02 -2.119646e+01
     vertex  2.689705e+02 -2.782305e+02 -2.119646e+01
   endloop
 endfacet
 facet normal  9.767158e-01  2.145374e-01 -3.212403e-17
   outer loop
     vertex  2.689705e+02 -2.782305e+02 -2.199646e+01
     vertex  2.686343e+02 -2.767000e+02 -2.199646e+01
     vertex  2.686343e+02 -2.767000e+02 -2.119646e+01
   endloop
 endfacet
 facet normal  9.996763e-01 -2.544005e-02  0.000000e+00
   outer loop
     vertex  2.689306e+02 -2.797969e+02 -2.199646e+01
     vertex  2.689705e+02 -2.782305e+02 -2.119646e+01
     vertex  2.689306e+02 -2.797969e+02 -2.119646e+01
   endloop
 endfacet
 facet normal  9.996763e-01 -2.544005e-02 -1.809390e-15
   outer loop
     vertex  2.689306e+02 -2.797969e+02 -2.199646e+01
     vertex  2.689705e+02 -2.782305e+02 -2.199646e+01
     vertex  2.689705e+02 -2.782305e+02 -2.119646e+01
   endloop
 endfacet
 facet normal  9.645394e-01 -2.639390e-01  0.000000e+00
   outer loop
     vertex  2.685170e+02 -2.813083e+02 -2.199646e+01
     vertex  2.689306e+02 -2.797969e+02 -2.119646e+01
     vertex  2.685170e+02 -2.813083e+02 -2.119646e+01
   endloop
 endfacet
 facet normal  9.645394e-01 -2.639390e-01 -1.697619e-17
   outer loop
     vertex  2.685170e+02 -2.813083e+02 -2.199646e+01
     vertex  2.689306e+02 -2.797969e+02 -2.199646e+01
     vertex  2.689306e+02 -2.797969e+02 -2.119646e+01
   endloop
 endfacet
 facet normal  8.733469e-01 -4.870988e-01  0.000000e+00
   outer loop
     vertex  2.677537e+02 -2.826768e+02 -2.199646e+01
     vertex  2.685170e+02 -2.813083e+02 -2.119646e+01
     vertex  2.677537e+02 -2.826768e+02 -2.119646e+01
   endloop
 endfacet
 facet normal  8.733469e-01 -4.870988e-01 -6.524292e-17
   outer loop
     vertex  2.677537e+02 -2.826768e+02 -2.199646e+01
     vertex  2.685170e+02 -2.813083e+02 -2.199646e+01
     vertex  2.685170e+02 -2.813083e+02 -2.119646e+01
   endloop
 endfacet
 facet normal  7.313986e-01 -6.819502e-01 -5.196900e-14
   outer loop
     vertex  2.666851e+02 -2.838229e+02 -2.199646e+01
     vertex  2.677537e+02 -2.826768e+02 -2.119646e+01
     vertex  2.666851e+02 -2.838229e+02 -2.119646e+01
   endloop
 endfacet
 facet normal  7.313986e-01 -6.819502e-01  1.033682e-17
   outer loop
     vertex  2.666851e+02 -2.838229e+02 -2.199646e+01
     vertex  2.677537e+02 -2.826768e+02 -2.199646e+01
     vertex  2.677537e+02 -2.826768e+02 -2.119646e+01
   endloop
 endfacet
 facet normal  5.469441e-01 -8.371691e-01  0.000000e+00
   outer loop
     vertex  2.653733e+02 -2.846800e+02 -2.199646e+01
     vertex  2.666851e+02 -2.838229e+02 -2.119646e+01
     vertex  2.653733e+02 -2.846800e+02 -2.119646e+01
   endloop
 endfacet
 facet normal  5.469441e-01 -8.371691e-01 -3.887742e-14
   outer loop
     vertex  2.653733e+02 -2.846800e+02 -2.199646e+01
     vertex  2.666851e+02 -2.838229e+02 -2.199646e+01
     vertex  2.666851e+02 -2.838229e+02 -2.119646e+01
   endloop
 endfacet
 facet normal  3.307033e-01 -9.437348e-01 -2.349788e-14
   outer loop
     vertex  2.638945e+02 -2.851982e+02 -2.199646e+01
     vertex  2.653733e+02 -2.846800e+02 -2.119646e+01
     vertex  2.638945e+02 -2.851982e+02 -2.119646e+01
   endloop
 endfacet
 facet normal  3.307033e-01 -9.437348e-01  2.613598e-17
   outer loop
     vertex  2.638945e+02 -2.851982e+02 -2.199646e+01
     vertex  2.653733e+02 -2.846800e+02 -2.199646e+01
     vertex  2.653733e+02 -2.846800e+02 -2.119646e+01
   endloop
 endfacet
 facet normal  9.524310e-02 -9.954540e-01  0.000000e+00
   outer loop
     vertex  2.623346e+02 -2.853474e+02 -2.199646e+01
     vertex  2.638945e+02 -2.851982e+02 -2.119646e+01
     vertex  2.623346e+02 -2.853474e+02 -2.119646e+01
   endloop
 endfacet
 facet normal  9.524310e-02 -9.954540e-01 -6.758488e-15
   outer loop
     vertex  2.623346e+02 -2.853474e+02 -2.199646e+01
     vertex  2.638945e+02 -2.851982e+02 -2.199646e+01
     vertex  2.638945e+02 -2.851982e+02 -2.119646e+01
   endloop
 endfacet
 facet normal -1.457522e-01 -9.893211e-01  0.000000e+00
   outer loop
     vertex  2.607844e+02 -2.851190e+02 -2.199646e+01
     vertex  2.623346e+02 -2.853474e+02 -2.119646e+01
     vertex  2.607844e+02 -2.851190e+02 -2.119646e+01
   endloop
 endfacet
 facet normal -1.457522e-01 -9.893211e-01 -7.922940e-18
   outer loop
     vertex  2.607844e+02 -2.851190e+02 -2.199646e+01
     vertex  2.623346e+02 -2.853474e+02 -2.199646e+01
     vertex  2.623346e+02 -2.853474e+02 -2.119646e+01
   endloop
 endfacet
 facet normal -3.782770e-01 -9.256925e-01 -1.499043e-17
   outer loop
     vertex  2.593339e+02 -2.845263e+02 -2.199646e+01
     vertex  2.607844e+02 -2.851190e+02 -2.199646e+01
     vertex  2.607844e+02 -2.851190e+02 -2.119646e+01
   endloop
 endfacet
 facet normal -3.782770e-01 -9.256925e-01  2.687820e-14
   outer loop
     vertex  2.593339e+02 -2.845263e+02 -2.199646e+01
     vertex  2.607844e+02 -2.851190e+02 -2.119646e+01
     vertex  2.593339e+02 -2.845263e+02 -2.119646e+01
   endloop
 endfacet
 facet normal -5.888176e-01 -8.082659e-01  4.183798e-14
   outer loop
     vertex  2.580673e+02 -2.836036e+02 -2.199646e+01
     vertex  2.593339e+02 -2.845263e+02 -2.199646e+01
     vertex  2.593339e+02 -2.845263e+02 -2.119646e+01
   endloop
 endfacet
 facet normal -5.888176e-01 -8.082659e-01  0.000000e+00
   outer loop
     vertex  2.580673e+02 -2.836036e+02 -2.199646e+01
     vertex  2.593339e+02 -2.845263e+02 -2.119646e+01
     vertex  2.580673e+02 -2.836036e+02 -2.119646e+01
   endloop
 endfacet
 facet normal -7.651384e-01 -6.438659e-01  6.680873e-17
   outer loop
     vertex  2.570584e+02 -2.824047e+02 -2.199646e+01
     vertex  2.580673e+02 -2.836036e+02 -2.199646e+01
     vertex  2.580673e+02 -2.836036e+02 -2.119646e+01
   endloop
 endfacet
 facet normal -7.651384e-01 -6.438659e-01  0.000000e+00
   outer loop
     vertex  2.570584e+02 -2.824047e+02 -2.199646e+01
     vertex  2.580673e+02 -2.836036e+02 -2.119646e+01
     vertex  2.570584e+02 -2.824047e+02 -2.119646e+01
   endloop
 endfacet
 facet normal -8.969920e-01 -4.420467e-01 -9.916697e-18
   outer loop
     vertex  2.563657e+02 -2.809991e+02 -2.199646e+01
     vertex  2.570584e+02 -2.824047e+02 -2.199646e+01
     vertex  2.570584e+02 -2.824047e+02 -2.119646e+01
   endloop
 endfacet
 facet normal -8.969920e-01 -4.420467e-01  3.140931e-14
   outer loop
     vertex  2.563657e+02 -2.809991e+02 -2.199646e+01
     vertex  2.570584e+02 -2.824047e+02 -2.119646e+01
     vertex  2.563657e+02 -2.809991e+02 -2.119646e+01
   endloop
 endfacet
 facet normal -9.767158e-01 -2.145374e-01  1.524609e-14
   outer loop
     vertex  2.560295e+02 -2.794686e+02 -2.199646e+01
     vertex  2.563657e+02 -2.809991e+02 -2.199646e+01
     vertex  2.563657e+02 -2.809991e+02 -2.119646e+01
   endloop
 endfacet
 facet normal -9.767158e-01 -2.145374e-01  0.000000e+00
   outer loop
     vertex  2.560295e+02 -2.794686e+02 -2.199646e+01
     vertex  2.563657e+02 -2.809991e+02 -2.119646e+01
     vertex  2.560295e+02 -2.794686e+02 -2.119646e+01
   endloop
 endfacet
 facet normal -9.996763e-01  2.544005e-02 -1.765645e-18
   outer loop
     vertex  2.560694e+02 -2.779021e+02 -2.199646e+01
     vertex  2.560295e+02 -2.794686e+02 -2.199646e+01
     vertex  2.560295e+02 -2.794686e+02 -2.119646e+01
   endloop
 endfacet
 facet normal -9.996763e-01  2.544005e-02  0.000000e+00
   outer loop
     vertex  2.560694e+02 -2.779021e+02 -2.199646e+01
     vertex  2.560295e+02 -2.794686e+02 -2.119646e+01
     vertex  2.560694e+02 -2.779021e+02 -2.119646e+01
   endloop
 endfacet
 facet normal -9.645394e-01  2.639390e-01  4.615437e-18
   outer loop
     vertex  2.564830e+02 -2.763907e+02 -2.199646e+01
     vertex  2.560694e+02 -2.779021e+02 -2.199646e+01
     vertex  2.560694e+02 -2.779021e+02 -2.119646e+01
   endloop
 endfacet
 facet normal -9.645394e-01  2.639390e-01  0.000000e+00
   outer loop
     vertex  2.564830e+02 -2.763907e+02 -2.199646e+01
     vertex  2.560694e+02 -2.779021e+02 -2.119646e+01
     vertex  2.564830e+02 -2.763907e+02 -2.119646e+01
   endloop
 endfacet
 facet normal -8.733469e-01  4.870988e-01  5.214317e-18
   outer loop
     vertex  2.572463e+02 -2.750222e+02 -2.199646e+01
     vertex  2.564830e+02 -2.763907e+02 -2.199646e+01
     vertex  2.564830e+02 -2.763907e+02 -2.119646e+01
   endloop
 endfacet
 facet normal -7.313986e-01  6.819502e-01  0.000000e+00
   outer loop
     vertex  2.572463e+02 -2.750222e+02 -2.199646e+01
     vertex  2.572463e+02 -2.750222e+02 -2.119646e+01
     vertex  2.583149e+02 -2.738761e+02 -2.119646e+01
   endloop
 endfacet
 facet normal -8.733469e-01  4.870988e-01  0.000000e+00
   outer loop
     vertex  2.572463e+02 -2.750222e+02 -2.199646e+01
     vertex  2.564830e+02 -2.763907e+02 -2.119646e+01
     vertex  2.572463e+02 -2.750222e+02 -2.119646e+01
   endloop
 endfacet
 facet normal -7.313986e-01  6.819502e-01 -1.004245e-13
   outer loop
     vertex  2.583149e+02 -2.738761e+02 -2.199646e+01
     vertex  2.572463e+02 -2.750222e+02 -2.199646e+01
     vertex  2.583149e+02 -2.738761e+02 -2.119646e+01
   endloop
 endfacet
 facet normal -3.307033e-01  9.437348e-01  2.349788e-14
   outer loop
     vertex  2.596267e+02 -2.730191e+02 -2.199646e+01
     vertex  2.596267e+02 -2.730191e+02 -2.119646e+01
     vertex  2.611055e+02 -2.725009e+02 -2.119646e+01
   endloop
 endfacet
 facet normal -5.469441e-01  8.371691e-01  3.886272e-14
   outer loop
     vertex  2.596267e+02 -2.730191e+02 -2.199646e+01
     vertex  2.583149e+02 -2.738761e+02 -2.119646e+01
     vertex  2.596267e+02 -2.730191e+02 -2.119646e+01
   endloop
 endfacet
 facet normal -5.469441e-01  8.371691e-01 -9.838530e-14
   outer loop
     vertex  2.596267e+02 -2.730191e+02 -2.199646e+01
     vertex  2.583149e+02 -2.738761e+02 -2.199646e+01
     vertex  2.583149e+02 -2.738761e+02 -2.119646e+01
   endloop
 endfacet
 facet normal -3.307033e-01  9.437348e-01  2.349788e-14
   outer loop
     vertex  2.611055e+02 -2.725009e+02 -2.199646e+01
     vertex  2.596267e+02 -2.730191e+02 -2.199646e+01
     vertex  2.611055e+02 -2.725009e+02 -2.119646e+01
   endloop
 endfacet
 facet normal -9.524310e-02  9.954540e-01  0.000000e+00
   outer loop
     vertex  2.626654e+02 -2.723516e+02 -2.199646e+01
     vertex  2.611055e+02 -2.725009e+02 -2.119646e+01
     vertex  2.626654e+02 -2.723516e+02 -2.119646e+01
   endloop
 endfacet
 facet normal -9.524310e-02  9.954540e-01  6.774792e-15
   outer loop
     vertex  2.626654e+02 -2.723516e+02 -2.199646e+01
     vertex  2.611055e+02 -2.725009e+02 -2.199646e+01
     vertex  2.611055e+02 -2.725009e+02 -2.119646e+01
   endloop
 endfacet
 facet normal  3.782770e-01  9.256925e-01  6.577441e-14
   outer loop
     vertex  2.642156e+02 -2.725800e+02 -2.199646e+01
     vertex  2.642156e+02 -2.725800e+02 -2.119646e+01
     vertex  2.656661e+02 -2.731728e+02 -2.119646e+01
   endloop
 endfacet
 facet normal  1.457522e-01  9.893211e-01  7.029549e-14
   outer loop
     vertex  2.642156e+02 -2.725800e+02 -2.199646e+01
     vertex  2.626654e+02 -2.723516e+02 -2.119646e+01
     vertex  2.642156e+02 -2.725800e+02 -2.119646e+01
   endloop
 endfacet
 facet normal  1.457522e-01  9.893211e-01 -2.213205e-17
   outer loop
     vertex  2.642156e+02 -2.725800e+02 -2.199646e+01
     vertex  2.626654e+02 -2.723516e+02 -2.199646e+01
     vertex  2.626654e+02 -2.723516e+02 -2.119646e+01
   endloop
 endfacet
 facet normal  3.782770e-01  9.256925e-01 -2.687820e-14
   outer loop
     vertex  2.656661e+02 -2.731728e+02 -2.199646e+01
     vertex  2.642156e+02 -2.725800e+02 -2.199646e+01
     vertex  2.656661e+02 -2.731728e+02 -2.119646e+01
   endloop
 endfacet
 facet normal  5.888176e-01  8.082659e-01 -0.000000e+00
   outer loop
     vertex  2.669327e+02 -2.740954e+02 -2.199646e+01
     vertex  2.656661e+02 -2.731728e+02 -2.119646e+01
     vertex  2.669327e+02 -2.740954e+02 -2.119646e+01
   endloop
 endfacet
 facet normal  5.888176e-01  8.082659e-01 -4.180228e-14
   outer loop
     vertex  2.669327e+02 -2.740954e+02 -2.199646e+01
     vertex  2.656661e+02 -2.731728e+02 -2.199646e+01
     vertex  2.656661e+02 -2.731728e+02 -2.119646e+01
   endloop
 endfacet
 facet normal  7.651384e-01  6.438659e-01 -0.000000e+00
   outer loop
     vertex  2.679416e+02 -2.752944e+02 -2.199646e+01
     vertex  2.669327e+02 -2.740954e+02 -2.119646e+01
     vertex  2.679416e+02 -2.752944e+02 -2.119646e+01
   endloop
 endfacet
 facet normal  7.651384e-01  6.438659e-01 -7.544144e-18
   outer loop
     vertex  2.679416e+02 -2.752944e+02 -2.199646e+01
     vertex  2.669327e+02 -2.740954e+02 -2.199646e+01
     vertex  2.669327e+02 -2.740954e+02 -2.119646e+01
   endloop
 endfacet
 facet normal -2.299961e-14  2.853275e-15 -1.000000e+00
   outer loop
     vertex  2.583449e+02 -2.782374e+02 -2.199646e+01
     vertex  2.560295e+02 -2.794686e+02 -2.199646e+01
     vertex  2.560694e+02 -2.779021e+02 -2.199646e+01
   endloop
 endfacet
 facet normal -2.337634e-14  4.046167e-15 -1.000000e+00
   outer loop
     vertex  2.586121e+02 -2.772608e+02 -2.199646e+01
     vertex  2.560694e+02 -2.779021e+02 -2.199646e+01
     vertex  2.564830e+02 -2.763907e+02 -2.199646e+01
   endloop
 endfacet
 facet normal -2.302757e-14  2.663499e-15 -1.000000e+00
   outer loop
     vertex  2.586121e+02 -2.772608e+02 -2.199646e+01
     vertex  2.583449e+02 -2.782374e+02 -2.199646e+01
     vertex  2.560694e+02 -2.779021e+02 -2.199646e+01
   endloop
 endfacet
 facet normal -2.540399e-14  6.026418e-15 -1.000000e+00
   outer loop
     vertex  2.583191e+02 -2.792496e+02 -2.199646e+01
     vertex  2.563657e+02 -2.809991e+02 -2.199646e+01
     vertex  2.560295e+02 -2.794686e+02 -2.199646e+01
   endloop
 endfacet
 facet normal -2.556128e-14  7.670413e-15 -1.000000e+00
   outer loop
     vertex  2.583191e+02 -2.792496e+02 -2.199646e+01
     vertex  2.560295e+02 -2.794686e+02 -2.199646e+01
     vertex  2.583449e+02 -2.782374e+02 -2.199646e+01
   endloop
 endfacet
 facet normal -2.305942e-14  5.073004e-15 -1.000000e+00
   outer loop
     vertex  2.591053e+02 -2.763765e+02 -2.199646e+01
     vertex  2.564830e+02 -2.763907e+02 -2.199646e+01
     vertex  2.572463e+02 -2.750222e+02 -2.199646e+01
   endloop
 endfacet
 facet normal -2.305807e-14  4.825011e-15 -1.000000e+00
   outer loop
     vertex  2.591053e+02 -2.763765e+02 -2.199646e+01
     vertex  2.586121e+02 -2.772608e+02 -2.199646e+01
     vertex  2.564830e+02 -2.763907e+02 -2.199646e+01
   endloop
 endfacet
 facet normal -2.209485e-14  2.331771e-15 -1.000000e+00
   outer loop
     vertex  2.585363e+02 -2.802385e+02 -2.199646e+01
     vertex  2.563657e+02 -2.809991e+02 -2.199646e+01
     vertex  2.583191e+02 -2.792496e+02 -2.199646e+01
   endloop
 endfacet
 facet normal -2.414167e-14  3.910275e-15 -1.000000e+00
   outer loop
     vertex  2.597958e+02 -2.756360e+02 -2.199646e+01
     vertex  2.572463e+02 -2.750222e+02 -2.199646e+01
     vertex  2.583149e+02 -2.738761e+02 -2.199646e+01
   endloop
 endfacet
 facet normal -2.425775e-14  3.428059e-15 -1.000000e+00
   outer loop
     vertex  2.597958e+02 -2.756360e+02 -2.199646e+01
     vertex  2.591053e+02 -2.763765e+02 -2.199646e+01
     vertex  2.572463e+02 -2.750222e+02 -2.199646e+01
   endloop
 endfacet
 facet normal -2.284792e-14  3.905940e-15 -1.000000e+00
   outer loop
     vertex  2.589839e+02 -2.811467e+02 -2.199646e+01
     vertex  2.570584e+02 -2.824047e+02 -2.199646e+01
     vertex  2.563657e+02 -2.809991e+02 -2.199646e+01
   endloop
 endfacet
 facet normal -2.282000e-14  4.401146e-15 -1.000000e+00
   outer loop
     vertex  2.589839e+02 -2.811467e+02 -2.199646e+01
     vertex  2.563657e+02 -2.809991e+02 -2.199646e+01
     vertex  2.585363e+02 -2.802385e+02 -2.199646e+01
   endloop
 endfacet
 facet normal -2.285090e-14  5.959266e-15 -1.000000e+00
   outer loop
     vertex  2.606434e+02 -2.750822e+02 -2.199646e+01
     vertex  2.583149e+02 -2.738761e+02 -2.199646e+01
     vertex  2.596267e+02 -2.730191e+02 -2.199646e+01
   endloop
 endfacet
 facet normal -2.373484e-14  4.252624e-15 -1.000000e+00
   outer loop
     vertex  2.606434e+02 -2.750822e+02 -2.199646e+01
     vertex  2.597958e+02 -2.756360e+02 -2.199646e+01
     vertex  2.583149e+02 -2.738761e+02 -2.199646e+01
   endloop
 endfacet
 facet normal -2.455839e-14  6.002652e-15 -1.000000e+00
   outer loop
     vertex  2.596358e+02 -2.819214e+02 -2.199646e+01
     vertex  2.580673e+02 -2.836036e+02 -2.199646e+01
     vertex  2.570584e+02 -2.824047e+02 -2.199646e+01
   endloop
 endfacet
 facet normal -2.469549e-14  6.733897e-15 -1.000000e+00
   outer loop
     vertex  2.596358e+02 -2.819214e+02 -2.199646e+01
     vertex  2.570584e+02 -2.824047e+02 -2.199646e+01
     vertex  2.589839e+02 -2.811467e+02 -2.199646e+01
   endloop
 endfacet
 facet normal -2.367845e-14  5.869356e-15 -1.000000e+00
   outer loop
     vertex  2.615989e+02 -2.747473e+02 -2.199646e+01
     vertex  2.596267e+02 -2.730191e+02 -2.199646e+01
     vertex  2.611055e+02 -2.725009e+02 -2.199646e+01
   endloop
 endfacet
 facet normal -2.416878e-14  5.309803e-15 -1.000000e+00
   outer loop
     vertex  2.615989e+02 -2.747473e+02 -2.199646e+01
     vertex  2.606434e+02 -2.750822e+02 -2.199646e+01
     vertex  2.596267e+02 -2.730191e+02 -2.199646e+01
   endloop
 endfacet
 facet normal -2.253269e-14  3.724012e-15 -1.000000e+00
   outer loop
     vertex  2.604542e+02 -2.825176e+02 -2.199646e+01
     vertex  2.593339e+02 -2.845263e+02 -2.199646e+01
     vertex  2.580673e+02 -2.836036e+02 -2.199646e+01
   endloop
 endfacet
 facet normal -2.284081e-14  4.401197e-15 -1.000000e+00
   outer loop
     vertex  2.604542e+02 -2.825176e+02 -2.199646e+01
     vertex  2.580673e+02 -2.836036e+02 -2.199646e+01
     vertex  2.596358e+02 -2.819214e+02 -2.199646e+01
   endloop
 endfacet
 facet normal -2.557525e-14  5.452723e-15 -1.000000e+00
   outer loop
     vertex  2.626654e+02 -2.723516e+02 -2.199646e+01
     vertex  2.615989e+02 -2.747473e+02 -2.199646e+01
     vertex  2.611055e+02 -2.725009e+02 -2.199646e+01
   endloop
 endfacet
 facet normal -2.149711e-14  3.637381e-15 -1.000000e+00
   outer loop
     vertex  2.626068e+02 -2.746509e+02 -2.199646e+01
     vertex  2.615989e+02 -2.747473e+02 -2.199646e+01
     vertex  2.626654e+02 -2.723516e+02 -2.199646e+01
   endloop
 endfacet
 facet normal -2.482055e-14  5.190513e-15 -1.000000e+00
   outer loop
     vertex  2.613915e+02 -2.829006e+02 -2.199646e+01
     vertex  2.607844e+02 -2.851190e+02 -2.199646e+01
     vertex  2.593339e+02 -2.845263e+02 -2.199646e+01
   endloop
 endfacet
 facet normal -2.455150e-14  4.849981e-15 -1.000000e+00
   outer loop
     vertex  2.613915e+02 -2.829006e+02 -2.199646e+01
     vertex  2.593339e+02 -2.845263e+02 -2.199646e+01
     vertex  2.604542e+02 -2.825176e+02 -2.199646e+01
   endloop
 endfacet
 facet normal -2.409159e-14  4.991038e-15 -1.000000e+00
   outer loop
     vertex  2.642156e+02 -2.725800e+02 -2.199646e+01
     vertex  2.636085e+02 -2.747985e+02 -2.199646e+01
     vertex  2.626068e+02 -2.746509e+02 -2.199646e+01
   endloop
 endfacet
 facet normal -2.237795e-14  3.659797e-15 -1.000000e+00
   outer loop
     vertex  2.642156e+02 -2.725800e+02 -2.199646e+01
     vertex  2.626068e+02 -2.746509e+02 -2.199646e+01
     vertex  2.626654e+02 -2.723516e+02 -2.199646e+01
   endloop
 endfacet
 facet normal -2.409159e-14  4.991038e-15 -1.000000e+00
   outer loop
     vertex  2.623932e+02 -2.830482e+02 -2.199646e+01
     vertex  2.607844e+02 -2.851190e+02 -2.199646e+01
     vertex  2.613915e+02 -2.829006e+02 -2.199646e+01
   endloop
 endfacet
 facet normal -2.237795e-14  3.659797e-15 -1.000000e+00
   outer loop
     vertex  2.623346e+02 -2.853474e+02 -2.199646e+01
     vertex  2.607844e+02 -2.851190e+02 -2.199646e+01
     vertex  2.623932e+02 -2.830482e+02 -2.199646e+01
   endloop
 endfacet
 facet normal -2.482055e-14  5.190513e-15 -1.000000e+00
   outer loop
     vertex  2.656661e+02 -2.731728e+02 -2.199646e+01
     vertex  2.636085e+02 -2.747985e+02 -2.199646e+01
     vertex  2.642156e+02 -2.725800e+02 -2.199646e+01
   endloop
 endfacet
 facet normal -2.455150e-14  4.849981e-15 -1.000000e+00
   outer loop
     vertex  2.656661e+02 -2.731728e+02 -2.199646e+01
     vertex  2.645458e+02 -2.751815e+02 -2.199646e+01
     vertex  2.636085e+02 -2.747985e+02 -2.199646e+01
   endloop
 endfacet
 facet normal -2.175116e-14  6.292689e-15 -1.000000e+00
   outer loop
     vertex  2.638945e+02 -2.851982e+02 -2.199646e+01
     vertex  2.623932e+02 -2.830482e+02 -2.199646e+01
     vertex  2.634011e+02 -2.829517e+02 -2.199646e+01
   endloop
 endfacet
 facet normal -2.541109e-14  3.736985e-15 -1.000000e+00
   outer loop
     vertex  2.638945e+02 -2.851982e+02 -2.199646e+01
     vertex  2.623346e+02 -2.853474e+02 -2.199646e+01
     vertex  2.623932e+02 -2.830482e+02 -2.199646e+01
   endloop
 endfacet
 facet normal -2.253269e-14  3.724012e-15 -1.000000e+00
   outer loop
     vertex  2.669327e+02 -2.740954e+02 -2.199646e+01
     vertex  2.645458e+02 -2.751815e+02 -2.199646e+01
     vertex  2.656661e+02 -2.731728e+02 -2.199646e+01
   endloop
 endfacet
 facet normal -2.284081e-14  4.401197e-15 -1.000000e+00
   outer loop
     vertex  2.669327e+02 -2.740954e+02 -2.199646e+01
     vertex  2.653642e+02 -2.757777e+02 -2.199646e+01
     vertex  2.645458e+02 -2.751815e+02 -2.199646e+01
   endloop
 endfacet
 facet normal -2.367845e-14  5.869356e-15 -1.000000e+00
   outer loop
     vertex  2.653733e+02 -2.846800e+02 -2.199646e+01
     vertex  2.638945e+02 -2.851982e+02 -2.199646e+01
     vertex  2.634011e+02 -2.829517e+02 -2.199646e+01
   endloop
 endfacet
 facet normal -2.416878e-14  5.309803e-15 -1.000000e+00
   outer loop
     vertex  2.653733e+02 -2.846800e+02 -2.199646e+01
     vertex  2.634011e+02 -2.829517e+02 -2.199646e+01
     vertex  2.643566e+02 -2.826169e+02 -2.199646e+01
   endloop
 endfacet
 facet normal -2.436299e-14  5.214095e-15 -1.000000e+00
   outer loop
     vertex  2.653733e+02 -2.846800e+02 -2.199646e+01
     vertex  2.643566e+02 -2.826169e+02 -2.199646e+01
     vertex  2.652042e+02 -2.820631e+02 -2.199646e+01
   endloop
 endfacet
 facet normal -2.469549e-14  6.733897e-15 -1.000000e+00
   outer loop
     vertex  2.679416e+02 -2.752944e+02 -2.199646e+01
     vertex  2.660161e+02 -2.765524e+02 -2.199646e+01
     vertex  2.653642e+02 -2.757777e+02 -2.199646e+01
   endloop
 endfacet
 facet normal -2.455839e-14  6.002652e-15 -1.000000e+00
   outer loop
     vertex  2.679416e+02 -2.752944e+02 -2.199646e+01
     vertex  2.653642e+02 -2.757777e+02 -2.199646e+01
     vertex  2.669327e+02 -2.740954e+02 -2.199646e+01
   endloop
 endfacet
 facet normal -2.244502e-14  5.338008e-15 -1.000000e+00
   outer loop
     vertex  2.666851e+02 -2.838229e+02 -2.199646e+01
     vertex  2.653733e+02 -2.846800e+02 -2.199646e+01
     vertex  2.652042e+02 -2.820631e+02 -2.199646e+01
   endloop
 endfacet
 facet normal -2.284792e-14  3.905940e-15 -1.000000e+00
   outer loop
     vertex  2.686343e+02 -2.767000e+02 -2.199646e+01
     vertex  2.660161e+02 -2.765524e+02 -2.199646e+01
     vertex  2.679416e+02 -2.752944e+02 -2.199646e+01
   endloop
 endfacet
 facet normal -2.209485e-14  2.331771e-15 -1.000000e+00
   outer loop
     vertex  2.686343e+02 -2.767000e+02 -2.199646e+01
     vertex  2.666809e+02 -2.784495e+02 -2.199646e+01
     vertex  2.664637e+02 -2.774606e+02 -2.199646e+01
   endloop
 endfacet
 facet normal -2.282000e-14  4.401146e-15 -1.000000e+00
   outer loop
     vertex  2.686343e+02 -2.767000e+02 -2.199646e+01
     vertex  2.664637e+02 -2.774606e+02 -2.199646e+01
     vertex  2.660161e+02 -2.765524e+02 -2.199646e+01
   endloop
 endfacet
 facet normal -2.414167e-14  3.910275e-15 -1.000000e+00
   outer loop
     vertex  2.677537e+02 -2.826768e+02 -2.199646e+01
     vertex  2.666851e+02 -2.838229e+02 -2.199646e+01
     vertex  2.652042e+02 -2.820631e+02 -2.199646e+01
   endloop
 endfacet
 facet normal -2.425775e-14  3.428059e-15 -1.000000e+00
   outer loop
     vertex  2.677537e+02 -2.826768e+02 -2.199646e+01
     vertex  2.652042e+02 -2.820631e+02 -2.199646e+01
     vertex  2.658947e+02 -2.813226e+02 -2.199646e+01
   endloop
 endfacet
 facet normal -2.540399e-14  6.026418e-15 -1.000000e+00
   outer loop
     vertex  2.689705e+02 -2.782305e+02 -2.199646e+01
     vertex  2.666809e+02 -2.784495e+02 -2.199646e+01
     vertex  2.686343e+02 -2.767000e+02 -2.199646e+01
   endloop
 endfacet
 facet normal -2.305807e-14  4.825011e-15 -1.000000e+00
   outer loop
     vertex  2.685170e+02 -2.813083e+02 -2.199646e+01
     vertex  2.658947e+02 -2.813226e+02 -2.199646e+01
     vertex  2.663879e+02 -2.804383e+02 -2.199646e+01
   endloop
 endfacet
 facet normal -2.305942e-14  5.073004e-15 -1.000000e+00
   outer loop
     vertex  2.685170e+02 -2.813083e+02 -2.199646e+01
     vertex  2.677537e+02 -2.826768e+02 -2.199646e+01
     vertex  2.658947e+02 -2.813226e+02 -2.199646e+01
   endloop
 endfacet
 facet normal -2.302757e-14  2.663499e-15 -1.000000e+00
   outer loop
     vertex  2.689306e+02 -2.797969e+02 -2.199646e+01
     vertex  2.663879e+02 -2.804383e+02 -2.199646e+01
     vertex  2.666551e+02 -2.794617e+02 -2.199646e+01
   endloop
 endfacet
 facet normal -2.230214e-14  7.587473e-15 -1.000000e+00
   outer loop
     vertex  2.689306e+02 -2.797969e+02 -2.199646e+01
     vertex  2.666551e+02 -2.794617e+02 -2.199646e+01
     vertex  2.666809e+02 -2.784495e+02 -2.199646e+01
   endloop
 endfacet
 facet normal -2.337634e-14  4.046167e-15 -1.000000e+00
   outer loop
     vertex  2.689306e+02 -2.797969e+02 -2.199646e+01
     vertex  2.685170e+02 -2.813083e+02 -2.199646e+01
     vertex  2.663879e+02 -2.804383e+02 -2.199646e+01
   endloop
 endfacet
 facet normal -2.510552e-14  2.906867e-15 -1.000000e+00
   outer loop
     vertex  2.689306e+02 -2.797969e+02 -2.199646e+01
     vertex  2.666809e+02 -2.784495e+02 -2.199646e+01
     vertex  2.689705e+02 -2.782305e+02 -2.199646e+01
   endloop
 endfacet
 facet normal  2.266673e-14 -5.112779e-15  1.000000e+00
   outer loop
     vertex  2.583449e+02 -2.782374e+02 -2.119646e+01
     vertex  2.560694e+02 -2.779021e+02 -2.119646e+01
     vertex  2.560295e+02 -2.794686e+02 -2.119646e+01
   endloop
 endfacet
 facet normal  2.337634e-14 -4.046167e-15  1.000000e+00
   outer loop
     vertex  2.586121e+02 -2.772608e+02 -2.119646e+01
     vertex  2.564830e+02 -2.763907e+02 -2.119646e+01
     vertex  2.560694e+02 -2.779021e+02 -2.119646e+01
   endloop
 endfacet
 facet normal  2.302757e-14 -2.663499e-15  1.000000e+00
   outer loop
     vertex  2.586121e+02 -2.772608e+02 -2.119646e+01
     vertex  2.560694e+02 -2.779021e+02 -2.119646e+01
     vertex  2.583449e+02 -2.782374e+02 -2.119646e+01
   endloop
 endfacet
 facet normal  2.366669e-14 -4.086729e-15  1.000000e+00
   outer loop
     vertex  2.583191e+02 -2.792496e+02 -2.119646e+01
     vertex  2.560295e+02 -2.794686e+02 -2.119646e+01
     vertex  2.563657e+02 -2.809991e+02 -2.119646e+01
   endloop
 endfacet
 facet normal  2.400578e-14 -7.630828e-15  1.000000e+00
   outer loop
     vertex  2.583191e+02 -2.792496e+02 -2.119646e+01
     vertex  2.583449e+02 -2.782374e+02 -2.119646e+01
     vertex  2.560295e+02 -2.794686e+02 -2.119646e+01
   endloop
 endfacet
 facet normal  2.305942e-14 -5.073004e-15  1.000000e+00
   outer loop
     vertex  2.591053e+02 -2.763765e+02 -2.119646e+01
     vertex  2.572463e+02 -2.750222e+02 -2.119646e+01
     vertex  2.564830e+02 -2.763907e+02 -2.119646e+01
   endloop
 endfacet
 facet normal  2.305807e-14 -4.825011e-15  1.000000e+00
   outer loop
     vertex  2.591053e+02 -2.763765e+02 -2.119646e+01
     vertex  2.564830e+02 -2.763907e+02 -2.119646e+01
     vertex  2.586121e+02 -2.772608e+02 -2.119646e+01
   endloop
 endfacet
 facet normal  2.267614e-14 -3.990596e-15  1.000000e+00
   outer loop
     vertex  2.585363e+02 -2.802385e+02 -2.119646e+01
     vertex  2.563657e+02 -2.809991e+02 -2.119646e+01
     vertex  2.570584e+02 -2.824047e+02 -2.119646e+01
   endloop
 endfacet
 facet normal  2.209485e-14 -2.331771e-15  1.000000e+00
   outer loop
     vertex  2.585363e+02 -2.802385e+02 -2.119646e+01
     vertex  2.583191e+02 -2.792496e+02 -2.119646e+01
     vertex  2.563657e+02 -2.809991e+02 -2.119646e+01
   endloop
 endfacet
 facet normal  2.414167e-14 -3.910275e-15  1.000000e+00
   outer loop
     vertex  2.597958e+02 -2.756360e+02 -2.119646e+01
     vertex  2.583149e+02 -2.738761e+02 -2.119646e+01
     vertex  2.572463e+02 -2.750222e+02 -2.119646e+01
   endloop
 endfacet
 facet normal  2.425775e-14 -3.428059e-15  1.000000e+00
   outer loop
     vertex  2.597958e+02 -2.756360e+02 -2.119646e+01
     vertex  2.572463e+02 -2.750222e+02 -2.119646e+01
     vertex  2.591053e+02 -2.763765e+02 -2.119646e+01
   endloop
 endfacet
 facet normal  2.433859e-14 -6.187610e-15  1.000000e+00
   outer loop
     vertex  2.589839e+02 -2.811467e+02 -2.119646e+01
     vertex  2.570584e+02 -2.824047e+02 -2.119646e+01
     vertex  2.580673e+02 -2.836036e+02 -2.119646e+01
   endloop
 endfacet
 facet normal  2.308585e-14 -4.270132e-15  1.000000e+00
   outer loop
     vertex  2.589839e+02 -2.811467e+02 -2.119646e+01
     vertex  2.585363e+02 -2.802385e+02 -2.119646e+01
     vertex  2.570584e+02 -2.824047e+02 -2.119646e+01
   endloop
 endfacet
 facet normal  2.285090e-14 -5.959266e-15  1.000000e+00
   outer loop
     vertex  2.606434e+02 -2.750822e+02 -2.119646e+01
     vertex  2.596267e+02 -2.730191e+02 -2.119646e+01
     vertex  2.583149e+02 -2.738761e+02 -2.119646e+01
   endloop
 endfacet
 facet normal  2.373484e-14 -4.252624e-15  1.000000e+00
   outer loop
     vertex  2.606434e+02 -2.750822e+02 -2.119646e+01
     vertex  2.583149e+02 -2.738761e+02 -2.119646e+01
     vertex  2.597958e+02 -2.756360e+02 -2.119646e+01
   endloop
 endfacet
 facet normal  2.503565e-14 -6.447652e-15  1.000000e+00
   outer loop
     vertex  2.596358e+02 -2.819214e+02 -2.119646e+01
     vertex  2.589839e+02 -2.811467e+02 -2.119646e+01
     vertex  2.580673e+02 -2.836036e+02 -2.119646e+01
   endloop
 endfacet
 facet normal  2.236354e-14 -3.956196e-15  1.000000e+00
   outer loop
     vertex  2.593339e+02 -2.845263e+02 -2.119646e+01
     vertex  2.596358e+02 -2.819214e+02 -2.119646e+01
     vertex  2.580673e+02 -2.836036e+02 -2.119646e+01
   endloop
 endfacet
 facet normal  2.367845e-14 -5.869356e-15  1.000000e+00
   outer loop
     vertex  2.615989e+02 -2.747473e+02 -2.119646e+01
     vertex  2.611055e+02 -2.725009e+02 -2.119646e+01
     vertex  2.596267e+02 -2.730191e+02 -2.119646e+01
   endloop
 endfacet
 facet normal  2.416878e-14 -5.309803e-15  1.000000e+00
   outer loop
     vertex  2.615989e+02 -2.747473e+02 -2.119646e+01
     vertex  2.596267e+02 -2.730191e+02 -2.119646e+01
     vertex  2.606434e+02 -2.750822e+02 -2.119646e+01
   endloop
 endfacet
 facet normal  2.310258e-14 -4.041864e-15  1.000000e+00
   outer loop
     vertex  2.604542e+02 -2.825176e+02 -2.119646e+01
     vertex  2.596358e+02 -2.819214e+02 -2.119646e+01
     vertex  2.593339e+02 -2.845263e+02 -2.119646e+01
   endloop
 endfacet
 facet normal  2.541109e-14 -3.736985e-15  1.000000e+00
   outer loop
     vertex  2.626068e+02 -2.746509e+02 -2.119646e+01
     vertex  2.626654e+02 -2.723516e+02 -2.119646e+01
     vertex  2.611055e+02 -2.725009e+02 -2.119646e+01
   endloop
 endfacet
 facet normal  2.175116e-14 -6.292689e-15  1.000000e+00
   outer loop
     vertex  2.626068e+02 -2.746509e+02 -2.119646e+01
     vertex  2.611055e+02 -2.725009e+02 -2.119646e+01
     vertex  2.615989e+02 -2.747473e+02 -2.119646e+01
   endloop
 endfacet
 facet normal  2.488394e-14 -5.035395e-15  1.000000e+00
   outer loop
     vertex  2.607844e+02 -2.851190e+02 -2.119646e+01
     vertex  2.604542e+02 -2.825176e+02 -2.119646e+01
     vertex  2.593339e+02 -2.845263e+02 -2.119646e+01
   endloop
 endfacet
 facet normal  2.445340e-14 -5.090044e-15  1.000000e+00
   outer loop
     vertex  2.613915e+02 -2.829006e+02 -2.119646e+01
     vertex  2.604542e+02 -2.825176e+02 -2.119646e+01
     vertex  2.607844e+02 -2.851190e+02 -2.119646e+01
   endloop
 endfacet
 facet normal  2.428058e-14 -3.708216e-15  1.000000e+00
   outer loop
     vertex  2.636085e+02 -2.747985e+02 -2.119646e+01
     vertex  2.626654e+02 -2.723516e+02 -2.119646e+01
     vertex  2.626068e+02 -2.746509e+02 -2.119646e+01
   endloop
 endfacet
 facet normal  2.225584e-14 -4.488698e-15  1.000000e+00
   outer loop
     vertex  2.642156e+02 -2.725800e+02 -2.119646e+01
     vertex  2.626654e+02 -2.723516e+02 -2.119646e+01
     vertex  2.636085e+02 -2.747985e+02 -2.119646e+01
   endloop
 endfacet
 facet normal  2.225584e-14 -4.488698e-15  1.000000e+00
   outer loop
     vertex  2.623346e+02 -2.853474e+02 -2.119646e+01
     vertex  2.613915e+02 -2.829006e+02 -2.119646e+01
     vertex  2.607844e+02 -2.851190e+02 -2.119646e+01
   endloop
 endfacet
 facet normal  2.428058e-14 -3.708216e-15  1.000000e+00
   outer loop
     vertex  2.623346e+02 -2.853474e+02 -2.119646e+01
     vertex  2.623932e+02 -2.830482e+02 -2.119646e+01
     vertex  2.613915e+02 -2.829006e+02 -2.119646e+01
   endloop
 endfacet
 facet normal  2.445340e-14 -5.090044e-15  1.000000e+00
   outer loop
     vertex  2.645458e+02 -2.751815e+02 -2.119646e+01
     vertex  2.642156e+02 -2.725800e+02 -2.119646e+01
     vertex  2.636085e+02 -2.747985e+02 -2.119646e+01
   endloop
 endfacet
 facet normal  2.488394e-14 -5.035395e-15  1.000000e+00
   outer loop
     vertex  2.656661e+02 -2.731728e+02 -2.119646e+01
     vertex  2.642156e+02 -2.725800e+02 -2.119646e+01
     vertex  2.645458e+02 -2.751815e+02 -2.119646e+01
   endloop
 endfacet
 facet normal  2.310258e-14 -4.041864e-15  1.000000e+00
   outer loop
     vertex  2.653642e+02 -2.757777e+02 -2.119646e+01
     vertex  2.656661e+02 -2.731728e+02 -2.119646e+01
     vertex  2.645458e+02 -2.751815e+02 -2.119646e+01
   endloop
 endfacet
 facet normal  2.541109e-14 -3.736985e-15  1.000000e+00
   outer loop
     vertex  2.638945e+02 -2.851982e+02 -2.119646e+01
     vertex  2.623932e+02 -2.830482e+02 -2.119646e+01
     vertex  2.623346e+02 -2.853474e+02 -2.119646e+01
   endloop
 endfacet
 facet normal  2.175116e-14 -6.292689e-15  1.000000e+00
   outer loop
     vertex  2.638945e+02 -2.851982e+02 -2.119646e+01
     vertex  2.634011e+02 -2.829517e+02 -2.119646e+01
     vertex  2.623932e+02 -2.830482e+02 -2.119646e+01
   endloop
 endfacet
 facet normal  2.236354e-14 -3.956196e-15  1.000000e+00
   outer loop
     vertex  2.669327e+02 -2.740954e+02 -2.119646e+01
     vertex  2.656661e+02 -2.731728e+02 -2.119646e+01
     vertex  2.653642e+02 -2.757777e+02 -2.119646e+01
   endloop
 endfacet
 facet normal  2.367845e-14 -5.869356e-15  1.000000e+00
   outer loop
     vertex  2.653733e+02 -2.846800e+02 -2.119646e+01
     vertex  2.634011e+02 -2.829517e+02 -2.119646e+01
     vertex  2.638945e+02 -2.851982e+02 -2.119646e+01
   endloop
 endfacet
 facet normal  2.416878e-14 -5.309803e-15  1.000000e+00
   outer loop
     vertex  2.653733e+02 -2.846800e+02 -2.119646e+01
     vertex  2.643566e+02 -2.826169e+02 -2.119646e+01
     vertex  2.634011e+02 -2.829517e+02 -2.119646e+01
   endloop
 endfacet
 facet normal  2.308585e-14 -4.270132e-15  1.000000e+00
   outer loop
     vertex  2.679416e+02 -2.752944e+02 -2.119646e+01
     vertex  2.660161e+02 -2.765524e+02 -2.119646e+01
     vertex  2.664637e+02 -2.774606e+02 -2.119646e+01
   endloop
 endfacet
 facet normal  2.469549e-14 -6.733897e-15  1.000000e+00
   outer loop
     vertex  2.679416e+02 -2.752944e+02 -2.119646e+01
     vertex  2.653642e+02 -2.757777e+02 -2.119646e+01
     vertex  2.660161e+02 -2.765524e+02 -2.119646e+01
   endloop
 endfacet
 facet normal  2.455839e-14 -6.002652e-15  1.000000e+00
   outer loop
     vertex  2.679416e+02 -2.752944e+02 -2.119646e+01
     vertex  2.669327e+02 -2.740954e+02 -2.119646e+01
     vertex  2.653642e+02 -2.757777e+02 -2.119646e+01
   endloop
 endfacet
 facet normal  2.373484e-14 -4.252624e-15  1.000000e+00
   outer loop
     vertex  2.666851e+02 -2.838229e+02 -2.119646e+01
     vertex  2.652042e+02 -2.820631e+02 -2.119646e+01
     vertex  2.643566e+02 -2.826169e+02 -2.119646e+01
   endloop
 endfacet
 facet normal  2.285090e-14 -5.959266e-15  1.000000e+00
   outer loop
     vertex  2.666851e+02 -2.838229e+02 -2.119646e+01
     vertex  2.643566e+02 -2.826169e+02 -2.119646e+01
     vertex  2.653733e+02 -2.846800e+02 -2.119646e+01
   endloop
 endfacet
 facet normal  2.267614e-14 -3.990596e-15  1.000000e+00
   outer loop
     vertex  2.686343e+02 -2.767000e+02 -2.119646e+01
     vertex  2.679416e+02 -2.752944e+02 -2.119646e+01
     vertex  2.664637e+02 -2.774606e+02 -2.119646e+01
   endloop
 endfacet
 facet normal  2.414167e-14 -3.910275e-15  1.000000e+00
   outer loop
     vertex  2.677537e+02 -2.826768e+02 -2.119646e+01
     vertex  2.652042e+02 -2.820631e+02 -2.119646e+01
     vertex  2.666851e+02 -2.838229e+02 -2.119646e+01
   endloop
 endfacet
 facet normal  2.425775e-14 -3.428059e-15  1.000000e+00
   outer loop
     vertex  2.677537e+02 -2.826768e+02 -2.119646e+01
     vertex  2.658947e+02 -2.813226e+02 -2.119646e+01
     vertex  2.652042e+02 -2.820631e+02 -2.119646e+01
   endloop
 endfacet
 facet normal  2.346988e-14 -2.029743e-15  1.000000e+00
   outer loop
     vertex  2.689705e+02 -2.782305e+02 -2.119646e+01
     vertex  2.664637e+02 -2.774606e+02 -2.119646e+01
     vertex  2.666809e+02 -2.784495e+02 -2.119646e+01
   endloop
 endfacet
 facet normal  2.400578e-14 -7.630828e-15  1.000000e+00
   outer loop
     vertex  2.689705e+02 -2.782305e+02 -2.119646e+01
     vertex  2.666809e+02 -2.784495e+02 -2.119646e+01
     vertex  2.666551e+02 -2.794617e+02 -2.119646e+01
   endloop
 endfacet
 facet normal  2.277821e-14 -4.281885e-15  1.000000e+00
   outer loop
     vertex  2.689705e+02 -2.782305e+02 -2.119646e+01
     vertex  2.686343e+02 -2.767000e+02 -2.119646e+01
     vertex  2.664637e+02 -2.774606e+02 -2.119646e+01
   endloop
 endfacet
 facet normal  2.305807e-14 -4.825011e-15  1.000000e+00
   outer loop
     vertex  2.685170e+02 -2.813083e+02 -2.119646e+01
     vertex  2.663879e+02 -2.804383e+02 -2.119646e+01
     vertex  2.658947e+02 -2.813226e+02 -2.119646e+01
   endloop
 endfacet
 facet normal  2.305942e-14 -5.073004e-15  1.000000e+00
   outer loop
     vertex  2.685170e+02 -2.813083e+02 -2.119646e+01
     vertex  2.658947e+02 -2.813226e+02 -2.119646e+01
     vertex  2.677537e+02 -2.826768e+02 -2.119646e+01
   endloop
 endfacet
 facet normal  2.337634e-14 -4.046167e-15  1.000000e+00
   outer loop
     vertex  2.689306e+02 -2.797969e+02 -2.119646e+01
     vertex  2.663879e+02 -2.804383e+02 -2.119646e+01
     vertex  2.685170e+02 -2.813083e+02 -2.119646e+01
   endloop
 endfacet
 facet normal  2.302757e-14 -2.663499e-15  1.000000e+00
   outer loop
     vertex  2.689306e+02 -2.797969e+02 -2.119646e+01
     vertex  2.666551e+02 -2.794617e+02 -2.119646e+01
     vertex  2.663879e+02 -2.804383e+02 -2.119646e+01
   endloop
 endfacet
 facet normal  2.266673e-14 -5.112779e-15  1.000000e+00
   outer loop
     vertex  2.689306e+02 -2.797969e+02 -2.119646e+01
     vertex  2.689705e+02 -2.782305e+02 -2.119646e+01
     vertex  2.666551e+02 -2.794617e+02 -2.119646e+01
   endloop
 endfacet
endsolid
