solid 
 facet normal  6.059941e-02 -4.990811e-01  8.644338e-01
   outer loop
     vertex  1.490427e+02 -2.749657e+02 -1.439646e+01
     vertex  1.500000e+02 -2.755260e+02 -1.478709e+01
     vertex  1.500000e+02 -2.748495e+02 -1.439646e+01
   endloop
 endfacet
 facet normal  6.059941e-02 -4.990811e-01  8.644338e-01
   outer loop
     vertex  1.490427e+02 -2.749657e+02 -1.439646e+01
     vertex  1.492046e+02 -2.756226e+02 -1.478709e+01
     vertex  1.500000e+02 -2.755260e+02 -1.478709e+01
   endloop
 endfacet
 facet normal  1.782764e-01 -4.700763e-01  8.644338e-01
   outer loop
     vertex  1.481411e+02 -2.753076e+02 -1.439646e+01
     vertex  1.484555e+02 -2.759067e+02 -1.478709e+01
     vertex  1.492046e+02 -2.756226e+02 -1.478709e+01
   endloop
 endfacet
 facet normal  1.782764e-01 -4.700763e-01  8.644338e-01
   outer loop
     vertex  1.481411e+02 -2.753076e+02 -1.439646e+01
     vertex  1.492046e+02 -2.756226e+02 -1.478709e+01
     vertex  1.490427e+02 -2.749657e+02 -1.439646e+01
   endloop
 endfacet
 facet normal  2.855927e-01 -4.137524e-01  8.644338e-01
   outer loop
     vertex  1.473475e+02 -2.758554e+02 -1.439646e+01
     vertex  1.477961e+02 -2.763619e+02 -1.478709e+01
     vertex  1.484555e+02 -2.759067e+02 -1.478709e+01
   endloop
 endfacet
 facet normal  2.855927e-01 -4.137524e-01  8.644338e-01
   outer loop
     vertex  1.473475e+02 -2.758554e+02 -1.439646e+01
     vertex  1.484555e+02 -2.759067e+02 -1.478709e+01
     vertex  1.481411e+02 -2.753076e+02 -1.439646e+01
   endloop
 endfacet
 facet normal  3.763113e-01 -3.333827e-01  8.644338e-01
   outer loop
     vertex  1.467080e+02 -2.765772e+02 -1.439646e+01
     vertex  1.472648e+02 -2.769616e+02 -1.478709e+01
     vertex  1.477961e+02 -2.763619e+02 -1.478709e+01
   endloop
 endfacet
 facet normal  3.763113e-01 -3.333827e-01  8.644338e-01
   outer loop
     vertex  1.467080e+02 -2.765772e+02 -1.439646e+01
     vertex  1.477961e+02 -2.763619e+02 -1.478709e+01
     vertex  1.473475e+02 -2.758554e+02 -1.439646e+01
   endloop
 endfacet
 facet normal  4.451601e-01 -2.336380e-01  8.644338e-01
   outer loop
     vertex  1.462599e+02 -2.774311e+02 -1.439646e+01
     vertex  1.468925e+02 -2.776710e+02 -1.478709e+01
     vertex  1.472648e+02 -2.769616e+02 -1.478709e+01
   endloop
 endfacet
 facet normal  4.451601e-01 -2.336380e-01  8.644338e-01
   outer loop
     vertex  1.462599e+02 -2.774311e+02 -1.439646e+01
     vertex  1.472648e+02 -2.769616e+02 -1.478709e+01
     vertex  1.467080e+02 -2.765772e+02 -1.439646e+01
   endloop
 endfacet
 facet normal  4.881378e-01 -1.203152e-01  8.644338e-01
   outer loop
     vertex  1.460291e+02 -2.783674e+02 -1.439646e+01
     vertex  1.467007e+02 -2.784489e+02 -1.478709e+01
     vertex  1.468925e+02 -2.776710e+02 -1.478709e+01
   endloop
 endfacet
 facet normal  4.881378e-01 -1.203152e-01  8.644338e-01
   outer loop
     vertex  1.460291e+02 -2.783674e+02 -1.439646e+01
     vertex  1.468925e+02 -2.776710e+02 -1.478709e+01
     vertex  1.462599e+02 -2.774311e+02 -1.439646e+01
   endloop
 endfacet
 facet normal  5.027467e-01  1.948885e-15  8.644338e-01
   outer loop
     vertex  1.460291e+02 -2.793317e+02 -1.439646e+01
     vertex  1.467007e+02 -2.792501e+02 -1.478709e+01
     vertex  1.467007e+02 -2.784489e+02 -1.478709e+01
   endloop
 endfacet
 facet normal  5.027467e-01  1.592369e-15  8.644338e-01
   outer loop
     vertex  1.460291e+02 -2.793317e+02 -1.439646e+01
     vertex  1.467007e+02 -2.784489e+02 -1.478709e+01
     vertex  1.460291e+02 -2.783674e+02 -1.439646e+01
   endloop
 endfacet
 facet normal  4.881378e-01  1.203152e-01  8.644338e-01
   outer loop
     vertex  1.462599e+02 -2.802680e+02 -1.439646e+01
     vertex  1.468925e+02 -2.800281e+02 -1.478709e+01
     vertex  1.467007e+02 -2.792501e+02 -1.478709e+01
   endloop
 endfacet
 facet normal  4.881378e-01  1.203152e-01  8.644338e-01
   outer loop
     vertex  1.462599e+02 -2.802680e+02 -1.439646e+01
     vertex  1.467007e+02 -2.792501e+02 -1.478709e+01
     vertex  1.460291e+02 -2.793317e+02 -1.439646e+01
   endloop
 endfacet
 facet normal  4.451601e-01  2.336380e-01  8.644338e-01
   outer loop
     vertex  1.467080e+02 -2.811218e+02 -1.439646e+01
     vertex  1.472648e+02 -2.807375e+02 -1.478709e+01
     vertex  1.468925e+02 -2.800281e+02 -1.478709e+01
   endloop
 endfacet
 facet normal  4.451601e-01  2.336380e-01  8.644338e-01
   outer loop
     vertex  1.467080e+02 -2.811218e+02 -1.439646e+01
     vertex  1.468925e+02 -2.800281e+02 -1.478709e+01
     vertex  1.462599e+02 -2.802680e+02 -1.439646e+01
   endloop
 endfacet
 facet normal  3.763113e-01  3.333827e-01  8.644338e-01
   outer loop
     vertex  1.473475e+02 -2.818436e+02 -1.439646e+01
     vertex  1.477961e+02 -2.813372e+02 -1.478709e+01
     vertex  1.472648e+02 -2.807375e+02 -1.478709e+01
   endloop
 endfacet
 facet normal  3.763113e-01  3.333827e-01  8.644338e-01
   outer loop
     vertex  1.473475e+02 -2.818436e+02 -1.439646e+01
     vertex  1.472648e+02 -2.807375e+02 -1.478709e+01
     vertex  1.467080e+02 -2.811218e+02 -1.439646e+01
   endloop
 endfacet
 facet normal  2.855927e-01  4.137524e-01  8.644338e-01
   outer loop
     vertex  1.481411e+02 -2.823914e+02 -1.439646e+01
     vertex  1.484555e+02 -2.817923e+02 -1.478709e+01
     vertex  1.477961e+02 -2.813372e+02 -1.478709e+01
   endloop
 endfacet
 facet normal  2.855927e-01  4.137524e-01  8.644338e-01
   outer loop
     vertex  1.481411e+02 -2.823914e+02 -1.439646e+01
     vertex  1.477961e+02 -2.813372e+02 -1.478709e+01
     vertex  1.473475e+02 -2.818436e+02 -1.439646e+01
   endloop
 endfacet
 facet normal  1.782764e-01  4.700763e-01  8.644338e-01
   outer loop
     vertex  1.490427e+02 -2.827334e+02 -1.439646e+01
     vertex  1.484555e+02 -2.817923e+02 -1.478709e+01
     vertex  1.481411e+02 -2.823914e+02 -1.439646e+01
   endloop
 endfacet
 facet normal  1.782764e-01  4.700763e-01  8.644338e-01
   outer loop
     vertex  1.490427e+02 -2.827334e+02 -1.439646e+01
     vertex  1.492046e+02 -2.820765e+02 -1.478709e+01
     vertex  1.484555e+02 -2.817923e+02 -1.478709e+01
   endloop
 endfacet
 facet normal  6.059941e-02  4.990811e-01  8.644338e-01
   outer loop
     vertex  1.500000e+02 -2.828496e+02 -1.439646e+01
     vertex  1.492046e+02 -2.820765e+02 -1.478709e+01
     vertex  1.490427e+02 -2.827334e+02 -1.439646e+01
   endloop
 endfacet
 facet normal  6.059941e-02  4.990811e-01  8.644338e-01
   outer loop
     vertex  1.500000e+02 -2.828496e+02 -1.439646e+01
     vertex  1.500000e+02 -2.821730e+02 -1.478709e+01
     vertex  1.492046e+02 -2.820765e+02 -1.478709e+01
   endloop
 endfacet
 facet normal -6.059941e-02  4.990811e-01  8.644338e-01
   outer loop
     vertex  1.509573e+02 -2.827334e+02 -1.439646e+01
     vertex  1.500000e+02 -2.821730e+02 -1.478709e+01
     vertex  1.500000e+02 -2.828496e+02 -1.439646e+01
   endloop
 endfacet
 facet normal -6.059941e-02  4.990811e-01  8.644338e-01
   outer loop
     vertex  1.509573e+02 -2.827334e+02 -1.439646e+01
     vertex  1.507954e+02 -2.820765e+02 -1.478709e+01
     vertex  1.500000e+02 -2.821730e+02 -1.478709e+01
   endloop
 endfacet
 facet normal -1.782764e-01  4.700763e-01  8.644338e-01
   outer loop
     vertex  1.518589e+02 -2.823914e+02 -1.439646e+01
     vertex  1.507954e+02 -2.820765e+02 -1.478709e+01
     vertex  1.509573e+02 -2.827334e+02 -1.439646e+01
   endloop
 endfacet
 facet normal -1.782764e-01  4.700763e-01  8.644338e-01
   outer loop
     vertex  1.518589e+02 -2.823914e+02 -1.439646e+01
     vertex  1.515445e+02 -2.817923e+02 -1.478709e+01
     vertex  1.507954e+02 -2.820765e+02 -1.478709e+01
   endloop
 endfacet
 facet normal -2.855927e-01  4.137524e-01  8.644338e-01
   outer loop
     vertex  1.526525e+02 -2.818436e+02 -1.439646e+01
     vertex  1.515445e+02 -2.817923e+02 -1.478709e+01
     vertex  1.518589e+02 -2.823914e+02 -1.439646e+01
   endloop
 endfacet
 facet normal -2.855927e-01  4.137524e-01  8.644338e-01
   outer loop
     vertex  1.526525e+02 -2.818436e+02 -1.439646e+01
     vertex  1.522039e+02 -2.813372e+02 -1.478709e+01
     vertex  1.515445e+02 -2.817923e+02 -1.478709e+01
   endloop
 endfacet
 facet normal -3.763113e-01  3.333827e-01  8.644338e-01
   outer loop
     vertex  1.532920e+02 -2.811218e+02 -1.439646e+01
     vertex  1.522039e+02 -2.813372e+02 -1.478709e+01
     vertex  1.526525e+02 -2.818436e+02 -1.439646e+01
   endloop
 endfacet
 facet normal -3.763113e-01  3.333827e-01  8.644338e-01
   outer loop
     vertex  1.532920e+02 -2.811218e+02 -1.439646e+01
     vertex  1.527352e+02 -2.807375e+02 -1.478709e+01
     vertex  1.522039e+02 -2.813372e+02 -1.478709e+01
   endloop
 endfacet
 facet normal -4.451601e-01  2.336380e-01  8.644338e-01
   outer loop
     vertex  1.537401e+02 -2.802680e+02 -1.439646e+01
     vertex  1.527352e+02 -2.807375e+02 -1.478709e+01
     vertex  1.532920e+02 -2.811218e+02 -1.439646e+01
   endloop
 endfacet
 facet normal -4.451601e-01  2.336380e-01  8.644338e-01
   outer loop
     vertex  1.537401e+02 -2.802680e+02 -1.439646e+01
     vertex  1.531075e+02 -2.800281e+02 -1.478709e+01
     vertex  1.527352e+02 -2.807375e+02 -1.478709e+01
   endloop
 endfacet
 facet normal -4.881378e-01  1.203152e-01  8.644338e-01
   outer loop
     vertex  1.539709e+02 -2.793317e+02 -1.439646e+01
     vertex  1.531075e+02 -2.800281e+02 -1.478709e+01
     vertex  1.537401e+02 -2.802680e+02 -1.439646e+01
   endloop
 endfacet
 facet normal -4.881378e-01  1.203152e-01  8.644338e-01
   outer loop
     vertex  1.539709e+02 -2.793317e+02 -1.439646e+01
     vertex  1.532993e+02 -2.792501e+02 -1.478709e+01
     vertex  1.531075e+02 -2.800281e+02 -1.478709e+01
   endloop
 endfacet
 facet normal -5.027467e-01  1.948885e-15  8.644338e-01
   outer loop
     vertex  1.539709e+02 -2.783674e+02 -1.439646e+01
     vertex  1.532993e+02 -2.784489e+02 -1.478709e+01
     vertex  1.532993e+02 -2.792501e+02 -1.478709e+01
   endloop
 endfacet
 facet normal -5.027467e-01  1.592369e-15  8.644338e-01
   outer loop
     vertex  1.539709e+02 -2.783674e+02 -1.439646e+01
     vertex  1.532993e+02 -2.792501e+02 -1.478709e+01
     vertex  1.539709e+02 -2.793317e+02 -1.439646e+01
   endloop
 endfacet
 facet normal -4.881378e-01 -1.203152e-01  8.644338e-01
   outer loop
     vertex  1.537401e+02 -2.774311e+02 -1.439646e+01
     vertex  1.531075e+02 -2.776710e+02 -1.478709e+01
     vertex  1.532993e+02 -2.784489e+02 -1.478709e+01
   endloop
 endfacet
 facet normal -4.881378e-01 -1.203152e-01  8.644338e-01
   outer loop
     vertex  1.537401e+02 -2.774311e+02 -1.439646e+01
     vertex  1.532993e+02 -2.784489e+02 -1.478709e+01
     vertex  1.539709e+02 -2.783674e+02 -1.439646e+01
   endloop
 endfacet
 facet normal -4.451601e-01 -2.336380e-01  8.644338e-01
   outer loop
     vertex  1.532920e+02 -2.765772e+02 -1.439646e+01
     vertex  1.527352e+02 -2.769616e+02 -1.478709e+01
     vertex  1.531075e+02 -2.776710e+02 -1.478709e+01
   endloop
 endfacet
 facet normal -4.451601e-01 -2.336380e-01  8.644338e-01
   outer loop
     vertex  1.532920e+02 -2.765772e+02 -1.439646e+01
     vertex  1.531075e+02 -2.776710e+02 -1.478709e+01
     vertex  1.537401e+02 -2.774311e+02 -1.439646e+01
   endloop
 endfacet
 facet normal -3.763113e-01 -3.333827e-01  8.644338e-01
   outer loop
     vertex  1.526525e+02 -2.758554e+02 -1.439646e+01
     vertex  1.522039e+02 -2.763619e+02 -1.478709e+01
     vertex  1.527352e+02 -2.769616e+02 -1.478709e+01
   endloop
 endfacet
 facet normal -3.763113e-01 -3.333827e-01  8.644338e-01
   outer loop
     vertex  1.526525e+02 -2.758554e+02 -1.439646e+01
     vertex  1.527352e+02 -2.769616e+02 -1.478709e+01
     vertex  1.532920e+02 -2.765772e+02 -1.439646e+01
   endloop
 endfacet
 facet normal -2.855927e-01 -4.137524e-01  8.644338e-01
   outer loop
     vertex  1.518589e+02 -2.753076e+02 -1.439646e+01
     vertex  1.515445e+02 -2.759067e+02 -1.478709e+01
     vertex  1.522039e+02 -2.763619e+02 -1.478709e+01
   endloop
 endfacet
 facet normal -2.855927e-01 -4.137524e-01  8.644338e-01
   outer loop
     vertex  1.518589e+02 -2.753076e+02 -1.439646e+01
     vertex  1.522039e+02 -2.763619e+02 -1.478709e+01
     vertex  1.526525e+02 -2.758554e+02 -1.439646e+01
   endloop
 endfacet
 facet normal -1.782764e-01 -4.700763e-01  8.644338e-01
   outer loop
     vertex  1.509573e+02 -2.749657e+02 -1.439646e+01
     vertex  1.507954e+02 -2.756226e+02 -1.478709e+01
     vertex  1.515445e+02 -2.759067e+02 -1.478709e+01
   endloop
 endfacet
 facet normal -1.782764e-01 -4.700763e-01  8.644338e-01
   outer loop
     vertex  1.509573e+02 -2.749657e+02 -1.439646e+01
     vertex  1.515445e+02 -2.759067e+02 -1.478709e+01
     vertex  1.518589e+02 -2.753076e+02 -1.439646e+01
   endloop
 endfacet
 facet normal -6.059941e-02 -4.990811e-01  8.644338e-01
   outer loop
     vertex  1.500000e+02 -2.755260e+02 -1.478709e+01
     vertex  1.507954e+02 -2.756226e+02 -1.478709e+01
     vertex  1.509573e+02 -2.749657e+02 -1.439646e+01
   endloop
 endfacet
 facet normal -6.059941e-02 -4.990811e-01  8.644338e-01
   outer loop
     vertex  1.500000e+02 -2.748495e+02 -1.439646e+01
     vertex  1.500000e+02 -2.755260e+02 -1.478709e+01
     vertex  1.509573e+02 -2.749657e+02 -1.439646e+01
   endloop
 endfacet
 facet normal -1.205367e-01 -9.927089e-01  3.114355e-15
   outer loop
     vertex  1.500000e+02 -2.755260e+02 -2.080584e+01
     vertex  1.507954e+02 -2.756226e+02 -1.478709e+01
     vertex  1.500000e+02 -2.755260e+02 -1.478709e+01
   endloop
 endfacet
 facet normal -3.546049e-01 -9.350162e-01 -1.841965e-14
   outer loop
     vertex  1.507954e+02 -2.756226e+02 -2.080584e+01
     vertex  1.515445e+02 -2.759067e+02 -1.478709e+01
     vertex  1.507954e+02 -2.756226e+02 -1.478709e+01
   endloop
 endfacet
 facet normal -1.205367e-01 -9.927089e-01 -6.261174e-15
   outer loop
     vertex  1.507954e+02 -2.756226e+02 -2.080584e+01
     vertex  1.507954e+02 -2.756226e+02 -1.478709e+01
     vertex  1.500000e+02 -2.755260e+02 -2.080584e+01
   endloop
 endfacet
 facet normal -5.680647e-01 -8.229839e-01 -2.950764e-14
   outer loop
     vertex  1.515445e+02 -2.759067e+02 -2.080584e+01
     vertex  1.522039e+02 -2.763619e+02 -1.478709e+01
     vertex  1.515445e+02 -2.759067e+02 -1.478709e+01
   endloop
 endfacet
 facet normal -3.546049e-01 -9.350162e-01 -1.841965e-14
   outer loop
     vertex  1.515445e+02 -2.759067e+02 -2.080584e+01
     vertex  1.515445e+02 -2.759067e+02 -1.478709e+01
     vertex  1.507954e+02 -2.756226e+02 -2.080584e+01
   endloop
 endfacet
 facet normal -7.485107e-01 -6.631227e-01 -3.261796e-14
   outer loop
     vertex  1.522039e+02 -2.763619e+02 -2.080584e+01
     vertex  1.527352e+02 -2.769616e+02 -1.478709e+01
     vertex  1.522039e+02 -2.763619e+02 -1.478709e+01
   endloop
 endfacet
 facet normal -5.680647e-01 -8.229839e-01 -2.173506e-14
   outer loop
     vertex  1.522039e+02 -2.763619e+02 -2.080584e+01
     vertex  1.522039e+02 -2.763619e+02 -1.478709e+01
     vertex  1.515445e+02 -2.759067e+02 -2.080584e+01
   endloop
 endfacet
 facet normal -8.854560e-01 -4.647232e-01 -4.160523e-14
   outer loop
     vertex  1.527352e+02 -2.769616e+02 -2.080584e+01
     vertex  1.531075e+02 -2.776710e+02 -1.478709e+01
     vertex  1.527352e+02 -2.769616e+02 -1.478709e+01
   endloop
 endfacet
 facet normal -7.485107e-01 -6.631227e-01 -3.261796e-14
   outer loop
     vertex  1.527352e+02 -2.769616e+02 -2.080584e+01
     vertex  1.527352e+02 -2.769616e+02 -1.478709e+01
     vertex  1.522039e+02 -2.763619e+02 -2.080584e+01
   endloop
 endfacet
 facet normal -9.709418e-01 -2.393157e-01 -4.817455e-14
   outer loop
     vertex  1.531075e+02 -2.776710e+02 -2.080584e+01
     vertex  1.532993e+02 -2.784489e+02 -1.478709e+01
     vertex  1.531075e+02 -2.776710e+02 -1.478709e+01
   endloop
 endfacet
 facet normal -8.854560e-01 -4.647232e-01 -4.160523e-14
   outer loop
     vertex  1.531075e+02 -2.776710e+02 -2.080584e+01
     vertex  1.531075e+02 -2.776710e+02 -1.478709e+01
     vertex  1.527352e+02 -2.769616e+02 -2.080584e+01
   endloop
 endfacet
 facet normal -1.000000e+00 -1.256349e-28 -5.194414e-14
   outer loop
     vertex  1.532993e+02 -2.784489e+02 -2.080584e+01
     vertex  1.532993e+02 -2.792501e+02 -1.478709e+01
     vertex  1.532993e+02 -2.784489e+02 -1.478709e+01
   endloop
 endfacet
 facet normal -9.709418e-01 -2.393157e-01 -4.817455e-14
   outer loop
     vertex  1.532993e+02 -2.784489e+02 -2.080584e+01
     vertex  1.532993e+02 -2.784489e+02 -1.478709e+01
     vertex  1.531075e+02 -2.776710e+02 -2.080584e+01
   endloop
 endfacet
 facet normal -9.709418e-01  2.393157e-01 -5.269493e-14
   outer loop
     vertex  1.532993e+02 -2.792501e+02 -2.080584e+01
     vertex  1.531075e+02 -2.800281e+02 -1.478709e+01
     vertex  1.532993e+02 -2.792501e+02 -1.478709e+01
   endloop
 endfacet
 facet normal -1.000000e+00 -2.303307e-28 -5.194414e-14
   outer loop
     vertex  1.532993e+02 -2.792501e+02 -2.080584e+01
     vertex  1.532993e+02 -2.792501e+02 -1.478709e+01
     vertex  1.532993e+02 -2.784489e+02 -2.080584e+01
   endloop
 endfacet
 facet normal -8.854560e-01  4.647232e-01 -4.599425e-14
   outer loop
     vertex  1.531075e+02 -2.800281e+02 -2.080584e+01
     vertex  1.527352e+02 -2.807375e+02 -1.478709e+01
     vertex  1.531075e+02 -2.800281e+02 -1.478709e+01
   endloop
 endfacet
 facet normal -9.709418e-01  2.393157e-01 -5.043474e-14
   outer loop
     vertex  1.531075e+02 -2.800281e+02 -2.080584e+01
     vertex  1.531075e+02 -2.800281e+02 -1.478709e+01
     vertex  1.532993e+02 -2.792501e+02 -2.080584e+01
   endloop
 endfacet
 facet normal -7.485107e-01  6.631227e-01 -3.888075e-14
   outer loop
     vertex  1.527352e+02 -2.807375e+02 -2.080584e+01
     vertex  1.522039e+02 -2.813372e+02 -1.478709e+01
     vertex  1.527352e+02 -2.807375e+02 -1.478709e+01
   endloop
 endfacet
 facet normal -8.854560e-01  4.647232e-01 -4.599425e-14
   outer loop
     vertex  1.527352e+02 -2.807375e+02 -2.080584e+01
     vertex  1.527352e+02 -2.807375e+02 -1.478709e+01
     vertex  1.531075e+02 -2.800281e+02 -2.080584e+01
   endloop
 endfacet
 facet normal -5.680647e-01  8.229839e-01 -3.728022e-14
   outer loop
     vertex  1.522039e+02 -2.813372e+02 -2.080584e+01
     vertex  1.515445e+02 -2.817923e+02 -1.478709e+01
     vertex  1.522039e+02 -2.813372e+02 -1.478709e+01
   endloop
 endfacet
 facet normal -7.485107e-01  6.631227e-01 -4.514354e-14
   outer loop
     vertex  1.522039e+02 -2.813372e+02 -2.080584e+01
     vertex  1.522039e+02 -2.813372e+02 -1.478709e+01
     vertex  1.527352e+02 -2.807375e+02 -2.080584e+01
   endloop
 endfacet
 facet normal -5.680647e-01  8.229839e-01 -3.728022e-14
   outer loop
     vertex  1.515445e+02 -2.817923e+02 -2.080584e+01
     vertex  1.515445e+02 -2.817923e+02 -1.478709e+01
     vertex  1.522039e+02 -2.813372e+02 -2.080584e+01
   endloop
 endfacet
 facet normal -3.546049e-01  9.350162e-01 -2.725030e-14
   outer loop
     vertex  1.515445e+02 -2.817923e+02 -2.080584e+01
     vertex  1.507954e+02 -2.820765e+02 -1.478709e+01
     vertex  1.515445e+02 -2.817923e+02 -1.478709e+01
   endloop
 endfacet
 facet normal -3.546049e-01  9.350162e-01 -2.725030e-14
   outer loop
     vertex  1.507954e+02 -2.820765e+02 -2.080584e+01
     vertex  1.507954e+02 -2.820765e+02 -1.478709e+01
     vertex  1.515445e+02 -2.817923e+02 -2.080584e+01
   endloop
 endfacet
 facet normal -1.205367e-01  9.927089e-01 -1.563787e-14
   outer loop
     vertex  1.500000e+02 -2.821730e+02 -2.080584e+01
     vertex  1.507954e+02 -2.820765e+02 -1.478709e+01
     vertex  1.507954e+02 -2.820765e+02 -2.080584e+01
   endloop
 endfacet
 facet normal -1.205367e-01  9.927089e-01 -6.261174e-15
   outer loop
     vertex  1.500000e+02 -2.821730e+02 -2.080584e+01
     vertex  1.500000e+02 -2.821730e+02 -1.478709e+01
     vertex  1.507954e+02 -2.820765e+02 -1.478709e+01
   endloop
 endfacet
 facet normal  1.205367e-01  9.927089e-01  6.261174e-15
   outer loop
     vertex  1.500000e+02 -2.821730e+02 -2.080584e+01
     vertex  1.492046e+02 -2.820765e+02 -1.478709e+01
     vertex  1.500000e+02 -2.821730e+02 -1.478709e+01
   endloop
 endfacet
 facet normal  1.205367e-01  9.927089e-01 -5.391145e-15
   outer loop
     vertex  1.492046e+02 -2.820765e+02 -2.080584e+01
     vertex  1.492046e+02 -2.820765e+02 -1.478709e+01
     vertex  1.500000e+02 -2.821730e+02 -2.080584e+01
   endloop
 endfacet
 facet normal  3.546049e-01  9.350162e-01  2.890936e-15
   outer loop
     vertex  1.492046e+02 -2.820765e+02 -2.080584e+01
     vertex  1.484555e+02 -2.817923e+02 -1.478709e+01
     vertex  1.492046e+02 -2.820765e+02 -1.478709e+01
   endloop
 endfacet
 facet normal  3.546049e-01  9.350162e-01  9.588989e-15
   outer loop
     vertex  1.484555e+02 -2.817923e+02 -2.080584e+01
     vertex  1.484555e+02 -2.817923e+02 -1.478709e+01
     vertex  1.492046e+02 -2.820765e+02 -2.080584e+01
   endloop
 endfacet
 facet normal  5.680647e-01  8.229839e-01  2.173506e-14
   outer loop
     vertex  1.484555e+02 -2.817923e+02 -2.080584e+01
     vertex  1.477961e+02 -2.813372e+02 -1.478709e+01
     vertex  1.484555e+02 -2.817923e+02 -1.478709e+01
   endloop
 endfacet
 facet normal  5.680647e-01  8.229839e-01  2.173506e-14
   outer loop
     vertex  1.477961e+02 -2.813372e+02 -2.080584e+01
     vertex  1.477961e+02 -2.813372e+02 -1.478709e+01
     vertex  1.484555e+02 -2.817923e+02 -2.080584e+01
   endloop
 endfacet
 facet normal  7.485107e-01  6.631227e-01  3.261318e-14
   outer loop
     vertex  1.472648e+02 -2.807375e+02 -2.080584e+01
     vertex  1.477961e+02 -2.813372e+02 -1.478709e+01
     vertex  1.477961e+02 -2.813372e+02 -2.080584e+01
   endloop
 endfacet
 facet normal  7.485107e-01  6.631227e-01  3.888075e-14
   outer loop
     vertex  1.472648e+02 -2.807375e+02 -2.080584e+01
     vertex  1.472648e+02 -2.807375e+02 -1.478709e+01
     vertex  1.477961e+02 -2.813372e+02 -1.478709e+01
   endloop
 endfacet
 facet normal  8.854560e-01  4.647232e-01  4.599425e-14
   outer loop
     vertex  1.472648e+02 -2.807375e+02 -2.080584e+01
     vertex  1.468925e+02 -2.800281e+02 -1.478709e+01
     vertex  1.472648e+02 -2.807375e+02 -1.478709e+01
   endloop
 endfacet
 facet normal  8.854560e-01  4.647232e-01  4.599425e-14
   outer loop
     vertex  1.468925e+02 -2.800281e+02 -2.080584e+01
     vertex  1.468925e+02 -2.800281e+02 -1.478709e+01
     vertex  1.472648e+02 -2.807375e+02 -2.080584e+01
   endloop
 endfacet
 facet normal  9.709418e-01  2.393157e-01  5.043482e-14
   outer loop
     vertex  1.467007e+02 -2.792501e+02 -2.080584e+01
     vertex  1.468925e+02 -2.800281e+02 -1.478709e+01
     vertex  1.468925e+02 -2.800281e+02 -2.080584e+01
   endloop
 endfacet
 facet normal  9.709418e-01  2.393157e-01  5.043474e-14
   outer loop
     vertex  1.467007e+02 -2.792501e+02 -2.080584e+01
     vertex  1.467007e+02 -2.792501e+02 -1.478709e+01
     vertex  1.468925e+02 -2.800281e+02 -1.478709e+01
   endloop
 endfacet
 facet normal  1.000000e+00  8.375663e-29  5.194414e-14
   outer loop
     vertex  1.467007e+02 -2.792501e+02 -2.080584e+01
     vertex  1.467007e+02 -2.784489e+02 -1.478709e+01
     vertex  1.467007e+02 -2.792501e+02 -1.478709e+01
   endloop
 endfacet
 facet normal  1.000000e+00  2.303307e-28  5.194414e-14
   outer loop
     vertex  1.467007e+02 -2.784489e+02 -2.080584e+01
     vertex  1.467007e+02 -2.784489e+02 -1.478709e+01
     vertex  1.467007e+02 -2.792501e+02 -2.080584e+01
   endloop
 endfacet
 facet normal  9.709418e-01 -2.393157e-01  5.043474e-14
   outer loop
     vertex  1.467007e+02 -2.784489e+02 -2.080584e+01
     vertex  1.468925e+02 -2.776710e+02 -1.478709e+01
     vertex  1.467007e+02 -2.784489e+02 -1.478709e+01
   endloop
 endfacet
 facet normal  9.709418e-01 -2.393157e-01  5.269493e-14
   outer loop
     vertex  1.468925e+02 -2.776710e+02 -2.080584e+01
     vertex  1.468925e+02 -2.776710e+02 -1.478709e+01
     vertex  1.467007e+02 -2.784489e+02 -2.080584e+01
   endloop
 endfacet
 facet normal  8.854560e-01 -4.647232e-01  5.038328e-14
   outer loop
     vertex  1.468925e+02 -2.776710e+02 -2.080584e+01
     vertex  1.472648e+02 -2.769616e+02 -1.478709e+01
     vertex  1.468925e+02 -2.776710e+02 -1.478709e+01
   endloop
 endfacet
 facet normal  8.854560e-01 -4.647232e-01  5.038328e-14
   outer loop
     vertex  1.472648e+02 -2.769616e+02 -2.080584e+01
     vertex  1.472648e+02 -2.769616e+02 -1.478709e+01
     vertex  1.468925e+02 -2.776710e+02 -2.080584e+01
   endloop
 endfacet
 facet normal  7.485107e-01 -6.631227e-01  4.514354e-14
   outer loop
     vertex  1.472648e+02 -2.769616e+02 -2.080584e+01
     vertex  1.477961e+02 -2.763619e+02 -1.478709e+01
     vertex  1.472648e+02 -2.769616e+02 -1.478709e+01
   endloop
 endfacet
 facet normal  7.485107e-01 -6.631227e-01  3.888075e-14
   outer loop
     vertex  1.477961e+02 -2.763619e+02 -2.080584e+01
     vertex  1.477961e+02 -2.763619e+02 -1.478709e+01
     vertex  1.472648e+02 -2.769616e+02 -2.080584e+01
   endloop
 endfacet
 facet normal  5.680647e-01 -8.229839e-01  2.950764e-14
   outer loop
     vertex  1.484555e+02 -2.759067e+02 -2.080584e+01
     vertex  1.484555e+02 -2.759067e+02 -1.478709e+01
     vertex  1.477961e+02 -2.763619e+02 -1.478709e+01
   endloop
 endfacet
 facet normal  5.680647e-01 -8.229839e-01  2.951268e-14
   outer loop
     vertex  1.484555e+02 -2.759067e+02 -2.080584e+01
     vertex  1.477961e+02 -2.763619e+02 -1.478709e+01
     vertex  1.477961e+02 -2.763619e+02 -2.080584e+01
   endloop
 endfacet
 facet normal  3.546049e-01 -9.350162e-01  2.511770e-14
   outer loop
     vertex  1.492046e+02 -2.756226e+02 -2.080584e+01
     vertex  1.492046e+02 -2.756226e+02 -1.478709e+01
     vertex  1.484555e+02 -2.759067e+02 -1.478709e+01
   endloop
 endfacet
 facet normal  1.205367e-01 -9.927089e-01  8.537965e-15
   outer loop
     vertex  1.492046e+02 -2.756226e+02 -2.080584e+01
     vertex  1.500000e+02 -2.755260e+02 -1.478709e+01
     vertex  1.492046e+02 -2.756226e+02 -1.478709e+01
   endloop
 endfacet
 facet normal  3.546049e-01 -9.350162e-01  1.842166e-14
   outer loop
     vertex  1.492046e+02 -2.756226e+02 -2.080584e+01
     vertex  1.484555e+02 -2.759067e+02 -1.478709e+01
     vertex  1.484555e+02 -2.759067e+02 -2.080584e+01
   endloop
 endfacet
 facet normal  1.205367e-01 -9.927089e-01  1.563670e-14
   outer loop
     vertex  1.500000e+02 -2.755260e+02 -2.080584e+01
     vertex  1.500000e+02 -2.755260e+02 -1.478709e+01
     vertex  1.492046e+02 -2.756226e+02 -2.080584e+01
   endloop
 endfacet
 facet normal -5.517255e-14  9.457644e-16  1.000000e+00
   outer loop
     vertex  1.526525e+02 -2.758554e+02 -1.439646e+01
     vertex  1.543414e+02 -2.750034e+02 -1.439646e+01
     vertex  1.532948e+02 -2.740762e+02 -1.439646e+01
   endloop
 endfacet
 facet normal -5.308594e-14  4.061178e-16  1.000000e+00
   outer loop
     vertex  1.532920e+02 -2.765772e+02 -1.439646e+01
     vertex  1.551356e+02 -2.761541e+02 -1.439646e+01
     vertex  1.543414e+02 -2.750034e+02 -1.439646e+01
   endloop
 endfacet
 facet normal -5.581999e-14  2.229089e-15  1.000000e+00
   outer loop
     vertex  1.532920e+02 -2.765772e+02 -1.439646e+01
     vertex  1.543414e+02 -2.750034e+02 -1.439646e+01
     vertex  1.526525e+02 -2.758554e+02 -1.439646e+01
   endloop
 endfacet
 facet normal -5.626883e-14  2.138677e-15  1.000000e+00
   outer loop
     vertex  1.518589e+02 -2.753076e+02 -1.439646e+01
     vertex  1.532948e+02 -2.740762e+02 -1.439646e+01
     vertex  1.520567e+02 -2.734264e+02 -1.439646e+01
   endloop
 endfacet
 facet normal -5.527858e-14  9.840371e-16  1.000000e+00
   outer loop
     vertex  1.518589e+02 -2.753076e+02 -1.439646e+01
     vertex  1.526525e+02 -2.758554e+02 -1.439646e+01
     vertex  1.532948e+02 -2.740762e+02 -1.439646e+01
   endloop
 endfacet
 facet normal -5.533601e-14  4.829728e-15  1.000000e+00
   outer loop
     vertex  1.537401e+02 -2.774311e+02 -1.439646e+01
     vertex  1.556315e+02 -2.774615e+02 -1.439646e+01
     vertex  1.551356e+02 -2.761541e+02 -1.439646e+01
   endloop
 endfacet
 facet normal -5.368771e-14  3.028388e-15  1.000000e+00
   outer loop
     vertex  1.537401e+02 -2.774311e+02 -1.439646e+01
     vertex  1.551356e+02 -2.761541e+02 -1.439646e+01
     vertex  1.532920e+02 -2.765772e+02 -1.439646e+01
   endloop
 endfacet
 facet normal -5.422650e-14  2.956613e-15  1.000000e+00
   outer loop
     vertex  1.509573e+02 -2.749657e+02 -1.439646e+01
     vertex  1.520567e+02 -2.734264e+02 -1.439646e+01
     vertex  1.506991e+02 -2.730918e+02 -1.439646e+01
   endloop
 endfacet
 facet normal -5.253120e-14  1.745727e-15  1.000000e+00
   outer loop
     vertex  1.509573e+02 -2.749657e+02 -1.439646e+01
     vertex  1.518589e+02 -2.753076e+02 -1.439646e+01
     vertex  1.520567e+02 -2.734264e+02 -1.439646e+01
   endloop
 endfacet
 facet normal -5.444149e-14 -2.115556e-16  1.000000e+00
   outer loop
     vertex  1.539709e+02 -2.783674e+02 -1.439646e+01
     vertex  1.558000e+02 -2.788495e+02 -1.439646e+01
     vertex  1.556315e+02 -2.774615e+02 -1.439646e+01
   endloop
 endfacet
 facet normal -5.538915e-14  1.525600e-15  1.000000e+00
   outer loop
     vertex  1.539709e+02 -2.783674e+02 -1.439646e+01
     vertex  1.556315e+02 -2.774615e+02 -1.439646e+01
     vertex  1.537401e+02 -2.774311e+02 -1.439646e+01
   endloop
 endfacet
 facet normal -5.335834e-14  2.021310e-15  1.000000e+00
   outer loop
     vertex  1.500000e+02 -2.748495e+02 -1.439646e+01
     vertex  1.506991e+02 -2.730918e+02 -1.439646e+01
     vertex  1.493009e+02 -2.730918e+02 -1.439646e+01
   endloop
 endfacet
 facet normal -5.532817e-14  2.804831e-15  1.000000e+00
   outer loop
     vertex  1.500000e+02 -2.748495e+02 -1.439646e+01
     vertex  1.509573e+02 -2.749657e+02 -1.439646e+01
     vertex  1.506991e+02 -2.730918e+02 -1.439646e+01
   endloop
 endfacet
 facet normal -5.413522e-14  2.733903e-15  1.000000e+00
   outer loop
     vertex  1.539709e+02 -2.793317e+02 -1.439646e+01
     vertex  1.556315e+02 -2.802376e+02 -1.439646e+01
     vertex  1.558000e+02 -2.788495e+02 -1.439646e+01
   endloop
 endfacet
 facet normal -5.390013e-14  1.842095e-15  1.000000e+00
   outer loop
     vertex  1.539709e+02 -2.793317e+02 -1.439646e+01
     vertex  1.558000e+02 -2.788495e+02 -1.439646e+01
     vertex  1.539709e+02 -2.783674e+02 -1.439646e+01
   endloop
 endfacet
 facet normal -5.137247e-14  1.389999e-15  1.000000e+00
   outer loop
     vertex  1.490427e+02 -2.749657e+02 -1.439646e+01
     vertex  1.493009e+02 -2.730918e+02 -1.439646e+01
     vertex  1.479433e+02 -2.734264e+02 -1.439646e+01
   endloop
 endfacet
 facet normal -5.402629e-14  1.755626e-15  1.000000e+00
   outer loop
     vertex  1.490427e+02 -2.749657e+02 -1.439646e+01
     vertex  1.500000e+02 -2.748495e+02 -1.439646e+01
     vertex  1.493009e+02 -2.730918e+02 -1.439646e+01
   endloop
 endfacet
 facet normal -5.357798e-14  2.655928e-15  1.000000e+00
   outer loop
     vertex  1.537401e+02 -2.802680e+02 -1.439646e+01
     vertex  1.551356e+02 -2.815449e+02 -1.439646e+01
     vertex  1.556315e+02 -2.802376e+02 -1.439646e+01
   endloop
 endfacet
 facet normal -5.359515e-14  3.723893e-15  1.000000e+00
   outer loop
     vertex  1.537401e+02 -2.802680e+02 -1.439646e+01
     vertex  1.556315e+02 -2.802376e+02 -1.439646e+01
     vertex  1.539709e+02 -2.793317e+02 -1.439646e+01
   endloop
 endfacet
 facet normal -5.166977e-14  1.177647e-15  1.000000e+00
   outer loop
     vertex  1.481411e+02 -2.753076e+02 -1.439646e+01
     vertex  1.490427e+02 -2.749657e+02 -1.439646e+01
     vertex  1.479433e+02 -2.734264e+02 -1.439646e+01
   endloop
 endfacet
 facet normal -5.359859e-14  9.748625e-16  1.000000e+00
   outer loop
     vertex  1.467052e+02 -2.740762e+02 -1.439646e+01
     vertex  1.481411e+02 -2.753076e+02 -1.439646e+01
     vertex  1.479433e+02 -2.734264e+02 -1.439646e+01
   endloop
 endfacet
 facet normal -5.198332e-14  4.398643e-15  1.000000e+00
   outer loop
     vertex  1.532920e+02 -2.811218e+02 -1.439646e+01
     vertex  1.551356e+02 -2.815449e+02 -1.439646e+01
     vertex  1.537401e+02 -2.802680e+02 -1.439646e+01
   endloop
 endfacet
 facet normal -5.278012e-14  9.264898e-16  1.000000e+00
   outer loop
     vertex  1.543414e+02 -2.826956e+02 -1.439646e+01
     vertex  1.551356e+02 -2.815449e+02 -1.439646e+01
     vertex  1.532920e+02 -2.811218e+02 -1.439646e+01
   endloop
 endfacet
 facet normal -5.403841e-14  4.620223e-16  1.000000e+00
   outer loop
     vertex  1.473475e+02 -2.758554e+02 -1.439646e+01
     vertex  1.481411e+02 -2.753076e+02 -1.439646e+01
     vertex  1.467052e+02 -2.740762e+02 -1.439646e+01
   endloop
 endfacet
 facet normal -5.179192e-14  1.585391e-15  1.000000e+00
   outer loop
     vertex  1.526525e+02 -2.818436e+02 -1.439646e+01
     vertex  1.543414e+02 -2.826956e+02 -1.439646e+01
     vertex  1.532920e+02 -2.811218e+02 -1.439646e+01
   endloop
 endfacet
 facet normal -5.455671e-14  2.749340e-16  1.000000e+00
   outer loop
     vertex  1.456586e+02 -2.750034e+02 -1.439646e+01
     vertex  1.473475e+02 -2.758554e+02 -1.439646e+01
     vertex  1.467052e+02 -2.740762e+02 -1.439646e+01
   endloop
 endfacet
 facet normal -5.324579e-14  2.873405e-15  1.000000e+00
   outer loop
     vertex  1.467080e+02 -2.765772e+02 -1.439646e+01
     vertex  1.473475e+02 -2.758554e+02 -1.439646e+01
     vertex  1.456586e+02 -2.750034e+02 -1.439646e+01
   endloop
 endfacet
 facet normal -5.198465e-14  1.203358e-15  1.000000e+00
   outer loop
     vertex  1.532948e+02 -2.836228e+02 -1.439646e+01
     vertex  1.543414e+02 -2.826956e+02 -1.439646e+01
     vertex  1.526525e+02 -2.818436e+02 -1.439646e+01
   endloop
 endfacet
 facet normal -5.762213e-14 -8.315761e-16  1.000000e+00
   outer loop
     vertex  1.518589e+02 -2.823914e+02 -1.439646e+01
     vertex  1.532948e+02 -2.836228e+02 -1.439646e+01
     vertex  1.526525e+02 -2.818436e+02 -1.439646e+01
   endloop
 endfacet
 facet normal -5.455538e-14  1.587781e-15  1.000000e+00
   outer loop
     vertex  1.448644e+02 -2.761541e+02 -1.439646e+01
     vertex  1.462599e+02 -2.774311e+02 -1.439646e+01
     vertex  1.467080e+02 -2.765772e+02 -1.439646e+01
   endloop
 endfacet
 facet normal -5.444363e-14  2.074725e-15  1.000000e+00
   outer loop
     vertex  1.448644e+02 -2.761541e+02 -1.439646e+01
     vertex  1.467080e+02 -2.765772e+02 -1.439646e+01
     vertex  1.456586e+02 -2.750034e+02 -1.439646e+01
   endloop
 endfacet
 facet normal -5.453794e-14  2.764644e-15  1.000000e+00
   outer loop
     vertex  1.520567e+02 -2.842726e+02 -1.439646e+01
     vertex  1.532948e+02 -2.836228e+02 -1.439646e+01
     vertex  1.518589e+02 -2.823914e+02 -1.439646e+01
   endloop
 endfacet
 facet normal -5.235853e-14  2.993773e-15  1.000000e+00
   outer loop
     vertex  1.520567e+02 -2.842726e+02 -1.439646e+01
     vertex  1.518589e+02 -2.823914e+02 -1.439646e+01
     vertex  1.509573e+02 -2.827334e+02 -1.439646e+01
   endloop
 endfacet
 facet normal -5.357798e-14  2.655928e-15  1.000000e+00
   outer loop
     vertex  1.443685e+02 -2.774615e+02 -1.439646e+01
     vertex  1.462599e+02 -2.774311e+02 -1.439646e+01
     vertex  1.448644e+02 -2.761541e+02 -1.439646e+01
   endloop
 endfacet
 facet normal -5.359515e-14  3.723893e-15  1.000000e+00
   outer loop
     vertex  1.443685e+02 -2.774615e+02 -1.439646e+01
     vertex  1.460291e+02 -2.783674e+02 -1.439646e+01
     vertex  1.462599e+02 -2.774311e+02 -1.439646e+01
   endloop
 endfacet
 facet normal -5.408137e-14  1.763215e-15  1.000000e+00
   outer loop
     vertex  1.506991e+02 -2.846072e+02 -1.439646e+01
     vertex  1.520567e+02 -2.842726e+02 -1.439646e+01
     vertex  1.509573e+02 -2.827334e+02 -1.439646e+01
   endloop
 endfacet
 facet normal -5.402629e-14  1.755626e-15  1.000000e+00
   outer loop
     vertex  1.506991e+02 -2.846072e+02 -1.439646e+01
     vertex  1.509573e+02 -2.827334e+02 -1.439646e+01
     vertex  1.500000e+02 -2.828496e+02 -1.439646e+01
   endloop
 endfacet
 facet normal -5.413522e-14  2.733903e-15  1.000000e+00
   outer loop
     vertex  1.442000e+02 -2.788495e+02 -1.439646e+01
     vertex  1.460291e+02 -2.783674e+02 -1.439646e+01
     vertex  1.443685e+02 -2.774615e+02 -1.439646e+01
   endloop
 endfacet
 facet normal -5.390013e-14  1.842095e-15  1.000000e+00
   outer loop
     vertex  1.442000e+02 -2.788495e+02 -1.439646e+01
     vertex  1.460291e+02 -2.793317e+02 -1.439646e+01
     vertex  1.460291e+02 -2.783674e+02 -1.439646e+01
   endloop
 endfacet
 facet normal -5.081746e-14  3.031965e-15  1.000000e+00
   outer loop
     vertex  1.493009e+02 -2.846072e+02 -1.439646e+01
     vertex  1.506991e+02 -2.846072e+02 -1.439646e+01
     vertex  1.500000e+02 -2.828496e+02 -1.439646e+01
   endloop
 endfacet
 facet normal -5.509405e-14  4.733016e-15  1.000000e+00
   outer loop
     vertex  1.493009e+02 -2.846072e+02 -1.439646e+01
     vertex  1.500000e+02 -2.828496e+02 -1.439646e+01
     vertex  1.490427e+02 -2.827334e+02 -1.439646e+01
   endloop
 endfacet
 facet normal -5.374447e-14  2.432613e-15  1.000000e+00
   outer loop
     vertex  1.443685e+02 -2.802376e+02 -1.439646e+01
     vertex  1.460291e+02 -2.793317e+02 -1.439646e+01
     vertex  1.442000e+02 -2.788495e+02 -1.439646e+01
   endloop
 endfacet
 facet normal -5.350325e-14  1.990434e-15  1.000000e+00
   outer loop
     vertex  1.443685e+02 -2.802376e+02 -1.439646e+01
     vertex  1.462599e+02 -2.802680e+02 -1.439646e+01
     vertex  1.460291e+02 -2.793317e+02 -1.439646e+01
   endloop
 endfacet
 facet normal -5.253120e-14  1.745727e-15  1.000000e+00
   outer loop
     vertex  1.479433e+02 -2.842726e+02 -1.439646e+01
     vertex  1.490427e+02 -2.827334e+02 -1.439646e+01
     vertex  1.481411e+02 -2.823914e+02 -1.439646e+01
   endloop
 endfacet
 facet normal -5.645167e-14  4.545971e-15  1.000000e+00
   outer loop
     vertex  1.479433e+02 -2.842726e+02 -1.439646e+01
     vertex  1.493009e+02 -2.846072e+02 -1.439646e+01
     vertex  1.490427e+02 -2.827334e+02 -1.439646e+01
   endloop
 endfacet
 facet normal -5.368771e-14  3.028388e-15  1.000000e+00
   outer loop
     vertex  1.448644e+02 -2.815449e+02 -1.439646e+01
     vertex  1.467080e+02 -2.811218e+02 -1.439646e+01
     vertex  1.462599e+02 -2.802680e+02 -1.439646e+01
   endloop
 endfacet
 facet normal -5.349003e-14  2.812354e-15  1.000000e+00
   outer loop
     vertex  1.448644e+02 -2.815449e+02 -1.439646e+01
     vertex  1.462599e+02 -2.802680e+02 -1.439646e+01
     vertex  1.443685e+02 -2.802376e+02 -1.439646e+01
   endloop
 endfacet
 facet normal -5.354932e-14  1.852765e-15  1.000000e+00
   outer loop
     vertex  1.467052e+02 -2.836228e+02 -1.439646e+01
     vertex  1.479433e+02 -2.842726e+02 -1.439646e+01
     vertex  1.481411e+02 -2.823914e+02 -1.439646e+01
   endloop
 endfacet
 facet normal -5.417520e-14  2.582557e-15  1.000000e+00
   outer loop
     vertex  1.467052e+02 -2.836228e+02 -1.439646e+01
     vertex  1.481411e+02 -2.823914e+02 -1.439646e+01
     vertex  1.473475e+02 -2.818436e+02 -1.439646e+01
   endloop
 endfacet
 facet normal -5.383218e-14  2.458737e-15  1.000000e+00
   outer loop
     vertex  1.456586e+02 -2.826956e+02 -1.439646e+01
     vertex  1.467052e+02 -2.836228e+02 -1.439646e+01
     vertex  1.473475e+02 -2.818436e+02 -1.439646e+01
   endloop
 endfacet
 facet normal -5.436612e-14  3.517104e-15  1.000000e+00
   outer loop
     vertex  1.456586e+02 -2.826956e+02 -1.439646e+01
     vertex  1.473475e+02 -2.818436e+02 -1.439646e+01
     vertex  1.467080e+02 -2.811218e+02 -1.439646e+01
   endloop
 endfacet
 facet normal -5.369757e-14  3.071333e-15  1.000000e+00
   outer loop
     vertex  1.456586e+02 -2.826956e+02 -1.439646e+01
     vertex  1.467080e+02 -2.811218e+02 -1.439646e+01
     vertex  1.448644e+02 -2.815449e+02 -1.439646e+01
   endloop
 endfacet
 facet normal  6.059941e-02  4.990811e-01 -8.644338e-01
   outer loop
     vertex  1.490427e+02 -2.827334e+02 -2.119646e+01
     vertex  1.500000e+02 -2.821730e+02 -2.080584e+01
     vertex  1.500000e+02 -2.828496e+02 -2.119646e+01
   endloop
 endfacet
 facet normal  6.059941e-02  4.990811e-01 -8.644338e-01
   outer loop
     vertex  1.490427e+02 -2.827334e+02 -2.119646e+01
     vertex  1.492046e+02 -2.820765e+02 -2.080584e+01
     vertex  1.500000e+02 -2.821730e+02 -2.080584e+01
   endloop
 endfacet
 facet normal  1.782764e-01  4.700763e-01 -8.644338e-01
   outer loop
     vertex  1.481411e+02 -2.823914e+02 -2.119646e+01
     vertex  1.484555e+02 -2.817923e+02 -2.080584e+01
     vertex  1.492046e+02 -2.820765e+02 -2.080584e+01
   endloop
 endfacet
 facet normal  1.782764e-01  4.700763e-01 -8.644338e-01
   outer loop
     vertex  1.481411e+02 -2.823914e+02 -2.119646e+01
     vertex  1.492046e+02 -2.820765e+02 -2.080584e+01
     vertex  1.490427e+02 -2.827334e+02 -2.119646e+01
   endloop
 endfacet
 facet normal  2.855927e-01  4.137524e-01 -8.644338e-01
   outer loop
     vertex  1.473475e+02 -2.818436e+02 -2.119646e+01
     vertex  1.477961e+02 -2.813372e+02 -2.080584e+01
     vertex  1.484555e+02 -2.817923e+02 -2.080584e+01
   endloop
 endfacet
 facet normal  2.855927e-01  4.137524e-01 -8.644338e-01
   outer loop
     vertex  1.473475e+02 -2.818436e+02 -2.119646e+01
     vertex  1.484555e+02 -2.817923e+02 -2.080584e+01
     vertex  1.481411e+02 -2.823914e+02 -2.119646e+01
   endloop
 endfacet
 facet normal  3.763113e-01  3.333827e-01 -8.644338e-01
   outer loop
     vertex  1.467080e+02 -2.811218e+02 -2.119646e+01
     vertex  1.472648e+02 -2.807375e+02 -2.080584e+01
     vertex  1.477961e+02 -2.813372e+02 -2.080584e+01
   endloop
 endfacet
 facet normal  3.763113e-01  3.333827e-01 -8.644338e-01
   outer loop
     vertex  1.467080e+02 -2.811218e+02 -2.119646e+01
     vertex  1.477961e+02 -2.813372e+02 -2.080584e+01
     vertex  1.473475e+02 -2.818436e+02 -2.119646e+01
   endloop
 endfacet
 facet normal  4.451601e-01  2.336380e-01 -8.644338e-01
   outer loop
     vertex  1.462599e+02 -2.802680e+02 -2.119646e+01
     vertex  1.468925e+02 -2.800281e+02 -2.080584e+01
     vertex  1.472648e+02 -2.807375e+02 -2.080584e+01
   endloop
 endfacet
 facet normal  4.451601e-01  2.336380e-01 -8.644338e-01
   outer loop
     vertex  1.462599e+02 -2.802680e+02 -2.119646e+01
     vertex  1.472648e+02 -2.807375e+02 -2.080584e+01
     vertex  1.467080e+02 -2.811218e+02 -2.119646e+01
   endloop
 endfacet
 facet normal  4.881378e-01  1.203152e-01 -8.644338e-01
   outer loop
     vertex  1.460291e+02 -2.793317e+02 -2.119646e+01
     vertex  1.467007e+02 -2.792501e+02 -2.080584e+01
     vertex  1.468925e+02 -2.800281e+02 -2.080584e+01
   endloop
 endfacet
 facet normal  4.881378e-01  1.203152e-01 -8.644338e-01
   outer loop
     vertex  1.460291e+02 -2.793317e+02 -2.119646e+01
     vertex  1.468925e+02 -2.800281e+02 -2.080584e+01
     vertex  1.462599e+02 -2.802680e+02 -2.119646e+01
   endloop
 endfacet
 facet normal  5.027467e-01 -3.847241e-15 -8.644338e-01
   outer loop
     vertex  1.460291e+02 -2.783674e+02 -2.119646e+01
     vertex  1.467007e+02 -2.784489e+02 -2.080584e+01
     vertex  1.467007e+02 -2.792501e+02 -2.080584e+01
   endloop
 endfacet
 facet normal  5.027467e-01 -3.184739e-15 -8.644338e-01
   outer loop
     vertex  1.460291e+02 -2.783674e+02 -2.119646e+01
     vertex  1.467007e+02 -2.792501e+02 -2.080584e+01
     vertex  1.460291e+02 -2.793317e+02 -2.119646e+01
   endloop
 endfacet
 facet normal  4.881378e-01 -1.203152e-01 -8.644338e-01
   outer loop
     vertex  1.462599e+02 -2.774311e+02 -2.119646e+01
     vertex  1.468925e+02 -2.776710e+02 -2.080584e+01
     vertex  1.467007e+02 -2.784489e+02 -2.080584e+01
   endloop
 endfacet
 facet normal  4.881378e-01 -1.203152e-01 -8.644338e-01
   outer loop
     vertex  1.462599e+02 -2.774311e+02 -2.119646e+01
     vertex  1.467007e+02 -2.784489e+02 -2.080584e+01
     vertex  1.460291e+02 -2.783674e+02 -2.119646e+01
   endloop
 endfacet
 facet normal  4.451601e-01 -2.336380e-01 -8.644338e-01
   outer loop
     vertex  1.467080e+02 -2.765772e+02 -2.119646e+01
     vertex  1.472648e+02 -2.769616e+02 -2.080584e+01
     vertex  1.468925e+02 -2.776710e+02 -2.080584e+01
   endloop
 endfacet
 facet normal  4.451601e-01 -2.336380e-01 -8.644338e-01
   outer loop
     vertex  1.467080e+02 -2.765772e+02 -2.119646e+01
     vertex  1.468925e+02 -2.776710e+02 -2.080584e+01
     vertex  1.462599e+02 -2.774311e+02 -2.119646e+01
   endloop
 endfacet
 facet normal  3.763113e-01 -3.333827e-01 -8.644338e-01
   outer loop
     vertex  1.473475e+02 -2.758554e+02 -2.119646e+01
     vertex  1.477961e+02 -2.763619e+02 -2.080584e+01
     vertex  1.472648e+02 -2.769616e+02 -2.080584e+01
   endloop
 endfacet
 facet normal  3.763113e-01 -3.333827e-01 -8.644338e-01
   outer loop
     vertex  1.473475e+02 -2.758554e+02 -2.119646e+01
     vertex  1.472648e+02 -2.769616e+02 -2.080584e+01
     vertex  1.467080e+02 -2.765772e+02 -2.119646e+01
   endloop
 endfacet
 facet normal  2.855927e-01 -4.137524e-01 -8.644338e-01
   outer loop
     vertex  1.481411e+02 -2.753076e+02 -2.119646e+01
     vertex  1.484555e+02 -2.759067e+02 -2.080584e+01
     vertex  1.477961e+02 -2.763619e+02 -2.080584e+01
   endloop
 endfacet
 facet normal  2.855927e-01 -4.137524e-01 -8.644338e-01
   outer loop
     vertex  1.481411e+02 -2.753076e+02 -2.119646e+01
     vertex  1.477961e+02 -2.763619e+02 -2.080584e+01
     vertex  1.473475e+02 -2.758554e+02 -2.119646e+01
   endloop
 endfacet
 facet normal  1.782764e-01 -4.700763e-01 -8.644338e-01
   outer loop
     vertex  1.490427e+02 -2.749657e+02 -2.119646e+01
     vertex  1.484555e+02 -2.759067e+02 -2.080584e+01
     vertex  1.481411e+02 -2.753076e+02 -2.119646e+01
   endloop
 endfacet
 facet normal  1.782764e-01 -4.700763e-01 -8.644338e-01
   outer loop
     vertex  1.490427e+02 -2.749657e+02 -2.119646e+01
     vertex  1.492046e+02 -2.756226e+02 -2.080584e+01
     vertex  1.484555e+02 -2.759067e+02 -2.080584e+01
   endloop
 endfacet
 facet normal  6.059941e-02 -4.990811e-01 -8.644338e-01
   outer loop
     vertex  1.500000e+02 -2.748495e+02 -2.119646e+01
     vertex  1.492046e+02 -2.756226e+02 -2.080584e+01
     vertex  1.490427e+02 -2.749657e+02 -2.119646e+01
   endloop
 endfacet
 facet normal  6.059941e-02 -4.990811e-01 -8.644338e-01
   outer loop
     vertex  1.500000e+02 -2.748495e+02 -2.119646e+01
     vertex  1.500000e+02 -2.755260e+02 -2.080584e+01
     vertex  1.492046e+02 -2.756226e+02 -2.080584e+01
   endloop
 endfacet
 facet normal -6.059941e-02 -4.990811e-01 -8.644338e-01
   outer loop
     vertex  1.509573e+02 -2.749657e+02 -2.119646e+01
     vertex  1.500000e+02 -2.755260e+02 -2.080584e+01
     vertex  1.500000e+02 -2.748495e+02 -2.119646e+01
   endloop
 endfacet
 facet normal -6.059941e-02 -4.990811e-01 -8.644338e-01
   outer loop
     vertex  1.509573e+02 -2.749657e+02 -2.119646e+01
     vertex  1.507954e+02 -2.756226e+02 -2.080584e+01
     vertex  1.500000e+02 -2.755260e+02 -2.080584e+01
   endloop
 endfacet
 facet normal -1.782764e-01 -4.700763e-01 -8.644338e-01
   outer loop
     vertex  1.518589e+02 -2.753076e+02 -2.119646e+01
     vertex  1.507954e+02 -2.756226e+02 -2.080584e+01
     vertex  1.509573e+02 -2.749657e+02 -2.119646e+01
   endloop
 endfacet
 facet normal -1.782764e-01 -4.700763e-01 -8.644338e-01
   outer loop
     vertex  1.518589e+02 -2.753076e+02 -2.119646e+01
     vertex  1.515445e+02 -2.759067e+02 -2.080584e+01
     vertex  1.507954e+02 -2.756226e+02 -2.080584e+01
   endloop
 endfacet
 facet normal -2.855927e-01 -4.137524e-01 -8.644338e-01
   outer loop
     vertex  1.526525e+02 -2.758554e+02 -2.119646e+01
     vertex  1.515445e+02 -2.759067e+02 -2.080584e+01
     vertex  1.518589e+02 -2.753076e+02 -2.119646e+01
   endloop
 endfacet
 facet normal -2.855927e-01 -4.137524e-01 -8.644338e-01
   outer loop
     vertex  1.526525e+02 -2.758554e+02 -2.119646e+01
     vertex  1.522039e+02 -2.763619e+02 -2.080584e+01
     vertex  1.515445e+02 -2.759067e+02 -2.080584e+01
   endloop
 endfacet
 facet normal -3.763113e-01 -3.333827e-01 -8.644338e-01
   outer loop
     vertex  1.532920e+02 -2.765772e+02 -2.119646e+01
     vertex  1.522039e+02 -2.763619e+02 -2.080584e+01
     vertex  1.526525e+02 -2.758554e+02 -2.119646e+01
   endloop
 endfacet
 facet normal -3.763113e-01 -3.333827e-01 -8.644338e-01
   outer loop
     vertex  1.532920e+02 -2.765772e+02 -2.119646e+01
     vertex  1.527352e+02 -2.769616e+02 -2.080584e+01
     vertex  1.522039e+02 -2.763619e+02 -2.080584e+01
   endloop
 endfacet
 facet normal -4.451601e-01 -2.336380e-01 -8.644338e-01
   outer loop
     vertex  1.537401e+02 -2.774311e+02 -2.119646e+01
     vertex  1.527352e+02 -2.769616e+02 -2.080584e+01
     vertex  1.532920e+02 -2.765772e+02 -2.119646e+01
   endloop
 endfacet
 facet normal -4.451601e-01 -2.336380e-01 -8.644338e-01
   outer loop
     vertex  1.537401e+02 -2.774311e+02 -2.119646e+01
     vertex  1.531075e+02 -2.776710e+02 -2.080584e+01
     vertex  1.527352e+02 -2.769616e+02 -2.080584e+01
   endloop
 endfacet
 facet normal -4.881378e-01 -1.203152e-01 -8.644338e-01
   outer loop
     vertex  1.539709e+02 -2.783674e+02 -2.119646e+01
     vertex  1.531075e+02 -2.776710e+02 -2.080584e+01
     vertex  1.537401e+02 -2.774311e+02 -2.119646e+01
   endloop
 endfacet
 facet normal -4.881378e-01 -1.203152e-01 -8.644338e-01
   outer loop
     vertex  1.539709e+02 -2.783674e+02 -2.119646e+01
     vertex  1.532993e+02 -2.784489e+02 -2.080584e+01
     vertex  1.531075e+02 -2.776710e+02 -2.080584e+01
   endloop
 endfacet
 facet normal -5.027467e-01  0.000000e+00 -8.644338e-01
   outer loop
     vertex  1.539709e+02 -2.793317e+02 -2.119646e+01
     vertex  1.532993e+02 -2.784489e+02 -2.080584e+01
     vertex  1.539709e+02 -2.783674e+02 -2.119646e+01
   endloop
 endfacet
 facet normal -5.027467e-01 -3.847241e-15 -8.644338e-01
   outer loop
     vertex  1.539709e+02 -2.793317e+02 -2.119646e+01
     vertex  1.532993e+02 -2.792501e+02 -2.080584e+01
     vertex  1.532993e+02 -2.784489e+02 -2.080584e+01
   endloop
 endfacet
 facet normal -4.881378e-01  1.203152e-01 -8.644338e-01
   outer loop
     vertex  1.537401e+02 -2.802680e+02 -2.119646e+01
     vertex  1.532993e+02 -2.792501e+02 -2.080584e+01
     vertex  1.539709e+02 -2.793317e+02 -2.119646e+01
   endloop
 endfacet
 facet normal -4.881378e-01  1.203152e-01 -8.644338e-01
   outer loop
     vertex  1.537401e+02 -2.802680e+02 -2.119646e+01
     vertex  1.531075e+02 -2.800281e+02 -2.080584e+01
     vertex  1.532993e+02 -2.792501e+02 -2.080584e+01
   endloop
 endfacet
 facet normal -4.451601e-01  2.336380e-01 -8.644338e-01
   outer loop
     vertex  1.532920e+02 -2.811218e+02 -2.119646e+01
     vertex  1.531075e+02 -2.800281e+02 -2.080584e+01
     vertex  1.537401e+02 -2.802680e+02 -2.119646e+01
   endloop
 endfacet
 facet normal -4.451601e-01  2.336380e-01 -8.644338e-01
   outer loop
     vertex  1.532920e+02 -2.811218e+02 -2.119646e+01
     vertex  1.527352e+02 -2.807375e+02 -2.080584e+01
     vertex  1.531075e+02 -2.800281e+02 -2.080584e+01
   endloop
 endfacet
 facet normal -3.763113e-01  3.333827e-01 -8.644338e-01
   outer loop
     vertex  1.526525e+02 -2.818436e+02 -2.119646e+01
     vertex  1.522039e+02 -2.813372e+02 -2.080584e+01
     vertex  1.527352e+02 -2.807375e+02 -2.080584e+01
   endloop
 endfacet
 facet normal -3.763113e-01  3.333827e-01 -8.644338e-01
   outer loop
     vertex  1.526525e+02 -2.818436e+02 -2.119646e+01
     vertex  1.527352e+02 -2.807375e+02 -2.080584e+01
     vertex  1.532920e+02 -2.811218e+02 -2.119646e+01
   endloop
 endfacet
 facet normal -2.855927e-01  4.137524e-01 -8.644338e-01
   outer loop
     vertex  1.515445e+02 -2.817923e+02 -2.080584e+01
     vertex  1.522039e+02 -2.813372e+02 -2.080584e+01
     vertex  1.526525e+02 -2.818436e+02 -2.119646e+01
   endloop
 endfacet
 facet normal -2.855927e-01  4.137524e-01 -8.644338e-01
   outer loop
     vertex  1.518589e+02 -2.823914e+02 -2.119646e+01
     vertex  1.515445e+02 -2.817923e+02 -2.080584e+01
     vertex  1.526525e+02 -2.818436e+02 -2.119646e+01
   endloop
 endfacet
 facet normal -1.782764e-01  4.700763e-01 -8.644338e-01
   outer loop
     vertex  1.509573e+02 -2.827334e+02 -2.119646e+01
     vertex  1.507954e+02 -2.820765e+02 -2.080584e+01
     vertex  1.515445e+02 -2.817923e+02 -2.080584e+01
   endloop
 endfacet
 facet normal -1.782764e-01  4.700763e-01 -8.644338e-01
   outer loop
     vertex  1.509573e+02 -2.827334e+02 -2.119646e+01
     vertex  1.515445e+02 -2.817923e+02 -2.080584e+01
     vertex  1.518589e+02 -2.823914e+02 -2.119646e+01
   endloop
 endfacet
 facet normal -6.059941e-02  4.990811e-01 -8.644338e-01
   outer loop
     vertex  1.500000e+02 -2.821730e+02 -2.080584e+01
     vertex  1.507954e+02 -2.820765e+02 -2.080584e+01
     vertex  1.509573e+02 -2.827334e+02 -2.119646e+01
   endloop
 endfacet
 facet normal -6.059941e-02  4.990811e-01 -8.644338e-01
   outer loop
     vertex  1.500000e+02 -2.828496e+02 -2.119646e+01
     vertex  1.500000e+02 -2.821730e+02 -2.080584e+01
     vertex  1.509573e+02 -2.827334e+02 -2.119646e+01
   endloop
 endfacet
 facet normal  5.321634e-14 -1.238038e-15 -1.000000e+00
   outer loop
     vertex  1.526525e+02 -2.758554e+02 -2.119646e+01
     vertex  1.532948e+02 -2.740762e+02 -2.119646e+01
     vertex  1.543414e+02 -2.750034e+02 -2.119646e+01
   endloop
 endfacet
 facet normal  5.452932e-14 -2.497215e-15 -1.000000e+00
   outer loop
     vertex  1.532920e+02 -2.765772e+02 -2.119646e+01
     vertex  1.543414e+02 -2.750034e+02 -2.119646e+01
     vertex  1.551356e+02 -2.761541e+02 -2.119646e+01
   endloop
 endfacet
 facet normal  5.350805e-14 -1.816272e-15 -1.000000e+00
   outer loop
     vertex  1.532920e+02 -2.765772e+02 -2.119646e+01
     vertex  1.526525e+02 -2.758554e+02 -2.119646e+01
     vertex  1.543414e+02 -2.750034e+02 -2.119646e+01
   endloop
 endfacet
 facet normal  5.354932e-14 -1.852765e-15 -1.000000e+00
   outer loop
     vertex  1.518589e+02 -2.753076e+02 -2.119646e+01
     vertex  1.520567e+02 -2.734264e+02 -2.119646e+01
     vertex  1.532948e+02 -2.740762e+02 -2.119646e+01
   endloop
 endfacet
 facet normal  5.293503e-14 -1.136498e-15 -1.000000e+00
   outer loop
     vertex  1.518589e+02 -2.753076e+02 -2.119646e+01
     vertex  1.532948e+02 -2.740762e+02 -2.119646e+01
     vertex  1.526525e+02 -2.758554e+02 -2.119646e+01
   endloop
 endfacet
 facet normal  5.256704e-14 -1.803666e-15 -1.000000e+00
   outer loop
     vertex  1.537401e+02 -2.774311e+02 -2.119646e+01
     vertex  1.551356e+02 -2.761541e+02 -2.119646e+01
     vertex  1.556315e+02 -2.774615e+02 -2.119646e+01
   endloop
 endfacet
 facet normal  5.497374e-14 -4.433819e-15 -1.000000e+00
   outer loop
     vertex  1.537401e+02 -2.774311e+02 -2.119646e+01
     vertex  1.532920e+02 -2.765772e+02 -2.119646e+01
     vertex  1.551356e+02 -2.761541e+02 -2.119646e+01
   endloop
 endfacet
 facet normal  5.669354e-14 -3.564684e-15 -1.000000e+00
   outer loop
     vertex  1.509573e+02 -2.749657e+02 -2.119646e+01
     vertex  1.506991e+02 -2.730918e+02 -2.119646e+01
     vertex  1.520567e+02 -2.734264e+02 -2.119646e+01
   endloop
 endfacet
 facet normal  5.442578e-14 -1.944911e-15 -1.000000e+00
   outer loop
     vertex  1.509573e+02 -2.749657e+02 -2.119646e+01
     vertex  1.520567e+02 -2.734264e+02 -2.119646e+01
     vertex  1.518589e+02 -2.753076e+02 -2.119646e+01
   endloop
 endfacet
 facet normal  5.339596e-14 -3.754697e-15 -1.000000e+00
   outer loop
     vertex  1.539709e+02 -2.783674e+02 -2.119646e+01
     vertex  1.556315e+02 -2.774615e+02 -2.119646e+01
     vertex  1.558000e+02 -2.788495e+02 -2.119646e+01
   endloop
 endfacet
 facet normal  5.256030e-14 -2.222851e-15 -1.000000e+00
   outer loop
     vertex  1.539709e+02 -2.783674e+02 -2.119646e+01
     vertex  1.537401e+02 -2.774311e+02 -2.119646e+01
     vertex  1.556315e+02 -2.774615e+02 -2.119646e+01
   endloop
 endfacet
 facet normal  5.081746e-14 -2.021310e-15 -1.000000e+00
   outer loop
     vertex  1.500000e+02 -2.748495e+02 -2.119646e+01
     vertex  1.493009e+02 -2.730918e+02 -2.119646e+01
     vertex  1.506991e+02 -2.730918e+02 -2.119646e+01
   endloop
 endfacet
 facet normal  5.521111e-14 -3.768923e-15 -1.000000e+00
   outer loop
     vertex  1.500000e+02 -2.748495e+02 -2.119646e+01
     vertex  1.506991e+02 -2.730918e+02 -2.119646e+01
     vertex  1.509573e+02 -2.749657e+02 -2.119646e+01
   endloop
 endfacet
 facet normal  5.479000e-14 -1.533640e-15 -1.000000e+00
   outer loop
     vertex  1.539709e+02 -2.793317e+02 -2.119646e+01
     vertex  1.558000e+02 -2.788495e+02 -2.119646e+01
     vertex  1.556315e+02 -2.802376e+02 -2.119646e+01
   endloop
 endfacet
 facet normal  5.438572e-14  0.000000e+00 -1.000000e+00
   outer loop
     vertex  1.539709e+02 -2.793317e+02 -2.119646e+01
     vertex  1.539709e+02 -2.783674e+02 -2.119646e+01
     vertex  1.558000e+02 -2.788495e+02 -2.119646e+01
   endloop
 endfacet
 facet normal  5.543582e-14 -1.949824e-15 -1.000000e+00
   outer loop
     vertex  1.490427e+02 -2.749657e+02 -2.119646e+01
     vertex  1.479433e+02 -2.734264e+02 -2.119646e+01
     vertex  1.493009e+02 -2.730918e+02 -2.119646e+01
   endloop
 endfacet
 facet normal  5.213909e-14 -1.495620e-15 -1.000000e+00
   outer loop
     vertex  1.490427e+02 -2.749657e+02 -2.119646e+01
     vertex  1.493009e+02 -2.730918e+02 -2.119646e+01
     vertex  1.500000e+02 -2.748495e+02 -2.119646e+01
   endloop
 endfacet
 facet normal  5.265498e-14 -3.664616e-15 -1.000000e+00
   outer loop
     vertex  1.537401e+02 -2.802680e+02 -2.119646e+01
     vertex  1.556315e+02 -2.802376e+02 -2.119646e+01
     vertex  1.551356e+02 -2.815449e+02 -2.119646e+01
   endloop
 endfacet
 facet normal  5.268283e-14 -5.396252e-15 -1.000000e+00
   outer loop
     vertex  1.537401e+02 -2.802680e+02 -2.119646e+01
     vertex  1.539709e+02 -2.793317e+02 -2.119646e+01
     vertex  1.556315e+02 -2.802376e+02 -2.119646e+01
   endloop
 endfacet
 facet normal  5.580331e-14 -1.687341e-15 -1.000000e+00
   outer loop
     vertex  1.481411e+02 -2.753076e+02 -2.119646e+01
     vertex  1.479433e+02 -2.734264e+02 -2.119646e+01
     vertex  1.490427e+02 -2.749657e+02 -2.119646e+01
   endloop
 endfacet
 facet normal  5.270851e-14 -2.012709e-15 -1.000000e+00
   outer loop
     vertex  1.467052e+02 -2.740762e+02 -2.119646e+01
     vertex  1.479433e+02 -2.734264e+02 -2.119646e+01
     vertex  1.481411e+02 -2.753076e+02 -2.119646e+01
   endloop
 endfacet
 facet normal  5.326935e-14 -2.993212e-15 -1.000000e+00
   outer loop
     vertex  1.532920e+02 -2.811218e+02 -2.119646e+01
     vertex  1.537401e+02 -2.802680e+02 -2.119646e+01
     vertex  1.551356e+02 -2.815449e+02 -2.119646e+01
   endloop
 endfacet
 facet normal  5.330606e-14 -2.833215e-15 -1.000000e+00
   outer loop
     vertex  1.543414e+02 -2.826956e+02 -2.119646e+01
     vertex  1.532920e+02 -2.811218e+02 -2.119646e+01
     vertex  1.551356e+02 -2.815449e+02 -2.119646e+01
   endloop
 endfacet
 facet normal  5.403841e-14 -4.620223e-16 -1.000000e+00
   outer loop
     vertex  1.473475e+02 -2.758554e+02 -2.119646e+01
     vertex  1.467052e+02 -2.740762e+02 -2.119646e+01
     vertex  1.481411e+02 -2.753076e+02 -2.119646e+01
   endloop
 endfacet
 facet normal  5.641579e-14 -7.597566e-16 -1.000000e+00
   outer loop
     vertex  1.526525e+02 -2.818436e+02 -2.119646e+01
     vertex  1.532920e+02 -2.811218e+02 -2.119646e+01
     vertex  1.543414e+02 -2.826956e+02 -2.119646e+01
   endloop
 endfacet
 facet normal  5.455671e-14 -2.749340e-16 -1.000000e+00
   outer loop
     vertex  1.456586e+02 -2.750034e+02 -2.119646e+01
     vertex  1.467052e+02 -2.740762e+02 -2.119646e+01
     vertex  1.473475e+02 -2.758554e+02 -2.119646e+01
   endloop
 endfacet
 facet normal  5.324579e-14 -2.873405e-15 -1.000000e+00
   outer loop
     vertex  1.467080e+02 -2.765772e+02 -2.119646e+01
     vertex  1.456586e+02 -2.750034e+02 -2.119646e+01
     vertex  1.473475e+02 -2.758554e+02 -2.119646e+01
   endloop
 endfacet
 facet normal  5.589709e-14 -1.787906e-15 -1.000000e+00
   outer loop
     vertex  1.532948e+02 -2.836228e+02 -2.119646e+01
     vertex  1.526525e+02 -2.818436e+02 -2.119646e+01
     vertex  1.543414e+02 -2.826956e+02 -2.119646e+01
   endloop
 endfacet
 facet normal  5.155807e-14 -3.354141e-15 -1.000000e+00
   outer loop
     vertex  1.518589e+02 -2.823914e+02 -2.119646e+01
     vertex  1.526525e+02 -2.818436e+02 -2.119646e+01
     vertex  1.532948e+02 -2.836228e+02 -2.119646e+01
   endloop
 endfacet
 facet normal  5.330606e-14 -2.833215e-15 -1.000000e+00
   outer loop
     vertex  1.448644e+02 -2.761541e+02 -2.119646e+01
     vertex  1.456586e+02 -2.750034e+02 -2.119646e+01
     vertex  1.467080e+02 -2.765772e+02 -2.119646e+01
   endloop
 endfacet
 facet normal  5.326935e-14 -2.993212e-15 -1.000000e+00
   outer loop
     vertex  1.448644e+02 -2.761541e+02 -2.119646e+01
     vertex  1.467080e+02 -2.765772e+02 -2.119646e+01
     vertex  1.462599e+02 -2.774311e+02 -2.119646e+01
   endloop
 endfacet
 facet normal  5.448867e-14  6.298419e-17 -1.000000e+00
   outer loop
     vertex  1.520567e+02 -2.842726e+02 -2.119646e+01
     vertex  1.518589e+02 -2.823914e+02 -2.119646e+01
     vertex  1.532948e+02 -2.836228e+02 -2.119646e+01
   endloop
 endfacet
 facet normal  5.511455e-14  1.287850e-16 -1.000000e+00
   outer loop
     vertex  1.520567e+02 -2.842726e+02 -2.119646e+01
     vertex  1.509573e+02 -2.827334e+02 -2.119646e+01
     vertex  1.518589e+02 -2.823914e+02 -2.119646e+01
   endloop
 endfacet
 facet normal  5.450097e-14 -1.647241e-15 -1.000000e+00
   outer loop
     vertex  1.443685e+02 -2.774615e+02 -2.119646e+01
     vertex  1.448644e+02 -2.761541e+02 -2.119646e+01
     vertex  1.462599e+02 -2.774311e+02 -2.119646e+01
   endloop
 endfacet
 facet normal  5.450747e-14 -2.051534e-15 -1.000000e+00
   outer loop
     vertex  1.443685e+02 -2.774615e+02 -2.119646e+01
     vertex  1.462599e+02 -2.774311e+02 -2.119646e+01
     vertex  1.460291e+02 -2.783674e+02 -2.119646e+01
   endloop
 endfacet
 facet normal  5.272692e-14 -1.576607e-15 -1.000000e+00
   outer loop
     vertex  1.506991e+02 -2.846072e+02 -2.119646e+01
     vertex  1.509573e+02 -2.827334e+02 -2.119646e+01
     vertex  1.520567e+02 -2.842726e+02 -2.119646e+01
   endloop
 endfacet
 facet normal  5.591348e-14 -2.015633e-15 -1.000000e+00
   outer loop
     vertex  1.506991e+02 -2.846072e+02 -2.119646e+01
     vertex  1.500000e+02 -2.828496e+02 -2.119646e+01
     vertex  1.509573e+02 -2.827334e+02 -2.119646e+01
   endloop
 endfacet
 facet normal  5.348044e-14 -3.934166e-15 -1.000000e+00
   outer loop
     vertex  1.442000e+02 -2.788495e+02 -2.119646e+01
     vertex  1.443685e+02 -2.774615e+02 -2.119646e+01
     vertex  1.460291e+02 -2.783674e+02 -2.119646e+01
   endloop
 endfacet
 facet normal  5.341455e-14 -3.684190e-15 -1.000000e+00
   outer loop
     vertex  1.442000e+02 -2.788495e+02 -2.119646e+01
     vertex  1.460291e+02 -2.783674e+02 -2.119646e+01
     vertex  1.460291e+02 -2.793317e+02 -2.119646e+01
   endloop
 endfacet
 facet normal  5.143672e-14 -4.288936e-15 -1.000000e+00
   outer loop
     vertex  1.493009e+02 -2.846072e+02 -2.119646e+01
     vertex  1.490427e+02 -2.827334e+02 -2.119646e+01
     vertex  1.500000e+02 -2.828496e+02 -2.119646e+01
   endloop
 endfacet
 facet normal  5.081746e-14 -4.042620e-15 -1.000000e+00
   outer loop
     vertex  1.493009e+02 -2.846072e+02 -2.119646e+01
     vertex  1.500000e+02 -2.828496e+02 -2.119646e+01
     vertex  1.506991e+02 -2.846072e+02 -2.119646e+01
   endloop
 endfacet
 facet normal  5.256030e-14 -2.222851e-15 -1.000000e+00
   outer loop
     vertex  1.443685e+02 -2.802376e+02 -2.119646e+01
     vertex  1.460291e+02 -2.793317e+02 -2.119646e+01
     vertex  1.462599e+02 -2.802680e+02 -2.119646e+01
   endloop
 endfacet
 facet normal  5.339596e-14 -3.754697e-15 -1.000000e+00
   outer loop
     vertex  1.443685e+02 -2.802376e+02 -2.119646e+01
     vertex  1.442000e+02 -2.788495e+02 -2.119646e+01
     vertex  1.460291e+02 -2.793317e+02 -2.119646e+01
   endloop
 endfacet
 facet normal  5.669354e-14 -3.564684e-15 -1.000000e+00
   outer loop
     vertex  1.479433e+02 -2.842726e+02 -2.119646e+01
     vertex  1.490427e+02 -2.827334e+02 -2.119646e+01
     vertex  1.493009e+02 -2.846072e+02 -2.119646e+01
   endloop
 endfacet
 facet normal  5.442578e-14 -1.944911e-15 -1.000000e+00
   outer loop
     vertex  1.479433e+02 -2.842726e+02 -2.119646e+01
     vertex  1.481411e+02 -2.823914e+02 -2.119646e+01
     vertex  1.490427e+02 -2.827334e+02 -2.119646e+01
   endloop
 endfacet
 facet normal  5.256704e-14 -1.803666e-15 -1.000000e+00
   outer loop
     vertex  1.448644e+02 -2.815449e+02 -2.119646e+01
     vertex  1.443685e+02 -2.802376e+02 -2.119646e+01
     vertex  1.462599e+02 -2.802680e+02 -2.119646e+01
   endloop
 endfacet
 facet normal  5.497374e-14 -4.433819e-15 -1.000000e+00
   outer loop
     vertex  1.448644e+02 -2.815449e+02 -2.119646e+01
     vertex  1.462599e+02 -2.802680e+02 -2.119646e+01
     vertex  1.467080e+02 -2.811218e+02 -2.119646e+01
   endloop
 endfacet
 facet normal  5.293503e-14 -1.136498e-15 -1.000000e+00
   outer loop
     vertex  1.467052e+02 -2.836228e+02 -2.119646e+01
     vertex  1.473475e+02 -2.818436e+02 -2.119646e+01
     vertex  1.481411e+02 -2.823914e+02 -2.119646e+01
   endloop
 endfacet
 facet normal  5.354932e-14 -1.852765e-15 -1.000000e+00
   outer loop
     vertex  1.467052e+02 -2.836228e+02 -2.119646e+01
     vertex  1.481411e+02 -2.823914e+02 -2.119646e+01
     vertex  1.479433e+02 -2.842726e+02 -2.119646e+01
   endloop
 endfacet
 facet normal  5.391769e-14  1.679997e-16 -1.000000e+00
   outer loop
     vertex  1.456586e+02 -2.826956e+02 -2.119646e+01
     vertex  1.448644e+02 -2.815449e+02 -2.119646e+01
     vertex  1.467080e+02 -2.811218e+02 -2.119646e+01
   endloop
 endfacet
 facet normal  5.496192e-14 -5.282579e-16 -1.000000e+00
   outer loop
     vertex  1.456586e+02 -2.826956e+02 -2.119646e+01
     vertex  1.467080e+02 -2.811218e+02 -2.119646e+01
     vertex  1.473475e+02 -2.818436e+02 -2.119646e+01
   endloop
 endfacet
 facet normal  5.578840e-14 -2.166463e-15 -1.000000e+00
   outer loop
     vertex  1.456586e+02 -2.826956e+02 -2.119646e+01
     vertex  1.473475e+02 -2.818436e+02 -2.119646e+01
     vertex  1.467052e+02 -2.836228e+02 -2.119646e+01
   endloop
 endfacet
 facet normal  4.990811e-01 -6.059941e-02  8.644338e-01
   outer loop
     vertex  1.575056e+02 -2.788495e+02 -1.538116e+01
     vertex  1.558000e+02 -2.788495e+02 -1.439646e+01
     vertex  1.556315e+02 -2.802376e+02 -1.439646e+01
   endloop
 endfacet
 facet normal  4.500616e-01 -1.706858e-01  8.765335e-01
   outer loop
     vertex  1.562144e+02 -2.810859e+02 -1.486096e+01
     vertex  1.556315e+02 -2.802376e+02 -1.439646e+01
     vertex  1.551356e+02 -2.815449e+02 -1.439646e+01
   endloop
 endfacet
 facet normal  5.221954e-01 -1.046118e-01  8.463855e-01
   outer loop
     vertex  1.562144e+02 -2.810859e+02 -1.486096e+01
     vertex  1.575056e+02 -2.788495e+02 -1.538116e+01
     vertex  1.556315e+02 -2.802376e+02 -1.439646e+01
   endloop
 endfacet
 facet normal  4.073637e-01 -2.811829e-01  8.689022e-01
   outer loop
     vertex  1.550439e+02 -2.831132e+02 -1.486096e+01
     vertex  1.551356e+02 -2.815449e+02 -1.439646e+01
     vertex  1.543414e+02 -2.826956e+02 -1.439646e+01
   endloop
 endfacet
 facet normal  4.766124e-01 -2.751723e-01  8.349377e-01
   outer loop
     vertex  1.550439e+02 -2.831132e+02 -1.486096e+01
     vertex  1.562144e+02 -2.810859e+02 -1.486096e+01
     vertex  1.551356e+02 -2.815449e+02 -1.439646e+01
   endloop
 endfacet
 facet normal  3.398011e-01 -3.835562e-01  8.587316e-01
   outer loop
     vertex  1.532948e+02 -2.836228e+02 -1.439646e+01
     vertex  1.550439e+02 -2.831132e+02 -1.486096e+01
     vertex  1.543414e+02 -2.826956e+02 -1.439646e+01
   endloop
 endfacet
 facet normal  2.287112e-01 -4.357727e-01  8.705133e-01
   outer loop
     vertex  1.537528e+02 -2.853495e+02 -1.538116e+01
     vertex  1.532948e+02 -2.836228e+02 -1.439646e+01
     vertex  1.520567e+02 -2.842726e+02 -1.439646e+01
   endloop
 endfacet
 facet normal  3.416517e-01 -3.955597e-01  8.525295e-01
   outer loop
     vertex  1.537528e+02 -2.853495e+02 -1.538116e+01
     vertex  1.550439e+02 -2.831132e+02 -1.486096e+01
     vertex  1.532948e+02 -2.836228e+02 -1.439646e+01
   endloop
 endfacet
 facet normal  1.164971e-01 -4.726475e-01  8.735175e-01
   outer loop
     vertex  1.511705e+02 -2.853495e+02 -1.486096e+01
     vertex  1.520567e+02 -2.842726e+02 -1.439646e+01
     vertex  1.506991e+02 -2.846072e+02 -1.439646e+01
   endloop
 endfacet
 facet normal  1.704283e-01 -5.051720e-01  8.460233e-01
   outer loop
     vertex  1.511705e+02 -2.853495e+02 -1.486096e+01
     vertex  1.537528e+02 -2.853495e+02 -1.538116e+01
     vertex  1.520567e+02 -2.842726e+02 -1.439646e+01
   endloop
 endfacet
 facet normal -4.308179e-14 -5.304680e-01  8.477050e-01
   outer loop
     vertex  1.488295e+02 -2.853495e+02 -1.486096e+01
     vertex  1.506991e+02 -2.846072e+02 -1.439646e+01
     vertex  1.493009e+02 -2.846072e+02 -1.439646e+01
   endloop
 endfacet
 facet normal -4.438549e-14 -5.304680e-01  8.477050e-01
   outer loop
     vertex  1.488295e+02 -2.853495e+02 -1.486096e+01
     vertex  1.511705e+02 -2.853495e+02 -1.486096e+01
     vertex  1.506991e+02 -2.846072e+02 -1.439646e+01
   endloop
 endfacet
 facet normal -1.164971e-01 -4.726475e-01  8.735175e-01
   outer loop
     vertex  1.479433e+02 -2.842726e+02 -1.439646e+01
     vertex  1.488295e+02 -2.853495e+02 -1.486096e+01
     vertex  1.493009e+02 -2.846072e+02 -1.439646e+01
   endloop
 endfacet
 facet normal -2.287112e-01 -4.357727e-01  8.705133e-01
   outer loop
     vertex  1.462472e+02 -2.853495e+02 -1.538116e+01
     vertex  1.479433e+02 -2.842726e+02 -1.439646e+01
     vertex  1.467052e+02 -2.836228e+02 -1.439646e+01
   endloop
 endfacet
 facet normal -1.704283e-01 -5.051720e-01  8.460233e-01
   outer loop
     vertex  1.462472e+02 -2.853495e+02 -1.538116e+01
     vertex  1.488295e+02 -2.853495e+02 -1.486096e+01
     vertex  1.479433e+02 -2.842726e+02 -1.439646e+01
   endloop
 endfacet
 facet normal -3.398011e-01 -3.835562e-01  8.587316e-01
   outer loop
     vertex  1.449561e+02 -2.831132e+02 -1.486096e+01
     vertex  1.467052e+02 -2.836228e+02 -1.439646e+01
     vertex  1.456586e+02 -2.826956e+02 -1.439646e+01
   endloop
 endfacet
 facet normal -3.416517e-01 -3.955597e-01  8.525295e-01
   outer loop
     vertex  1.449561e+02 -2.831132e+02 -1.486096e+01
     vertex  1.462472e+02 -2.853495e+02 -1.538116e+01
     vertex  1.467052e+02 -2.836228e+02 -1.439646e+01
   endloop
 endfacet
 facet normal -4.073637e-01 -2.811829e-01  8.689022e-01
   outer loop
     vertex  1.448644e+02 -2.815449e+02 -1.439646e+01
     vertex  1.449561e+02 -2.831132e+02 -1.486096e+01
     vertex  1.456586e+02 -2.826956e+02 -1.439646e+01
   endloop
 endfacet
 facet normal -4.500616e-01 -1.706858e-01  8.765335e-01
   outer loop
     vertex  1.437856e+02 -2.810859e+02 -1.486096e+01
     vertex  1.448644e+02 -2.815449e+02 -1.439646e+01
     vertex  1.443685e+02 -2.802376e+02 -1.439646e+01
   endloop
 endfacet
 facet normal -4.766124e-01 -2.751723e-01  8.349377e-01
   outer loop
     vertex  1.437856e+02 -2.810859e+02 -1.486096e+01
     vertex  1.449561e+02 -2.831132e+02 -1.486096e+01
     vertex  1.448644e+02 -2.815449e+02 -1.439646e+01
   endloop
 endfacet
 facet normal -4.990811e-01  6.059941e-02  8.644338e-01
   outer loop
     vertex  1.424944e+02 -2.788495e+02 -1.538116e+01
     vertex  1.442000e+02 -2.788495e+02 -1.439646e+01
     vertex  1.443685e+02 -2.774615e+02 -1.439646e+01
   endloop
 endfacet
 facet normal -4.990811e-01 -6.059941e-02  8.644338e-01
   outer loop
     vertex  1.424944e+02 -2.788495e+02 -1.538116e+01
     vertex  1.443685e+02 -2.802376e+02 -1.439646e+01
     vertex  1.442000e+02 -2.788495e+02 -1.439646e+01
   endloop
 endfacet
 facet normal -5.221954e-01 -1.046118e-01  8.463855e-01
   outer loop
     vertex  1.424944e+02 -2.788495e+02 -1.538116e+01
     vertex  1.437856e+02 -2.810859e+02 -1.486096e+01
     vertex  1.443685e+02 -2.802376e+02 -1.439646e+01
   endloop
 endfacet
 facet normal -4.500616e-01  1.706858e-01  8.765335e-01
   outer loop
     vertex  1.437856e+02 -2.766132e+02 -1.486096e+01
     vertex  1.443685e+02 -2.774615e+02 -1.439646e+01
     vertex  1.448644e+02 -2.761541e+02 -1.439646e+01
   endloop
 endfacet
 facet normal -5.221954e-01  1.046118e-01  8.463855e-01
   outer loop
     vertex  1.437856e+02 -2.766132e+02 -1.486096e+01
     vertex  1.424944e+02 -2.788495e+02 -1.538116e+01
     vertex  1.443685e+02 -2.774615e+02 -1.439646e+01
   endloop
 endfacet
 facet normal -4.766124e-01  2.751723e-01  8.349377e-01
   outer loop
     vertex  1.449561e+02 -2.745859e+02 -1.486096e+01
     vertex  1.437856e+02 -2.766132e+02 -1.486096e+01
     vertex  1.448644e+02 -2.761541e+02 -1.439646e+01
   endloop
 endfacet
 facet normal -4.073637e-01  2.811829e-01  8.689022e-01
   outer loop
     vertex  1.449561e+02 -2.745859e+02 -1.486096e+01
     vertex  1.448644e+02 -2.761541e+02 -1.439646e+01
     vertex  1.456586e+02 -2.750034e+02 -1.439646e+01
   endloop
 endfacet
 facet normal -3.398011e-01  3.835562e-01  8.587316e-01
   outer loop
     vertex  1.467052e+02 -2.740762e+02 -1.439646e+01
     vertex  1.449561e+02 -2.745859e+02 -1.486096e+01
     vertex  1.456586e+02 -2.750034e+02 -1.439646e+01
   endloop
 endfacet
 facet normal -3.416517e-01  3.955597e-01  8.525295e-01
   outer loop
     vertex  1.462472e+02 -2.723495e+02 -1.538116e+01
     vertex  1.449561e+02 -2.745859e+02 -1.486096e+01
     vertex  1.467052e+02 -2.740762e+02 -1.439646e+01
   endloop
 endfacet
 facet normal -2.287112e-01  4.357727e-01  8.705133e-01
   outer loop
     vertex  1.462472e+02 -2.723495e+02 -1.538116e+01
     vertex  1.467052e+02 -2.740762e+02 -1.439646e+01
     vertex  1.479433e+02 -2.734264e+02 -1.439646e+01
   endloop
 endfacet
 facet normal -1.704283e-01  5.051720e-01  8.460233e-01
   outer loop
     vertex  1.488295e+02 -2.723495e+02 -1.486096e+01
     vertex  1.462472e+02 -2.723495e+02 -1.538116e+01
     vertex  1.479433e+02 -2.734264e+02 -1.439646e+01
   endloop
 endfacet
 facet normal -1.164971e-01  4.726475e-01  8.735175e-01
   outer loop
     vertex  1.488295e+02 -2.723495e+02 -1.486096e+01
     vertex  1.479433e+02 -2.734264e+02 -1.439646e+01
     vertex  1.493009e+02 -2.730918e+02 -1.439646e+01
   endloop
 endfacet
 facet normal -4.695856e-14  5.304680e-01  8.477050e-01
   outer loop
     vertex  1.511705e+02 -2.723495e+02 -1.486096e+01
     vertex  1.488295e+02 -2.723495e+02 -1.486096e+01
     vertex  1.493009e+02 -2.730918e+02 -1.439646e+01
   endloop
 endfacet
 facet normal -4.521213e-14  5.304680e-01  8.477050e-01
   outer loop
     vertex  1.511705e+02 -2.723495e+02 -1.486096e+01
     vertex  1.493009e+02 -2.730918e+02 -1.439646e+01
     vertex  1.506991e+02 -2.730918e+02 -1.439646e+01
   endloop
 endfacet
 facet normal  1.164971e-01  4.726475e-01  8.735175e-01
   outer loop
     vertex  1.520567e+02 -2.734264e+02 -1.439646e+01
     vertex  1.511705e+02 -2.723495e+02 -1.486096e+01
     vertex  1.506991e+02 -2.730918e+02 -1.439646e+01
   endloop
 endfacet
 facet normal  1.704283e-01  5.051720e-01  8.460233e-01
   outer loop
     vertex  1.537528e+02 -2.723495e+02 -1.538116e+01
     vertex  1.511705e+02 -2.723495e+02 -1.486096e+01
     vertex  1.520567e+02 -2.734264e+02 -1.439646e+01
   endloop
 endfacet
 facet normal  2.287112e-01  4.357727e-01  8.705133e-01
   outer loop
     vertex  1.537528e+02 -2.723495e+02 -1.538116e+01
     vertex  1.520567e+02 -2.734264e+02 -1.439646e+01
     vertex  1.532948e+02 -2.740762e+02 -1.439646e+01
   endloop
 endfacet
 facet normal  3.398011e-01  3.835562e-01  8.587316e-01
   outer loop
     vertex  1.550439e+02 -2.745859e+02 -1.486096e+01
     vertex  1.532948e+02 -2.740762e+02 -1.439646e+01
     vertex  1.543414e+02 -2.750034e+02 -1.439646e+01
   endloop
 endfacet
 facet normal  3.416517e-01  3.955597e-01  8.525295e-01
   outer loop
     vertex  1.550439e+02 -2.745859e+02 -1.486096e+01
     vertex  1.537528e+02 -2.723495e+02 -1.538116e+01
     vertex  1.532948e+02 -2.740762e+02 -1.439646e+01
   endloop
 endfacet
 facet normal  4.073637e-01  2.811829e-01  8.689022e-01
   outer loop
     vertex  1.551356e+02 -2.761541e+02 -1.439646e+01
     vertex  1.550439e+02 -2.745859e+02 -1.486096e+01
     vertex  1.543414e+02 -2.750034e+02 -1.439646e+01
   endloop
 endfacet
 facet normal  4.500616e-01  1.706858e-01  8.765335e-01
   outer loop
     vertex  1.562144e+02 -2.766132e+02 -1.486096e+01
     vertex  1.551356e+02 -2.761541e+02 -1.439646e+01
     vertex  1.556315e+02 -2.774615e+02 -1.439646e+01
   endloop
 endfacet
 facet normal  4.766124e-01  2.751723e-01  8.349377e-01
   outer loop
     vertex  1.562144e+02 -2.766132e+02 -1.486096e+01
     vertex  1.550439e+02 -2.745859e+02 -1.486096e+01
     vertex  1.551356e+02 -2.761541e+02 -1.439646e+01
   endloop
 endfacet
 facet normal  4.990811e-01  6.059941e-02  8.644338e-01
   outer loop
     vertex  1.575056e+02 -2.788495e+02 -1.538116e+01
     vertex  1.556315e+02 -2.774615e+02 -1.439646e+01
     vertex  1.558000e+02 -2.788495e+02 -1.439646e+01
   endloop
 endfacet
 facet normal  5.221954e-01  1.046118e-01  8.463855e-01
   outer loop
     vertex  1.575056e+02 -2.788495e+02 -1.538116e+01
     vertex  1.562144e+02 -2.766132e+02 -1.486096e+01
     vertex  1.556315e+02 -2.774615e+02 -1.439646e+01
   endloop
 endfacet
 facet normal  4.990811e-01  6.059941e-02 -8.644338e-01
   outer loop
     vertex  1.575056e+02 -2.788495e+02 -2.021176e+01
     vertex  1.558000e+02 -2.788495e+02 -2.119646e+01
     vertex  1.556315e+02 -2.774615e+02 -2.119646e+01
   endloop
 endfacet
 facet normal  4.500616e-01  1.706858e-01 -8.765335e-01
   outer loop
     vertex  1.562144e+02 -2.766132e+02 -2.073196e+01
     vertex  1.556315e+02 -2.774615e+02 -2.119646e+01
     vertex  1.551356e+02 -2.761541e+02 -2.119646e+01
   endloop
 endfacet
 facet normal  5.221954e-01  1.046118e-01 -8.463855e-01
   outer loop
     vertex  1.562144e+02 -2.766132e+02 -2.073196e+01
     vertex  1.575056e+02 -2.788495e+02 -2.021176e+01
     vertex  1.556315e+02 -2.774615e+02 -2.119646e+01
   endloop
 endfacet
 facet normal  4.073637e-01  2.811829e-01 -8.689022e-01
   outer loop
     vertex  1.550439e+02 -2.745859e+02 -2.073196e+01
     vertex  1.551356e+02 -2.761541e+02 -2.119646e+01
     vertex  1.543414e+02 -2.750034e+02 -2.119646e+01
   endloop
 endfacet
 facet normal  4.766124e-01  2.751723e-01 -8.349377e-01
   outer loop
     vertex  1.550439e+02 -2.745859e+02 -2.073196e+01
     vertex  1.562144e+02 -2.766132e+02 -2.073196e+01
     vertex  1.551356e+02 -2.761541e+02 -2.119646e+01
   endloop
 endfacet
 facet normal  3.398011e-01  3.835562e-01 -8.587316e-01
   outer loop
     vertex  1.532948e+02 -2.740762e+02 -2.119646e+01
     vertex  1.550439e+02 -2.745859e+02 -2.073196e+01
     vertex  1.543414e+02 -2.750034e+02 -2.119646e+01
   endloop
 endfacet
 facet normal  2.287112e-01  4.357727e-01 -8.705133e-01
   outer loop
     vertex  1.537528e+02 -2.723495e+02 -2.021176e+01
     vertex  1.532948e+02 -2.740762e+02 -2.119646e+01
     vertex  1.520567e+02 -2.734264e+02 -2.119646e+01
   endloop
 endfacet
 facet normal  3.416517e-01  3.955597e-01 -8.525295e-01
   outer loop
     vertex  1.537528e+02 -2.723495e+02 -2.021176e+01
     vertex  1.550439e+02 -2.745859e+02 -2.073196e+01
     vertex  1.532948e+02 -2.740762e+02 -2.119646e+01
   endloop
 endfacet
 facet normal  1.164971e-01  4.726475e-01 -8.735175e-01
   outer loop
     vertex  1.511705e+02 -2.723495e+02 -2.073196e+01
     vertex  1.520567e+02 -2.734264e+02 -2.119646e+01
     vertex  1.506991e+02 -2.730918e+02 -2.119646e+01
   endloop
 endfacet
 facet normal  1.704283e-01  5.051720e-01 -8.460233e-01
   outer loop
     vertex  1.511705e+02 -2.723495e+02 -2.073196e+01
     vertex  1.537528e+02 -2.723495e+02 -2.021176e+01
     vertex  1.520567e+02 -2.734264e+02 -2.119646e+01
   endloop
 endfacet
 facet normal  4.309179e-14  5.304680e-01 -8.477050e-01
   outer loop
     vertex  1.488295e+02 -2.723495e+02 -2.073196e+01
     vertex  1.506991e+02 -2.730918e+02 -2.119646e+01
     vertex  1.493009e+02 -2.730918e+02 -2.119646e+01
   endloop
 endfacet
 facet normal  5.919650e-14  5.304680e-01 -8.477050e-01
   outer loop
     vertex  1.488295e+02 -2.723495e+02 -2.073196e+01
     vertex  1.511705e+02 -2.723495e+02 -2.073196e+01
     vertex  1.506991e+02 -2.730918e+02 -2.119646e+01
   endloop
 endfacet
 facet normal -1.164971e-01  4.726475e-01 -8.735175e-01
   outer loop
     vertex  1.479433e+02 -2.734264e+02 -2.119646e+01
     vertex  1.488295e+02 -2.723495e+02 -2.073196e+01
     vertex  1.493009e+02 -2.730918e+02 -2.119646e+01
   endloop
 endfacet
 facet normal -2.287112e-01  4.357727e-01 -8.705133e-01
   outer loop
     vertex  1.462472e+02 -2.723495e+02 -2.021176e+01
     vertex  1.479433e+02 -2.734264e+02 -2.119646e+01
     vertex  1.467052e+02 -2.740762e+02 -2.119646e+01
   endloop
 endfacet
 facet normal -1.704283e-01  5.051720e-01 -8.460233e-01
   outer loop
     vertex  1.462472e+02 -2.723495e+02 -2.021176e+01
     vertex  1.488295e+02 -2.723495e+02 -2.073196e+01
     vertex  1.479433e+02 -2.734264e+02 -2.119646e+01
   endloop
 endfacet
 facet normal -3.398011e-01  3.835562e-01 -8.587316e-01
   outer loop
     vertex  1.449561e+02 -2.745859e+02 -2.073196e+01
     vertex  1.467052e+02 -2.740762e+02 -2.119646e+01
     vertex  1.456586e+02 -2.750034e+02 -2.119646e+01
   endloop
 endfacet
 facet normal -3.416517e-01  3.955597e-01 -8.525295e-01
   outer loop
     vertex  1.449561e+02 -2.745859e+02 -2.073196e+01
     vertex  1.462472e+02 -2.723495e+02 -2.021176e+01
     vertex  1.467052e+02 -2.740762e+02 -2.119646e+01
   endloop
 endfacet
 facet normal -4.073637e-01  2.811829e-01 -8.689022e-01
   outer loop
     vertex  1.448644e+02 -2.761541e+02 -2.119646e+01
     vertex  1.449561e+02 -2.745859e+02 -2.073196e+01
     vertex  1.456586e+02 -2.750034e+02 -2.119646e+01
   endloop
 endfacet
 facet normal -4.500616e-01  1.706858e-01 -8.765335e-01
   outer loop
     vertex  1.437856e+02 -2.766132e+02 -2.073196e+01
     vertex  1.448644e+02 -2.761541e+02 -2.119646e+01
     vertex  1.443685e+02 -2.774615e+02 -2.119646e+01
   endloop
 endfacet
 facet normal -4.766124e-01  2.751723e-01 -8.349377e-01
   outer loop
     vertex  1.437856e+02 -2.766132e+02 -2.073196e+01
     vertex  1.449561e+02 -2.745859e+02 -2.073196e+01
     vertex  1.448644e+02 -2.761541e+02 -2.119646e+01
   endloop
 endfacet
 facet normal -4.990811e-01 -6.059941e-02 -8.644338e-01
   outer loop
     vertex  1.424944e+02 -2.788495e+02 -2.021176e+01
     vertex  1.442000e+02 -2.788495e+02 -2.119646e+01
     vertex  1.443685e+02 -2.802376e+02 -2.119646e+01
   endloop
 endfacet
 facet normal -4.990811e-01  6.059941e-02 -8.644338e-01
   outer loop
     vertex  1.424944e+02 -2.788495e+02 -2.021176e+01
     vertex  1.443685e+02 -2.774615e+02 -2.119646e+01
     vertex  1.442000e+02 -2.788495e+02 -2.119646e+01
   endloop
 endfacet
 facet normal -5.221954e-01  1.046118e-01 -8.463855e-01
   outer loop
     vertex  1.424944e+02 -2.788495e+02 -2.021176e+01
     vertex  1.437856e+02 -2.766132e+02 -2.073196e+01
     vertex  1.443685e+02 -2.774615e+02 -2.119646e+01
   endloop
 endfacet
 facet normal -4.500616e-01 -1.706858e-01 -8.765335e-01
   outer loop
     vertex  1.437856e+02 -2.810859e+02 -2.073196e+01
     vertex  1.443685e+02 -2.802376e+02 -2.119646e+01
     vertex  1.448644e+02 -2.815449e+02 -2.119646e+01
   endloop
 endfacet
 facet normal -5.221954e-01 -1.046118e-01 -8.463855e-01
   outer loop
     vertex  1.437856e+02 -2.810859e+02 -2.073196e+01
     vertex  1.424944e+02 -2.788495e+02 -2.021176e+01
     vertex  1.443685e+02 -2.802376e+02 -2.119646e+01
   endloop
 endfacet
 facet normal -4.766124e-01 -2.751723e-01 -8.349377e-01
   outer loop
     vertex  1.449561e+02 -2.831132e+02 -2.073196e+01
     vertex  1.437856e+02 -2.810859e+02 -2.073196e+01
     vertex  1.448644e+02 -2.815449e+02 -2.119646e+01
   endloop
 endfacet
 facet normal -4.073637e-01 -2.811829e-01 -8.689022e-01
   outer loop
     vertex  1.449561e+02 -2.831132e+02 -2.073196e+01
     vertex  1.448644e+02 -2.815449e+02 -2.119646e+01
     vertex  1.456586e+02 -2.826956e+02 -2.119646e+01
   endloop
 endfacet
 facet normal -3.398011e-01 -3.835562e-01 -8.587316e-01
   outer loop
     vertex  1.467052e+02 -2.836228e+02 -2.119646e+01
     vertex  1.449561e+02 -2.831132e+02 -2.073196e+01
     vertex  1.456586e+02 -2.826956e+02 -2.119646e+01
   endloop
 endfacet
 facet normal -3.416517e-01 -3.955597e-01 -8.525295e-01
   outer loop
     vertex  1.462472e+02 -2.853495e+02 -2.021176e+01
     vertex  1.449561e+02 -2.831132e+02 -2.073196e+01
     vertex  1.467052e+02 -2.836228e+02 -2.119646e+01
   endloop
 endfacet
 facet normal -2.287112e-01 -4.357727e-01 -8.705133e-01
   outer loop
     vertex  1.462472e+02 -2.853495e+02 -2.021176e+01
     vertex  1.467052e+02 -2.836228e+02 -2.119646e+01
     vertex  1.479433e+02 -2.842726e+02 -2.119646e+01
   endloop
 endfacet
 facet normal -1.704283e-01 -5.051720e-01 -8.460233e-01
   outer loop
     vertex  1.488295e+02 -2.853495e+02 -2.073196e+01
     vertex  1.462472e+02 -2.853495e+02 -2.021176e+01
     vertex  1.479433e+02 -2.842726e+02 -2.119646e+01
   endloop
 endfacet
 facet normal -1.164971e-01 -4.726475e-01 -8.735175e-01
   outer loop
     vertex  1.488295e+02 -2.853495e+02 -2.073196e+01
     vertex  1.479433e+02 -2.842726e+02 -2.119646e+01
     vertex  1.493009e+02 -2.846072e+02 -2.119646e+01
   endloop
 endfacet
 facet normal  4.631530e-14 -5.304680e-01 -8.477050e-01
   outer loop
     vertex  1.511705e+02 -2.853495e+02 -2.073196e+01
     vertex  1.488295e+02 -2.853495e+02 -2.073196e+01
     vertex  1.493009e+02 -2.846072e+02 -2.119646e+01
   endloop
 endfacet
 facet normal  4.307002e-14 -5.304680e-01 -8.477050e-01
   outer loop
     vertex  1.511705e+02 -2.853495e+02 -2.073196e+01
     vertex  1.493009e+02 -2.846072e+02 -2.119646e+01
     vertex  1.506991e+02 -2.846072e+02 -2.119646e+01
   endloop
 endfacet
 facet normal  1.164971e-01 -4.726475e-01 -8.735175e-01
   outer loop
     vertex  1.520567e+02 -2.842726e+02 -2.119646e+01
     vertex  1.511705e+02 -2.853495e+02 -2.073196e+01
     vertex  1.506991e+02 -2.846072e+02 -2.119646e+01
   endloop
 endfacet
 facet normal  1.704283e-01 -5.051720e-01 -8.460233e-01
   outer loop
     vertex  1.537528e+02 -2.853495e+02 -2.021176e+01
     vertex  1.511705e+02 -2.853495e+02 -2.073196e+01
     vertex  1.520567e+02 -2.842726e+02 -2.119646e+01
   endloop
 endfacet
 facet normal  2.287112e-01 -4.357727e-01 -8.705133e-01
   outer loop
     vertex  1.537528e+02 -2.853495e+02 -2.021176e+01
     vertex  1.520567e+02 -2.842726e+02 -2.119646e+01
     vertex  1.532948e+02 -2.836228e+02 -2.119646e+01
   endloop
 endfacet
 facet normal  3.398011e-01 -3.835562e-01 -8.587316e-01
   outer loop
     vertex  1.550439e+02 -2.831132e+02 -2.073196e+01
     vertex  1.532948e+02 -2.836228e+02 -2.119646e+01
     vertex  1.543414e+02 -2.826956e+02 -2.119646e+01
   endloop
 endfacet
 facet normal  3.416517e-01 -3.955597e-01 -8.525295e-01
   outer loop
     vertex  1.550439e+02 -2.831132e+02 -2.073196e+01
     vertex  1.537528e+02 -2.853495e+02 -2.021176e+01
     vertex  1.532948e+02 -2.836228e+02 -2.119646e+01
   endloop
 endfacet
 facet normal  4.073637e-01 -2.811829e-01 -8.689022e-01
   outer loop
     vertex  1.551356e+02 -2.815449e+02 -2.119646e+01
     vertex  1.550439e+02 -2.831132e+02 -2.073196e+01
     vertex  1.543414e+02 -2.826956e+02 -2.119646e+01
   endloop
 endfacet
 facet normal  4.500616e-01 -1.706858e-01 -8.765335e-01
   outer loop
     vertex  1.562144e+02 -2.810859e+02 -2.073196e+01
     vertex  1.551356e+02 -2.815449e+02 -2.119646e+01
     vertex  1.556315e+02 -2.802376e+02 -2.119646e+01
   endloop
 endfacet
 facet normal  4.766124e-01 -2.751723e-01 -8.349377e-01
   outer loop
     vertex  1.562144e+02 -2.810859e+02 -2.073196e+01
     vertex  1.550439e+02 -2.831132e+02 -2.073196e+01
     vertex  1.551356e+02 -2.815449e+02 -2.119646e+01
   endloop
 endfacet
 facet normal  4.990811e-01 -6.059941e-02 -8.644338e-01
   outer loop
     vertex  1.575056e+02 -2.788495e+02 -2.021176e+01
     vertex  1.556315e+02 -2.802376e+02 -2.119646e+01
     vertex  1.558000e+02 -2.788495e+02 -2.119646e+01
   endloop
 endfacet
 facet normal  5.221954e-01 -1.046118e-01 -8.463855e-01
   outer loop
     vertex  1.575056e+02 -2.788495e+02 -2.021176e+01
     vertex  1.562144e+02 -2.810859e+02 -2.073196e+01
     vertex  1.556315e+02 -2.802376e+02 -2.119646e+01
   endloop
 endfacet
 facet normal -8.660254e-01 -5.000000e-01 -4.127603e-14
   outer loop
     vertex  1.449561e+02 -2.831132e+02 -2.073196e+01
     vertex  1.462472e+02 -2.853495e+02 -1.538116e+01
     vertex  1.449561e+02 -2.831132e+02 -1.486096e+01
   endloop
 endfacet
 facet normal -8.660254e-01 -5.000000e-01 -4.584709e-14
   outer loop
     vertex  1.449561e+02 -2.831132e+02 -2.073196e+01
     vertex  1.462472e+02 -2.853495e+02 -2.021176e+01
     vertex  1.462472e+02 -2.853495e+02 -1.538116e+01
   endloop
 endfacet
 facet normal -8.660254e-01 -5.000000e-01 -4.611707e-14
   outer loop
     vertex  1.437856e+02 -2.810859e+02 -2.073196e+01
     vertex  1.449561e+02 -2.831132e+02 -1.486096e+01
     vertex  1.437856e+02 -2.810859e+02 -1.486096e+01
   endloop
 endfacet
 facet normal -8.660254e-01 -5.000000e-01 -4.611707e-14
   outer loop
     vertex  1.437856e+02 -2.810859e+02 -2.073196e+01
     vertex  1.437856e+02 -2.810859e+02 -1.486096e+01
     vertex  1.424944e+02 -2.788495e+02 -1.538116e+01
   endloop
 endfacet
 facet normal -8.660254e-01 -5.000000e-01 -4.128941e-14
   outer loop
     vertex  1.437856e+02 -2.810859e+02 -2.073196e+01
     vertex  1.449561e+02 -2.831132e+02 -2.073196e+01
     vertex  1.449561e+02 -2.831132e+02 -1.486096e+01
   endloop
 endfacet
 facet normal -8.660254e-01 -5.000000e-01 -4.585879e-14
   outer loop
     vertex  1.424944e+02 -2.788495e+02 -2.021176e+01
     vertex  1.437856e+02 -2.810859e+02 -2.073196e+01
     vertex  1.424944e+02 -2.788495e+02 -1.538116e+01
   endloop
 endfacet
 facet normal -2.370494e-15 -1.000000e+00  1.176737e-14
   outer loop
     vertex  1.537528e+02 -2.853495e+02 -1.538116e+01
     vertex  1.511705e+02 -2.853495e+02 -2.073196e+01
     vertex  1.537528e+02 -2.853495e+02 -2.021176e+01
   endloop
 endfacet
 facet normal  1.950418e-15 -1.000000e+00  9.682073e-15
   outer loop
     vertex  1.511705e+02 -2.853495e+02 -1.486096e+01
     vertex  1.511705e+02 -2.853495e+02 -2.073196e+01
     vertex  1.537528e+02 -2.853495e+02 -1.538116e+01
   endloop
 endfacet
 facet normal -2.006207e-14 -1.000000e+00  9.682073e-15
   outer loop
     vertex  1.488295e+02 -2.853495e+02 -1.486096e+01
     vertex  1.462472e+02 -2.853495e+02 -2.021176e+01
     vertex  1.488295e+02 -2.853495e+02 -2.073196e+01
   endloop
 endfacet
 facet normal -5.289907e-28 -1.000000e+00  9.682073e-15
   outer loop
     vertex  1.488295e+02 -2.853495e+02 -1.486096e+01
     vertex  1.488295e+02 -2.853495e+02 -2.073196e+01
     vertex  1.511705e+02 -2.853495e+02 -2.073196e+01
   endloop
 endfacet
 facet normal -5.069495e-28 -1.000000e+00  9.682073e-15
   outer loop
     vertex  1.488295e+02 -2.853495e+02 -1.486096e+01
     vertex  1.511705e+02 -2.853495e+02 -2.073196e+01
     vertex  1.511705e+02 -2.853495e+02 -1.486096e+01
   endloop
 endfacet
 facet normal  0.000000e+00 -1.000000e+00  0.000000e+00
   outer loop
     vertex  1.462472e+02 -2.853495e+02 -1.538116e+01
     vertex  1.462472e+02 -2.853495e+02 -2.021176e+01
     vertex  1.488295e+02 -2.853495e+02 -1.486096e+01
   endloop
 endfacet
 facet normal -8.660254e-01  5.000000e-01 -4.611707e-14
   outer loop
     vertex  1.449561e+02 -2.745859e+02 -2.073196e+01
     vertex  1.449561e+02 -2.745859e+02 -1.486096e+01
     vertex  1.462472e+02 -2.723495e+02 -1.538116e+01
   endloop
 endfacet
 facet normal -8.660254e-01  5.000000e-01 -4.587390e-14
   outer loop
     vertex  1.449561e+02 -2.745859e+02 -2.073196e+01
     vertex  1.462472e+02 -2.723495e+02 -1.538116e+01
     vertex  1.462472e+02 -2.723495e+02 -2.021176e+01
   endloop
 endfacet
 facet normal -8.660254e-01  5.000000e-01 -4.611707e-14
   outer loop
     vertex  1.437856e+02 -2.766132e+02 -2.073196e+01
     vertex  1.424944e+02 -2.788495e+02 -1.538116e+01
     vertex  1.437856e+02 -2.766132e+02 -1.486096e+01
   endloop
 endfacet
 facet normal -8.660254e-01  5.000000e-01 -4.611707e-14
   outer loop
     vertex  1.437856e+02 -2.766132e+02 -2.073196e+01
     vertex  1.437856e+02 -2.766132e+02 -1.486096e+01
     vertex  1.449561e+02 -2.745859e+02 -1.486096e+01
   endloop
 endfacet
 facet normal -8.660254e-01  5.000000e-01 -4.612403e-14
   outer loop
     vertex  1.437856e+02 -2.766132e+02 -2.073196e+01
     vertex  1.449561e+02 -2.745859e+02 -1.486096e+01
     vertex  1.449561e+02 -2.745859e+02 -2.073196e+01
   endloop
 endfacet
 facet normal -8.660254e-01  5.000000e-01 -4.585879e-14
   outer loop
     vertex  1.424944e+02 -2.788495e+02 -2.021176e+01
     vertex  1.424944e+02 -2.788495e+02 -1.538116e+01
     vertex  1.437856e+02 -2.766132e+02 -2.073196e+01
   endloop
 endfacet
 facet normal -1.950418e-15  1.000000e+00 -9.682073e-15
   outer loop
     vertex  1.511705e+02 -2.723495e+02 -2.073196e+01
     vertex  1.511705e+02 -2.723495e+02 -1.486096e+01
     vertex  1.537528e+02 -2.723495e+02 -1.538116e+01
   endloop
 endfacet
 facet normal  2.370494e-15  1.000000e+00 -1.176737e-14
   outer loop
     vertex  1.511705e+02 -2.723495e+02 -2.073196e+01
     vertex  1.537528e+02 -2.723495e+02 -1.538116e+01
     vertex  1.537528e+02 -2.723495e+02 -2.021176e+01
   endloop
 endfacet
 facet normal  0.000000e+00  1.000000e+00 -0.000000e+00
   outer loop
     vertex  1.488295e+02 -2.723495e+02 -2.073196e+01
     vertex  1.488295e+02 -2.723495e+02 -1.486096e+01
     vertex  1.511705e+02 -2.723495e+02 -1.486096e+01
   endloop
 endfacet
 facet normal  2.428271e-14  1.000000e+00 -9.682073e-15
   outer loop
     vertex  1.488295e+02 -2.723495e+02 -2.073196e+01
     vertex  1.511705e+02 -2.723495e+02 -1.486096e+01
     vertex  1.511705e+02 -2.723495e+02 -2.073196e+01
   endloop
 endfacet
 facet normal  0.000000e+00  1.000000e+00 -0.000000e+00
   outer loop
     vertex  1.462472e+02 -2.723495e+02 -2.021176e+01
     vertex  1.462472e+02 -2.723495e+02 -1.538116e+01
     vertex  1.488295e+02 -2.723495e+02 -1.486096e+01
   endloop
 endfacet
 facet normal -0.000000e+00  1.000000e+00  0.000000e+00
   outer loop
     vertex  1.462472e+02 -2.723495e+02 -2.021176e+01
     vertex  1.488295e+02 -2.723495e+02 -1.486096e+01
     vertex  1.488295e+02 -2.723495e+02 -2.073196e+01
   endloop
 endfacet
 facet normal  8.660254e-01 -5.000000e-01  5.174247e-14
   outer loop
     vertex  1.575056e+02 -2.788495e+02 -1.538116e+01
     vertex  1.562144e+02 -2.810859e+02 -2.073196e+01
     vertex  1.575056e+02 -2.788495e+02 -2.021176e+01
   endloop
 endfacet
 facet normal  8.660254e-01 -5.000000e-01  4.611707e-14
   outer loop
     vertex  1.562144e+02 -2.810859e+02 -1.486096e+01
     vertex  1.562144e+02 -2.810859e+02 -2.073196e+01
     vertex  1.575056e+02 -2.788495e+02 -1.538116e+01
   endloop
 endfacet
 facet normal  8.660254e-01 -5.000000e-01  5.095810e-14
   outer loop
     vertex  1.550439e+02 -2.831132e+02 -1.486096e+01
     vertex  1.550439e+02 -2.831132e+02 -2.073196e+01
     vertex  1.562144e+02 -2.810859e+02 -2.073196e+01
   endloop
 endfacet
 facet normal  8.660254e-01 -5.000000e-01  4.611011e-14
   outer loop
     vertex  1.550439e+02 -2.831132e+02 -1.486096e+01
     vertex  1.562144e+02 -2.810859e+02 -2.073196e+01
     vertex  1.562144e+02 -2.810859e+02 -1.486096e+01
   endloop
 endfacet
 facet normal  8.660254e-01 -5.000000e-01  5.174247e-14
   outer loop
     vertex  1.537528e+02 -2.853495e+02 -1.538116e+01
     vertex  1.537528e+02 -2.853495e+02 -2.021176e+01
     vertex  1.550439e+02 -2.831132e+02 -2.073196e+01
   endloop
 endfacet
 facet normal  8.660254e-01 -5.000000e-01  5.096709e-14
   outer loop
     vertex  1.537528e+02 -2.853495e+02 -1.538116e+01
     vertex  1.550439e+02 -2.831132e+02 -2.073196e+01
     vertex  1.550439e+02 -2.831132e+02 -1.486096e+01
   endloop
 endfacet
 facet normal  8.660254e-01  5.000000e-01  4.611707e-14
   outer loop
     vertex  1.550439e+02 -2.745859e+02 -2.073196e+01
     vertex  1.537528e+02 -2.723495e+02 -1.538116e+01
     vertex  1.550439e+02 -2.745859e+02 -1.486096e+01
   endloop
 endfacet
 facet normal  8.660254e-01  5.000000e-01  4.611707e-14
   outer loop
     vertex  1.550439e+02 -2.745859e+02 -2.073196e+01
     vertex  1.550439e+02 -2.745859e+02 -1.486096e+01
     vertex  1.562144e+02 -2.766132e+02 -1.486096e+01
   endloop
 endfacet
 facet normal  8.660254e-01  5.000000e-01  3.996754e-14
   outer loop
     vertex  1.550439e+02 -2.745859e+02 -2.073196e+01
     vertex  1.537528e+02 -2.723495e+02 -2.021176e+01
     vertex  1.537528e+02 -2.723495e+02 -1.538116e+01
   endloop
 endfacet
 facet normal  8.660254e-01  5.000000e-01  4.127603e-14
   outer loop
     vertex  1.562144e+02 -2.766132e+02 -2.073196e+01
     vertex  1.562144e+02 -2.766132e+02 -1.486096e+01
     vertex  1.575056e+02 -2.788495e+02 -1.538116e+01
   endloop
 endfacet
 facet normal  8.660254e-01  5.000000e-01  4.127603e-14
   outer loop
     vertex  1.562144e+02 -2.766132e+02 -2.073196e+01
     vertex  1.550439e+02 -2.745859e+02 -2.073196e+01
     vertex  1.562144e+02 -2.766132e+02 -1.486096e+01
   endloop
 endfacet
 facet normal  8.660254e-01  5.000000e-01  3.997510e-14
   outer loop
     vertex  1.575056e+02 -2.788495e+02 -2.021176e+01
     vertex  1.562144e+02 -2.766132e+02 -2.073196e+01
     vertex  1.575056e+02 -2.788495e+02 -1.538116e+01
   endloop
 endfacet
endsolid
