solid 
 facet normal -5.642306e-01  7.044686e-01 -4.305437e-01
   outer loop
     vertex  3.341088e+02 -1.235669e+02 -1.202551e+01
     vertex  3.347700e+02 -1.228000e+02 -1.163721e+01
     vertex  3.352428e+02 -1.228000e+02 -1.225686e+01
   endloop
 endfacet
 facet normal -4.447993e-01  7.044686e-01 -5.530621e-01
   outer loop
     vertex  3.346937e+02 -1.235669e+02 -1.279211e+01
     vertex  3.352428e+02 -1.228000e+02 -1.225686e+01
     vertex  3.358502e+02 -1.228000e+02 -1.274534e+01
   endloop
 endfacet
 facet normal -5.642306e-01  7.044686e-01 -4.305437e-01
   outer loop
     vertex  3.346937e+02 -1.235669e+02 -1.279211e+01
     vertex  3.341088e+02 -1.235669e+02 -1.202551e+01
     vertex  3.352428e+02 -1.228000e+02 -1.225686e+01
   endloop
 endfacet
 facet normal -2.995178e-01  7.044686e-01 -6.434385e-01
   outer loop
     vertex  3.354451e+02 -1.235669e+02 -1.339645e+01
     vertex  3.358502e+02 -1.228000e+02 -1.274534e+01
     vertex  3.365568e+02 -1.228000e+02 -1.307427e+01
   endloop
 endfacet
 facet normal -4.447993e-01  7.044686e-01 -5.530621e-01
   outer loop
     vertex  3.354451e+02 -1.235669e+02 -1.339645e+01
     vertex  3.346937e+02 -1.235669e+02 -1.279211e+01
     vertex  3.358502e+02 -1.228000e+02 -1.274534e+01
   endloop
 endfacet
 facet normal -1.368294e-01  7.044686e-01 -6.964207e-01
   outer loop
     vertex  3.363194e+02 -1.235669e+02 -1.380339e+01
     vertex  3.365568e+02 -1.228000e+02 -1.307427e+01
     vertex  3.373216e+02 -1.228000e+02 -1.322454e+01
   endloop
 endfacet
 facet normal -2.995178e-01  7.044686e-01 -6.434385e-01
   outer loop
     vertex  3.363194e+02 -1.235669e+02 -1.380339e+01
     vertex  3.354451e+02 -1.235669e+02 -1.339645e+01
     vertex  3.365568e+02 -1.228000e+02 -1.307427e+01
   endloop
 endfacet
 facet normal  3.381098e-02  7.044686e-01 -7.089294e-01
   outer loop
     vertex  3.372656e+02 -1.235669e+02 -1.398930e+01
     vertex  3.373216e+02 -1.228000e+02 -1.322454e+01
     vertex  3.381002e+02 -1.228000e+02 -1.318740e+01
   endloop
 endfacet
 facet normal -1.368294e-01  7.044686e-01 -6.964207e-01
   outer loop
     vertex  3.372656e+02 -1.235669e+02 -1.398930e+01
     vertex  3.363194e+02 -1.235669e+02 -1.380339e+01
     vertex  3.373216e+02 -1.228000e+02 -1.322454e+01
   endloop
 endfacet
 facet normal  2.024864e-01  7.044686e-01 -6.802377e-01
   outer loop
     vertex  3.382288e+02 -1.235669e+02 -1.394336e+01
     vertex  3.381002e+02 -1.228000e+02 -1.318740e+01
     vertex  3.388472e+02 -1.228000e+02 -1.296503e+01
   endloop
 endfacet
 facet normal  3.381098e-02  7.044686e-01 -7.089294e-01
   outer loop
     vertex  3.382288e+02 -1.235669e+02 -1.394336e+01
     vertex  3.372656e+02 -1.235669e+02 -1.398930e+01
     vertex  3.381002e+02 -1.228000e+02 -1.318740e+01
   endloop
 endfacet
 facet normal  3.593940e-01  7.044686e-01 -6.120130e-01
   outer loop
     vertex  3.391530e+02 -1.235669e+02 -1.366825e+01
     vertex  3.388472e+02 -1.228000e+02 -1.296503e+01
     vertex  3.395193e+02 -1.228000e+02 -1.257034e+01
   endloop
 endfacet
 facet normal  2.024864e-01  7.044686e-01 -6.802377e-01
   outer loop
     vertex  3.391530e+02 -1.235669e+02 -1.366825e+01
     vertex  3.382288e+02 -1.235669e+02 -1.394336e+01
     vertex  3.388472e+02 -1.228000e+02 -1.296503e+01
   endloop
 endfacet
 facet normal  4.954150e-01  7.044686e-01 -5.082204e-01
   outer loop
     vertex  3.399845e+02 -1.235669e+02 -1.317995e+01
     vertex  3.395193e+02 -1.228000e+02 -1.257034e+01
     vertex  3.400775e+02 -1.228000e+02 -1.202628e+01
   endloop
 endfacet
 facet normal  3.593940e-01  7.044686e-01 -6.120130e-01
   outer loop
     vertex  3.399845e+02 -1.235669e+02 -1.317995e+01
     vertex  3.391530e+02 -1.235669e+02 -1.366825e+01
     vertex  3.395193e+02 -1.228000e+02 -1.257034e+01
   endloop
 endfacet
 facet normal  6.026443e-01  7.044686e-01 -3.748919e-01
   outer loop
     vertex  3.406750e+02 -1.235669e+02 -1.250685e+01
     vertex  3.400775e+02 -1.228000e+02 -1.202628e+01
     vertex  3.404892e+02 -1.228000e+02 -1.136445e+01
   endloop
 endfacet
 facet normal  4.954150e-01  7.044686e-01 -5.082204e-01
   outer loop
     vertex  3.406750e+02 -1.235669e+02 -1.250685e+01
     vertex  3.399845e+02 -1.235669e+02 -1.317995e+01
     vertex  3.400775e+02 -1.228000e+02 -1.202628e+01
   endloop
 endfacet
 facet normal  6.748500e-01  7.044686e-01 -2.197760e-01
   outer loop
     vertex  3.411844e+02 -1.235669e+02 -1.168805e+01
     vertex  3.404892e+02 -1.228000e+02 -1.136445e+01
     vertex  3.407305e+02 -1.228000e+02 -1.062332e+01
   endloop
 endfacet
 facet normal  6.026443e-01  7.044686e-01 -3.748919e-01
   outer loop
     vertex  3.411844e+02 -1.235669e+02 -1.168805e+01
     vertex  3.406750e+02 -1.235669e+02 -1.250685e+01
     vertex  3.404892e+02 -1.228000e+02 -1.136445e+01
   endloop
 endfacet
 facet normal  7.078360e-01  7.044686e-01 -5.188754e-02
   outer loop
     vertex  3.414830e+02 -1.235669e+02 -1.077116e+01
     vertex  3.407305e+02 -1.228000e+02 -1.062332e+01
     vertex  3.407875e+02 -1.228000e+02 -9.845975e+00
   endloop
 endfacet
 facet normal  6.748500e-01  7.044686e-01 -2.197760e-01
   outer loop
     vertex  3.414830e+02 -1.235669e+02 -1.077116e+01
     vertex  3.411844e+02 -1.235669e+02 -1.168805e+01
     vertex  3.407305e+02 -1.228000e+02 -1.062332e+01
   endloop
 endfacet
 facet normal  7.078360e-01  7.044686e-01 -5.188754e-02
   outer loop
     vertex  3.415535e+02 -1.235669e+02 -9.809445e+00
     vertex  3.414830e+02 -1.235669e+02 -1.077116e+01
     vertex  3.407875e+02 -1.228000e+02 -9.845975e+00
   endloop
 endfacet
 facet normal  6.996850e-01  7.044686e-01  1.190165e-01
   outer loop
     vertex  3.415535e+02 -1.235669e+02 -9.809445e+00
     vertex  3.407875e+02 -1.228000e+02 -9.845975e+00
     vertex  3.406568e+02 -1.228000e+02 -9.077576e+00
   endloop
 endfacet
 facet normal  6.996850e-01  7.044686e-01  1.190165e-01
   outer loop
     vertex  3.413918e+02 -1.235669e+02 -8.858806e+00
     vertex  3.415535e+02 -1.235669e+02 -9.809445e+00
     vertex  3.406568e+02 -1.228000e+02 -9.077576e+00
   endloop
 endfacet
 facet normal  6.508709e-01  7.044686e-01  2.830036e-01
   outer loop
     vertex  3.413918e+02 -1.235669e+02 -8.858806e+00
     vertex  3.406568e+02 -1.228000e+02 -9.077576e+00
     vertex  3.403460e+02 -1.228000e+02 -8.362786e+00
   endloop
 endfacet
 facet normal  6.508709e-01  7.044686e-01  2.830036e-01
   outer loop
     vertex  3.410072e+02 -1.235669e+02 -7.974489e+00
     vertex  3.413918e+02 -1.235669e+02 -8.858806e+00
     vertex  3.403460e+02 -1.228000e+02 -8.362786e+00
   endloop
 endfacet
 facet normal  5.642306e-01  7.044686e-01  4.305437e-01
   outer loop
     vertex  3.410072e+02 -1.235669e+02 -7.974489e+00
     vertex  3.403460e+02 -1.228000e+02 -8.362786e+00
     vertex  3.398732e+02 -1.228000e+02 -7.743145e+00
   endloop
 endfacet
 facet normal  5.642306e-01  7.044686e-01  4.305437e-01
   outer loop
     vertex  3.404223e+02 -1.235669e+02 -7.207888e+00
     vertex  3.410072e+02 -1.235669e+02 -7.974489e+00
     vertex  3.398732e+02 -1.228000e+02 -7.743145e+00
   endloop
 endfacet
 facet normal  4.447993e-01  7.044686e-01  5.530621e-01
   outer loop
     vertex  3.404223e+02 -1.235669e+02 -7.207888e+00
     vertex  3.398732e+02 -1.228000e+02 -7.743145e+00
     vertex  3.392658e+02 -1.228000e+02 -7.254664e+00
   endloop
 endfacet
 facet normal  4.447993e-01  7.044686e-01  5.530621e-01
   outer loop
     vertex  3.396709e+02 -1.235669e+02 -6.603554e+00
     vertex  3.404223e+02 -1.235669e+02 -7.207888e+00
     vertex  3.392658e+02 -1.228000e+02 -7.254664e+00
   endloop
 endfacet
 facet normal  2.995178e-01  7.044686e-01  6.434385e-01
   outer loop
     vertex  3.387966e+02 -1.235669e+02 -6.196610e+00
     vertex  3.396709e+02 -1.235669e+02 -6.603554e+00
     vertex  3.392658e+02 -1.228000e+02 -7.254664e+00
   endloop
 endfacet
 facet normal  2.995178e-01  7.044686e-01  6.434385e-01
   outer loop
     vertex  3.387966e+02 -1.235669e+02 -6.196610e+00
     vertex  3.392658e+02 -1.228000e+02 -7.254664e+00
     vertex  3.385592e+02 -1.228000e+02 -6.925731e+00
   endloop
 endfacet
 facet normal  1.368294e-01  7.044686e-01  6.964207e-01
   outer loop
     vertex  3.387966e+02 -1.235669e+02 -6.196610e+00
     vertex  3.385592e+02 -1.228000e+02 -6.925731e+00
     vertex  3.377944e+02 -1.228000e+02 -6.775464e+00
   endloop
 endfacet
 facet normal  1.368294e-01  7.044686e-01  6.964207e-01
   outer loop
     vertex  3.378504e+02 -1.235669e+02 -6.010704e+00
     vertex  3.387966e+02 -1.235669e+02 -6.196610e+00
     vertex  3.377944e+02 -1.228000e+02 -6.775464e+00
   endloop
 endfacet
 facet normal -3.381098e-02  7.044686e-01  7.089294e-01
   outer loop
     vertex  3.378504e+02 -1.235669e+02 -6.010704e+00
     vertex  3.377944e+02 -1.228000e+02 -6.775464e+00
     vertex  3.370158e+02 -1.228000e+02 -6.812596e+00
   endloop
 endfacet
 facet normal -3.381098e-02  7.044686e-01  7.089294e-01
   outer loop
     vertex  3.368872e+02 -1.235669e+02 -6.056642e+00
     vertex  3.378504e+02 -1.235669e+02 -6.010704e+00
     vertex  3.370158e+02 -1.228000e+02 -6.812596e+00
   endloop
 endfacet
 facet normal -2.024864e-01  7.044686e-01  6.802377e-01
   outer loop
     vertex  3.368872e+02 -1.235669e+02 -6.056642e+00
     vertex  3.370158e+02 -1.228000e+02 -6.812596e+00
     vertex  3.362688e+02 -1.228000e+02 -7.034968e+00
   endloop
 endfacet
 facet normal -2.024864e-01  7.044686e-01  6.802377e-01
   outer loop
     vertex  3.359630e+02 -1.235669e+02 -6.331753e+00
     vertex  3.368872e+02 -1.235669e+02 -6.056642e+00
     vertex  3.362688e+02 -1.228000e+02 -7.034968e+00
   endloop
 endfacet
 facet normal -3.593940e-01  7.044686e-01  6.120130e-01
   outer loop
     vertex  3.351315e+02 -1.235669e+02 -6.820050e+00
     vertex  3.362688e+02 -1.228000e+02 -7.034968e+00
     vertex  3.355967e+02 -1.228000e+02 -7.429656e+00
   endloop
 endfacet
 facet normal -4.954150e-01  7.044686e-01  5.082204e-01
   outer loop
     vertex  3.351315e+02 -1.235669e+02 -6.820050e+00
     vertex  3.355967e+02 -1.228000e+02 -7.429656e+00
     vertex  3.350385e+02 -1.228000e+02 -7.973724e+00
   endloop
 endfacet
 facet normal -3.593940e-01  7.044686e-01  6.120130e-01
   outer loop
     vertex  3.351315e+02 -1.235669e+02 -6.820050e+00
     vertex  3.359630e+02 -1.235669e+02 -6.331753e+00
     vertex  3.362688e+02 -1.228000e+02 -7.034968e+00
   endloop
 endfacet
 facet normal -6.026443e-01  7.044686e-01  3.748919e-01
   outer loop
     vertex  3.344410e+02 -1.235669e+02 -7.493154e+00
     vertex  3.350385e+02 -1.228000e+02 -7.973724e+00
     vertex  3.346268e+02 -1.228000e+02 -8.635551e+00
   endloop
 endfacet
 facet normal -4.954150e-01  7.044686e-01  5.082204e-01
   outer loop
     vertex  3.344410e+02 -1.235669e+02 -7.493154e+00
     vertex  3.351315e+02 -1.235669e+02 -6.820050e+00
     vertex  3.350385e+02 -1.228000e+02 -7.973724e+00
   endloop
 endfacet
 facet normal -6.026443e-01  7.044686e-01  3.748919e-01
   outer loop
     vertex  3.339316e+02 -1.235669e+02 -8.311946e+00
     vertex  3.344410e+02 -1.235669e+02 -7.493154e+00
     vertex  3.346268e+02 -1.228000e+02 -8.635551e+00
   endloop
 endfacet
 facet normal -6.748500e-01  7.044686e-01  2.197760e-01
   outer loop
     vertex  3.336330e+02 -1.235669e+02 -9.228842e+00
     vertex  3.346268e+02 -1.228000e+02 -8.635551e+00
     vertex  3.343855e+02 -1.228000e+02 -9.376676e+00
   endloop
 endfacet
 facet normal -7.078360e-01  7.044686e-01  5.188754e-02
   outer loop
     vertex  3.336330e+02 -1.235669e+02 -9.228842e+00
     vertex  3.343855e+02 -1.228000e+02 -9.376676e+00
     vertex  3.343285e+02 -1.228000e+02 -1.015403e+01
   endloop
 endfacet
 facet normal -6.748500e-01  7.044686e-01  2.197760e-01
   outer loop
     vertex  3.336330e+02 -1.235669e+02 -9.228842e+00
     vertex  3.339316e+02 -1.235669e+02 -8.311946e+00
     vertex  3.346268e+02 -1.228000e+02 -8.635551e+00
   endloop
 endfacet
 facet normal -7.078360e-01  7.044686e-01  5.188754e-02
   outer loop
     vertex  3.335625e+02 -1.235669e+02 -1.019056e+01
     vertex  3.336330e+02 -1.235669e+02 -9.228842e+00
     vertex  3.343285e+02 -1.228000e+02 -1.015403e+01
   endloop
 endfacet
 facet normal -6.996850e-01  7.044686e-01 -1.190165e-01
   outer loop
     vertex  3.337242e+02 -1.235669e+02 -1.114119e+01
     vertex  3.343285e+02 -1.228000e+02 -1.015403e+01
     vertex  3.344592e+02 -1.228000e+02 -1.092242e+01
   endloop
 endfacet
 facet normal -6.996850e-01  7.044686e-01 -1.190165e-01
   outer loop
     vertex  3.337242e+02 -1.235669e+02 -1.114119e+01
     vertex  3.335625e+02 -1.235669e+02 -1.019056e+01
     vertex  3.343285e+02 -1.228000e+02 -1.015403e+01
   endloop
 endfacet
 facet normal -6.508709e-01  7.044686e-01 -2.830036e-01
   outer loop
     vertex  3.341088e+02 -1.235669e+02 -1.202551e+01
     vertex  3.344592e+02 -1.228000e+02 -1.092242e+01
     vertex  3.347700e+02 -1.228000e+02 -1.163721e+01
   endloop
 endfacet
 facet normal -6.508709e-01  7.044686e-01 -2.830036e-01
   outer loop
     vertex  3.341088e+02 -1.235669e+02 -1.202551e+01
     vertex  3.337242e+02 -1.235669e+02 -1.114119e+01
     vertex  3.344592e+02 -1.228000e+02 -1.092242e+01
   endloop
 endfacet
 facet normal  9.170617e-01 -3.988142e-10  3.987454e-01
   outer loop
     vertex  3.410072e+02 -1.235669e+02 -7.974489e+00
     vertex  3.410072e+02 -1.388000e+02 -7.974489e+00
     vertex  3.413918e+02 -1.388000e+02 -8.858806e+00
   endloop
 endfacet
 facet normal  9.858395e-01 -4.287341e-10  1.676913e-01
   outer loop
     vertex  3.413918e+02 -1.235669e+02 -8.858806e+00
     vertex  3.413918e+02 -1.388000e+02 -8.858806e+00
     vertex  3.415535e+02 -1.388000e+02 -9.809445e+00
   endloop
 endfacet
 facet normal  9.170617e-01 -3.988225e-10  3.987454e-01
   outer loop
     vertex  3.413918e+02 -1.235669e+02 -8.858806e+00
     vertex  3.410072e+02 -1.235669e+02 -7.974489e+00
     vertex  3.413918e+02 -1.388000e+02 -8.858806e+00
   endloop
 endfacet
 facet normal  9.973240e-01 -4.337221e-10 -7.310830e-02
   outer loop
     vertex  3.415535e+02 -1.235669e+02 -9.809445e+00
     vertex  3.415535e+02 -1.388000e+02 -9.809445e+00
     vertex  3.414830e+02 -1.388000e+02 -1.077116e+01
   endloop
 endfacet
 facet normal  9.858395e-01 -4.287258e-10  1.676913e-01
   outer loop
     vertex  3.415535e+02 -1.235669e+02 -9.809445e+00
     vertex  3.413918e+02 -1.235669e+02 -8.858806e+00
     vertex  3.415535e+02 -1.388000e+02 -9.809445e+00
   endloop
 endfacet
 facet normal  9.508476e-01 -4.135080e-10 -3.096592e-01
   outer loop
     vertex  3.414830e+02 -1.235669e+02 -1.077116e+01
     vertex  3.414830e+02 -1.388000e+02 -1.077116e+01
     vertex  3.411844e+02 -1.388000e+02 -1.168805e+01
   endloop
 endfacet
 facet normal  9.973240e-01 -4.337183e-10 -7.310830e-02
   outer loop
     vertex  3.414830e+02 -1.235669e+02 -1.077116e+01
     vertex  3.415535e+02 -1.235669e+02 -9.809445e+00
     vertex  3.414830e+02 -1.388000e+02 -1.077116e+01
   endloop
 endfacet
 facet normal  8.491114e-01 -3.692746e-10 -5.282138e-01
   outer loop
     vertex  3.411844e+02 -1.235669e+02 -1.168805e+01
     vertex  3.411844e+02 -1.388000e+02 -1.168805e+01
     vertex  3.406750e+02 -1.388000e+02 -1.250685e+01
   endloop
 endfacet
 facet normal  9.508476e-01 -4.135180e-10 -3.096592e-01
   outer loop
     vertex  3.411844e+02 -1.235669e+02 -1.168805e+01
     vertex  3.414830e+02 -1.235669e+02 -1.077116e+01
     vertex  3.411844e+02 -1.388000e+02 -1.168805e+01
   endloop
 endfacet
 facet normal  6.980280e-01 -3.035652e-10 -7.160705e-01
   outer loop
     vertex  3.406750e+02 -1.235669e+02 -1.250685e+01
     vertex  3.406750e+02 -1.388000e+02 -1.250685e+01
     vertex  3.399845e+02 -1.388000e+02 -1.317995e+01
   endloop
 endfacet
 facet normal  8.491114e-01 -3.692684e-10 -5.282138e-01
   outer loop
     vertex  3.406750e+02 -1.235669e+02 -1.250685e+01
     vertex  3.411844e+02 -1.235669e+02 -1.168805e+01
     vertex  3.406750e+02 -1.388000e+02 -1.250685e+01
   endloop
 endfacet
 facet normal  5.063777e-01 -2.202216e-10 -8.623118e-01
   outer loop
     vertex  3.399845e+02 -1.235669e+02 -1.317995e+01
     vertex  3.399845e+02 -1.388000e+02 -1.317995e+01
     vertex  3.391530e+02 -1.388000e+02 -1.366825e+01
   endloop
 endfacet
 facet normal  6.980280e-01 -3.035666e-10 -7.160705e-01
   outer loop
     vertex  3.399845e+02 -1.235669e+02 -1.317995e+01
     vertex  3.406750e+02 -1.235669e+02 -1.250685e+01
     vertex  3.399845e+02 -1.388000e+02 -1.317995e+01
   endloop
 endfacet
 facet normal  2.852985e-01 -1.240758e-10 -9.584387e-01
   outer loop
     vertex  3.391530e+02 -1.235669e+02 -1.366825e+01
     vertex  3.391530e+02 -1.388000e+02 -1.366825e+01
     vertex  3.382288e+02 -1.388000e+02 -1.394336e+01
   endloop
 endfacet
 facet normal  5.063777e-01 -2.202204e-10 -8.623118e-01
   outer loop
     vertex  3.391530e+02 -1.235669e+02 -1.366825e+01
     vertex  3.399845e+02 -1.235669e+02 -1.317995e+01
     vertex  3.391530e+02 -1.388000e+02 -1.366825e+01
   endloop
 endfacet
 facet normal  4.763886e-02 -2.072368e-11 -9.988646e-01
   outer loop
     vertex  3.382288e+02 -1.235669e+02 -1.394336e+01
     vertex  3.382288e+02 -1.388000e+02 -1.394336e+01
     vertex  3.372656e+02 -1.388000e+02 -1.398930e+01
   endloop
 endfacet
 facet normal  2.852985e-01 -1.240790e-10 -9.584387e-01
   outer loop
     vertex  3.382288e+02 -1.235669e+02 -1.394336e+01
     vertex  3.391530e+02 -1.235669e+02 -1.366825e+01
     vertex  3.382288e+02 -1.388000e+02 -1.394336e+01
   endloop
 endfacet
 facet normal -1.927894e-01  8.383775e-11 -9.812402e-01
   outer loop
     vertex  3.372656e+02 -1.235669e+02 -1.398930e+01
     vertex  3.372656e+02 -1.388000e+02 -1.398930e+01
     vertex  3.363194e+02 -1.388000e+02 -1.380339e+01
   endloop
 endfacet
 facet normal  4.763886e-02 -2.072193e-11 -9.988646e-01
   outer loop
     vertex  3.372656e+02 -1.235669e+02 -1.398930e+01
     vertex  3.382288e+02 -1.235669e+02 -1.394336e+01
     vertex  3.372656e+02 -1.388000e+02 -1.398930e+01
   endloop
 endfacet
 facet normal -4.220134e-01  1.835268e-10 -9.065896e-01
   outer loop
     vertex  3.363194e+02 -1.235669e+02 -1.380339e+01
     vertex  3.363194e+02 -1.388000e+02 -1.380339e+01
     vertex  3.354451e+02 -1.388000e+02 -1.339645e+01
   endloop
 endfacet
 facet normal -1.927894e-01  8.383859e-11 -9.812402e-01
   outer loop
     vertex  3.363194e+02 -1.235669e+02 -1.380339e+01
     vertex  3.372656e+02 -1.235669e+02 -1.398930e+01
     vertex  3.363194e+02 -1.388000e+02 -1.380339e+01
   endloop
 endfacet
 facet normal -4.220134e-01  1.835251e-10 -9.065896e-01
   outer loop
     vertex  3.354451e+02 -1.235669e+02 -1.339645e+01
     vertex  3.363194e+02 -1.235669e+02 -1.380339e+01
     vertex  3.354451e+02 -1.388000e+02 -1.339645e+01
   endloop
 endfacet
 facet normal -6.267116e-01  2.725466e-10 -7.792513e-01
   outer loop
     vertex  3.354451e+02 -1.235669e+02 -1.339645e+01
     vertex  3.354451e+02 -1.388000e+02 -1.339645e+01
     vertex  3.346937e+02 -1.388000e+02 -1.279211e+01
   endloop
 endfacet
 facet normal -6.267116e-01  2.725481e-10 -7.792513e-01
   outer loop
     vertex  3.346937e+02 -1.235669e+02 -1.279211e+01
     vertex  3.354451e+02 -1.235669e+02 -1.339645e+01
     vertex  3.346937e+02 -1.388000e+02 -1.279211e+01
   endloop
 endfacet
 facet normal -7.949875e-01  3.457299e-10 -6.066258e-01
   outer loop
     vertex  3.346937e+02 -1.235669e+02 -1.279211e+01
     vertex  3.346937e+02 -1.388000e+02 -1.279211e+01
     vertex  3.341088e+02 -1.388000e+02 -1.202551e+01
   endloop
 endfacet
 facet normal -7.949875e-01  3.457277e-10 -6.066258e-01
   outer loop
     vertex  3.341088e+02 -1.235669e+02 -1.202551e+01
     vertex  3.346937e+02 -1.235669e+02 -1.279211e+01
     vertex  3.341088e+02 -1.388000e+02 -1.202551e+01
   endloop
 endfacet
 facet normal -9.170617e-01  3.988177e-10 -3.987454e-01
   outer loop
     vertex  3.337242e+02 -1.235669e+02 -1.114119e+01
     vertex  3.341088e+02 -1.235669e+02 -1.202551e+01
     vertex  3.341088e+02 -1.388000e+02 -1.202551e+01
   endloop
 endfacet
 facet normal -9.170617e-01  3.988162e-10 -3.987454e-01
   outer loop
     vertex  3.337242e+02 -1.235669e+02 -1.114119e+01
     vertex  3.341088e+02 -1.388000e+02 -1.202551e+01
     vertex  3.337242e+02 -1.388000e+02 -1.114119e+01
   endloop
 endfacet
 facet normal -9.858395e-01  4.287269e-10 -1.676913e-01
   outer loop
     vertex  3.337242e+02 -1.235669e+02 -1.114119e+01
     vertex  3.337242e+02 -1.388000e+02 -1.114119e+01
     vertex  3.335625e+02 -1.388000e+02 -1.019056e+01
   endloop
 endfacet
 facet normal -9.858395e-01  4.287301e-10 -1.676913e-01
   outer loop
     vertex  3.335625e+02 -1.235669e+02 -1.019056e+01
     vertex  3.337242e+02 -1.235669e+02 -1.114119e+01
     vertex  3.335625e+02 -1.388000e+02 -1.019056e+01
   endloop
 endfacet
 facet normal -9.973240e-01  4.337256e-10  7.310830e-02
   outer loop
     vertex  3.335625e+02 -1.235669e+02 -1.019056e+01
     vertex  3.335625e+02 -1.388000e+02 -1.019056e+01
     vertex  3.336330e+02 -1.388000e+02 -9.228842e+00
   endloop
 endfacet
 facet normal -9.973240e-01  4.337256e-10  7.310830e-02
   outer loop
     vertex  3.336330e+02 -1.235669e+02 -9.228842e+00
     vertex  3.335625e+02 -1.235669e+02 -1.019056e+01
     vertex  3.336330e+02 -1.388000e+02 -9.228842e+00
   endloop
 endfacet
 facet normal -9.508476e-01  4.135145e-10  3.096592e-01
   outer loop
     vertex  3.339316e+02 -1.235669e+02 -8.311946e+00
     vertex  3.336330e+02 -1.235669e+02 -9.228842e+00
     vertex  3.336330e+02 -1.388000e+02 -9.228842e+00
   endloop
 endfacet
 facet normal -9.508476e-01  4.135180e-10  3.096592e-01
   outer loop
     vertex  3.339316e+02 -1.235669e+02 -8.311946e+00
     vertex  3.336330e+02 -1.388000e+02 -9.228842e+00
     vertex  3.339316e+02 -1.388000e+02 -8.311946e+00
   endloop
 endfacet
 facet normal -8.491114e-01  3.692746e-10  5.282138e-01
   outer loop
     vertex  3.339316e+02 -1.235669e+02 -8.311946e+00
     vertex  3.339316e+02 -1.388000e+02 -8.311946e+00
     vertex  3.344410e+02 -1.388000e+02 -7.493154e+00
   endloop
 endfacet
 facet normal -6.980280e-01  3.035652e-10  7.160705e-01
   outer loop
     vertex  3.344410e+02 -1.235669e+02 -7.493154e+00
     vertex  3.344410e+02 -1.388000e+02 -7.493154e+00
     vertex  3.351315e+02 -1.388000e+02 -6.820050e+00
   endloop
 endfacet
 facet normal -8.491114e-01  3.692684e-10  5.282138e-01
   outer loop
     vertex  3.344410e+02 -1.235669e+02 -7.493154e+00
     vertex  3.339316e+02 -1.235669e+02 -8.311946e+00
     vertex  3.344410e+02 -1.388000e+02 -7.493154e+00
   endloop
 endfacet
 facet normal -5.063777e-01  2.202235e-10  8.623118e-01
   outer loop
     vertex  3.351315e+02 -1.235669e+02 -6.820050e+00
     vertex  3.351315e+02 -1.388000e+02 -6.820050e+00
     vertex  3.359630e+02 -1.388000e+02 -6.331753e+00
   endloop
 endfacet
 facet normal -6.980280e-01  3.035702e-10  7.160705e-01
   outer loop
     vertex  3.351315e+02 -1.235669e+02 -6.820050e+00
     vertex  3.344410e+02 -1.235669e+02 -7.493154e+00
     vertex  3.351315e+02 -1.388000e+02 -6.820050e+00
   endloop
 endfacet
 facet normal -5.063777e-01  2.202221e-10  8.623118e-01
   outer loop
     vertex  3.359630e+02 -1.235669e+02 -6.331753e+00
     vertex  3.351315e+02 -1.235669e+02 -6.820050e+00
     vertex  3.359630e+02 -1.388000e+02 -6.331753e+00
   endloop
 endfacet
 facet normal -2.852985e-01  1.240781e-10  9.584387e-01
   outer loop
     vertex  3.368872e+02 -1.235669e+02 -6.056642e+00
     vertex  3.359630e+02 -1.388000e+02 -6.331753e+00
     vertex  3.368872e+02 -1.388000e+02 -6.056642e+00
   endloop
 endfacet
 facet normal -2.852985e-01  1.240766e-10  9.584387e-01
   outer loop
     vertex  3.368872e+02 -1.235669e+02 -6.056642e+00
     vertex  3.359630e+02 -1.235669e+02 -6.331753e+00
     vertex  3.359630e+02 -1.388000e+02 -6.331753e+00
   endloop
 endfacet
 facet normal -4.763886e-02  2.072186e-11  9.988646e-01
   outer loop
     vertex  3.378504e+02 -1.235669e+02 -6.010704e+00
     vertex  3.368872e+02 -1.388000e+02 -6.056642e+00
     vertex  3.378504e+02 -1.388000e+02 -6.010704e+00
   endloop
 endfacet
 facet normal -4.763886e-02  2.072182e-11  9.988646e-01
   outer loop
     vertex  3.378504e+02 -1.235669e+02 -6.010704e+00
     vertex  3.368872e+02 -1.235669e+02 -6.056642e+00
     vertex  3.368872e+02 -1.388000e+02 -6.056642e+00
   endloop
 endfacet
 facet normal  1.927894e-01 -8.383437e-11  9.812402e-01
   outer loop
     vertex  3.387966e+02 -1.235669e+02 -6.196610e+00
     vertex  3.378504e+02 -1.388000e+02 -6.010704e+00
     vertex  3.387966e+02 -1.388000e+02 -6.196610e+00
   endloop
 endfacet
 facet normal  4.220134e-01 -1.835201e-10  9.065896e-01
   outer loop
     vertex  3.387966e+02 -1.235669e+02 -6.196610e+00
     vertex  3.387966e+02 -1.388000e+02 -6.196610e+00
     vertex  3.396709e+02 -1.388000e+02 -6.603554e+00
   endloop
 endfacet
 facet normal  1.927894e-01 -8.383603e-11  9.812402e-01
   outer loop
     vertex  3.387966e+02 -1.235669e+02 -6.196610e+00
     vertex  3.378504e+02 -1.235669e+02 -6.010704e+00
     vertex  3.378504e+02 -1.388000e+02 -6.010704e+00
   endloop
 endfacet
 facet normal  4.220134e-01 -1.835265e-10  9.065896e-01
   outer loop
     vertex  3.396709e+02 -1.235669e+02 -6.603554e+00
     vertex  3.387966e+02 -1.235669e+02 -6.196610e+00
     vertex  3.396709e+02 -1.388000e+02 -6.603554e+00
   endloop
 endfacet
 facet normal  6.267116e-01 -2.725456e-10  7.792513e-01
   outer loop
     vertex  3.404223e+02 -1.235669e+02 -7.207888e+00
     vertex  3.396709e+02 -1.388000e+02 -6.603554e+00
     vertex  3.404223e+02 -1.388000e+02 -7.207888e+00
   endloop
 endfacet
 facet normal  6.267116e-01 -2.725478e-10  7.792513e-01
   outer loop
     vertex  3.404223e+02 -1.235669e+02 -7.207888e+00
     vertex  3.396709e+02 -1.235669e+02 -6.603554e+00
     vertex  3.396709e+02 -1.388000e+02 -6.603554e+00
   endloop
 endfacet
 facet normal  7.949875e-01 -3.457246e-10  6.066258e-01
   outer loop
     vertex  3.410072e+02 -1.235669e+02 -7.974489e+00
     vertex  3.404223e+02 -1.388000e+02 -7.207888e+00
     vertex  3.410072e+02 -1.388000e+02 -7.974489e+00
   endloop
 endfacet
 facet normal  7.949875e-01 -3.457268e-10  6.066258e-01
   outer loop
     vertex  3.410072e+02 -1.235669e+02 -7.974489e+00
     vertex  3.404223e+02 -1.235669e+02 -7.207888e+00
     vertex  3.404223e+02 -1.388000e+02 -7.207888e+00
   endloop
 endfacet
 facet normal  4.350260e-10  1.000000e+00  1.203426e-13
   outer loop
     vertex  3.403460e+02 -1.228000e+02 -8.362786e+00
     vertex  3.392658e+02 -1.228000e+02 -7.254664e+00
     vertex  3.398732e+02 -1.228000e+02 -7.743145e+00
   endloop
 endfacet
 facet normal  4.350051e-10  1.000000e+00 -4.202830e-14
   outer loop
     vertex  3.404892e+02 -1.228000e+02 -1.136445e+01
     vertex  3.407875e+02 -1.228000e+02 -9.845975e+00
     vertex  3.407305e+02 -1.228000e+02 -1.062332e+01
   endloop
 endfacet
 facet normal  4.348417e-10  1.000000e+00 -9.924958e-15
   outer loop
     vertex  3.404892e+02 -1.228000e+02 -1.136445e+01
     vertex  3.406568e+02 -1.228000e+02 -9.077576e+00
     vertex  3.407875e+02 -1.228000e+02 -9.845975e+00
   endloop
 endfacet
 facet normal  4.348559e-10  1.000000e+00 -1.097061e-14
   outer loop
     vertex  3.404892e+02 -1.228000e+02 -1.136445e+01
     vertex  3.403460e+02 -1.228000e+02 -8.362786e+00
     vertex  3.406568e+02 -1.228000e+02 -9.077576e+00
   endloop
 endfacet
 facet normal  4.348682e-10  1.000000e+00 -1.660218e-14
   outer loop
     vertex  3.404892e+02 -1.228000e+02 -1.136445e+01
     vertex  3.385592e+02 -1.228000e+02 -6.925731e+00
     vertex  3.392658e+02 -1.228000e+02 -7.254664e+00
   endloop
 endfacet
 facet normal  4.348616e-10  1.000000e+00 -1.949293e-14
   outer loop
     vertex  3.404892e+02 -1.228000e+02 -1.136445e+01
     vertex  3.377944e+02 -1.228000e+02 -6.775464e+00
     vertex  3.385592e+02 -1.228000e+02 -6.925731e+00
   endloop
 endfacet
 facet normal  4.348931e-10  1.000000e+00 -9.197911e-15
   outer loop
     vertex  3.404892e+02 -1.228000e+02 -1.136445e+01
     vertex  3.392658e+02 -1.228000e+02 -7.254664e+00
     vertex  3.403460e+02 -1.228000e+02 -8.362786e+00
   endloop
 endfacet
 facet normal  4.349129e-10  1.000000e+00  1.188650e-14
   outer loop
     vertex  3.400775e+02 -1.228000e+02 -1.202628e+01
     vertex  3.370158e+02 -1.228000e+02 -6.812596e+00
     vertex  3.377944e+02 -1.228000e+02 -6.775464e+00
   endloop
 endfacet
 facet normal  4.349211e-10  1.000000e+00  1.548799e-14
   outer loop
     vertex  3.400775e+02 -1.228000e+02 -1.202628e+01
     vertex  3.377944e+02 -1.228000e+02 -6.775464e+00
     vertex  3.404892e+02 -1.228000e+02 -1.136445e+01
   endloop
 endfacet
 facet normal  4.348831e-10  1.000000e+00 -5.117213e-15
   outer loop
     vertex  3.395193e+02 -1.228000e+02 -1.257034e+01
     vertex  3.362688e+02 -1.228000e+02 -7.034968e+00
     vertex  3.370158e+02 -1.228000e+02 -6.812596e+00
   endloop
 endfacet
 facet normal  4.348863e-10  1.000000e+00 -3.690140e-15
   outer loop
     vertex  3.395193e+02 -1.228000e+02 -1.257034e+01
     vertex  3.370158e+02 -1.228000e+02 -6.812596e+00
     vertex  3.400775e+02 -1.228000e+02 -1.202628e+01
   endloop
 endfacet
 facet normal  4.348818e-10  1.000000e+00 -5.848712e-15
   outer loop
     vertex  3.388472e+02 -1.228000e+02 -1.296503e+01
     vertex  3.355967e+02 -1.228000e+02 -7.429656e+00
     vertex  3.362688e+02 -1.228000e+02 -7.034968e+00
   endloop
 endfacet
 facet normal  4.348818e-10  1.000000e+00 -5.848712e-15
   outer loop
     vertex  3.388472e+02 -1.228000e+02 -1.296503e+01
     vertex  3.362688e+02 -1.228000e+02 -7.034968e+00
     vertex  3.395193e+02 -1.228000e+02 -1.257034e+01
   endloop
 endfacet
 facet normal  4.351121e-10  1.000000e+00  1.401667e-13
   outer loop
     vertex  3.352428e+02 -1.228000e+02 -1.225686e+01
     vertex  3.347700e+02 -1.228000e+02 -1.163721e+01
     vertex  3.344592e+02 -1.228000e+02 -1.092242e+01
   endloop
 endfacet
 facet normal  4.349348e-10  1.000000e+00  3.607370e-14
   outer loop
     vertex  3.358502e+02 -1.228000e+02 -1.274534e+01
     vertex  3.352428e+02 -1.228000e+02 -1.225686e+01
     vertex  3.344592e+02 -1.228000e+02 -1.092242e+01
   endloop
 endfacet
 facet normal  4.348978e-10  1.000000e+00 -5.458404e-14
   outer loop
     vertex  3.373216e+02 -1.228000e+02 -1.322454e+01
     vertex  3.388472e+02 -1.228000e+02 -1.296503e+01
     vertex  3.381002e+02 -1.228000e+02 -1.318740e+01
   endloop
 endfacet
 facet normal  4.348854e-10  1.000000e+00 -2.751321e-15
   outer loop
     vertex  3.373216e+02 -1.228000e+02 -1.322454e+01
     vertex  3.350385e+02 -1.228000e+02 -7.973724e+00
     vertex  3.355967e+02 -1.228000e+02 -7.429656e+00
   endloop
 endfacet
 facet normal  4.349237e-10  1.000000e+00  1.389500e-14
   outer loop
     vertex  3.373216e+02 -1.228000e+02 -1.322454e+01
     vertex  3.346268e+02 -1.228000e+02 -8.635551e+00
     vertex  3.350385e+02 -1.228000e+02 -7.973724e+00
   endloop
 endfacet
 facet normal  4.348888e-10  1.000000e+00 -1.748032e-15
   outer loop
     vertex  3.373216e+02 -1.228000e+02 -1.322454e+01
     vertex  3.355967e+02 -1.228000e+02 -7.429656e+00
     vertex  3.388472e+02 -1.228000e+02 -1.296503e+01
   endloop
 endfacet
 facet normal  4.348682e-10  1.000000e+00 -1.662368e-14
   outer loop
     vertex  3.365568e+02 -1.228000e+02 -1.307427e+01
     vertex  3.343855e+02 -1.228000e+02 -9.376676e+00
     vertex  3.346268e+02 -1.228000e+02 -8.635551e+00
   endloop
 endfacet
 facet normal  4.348726e-10  1.000000e+00 -1.403579e-14
   outer loop
     vertex  3.365568e+02 -1.228000e+02 -1.307427e+01
     vertex  3.343285e+02 -1.228000e+02 -1.015403e+01
     vertex  3.343855e+02 -1.228000e+02 -9.376676e+00
   endloop
 endfacet
 facet normal  4.348572e-10  1.000000e+00 -2.577758e-14
   outer loop
     vertex  3.365568e+02 -1.228000e+02 -1.307427e+01
     vertex  3.344592e+02 -1.228000e+02 -1.092242e+01
     vertex  3.343285e+02 -1.228000e+02 -1.015403e+01
   endloop
 endfacet
 facet normal  4.348696e-10  1.000000e+00 -1.371531e-14
   outer loop
     vertex  3.365568e+02 -1.228000e+02 -1.307427e+01
     vertex  3.358502e+02 -1.228000e+02 -1.274534e+01
     vertex  3.344592e+02 -1.228000e+02 -1.092242e+01
   endloop
 endfacet
 facet normal  4.348819e-10  1.000000e+00 -1.065920e-14
   outer loop
     vertex  3.365568e+02 -1.228000e+02 -1.307427e+01
     vertex  3.346268e+02 -1.228000e+02 -8.635551e+00
     vertex  3.373216e+02 -1.228000e+02 -1.322454e+01
   endloop
 endfacet
 facet normal -5.990777e-01 -7.985511e-01  5.849891e-02
   outer loop
     vertex  3.310448e+02 -1.439577e+02 -8.240245e+00
     vertex  3.310582e+02 -1.441001e+02 -1.004797e+01
     vertex  3.311902e+02 -1.441001e+02 -8.695533e+00
   endloop
 endfacet
 facet normal -4.370566e-01 -8.887142e-01  1.384507e-01
   outer loop
     vertex  3.316006e+02 -1.441001e+02 -7.400107e+00
     vertex  3.310448e+02 -1.439577e+02 -8.240245e+00
     vertex  3.311902e+02 -1.441001e+02 -8.695533e+00
   endloop
 endfacet
 facet normal -4.235487e-01 -8.733963e-01  2.403858e-01
   outer loop
     vertex  3.310305e+02 -1.435195e+02 -6.295295e+00
     vertex  3.316006e+02 -1.441001e+02 -7.400107e+00
     vertex  3.322713e+02 -1.441001e+02 -6.218308e+00
   endloop
 endfacet
 facet normal -4.993343e-01 -8.460131e-01  1.868883e-01
   outer loop
     vertex  3.310305e+02 -1.435195e+02 -6.295295e+00
     vertex  3.310448e+02 -1.439577e+02 -8.240245e+00
     vertex  3.316006e+02 -1.441001e+02 -7.400107e+00
   endloop
 endfacet
 facet normal -4.164757e-01 -8.460131e-01  3.328813e-01
   outer loop
     vertex  3.327077e+02 -1.439577e+02 -5.310390e+00
     vertex  3.310305e+02 -1.435195e+02 -6.295295e+00
     vertex  3.322713e+02 -1.441001e+02 -6.218308e+00
   endloop
 endfacet
 facet normal -3.429581e-01 -8.887142e-01  3.042480e-01
   outer loop
     vertex  3.331731e+02 -1.441001e+02 -5.201788e+00
     vertex  3.327077e+02 -1.439577e+02 -5.310390e+00
     vertex  3.322713e+02 -1.441001e+02 -6.218308e+00
   endloop
 endfacet
 facet normal -3.573880e-01 -7.985511e-01  4.843449e-01
   outer loop
     vertex  3.342665e+02 -1.441001e+02 -4.394973e+00
     vertex  3.327077e+02 -1.439577e+02 -5.310390e+00
     vertex  3.331731e+02 -1.441001e+02 -5.201788e+00
   endloop
 endfacet
 facet normal -2.488773e-01 -7.985511e-01  5.480659e-01
   outer loop
     vertex  3.358254e+02 -1.439577e+02 -3.479557e+00
     vertex  3.342665e+02 -1.441001e+02 -4.394973e+00
     vertex  3.355038e+02 -1.441001e+02 -3.833125e+00
   endloop
 endfacet
 facet normal -9.862645e-02 -8.887142e-01  4.477275e-01
   outer loop
     vertex  3.368309e+02 -1.441001e+02 -3.540798e+00
     vertex  3.358254e+02 -1.439577e+02 -3.479557e+00
     vertex  3.355038e+02 -1.441001e+02 -3.833125e+00
   endloop
 endfacet
 facet normal -3.594137e-03 -8.733963e-01  4.869968e-01
   outer loop
     vertex  3.375026e+02 -1.435195e+02 -2.494651e+00
     vertex  3.368309e+02 -1.441001e+02 -3.540798e+00
     vertex  3.381897e+02 -1.441001e+02 -3.530769e+00
   endloop
 endfacet
 facet normal -8.781715e-02 -8.460131e-01  5.258803e-01
   outer loop
     vertex  3.375026e+02 -1.435195e+02 -2.494651e+00
     vertex  3.358254e+02 -1.439577e+02 -3.479557e+00
     vertex  3.368309e+02 -1.441001e+02 -3.540798e+00
   endloop
 endfacet
 facet normal  8.004580e-02 -8.460131e-01  5.271191e-01
   outer loop
     vertex  3.391942e+02 -1.439577e+02 -3.454694e+00
     vertex  3.375026e+02 -1.435195e+02 -2.494651e+00
     vertex  3.381897e+02 -1.441001e+02 -3.530769e+00
   endloop
 endfacet
 facet normal  9.200742e-02 -8.887142e-01  4.491344e-01
   outer loop
     vertex  3.395209e+02 -1.441001e+02 -3.803477e+00
     vertex  3.391942e+02 -1.439577e+02 -3.454694e+00
     vertex  3.381897e+02 -1.441001e+02 -3.530769e+00
   endloop
 endfacet
 facet normal  2.407609e-01 -7.985511e-01  5.516796e-01
   outer loop
     vertex  3.407664e+02 -1.441001e+02 -4.347003e+00
     vertex  3.391942e+02 -1.439577e+02 -3.454694e+00
     vertex  3.395209e+02 -1.441001e+02 -3.803477e+00
   endloop
 endfacet
 facet normal -3.502004e-01 -7.985511e-01 -4.895670e-01
   outer loop
     vertex  3.327774e+02 -1.439577e+02 -1.476069e+01
     vertex  3.343496e+02 -1.441001e+02 -1.565300e+01
     vertex  3.332444e+02 -1.441001e+02 -1.486241e+01
   endloop
 endfacet
 facet normal -3.384301e-01 -8.887142e-01 -3.092767e-01
   outer loop
     vertex  3.323277e+02 -1.441001e+02 -1.385931e+01
     vertex  3.327774e+02 -1.439577e+02 -1.476069e+01
     vertex  3.332444e+02 -1.441001e+02 -1.486241e+01
   endloop
 endfacet
 facet normal -4.199546e-01 -8.733963e-01 -2.466110e-01
   outer loop
     vertex  3.310859e+02 -1.435195e+02 -1.380064e+01
     vertex  3.323277e+02 -1.441001e+02 -1.385931e+01
     vertex  3.316396e+02 -1.441001e+02 -1.268754e+01
   endloop
 endfacet
 facet normal -4.115171e-01 -8.460131e-01 -3.389920e-01
   outer loop
     vertex  3.310859e+02 -1.435195e+02 -1.380064e+01
     vertex  3.327774e+02 -1.439577e+02 -1.476069e+01
     vertex  3.323277e+02 -1.441001e+02 -1.385931e+01
   endloop
 endfacet
 facet normal -4.965215e-01 -8.460131e-01 -1.942379e-01
   outer loop
     vertex  3.310715e+02 -1.439577e+02 -1.185570e+01
     vertex  3.310859e+02 -1.435195e+02 -1.380064e+01
     vertex  3.316396e+02 -1.441001e+02 -1.268754e+01
   endloop
 endfacet
 facet normal -4.349655e-01 -8.887142e-01 -1.448864e-01
   outer loop
     vertex  3.312102e+02 -1.441001e+02 -1.139831e+01
     vertex  3.310715e+02 -1.439577e+02 -1.185570e+01
     vertex  3.316396e+02 -1.441001e+02 -1.268754e+01
   endloop
 endfacet
 facet normal -5.981490e-01 -7.985511e-01 -6.733469e-02
   outer loop
     vertex  3.310582e+02 -1.441001e+02 -1.004797e+01
     vertex  3.310715e+02 -1.439577e+02 -1.185570e+01
     vertex  3.312102e+02 -1.441001e+02 -1.139831e+01
   endloop
 endfacet
 facet normal  3.502004e-01 -7.985511e-01  4.895670e-01
   outer loop
     vertex  3.423386e+02 -1.439577e+02 -5.239312e+00
     vertex  3.407664e+02 -1.441001e+02 -4.347003e+00
     vertex  3.418716e+02 -1.441001e+02 -5.137592e+00
   endloop
 endfacet
 facet normal  3.384301e-01 -8.887142e-01  3.092767e-01
   outer loop
     vertex  3.427883e+02 -1.441001e+02 -6.140691e+00
     vertex  3.423386e+02 -1.439577e+02 -5.239312e+00
     vertex  3.418716e+02 -1.441001e+02 -5.137592e+00
   endloop
 endfacet
 facet normal  4.199546e-01 -8.733963e-01  2.466110e-01
   outer loop
     vertex  3.440301e+02 -1.435195e+02 -6.199355e+00
     vertex  3.427883e+02 -1.441001e+02 -6.140691e+00
     vertex  3.434764e+02 -1.441001e+02 -7.312461e+00
   endloop
 endfacet
 facet normal  4.115171e-01 -8.460131e-01  3.389920e-01
   outer loop
     vertex  3.440301e+02 -1.435195e+02 -6.199355e+00
     vertex  3.423386e+02 -1.439577e+02 -5.239312e+00
     vertex  3.427883e+02 -1.441001e+02 -6.140691e+00
   endloop
 endfacet
 facet normal  4.965215e-01 -8.460131e-01  1.942379e-01
   outer loop
     vertex  3.440445e+02 -1.439577e+02 -8.144305e+00
     vertex  3.440301e+02 -1.435195e+02 -6.199355e+00
     vertex  3.434764e+02 -1.441001e+02 -7.312461e+00
   endloop
 endfacet
 facet normal  4.349655e-01 -8.887142e-01  1.448864e-01
   outer loop
     vertex  3.439058e+02 -1.441001e+02 -8.601689e+00
     vertex  3.440445e+02 -1.439577e+02 -8.144305e+00
     vertex  3.434764e+02 -1.441001e+02 -7.312461e+00
   endloop
 endfacet
 facet normal  5.981490e-01 -7.985511e-01  6.733469e-02
   outer loop
     vertex  3.440578e+02 -1.441001e+02 -9.952030e+00
     vertex  3.440445e+02 -1.439577e+02 -8.144305e+00
     vertex  3.439058e+02 -1.441001e+02 -8.601689e+00
   endloop
 endfacet
 facet normal  2.488773e-01 -7.985511e-01 -5.480659e-01
   outer loop
     vertex  3.392906e+02 -1.439577e+02 -1.652044e+01
     vertex  3.408495e+02 -1.441001e+02 -1.560503e+01
     vertex  3.396122e+02 -1.441001e+02 -1.616688e+01
   endloop
 endfacet
 facet normal  9.862645e-02 -8.887142e-01 -4.477275e-01
   outer loop
     vertex  3.382851e+02 -1.441001e+02 -1.645920e+01
     vertex  3.392906e+02 -1.439577e+02 -1.652044e+01
     vertex  3.396122e+02 -1.441001e+02 -1.616688e+01
   endloop
 endfacet
 facet normal  3.594136e-03 -8.733963e-01 -4.869968e-01
   outer loop
     vertex  3.376134e+02 -1.435195e+02 -1.750535e+01
     vertex  3.382851e+02 -1.441001e+02 -1.645920e+01
     vertex  3.369263e+02 -1.441001e+02 -1.646923e+01
   endloop
 endfacet
 facet normal  8.781715e-02 -8.460131e-01 -5.258803e-01
   outer loop
     vertex  3.376134e+02 -1.435195e+02 -1.750535e+01
     vertex  3.392906e+02 -1.439577e+02 -1.652044e+01
     vertex  3.382851e+02 -1.441001e+02 -1.645920e+01
   endloop
 endfacet
 facet normal -8.004580e-02 -8.460131e-01 -5.271191e-01
   outer loop
     vertex  3.359218e+02 -1.439577e+02 -1.654531e+01
     vertex  3.376134e+02 -1.435195e+02 -1.750535e+01
     vertex  3.369263e+02 -1.441001e+02 -1.646923e+01
   endloop
 endfacet
 facet normal -9.200742e-02 -8.887142e-01 -4.491344e-01
   outer loop
     vertex  3.355951e+02 -1.441001e+02 -1.619652e+01
     vertex  3.359218e+02 -1.439577e+02 -1.654531e+01
     vertex  3.369263e+02 -1.441001e+02 -1.646923e+01
   endloop
 endfacet
 facet normal -2.407609e-01 -7.985511e-01 -5.516796e-01
   outer loop
     vertex  3.343496e+02 -1.441001e+02 -1.565300e+01
     vertex  3.359218e+02 -1.439577e+02 -1.654531e+01
     vertex  3.355951e+02 -1.441001e+02 -1.619652e+01
   endloop
 endfacet
 facet normal  5.990777e-01 -7.985511e-01 -5.849891e-02
   outer loop
     vertex  3.440712e+02 -1.439577e+02 -1.175976e+01
     vertex  3.440578e+02 -1.441001e+02 -9.952030e+00
     vertex  3.439258e+02 -1.441001e+02 -1.130447e+01
   endloop
 endfacet
 facet normal  4.370566e-01 -8.887142e-01 -1.384507e-01
   outer loop
     vertex  3.435154e+02 -1.441001e+02 -1.259989e+01
     vertex  3.440712e+02 -1.439577e+02 -1.175976e+01
     vertex  3.439258e+02 -1.441001e+02 -1.130447e+01
   endloop
 endfacet
 facet normal  4.235487e-01 -8.733963e-01 -2.403858e-01
   outer loop
     vertex  3.440855e+02 -1.435195e+02 -1.370470e+01
     vertex  3.435154e+02 -1.441001e+02 -1.259989e+01
     vertex  3.428447e+02 -1.441001e+02 -1.378169e+01
   endloop
 endfacet
 facet normal  4.993343e-01 -8.460131e-01 -1.868883e-01
   outer loop
     vertex  3.440855e+02 -1.435195e+02 -1.370470e+01
     vertex  3.440712e+02 -1.439577e+02 -1.175976e+01
     vertex  3.435154e+02 -1.441001e+02 -1.259989e+01
   endloop
 endfacet
 facet normal  4.164757e-01 -8.460131e-01 -3.328813e-01
   outer loop
     vertex  3.424083e+02 -1.439577e+02 -1.468961e+01
     vertex  3.440855e+02 -1.435195e+02 -1.370470e+01
     vertex  3.428447e+02 -1.441001e+02 -1.378169e+01
   endloop
 endfacet
 facet normal  3.429581e-01 -8.887142e-01 -3.042480e-01
   outer loop
     vertex  3.419429e+02 -1.441001e+02 -1.479821e+01
     vertex  3.424083e+02 -1.439577e+02 -1.468961e+01
     vertex  3.428447e+02 -1.441001e+02 -1.378169e+01
   endloop
 endfacet
 facet normal  3.573880e-01 -7.985511e-01 -4.843449e-01
   outer loop
     vertex  3.408495e+02 -1.441001e+02 -1.560503e+01
     vertex  3.424083e+02 -1.439577e+02 -1.468961e+01
     vertex  3.419429e+02 -1.441001e+02 -1.479821e+01
   endloop
 endfacet
 facet normal  5.063777e-01 -2.202189e-10 -8.623118e-01
   outer loop
     vertex  3.424083e+02 -1.439577e+02 -1.468961e+01
     vertex  3.440855e+02 -1.394001e+02 -1.370470e+01
     vertex  3.440855e+02 -1.435195e+02 -1.370470e+01
   endloop
 endfacet
 facet normal  5.063777e-01 -2.202214e-10 -8.623118e-01
   outer loop
     vertex  3.408495e+02 -1.441001e+02 -1.560503e+01
     vertex  3.376134e+02 -1.394001e+02 -1.750535e+01
     vertex  3.440855e+02 -1.394001e+02 -1.370470e+01
   endloop
 endfacet
 facet normal  5.063777e-01 -2.202154e-10 -8.623118e-01
   outer loop
     vertex  3.408495e+02 -1.441001e+02 -1.560503e+01
     vertex  3.440855e+02 -1.394001e+02 -1.370470e+01
     vertex  3.424083e+02 -1.439577e+02 -1.468961e+01
   endloop
 endfacet
 facet normal  5.063777e-01 -2.201967e-10 -8.623118e-01
   outer loop
     vertex  3.392906e+02 -1.439577e+02 -1.652044e+01
     vertex  3.376134e+02 -1.394001e+02 -1.750535e+01
     vertex  3.408495e+02 -1.441001e+02 -1.560503e+01
   endloop
 endfacet
 facet normal  5.063777e-01 -2.202179e-10 -8.623118e-01
   outer loop
     vertex  3.376134e+02 -1.435195e+02 -1.750535e+01
     vertex  3.376134e+02 -1.394001e+02 -1.750535e+01
     vertex  3.392906e+02 -1.439577e+02 -1.652044e+01
   endloop
 endfacet
 facet normal -4.935951e-01  2.146397e-10 -8.696918e-01
   outer loop
     vertex  3.376134e+02 -1.394001e+02 -1.750535e+01
     vertex  3.376134e+02 -1.435195e+02 -1.750535e+01
     vertex  3.359218e+02 -1.439577e+02 -1.654531e+01
   endloop
 endfacet
 facet normal -4.935951e-01  2.146545e-10 -8.696918e-01
   outer loop
     vertex  3.376134e+02 -1.394001e+02 -1.750535e+01
     vertex  3.359218e+02 -1.439577e+02 -1.654531e+01
     vertex  3.343496e+02 -1.441001e+02 -1.565300e+01
   endloop
 endfacet
 facet normal -4.935951e-01  2.146486e-10 -8.696918e-01
   outer loop
     vertex  3.310859e+02 -1.394001e+02 -1.380064e+01
     vertex  3.343496e+02 -1.441001e+02 -1.565300e+01
     vertex  3.327774e+02 -1.439577e+02 -1.476069e+01
   endloop
 endfacet
 facet normal -4.935951e-01  2.146518e-10 -8.696918e-01
   outer loop
     vertex  3.310859e+02 -1.394001e+02 -1.380064e+01
     vertex  3.327774e+02 -1.439577e+02 -1.476069e+01
     vertex  3.310859e+02 -1.435195e+02 -1.380064e+01
   endloop
 endfacet
 facet normal -4.935951e-01  2.146595e-10 -8.696918e-01
   outer loop
     vertex  3.310859e+02 -1.394001e+02 -1.380064e+01
     vertex  3.376134e+02 -1.394001e+02 -1.750535e+01
     vertex  3.343496e+02 -1.441001e+02 -1.565300e+01
   endloop
 endfacet
 facet normal -9.999728e-01  4.348647e-10 -7.380005e-03
   outer loop
     vertex  3.310305e+02 -1.394001e+02 -6.295295e+00
     vertex  3.310582e+02 -1.441001e+02 -1.004797e+01
     vertex  3.310448e+02 -1.439577e+02 -8.240245e+00
   endloop
 endfacet
 facet normal -9.999728e-01  4.348714e-10 -7.380005e-03
   outer loop
     vertex  3.310305e+02 -1.394001e+02 -6.295295e+00
     vertex  3.310448e+02 -1.439577e+02 -8.240245e+00
     vertex  3.310305e+02 -1.435195e+02 -6.295295e+00
   endloop
 endfacet
 facet normal -9.999728e-01  4.348714e-10 -7.380005e-03
   outer loop
     vertex  3.310859e+02 -1.394001e+02 -1.380064e+01
     vertex  3.310859e+02 -1.435195e+02 -1.380064e+01
     vertex  3.310715e+02 -1.439577e+02 -1.185570e+01
   endloop
 endfacet
 facet normal -9.999728e-01  4.349156e-10 -7.380005e-03
   outer loop
     vertex  3.310859e+02 -1.394001e+02 -1.380064e+01
     vertex  3.310715e+02 -1.439577e+02 -1.185570e+01
     vertex  3.310582e+02 -1.441001e+02 -1.004797e+01
   endloop
 endfacet
 facet normal -9.999728e-01  4.348584e-10 -7.380005e-03
   outer loop
     vertex  3.310859e+02 -1.394001e+02 -1.380064e+01
     vertex  3.310582e+02 -1.441001e+02 -1.004797e+01
     vertex  3.310305e+02 -1.394001e+02 -6.295295e+00
   endloop
 endfacet
 facet normal  4.348962e-10  1.000000e+00 -6.063921e-15
   outer loop
     vertex  3.379831e+02 -1.394001e+02 -4.200561e+00
     vertex  3.375026e+02 -1.394001e+02 -2.494651e+00
     vertex  3.393587e+02 -1.394001e+02 -4.470821e+00
   endloop
 endfacet
 facet normal  4.348649e-10  1.000000e+00 -3.546453e-14
   outer loop
     vertex  3.406296e+02 -1.394001e+02 -5.062417e+00
     vertex  3.393587e+02 -1.394001e+02 -4.470821e+00
     vertex  3.375026e+02 -1.394001e+02 -2.494651e+00
   endloop
 endfacet
 facet normal  4.348849e-10  1.000000e+00 -1.101368e-14
   outer loop
     vertex  3.440301e+02 -1.394001e+02 -6.199355e+00
     vertex  3.406296e+02 -1.394001e+02 -5.062417e+00
     vertex  3.375026e+02 -1.394001e+02 -2.494651e+00
   endloop
 endfacet
 facet normal  4.349166e-10  1.000000e+00 -3.037269e-16
   outer loop
     vertex  3.365829e+02 -1.394001e+02 -4.267343e+00
     vertex  3.375026e+02 -1.394001e+02 -2.494651e+00
     vertex  3.379831e+02 -1.394001e+02 -4.200561e+00
   endloop
 endfacet
 facet normal  4.348872e-10  1.000000e+00 -4.341832e-15
   outer loop
     vertex  3.417219e+02 -1.394001e+02 -5.940967e+00
     vertex  3.406296e+02 -1.394001e+02 -5.062417e+00
     vertex  3.440301e+02 -1.394001e+02 -6.199355e+00
   endloop
 endfacet
 facet normal  4.348464e-10  1.000000e+00  3.611410e-14
   outer loop
     vertex  3.352393e+02 -1.394001e+02 -4.667286e+00
     vertex  3.375026e+02 -1.394001e+02 -2.494651e+00
     vertex  3.365829e+02 -1.394001e+02 -4.267343e+00
   endloop
 endfacet
 facet normal  4.348879e-10  1.000000e+00  2.217044e-15
   outer loop
     vertex  3.425723e+02 -1.394001e+02 -7.055414e+00
     vertex  3.417219e+02 -1.394001e+02 -5.940967e+00
     vertex  3.440301e+02 -1.394001e+02 -6.199355e+00
   endloop
 endfacet
 facet normal  4.348986e-10  1.000000e+00 -1.602167e-14
   outer loop
     vertex  3.431313e+02 -1.394001e+02 -8.340989e+00
     vertex  3.425723e+02 -1.394001e+02 -7.055414e+00
     vertex  3.440301e+02 -1.394001e+02 -6.199355e+00
   endloop
 endfacet
 facet normal  4.348890e-10  1.000000e+00  8.530056e-15
   outer loop
     vertex  3.310305e+02 -1.394001e+02 -6.295295e+00
     vertex  3.340305e+02 -1.394001e+02 -5.377148e+00
     vertex  3.330267e+02 -1.394001e+02 -6.355672e+00
   endloop
 endfacet
 facet normal  4.349093e-10  1.000000e+00 -5.790164e-14
   outer loop
     vertex  3.310305e+02 -1.394001e+02 -6.295295e+00
     vertex  3.352393e+02 -1.394001e+02 -4.667286e+00
     vertex  3.340305e+02 -1.394001e+02 -5.377148e+00
   endloop
 endfacet
 facet normal  4.348908e-10  1.000000e+00 -1.011933e-14
   outer loop
     vertex  3.310305e+02 -1.394001e+02 -6.295295e+00
     vertex  3.375026e+02 -1.394001e+02 -2.494651e+00
     vertex  3.352393e+02 -1.394001e+02 -4.667286e+00
   endloop
 endfacet
 facet normal  4.349043e-10  1.000000e+00 -1.840719e-14
   outer loop
     vertex  3.433664e+02 -1.394001e+02 -9.722980e+00
     vertex  3.431313e+02 -1.394001e+02 -8.340989e+00
     vertex  3.440301e+02 -1.394001e+02 -6.199355e+00
   endloop
 endfacet
 facet normal  4.348886e-10  1.000000e+00 -4.082559e-15
   outer loop
     vertex  3.322862e+02 -1.394001e+02 -7.545992e+00
     vertex  3.310305e+02 -1.394001e+02 -6.295295e+00
     vertex  3.330267e+02 -1.394001e+02 -6.355672e+00
   endloop
 endfacet
 facet normal  4.348888e-10  1.000000e+00 -3.910179e-15
   outer loop
     vertex  3.318521e+02 -1.394001e+02 -8.878930e+00
     vertex  3.310305e+02 -1.394001e+02 -6.295295e+00
     vertex  3.322862e+02 -1.394001e+02 -7.545992e+00
   endloop
 endfacet
 facet normal  4.349418e-10  1.000000e+00  1.295068e-14
   outer loop
     vertex  3.317496e+02 -1.394001e+02 -1.027702e+01
     vertex  3.310305e+02 -1.394001e+02 -6.295295e+00
     vertex  3.318521e+02 -1.394001e+02 -8.878930e+00
   endloop
 endfacet
 facet normal  4.349418e-10  1.000000e+00  1.295068e-14
   outer loop
     vertex  3.440855e+02 -1.394001e+02 -1.370470e+01
     vertex  3.432639e+02 -1.394001e+02 -1.112107e+01
     vertex  3.433664e+02 -1.394001e+02 -9.722980e+00
   endloop
 endfacet
 facet normal  4.348888e-10  1.000000e+00 -3.910179e-15
   outer loop
     vertex  3.440855e+02 -1.394001e+02 -1.370470e+01
     vertex  3.428298e+02 -1.394001e+02 -1.245401e+01
     vertex  3.432639e+02 -1.394001e+02 -1.112107e+01
   endloop
 endfacet
 facet normal  4.348377e-10  1.000000e+00 -5.853018e-15
   outer loop
     vertex  3.440855e+02 -1.394001e+02 -1.370470e+01
     vertex  3.433664e+02 -1.394001e+02 -9.722980e+00
     vertex  3.440301e+02 -1.394001e+02 -6.199355e+00
   endloop
 endfacet
 facet normal  4.348886e-10  1.000000e+00 -4.082559e-15
   outer loop
     vertex  3.420893e+02 -1.394001e+02 -1.364433e+01
     vertex  3.428298e+02 -1.394001e+02 -1.245401e+01
     vertex  3.440855e+02 -1.394001e+02 -1.370470e+01
   endloop
 endfacet
 facet normal  4.348890e-10  1.000000e+00  8.530056e-15
   outer loop
     vertex  3.410855e+02 -1.394001e+02 -1.462285e+01
     vertex  3.420893e+02 -1.394001e+02 -1.364433e+01
     vertex  3.440855e+02 -1.394001e+02 -1.370470e+01
   endloop
 endfacet
 facet normal  4.349349e-10  1.000000e+00 -1.415195e-13
   outer loop
     vertex  3.398767e+02 -1.394001e+02 -1.533271e+01
     vertex  3.410855e+02 -1.394001e+02 -1.462285e+01
     vertex  3.440855e+02 -1.394001e+02 -1.370470e+01
   endloop
 endfacet
 facet normal  4.348879e-10  1.000000e+00  2.217044e-15
   outer loop
     vertex  3.310859e+02 -1.394001e+02 -1.380064e+01
     vertex  3.325437e+02 -1.394001e+02 -1.294459e+01
     vertex  3.333940e+02 -1.394001e+02 -1.405903e+01
   endloop
 endfacet
 facet normal  4.349090e-10  1.000000e+00 -3.363307e-14
   outer loop
     vertex  3.310859e+02 -1.394001e+02 -1.380064e+01
     vertex  3.319847e+02 -1.394001e+02 -1.165901e+01
     vertex  3.325437e+02 -1.394001e+02 -1.294459e+01
   endloop
 endfacet
 facet normal  4.348469e-10  1.000000e+00 -7.600342e-15
   outer loop
     vertex  3.310859e+02 -1.394001e+02 -1.380064e+01
     vertex  3.317496e+02 -1.394001e+02 -1.027702e+01
     vertex  3.319847e+02 -1.394001e+02 -1.165901e+01
   endloop
 endfacet
 facet normal  4.348377e-10  1.000000e+00 -5.853018e-15
   outer loop
     vertex  3.310859e+02 -1.394001e+02 -1.380064e+01
     vertex  3.310305e+02 -1.394001e+02 -6.295295e+00
     vertex  3.317496e+02 -1.394001e+02 -1.027702e+01
   endloop
 endfacet
 facet normal  4.348872e-10  1.000000e+00 -4.341832e-15
   outer loop
     vertex  3.344864e+02 -1.394001e+02 -1.493758e+01
     vertex  3.310859e+02 -1.394001e+02 -1.380064e+01
     vertex  3.333940e+02 -1.394001e+02 -1.405903e+01
   endloop
 endfacet
 facet normal  4.349021e-10  1.000000e+00 -8.807279e-15
   outer loop
     vertex  3.376134e+02 -1.394001e+02 -1.750535e+01
     vertex  3.385331e+02 -1.394001e+02 -1.573266e+01
     vertex  3.398767e+02 -1.394001e+02 -1.533271e+01
   endloop
 endfacet
 facet normal  4.348758e-10  1.000000e+00  4.852993e-15
   outer loop
     vertex  3.376134e+02 -1.394001e+02 -1.750535e+01
     vertex  3.371329e+02 -1.394001e+02 -1.579944e+01
     vertex  3.385331e+02 -1.394001e+02 -1.573266e+01
   endloop
 endfacet
 facet normal  4.349215e-10  1.000000e+00  1.773390e-14
   outer loop
     vertex  3.376134e+02 -1.394001e+02 -1.750535e+01
     vertex  3.357573e+02 -1.394001e+02 -1.552918e+01
     vertex  3.371329e+02 -1.394001e+02 -1.579944e+01
   endloop
 endfacet
 facet normal  4.348649e-10  1.000000e+00 -3.546453e-14
   outer loop
     vertex  3.376134e+02 -1.394001e+02 -1.750535e+01
     vertex  3.344864e+02 -1.394001e+02 -1.493758e+01
     vertex  3.357573e+02 -1.394001e+02 -1.552918e+01
   endloop
 endfacet
 facet normal  4.348710e-10  1.000000e+00  2.357389e-14
   outer loop
     vertex  3.376134e+02 -1.394001e+02 -1.750535e+01
     vertex  3.398767e+02 -1.394001e+02 -1.533271e+01
     vertex  3.440855e+02 -1.394001e+02 -1.370470e+01
   endloop
 endfacet
 facet normal  4.348849e-10  1.000000e+00 -1.101368e-14
   outer loop
     vertex  3.376134e+02 -1.394001e+02 -1.750535e+01
     vertex  3.310859e+02 -1.394001e+02 -1.380064e+01
     vertex  3.344864e+02 -1.394001e+02 -1.493758e+01
   endloop
 endfacet
 facet normal -5.063777e-01  2.202201e-10  8.623118e-01
   outer loop
     vertex  3.375026e+02 -1.394001e+02 -2.494651e+00
     vertex  3.342665e+02 -1.441001e+02 -4.394973e+00
     vertex  3.358254e+02 -1.439577e+02 -3.479557e+00
   endloop
 endfacet
 facet normal -5.063777e-01  2.202311e-10  8.623118e-01
   outer loop
     vertex  3.375026e+02 -1.394001e+02 -2.494651e+00
     vertex  3.358254e+02 -1.439577e+02 -3.479557e+00
     vertex  3.375026e+02 -1.435195e+02 -2.494651e+00
   endloop
 endfacet
 facet normal -5.063777e-01  2.202189e-10  8.623118e-01
   outer loop
     vertex  3.310305e+02 -1.394001e+02 -6.295295e+00
     vertex  3.310305e+02 -1.435195e+02 -6.295295e+00
     vertex  3.327077e+02 -1.439577e+02 -5.310390e+00
   endloop
 endfacet
 facet normal -5.063777e-01  2.202198e-10  8.623118e-01
   outer loop
     vertex  3.310305e+02 -1.394001e+02 -6.295295e+00
     vertex  3.327077e+02 -1.439577e+02 -5.310390e+00
     vertex  3.342665e+02 -1.441001e+02 -4.394973e+00
   endloop
 endfacet
 facet normal -5.063777e-01  2.202290e-10  8.623118e-01
   outer loop
     vertex  3.310305e+02 -1.394001e+02 -6.295295e+00
     vertex  3.342665e+02 -1.441001e+02 -4.394973e+00
     vertex  3.375026e+02 -1.394001e+02 -2.494651e+00
   endloop
 endfacet
 facet normal  4.935951e-01 -2.146541e-10  8.696918e-01
   outer loop
     vertex  3.375026e+02 -1.394001e+02 -2.494651e+00
     vertex  3.375026e+02 -1.435195e+02 -2.494651e+00
     vertex  3.391942e+02 -1.439577e+02 -3.454694e+00
   endloop
 endfacet
 facet normal  4.935951e-01 -2.146647e-10  8.696918e-01
   outer loop
     vertex  3.375026e+02 -1.394001e+02 -2.494651e+00
     vertex  3.391942e+02 -1.439577e+02 -3.454694e+00
     vertex  3.407664e+02 -1.441001e+02 -4.347003e+00
   endloop
 endfacet
 facet normal  4.935951e-01 -2.146672e-10  8.696918e-01
   outer loop
     vertex  3.440301e+02 -1.394001e+02 -6.199355e+00
     vertex  3.407664e+02 -1.441001e+02 -4.347003e+00
     vertex  3.423386e+02 -1.439577e+02 -5.239312e+00
   endloop
 endfacet
 facet normal  4.935951e-01 -2.146525e-10  8.696918e-01
   outer loop
     vertex  3.440301e+02 -1.394001e+02 -6.199355e+00
     vertex  3.423386e+02 -1.439577e+02 -5.239312e+00
     vertex  3.440301e+02 -1.435195e+02 -6.199355e+00
   endloop
 endfacet
 facet normal  4.935951e-01 -2.146436e-10  8.696918e-01
   outer loop
     vertex  3.440301e+02 -1.394001e+02 -6.199355e+00
     vertex  3.375026e+02 -1.394001e+02 -2.494651e+00
     vertex  3.407664e+02 -1.441001e+02 -4.347003e+00
   endloop
 endfacet
 facet normal  9.999728e-01 -4.348714e-10  7.380005e-03
   outer loop
     vertex  3.440445e+02 -1.439577e+02 -8.144305e+00
     vertex  3.440301e+02 -1.394001e+02 -6.199355e+00
     vertex  3.440301e+02 -1.435195e+02 -6.199355e+00
   endloop
 endfacet
 facet normal  9.999728e-01 -4.348645e-10  7.380005e-03
   outer loop
     vertex  3.440578e+02 -1.441001e+02 -9.952030e+00
     vertex  3.440855e+02 -1.394001e+02 -1.370470e+01
     vertex  3.440301e+02 -1.394001e+02 -6.199355e+00
   endloop
 endfacet
 facet normal  9.999728e-01 -4.348507e-10  7.380005e-03
   outer loop
     vertex  3.440578e+02 -1.441001e+02 -9.952030e+00
     vertex  3.440301e+02 -1.394001e+02 -6.199355e+00
     vertex  3.440445e+02 -1.439577e+02 -8.144305e+00
   endloop
 endfacet
 facet normal  9.999728e-01 -4.348618e-10  7.380005e-03
   outer loop
     vertex  3.440712e+02 -1.439577e+02 -1.175976e+01
     vertex  3.440855e+02 -1.394001e+02 -1.370470e+01
     vertex  3.440578e+02 -1.441001e+02 -9.952030e+00
   endloop
 endfacet
 facet normal  9.999728e-01 -4.348714e-10  7.380005e-03
   outer loop
     vertex  3.440855e+02 -1.435195e+02 -1.370470e+01
     vertex  3.440855e+02 -1.394001e+02 -1.370470e+01
     vertex  3.440712e+02 -1.439577e+02 -1.175976e+01
   endloop
 endfacet
 facet normal -4.348691e-10 -1.000000e+00 -5.461329e-14
   outer loop
     vertex  3.331731e+02 -1.441001e+02 -5.201788e+00
     vertex  3.395209e+02 -1.441001e+02 -3.803477e+00
     vertex  3.381897e+02 -1.441001e+02 -3.530769e+00
   endloop
 endfacet
 facet normal -4.349124e-10 -1.000000e+00  7.553743e-14
   outer loop
     vertex  3.331731e+02 -1.441001e+02 -5.201788e+00
     vertex  3.381897e+02 -1.441001e+02 -3.530769e+00
     vertex  3.368309e+02 -1.441001e+02 -3.540798e+00
   endloop
 endfacet
 facet normal -4.348306e-10 -1.000000e+00 -1.046104e-13
   outer loop
     vertex  3.331731e+02 -1.441001e+02 -5.201788e+00
     vertex  3.368309e+02 -1.441001e+02 -3.540798e+00
     vertex  3.355038e+02 -1.441001e+02 -3.833125e+00
   endloop
 endfacet
 facet normal -4.347835e-10 -1.000000e+00 -1.848942e-13
   outer loop
     vertex  3.331731e+02 -1.441001e+02 -5.201788e+00
     vertex  3.355038e+02 -1.441001e+02 -3.833125e+00
     vertex  3.342665e+02 -1.441001e+02 -4.394973e+00
   endloop
 endfacet
 facet normal -4.348855e-10 -1.000000e+00  1.358411e-15
   outer loop
     vertex  3.440578e+02 -1.441001e+02 -9.952030e+00
     vertex  3.439058e+02 -1.441001e+02 -8.601689e+00
     vertex  3.434764e+02 -1.441001e+02 -7.312461e+00
   endloop
 endfacet
 facet normal -4.348529e-10 -1.000000e+00 -1.896483e-14
   outer loop
     vertex  3.316006e+02 -1.441001e+02 -7.400107e+00
     vertex  3.331731e+02 -1.441001e+02 -5.201788e+00
     vertex  3.322713e+02 -1.441001e+02 -6.218308e+00
   endloop
 endfacet
 facet normal -4.348781e-10 -1.000000e+00 -9.430123e-16
   outer loop
     vertex  3.311902e+02 -1.441001e+02 -8.695533e+00
     vertex  3.331731e+02 -1.441001e+02 -5.201788e+00
     vertex  3.316006e+02 -1.441001e+02 -7.400107e+00
   endloop
 endfacet
 facet normal -4.349200e-10 -1.000000e+00  4.585630e-14
   outer loop
     vertex  3.312102e+02 -1.441001e+02 -1.139831e+01
     vertex  3.407664e+02 -1.441001e+02 -4.347003e+00
     vertex  3.395209e+02 -1.441001e+02 -3.803477e+00
   endloop
 endfacet
 facet normal -4.348903e-10 -1.000000e+00  1.198298e-14
   outer loop
     vertex  3.312102e+02 -1.441001e+02 -1.139831e+01
     vertex  3.427883e+02 -1.441001e+02 -6.140691e+00
     vertex  3.418716e+02 -1.441001e+02 -5.137592e+00
   endloop
 endfacet
 facet normal -4.348719e-10 -1.000000e+00 -1.928851e-14
   outer loop
     vertex  3.312102e+02 -1.441001e+02 -1.139831e+01
     vertex  3.418716e+02 -1.441001e+02 -5.137592e+00
     vertex  3.407664e+02 -1.441001e+02 -4.347003e+00
   endloop
 endfacet
 facet normal -4.348198e-10 -1.000000e+00  8.756039e-15
   outer loop
     vertex  3.312102e+02 -1.441001e+02 -1.139831e+01
     vertex  3.311902e+02 -1.441001e+02 -8.695533e+00
     vertex  3.310582e+02 -1.441001e+02 -1.004797e+01
   endloop
 endfacet
 facet normal -4.348821e-10 -1.000000e+00  4.351846e-15
   outer loop
     vertex  3.312102e+02 -1.441001e+02 -1.139831e+01
     vertex  3.395209e+02 -1.441001e+02 -3.803477e+00
     vertex  3.331731e+02 -1.441001e+02 -5.201788e+00
   endloop
 endfacet
 facet normal -4.348942e-10 -1.000000e+00  8.206863e-15
   outer loop
     vertex  3.312102e+02 -1.441001e+02 -1.139831e+01
     vertex  3.331731e+02 -1.441001e+02 -5.201788e+00
     vertex  3.311902e+02 -1.441001e+02 -8.695533e+00
   endloop
 endfacet
 facet normal -4.348558e-10 -1.000000e+00 -1.637386e-14
   outer loop
     vertex  3.408495e+02 -1.441001e+02 -1.560503e+01
     vertex  3.419429e+02 -1.441001e+02 -1.479821e+01
     vertex  3.428447e+02 -1.441001e+02 -1.378169e+01
   endloop
 endfacet
 facet normal -4.348541e-10 -1.000000e+00 -1.831296e-14
   outer loop
     vertex  3.408495e+02 -1.441001e+02 -1.560503e+01
     vertex  3.428447e+02 -1.441001e+02 -1.378169e+01
     vertex  3.435154e+02 -1.441001e+02 -1.259989e+01
   endloop
 endfacet
 facet normal -4.348712e-10 -1.000000e+00 -3.143172e-15
   outer loop
     vertex  3.408495e+02 -1.441001e+02 -1.560503e+01
     vertex  3.435154e+02 -1.441001e+02 -1.259989e+01
     vertex  3.439258e+02 -1.441001e+02 -1.130447e+01
   endloop
 endfacet
 facet normal -4.348985e-10 -1.000000e+00  1.644355e-14
   outer loop
     vertex  3.408495e+02 -1.441001e+02 -1.560503e+01
     vertex  3.439258e+02 -1.441001e+02 -1.130447e+01
     vertex  3.440578e+02 -1.441001e+02 -9.952030e+00
   endloop
 endfacet
 facet normal -4.348976e-10 -1.000000e+00  1.593010e-14
   outer loop
     vertex  3.396122e+02 -1.441001e+02 -1.616688e+01
     vertex  3.408495e+02 -1.441001e+02 -1.560503e+01
     vertex  3.440578e+02 -1.441001e+02 -9.952030e+00
   endloop
 endfacet
 facet normal -4.348832e-10 -1.000000e+00  7.187210e-15
   outer loop
     vertex  3.343496e+02 -1.441001e+02 -1.565300e+01
     vertex  3.434764e+02 -1.441001e+02 -7.312461e+00
     vertex  3.427883e+02 -1.441001e+02 -6.140691e+00
   endloop
 endfacet
 facet normal -4.349286e-10 -1.000000e+00 -1.298264e-14
   outer loop
     vertex  3.343496e+02 -1.441001e+02 -1.565300e+01
     vertex  3.312102e+02 -1.441001e+02 -1.139831e+01
     vertex  3.316396e+02 -1.441001e+02 -1.268754e+01
   endloop
 endfacet
 facet normal -4.349484e-10 -1.000000e+00 -3.109265e-14
   outer loop
     vertex  3.343496e+02 -1.441001e+02 -1.565300e+01
     vertex  3.316396e+02 -1.441001e+02 -1.268754e+01
     vertex  3.323277e+02 -1.441001e+02 -1.385931e+01
   endloop
 endfacet
 facet normal -4.348627e-10 -1.000000e+00  6.556885e-14
   outer loop
     vertex  3.343496e+02 -1.441001e+02 -1.565300e+01
     vertex  3.323277e+02 -1.441001e+02 -1.385931e+01
     vertex  3.332444e+02 -1.441001e+02 -1.486241e+01
   endloop
 endfacet
 facet normal -4.348914e-10 -1.000000e+00  1.445210e-14
   outer loop
     vertex  3.343496e+02 -1.441001e+02 -1.565300e+01
     vertex  3.427883e+02 -1.441001e+02 -6.140691e+00
     vertex  3.312102e+02 -1.441001e+02 -1.139831e+01
   endloop
 endfacet
 facet normal -4.348792e-10 -1.000000e+00  2.759897e-15
   outer loop
     vertex  3.343496e+02 -1.441001e+02 -1.565300e+01
     vertex  3.440578e+02 -1.441001e+02 -9.952030e+00
     vertex  3.434764e+02 -1.441001e+02 -7.312461e+00
   endloop
 endfacet
 facet normal -4.348908e-10 -1.000000e+00 -2.605209e-14
   outer loop
     vertex  3.369263e+02 -1.441001e+02 -1.646923e+01
     vertex  3.382851e+02 -1.441001e+02 -1.645920e+01
     vertex  3.396122e+02 -1.441001e+02 -1.616688e+01
   endloop
 endfacet
 facet normal -4.348810e-10 -1.000000e+00 -1.128057e-13
   outer loop
     vertex  3.355951e+02 -1.441001e+02 -1.619652e+01
     vertex  3.369263e+02 -1.441001e+02 -1.646923e+01
     vertex  3.396122e+02 -1.441001e+02 -1.616688e+01
   endloop
 endfacet
 facet normal -4.348819e-10 -1.000000e+00  4.641992e-15
   outer loop
     vertex  3.355951e+02 -1.441001e+02 -1.619652e+01
     vertex  3.396122e+02 -1.441001e+02 -1.616688e+01
     vertex  3.440578e+02 -1.441001e+02 -9.952030e+00
   endloop
 endfacet
 facet normal -4.348741e-10 -1.000000e+00 -5.870966e-15
   outer loop
     vertex  3.355951e+02 -1.441001e+02 -1.619652e+01
     vertex  3.440578e+02 -1.441001e+02 -9.952030e+00
     vertex  3.343496e+02 -1.441001e+02 -1.565300e+01
   endloop
 endfacet
 facet normal  9.170617e-01 -3.988049e-10  3.987454e-01
   outer loop
     vertex  3.431313e+02 -1.388000e+02 -8.340989e+00
     vertex  3.425723e+02 -1.388000e+02 -7.055414e+00
     vertex  3.425723e+02 -1.394001e+02 -7.055414e+00
   endloop
 endfacet
 facet normal  9.170617e-01 -3.986985e-10  3.987454e-01
   outer loop
     vertex  3.431313e+02 -1.388000e+02 -8.340989e+00
     vertex  3.425723e+02 -1.394001e+02 -7.055414e+00
     vertex  3.431313e+02 -1.394001e+02 -8.340989e+00
   endloop
 endfacet
 facet normal  9.858395e-01 -4.287159e-10  1.676913e-01
   outer loop
     vertex  3.433664e+02 -1.388000e+02 -9.722980e+00
     vertex  3.431313e+02 -1.394001e+02 -8.340989e+00
     vertex  3.433664e+02 -1.394001e+02 -9.722980e+00
   endloop
 endfacet
 facet normal  9.858395e-01 -4.286141e-10  1.676913e-01
   outer loop
     vertex  3.433664e+02 -1.388000e+02 -9.722980e+00
     vertex  3.431313e+02 -1.388000e+02 -8.340989e+00
     vertex  3.431313e+02 -1.394001e+02 -8.340989e+00
   endloop
 endfacet
 facet normal  9.973240e-01 -4.337111e-10 -7.310830e-02
   outer loop
     vertex  3.432639e+02 -1.388000e+02 -1.112107e+01
     vertex  3.433664e+02 -1.394001e+02 -9.722980e+00
     vertex  3.432639e+02 -1.394001e+02 -1.112107e+01
   endloop
 endfacet
 facet normal  9.973240e-01 -4.337109e-10 -7.310830e-02
   outer loop
     vertex  3.432639e+02 -1.388000e+02 -1.112107e+01
     vertex  3.433664e+02 -1.388000e+02 -9.722980e+00
     vertex  3.433664e+02 -1.394001e+02 -9.722980e+00
   endloop
 endfacet
 facet normal  9.508476e-01 -4.134257e-10 -3.096592e-01
   outer loop
     vertex  3.428298e+02 -1.388000e+02 -1.245401e+01
     vertex  3.432639e+02 -1.394001e+02 -1.112107e+01
     vertex  3.428298e+02 -1.394001e+02 -1.245401e+01
   endloop
 endfacet
 facet normal  9.508476e-01 -4.135011e-10 -3.096592e-01
   outer loop
     vertex  3.428298e+02 -1.388000e+02 -1.245401e+01
     vertex  3.432639e+02 -1.388000e+02 -1.112107e+01
     vertex  3.432639e+02 -1.394001e+02 -1.112107e+01
   endloop
 endfacet
 facet normal  8.491114e-01 -3.693404e-10 -5.282138e-01
   outer loop
     vertex  3.420893e+02 -1.388000e+02 -1.364433e+01
     vertex  3.428298e+02 -1.394001e+02 -1.245401e+01
     vertex  3.420893e+02 -1.394001e+02 -1.364433e+01
   endloop
 endfacet
 facet normal  8.491114e-01 -3.692046e-10 -5.282138e-01
   outer loop
     vertex  3.420893e+02 -1.388000e+02 -1.364433e+01
     vertex  3.428298e+02 -1.388000e+02 -1.245401e+01
     vertex  3.428298e+02 -1.394001e+02 -1.245401e+01
   endloop
 endfacet
 facet normal  6.980280e-01 -3.035562e-10 -7.160705e-01
   outer loop
     vertex  3.410855e+02 -1.388000e+02 -1.462285e+01
     vertex  3.420893e+02 -1.394001e+02 -1.364433e+01
     vertex  3.410855e+02 -1.394001e+02 -1.462285e+01
   endloop
 endfacet
 facet normal  5.063777e-01 -2.202444e-10 -8.623118e-01
   outer loop
     vertex  3.410855e+02 -1.388000e+02 -1.462285e+01
     vertex  3.410855e+02 -1.394001e+02 -1.462285e+01
     vertex  3.398767e+02 -1.394001e+02 -1.533271e+01
   endloop
 endfacet
 facet normal  6.980280e-01 -3.036249e-10 -7.160705e-01
   outer loop
     vertex  3.410855e+02 -1.388000e+02 -1.462285e+01
     vertex  3.420893e+02 -1.388000e+02 -1.364433e+01
     vertex  3.420893e+02 -1.394001e+02 -1.364433e+01
   endloop
 endfacet
 facet normal  5.063777e-01 -2.202587e-10 -8.623118e-01
   outer loop
     vertex  3.398767e+02 -1.388000e+02 -1.533271e+01
     vertex  3.410855e+02 -1.388000e+02 -1.462285e+01
     vertex  3.398767e+02 -1.394001e+02 -1.533271e+01
   endloop
 endfacet
 facet normal  2.852985e-01 -1.240719e-10 -9.584387e-01
   outer loop
     vertex  3.385331e+02 -1.388000e+02 -1.573266e+01
     vertex  3.398767e+02 -1.394001e+02 -1.533271e+01
     vertex  3.385331e+02 -1.394001e+02 -1.573266e+01
   endloop
 endfacet
 facet normal  2.852985e-01 -1.240961e-10 -9.584387e-01
   outer loop
     vertex  3.385331e+02 -1.388000e+02 -1.573266e+01
     vertex  3.398767e+02 -1.388000e+02 -1.533271e+01
     vertex  3.398767e+02 -1.394001e+02 -1.533271e+01
   endloop
 endfacet
 facet normal  4.763886e-02 -2.068144e-11 -9.988646e-01
   outer loop
     vertex  3.371329e+02 -1.388000e+02 -1.579944e+01
     vertex  3.385331e+02 -1.394001e+02 -1.573266e+01
     vertex  3.371329e+02 -1.394001e+02 -1.579944e+01
   endloop
 endfacet
 facet normal  4.763886e-02 -2.071988e-11 -9.988646e-01
   outer loop
     vertex  3.371329e+02 -1.388000e+02 -1.579944e+01
     vertex  3.385331e+02 -1.388000e+02 -1.573266e+01
     vertex  3.385331e+02 -1.394001e+02 -1.573266e+01
   endloop
 endfacet
 facet normal -1.927894e-01  8.383336e-11 -9.812402e-01
   outer loop
     vertex  3.357573e+02 -1.388000e+02 -1.552918e+01
     vertex  3.371329e+02 -1.394001e+02 -1.579944e+01
     vertex  3.357573e+02 -1.394001e+02 -1.552918e+01
   endloop
 endfacet
 facet normal -1.927894e-01  8.387403e-11 -9.812402e-01
   outer loop
     vertex  3.357573e+02 -1.388000e+02 -1.552918e+01
     vertex  3.371329e+02 -1.388000e+02 -1.579944e+01
     vertex  3.371329e+02 -1.394001e+02 -1.579944e+01
   endloop
 endfacet
 facet normal -4.220134e-01  1.835175e-10 -9.065896e-01
   outer loop
     vertex  3.344864e+02 -1.388000e+02 -1.493758e+01
     vertex  3.357573e+02 -1.394001e+02 -1.552918e+01
     vertex  3.344864e+02 -1.394001e+02 -1.493758e+01
   endloop
 endfacet
 facet normal -4.220134e-01  1.835175e-10 -9.065896e-01
   outer loop
     vertex  3.344864e+02 -1.388000e+02 -1.493758e+01
     vertex  3.357573e+02 -1.388000e+02 -1.552918e+01
     vertex  3.357573e+02 -1.394001e+02 -1.552918e+01
   endloop
 endfacet
 facet normal -6.267116e-01  2.725362e-10 -7.792513e-01
   outer loop
     vertex  3.333940e+02 -1.388000e+02 -1.405903e+01
     vertex  3.344864e+02 -1.388000e+02 -1.493758e+01
     vertex  3.344864e+02 -1.394001e+02 -1.493758e+01
   endloop
 endfacet
 facet normal -6.267116e-01  2.725362e-10 -7.792513e-01
   outer loop
     vertex  3.333940e+02 -1.388000e+02 -1.405903e+01
     vertex  3.344864e+02 -1.394001e+02 -1.493758e+01
     vertex  3.333940e+02 -1.394001e+02 -1.405903e+01
   endloop
 endfacet
 facet normal -7.949875e-01  3.457161e-10 -6.066258e-01
   outer loop
     vertex  3.333940e+02 -1.388000e+02 -1.405903e+01
     vertex  3.333940e+02 -1.394001e+02 -1.405903e+01
     vertex  3.325437e+02 -1.394001e+02 -1.294459e+01
   endloop
 endfacet
 facet normal -7.949875e-01  3.456139e-10 -6.066258e-01
   outer loop
     vertex  3.325437e+02 -1.388000e+02 -1.294459e+01
     vertex  3.333940e+02 -1.388000e+02 -1.405903e+01
     vertex  3.325437e+02 -1.394001e+02 -1.294459e+01
   endloop
 endfacet
 facet normal -9.170617e-01  3.986998e-10 -3.987454e-01
   outer loop
     vertex  3.319847e+02 -1.388000e+02 -1.165901e+01
     vertex  3.325437e+02 -1.388000e+02 -1.294459e+01
     vertex  3.325437e+02 -1.394001e+02 -1.294459e+01
   endloop
 endfacet
 facet normal -9.170617e-01  3.988043e-10 -3.987454e-01
   outer loop
     vertex  3.319847e+02 -1.388000e+02 -1.165901e+01
     vertex  3.325437e+02 -1.394001e+02 -1.294459e+01
     vertex  3.319847e+02 -1.394001e+02 -1.165901e+01
   endloop
 endfacet
 facet normal -9.858395e-01  4.287154e-10 -1.676913e-01
   outer loop
     vertex  3.319847e+02 -1.388000e+02 -1.165901e+01
     vertex  3.319847e+02 -1.394001e+02 -1.165901e+01
     vertex  3.317496e+02 -1.394001e+02 -1.027702e+01
   endloop
 endfacet
 facet normal -9.858395e-01  4.287159e-10 -1.676913e-01
   outer loop
     vertex  3.317496e+02 -1.388000e+02 -1.027702e+01
     vertex  3.319847e+02 -1.388000e+02 -1.165901e+01
     vertex  3.317496e+02 -1.394001e+02 -1.027702e+01
   endloop
 endfacet
 facet normal -9.973240e-01  4.337109e-10  7.310830e-02
   outer loop
     vertex  3.318521e+02 -1.388000e+02 -8.878930e+00
     vertex  3.317496e+02 -1.388000e+02 -1.027702e+01
     vertex  3.317496e+02 -1.394001e+02 -1.027702e+01
   endloop
 endfacet
 facet normal -9.973240e-01  4.337111e-10  7.310830e-02
   outer loop
     vertex  3.318521e+02 -1.388000e+02 -8.878930e+00
     vertex  3.317496e+02 -1.394001e+02 -1.027702e+01
     vertex  3.318521e+02 -1.394001e+02 -8.878930e+00
   endloop
 endfacet
 facet normal -9.508476e-01  4.135011e-10  3.096592e-01
   outer loop
     vertex  3.322862e+02 -1.388000e+02 -7.545992e+00
     vertex  3.318521e+02 -1.388000e+02 -8.878930e+00
     vertex  3.318521e+02 -1.394001e+02 -8.878930e+00
   endloop
 endfacet
 facet normal -9.508476e-01  4.135135e-10  3.096592e-01
   outer loop
     vertex  3.322862e+02 -1.388000e+02 -7.545992e+00
     vertex  3.318521e+02 -1.394001e+02 -8.878930e+00
     vertex  3.322862e+02 -1.394001e+02 -7.545992e+00
   endloop
 endfacet
 facet normal -8.491114e-01  3.692811e-10  5.282138e-01
   outer loop
     vertex  3.322862e+02 -1.388000e+02 -7.545992e+00
     vertex  3.322862e+02 -1.394001e+02 -7.545992e+00
     vertex  3.330267e+02 -1.394001e+02 -6.355672e+00
   endloop
 endfacet
 facet normal -8.491114e-01  3.691569e-10  5.282138e-01
   outer loop
     vertex  3.330267e+02 -1.388000e+02 -6.355672e+00
     vertex  3.322862e+02 -1.388000e+02 -7.545992e+00
     vertex  3.330267e+02 -1.394001e+02 -6.355672e+00
   endloop
 endfacet
 facet normal -6.980280e-01  3.034618e-10  7.160705e-01
   outer loop
     vertex  3.340305e+02 -1.388000e+02 -5.377148e+00
     vertex  3.330267e+02 -1.388000e+02 -6.355672e+00
     vertex  3.330267e+02 -1.394001e+02 -6.355672e+00
   endloop
 endfacet
 facet normal -6.980280e-01  3.035577e-10  7.160705e-01
   outer loop
     vertex  3.340305e+02 -1.388000e+02 -5.377148e+00
     vertex  3.330267e+02 -1.394001e+02 -6.355672e+00
     vertex  3.340305e+02 -1.394001e+02 -5.377148e+00
   endloop
 endfacet
 facet normal -5.063777e-01  2.202145e-10  8.623118e-01
   outer loop
     vertex  3.352393e+02 -1.388000e+02 -4.667286e+00
     vertex  3.340305e+02 -1.388000e+02 -5.377148e+00
     vertex  3.340305e+02 -1.394001e+02 -5.377148e+00
   endloop
 endfacet
 facet normal -5.063777e-01  2.202145e-10  8.623118e-01
   outer loop
     vertex  3.352393e+02 -1.388000e+02 -4.667286e+00
     vertex  3.340305e+02 -1.394001e+02 -5.377148e+00
     vertex  3.352393e+02 -1.394001e+02 -4.667286e+00
   endloop
 endfacet
 facet normal -2.852985e-01  1.240732e-10  9.584387e-01
   outer loop
     vertex  3.365829e+02 -1.388000e+02 -4.267343e+00
     vertex  3.352393e+02 -1.388000e+02 -4.667286e+00
     vertex  3.352393e+02 -1.394001e+02 -4.667286e+00
   endloop
 endfacet
 facet normal -2.852985e-01  1.240932e-10  9.584387e-01
   outer loop
     vertex  3.365829e+02 -1.388000e+02 -4.267343e+00
     vertex  3.352393e+02 -1.394001e+02 -4.667286e+00
     vertex  3.365829e+02 -1.394001e+02 -4.267343e+00
   endloop
 endfacet
 facet normal -4.763886e-02  2.071847e-11  9.988646e-01
   outer loop
     vertex  3.379831e+02 -1.388000e+02 -4.200561e+00
     vertex  3.365829e+02 -1.388000e+02 -4.267343e+00
     vertex  3.365829e+02 -1.394001e+02 -4.267343e+00
   endloop
 endfacet
 facet normal -4.763886e-02  2.068144e-11  9.988646e-01
   outer loop
     vertex  3.379831e+02 -1.388000e+02 -4.200561e+00
     vertex  3.365829e+02 -1.394001e+02 -4.267343e+00
     vertex  3.379831e+02 -1.394001e+02 -4.200561e+00
   endloop
 endfacet
 facet normal  1.927894e-01 -8.387400e-11  9.812402e-01
   outer loop
     vertex  3.393587e+02 -1.388000e+02 -4.470821e+00
     vertex  3.379831e+02 -1.388000e+02 -4.200561e+00
     vertex  3.379831e+02 -1.394001e+02 -4.200561e+00
   endloop
 endfacet
 facet normal  1.927894e-01 -8.383481e-11  9.812402e-01
   outer loop
     vertex  3.393587e+02 -1.388000e+02 -4.470821e+00
     vertex  3.379831e+02 -1.394001e+02 -4.200561e+00
     vertex  3.393587e+02 -1.394001e+02 -4.470821e+00
   endloop
 endfacet
 facet normal  4.220134e-01 -1.835564e-10  9.065896e-01
   outer loop
     vertex  3.406296e+02 -1.388000e+02 -5.062417e+00
     vertex  3.393587e+02 -1.394001e+02 -4.470821e+00
     vertex  3.406296e+02 -1.394001e+02 -5.062417e+00
   endloop
 endfacet
 facet normal  6.267116e-01 -2.725697e-10  7.792513e-01
   outer loop
     vertex  3.406296e+02 -1.388000e+02 -5.062417e+00
     vertex  3.406296e+02 -1.394001e+02 -5.062417e+00
     vertex  3.417219e+02 -1.394001e+02 -5.940967e+00
   endloop
 endfacet
 facet normal  4.220134e-01 -1.835188e-10  9.065896e-01
   outer loop
     vertex  3.406296e+02 -1.388000e+02 -5.062417e+00
     vertex  3.393587e+02 -1.388000e+02 -4.470821e+00
     vertex  3.393587e+02 -1.394001e+02 -4.470821e+00
   endloop
 endfacet
 facet normal  6.267116e-01 -2.725051e-10  7.792513e-01
   outer loop
     vertex  3.417219e+02 -1.388000e+02 -5.940967e+00
     vertex  3.406296e+02 -1.388000e+02 -5.062417e+00
     vertex  3.417219e+02 -1.394001e+02 -5.940967e+00
   endloop
 endfacet
 facet normal  7.949875e-01 -3.457170e-10  6.066258e-01
   outer loop
     vertex  3.425723e+02 -1.388000e+02 -7.055414e+00
     vertex  3.417219e+02 -1.394001e+02 -5.940967e+00
     vertex  3.425723e+02 -1.394001e+02 -7.055414e+00
   endloop
 endfacet
 facet normal  7.949875e-01 -3.456919e-10  6.066258e-01
   outer loop
     vertex  3.425723e+02 -1.388000e+02 -7.055414e+00
     vertex  3.417219e+02 -1.388000e+02 -5.940967e+00
     vertex  3.417219e+02 -1.394001e+02 -5.940967e+00
   endloop
 endfacet
 facet normal  4.348964e-10  1.000000e+00 -1.573564e-14
   outer loop
     vertex  3.387966e+02 -1.388000e+02 -6.196610e+00
     vertex  3.393587e+02 -1.388000e+02 -4.470821e+00
     vertex  3.406296e+02 -1.388000e+02 -5.062417e+00
   endloop
 endfacet
 facet normal  4.348758e-10  1.000000e+00 -4.575960e-15
   outer loop
     vertex  3.378504e+02 -1.388000e+02 -6.010704e+00
     vertex  3.379831e+02 -1.388000e+02 -4.200561e+00
     vertex  3.393587e+02 -1.388000e+02 -4.470821e+00
   endloop
 endfacet
 facet normal  4.348826e-10  1.000000e+00 -1.123730e-14
   outer loop
     vertex  3.378504e+02 -1.388000e+02 -6.010704e+00
     vertex  3.393587e+02 -1.388000e+02 -4.470821e+00
     vertex  3.387966e+02 -1.388000e+02 -6.196610e+00
   endloop
 endfacet
 facet normal  4.348854e-10  1.000000e+00 -6.530827e-15
   outer loop
     vertex  3.396709e+02 -1.388000e+02 -6.603554e+00
     vertex  3.406296e+02 -1.388000e+02 -5.062417e+00
     vertex  3.417219e+02 -1.388000e+02 -5.940967e+00
   endloop
 endfacet
 facet normal  4.348940e-10  1.000000e+00 -1.189420e-14
   outer loop
     vertex  3.396709e+02 -1.388000e+02 -6.603554e+00
     vertex  3.387966e+02 -1.388000e+02 -6.196610e+00
     vertex  3.406296e+02 -1.388000e+02 -5.062417e+00
   endloop
 endfacet
 facet normal  4.349178e-10  1.000000e+00 -2.528752e-14
   outer loop
     vertex  3.368872e+02 -1.388000e+02 -6.056642e+00
     vertex  3.365829e+02 -1.388000e+02 -4.267343e+00
     vertex  3.379831e+02 -1.388000e+02 -4.200561e+00
   endloop
 endfacet
 facet normal  4.348837e-10  1.000000e+00 -5.156169e-15
   outer loop
     vertex  3.368872e+02 -1.388000e+02 -6.056642e+00
     vertex  3.379831e+02 -1.388000e+02 -4.200561e+00
     vertex  3.378504e+02 -1.388000e+02 -6.010704e+00
   endloop
 endfacet
 facet normal  4.348923e-10  1.000000e+00  5.531453e-15
   outer loop
     vertex  3.404223e+02 -1.388000e+02 -7.207888e+00
     vertex  3.417219e+02 -1.388000e+02 -5.940967e+00
     vertex  3.425723e+02 -1.388000e+02 -7.055414e+00
   endloop
 endfacet
 facet normal  4.348762e-10  1.000000e+00  2.200200e-14
   outer loop
     vertex  3.404223e+02 -1.388000e+02 -7.207888e+00
     vertex  3.396709e+02 -1.388000e+02 -6.603554e+00
     vertex  3.417219e+02 -1.388000e+02 -5.940967e+00
   endloop
 endfacet
 facet normal  4.348613e-10  1.000000e+00 -1.378779e-14
   outer loop
     vertex  3.359630e+02 -1.388000e+02 -6.331753e+00
     vertex  3.352393e+02 -1.388000e+02 -4.667286e+00
     vertex  3.365829e+02 -1.388000e+02 -4.267343e+00
   endloop
 endfacet
 facet normal  4.349062e-10  1.000000e+00 -2.726696e-14
   outer loop
     vertex  3.359630e+02 -1.388000e+02 -6.331753e+00
     vertex  3.365829e+02 -1.388000e+02 -4.267343e+00
     vertex  3.368872e+02 -1.388000e+02 -6.056642e+00
   endloop
 endfacet
 facet normal  4.348931e-10  1.000000e+00 -6.958581e-15
   outer loop
     vertex  3.410072e+02 -1.388000e+02 -7.974489e+00
     vertex  3.404223e+02 -1.388000e+02 -7.207888e+00
     vertex  3.425723e+02 -1.388000e+02 -7.055414e+00
   endloop
 endfacet
 facet normal  4.348786e-10  1.000000e+00 -5.558428e-15
   outer loop
     vertex  3.351315e+02 -1.388000e+02 -6.820050e+00
     vertex  3.340305e+02 -1.388000e+02 -5.377148e+00
     vertex  3.352393e+02 -1.388000e+02 -4.667286e+00
   endloop
 endfacet
 facet normal  4.348800e-10  1.000000e+00 -5.632725e-15
   outer loop
     vertex  3.351315e+02 -1.388000e+02 -6.820050e+00
     vertex  3.352393e+02 -1.388000e+02 -4.667286e+00
     vertex  3.359630e+02 -1.388000e+02 -6.331753e+00
   endloop
 endfacet
 facet normal  4.348998e-10  1.000000e+00 -1.549261e-14
   outer loop
     vertex  3.413918e+02 -1.388000e+02 -8.858806e+00
     vertex  3.425723e+02 -1.388000e+02 -7.055414e+00
     vertex  3.431313e+02 -1.388000e+02 -8.340989e+00
   endloop
 endfacet
 facet normal  4.348971e-10  1.000000e+00 -1.369918e-14
   outer loop
     vertex  3.413918e+02 -1.388000e+02 -8.858806e+00
     vertex  3.410072e+02 -1.388000e+02 -7.974489e+00
     vertex  3.425723e+02 -1.388000e+02 -7.055414e+00
   endloop
 endfacet
 facet normal  4.349010e-10  1.000000e+00 -3.785189e-15
   outer loop
     vertex  3.344410e+02 -1.388000e+02 -7.493154e+00
     vertex  3.330267e+02 -1.388000e+02 -6.355672e+00
     vertex  3.340305e+02 -1.388000e+02 -5.377148e+00
   endloop
 endfacet
 facet normal  4.348740e-10  1.000000e+00 -9.010951e-15
   outer loop
     vertex  3.344410e+02 -1.388000e+02 -7.493154e+00
     vertex  3.340305e+02 -1.388000e+02 -5.377148e+00
     vertex  3.351315e+02 -1.388000e+02 -6.820050e+00
   endloop
 endfacet
 facet normal  4.349316e-10  1.000000e+00 -1.375641e-14
   outer loop
     vertex  3.415535e+02 -1.388000e+02 -9.809445e+00
     vertex  3.431313e+02 -1.388000e+02 -8.340989e+00
     vertex  3.433664e+02 -1.388000e+02 -9.722980e+00
   endloop
 endfacet
 facet normal  4.348841e-10  1.000000e+00  3.731155e-14
   outer loop
     vertex  3.415535e+02 -1.388000e+02 -9.809445e+00
     vertex  3.413918e+02 -1.388000e+02 -8.858806e+00
     vertex  3.431313e+02 -1.388000e+02 -8.340989e+00
   endloop
 endfacet
 facet normal  4.348918e-10  1.000000e+00 -6.095845e-15
   outer loop
     vertex  3.339316e+02 -1.388000e+02 -8.311946e+00
     vertex  3.322862e+02 -1.388000e+02 -7.545992e+00
     vertex  3.330267e+02 -1.388000e+02 -6.355672e+00
   endloop
 endfacet
 facet normal  4.349034e-10  1.000000e+00 -7.240675e-16
   outer loop
     vertex  3.339316e+02 -1.388000e+02 -8.311946e+00
     vertex  3.330267e+02 -1.388000e+02 -6.355672e+00
     vertex  3.344410e+02 -1.388000e+02 -7.493154e+00
   endloop
 endfacet
 facet normal  4.348945e-10  1.000000e+00  1.641599e-14
   outer loop
     vertex  3.414830e+02 -1.388000e+02 -1.077116e+01
     vertex  3.433664e+02 -1.388000e+02 -9.722980e+00
     vertex  3.432639e+02 -1.388000e+02 -1.112107e+01
   endloop
 endfacet
 facet normal  4.349336e-10  1.000000e+00 -5.376118e-14
   outer loop
     vertex  3.414830e+02 -1.388000e+02 -1.077116e+01
     vertex  3.415535e+02 -1.388000e+02 -9.809445e+00
     vertex  3.433664e+02 -1.388000e+02 -9.722980e+00
   endloop
 endfacet
 facet normal  4.348911e-10  1.000000e+00 -7.647644e-16
   outer loop
     vertex  3.318521e+02 -1.388000e+02 -8.878930e+00
     vertex  3.339316e+02 -1.388000e+02 -8.311946e+00
     vertex  3.336330e+02 -1.388000e+02 -9.228842e+00
   endloop
 endfacet
 facet normal  4.348923e-10  1.000000e+00 -5.064583e-15
   outer loop
     vertex  3.318521e+02 -1.388000e+02 -8.878930e+00
     vertex  3.322862e+02 -1.388000e+02 -7.545992e+00
     vertex  3.339316e+02 -1.388000e+02 -8.311946e+00
   endloop
 endfacet
 facet normal  4.348911e-10  1.000000e+00 -7.647644e-16
   outer loop
     vertex  3.411844e+02 -1.388000e+02 -1.168805e+01
     vertex  3.414830e+02 -1.388000e+02 -1.077116e+01
     vertex  3.432639e+02 -1.388000e+02 -1.112107e+01
   endloop
 endfacet
 facet normal  4.348923e-10  1.000000e+00 -5.064583e-15
   outer loop
     vertex  3.428298e+02 -1.388000e+02 -1.245401e+01
     vertex  3.411844e+02 -1.388000e+02 -1.168805e+01
     vertex  3.432639e+02 -1.388000e+02 -1.112107e+01
   endloop
 endfacet
 facet normal  4.348945e-10  1.000000e+00  1.641599e-14
   outer loop
     vertex  3.317496e+02 -1.388000e+02 -1.027702e+01
     vertex  3.318521e+02 -1.388000e+02 -8.878930e+00
     vertex  3.336330e+02 -1.388000e+02 -9.228842e+00
   endloop
 endfacet
 facet normal  4.348993e-10  1.000000e+00  7.859089e-15
   outer loop
     vertex  3.317496e+02 -1.388000e+02 -1.027702e+01
     vertex  3.336330e+02 -1.388000e+02 -9.228842e+00
     vertex  3.335625e+02 -1.388000e+02 -1.019056e+01
   endloop
 endfacet
 facet normal  4.348918e-10  1.000000e+00 -6.095845e-15
   outer loop
     vertex  3.420893e+02 -1.388000e+02 -1.364433e+01
     vertex  3.411844e+02 -1.388000e+02 -1.168805e+01
     vertex  3.428298e+02 -1.388000e+02 -1.245401e+01
   endloop
 endfacet
 facet normal  4.349034e-10  1.000000e+00 -7.240675e-16
   outer loop
     vertex  3.420893e+02 -1.388000e+02 -1.364433e+01
     vertex  3.406750e+02 -1.388000e+02 -1.250685e+01
     vertex  3.411844e+02 -1.388000e+02 -1.168805e+01
   endloop
 endfacet
 facet normal  4.348996e-10  1.000000e+00  1.353412e-15
   outer loop
     vertex  3.319847e+02 -1.388000e+02 -1.165901e+01
     vertex  3.317496e+02 -1.388000e+02 -1.027702e+01
     vertex  3.335625e+02 -1.388000e+02 -1.019056e+01
   endloop
 endfacet
 facet normal  4.349050e-10  1.000000e+00  2.189654e-14
   outer loop
     vertex  3.319847e+02 -1.388000e+02 -1.165901e+01
     vertex  3.337242e+02 -1.388000e+02 -1.114119e+01
     vertex  3.341088e+02 -1.388000e+02 -1.202551e+01
   endloop
 endfacet
 facet normal  4.349166e-10  1.000000e+00 -1.695648e-14
   outer loop
     vertex  3.319847e+02 -1.388000e+02 -1.165901e+01
     vertex  3.335625e+02 -1.388000e+02 -1.019056e+01
     vertex  3.337242e+02 -1.388000e+02 -1.114119e+01
   endloop
 endfacet
 facet normal  4.349010e-10  1.000000e+00 -3.785189e-15
   outer loop
     vertex  3.410855e+02 -1.388000e+02 -1.462285e+01
     vertex  3.406750e+02 -1.388000e+02 -1.250685e+01
     vertex  3.420893e+02 -1.388000e+02 -1.364433e+01
   endloop
 endfacet
 facet normal  4.348740e-10  1.000000e+00 -9.010951e-15
   outer loop
     vertex  3.410855e+02 -1.388000e+02 -1.462285e+01
     vertex  3.399845e+02 -1.388000e+02 -1.317995e+01
     vertex  3.406750e+02 -1.388000e+02 -1.250685e+01
   endloop
 endfacet
 facet normal  4.348796e-10  1.000000e+00 -4.799577e-15
   outer loop
     vertex  3.410855e+02 -1.388000e+02 -1.462285e+01
     vertex  3.391530e+02 -1.388000e+02 -1.366825e+01
     vertex  3.399845e+02 -1.388000e+02 -1.317995e+01
   endloop
 endfacet
 facet normal  4.348944e-10  1.000000e+00 -3.997806e-14
   outer loop
     vertex  3.325437e+02 -1.388000e+02 -1.294459e+01
     vertex  3.319847e+02 -1.388000e+02 -1.165901e+01
     vertex  3.341088e+02 -1.388000e+02 -1.202551e+01
   endloop
 endfacet
 facet normal  4.348806e-10  1.000000e+00 -1.652771e-14
   outer loop
     vertex  3.325437e+02 -1.388000e+02 -1.294459e+01
     vertex  3.341088e+02 -1.388000e+02 -1.202551e+01
     vertex  3.346937e+02 -1.388000e+02 -1.279211e+01
   endloop
 endfacet
 facet normal  4.348682e-10  1.000000e+00 -2.787771e-14
   outer loop
     vertex  3.398767e+02 -1.388000e+02 -1.533271e+01
     vertex  3.391530e+02 -1.388000e+02 -1.366825e+01
     vertex  3.410855e+02 -1.388000e+02 -1.462285e+01
   endloop
 endfacet
 facet normal  4.348797e-10  1.000000e+00 -4.037679e-15
   outer loop
     vertex  3.333940e+02 -1.388000e+02 -1.405903e+01
     vertex  3.325437e+02 -1.388000e+02 -1.294459e+01
     vertex  3.346937e+02 -1.388000e+02 -1.279211e+01
   endloop
 endfacet
 facet normal  4.349017e-10  1.000000e+00 -1.214821e-14
   outer loop
     vertex  3.385331e+02 -1.388000e+02 -1.573266e+01
     vertex  3.382288e+02 -1.388000e+02 -1.394336e+01
     vertex  3.391530e+02 -1.388000e+02 -1.366825e+01
   endloop
 endfacet
 facet normal  4.348842e-10  1.000000e+00 -1.512212e-14
   outer loop
     vertex  3.385331e+02 -1.388000e+02 -1.573266e+01
     vertex  3.372656e+02 -1.388000e+02 -1.398930e+01
     vertex  3.382288e+02 -1.388000e+02 -1.394336e+01
   endloop
 endfacet
 facet normal  4.349032e-10  1.000000e+00 -1.261902e-14
   outer loop
     vertex  3.385331e+02 -1.388000e+02 -1.573266e+01
     vertex  3.391530e+02 -1.388000e+02 -1.366825e+01
     vertex  3.398767e+02 -1.388000e+02 -1.533271e+01
   endloop
 endfacet
 facet normal  4.348940e-10  1.000000e+00 -1.189420e-14
   outer loop
     vertex  3.344864e+02 -1.388000e+02 -1.493758e+01
     vertex  3.354451e+02 -1.388000e+02 -1.339645e+01
     vertex  3.363194e+02 -1.388000e+02 -1.380339e+01
   endloop
 endfacet
 facet normal  4.348892e-10  1.000000e+00 -8.877207e-15
   outer loop
     vertex  3.344864e+02 -1.388000e+02 -1.493758e+01
     vertex  3.346937e+02 -1.388000e+02 -1.279211e+01
     vertex  3.354451e+02 -1.388000e+02 -1.339645e+01
   endloop
 endfacet
 facet normal  4.348839e-10  1.000000e+00 -8.369899e-15
   outer loop
     vertex  3.344864e+02 -1.388000e+02 -1.493758e+01
     vertex  3.333940e+02 -1.388000e+02 -1.405903e+01
     vertex  3.346937e+02 -1.388000e+02 -1.279211e+01
   endloop
 endfacet
 facet normal  4.348770e-10  1.000000e+00 -2.036389e-14
   outer loop
     vertex  3.371329e+02 -1.388000e+02 -1.579944e+01
     vertex  3.372656e+02 -1.388000e+02 -1.398930e+01
     vertex  3.385331e+02 -1.388000e+02 -1.573266e+01
   endloop
 endfacet
 facet normal  4.348856e-10  1.000000e+00  4.241136e-15
   outer loop
     vertex  3.357573e+02 -1.388000e+02 -1.552918e+01
     vertex  3.363194e+02 -1.388000e+02 -1.380339e+01
     vertex  3.372656e+02 -1.388000e+02 -1.398930e+01
   endloop
 endfacet
 facet normal  4.349135e-10  1.000000e+00 -2.304064e-14
   outer loop
     vertex  3.357573e+02 -1.388000e+02 -1.552918e+01
     vertex  3.372656e+02 -1.388000e+02 -1.398930e+01
     vertex  3.371329e+02 -1.388000e+02 -1.579944e+01
   endloop
 endfacet
 facet normal  4.348837e-10  1.000000e+00  4.889536e-15
   outer loop
     vertex  3.357573e+02 -1.388000e+02 -1.552918e+01
     vertex  3.344864e+02 -1.388000e+02 -1.493758e+01
     vertex  3.363194e+02 -1.388000e+02 -1.380339e+01
   endloop
 endfacet
endsolid
