solid 
 facet normal -7.928154e-01 -6.094618e-01  0.000000e+00
   outer loop
     vertex  5.975547e+02  3.229424e+02 -2.199646e+01
     vertex  5.981718e+02  3.221397e+02 -2.119646e+01
     vertex  5.975547e+02  3.229424e+02 -2.119646e+01
   endloop
 endfacet
 facet normal -9.156314e-01 -4.020188e-01  0.000000e+00
   outer loop
     vertex  5.981718e+02  3.221397e+02 -2.199646e+01
     vertex  5.985788e+02  3.212126e+02 -2.119646e+01
     vertex  5.981718e+02  3.221397e+02 -2.119646e+01
   endloop
 endfacet
 facet normal -7.928154e-01 -6.094618e-01  0.000000e+00
   outer loop
     vertex  5.981718e+02  3.221397e+02 -2.199646e+01
     vertex  5.981718e+02  3.221397e+02 -2.119646e+01
     vertex  5.975547e+02  3.229424e+02 -2.199646e+01
   endloop
 endfacet
 facet normal -9.852342e-01 -1.712119e-01  0.000000e+00
   outer loop
     vertex  5.985788e+02  3.212126e+02 -2.199646e+01
     vertex  5.987522e+02  3.202151e+02 -2.119646e+01
     vertex  5.985788e+02  3.212126e+02 -2.119646e+01
   endloop
 endfacet
 facet normal -9.156314e-01 -4.020188e-01  0.000000e+00
   outer loop
     vertex  5.985788e+02  3.212126e+02 -2.199646e+01
     vertex  5.985788e+02  3.212126e+02 -2.119646e+01
     vertex  5.981718e+02  3.221397e+02 -2.199646e+01
   endloop
 endfacet
 facet normal -9.975788e-01  6.954515e-02 -1.417645e-13
   outer loop
     vertex  5.987522e+02  3.202151e+02 -2.199646e+01
     vertex  5.986818e+02  3.192050e+02 -2.119646e+01
     vertex  5.987522e+02  3.202151e+02 -2.119646e+01
   endloop
 endfacet
 facet normal -9.852342e-01 -1.712119e-01 -1.400102e-13
   outer loop
     vertex  5.987522e+02  3.202151e+02 -2.199646e+01
     vertex  5.987522e+02  3.202151e+02 -2.119646e+01
     vertex  5.985788e+02  3.212126e+02 -2.199646e+01
   endloop
 endfacet
 facet normal -9.519477e-01  3.062605e-01  0.000000e+00
   outer loop
     vertex  5.986818e+02  3.192050e+02 -2.199646e+01
     vertex  5.983717e+02  3.182412e+02 -2.119646e+01
     vertex  5.986818e+02  3.192050e+02 -2.119646e+01
   endloop
 endfacet
 facet normal -9.975788e-01  6.954515e-02  0.000000e+00
   outer loop
     vertex  5.986818e+02  3.192050e+02 -2.199646e+01
     vertex  5.986818e+02  3.192050e+02 -2.119646e+01
     vertex  5.987522e+02  3.202151e+02 -2.199646e+01
   endloop
 endfacet
 facet normal -8.509929e-01  5.251772e-01  1.209334e-13
   outer loop
     vertex  5.983717e+02  3.182412e+02 -2.199646e+01
     vertex  5.978399e+02  3.173795e+02 -2.119646e+01
     vertex  5.983717e+02  3.182412e+02 -2.119646e+01
   endloop
 endfacet
 facet normal -9.519477e-01  3.062605e-01  1.352799e-13
   outer loop
     vertex  5.983717e+02  3.182412e+02 -2.199646e+01
     vertex  5.983717e+02  3.182412e+02 -2.119646e+01
     vertex  5.986818e+02  3.192050e+02 -2.199646e+01
   endloop
 endfacet
 facet normal -7.005815e-01  7.135724e-01  9.955862e-14
   outer loop
     vertex  5.978399e+02  3.173795e+02 -2.199646e+01
     vertex  5.971174e+02  3.166702e+02 -2.119646e+01
     vertex  5.978399e+02  3.173795e+02 -2.119646e+01
   endloop
 endfacet
 facet normal -8.509929e-01  5.251772e-01  1.209334e-13
   outer loop
     vertex  5.978399e+02  3.173795e+02 -2.199646e+01
     vertex  5.978399e+02  3.173795e+02 -2.119646e+01
     vertex  5.983717e+02  3.182412e+02 -2.199646e+01
   endloop
 endfacet
 facet normal -5.094548e-01  8.604974e-01  6.114202e-14
   outer loop
     vertex  5.971174e+02  3.166702e+02 -2.199646e+01
     vertex  5.962462e+02  3.161543e+02 -2.119646e+01
     vertex  5.971174e+02  3.166702e+02 -2.119646e+01
   endloop
 endfacet
 facet normal -7.005815e-01  7.135724e-01  5.070237e-14
   outer loop
     vertex  5.971174e+02  3.166702e+02 -2.199646e+01
     vertex  5.971174e+02  3.166702e+02 -2.119646e+01
     vertex  5.978399e+02  3.173795e+02 -2.199646e+01
   endloop
 endfacet
 facet normal -2.887205e-01  9.574134e-01 -5.399734e-14
   outer loop
     vertex  5.962462e+02  3.161543e+02 -2.199646e+01
     vertex  5.952768e+02  3.158620e+02 -2.119646e+01
     vertex  5.962462e+02  3.161543e+02 -2.119646e+01
   endloop
 endfacet
 facet normal -5.094548e-01  8.604974e-01  2.251173e-14
   outer loop
     vertex  5.962462e+02  3.161543e+02 -2.199646e+01
     vertex  5.962462e+02  3.161543e+02 -2.119646e+01
     vertex  5.971174e+02  3.166702e+02 -2.199646e+01
   endloop
 endfacet
 facet normal -5.120675e-02  9.986881e-01  0.000000e+00
   outer loop
     vertex  5.952768e+02  3.158620e+02 -2.199646e+01
     vertex  5.942656e+02  3.158102e+02 -2.119646e+01
     vertex  5.952768e+02  3.158620e+02 -2.119646e+01
   endloop
 endfacet
 facet normal -2.887205e-01  9.574134e-01  0.000000e+00
   outer loop
     vertex  5.952768e+02  3.158620e+02 -2.199646e+01
     vertex  5.952768e+02  3.158620e+02 -2.119646e+01
     vertex  5.962462e+02  3.161543e+02 -2.199646e+01
   endloop
 endfacet
 facet normal  1.892829e-01  9.819226e-01  4.287108e-14
   outer loop
     vertex  5.942656e+02  3.158102e+02 -2.199646e+01
     vertex  5.932714e+02  3.160018e+02 -2.119646e+01
     vertex  5.942656e+02  3.158102e+02 -2.119646e+01
   endloop
 endfacet
 facet normal -5.120675e-02  9.986881e-01  7.823797e-14
   outer loop
     vertex  5.942656e+02  3.158102e+02 -2.199646e+01
     vertex  5.942656e+02  3.158102e+02 -2.119646e+01
     vertex  5.952768e+02  3.158620e+02 -2.199646e+01
   endloop
 endfacet
 facet normal  1.892829e-01  9.819226e-01 -0.000000e+00
   outer loop
     vertex  5.932714e+02  3.160018e+02 -2.199646e+01
     vertex  5.932714e+02  3.160018e+02 -2.119646e+01
     vertex  5.942656e+02  3.158102e+02 -2.199646e+01
   endloop
 endfacet
 facet normal  4.187722e-01  9.080913e-01 -0.000000e+00
   outer loop
     vertex  5.932714e+02  3.160018e+02 -2.199646e+01
     vertex  5.923520e+02  3.164258e+02 -2.119646e+01
     vertex  5.932714e+02  3.160018e+02 -2.119646e+01
   endloop
 endfacet
 facet normal  4.187722e-01  9.080913e-01 -1.240349e-13
   outer loop
     vertex  5.923520e+02  3.164258e+02 -2.199646e+01
     vertex  5.923520e+02  3.164258e+02 -2.119646e+01
     vertex  5.932714e+02  3.160018e+02 -2.199646e+01
   endloop
 endfacet
 facet normal  6.239239e-01  7.814851e-01 -1.441928e-13
   outer loop
     vertex  5.923520e+02  3.164258e+02 -2.199646e+01
     vertex  5.915607e+02  3.170576e+02 -2.119646e+01
     vertex  5.923520e+02  3.164258e+02 -2.119646e+01
   endloop
 endfacet
 facet normal  6.239239e-01  7.814851e-01 -0.000000e+00
   outer loop
     vertex  5.915607e+02  3.170576e+02 -2.199646e+01
     vertex  5.915607e+02  3.170576e+02 -2.119646e+01
     vertex  5.923520e+02  3.164258e+02 -2.199646e+01
   endloop
 endfacet
 facet normal  7.928154e-01  6.094618e-01 -0.000000e+00
   outer loop
     vertex  5.915607e+02  3.170576e+02 -2.199646e+01
     vertex  5.909436e+02  3.178603e+02 -2.119646e+01
     vertex  5.915607e+02  3.170576e+02 -2.119646e+01
   endloop
 endfacet
 facet normal  7.928154e-01  6.094618e-01  2.425804e-13
   outer loop
     vertex  5.909436e+02  3.178603e+02 -2.199646e+01
     vertex  5.909436e+02  3.178603e+02 -2.119646e+01
     vertex  5.915607e+02  3.170576e+02 -2.199646e+01
   endloop
 endfacet
 facet normal  9.156314e-01  4.020188e-01  2.158097e-13
   outer loop
     vertex  5.905366e+02  3.187874e+02 -2.199646e+01
     vertex  5.909436e+02  3.178603e+02 -2.119646e+01
     vertex  5.909436e+02  3.178603e+02 -2.199646e+01
   endloop
 endfacet
 facet normal  9.156314e-01  4.020188e-01  1.586842e-13
   outer loop
     vertex  5.905366e+02  3.187874e+02 -2.199646e+01
     vertex  5.905366e+02  3.187874e+02 -2.119646e+01
     vertex  5.909436e+02  3.178603e+02 -2.119646e+01
   endloop
 endfacet
 facet normal  9.852342e-01  1.712119e-01  1.521755e-13
   outer loop
     vertex  5.905366e+02  3.187874e+02 -2.199646e+01
     vertex  5.903632e+02  3.197849e+02 -2.119646e+01
     vertex  5.905366e+02  3.187874e+02 -2.119646e+01
   endloop
 endfacet
 facet normal  9.852342e-01  1.712119e-01 -0.000000e+00
   outer loop
     vertex  5.903632e+02  3.197849e+02 -2.199646e+01
     vertex  5.903632e+02  3.197849e+02 -2.119646e+01
     vertex  5.905366e+02  3.187874e+02 -2.199646e+01
   endloop
 endfacet
 facet normal  9.975788e-01 -6.954515e-02  0.000000e+00
   outer loop
     vertex  5.903632e+02  3.197849e+02 -2.199646e+01
     vertex  5.904336e+02  3.207950e+02 -2.119646e+01
     vertex  5.903632e+02  3.197849e+02 -2.119646e+01
   endloop
 endfacet
 facet normal  9.975788e-01 -6.954515e-02  0.000000e+00
   outer loop
     vertex  5.904336e+02  3.207950e+02 -2.199646e+01
     vertex  5.904336e+02  3.207950e+02 -2.119646e+01
     vertex  5.903632e+02  3.197849e+02 -2.199646e+01
   endloop
 endfacet
 facet normal  9.519477e-01 -3.062605e-01  0.000000e+00
   outer loop
     vertex  5.904336e+02  3.207950e+02 -2.199646e+01
     vertex  5.907437e+02  3.217588e+02 -2.119646e+01
     vertex  5.904336e+02  3.207950e+02 -2.119646e+01
   endloop
 endfacet
 facet normal  9.519477e-01 -3.062605e-01  0.000000e+00
   outer loop
     vertex  5.907437e+02  3.217588e+02 -2.199646e+01
     vertex  5.907437e+02  3.217588e+02 -2.119646e+01
     vertex  5.904336e+02  3.207950e+02 -2.199646e+01
   endloop
 endfacet
 facet normal  8.509929e-01 -5.251772e-01  0.000000e+00
   outer loop
     vertex  5.907437e+02  3.217588e+02 -2.199646e+01
     vertex  5.912755e+02  3.226205e+02 -2.119646e+01
     vertex  5.907437e+02  3.217588e+02 -2.119646e+01
   endloop
 endfacet
 facet normal  8.509929e-01 -5.251772e-01  0.000000e+00
   outer loop
     vertex  5.912755e+02  3.226205e+02 -2.199646e+01
     vertex  5.912755e+02  3.226205e+02 -2.119646e+01
     vertex  5.907437e+02  3.217588e+02 -2.199646e+01
   endloop
 endfacet
 facet normal  7.005815e-01 -7.135724e-01  0.000000e+00
   outer loop
     vertex  5.912755e+02  3.226205e+02 -2.199646e+01
     vertex  5.919980e+02  3.233298e+02 -2.119646e+01
     vertex  5.912755e+02  3.226205e+02 -2.119646e+01
   endloop
 endfacet
 facet normal  7.005815e-01 -7.135724e-01 -9.955862e-14
   outer loop
     vertex  5.919980e+02  3.233298e+02 -2.199646e+01
     vertex  5.919980e+02  3.233298e+02 -2.119646e+01
     vertex  5.912755e+02  3.226205e+02 -2.199646e+01
   endloop
 endfacet
 facet normal  5.094548e-01 -8.604974e-01 -7.239788e-14
   outer loop
     vertex  5.919980e+02  3.233298e+02 -2.199646e+01
     vertex  5.928692e+02  3.238457e+02 -2.119646e+01
     vertex  5.919980e+02  3.233298e+02 -2.119646e+01
   endloop
 endfacet
 facet normal  5.094548e-01 -8.604974e-01 -7.239788e-14
   outer loop
     vertex  5.928692e+02  3.238457e+02 -2.199646e+01
     vertex  5.928692e+02  3.238457e+02 -2.119646e+01
     vertex  5.919980e+02  3.233298e+02 -2.199646e+01
   endloop
 endfacet
 facet normal  2.887205e-01 -9.574134e-01 -4.100633e-14
   outer loop
     vertex  5.938386e+02  3.241380e+02 -2.199646e+01
     vertex  5.928692e+02  3.238457e+02 -2.119646e+01
     vertex  5.928692e+02  3.238457e+02 -2.199646e+01
   endloop
 endfacet
 facet normal  2.887205e-01 -9.574134e-01  0.000000e+00
   outer loop
     vertex  5.938386e+02  3.241380e+02 -2.199646e+01
     vertex  5.938386e+02  3.241380e+02 -2.119646e+01
     vertex  5.928692e+02  3.238457e+02 -2.119646e+01
   endloop
 endfacet
 facet normal  5.120675e-02 -9.986881e-01  0.000000e+00
   outer loop
     vertex  5.938386e+02  3.241380e+02 -2.199646e+01
     vertex  5.948498e+02  3.241898e+02 -2.119646e+01
     vertex  5.938386e+02  3.241380e+02 -2.119646e+01
   endloop
 endfacet
 facet normal  5.120675e-02 -9.986881e-01  7.276917e-15
   outer loop
     vertex  5.948498e+02  3.241898e+02 -2.199646e+01
     vertex  5.948498e+02  3.241898e+02 -2.119646e+01
     vertex  5.938386e+02  3.241380e+02 -2.199646e+01
   endloop
 endfacet
 facet normal -1.892829e-01 -9.819226e-01 -2.689872e-14
   outer loop
     vertex  5.948498e+02  3.241898e+02 -2.199646e+01
     vertex  5.958440e+02  3.239982e+02 -2.119646e+01
     vertex  5.948498e+02  3.241898e+02 -2.119646e+01
   endloop
 endfacet
 facet normal -1.892829e-01 -9.819226e-01  6.976980e-14
   outer loop
     vertex  5.958440e+02  3.239982e+02 -2.199646e+01
     vertex  5.958440e+02  3.239982e+02 -2.119646e+01
     vertex  5.948498e+02  3.241898e+02 -2.199646e+01
   endloop
 endfacet
 facet normal -4.187722e-01 -9.080913e-01  0.000000e+00
   outer loop
     vertex  5.967634e+02  3.235742e+02 -2.199646e+01
     vertex  5.967634e+02  3.235742e+02 -2.119646e+01
     vertex  5.958440e+02  3.239982e+02 -2.119646e+01
   endloop
 endfacet
 facet normal -6.239239e-01 -7.814851e-01  0.000000e+00
   outer loop
     vertex  5.967634e+02  3.235742e+02 -2.199646e+01
     vertex  5.975547e+02  3.229424e+02 -2.119646e+01
     vertex  5.967634e+02  3.235742e+02 -2.119646e+01
   endloop
 endfacet
 facet normal -4.187722e-01 -9.080913e-01  6.454244e-14
   outer loop
     vertex  5.967634e+02  3.235742e+02 -2.199646e+01
     vertex  5.958440e+02  3.239982e+02 -2.119646e+01
     vertex  5.958440e+02  3.239982e+02 -2.199646e+01
   endloop
 endfacet
 facet normal -6.239239e-01 -7.814851e-01  0.000000e+00
   outer loop
     vertex  5.975547e+02  3.229424e+02 -2.199646e+01
     vertex  5.975547e+02  3.229424e+02 -2.119646e+01
     vertex  5.967634e+02  3.235742e+02 -2.199646e+01
   endloop
 endfacet
 facet normal  7.928154e-01  6.094618e-01 -1.125869e-13
   outer loop
     vertex  6.001509e+02  3.233115e+02 -2.199646e+01
     vertex  5.991959e+02  3.245538e+02 -2.199646e+01
     vertex  5.991959e+02  3.245538e+02 -2.119646e+01
   endloop
 endfacet
 facet normal  7.928154e-01  6.094618e-01 -0.000000e+00
   outer loop
     vertex  6.001509e+02  3.233115e+02 -2.199646e+01
     vertex  5.991959e+02  3.245538e+02 -2.119646e+01
     vertex  6.001509e+02  3.233115e+02 -2.119646e+01
   endloop
 endfacet
 facet normal  9.156314e-01  4.020188e-01  2.856515e-14
   outer loop
     vertex  6.007809e+02  3.218767e+02 -2.199646e+01
     vertex  6.001509e+02  3.233115e+02 -2.119646e+01
     vertex  6.007809e+02  3.218767e+02 -2.119646e+01
   endloop
 endfacet
 facet normal  9.156314e-01  4.020188e-01 -1.941640e-17
   outer loop
     vertex  6.007809e+02  3.218767e+02 -2.199646e+01
     vertex  6.001509e+02  3.233115e+02 -2.199646e+01
     vertex  6.001509e+02  3.233115e+02 -2.119646e+01
   endloop
 endfacet
 facet normal  9.852342e-01  1.712119e-01  1.216534e-14
   outer loop
     vertex  6.010492e+02  3.203328e+02 -2.199646e+01
     vertex  6.007809e+02  3.218767e+02 -2.119646e+01
     vertex  6.010492e+02  3.203328e+02 -2.119646e+01
   endloop
 endfacet
 facet normal  9.852342e-01  1.712119e-01  1.217134e-14
   outer loop
     vertex  6.010492e+02  3.203328e+02 -2.199646e+01
     vertex  6.007809e+02  3.218767e+02 -2.199646e+01
     vertex  6.007809e+02  3.218767e+02 -2.119646e+01
   endloop
 endfacet
 facet normal  9.975788e-01 -6.954515e-02  0.000000e+00
   outer loop
     vertex  6.009402e+02  3.187697e+02 -2.199646e+01
     vertex  6.010492e+02  3.203328e+02 -2.119646e+01
     vertex  6.009402e+02  3.187697e+02 -2.119646e+01
   endloop
 endfacet
 facet normal  9.975788e-01 -6.954515e-02 -4.944513e-15
   outer loop
     vertex  6.009402e+02  3.187697e+02 -2.199646e+01
     vertex  6.010492e+02  3.203328e+02 -2.199646e+01
     vertex  6.010492e+02  3.203328e+02 -2.119646e+01
   endloop
 endfacet
 facet normal  9.519477e-01 -3.062605e-01  0.000000e+00
   outer loop
     vertex  6.004603e+02  3.172780e+02 -2.199646e+01
     vertex  6.009402e+02  3.187697e+02 -2.119646e+01
     vertex  6.004603e+02  3.172780e+02 -2.119646e+01
   endloop
 endfacet
 facet normal  9.519477e-01 -3.062605e-01  9.199083e-18
   outer loop
     vertex  6.004603e+02  3.172780e+02 -2.199646e+01
     vertex  6.009402e+02  3.187697e+02 -2.199646e+01
     vertex  6.009402e+02  3.187697e+02 -2.119646e+01
   endloop
 endfacet
 facet normal  8.509929e-01 -5.251772e-01 -1.209334e-13
   outer loop
     vertex  5.996373e+02  3.159445e+02 -2.199646e+01
     vertex  6.004603e+02  3.172780e+02 -2.119646e+01
     vertex  5.996373e+02  3.159445e+02 -2.119646e+01
   endloop
 endfacet
 facet normal  8.509929e-01 -5.251772e-01  1.214613e-17
   outer loop
     vertex  5.996373e+02  3.159445e+02 -2.199646e+01
     vertex  6.004603e+02  3.172780e+02 -2.199646e+01
     vertex  6.004603e+02  3.172780e+02 -2.119646e+01
   endloop
 endfacet
 facet normal  7.005815e-01 -7.135724e-01 -9.955862e-14
   outer loop
     vertex  5.985192e+02  3.148467e+02 -2.199646e+01
     vertex  5.996373e+02  3.159445e+02 -2.119646e+01
     vertex  5.985192e+02  3.148467e+02 -2.119646e+01
   endloop
 endfacet
 facet normal  7.005815e-01 -7.135724e-01 -9.963409e-14
   outer loop
     vertex  5.985192e+02  3.148467e+02 -2.199646e+01
     vertex  5.996373e+02  3.159445e+02 -2.199646e+01
     vertex  5.996373e+02  3.159445e+02 -2.119646e+01
   endloop
 endfacet
 facet normal  5.094548e-01 -8.604974e-01 -7.239788e-14
   outer loop
     vertex  5.971708e+02  3.140484e+02 -2.199646e+01
     vertex  5.985192e+02  3.148467e+02 -2.119646e+01
     vertex  5.971708e+02  3.140484e+02 -2.119646e+01
   endloop
 endfacet
 facet normal  5.094548e-01 -8.604974e-01 -7.240377e-14
   outer loop
     vertex  5.971708e+02  3.140484e+02 -2.199646e+01
     vertex  5.985192e+02  3.148467e+02 -2.199646e+01
     vertex  5.985192e+02  3.148467e+02 -2.119646e+01
   endloop
 endfacet
 facet normal  2.887205e-01 -9.574134e-01  0.000000e+00
   outer loop
     vertex  5.956706e+02  3.135960e+02 -2.199646e+01
     vertex  5.971708e+02  3.140484e+02 -2.119646e+01
     vertex  5.956706e+02  3.135960e+02 -2.119646e+01
   endloop
 endfacet
 facet normal  2.887205e-01 -9.574134e-01 -4.102584e-14
   outer loop
     vertex  5.956706e+02  3.135960e+02 -2.199646e+01
     vertex  5.971708e+02  3.140484e+02 -2.199646e+01
     vertex  5.971708e+02  3.140484e+02 -2.119646e+01
   endloop
 endfacet
 facet normal  5.120675e-02 -9.986881e-01  0.000000e+00
   outer loop
     vertex  5.941057e+02  3.135157e+02 -2.199646e+01
     vertex  5.956706e+02  3.135960e+02 -2.119646e+01
     vertex  5.941057e+02  3.135157e+02 -2.119646e+01
   endloop
 endfacet
 facet normal  5.120675e-02 -9.986881e-01  1.097688e-17
   outer loop
     vertex  5.941057e+02  3.135157e+02 -2.199646e+01
     vertex  5.956706e+02  3.135960e+02 -2.199646e+01
     vertex  5.956706e+02  3.135960e+02 -2.119646e+01
   endloop
 endfacet
 facet normal -1.892829e-01 -9.819226e-01  2.190929e-17
   outer loop
     vertex  5.925670e+02  3.138123e+02 -2.199646e+01
     vertex  5.941057e+02  3.135157e+02 -2.199646e+01
     vertex  5.941057e+02  3.135157e+02 -2.119646e+01
   endloop
 endfacet
 facet normal -1.892829e-01 -9.819226e-01  0.000000e+00
   outer loop
     vertex  5.925670e+02  3.138123e+02 -2.199646e+01
     vertex  5.941057e+02  3.135157e+02 -2.119646e+01
     vertex  5.925670e+02  3.138123e+02 -2.119646e+01
   endloop
 endfacet
 facet normal -4.187722e-01 -9.080913e-01  1.084899e-17
   outer loop
     vertex  5.911440e+02  3.144685e+02 -2.199646e+01
     vertex  5.925670e+02  3.138123e+02 -2.199646e+01
     vertex  5.925670e+02  3.138123e+02 -2.119646e+01
   endloop
 endfacet
 facet normal -4.187722e-01 -9.080913e-01  0.000000e+00
   outer loop
     vertex  5.911440e+02  3.144685e+02 -2.199646e+01
     vertex  5.925670e+02  3.138123e+02 -2.119646e+01
     vertex  5.911440e+02  3.144685e+02 -2.119646e+01
   endloop
 endfacet
 facet normal -6.239239e-01 -7.814851e-01  4.305682e-17
   outer loop
     vertex  5.899195e+02  3.154462e+02 -2.199646e+01
     vertex  5.911440e+02  3.144685e+02 -2.199646e+01
     vertex  5.911440e+02  3.144685e+02 -2.119646e+01
   endloop
 endfacet
 facet normal -6.239239e-01 -7.814851e-01  0.000000e+00
   outer loop
     vertex  5.899195e+02  3.154462e+02 -2.199646e+01
     vertex  5.911440e+02  3.144685e+02 -2.119646e+01
     vertex  5.899195e+02  3.154462e+02 -2.119646e+01
   endloop
 endfacet
 facet normal -7.928154e-01 -6.094618e-01 -8.584346e-17
   outer loop
     vertex  5.889645e+02  3.166885e+02 -2.199646e+01
     vertex  5.899195e+02  3.154462e+02 -2.199646e+01
     vertex  5.899195e+02  3.154462e+02 -2.119646e+01
   endloop
 endfacet
 facet normal -7.928154e-01 -6.094618e-01  0.000000e+00
   outer loop
     vertex  5.889645e+02  3.166885e+02 -2.199646e+01
     vertex  5.899195e+02  3.154462e+02 -2.119646e+01
     vertex  5.889645e+02  3.166885e+02 -2.119646e+01
   endloop
 endfacet
 facet normal -9.156314e-01 -4.020188e-01 -3.781706e-17
   outer loop
     vertex  5.883345e+02  3.181233e+02 -2.199646e+01
     vertex  5.889645e+02  3.166885e+02 -2.199646e+01
     vertex  5.889645e+02  3.166885e+02 -2.119646e+01
   endloop
 endfacet
 facet normal -9.156314e-01 -4.020188e-01  0.000000e+00
   outer loop
     vertex  5.883345e+02  3.181233e+02 -2.199646e+01
     vertex  5.889645e+02  3.166885e+02 -2.119646e+01
     vertex  5.883345e+02  3.181233e+02 -2.119646e+01
   endloop
 endfacet
 facet normal -9.852342e-01 -1.712119e-01  5.995289e-18
   outer loop
     vertex  5.880662e+02  3.196672e+02 -2.199646e+01
     vertex  5.883345e+02  3.181233e+02 -2.199646e+01
     vertex  5.883345e+02  3.181233e+02 -2.119646e+01
   endloop
 endfacet
 facet normal -9.852342e-01 -1.712119e-01  0.000000e+00
   outer loop
     vertex  5.880662e+02  3.196672e+02 -2.199646e+01
     vertex  5.883345e+02  3.181233e+02 -2.119646e+01
     vertex  5.880662e+02  3.196672e+02 -2.119646e+01
   endloop
 endfacet
 facet normal -9.975788e-01  6.954515e-02 -7.064819e-18
   outer loop
     vertex  5.881752e+02  3.212303e+02 -2.199646e+01
     vertex  5.880662e+02  3.196672e+02 -2.199646e+01
     vertex  5.880662e+02  3.196672e+02 -2.119646e+01
   endloop
 endfacet
 facet normal -9.975788e-01  6.954515e-02  0.000000e+00
   outer loop
     vertex  5.881752e+02  3.212303e+02 -2.199646e+01
     vertex  5.880662e+02  3.196672e+02 -2.119646e+01
     vertex  5.881752e+02  3.212303e+02 -2.119646e+01
   endloop
 endfacet
 facet normal -9.519477e-01  3.062605e-01  9.199083e-18
   outer loop
     vertex  5.886551e+02  3.227220e+02 -2.199646e+01
     vertex  5.881752e+02  3.212303e+02 -2.199646e+01
     vertex  5.881752e+02  3.212303e+02 -2.119646e+01
   endloop
 endfacet
 facet normal -8.509929e-01  5.251772e-01  0.000000e+00
   outer loop
     vertex  5.886551e+02  3.227220e+02 -2.199646e+01
     vertex  5.886551e+02  3.227220e+02 -2.119646e+01
     vertex  5.894780e+02  3.240555e+02 -2.119646e+01
   endloop
 endfacet
 facet normal -9.519477e-01  3.062605e-01  0.000000e+00
   outer loop
     vertex  5.886551e+02  3.227220e+02 -2.199646e+01
     vertex  5.881752e+02  3.212303e+02 -2.119646e+01
     vertex  5.886551e+02  3.227220e+02 -2.119646e+01
   endloop
 endfacet
 facet normal -8.509929e-01  5.251772e-01 -3.731608e-14
   outer loop
     vertex  5.894780e+02  3.240555e+02 -2.199646e+01
     vertex  5.886551e+02  3.227220e+02 -2.199646e+01
     vertex  5.894780e+02  3.240555e+02 -2.119646e+01
   endloop
 endfacet
 facet normal -5.094548e-01  8.604974e-01  0.000000e+00
   outer loop
     vertex  5.905962e+02  3.251533e+02 -2.199646e+01
     vertex  5.905962e+02  3.251533e+02 -2.119646e+01
     vertex  5.919446e+02  3.259516e+02 -2.119646e+01
   endloop
 endfacet
 facet normal -7.005815e-01  7.135724e-01  0.000000e+00
   outer loop
     vertex  5.905962e+02  3.251533e+02 -2.199646e+01
     vertex  5.894780e+02  3.240555e+02 -2.119646e+01
     vertex  5.905962e+02  3.251533e+02 -2.119646e+01
   endloop
 endfacet
 facet normal -7.005815e-01  7.135724e-01 -5.064671e-14
   outer loop
     vertex  5.905962e+02  3.251533e+02 -2.199646e+01
     vertex  5.894780e+02  3.240555e+02 -2.199646e+01
     vertex  5.894780e+02  3.240555e+02 -2.119646e+01
   endloop
 endfacet
 facet normal -5.094548e-01  8.604974e-01  6.114202e-14
   outer loop
     vertex  5.919446e+02  3.259516e+02 -2.199646e+01
     vertex  5.905962e+02  3.251533e+02 -2.199646e+01
     vertex  5.919446e+02  3.259516e+02 -2.119646e+01
   endloop
 endfacet
 facet normal -2.887205e-01  9.574134e-01  0.000000e+00
   outer loop
     vertex  5.934448e+02  3.264040e+02 -2.199646e+01
     vertex  5.919446e+02  3.259516e+02 -2.119646e+01
     vertex  5.934448e+02  3.264040e+02 -2.119646e+01
   endloop
 endfacet
 facet normal -2.887205e-01  9.574134e-01  6.800764e-14
   outer loop
     vertex  5.934448e+02  3.264040e+02 -2.199646e+01
     vertex  5.919446e+02  3.259516e+02 -2.199646e+01
     vertex  5.919446e+02  3.259516e+02 -2.119646e+01
   endloop
 endfacet
 facet normal  1.892829e-01  9.819226e-01 -0.000000e+00
   outer loop
     vertex  5.950097e+02  3.264843e+02 -2.199646e+01
     vertex  5.950097e+02  3.264843e+02 -2.119646e+01
     vertex  5.965484e+02  3.261877e+02 -2.119646e+01
   endloop
 endfacet
 facet normal -5.120675e-02  9.986881e-01  0.000000e+00
   outer loop
     vertex  5.950097e+02  3.264843e+02 -2.199646e+01
     vertex  5.934448e+02  3.264040e+02 -2.119646e+01
     vertex  5.950097e+02  3.264843e+02 -2.119646e+01
   endloop
 endfacet
 facet normal -5.120675e-02  9.986881e-01 -1.024268e-17
   outer loop
     vertex  5.950097e+02  3.264843e+02 -2.199646e+01
     vertex  5.934448e+02  3.264040e+02 -2.199646e+01
     vertex  5.934448e+02  3.264040e+02 -2.119646e+01
   endloop
 endfacet
 facet normal  1.892829e-01  9.819226e-01  6.976980e-14
   outer loop
     vertex  5.965484e+02  3.261877e+02 -2.199646e+01
     vertex  5.950097e+02  3.264843e+02 -2.199646e+01
     vertex  5.965484e+02  3.261877e+02 -2.119646e+01
   endloop
 endfacet
 facet normal  4.187722e-01  9.080913e-01 -0.000000e+00
   outer loop
     vertex  5.979713e+02  3.255315e+02 -2.199646e+01
     vertex  5.965484e+02  3.261877e+02 -2.119646e+01
     vertex  5.979713e+02  3.255315e+02 -2.119646e+01
   endloop
 endfacet
 facet normal  4.187722e-01  9.080913e-01  6.453065e-14
   outer loop
     vertex  5.979713e+02  3.255315e+02 -2.199646e+01
     vertex  5.965484e+02  3.261877e+02 -2.199646e+01
     vertex  5.965484e+02  3.261877e+02 -2.119646e+01
   endloop
 endfacet
 facet normal  6.239239e-01  7.814851e-01 -8.866492e-14
   outer loop
     vertex  5.991959e+02  3.245538e+02 -2.199646e+01
     vertex  5.979713e+02  3.255315e+02 -2.119646e+01
     vertex  5.991959e+02  3.245538e+02 -2.119646e+01
   endloop
 endfacet
 facet normal  6.239239e-01  7.814851e-01  5.714694e-17
   outer loop
     vertex  5.991959e+02  3.245538e+02 -2.199646e+01
     vertex  5.979713e+02  3.255315e+02 -2.199646e+01
     vertex  5.979713e+02  3.255315e+02 -2.119646e+01
   endloop
 endfacet
 facet normal -1.568113e-14  4.178626e-15 -1.000000e+00
   outer loop
     vertex  5.903632e+02  3.197849e+02 -2.199646e+01
     vertex  5.883345e+02  3.181233e+02 -2.199646e+01
     vertex  5.880662e+02  3.196672e+02 -2.199646e+01
   endloop
 endfacet
 facet normal -1.620999e-14  5.675549e-15 -1.000000e+00
   outer loop
     vertex  5.904336e+02  3.207950e+02 -2.199646e+01
     vertex  5.880662e+02  3.196672e+02 -2.199646e+01
     vertex  5.881752e+02  3.212303e+02 -2.199646e+01
   endloop
 endfacet
 facet normal -1.570335e-14  4.612084e-15 -1.000000e+00
   outer loop
     vertex  5.904336e+02  3.207950e+02 -2.199646e+01
     vertex  5.903632e+02  3.197849e+02 -2.199646e+01
     vertex  5.880662e+02  3.196672e+02 -2.199646e+01
   endloop
 endfacet
 facet normal -1.754429e-14  4.677723e-15 -1.000000e+00
   outer loop
     vertex  5.905366e+02  3.187874e+02 -2.199646e+01
     vertex  5.889645e+02  3.166885e+02 -2.199646e+01
     vertex  5.883345e+02  3.181233e+02 -2.199646e+01
   endloop
 endfacet
 facet normal -1.839181e-14  7.488146e-15 -1.000000e+00
   outer loop
     vertex  5.905366e+02  3.187874e+02 -2.199646e+01
     vertex  5.883345e+02  3.181233e+02 -2.199646e+01
     vertex  5.903632e+02  3.197849e+02 -2.199646e+01
   endloop
 endfacet
 facet normal -1.725000e-14  3.167982e-15 -1.000000e+00
   outer loop
     vertex  5.907437e+02  3.217588e+02 -2.199646e+01
     vertex  5.881752e+02  3.212303e+02 -2.199646e+01
     vertex  5.886551e+02  3.227220e+02 -2.199646e+01
   endloop
 endfacet
 facet normal -1.696261e-14  1.771266e-15 -1.000000e+00
   outer loop
     vertex  5.907437e+02  3.217588e+02 -2.199646e+01
     vertex  5.904336e+02  3.207950e+02 -2.199646e+01
     vertex  5.881752e+02  3.212303e+02 -2.199646e+01
   endloop
 endfacet
 facet normal -1.679995e-14  4.120192e-15 -1.000000e+00
   outer loop
     vertex  5.909436e+02  3.178603e+02 -2.199646e+01
     vertex  5.889645e+02  3.166885e+02 -2.199646e+01
     vertex  5.905366e+02  3.187874e+02 -2.199646e+01
   endloop
 endfacet
 facet normal -1.609143e-14  4.602116e-15 -1.000000e+00
   outer loop
     vertex  5.912755e+02  3.226205e+02 -2.199646e+01
     vertex  5.886551e+02  3.227220e+02 -2.199646e+01
     vertex  5.894780e+02  3.240555e+02 -2.199646e+01
   endloop
 endfacet
 facet normal -1.604581e-14  5.779214e-15 -1.000000e+00
   outer loop
     vertex  5.912755e+02  3.226205e+02 -2.199646e+01
     vertex  5.907437e+02  3.217588e+02 -2.199646e+01
     vertex  5.886551e+02  3.227220e+02 -2.199646e+01
   endloop
 endfacet
 facet normal -1.700206e-14  4.088390e-15 -1.000000e+00
   outer loop
     vertex  5.915607e+02  3.170576e+02 -2.199646e+01
     vertex  5.899195e+02  3.154462e+02 -2.199646e+01
     vertex  5.889645e+02  3.166885e+02 -2.199646e+01
   endloop
 endfacet
 facet normal -1.707185e-14  4.579447e-15 -1.000000e+00
   outer loop
     vertex  5.915607e+02  3.170576e+02 -2.199646e+01
     vertex  5.889645e+02  3.166885e+02 -2.199646e+01
     vertex  5.909436e+02  3.178603e+02 -2.199646e+01
   endloop
 endfacet
 facet normal -1.705378e-14  4.425106e-15 -1.000000e+00
   outer loop
     vertex  5.919980e+02  3.233298e+02 -2.199646e+01
     vertex  5.894780e+02  3.240555e+02 -2.199646e+01
     vertex  5.905962e+02  3.251533e+02 -2.199646e+01
   endloop
 endfacet
 facet normal -1.751703e-14  2.816506e-15 -1.000000e+00
   outer loop
     vertex  5.919980e+02  3.233298e+02 -2.199646e+01
     vertex  5.912755e+02  3.226205e+02 -2.199646e+01
     vertex  5.894780e+02  3.240555e+02 -2.199646e+01
   endloop
 endfacet
 facet normal -1.651752e-14  4.748159e-15 -1.000000e+00
   outer loop
     vertex  5.923520e+02  3.164258e+02 -2.199646e+01
     vertex  5.911440e+02  3.144685e+02 -2.199646e+01
     vertex  5.899195e+02  3.154462e+02 -2.199646e+01
   endloop
 endfacet
 facet normal -1.573006e-14  2.792801e-15 -1.000000e+00
   outer loop
     vertex  5.923520e+02  3.164258e+02 -2.199646e+01
     vertex  5.899195e+02  3.154462e+02 -2.199646e+01
     vertex  5.915607e+02  3.170576e+02 -2.199646e+01
   endloop
 endfacet
 facet normal -1.600501e-14  4.781717e-15 -1.000000e+00
   outer loop
     vertex  5.928692e+02  3.238457e+02 -2.199646e+01
     vertex  5.905962e+02  3.251533e+02 -2.199646e+01
     vertex  5.919446e+02  3.259516e+02 -2.199646e+01
   endloop
 endfacet
 facet normal -1.554127e-14  5.587826e-15 -1.000000e+00
   outer loop
     vertex  5.928692e+02  3.238457e+02 -2.199646e+01
     vertex  5.919980e+02  3.233298e+02 -2.199646e+01
     vertex  5.905962e+02  3.251533e+02 -2.199646e+01
   endloop
 endfacet
 facet normal -1.587064e-14  3.483271e-15 -1.000000e+00
   outer loop
     vertex  5.932714e+02  3.160018e+02 -2.199646e+01
     vertex  5.925670e+02  3.138123e+02 -2.199646e+01
     vertex  5.911440e+02  3.144685e+02 -2.199646e+01
   endloop
 endfacet
 facet normal -1.699441e-14  5.042467e-15 -1.000000e+00
   outer loop
     vertex  5.932714e+02  3.160018e+02 -2.199646e+01
     vertex  5.911440e+02  3.144685e+02 -2.199646e+01
     vertex  5.923520e+02  3.164258e+02 -2.199646e+01
   endloop
 endfacet
 facet normal -1.778318e-14  4.000993e-15 -1.000000e+00
   outer loop
     vertex  5.934448e+02  3.264040e+02 -2.199646e+01
     vertex  5.928692e+02  3.238457e+02 -2.199646e+01
     vertex  5.919446e+02  3.259516e+02 -2.199646e+01
   endloop
 endfacet
 facet normal -1.572662e-14  3.538293e-15 -1.000000e+00
   outer loop
     vertex  5.938386e+02  3.241380e+02 -2.199646e+01
     vertex  5.928692e+02  3.238457e+02 -2.199646e+01
     vertex  5.934448e+02  3.264040e+02 -2.199646e+01
   endloop
 endfacet
 facet normal -1.763786e-14  4.326419e-15 -1.000000e+00
   outer loop
     vertex  5.942656e+02  3.158102e+02 -2.199646e+01
     vertex  5.941057e+02  3.135157e+02 -2.199646e+01
     vertex  5.925670e+02  3.138123e+02 -2.199646e+01
   endloop
 endfacet
 facet normal -1.711828e-14  3.884662e-15 -1.000000e+00
   outer loop
     vertex  5.942656e+02  3.158102e+02 -2.199646e+01
     vertex  5.925670e+02  3.138123e+02 -2.199646e+01
     vertex  5.932714e+02  3.160018e+02 -2.199646e+01
   endloop
 endfacet
 facet normal -1.778955e-14  4.336994e-15 -1.000000e+00
   outer loop
     vertex  5.950097e+02  3.264843e+02 -2.199646e+01
     vertex  5.948498e+02  3.241898e+02 -2.199646e+01
     vertex  5.938386e+02  3.241380e+02 -2.199646e+01
   endloop
 endfacet
 facet normal -1.606990e-14  3.478639e-15 -1.000000e+00
   outer loop
     vertex  5.950097e+02  3.264843e+02 -2.199646e+01
     vertex  5.938386e+02  3.241380e+02 -2.199646e+01
     vertex  5.934448e+02  3.264040e+02 -2.199646e+01
   endloop
 endfacet
 facet normal -1.778955e-14  4.336994e-15 -1.000000e+00
   outer loop
     vertex  5.952768e+02  3.158620e+02 -2.199646e+01
     vertex  5.941057e+02  3.135157e+02 -2.199646e+01
     vertex  5.942656e+02  3.158102e+02 -2.199646e+01
   endloop
 endfacet
 facet normal -1.606990e-14  3.478639e-15 -1.000000e+00
   outer loop
     vertex  5.956706e+02  3.135960e+02 -2.199646e+01
     vertex  5.941057e+02  3.135157e+02 -2.199646e+01
     vertex  5.952768e+02  3.158620e+02 -2.199646e+01
   endloop
 endfacet
 facet normal -1.763786e-14  4.326419e-15 -1.000000e+00
   outer loop
     vertex  5.965484e+02  3.261877e+02 -2.199646e+01
     vertex  5.948498e+02  3.241898e+02 -2.199646e+01
     vertex  5.950097e+02  3.264843e+02 -2.199646e+01
   endloop
 endfacet
 facet normal -1.711828e-14  3.884662e-15 -1.000000e+00
   outer loop
     vertex  5.965484e+02  3.261877e+02 -2.199646e+01
     vertex  5.958440e+02  3.239982e+02 -2.199646e+01
     vertex  5.948498e+02  3.241898e+02 -2.199646e+01
   endloop
 endfacet
 facet normal -1.609030e-14  4.744272e-15 -1.000000e+00
   outer loop
     vertex  5.971708e+02  3.140484e+02 -2.199646e+01
     vertex  5.952768e+02  3.158620e+02 -2.199646e+01
     vertex  5.962462e+02  3.161543e+02 -2.199646e+01
   endloop
 endfacet
 facet normal -1.754819e-14  3.221745e-15 -1.000000e+00
   outer loop
     vertex  5.971708e+02  3.140484e+02 -2.199646e+01
     vertex  5.956706e+02  3.135960e+02 -2.199646e+01
     vertex  5.952768e+02  3.158620e+02 -2.199646e+01
   endloop
 endfacet
 facet normal -1.587064e-14  3.483271e-15 -1.000000e+00
   outer loop
     vertex  5.979713e+02  3.255315e+02 -2.199646e+01
     vertex  5.958440e+02  3.239982e+02 -2.199646e+01
     vertex  5.965484e+02  3.261877e+02 -2.199646e+01
   endloop
 endfacet
 facet normal -1.699441e-14  5.042467e-15 -1.000000e+00
   outer loop
     vertex  5.979713e+02  3.255315e+02 -2.199646e+01
     vertex  5.967634e+02  3.235742e+02 -2.199646e+01
     vertex  5.958440e+02  3.239982e+02 -2.199646e+01
   endloop
 endfacet
 facet normal -1.600501e-14  4.781717e-15 -1.000000e+00
   outer loop
     vertex  5.985192e+02  3.148467e+02 -2.199646e+01
     vertex  5.971708e+02  3.140484e+02 -2.199646e+01
     vertex  5.962462e+02  3.161543e+02 -2.199646e+01
   endloop
 endfacet
 facet normal -1.554127e-14  5.587826e-15 -1.000000e+00
   outer loop
     vertex  5.985192e+02  3.148467e+02 -2.199646e+01
     vertex  5.962462e+02  3.161543e+02 -2.199646e+01
     vertex  5.971174e+02  3.166702e+02 -2.199646e+01
   endloop
 endfacet
 facet normal -1.821781e-14  3.530284e-15 -1.000000e+00
   outer loop
     vertex  5.985192e+02  3.148467e+02 -2.199646e+01
     vertex  5.971174e+02  3.166702e+02 -2.199646e+01
     vertex  5.978399e+02  3.173795e+02 -2.199646e+01
   endloop
 endfacet
 facet normal -1.573006e-14  2.792801e-15 -1.000000e+00
   outer loop
     vertex  5.991959e+02  3.245538e+02 -2.199646e+01
     vertex  5.975547e+02  3.229424e+02 -2.199646e+01
     vertex  5.967634e+02  3.235742e+02 -2.199646e+01
   endloop
 endfacet
 facet normal -1.651752e-14  4.748159e-15 -1.000000e+00
   outer loop
     vertex  5.991959e+02  3.245538e+02 -2.199646e+01
     vertex  5.967634e+02  3.235742e+02 -2.199646e+01
     vertex  5.979713e+02  3.255315e+02 -2.199646e+01
   endloop
 endfacet
 facet normal -1.660097e-14  3.963896e-15 -1.000000e+00
   outer loop
     vertex  5.996373e+02  3.159445e+02 -2.199646e+01
     vertex  5.985192e+02  3.148467e+02 -2.199646e+01
     vertex  5.978399e+02  3.173795e+02 -2.199646e+01
   endloop
 endfacet
 facet normal -1.700206e-14  4.088390e-15 -1.000000e+00
   outer loop
     vertex  6.001509e+02  3.233115e+02 -2.199646e+01
     vertex  5.975547e+02  3.229424e+02 -2.199646e+01
     vertex  5.991959e+02  3.245538e+02 -2.199646e+01
   endloop
 endfacet
 facet normal -1.679995e-14  4.120192e-15 -1.000000e+00
   outer loop
     vertex  6.001509e+02  3.233115e+02 -2.199646e+01
     vertex  5.985788e+02  3.212126e+02 -2.199646e+01
     vertex  5.981718e+02  3.221397e+02 -2.199646e+01
   endloop
 endfacet
 facet normal -1.707185e-14  4.579447e-15 -1.000000e+00
   outer loop
     vertex  6.001509e+02  3.233115e+02 -2.199646e+01
     vertex  5.981718e+02  3.221397e+02 -2.199646e+01
     vertex  5.975547e+02  3.229424e+02 -2.199646e+01
   endloop
 endfacet
 facet normal -1.609143e-14  4.602116e-15 -1.000000e+00
   outer loop
     vertex  6.004603e+02  3.172780e+02 -2.199646e+01
     vertex  5.996373e+02  3.159445e+02 -2.199646e+01
     vertex  5.978399e+02  3.173795e+02 -2.199646e+01
   endloop
 endfacet
 facet normal -1.604581e-14  5.779214e-15 -1.000000e+00
   outer loop
     vertex  6.004603e+02  3.172780e+02 -2.199646e+01
     vertex  5.978399e+02  3.173795e+02 -2.199646e+01
     vertex  5.983717e+02  3.182412e+02 -2.199646e+01
   endloop
 endfacet
 facet normal -1.754429e-14  4.677723e-15 -1.000000e+00
   outer loop
     vertex  6.007809e+02  3.218767e+02 -2.199646e+01
     vertex  5.985788e+02  3.212126e+02 -2.199646e+01
     vertex  6.001509e+02  3.233115e+02 -2.199646e+01
   endloop
 endfacet
 facet normal -1.696261e-14  1.771266e-15 -1.000000e+00
   outer loop
     vertex  6.009402e+02  3.187697e+02 -2.199646e+01
     vertex  5.983717e+02  3.182412e+02 -2.199646e+01
     vertex  5.986818e+02  3.192050e+02 -2.199646e+01
   endloop
 endfacet
 facet normal -1.725000e-14  3.167982e-15 -1.000000e+00
   outer loop
     vertex  6.009402e+02  3.187697e+02 -2.199646e+01
     vertex  6.004603e+02  3.172780e+02 -2.199646e+01
     vertex  5.983717e+02  3.182412e+02 -2.199646e+01
   endloop
 endfacet
 facet normal -1.570335e-14  4.612084e-15 -1.000000e+00
   outer loop
     vertex  6.010492e+02  3.203328e+02 -2.199646e+01
     vertex  5.986818e+02  3.192050e+02 -2.199646e+01
     vertex  5.987522e+02  3.202151e+02 -2.199646e+01
   endloop
 endfacet
 facet normal -1.587326e-14  7.925814e-15 -1.000000e+00
   outer loop
     vertex  6.010492e+02  3.203328e+02 -2.199646e+01
     vertex  5.987522e+02  3.202151e+02 -2.199646e+01
     vertex  5.985788e+02  3.212126e+02 -2.199646e+01
   endloop
 endfacet
 facet normal -1.620999e-14  5.675549e-15 -1.000000e+00
   outer loop
     vertex  6.010492e+02  3.203328e+02 -2.199646e+01
     vertex  6.009402e+02  3.187697e+02 -2.199646e+01
     vertex  5.986818e+02  3.192050e+02 -2.199646e+01
   endloop
 endfacet
 facet normal -1.730850e-14  3.895826e-15 -1.000000e+00
   outer loop
     vertex  6.010492e+02  3.203328e+02 -2.199646e+01
     vertex  5.985788e+02  3.212126e+02 -2.199646e+01
     vertex  6.007809e+02  3.218767e+02 -2.199646e+01
   endloop
 endfacet
 facet normal  1.568113e-14 -4.178626e-15  1.000000e+00
   outer loop
     vertex  5.903632e+02  3.197849e+02 -2.119646e+01
     vertex  5.880662e+02  3.196672e+02 -2.119646e+01
     vertex  5.883345e+02  3.181233e+02 -2.119646e+01
   endloop
 endfacet
 facet normal  1.620999e-14 -5.675549e-15  1.000000e+00
   outer loop
     vertex  5.904336e+02  3.207950e+02 -2.119646e+01
     vertex  5.881752e+02  3.212303e+02 -2.119646e+01
     vertex  5.880662e+02  3.196672e+02 -2.119646e+01
   endloop
 endfacet
 facet normal  1.570335e-14 -4.612084e-15  1.000000e+00
   outer loop
     vertex  5.904336e+02  3.207950e+02 -2.119646e+01
     vertex  5.880662e+02  3.196672e+02 -2.119646e+01
     vertex  5.903632e+02  3.197849e+02 -2.119646e+01
   endloop
 endfacet
 facet normal  1.754429e-14 -4.677723e-15  1.000000e+00
   outer loop
     vertex  5.905366e+02  3.187874e+02 -2.119646e+01
     vertex  5.883345e+02  3.181233e+02 -2.119646e+01
     vertex  5.889645e+02  3.166885e+02 -2.119646e+01
   endloop
 endfacet
 facet normal  1.839181e-14 -7.488146e-15  1.000000e+00
   outer loop
     vertex  5.905366e+02  3.187874e+02 -2.119646e+01
     vertex  5.903632e+02  3.197849e+02 -2.119646e+01
     vertex  5.883345e+02  3.181233e+02 -2.119646e+01
   endloop
 endfacet
 facet normal  1.725000e-14 -3.167982e-15  1.000000e+00
   outer loop
     vertex  5.907437e+02  3.217588e+02 -2.119646e+01
     vertex  5.886551e+02  3.227220e+02 -2.119646e+01
     vertex  5.881752e+02  3.212303e+02 -2.119646e+01
   endloop
 endfacet
 facet normal  1.696261e-14 -1.771266e-15  1.000000e+00
   outer loop
     vertex  5.907437e+02  3.217588e+02 -2.119646e+01
     vertex  5.881752e+02  3.212303e+02 -2.119646e+01
     vertex  5.904336e+02  3.207950e+02 -2.119646e+01
   endloop
 endfacet
 facet normal  1.685023e-14 -4.205107e-15  1.000000e+00
   outer loop
     vertex  5.909436e+02  3.178603e+02 -2.119646e+01
     vertex  5.889645e+02  3.166885e+02 -2.119646e+01
     vertex  5.899195e+02  3.154462e+02 -2.119646e+01
   endloop
 endfacet
 facet normal  1.679995e-14 -4.120192e-15  1.000000e+00
   outer loop
     vertex  5.909436e+02  3.178603e+02 -2.119646e+01
     vertex  5.905366e+02  3.187874e+02 -2.119646e+01
     vertex  5.889645e+02  3.166885e+02 -2.119646e+01
   endloop
 endfacet
 facet normal  1.609143e-14 -4.602116e-15  1.000000e+00
   outer loop
     vertex  5.912755e+02  3.226205e+02 -2.119646e+01
     vertex  5.894780e+02  3.240555e+02 -2.119646e+01
     vertex  5.886551e+02  3.227220e+02 -2.119646e+01
   endloop
 endfacet
 facet normal  1.604581e-14 -5.779214e-15  1.000000e+00
   outer loop
     vertex  5.912755e+02  3.226205e+02 -2.119646e+01
     vertex  5.886551e+02  3.227220e+02 -2.119646e+01
     vertex  5.907437e+02  3.217588e+02 -2.119646e+01
   endloop
 endfacet
 facet normal  1.702534e-14 -4.112101e-15  1.000000e+00
   outer loop
     vertex  5.915607e+02  3.170576e+02 -2.119646e+01
     vertex  5.899195e+02  3.154462e+02 -2.119646e+01
     vertex  5.911440e+02  3.144685e+02 -2.119646e+01
   endloop
 endfacet
 facet normal  1.730683e-14 -4.398814e-15  1.000000e+00
   outer loop
     vertex  5.915607e+02  3.170576e+02 -2.119646e+01
     vertex  5.909436e+02  3.178603e+02 -2.119646e+01
     vertex  5.899195e+02  3.154462e+02 -2.119646e+01
   endloop
 endfacet
 facet normal  1.705378e-14 -4.425106e-15  1.000000e+00
   outer loop
     vertex  5.919980e+02  3.233298e+02 -2.119646e+01
     vertex  5.905962e+02  3.251533e+02 -2.119646e+01
     vertex  5.894780e+02  3.240555e+02 -2.119646e+01
   endloop
 endfacet
 facet normal  1.751703e-14 -2.816506e-15  1.000000e+00
   outer loop
     vertex  5.919980e+02  3.233298e+02 -2.119646e+01
     vertex  5.894780e+02  3.240555e+02 -2.119646e+01
     vertex  5.912755e+02  3.226205e+02 -2.119646e+01
   endloop
 endfacet
 facet normal  1.494415e-14 -3.777177e-15  1.000000e+00
   outer loop
     vertex  5.923520e+02  3.164258e+02 -2.119646e+01
     vertex  5.915607e+02  3.170576e+02 -2.119646e+01
     vertex  5.911440e+02  3.144685e+02 -2.119646e+01
   endloop
 endfacet
 facet normal  1.555987e-14 -4.157160e-15  1.000000e+00
   outer loop
     vertex  5.925670e+02  3.138123e+02 -2.119646e+01
     vertex  5.923520e+02  3.164258e+02 -2.119646e+01
     vertex  5.911440e+02  3.144685e+02 -2.119646e+01
   endloop
 endfacet
 facet normal  1.600501e-14 -4.781717e-15  1.000000e+00
   outer loop
     vertex  5.928692e+02  3.238457e+02 -2.119646e+01
     vertex  5.919446e+02  3.259516e+02 -2.119646e+01
     vertex  5.905962e+02  3.251533e+02 -2.119646e+01
   endloop
 endfacet
 facet normal  1.554127e-14 -5.587826e-15  1.000000e+00
   outer loop
     vertex  5.928692e+02  3.238457e+02 -2.119646e+01
     vertex  5.905962e+02  3.251533e+02 -2.119646e+01
     vertex  5.919980e+02  3.233298e+02 -2.119646e+01
   endloop
 endfacet
 facet normal  1.747536e-14 -3.999543e-15  1.000000e+00
   outer loop
     vertex  5.932714e+02  3.160018e+02 -2.119646e+01
     vertex  5.923520e+02  3.164258e+02 -2.119646e+01
     vertex  5.925670e+02  3.138123e+02 -2.119646e+01
   endloop
 endfacet
 facet normal  1.754819e-14 -3.221745e-15  1.000000e+00
   outer loop
     vertex  5.938386e+02  3.241380e+02 -2.119646e+01
     vertex  5.934448e+02  3.264040e+02 -2.119646e+01
     vertex  5.919446e+02  3.259516e+02 -2.119646e+01
   endloop
 endfacet
 facet normal  1.609030e-14 -4.744272e-15  1.000000e+00
   outer loop
     vertex  5.938386e+02  3.241380e+02 -2.119646e+01
     vertex  5.919446e+02  3.259516e+02 -2.119646e+01
     vertex  5.928692e+02  3.238457e+02 -2.119646e+01
   endloop
 endfacet
 facet normal  1.768770e-14 -4.067855e-15  1.000000e+00
   outer loop
     vertex  5.941057e+02  3.135157e+02 -2.119646e+01
     vertex  5.932714e+02  3.160018e+02 -2.119646e+01
     vertex  5.925670e+02  3.138123e+02 -2.119646e+01
   endloop
 endfacet
 facet normal  1.704114e-14 -4.284819e-15  1.000000e+00
   outer loop
     vertex  5.942656e+02  3.158102e+02 -2.119646e+01
     vertex  5.932714e+02  3.160018e+02 -2.119646e+01
     vertex  5.941057e+02  3.135157e+02 -2.119646e+01
   endloop
 endfacet
 facet normal  1.773074e-14 -3.190022e-15  1.000000e+00
   outer loop
     vertex  5.948498e+02  3.241898e+02 -2.119646e+01
     vertex  5.934448e+02  3.264040e+02 -2.119646e+01
     vertex  5.938386e+02  3.241380e+02 -2.119646e+01
   endloop
 endfacet
 facet normal  1.610790e-14 -4.219759e-15  1.000000e+00
   outer loop
     vertex  5.950097e+02  3.264843e+02 -2.119646e+01
     vertex  5.934448e+02  3.264040e+02 -2.119646e+01
     vertex  5.948498e+02  3.241898e+02 -2.119646e+01
   endloop
 endfacet
 facet normal  1.610790e-14 -4.219759e-15  1.000000e+00
   outer loop
     vertex  5.956706e+02  3.135960e+02 -2.119646e+01
     vertex  5.942656e+02  3.158102e+02 -2.119646e+01
     vertex  5.941057e+02  3.135157e+02 -2.119646e+01
   endloop
 endfacet
 facet normal  1.773074e-14 -3.190022e-15  1.000000e+00
   outer loop
     vertex  5.956706e+02  3.135960e+02 -2.119646e+01
     vertex  5.952768e+02  3.158620e+02 -2.119646e+01
     vertex  5.942656e+02  3.158102e+02 -2.119646e+01
   endloop
 endfacet
 facet normal  1.704114e-14 -4.284819e-15  1.000000e+00
   outer loop
     vertex  5.958440e+02  3.239982e+02 -2.119646e+01
     vertex  5.950097e+02  3.264843e+02 -2.119646e+01
     vertex  5.948498e+02  3.241898e+02 -2.119646e+01
   endloop
 endfacet
 facet normal  1.768770e-14 -4.067855e-15  1.000000e+00
   outer loop
     vertex  5.965484e+02  3.261877e+02 -2.119646e+01
     vertex  5.950097e+02  3.264843e+02 -2.119646e+01
     vertex  5.958440e+02  3.239982e+02 -2.119646e+01
   endloop
 endfacet
 facet normal  1.747536e-14 -3.999543e-15  1.000000e+00
   outer loop
     vertex  5.967634e+02  3.235742e+02 -2.119646e+01
     vertex  5.965484e+02  3.261877e+02 -2.119646e+01
     vertex  5.958440e+02  3.239982e+02 -2.119646e+01
   endloop
 endfacet
 facet normal  1.754819e-14 -3.221745e-15  1.000000e+00
   outer loop
     vertex  5.971708e+02  3.140484e+02 -2.119646e+01
     vertex  5.952768e+02  3.158620e+02 -2.119646e+01
     vertex  5.956706e+02  3.135960e+02 -2.119646e+01
   endloop
 endfacet
 facet normal  1.609030e-14 -4.744272e-15  1.000000e+00
   outer loop
     vertex  5.971708e+02  3.140484e+02 -2.119646e+01
     vertex  5.962462e+02  3.161543e+02 -2.119646e+01
     vertex  5.952768e+02  3.158620e+02 -2.119646e+01
   endloop
 endfacet
 facet normal  1.555987e-14 -4.157160e-15  1.000000e+00
   outer loop
     vertex  5.979713e+02  3.255315e+02 -2.119646e+01
     vertex  5.965484e+02  3.261877e+02 -2.119646e+01
     vertex  5.967634e+02  3.235742e+02 -2.119646e+01
   endloop
 endfacet
 facet normal  1.600501e-14 -4.781717e-15  1.000000e+00
   outer loop
     vertex  5.985192e+02  3.148467e+02 -2.119646e+01
     vertex  5.962462e+02  3.161543e+02 -2.119646e+01
     vertex  5.971708e+02  3.140484e+02 -2.119646e+01
   endloop
 endfacet
 facet normal  1.554127e-14 -5.587826e-15  1.000000e+00
   outer loop
     vertex  5.985192e+02  3.148467e+02 -2.119646e+01
     vertex  5.971174e+02  3.166702e+02 -2.119646e+01
     vertex  5.962462e+02  3.161543e+02 -2.119646e+01
   endloop
 endfacet
 facet normal  1.730683e-14 -4.398814e-15  1.000000e+00
   outer loop
     vertex  5.991959e+02  3.245538e+02 -2.119646e+01
     vertex  5.975547e+02  3.229424e+02 -2.119646e+01
     vertex  5.981718e+02  3.221397e+02 -2.119646e+01
   endloop
 endfacet
 facet normal  1.573006e-14 -2.792801e-15  1.000000e+00
   outer loop
     vertex  5.991959e+02  3.245538e+02 -2.119646e+01
     vertex  5.967634e+02  3.235742e+02 -2.119646e+01
     vertex  5.975547e+02  3.229424e+02 -2.119646e+01
   endloop
 endfacet
 facet normal  1.651752e-14 -4.748159e-15  1.000000e+00
   outer loop
     vertex  5.991959e+02  3.245538e+02 -2.119646e+01
     vertex  5.979713e+02  3.255315e+02 -2.119646e+01
     vertex  5.967634e+02  3.235742e+02 -2.119646e+01
   endloop
 endfacet
 facet normal  1.751703e-14 -2.816506e-15  1.000000e+00
   outer loop
     vertex  5.996373e+02  3.159445e+02 -2.119646e+01
     vertex  5.978399e+02  3.173795e+02 -2.119646e+01
     vertex  5.971174e+02  3.166702e+02 -2.119646e+01
   endloop
 endfacet
 facet normal  1.705378e-14 -4.425106e-15  1.000000e+00
   outer loop
     vertex  5.996373e+02  3.159445e+02 -2.119646e+01
     vertex  5.971174e+02  3.166702e+02 -2.119646e+01
     vertex  5.985192e+02  3.148467e+02 -2.119646e+01
   endloop
 endfacet
 facet normal  1.685023e-14 -4.205107e-15  1.000000e+00
   outer loop
     vertex  6.001509e+02  3.233115e+02 -2.119646e+01
     vertex  5.991959e+02  3.245538e+02 -2.119646e+01
     vertex  5.981718e+02  3.221397e+02 -2.119646e+01
   endloop
 endfacet
 facet normal  1.609143e-14 -4.602116e-15  1.000000e+00
   outer loop
     vertex  6.004603e+02  3.172780e+02 -2.119646e+01
     vertex  5.978399e+02  3.173795e+02 -2.119646e+01
     vertex  5.996373e+02  3.159445e+02 -2.119646e+01
   endloop
 endfacet
 facet normal  1.604581e-14 -5.779214e-15  1.000000e+00
   outer loop
     vertex  6.004603e+02  3.172780e+02 -2.119646e+01
     vertex  5.983717e+02  3.182412e+02 -2.119646e+01
     vertex  5.978399e+02  3.173795e+02 -2.119646e+01
   endloop
 endfacet
 facet normal  1.730878e-14 -3.896784e-15  1.000000e+00
   outer loop
     vertex  6.007809e+02  3.218767e+02 -2.119646e+01
     vertex  5.981718e+02  3.221397e+02 -2.119646e+01
     vertex  5.985788e+02  3.212126e+02 -2.119646e+01
   endloop
 endfacet
 facet normal  1.839181e-14 -7.488146e-15  1.000000e+00
   outer loop
     vertex  6.007809e+02  3.218767e+02 -2.119646e+01
     vertex  5.985788e+02  3.212126e+02 -2.119646e+01
     vertex  5.987522e+02  3.202151e+02 -2.119646e+01
   endloop
 endfacet
 facet normal  1.721550e-14 -4.822079e-15  1.000000e+00
   outer loop
     vertex  6.007809e+02  3.218767e+02 -2.119646e+01
     vertex  6.001509e+02  3.233115e+02 -2.119646e+01
     vertex  5.981718e+02  3.221397e+02 -2.119646e+01
   endloop
 endfacet
 facet normal  1.696261e-14 -1.771266e-15  1.000000e+00
   outer loop
     vertex  6.009402e+02  3.187697e+02 -2.119646e+01
     vertex  5.986818e+02  3.192050e+02 -2.119646e+01
     vertex  5.983717e+02  3.182412e+02 -2.119646e+01
   endloop
 endfacet
 facet normal  1.725000e-14 -3.167982e-15  1.000000e+00
   outer loop
     vertex  6.009402e+02  3.187697e+02 -2.119646e+01
     vertex  5.983717e+02  3.182412e+02 -2.119646e+01
     vertex  6.004603e+02  3.172780e+02 -2.119646e+01
   endloop
 endfacet
 facet normal  1.620999e-14 -5.675549e-15  1.000000e+00
   outer loop
     vertex  6.010492e+02  3.203328e+02 -2.119646e+01
     vertex  5.986818e+02  3.192050e+02 -2.119646e+01
     vertex  6.009402e+02  3.187697e+02 -2.119646e+01
   endloop
 endfacet
 facet normal  1.570335e-14 -4.612084e-15  1.000000e+00
   outer loop
     vertex  6.010492e+02  3.203328e+02 -2.119646e+01
     vertex  5.987522e+02  3.202151e+02 -2.119646e+01
     vertex  5.986818e+02  3.192050e+02 -2.119646e+01
   endloop
 endfacet
 facet normal  1.568113e-14 -4.178626e-15  1.000000e+00
   outer loop
     vertex  6.010492e+02  3.203328e+02 -2.119646e+01
     vertex  6.007809e+02  3.218767e+02 -2.119646e+01
     vertex  5.987522e+02  3.202151e+02 -2.119646e+01
   endloop
 endfacet
endsolid
