solid 
 facet normal -8.928507e-01 -4.120865e-13 -4.503529e-01
   outer loop
     vertex -3.664765e+02  2.950000e+02 -2.585616e+02
     vertex -3.660205e+02  2.942000e+02 -2.594656e+02
     vertex -3.664765e+02  2.942000e+02 -2.585616e+02
   endloop
 endfacet
 facet normal -9.746825e-01 -4.847875e-13 -2.235933e-01
   outer loop
     vertex -3.660205e+02  2.950000e+02 -2.594656e+02
     vertex -3.657942e+02  2.942000e+02 -2.604525e+02
     vertex -3.660205e+02  2.942000e+02 -2.594656e+02
   endloop
 endfacet
 facet normal -8.928507e-01 -4.440860e-13 -4.503529e-01
   outer loop
     vertex -3.660205e+02  2.950000e+02 -2.594656e+02
     vertex -3.660205e+02  2.942000e+02 -2.594656e+02
     vertex -3.664765e+02  2.950000e+02 -2.585616e+02
   endloop
 endfacet
 facet normal -9.998694e-01 -4.973150e-13  1.616074e-02
   outer loop
     vertex -3.657942e+02  2.950000e+02 -2.604525e+02
     vertex -3.658105e+02  2.942000e+02 -2.614649e+02
     vertex -3.657942e+02  2.942000e+02 -2.604525e+02
   endloop
 endfacet
 facet normal -9.746825e-01 -4.847875e-13 -2.235933e-01
   outer loop
     vertex -3.657942e+02  2.950000e+02 -2.604525e+02
     vertex -3.657942e+02  2.942000e+02 -2.604525e+02
     vertex -3.660205e+02  2.950000e+02 -2.594656e+02
   endloop
 endfacet
 facet normal -9.669475e-01 -4.122345e-13  2.549755e-01
   outer loop
     vertex -3.658105e+02  2.950000e+02 -2.614649e+02
     vertex -3.660687e+02  2.942000e+02 -2.624439e+02
     vertex -3.658105e+02  2.942000e+02 -2.614649e+02
   endloop
 endfacet
 facet normal -9.998694e-01 -4.262700e-13  1.616074e-02
   outer loop
     vertex -3.658105e+02  2.950000e+02 -2.614649e+02
     vertex -3.658105e+02  2.942000e+02 -2.614649e+02
     vertex -3.657942e+02  2.950000e+02 -2.604525e+02
   endloop
 endfacet
 facet normal -8.778301e-01 -4.082745e-13  4.789721e-01
   outer loop
     vertex -3.660687e+02  2.950000e+02 -2.624439e+02
     vertex -3.665536e+02  2.942000e+02 -2.633327e+02
     vertex -3.660687e+02  2.942000e+02 -2.624439e+02
   endloop
 endfacet
 facet normal -9.669475e-01 -4.303516e-13  2.549755e-01
   outer loop
     vertex -3.660687e+02  2.950000e+02 -2.624439e+02
     vertex -3.660687e+02  2.942000e+02 -2.624439e+02
     vertex -3.658105e+02  2.950000e+02 -2.614649e+02
   endloop
 endfacet
 facet normal -7.376964e-01 -4.717484e-13  6.751325e-01
   outer loop
     vertex -3.665536e+02  2.950000e+02 -2.633327e+02
     vertex -3.672372e+02  2.942000e+02 -2.640796e+02
     vertex -3.665536e+02  2.942000e+02 -2.633327e+02
   endloop
 endfacet
 facet normal -8.778301e-01 -5.613622e-13  4.789721e-01
   outer loop
     vertex -3.665536e+02  2.950000e+02 -2.633327e+02
     vertex -3.665536e+02  2.942000e+02 -2.633327e+02
     vertex -3.660687e+02  2.950000e+02 -2.624439e+02
   endloop
 endfacet
 facet normal -5.546905e-01 -2.758919e-13  8.320567e-01
   outer loop
     vertex -3.672372e+02  2.950000e+02 -2.640796e+02
     vertex -3.680797e+02  2.942000e+02 -2.646413e+02
     vertex -3.672372e+02  2.942000e+02 -2.640796e+02
   endloop
 endfacet
 facet normal -7.376964e-01 -3.669154e-13  6.751325e-01
   outer loop
     vertex -3.672372e+02  2.950000e+02 -2.640796e+02
     vertex -3.672372e+02  2.942000e+02 -2.640796e+02
     vertex -3.665536e+02  2.950000e+02 -2.633327e+02
   endloop
 endfacet
 facet normal -3.394480e-01 -1.688346e-13  9.406248e-01
   outer loop
     vertex -3.680797e+02  2.950000e+02 -2.646413e+02
     vertex -3.690321e+02  2.942000e+02 -2.649850e+02
     vertex -3.680797e+02  2.942000e+02 -2.646413e+02
   endloop
 endfacet
 facet normal -5.546905e-01 -2.758919e-13  8.320567e-01
   outer loop
     vertex -3.680797e+02  2.950000e+02 -2.646413e+02
     vertex -3.680797e+02  2.942000e+02 -2.646413e+02
     vertex -3.672372e+02  2.950000e+02 -2.640796e+02
   endloop
 endfacet
 facet normal -1.044780e-01 -1.099431e-14  9.945272e-01
   outer loop
     vertex -3.690321e+02  2.950000e+02 -2.649850e+02
     vertex -3.700390e+02  2.942000e+02 -2.650908e+02
     vertex -3.690321e+02  2.942000e+02 -2.649850e+02
   endloop
 endfacet
 facet normal -3.394480e-01 -1.984762e-13  9.406248e-01
   outer loop
     vertex -3.690321e+02  2.950000e+02 -2.649850e+02
     vertex -3.690321e+02  2.942000e+02 -2.649850e+02
     vertex -3.680797e+02  2.950000e+02 -2.646413e+02
   endloop
 endfacet
 facet normal  1.365638e-01 -2.464472e-15  9.906313e-01
   outer loop
     vertex -3.700390e+02  2.950000e+02 -2.650908e+02
     vertex -3.710421e+02  2.942000e+02 -2.649525e+02
     vertex -3.700390e+02  2.942000e+02 -2.650908e+02
   endloop
 endfacet
 facet normal -1.044780e-01 -1.226307e-13  9.945272e-01
   outer loop
     vertex -3.700390e+02  2.950000e+02 -2.650908e+02
     vertex -3.700390e+02  2.942000e+02 -2.650908e+02
     vertex -3.690321e+02  2.950000e+02 -2.649850e+02
   endloop
 endfacet
 facet normal  3.696691e-01  7.809050e-14  9.291635e-01
   outer loop
     vertex -3.710421e+02  2.950000e+02 -2.649525e+02
     vertex -3.719829e+02  2.942000e+02 -2.645782e+02
     vertex -3.710421e+02  2.942000e+02 -2.649525e+02
   endloop
 endfacet
 facet normal  1.365638e-01 -6.314961e-14  9.906313e-01
   outer loop
     vertex -3.710421e+02  2.950000e+02 -2.649525e+02
     vertex -3.710421e+02  2.942000e+02 -2.649525e+02
     vertex -3.700390e+02  2.950000e+02 -2.650908e+02
   endloop
 endfacet
 facet normal  3.696691e-01  1.838660e-13  9.291635e-01
   outer loop
     vertex -3.719829e+02  2.950000e+02 -2.645782e+02
     vertex -3.719829e+02  2.942000e+02 -2.645782e+02
     vertex -3.710421e+02  2.950000e+02 -2.649525e+02
   endloop
 endfacet
 facet normal  5.812906e-01  2.891223e-13  8.136960e-01
   outer loop
     vertex -3.719829e+02  2.950000e+02 -2.645782e+02
     vertex -3.728067e+02  2.942000e+02 -2.639896e+02
     vertex -3.719829e+02  2.942000e+02 -2.645782e+02
   endloop
 endfacet
 facet normal  5.812906e-01  3.717286e-13  8.136960e-01
   outer loop
     vertex -3.728067e+02  2.950000e+02 -2.639896e+02
     vertex -3.728067e+02  2.942000e+02 -2.639896e+02
     vertex -3.719829e+02  2.950000e+02 -2.645782e+02
   endloop
 endfacet
 facet normal  7.591295e-01  4.854546e-13  6.509396e-01
   outer loop
     vertex -3.728067e+02  2.950000e+02 -2.639896e+02
     vertex -3.734658e+02  2.942000e+02 -2.632210e+02
     vertex -3.728067e+02  2.942000e+02 -2.639896e+02
   endloop
 endfacet
 facet normal  7.591295e-01  3.775758e-13  6.509396e-01
   outer loop
     vertex -3.734658e+02  2.950000e+02 -2.632210e+02
     vertex -3.734658e+02  2.942000e+02 -2.632210e+02
     vertex -3.728067e+02  2.950000e+02 -2.639896e+02
   endloop
 endfacet
 facet normal  8.928507e-01  4.440860e-13  4.503529e-01
   outer loop
     vertex -3.734658e+02  2.950000e+02 -2.632210e+02
     vertex -3.739218e+02  2.942000e+02 -2.623170e+02
     vertex -3.734658e+02  2.942000e+02 -2.632210e+02
   endloop
 endfacet
 facet normal  8.928507e-01  2.846466e-13  4.503529e-01
   outer loop
     vertex -3.739218e+02  2.950000e+02 -2.623170e+02
     vertex -3.739218e+02  2.942000e+02 -2.623170e+02
     vertex -3.734658e+02  2.950000e+02 -2.632210e+02
   endloop
 endfacet
 facet normal  9.746825e-01  3.678701e-13  2.235933e-01
   outer loop
     vertex -3.741482e+02  2.950000e+02 -2.613301e+02
     vertex -3.739218e+02  2.942000e+02 -2.623170e+02
     vertex -3.739218e+02  2.950000e+02 -2.623170e+02
   endloop
 endfacet
 facet normal  9.746825e-01  3.303895e-13  2.235933e-01
   outer loop
     vertex -3.741482e+02  2.950000e+02 -2.613301e+02
     vertex -3.741482e+02  2.942000e+02 -2.613301e+02
     vertex -3.739218e+02  2.942000e+02 -2.623170e+02
   endloop
 endfacet
 facet normal  9.998694e-01  3.563733e-13 -1.616074e-02
   outer loop
     vertex -3.741482e+02  2.950000e+02 -2.613301e+02
     vertex -3.741318e+02  2.942000e+02 -2.603177e+02
     vertex -3.741482e+02  2.942000e+02 -2.613301e+02
   endloop
 endfacet
 facet normal  9.998694e-01  4.984632e-13 -1.616074e-02
   outer loop
     vertex -3.741318e+02  2.950000e+02 -2.603177e+02
     vertex -3.741318e+02  2.942000e+02 -2.603177e+02
     vertex -3.741482e+02  2.950000e+02 -2.613301e+02
   endloop
 endfacet
 facet normal  9.669475e-01  4.990574e-13 -2.549755e-01
   outer loop
     vertex -3.741318e+02  2.950000e+02 -2.603177e+02
     vertex -3.738737e+02  2.942000e+02 -2.593387e+02
     vertex -3.741318e+02  2.942000e+02 -2.603177e+02
   endloop
 endfacet
 facet normal  9.669475e-01  4.809403e-13 -2.549755e-01
   outer loop
     vertex -3.738737e+02  2.950000e+02 -2.593387e+02
     vertex -3.738737e+02  2.942000e+02 -2.593387e+02
     vertex -3.741318e+02  2.950000e+02 -2.603177e+02
   endloop
 endfacet
 facet normal  8.778301e-01  4.366151e-13 -4.789721e-01
   outer loop
     vertex -3.738737e+02  2.950000e+02 -2.593387e+02
     vertex -3.733887e+02  2.942000e+02 -2.584499e+02
     vertex -3.738737e+02  2.942000e+02 -2.593387e+02
   endloop
 endfacet
 facet normal  8.778301e-01  3.742415e-13 -4.789721e-01
   outer loop
     vertex -3.733887e+02  2.950000e+02 -2.584499e+02
     vertex -3.733887e+02  2.942000e+02 -2.584499e+02
     vertex -3.738737e+02  2.950000e+02 -2.593387e+02
   endloop
 endfacet
 facet normal  7.376964e-01  3.144989e-13 -6.751325e-01
   outer loop
     vertex -3.733887e+02  2.950000e+02 -2.584499e+02
     vertex -3.727051e+02  2.942000e+02 -2.577030e+02
     vertex -3.733887e+02  2.942000e+02 -2.584499e+02
   endloop
 endfacet
 facet normal  7.376964e-01  3.669154e-13 -6.751325e-01
   outer loop
     vertex -3.727051e+02  2.950000e+02 -2.577030e+02
     vertex -3.727051e+02  2.942000e+02 -2.577030e+02
     vertex -3.733887e+02  2.950000e+02 -2.584499e+02
   endloop
 endfacet
 facet normal  5.546905e-01  2.758919e-13 -8.320567e-01
   outer loop
     vertex -3.727051e+02  2.950000e+02 -2.577030e+02
     vertex -3.718627e+02  2.942000e+02 -2.571413e+02
     vertex -3.727051e+02  2.942000e+02 -2.577030e+02
   endloop
 endfacet
 facet normal  5.546905e-01  2.758919e-13 -8.320567e-01
   outer loop
     vertex -3.718627e+02  2.950000e+02 -2.571413e+02
     vertex -3.718627e+02  2.942000e+02 -2.571413e+02
     vertex -3.727051e+02  2.950000e+02 -2.577030e+02
   endloop
 endfacet
 facet normal  3.394480e-01  1.688346e-13 -9.406248e-01
   outer loop
     vertex -3.718627e+02  2.950000e+02 -2.571413e+02
     vertex -3.709103e+02  2.942000e+02 -2.567976e+02
     vertex -3.718627e+02  2.942000e+02 -2.571413e+02
   endloop
 endfacet
 facet normal  3.394480e-01  1.688346e-13 -9.406248e-01
   outer loop
     vertex -3.709103e+02  2.950000e+02 -2.567976e+02
     vertex -3.709103e+02  2.942000e+02 -2.567976e+02
     vertex -3.718627e+02  2.950000e+02 -2.571413e+02
   endloop
 endfacet
 facet normal  1.044780e-01  5.195757e-14 -9.945272e-01
   outer loop
     vertex -3.699033e+02  2.950000e+02 -2.566918e+02
     vertex -3.709103e+02  2.942000e+02 -2.567976e+02
     vertex -3.709103e+02  2.950000e+02 -2.567976e+02
   endloop
 endfacet
 facet normal  1.044780e-01  5.196528e-14 -9.945272e-01
   outer loop
     vertex -3.699033e+02  2.950000e+02 -2.566918e+02
     vertex -3.699033e+02  2.942000e+02 -2.566918e+02
     vertex -3.709103e+02  2.942000e+02 -2.567976e+02
   endloop
 endfacet
 facet normal -1.365638e-01 -6.792411e-14 -9.906313e-01
   outer loop
     vertex -3.699033e+02  2.950000e+02 -2.566918e+02
     vertex -3.689003e+02  2.942000e+02 -2.568301e+02
     vertex -3.699033e+02  2.942000e+02 -2.566918e+02
   endloop
 endfacet
 facet normal -1.365638e-01 -3.881378e-14 -9.906313e-01
   outer loop
     vertex -3.689003e+02  2.950000e+02 -2.568301e+02
     vertex -3.689003e+02  2.942000e+02 -2.568301e+02
     vertex -3.699033e+02  2.950000e+02 -2.566918e+02
   endloop
 endfacet
 facet normal -3.696691e-01 -1.050663e-13 -9.291635e-01
   outer loop
     vertex -3.689003e+02  2.950000e+02 -2.568301e+02
     vertex -3.679595e+02  2.942000e+02 -2.572044e+02
     vertex -3.689003e+02  2.942000e+02 -2.568301e+02
   endloop
 endfacet
 facet normal -3.696691e-01 -1.838660e-13 -9.291635e-01
   outer loop
     vertex -3.679595e+02  2.950000e+02 -2.572044e+02
     vertex -3.679595e+02  2.942000e+02 -2.572044e+02
     vertex -3.689003e+02  2.950000e+02 -2.568301e+02
   endloop
 endfacet
 facet normal -5.812906e-01 -2.313057e-13 -8.136960e-01
   outer loop
     vertex -3.671356e+02  2.950000e+02 -2.577930e+02
     vertex -3.671356e+02  2.942000e+02 -2.577930e+02
     vertex -3.679595e+02  2.942000e+02 -2.572044e+02
   endloop
 endfacet
 facet normal -7.591295e-01 -3.313238e-13 -6.509396e-01
   outer loop
     vertex -3.671356e+02  2.950000e+02 -2.577930e+02
     vertex -3.664765e+02  2.942000e+02 -2.585616e+02
     vertex -3.671356e+02  2.942000e+02 -2.577930e+02
   endloop
 endfacet
 facet normal -5.812906e-01 -2.891317e-13 -8.136960e-01
   outer loop
     vertex -3.671356e+02  2.950000e+02 -2.577930e+02
     vertex -3.679595e+02  2.942000e+02 -2.572044e+02
     vertex -3.679595e+02  2.950000e+02 -2.572044e+02
   endloop
 endfacet
 facet normal -7.591295e-01 -3.313238e-13 -6.509396e-01
   outer loop
     vertex -3.664765e+02  2.950000e+02 -2.585616e+02
     vertex -3.664765e+02  2.942000e+02 -2.585616e+02
     vertex -3.671356e+02  2.950000e+02 -2.577930e+02
   endloop
 endfacet
 facet normal  8.928507e-01  4.120897e-13  4.503529e-01
   outer loop
     vertex -3.638571e+02  2.950000e+02 -2.586849e+02
     vertex -3.645628e+02  2.950000e+02 -2.572858e+02
     vertex -3.645628e+02  2.942000e+02 -2.572858e+02
   endloop
 endfacet
 facet normal  8.928507e-01  4.440860e-13  4.503529e-01
   outer loop
     vertex -3.638571e+02  2.950000e+02 -2.586849e+02
     vertex -3.645628e+02  2.942000e+02 -2.572858e+02
     vertex -3.638571e+02  2.942000e+02 -2.586849e+02
   endloop
 endfacet
 facet normal  9.746825e-01  4.847875e-13  2.235933e-01
   outer loop
     vertex -3.635067e+02  2.950000e+02 -2.602122e+02
     vertex -3.638571e+02  2.942000e+02 -2.586849e+02
     vertex -3.635067e+02  2.942000e+02 -2.602122e+02
   endloop
 endfacet
 facet normal  9.746825e-01  4.848265e-13  2.235933e-01
   outer loop
     vertex -3.635067e+02  2.950000e+02 -2.602122e+02
     vertex -3.638571e+02  2.950000e+02 -2.586849e+02
     vertex -3.638571e+02  2.942000e+02 -2.586849e+02
   endloop
 endfacet
 facet normal  9.998694e-01  4.984632e-13 -1.616074e-02
   outer loop
     vertex -3.635321e+02  2.950000e+02 -2.617790e+02
     vertex -3.635067e+02  2.942000e+02 -2.602122e+02
     vertex -3.635321e+02  2.942000e+02 -2.617790e+02
   endloop
 endfacet
 facet normal  9.998694e-01  4.973177e-13 -1.616074e-02
   outer loop
     vertex -3.635321e+02  2.950000e+02 -2.617790e+02
     vertex -3.635067e+02  2.950000e+02 -2.602122e+02
     vertex -3.635067e+02  2.942000e+02 -2.602122e+02
   endloop
 endfacet
 facet normal  9.669475e-01  4.809403e-13 -2.549755e-01
   outer loop
     vertex -3.639316e+02  2.950000e+02 -2.632941e+02
     vertex -3.635321e+02  2.942000e+02 -2.617790e+02
     vertex -3.639316e+02  2.942000e+02 -2.632941e+02
   endloop
 endfacet
 facet normal  9.669475e-01  4.990641e-13 -2.549755e-01
   outer loop
     vertex -3.639316e+02  2.950000e+02 -2.632941e+02
     vertex -3.635321e+02  2.950000e+02 -2.617790e+02
     vertex -3.635321e+02  2.942000e+02 -2.617790e+02
   endloop
 endfacet
 facet normal  8.778301e-01  4.082745e-13 -4.789721e-01
   outer loop
     vertex -3.646821e+02  2.950000e+02 -2.646697e+02
     vertex -3.639316e+02  2.942000e+02 -2.632941e+02
     vertex -3.646821e+02  2.942000e+02 -2.646697e+02
   endloop
 endfacet
 facet normal  8.778301e-01  4.365966e-13 -4.789721e-01
   outer loop
     vertex -3.646821e+02  2.950000e+02 -2.646697e+02
     vertex -3.639316e+02  2.950000e+02 -2.632941e+02
     vertex -3.639316e+02  2.942000e+02 -2.632941e+02
   endloop
 endfacet
 facet normal  7.376964e-01  3.669154e-13 -6.751325e-01
   outer loop
     vertex -3.657401e+02  2.950000e+02 -2.658256e+02
     vertex -3.646821e+02  2.942000e+02 -2.646697e+02
     vertex -3.657401e+02  2.942000e+02 -2.658256e+02
   endloop
 endfacet
 facet normal  7.376964e-01  3.625421e-13 -6.751325e-01
   outer loop
     vertex -3.657401e+02  2.950000e+02 -2.658256e+02
     vertex -3.646821e+02  2.950000e+02 -2.646697e+02
     vertex -3.646821e+02  2.942000e+02 -2.646697e+02
   endloop
 endfacet
 facet normal  5.546905e-01  2.758919e-13 -8.320567e-01
   outer loop
     vertex -3.670439e+02  2.950000e+02 -2.666948e+02
     vertex -3.657401e+02  2.942000e+02 -2.658256e+02
     vertex -3.670439e+02  2.942000e+02 -2.666948e+02
   endloop
 endfacet
 facet normal  5.546905e-01  2.758232e-13 -8.320567e-01
   outer loop
     vertex -3.670439e+02  2.950000e+02 -2.666948e+02
     vertex -3.657401e+02  2.950000e+02 -2.658256e+02
     vertex -3.657401e+02  2.942000e+02 -2.658256e+02
   endloop
 endfacet
 facet normal  3.394480e-01  1.688346e-13 -9.406248e-01
   outer loop
     vertex -3.685178e+02  2.950000e+02 -2.672267e+02
     vertex -3.670439e+02  2.942000e+02 -2.666948e+02
     vertex -3.685178e+02  2.942000e+02 -2.672267e+02
   endloop
 endfacet
 facet normal  3.394480e-01  1.688292e-13 -9.406248e-01
   outer loop
     vertex -3.685178e+02  2.950000e+02 -2.672267e+02
     vertex -3.670439e+02  2.950000e+02 -2.666948e+02
     vertex -3.670439e+02  2.942000e+02 -2.666948e+02
   endloop
 endfacet
 facet normal  1.044780e-01  5.196528e-14 -9.945272e-01
   outer loop
     vertex -3.700762e+02  2.950000e+02 -2.673905e+02
     vertex -3.685178e+02  2.942000e+02 -2.672267e+02
     vertex -3.700762e+02  2.942000e+02 -2.673905e+02
   endloop
 endfacet
 facet normal  1.044780e-01  5.198214e-14 -9.945272e-01
   outer loop
     vertex -3.700762e+02  2.950000e+02 -2.673905e+02
     vertex -3.685178e+02  2.950000e+02 -2.672267e+02
     vertex -3.685178e+02  2.942000e+02 -2.672267e+02
   endloop
 endfacet
 facet normal -1.365638e-01  2.464472e-15 -9.906313e-01
   outer loop
     vertex -3.716285e+02  2.950000e+02 -2.671765e+02
     vertex -3.700762e+02  2.942000e+02 -2.673905e+02
     vertex -3.716285e+02  2.942000e+02 -2.671765e+02
   endloop
 endfacet
 facet normal -1.365638e-01 -6.791383e-14 -9.906313e-01
   outer loop
     vertex -3.716285e+02  2.950000e+02 -2.671765e+02
     vertex -3.700762e+02  2.950000e+02 -2.673905e+02
     vertex -3.700762e+02  2.942000e+02 -2.673905e+02
   endloop
 endfacet
 facet normal -3.696691e-01 -1.178513e-13 -9.291635e-01
   outer loop
     vertex -3.730845e+02  2.950000e+02 -2.665972e+02
     vertex -3.716285e+02  2.950000e+02 -2.671765e+02
     vertex -3.716285e+02  2.942000e+02 -2.671765e+02
   endloop
 endfacet
 facet normal -3.696691e-01 -1.838660e-13 -9.291635e-01
   outer loop
     vertex -3.730845e+02  2.950000e+02 -2.665972e+02
     vertex -3.716285e+02  2.942000e+02 -2.671765e+02
     vertex -3.730845e+02  2.942000e+02 -2.665972e+02
   endloop
 endfacet
 facet normal -5.812906e-01 -2.890857e-13 -8.136960e-01
   outer loop
     vertex -3.743595e+02  2.950000e+02 -2.656863e+02
     vertex -3.730845e+02  2.950000e+02 -2.665972e+02
     vertex -3.730845e+02  2.942000e+02 -2.665972e+02
   endloop
 endfacet
 facet normal -5.812906e-01 -2.891223e-13 -8.136960e-01
   outer loop
     vertex -3.743595e+02  2.950000e+02 -2.656863e+02
     vertex -3.730845e+02  2.942000e+02 -2.665972e+02
     vertex -3.743595e+02  2.942000e+02 -2.656863e+02
   endloop
 endfacet
 facet normal -7.591295e-01 -3.775477e-13 -6.509396e-01
   outer loop
     vertex -3.753795e+02  2.950000e+02 -2.644968e+02
     vertex -3.743595e+02  2.950000e+02 -2.656863e+02
     vertex -3.743595e+02  2.942000e+02 -2.656863e+02
   endloop
 endfacet
 facet normal -7.591295e-01 -3.313238e-13 -6.509396e-01
   outer loop
     vertex -3.753795e+02  2.950000e+02 -2.644968e+02
     vertex -3.743595e+02  2.942000e+02 -2.656863e+02
     vertex -3.753795e+02  2.942000e+02 -2.644968e+02
   endloop
 endfacet
 facet normal -8.928507e-01 -4.120532e-13 -4.503529e-01
   outer loop
     vertex -3.760852e+02  2.950000e+02 -2.630977e+02
     vertex -3.753795e+02  2.950000e+02 -2.644968e+02
     vertex -3.753795e+02  2.942000e+02 -2.644968e+02
   endloop
 endfacet
 facet normal -8.928507e-01 -4.126446e-13 -4.503529e-01
   outer loop
     vertex -3.760852e+02  2.950000e+02 -2.630977e+02
     vertex -3.753795e+02  2.942000e+02 -2.644968e+02
     vertex -3.760852e+02  2.942000e+02 -2.630977e+02
   endloop
 endfacet
 facet normal -9.746825e-01 -4.314311e-13 -2.235933e-01
   outer loop
     vertex -3.764356e+02  2.950000e+02 -2.615704e+02
     vertex -3.760852e+02  2.950000e+02 -2.630977e+02
     vertex -3.760852e+02  2.942000e+02 -2.630977e+02
   endloop
 endfacet
 facet normal -9.746825e-01 -4.847875e-13 -2.235933e-01
   outer loop
     vertex -3.764356e+02  2.950000e+02 -2.615704e+02
     vertex -3.760852e+02  2.942000e+02 -2.630977e+02
     vertex -3.764356e+02  2.942000e+02 -2.615704e+02
   endloop
 endfacet
 facet normal -9.998694e-01 -4.973153e-13  1.616074e-02
   outer loop
     vertex -3.764103e+02  2.950000e+02 -2.600036e+02
     vertex -3.764356e+02  2.950000e+02 -2.615704e+02
     vertex -3.764356e+02  2.942000e+02 -2.615704e+02
   endloop
 endfacet
 facet normal -9.998694e-01 -4.274183e-13  1.616074e-02
   outer loop
     vertex -3.764103e+02  2.950000e+02 -2.600036e+02
     vertex -3.764356e+02  2.942000e+02 -2.615704e+02
     vertex -3.764103e+02  2.942000e+02 -2.600036e+02
   endloop
 endfacet
 facet normal -9.669475e-01 -4.303649e-13  2.549755e-01
   outer loop
     vertex -3.760107e+02  2.950000e+02 -2.584885e+02
     vertex -3.764103e+02  2.950000e+02 -2.600036e+02
     vertex -3.764103e+02  2.942000e+02 -2.600036e+02
   endloop
 endfacet
 facet normal -9.669475e-01 -4.809403e-13  2.549755e-01
   outer loop
     vertex -3.760107e+02  2.950000e+02 -2.584885e+02
     vertex -3.764103e+02  2.942000e+02 -2.600036e+02
     vertex -3.760107e+02  2.942000e+02 -2.584885e+02
   endloop
 endfacet
 facet normal -8.778301e-01 -4.366092e-13  4.789721e-01
   outer loop
     vertex -3.752602e+02  2.950000e+02 -2.571129e+02
     vertex -3.760107e+02  2.950000e+02 -2.584885e+02
     vertex -3.760107e+02  2.942000e+02 -2.584885e+02
   endloop
 endfacet
 facet normal -7.376964e-01 -4.148864e-13  6.751325e-01
   outer loop
     vertex -3.752602e+02  2.950000e+02 -2.571129e+02
     vertex -3.752602e+02  2.942000e+02 -2.571129e+02
     vertex -3.742023e+02  2.942000e+02 -2.559570e+02
   endloop
 endfacet
 facet normal -8.778301e-01 -4.706481e-13  4.789721e-01
   outer loop
     vertex -3.752602e+02  2.950000e+02 -2.571129e+02
     vertex -3.760107e+02  2.942000e+02 -2.584885e+02
     vertex -3.752602e+02  2.942000e+02 -2.571129e+02
   endloop
 endfacet
 facet normal -7.376964e-01 -2.905134e-13  6.751325e-01
   outer loop
     vertex -3.742023e+02  2.950000e+02 -2.559570e+02
     vertex -3.752602e+02  2.950000e+02 -2.571129e+02
     vertex -3.742023e+02  2.942000e+02 -2.559570e+02
   endloop
 endfacet
 facet normal -3.394480e-01 -2.022523e-13  9.406248e-01
   outer loop
     vertex -3.728985e+02  2.950000e+02 -2.550878e+02
     vertex -3.728985e+02  2.942000e+02 -2.550878e+02
     vertex -3.714245e+02  2.942000e+02 -2.545559e+02
   endloop
 endfacet
 facet normal -5.546905e-01 -3.054525e-13  8.320567e-01
   outer loop
     vertex -3.728985e+02  2.950000e+02 -2.550878e+02
     vertex -3.742023e+02  2.942000e+02 -2.559570e+02
     vertex -3.728985e+02  2.942000e+02 -2.550878e+02
   endloop
 endfacet
 facet normal -5.546905e-01 -2.069713e-13  8.320567e-01
   outer loop
     vertex -3.728985e+02  2.950000e+02 -2.550878e+02
     vertex -3.742023e+02  2.950000e+02 -2.559570e+02
     vertex -3.742023e+02  2.942000e+02 -2.559570e+02
   endloop
 endfacet
 facet normal -3.394480e-01 -2.022523e-13  9.406248e-01
   outer loop
     vertex -3.714245e+02  2.950000e+02 -2.545559e+02
     vertex -3.728985e+02  2.950000e+02 -2.550878e+02
     vertex -3.714245e+02  2.942000e+02 -2.545559e+02
   endloop
 endfacet
 facet normal -1.044780e-01 -5.196528e-14  9.945272e-01
   outer loop
     vertex -3.698661e+02  2.950000e+02 -2.543921e+02
     vertex -3.714245e+02  2.942000e+02 -2.545559e+02
     vertex -3.698661e+02  2.942000e+02 -2.543921e+02
   endloop
 endfacet
 facet normal -1.044780e-01 -8.728985e-14  9.945272e-01
   outer loop
     vertex -3.698661e+02  2.950000e+02 -2.543921e+02
     vertex -3.714245e+02  2.950000e+02 -2.545559e+02
     vertex -3.714245e+02  2.942000e+02 -2.545559e+02
   endloop
 endfacet
 facet normal  3.696691e-01  1.838660e-13  9.291635e-01
   outer loop
     vertex -3.683138e+02  2.950000e+02 -2.546061e+02
     vertex -3.683138e+02  2.942000e+02 -2.546061e+02
     vertex -3.668579e+02  2.942000e+02 -2.551854e+02
   endloop
 endfacet
 facet normal  1.365638e-01  6.792411e-14  9.906313e-01
   outer loop
     vertex -3.683138e+02  2.950000e+02 -2.546061e+02
     vertex -3.698661e+02  2.942000e+02 -2.543921e+02
     vertex -3.683138e+02  2.942000e+02 -2.546061e+02
   endloop
 endfacet
 facet normal  1.365638e-01  6.790431e-14  9.906313e-01
   outer loop
     vertex -3.683138e+02  2.950000e+02 -2.546061e+02
     vertex -3.698661e+02  2.950000e+02 -2.543921e+02
     vertex -3.698661e+02  2.942000e+02 -2.543921e+02
   endloop
 endfacet
 facet normal  3.696691e-01  1.838660e-13  9.291635e-01
   outer loop
     vertex -3.668579e+02  2.950000e+02 -2.551854e+02
     vertex -3.683138e+02  2.950000e+02 -2.546061e+02
     vertex -3.668579e+02  2.942000e+02 -2.551854e+02
   endloop
 endfacet
 facet normal  5.812906e-01  2.891223e-13  8.136960e-01
   outer loop
     vertex -3.655828e+02  2.950000e+02 -2.560963e+02
     vertex -3.668579e+02  2.942000e+02 -2.551854e+02
     vertex -3.655828e+02  2.942000e+02 -2.560963e+02
   endloop
 endfacet
 facet normal  5.812906e-01  2.891589e-13  8.136960e-01
   outer loop
     vertex -3.655828e+02  2.950000e+02 -2.560963e+02
     vertex -3.668579e+02  2.950000e+02 -2.551854e+02
     vertex -3.668579e+02  2.942000e+02 -2.551854e+02
   endloop
 endfacet
 facet normal  7.591295e-01  3.313238e-13  6.509396e-01
   outer loop
     vertex -3.645628e+02  2.950000e+02 -2.572858e+02
     vertex -3.655828e+02  2.942000e+02 -2.560963e+02
     vertex -3.645628e+02  2.942000e+02 -2.572858e+02
   endloop
 endfacet
 facet normal  7.591295e-01  3.775191e-13  6.509396e-01
   outer loop
     vertex -3.645628e+02  2.950000e+02 -2.572858e+02
     vertex -3.655828e+02  2.950000e+02 -2.560963e+02
     vertex -3.655828e+02  2.942000e+02 -2.560963e+02
   endloop
 endfacet
 facet normal -4.978560e-13  1.000000e+00  8.046770e-15
   outer loop
     vertex -3.741318e+02  2.950000e+02 -2.603177e+02
     vertex -3.764356e+02  2.950000e+02 -2.615704e+02
     vertex -3.764103e+02  2.950000e+02 -2.600036e+02
   endloop
 endfacet
 facet normal -4.979160e-13  1.000000e+00  1.874853e-14
   outer loop
     vertex -3.738737e+02  2.950000e+02 -2.593387e+02
     vertex -3.764103e+02  2.950000e+02 -2.600036e+02
     vertex -3.760107e+02  2.950000e+02 -2.584885e+02
   endloop
 endfacet
 facet normal -4.969098e-13  1.000000e+00  1.491027e-14
   outer loop
     vertex -3.738737e+02  2.950000e+02 -2.593387e+02
     vertex -3.741318e+02  2.950000e+02 -2.603177e+02
     vertex -3.764103e+02  2.950000e+02 -2.600036e+02
   endloop
 endfacet
 facet normal -5.005864e-13  1.000000e+00  3.403740e-14
   outer loop
     vertex -3.741482e+02  2.950000e+02 -2.613301e+02
     vertex -3.760852e+02  2.950000e+02 -2.630977e+02
     vertex -3.764356e+02  2.950000e+02 -2.615704e+02
   endloop
 endfacet
 facet normal -4.978560e-13  1.000000e+00  8.046770e-15
   outer loop
     vertex -3.741482e+02  2.950000e+02 -2.613301e+02
     vertex -3.764356e+02  2.950000e+02 -2.615704e+02
     vertex -3.741318e+02  2.950000e+02 -2.603177e+02
   endloop
 endfacet
 facet normal -4.777350e-13  1.000000e+00  5.404516e-14
   outer loop
     vertex -3.733887e+02  2.950000e+02 -2.584499e+02
     vertex -3.760107e+02  2.950000e+02 -2.584885e+02
     vertex -3.752602e+02  2.950000e+02 -2.571129e+02
   endloop
 endfacet
 facet normal -4.779538e-13  1.000000e+00  6.892332e-14
   outer loop
     vertex -3.733887e+02  2.950000e+02 -2.584499e+02
     vertex -3.738737e+02  2.950000e+02 -2.593387e+02
     vertex -3.760107e+02  2.950000e+02 -2.584885e+02
   endloop
 endfacet
 facet normal -5.186401e-13  1.000000e+00  5.382178e-14
   outer loop
     vertex -3.739218e+02  2.950000e+02 -2.623170e+02
     vertex -3.760852e+02  2.950000e+02 -2.630977e+02
     vertex -3.741482e+02  2.950000e+02 -2.613301e+02
   endloop
 endfacet
 facet normal -5.067831e-13  1.000000e+00  2.123249e-14
   outer loop
     vertex -3.727051e+02  2.950000e+02 -2.577030e+02
     vertex -3.752602e+02  2.950000e+02 -2.571129e+02
     vertex -3.742023e+02  2.950000e+02 -2.559570e+02
   endloop
 endfacet
 facet normal -5.094616e-13  1.000000e+00  9.633935e-15
   outer loop
     vertex -3.727051e+02  2.950000e+02 -2.577030e+02
     vertex -3.733887e+02  2.950000e+02 -2.584499e+02
     vertex -3.752602e+02  2.950000e+02 -2.571129e+02
   endloop
 endfacet
 facet normal -4.975429e-13  1.000000e+00  3.344467e-14
   outer loop
     vertex -3.734658e+02  2.950000e+02 -2.632210e+02
     vertex -3.753795e+02  2.950000e+02 -2.644968e+02
     vertex -3.760852e+02  2.950000e+02 -2.630977e+02
   endloop
 endfacet
 facet normal -4.991286e-13  1.000000e+00 -2.454996e-16
   outer loop
     vertex -3.734658e+02  2.950000e+02 -2.632210e+02
     vertex -3.760852e+02  2.950000e+02 -2.630977e+02
     vertex -3.739218e+02  2.950000e+02 -2.623170e+02
   endloop
 endfacet
 facet normal -4.969909e-13  1.000000e+00  2.612311e-14
   outer loop
     vertex -3.718627e+02  2.950000e+02 -2.571413e+02
     vertex -3.742023e+02  2.950000e+02 -2.559570e+02
     vertex -3.728985e+02  2.950000e+02 -2.550878e+02
   endloop
 endfacet
 facet normal -4.938547e-13  1.000000e+00  3.231842e-14
   outer loop
     vertex -3.718627e+02  2.950000e+02 -2.571413e+02
     vertex -3.727051e+02  2.950000e+02 -2.577030e+02
     vertex -3.742023e+02  2.950000e+02 -2.559570e+02
   endloop
 endfacet
 facet normal -4.883053e-13  1.000000e+00  1.136226e-14
   outer loop
     vertex -3.728067e+02  2.950000e+02 -2.639896e+02
     vertex -3.743595e+02  2.950000e+02 -2.656863e+02
     vertex -3.753795e+02  2.950000e+02 -2.644968e+02
   endloop
 endfacet
 facet normal -4.906075e-13  1.000000e+00  2.304132e-14
   outer loop
     vertex -3.728067e+02  2.950000e+02 -2.639896e+02
     vertex -3.753795e+02  2.950000e+02 -2.644968e+02
     vertex -3.734658e+02  2.950000e+02 -2.632210e+02
   endloop
 endfacet
 facet normal -4.781110e-13  1.000000e+00  4.245974e-14
   outer loop
     vertex -3.709103e+02  2.950000e+02 -2.567976e+02
     vertex -3.728985e+02  2.950000e+02 -2.550878e+02
     vertex -3.714245e+02  2.950000e+02 -2.545559e+02
   endloop
 endfacet
 facet normal -4.884601e-13  1.000000e+00  3.042605e-14
   outer loop
     vertex -3.709103e+02  2.950000e+02 -2.567976e+02
     vertex -3.718627e+02  2.950000e+02 -2.571413e+02
     vertex -3.728985e+02  2.950000e+02 -2.550878e+02
   endloop
 endfacet
 facet normal -5.007097e-13  1.000000e+00  4.797028e-14
   outer loop
     vertex -3.719829e+02  2.950000e+02 -2.645782e+02
     vertex -3.730845e+02  2.950000e+02 -2.665972e+02
     vertex -3.743595e+02  2.950000e+02 -2.656863e+02
   endloop
 endfacet
 facet normal -4.801693e-13  1.000000e+00  3.916306e-15
   outer loop
     vertex -3.719829e+02  2.950000e+02 -2.645782e+02
     vertex -3.743595e+02  2.950000e+02 -2.656863e+02
     vertex -3.728067e+02  2.950000e+02 -2.639896e+02
   endloop
 endfacet
 facet normal -5.142463e-13  1.000000e+00  3.417026e-14
   outer loop
     vertex -3.698661e+02  2.950000e+02 -2.543921e+02
     vertex -3.709103e+02  2.950000e+02 -2.567976e+02
     vertex -3.714245e+02  2.950000e+02 -2.545559e+02
   endloop
 endfacet
 facet normal -5.115165e-13  1.000000e+00  3.298532e-14
   outer loop
     vertex -3.699033e+02  2.950000e+02 -2.566918e+02
     vertex -3.709103e+02  2.950000e+02 -2.567976e+02
     vertex -3.698661e+02  2.950000e+02 -2.543921e+02
   endloop
 endfacet
 facet normal -4.961613e-13  1.000000e+00  2.859606e-14
   outer loop
     vertex -3.710421e+02  2.950000e+02 -2.649525e+02
     vertex -3.716285e+02  2.950000e+02 -2.671765e+02
     vertex -3.730845e+02  2.950000e+02 -2.665972e+02
   endloop
 endfacet
 facet normal -5.204260e-13  1.000000e+00  5.872810e-14
   outer loop
     vertex -3.710421e+02  2.950000e+02 -2.649525e+02
     vertex -3.730845e+02  2.950000e+02 -2.665972e+02
     vertex -3.719829e+02  2.950000e+02 -2.645782e+02
   endloop
 endfacet
 facet normal -4.510740e-13  1.000000e+00  1.670693e-14
   outer loop
     vertex -3.683138e+02  2.950000e+02 -2.546061e+02
     vertex -3.689003e+02  2.950000e+02 -2.568301e+02
     vertex -3.699033e+02  2.950000e+02 -2.566918e+02
   endloop
 endfacet
 facet normal -4.715878e-13  1.000000e+00  3.233996e-14
   outer loop
     vertex -3.683138e+02  2.950000e+02 -2.546061e+02
     vertex -3.699033e+02  2.950000e+02 -2.566918e+02
     vertex -3.698661e+02  2.950000e+02 -2.543921e+02
   endloop
 endfacet
 facet normal -4.510740e-13  1.000000e+00  1.670693e-14
   outer loop
     vertex -3.700390e+02  2.950000e+02 -2.650908e+02
     vertex -3.716285e+02  2.950000e+02 -2.671765e+02
     vertex -3.710421e+02  2.950000e+02 -2.649525e+02
   endloop
 endfacet
 facet normal -4.715878e-13  1.000000e+00  3.233996e-14
   outer loop
     vertex -3.700762e+02  2.950000e+02 -2.673905e+02
     vertex -3.716285e+02  2.950000e+02 -2.671765e+02
     vertex -3.700390e+02  2.950000e+02 -2.650908e+02
   endloop
 endfacet
 facet normal -4.961613e-13  1.000000e+00  2.859606e-14
   outer loop
     vertex -3.668579e+02  2.950000e+02 -2.551854e+02
     vertex -3.689003e+02  2.950000e+02 -2.568301e+02
     vertex -3.683138e+02  2.950000e+02 -2.546061e+02
   endloop
 endfacet
 facet normal -5.204260e-13  1.000000e+00  5.872810e-14
   outer loop
     vertex -3.668579e+02  2.950000e+02 -2.551854e+02
     vertex -3.679595e+02  2.950000e+02 -2.572044e+02
     vertex -3.689003e+02  2.950000e+02 -2.568301e+02
   endloop
 endfacet
 facet normal -5.117022e-13  1.000000e+00  3.475388e-14
   outer loop
     vertex -3.685178e+02  2.950000e+02 -2.672267e+02
     vertex -3.700390e+02  2.950000e+02 -2.650908e+02
     vertex -3.690321e+02  2.950000e+02 -2.649850e+02
   endloop
 endfacet
 facet normal -5.141263e-13  1.000000e+00  3.302750e-14
   outer loop
     vertex -3.685178e+02  2.950000e+02 -2.672267e+02
     vertex -3.700762e+02  2.950000e+02 -2.673905e+02
     vertex -3.700390e+02  2.950000e+02 -2.650908e+02
   endloop
 endfacet
 facet normal -5.007097e-13  1.000000e+00  4.797028e-14
   outer loop
     vertex -3.655828e+02  2.950000e+02 -2.560963e+02
     vertex -3.679595e+02  2.950000e+02 -2.572044e+02
     vertex -3.668579e+02  2.950000e+02 -2.551854e+02
   endloop
 endfacet
 facet normal -4.801693e-13  1.000000e+00  3.916306e-15
   outer loop
     vertex -3.655828e+02  2.950000e+02 -2.560963e+02
     vertex -3.671356e+02  2.950000e+02 -2.577930e+02
     vertex -3.679595e+02  2.950000e+02 -2.572044e+02
   endloop
 endfacet
 facet normal -4.781110e-13  1.000000e+00  4.245974e-14
   outer loop
     vertex -3.670439e+02  2.950000e+02 -2.666948e+02
     vertex -3.685178e+02  2.950000e+02 -2.672267e+02
     vertex -3.690321e+02  2.950000e+02 -2.649850e+02
   endloop
 endfacet
 facet normal -4.884601e-13  1.000000e+00  3.042605e-14
   outer loop
     vertex -3.670439e+02  2.950000e+02 -2.666948e+02
     vertex -3.690321e+02  2.950000e+02 -2.649850e+02
     vertex -3.680797e+02  2.950000e+02 -2.646413e+02
   endloop
 endfacet
 facet normal -4.915531e-13  1.000000e+00  2.886593e-14
   outer loop
     vertex -3.670439e+02  2.950000e+02 -2.666948e+02
     vertex -3.680797e+02  2.950000e+02 -2.646413e+02
     vertex -3.672372e+02  2.950000e+02 -2.640796e+02
   endloop
 endfacet
 facet normal -4.906075e-13  1.000000e+00  2.304132e-14
   outer loop
     vertex -3.645628e+02  2.950000e+02 -2.572858e+02
     vertex -3.664765e+02  2.950000e+02 -2.585616e+02
     vertex -3.671356e+02  2.950000e+02 -2.577930e+02
   endloop
 endfacet
 facet normal -4.883053e-13  1.000000e+00  1.136226e-14
   outer loop
     vertex -3.645628e+02  2.950000e+02 -2.572858e+02
     vertex -3.671356e+02  2.950000e+02 -2.577930e+02
     vertex -3.655828e+02  2.950000e+02 -2.560963e+02
   endloop
 endfacet
 facet normal -4.984781e-13  1.000000e+00  2.835395e-14
   outer loop
     vertex -3.657401e+02  2.950000e+02 -2.658256e+02
     vertex -3.670439e+02  2.950000e+02 -2.666948e+02
     vertex -3.672372e+02  2.950000e+02 -2.640796e+02
   endloop
 endfacet
 facet normal -4.975429e-13  1.000000e+00  3.344467e-14
   outer loop
     vertex -3.638571e+02  2.950000e+02 -2.586849e+02
     vertex -3.664765e+02  2.950000e+02 -2.585616e+02
     vertex -3.645628e+02  2.950000e+02 -2.572858e+02
   endloop
 endfacet
 facet normal -5.186401e-13  1.000000e+00  5.382178e-14
   outer loop
     vertex -3.638571e+02  2.950000e+02 -2.586849e+02
     vertex -3.657942e+02  2.950000e+02 -2.604525e+02
     vertex -3.660205e+02  2.950000e+02 -2.594656e+02
   endloop
 endfacet
 facet normal -4.991286e-13  1.000000e+00 -2.454996e-16
   outer loop
     vertex -3.638571e+02  2.950000e+02 -2.586849e+02
     vertex -3.660205e+02  2.950000e+02 -2.594656e+02
     vertex -3.664765e+02  2.950000e+02 -2.585616e+02
   endloop
 endfacet
 facet normal -5.067831e-13  1.000000e+00  2.123249e-14
   outer loop
     vertex -3.646821e+02  2.950000e+02 -2.646697e+02
     vertex -3.657401e+02  2.950000e+02 -2.658256e+02
     vertex -3.672372e+02  2.950000e+02 -2.640796e+02
   endloop
 endfacet
 facet normal -5.094616e-13  1.000000e+00  9.633935e-15
   outer loop
     vertex -3.646821e+02  2.950000e+02 -2.646697e+02
     vertex -3.672372e+02  2.950000e+02 -2.640796e+02
     vertex -3.665536e+02  2.950000e+02 -2.633327e+02
   endloop
 endfacet
 facet normal -5.005864e-13  1.000000e+00  3.403740e-14
   outer loop
     vertex -3.635067e+02  2.950000e+02 -2.602122e+02
     vertex -3.657942e+02  2.950000e+02 -2.604525e+02
     vertex -3.638571e+02  2.950000e+02 -2.586849e+02
   endloop
 endfacet
 facet normal -4.779538e-13  1.000000e+00  6.892332e-14
   outer loop
     vertex -3.639316e+02  2.950000e+02 -2.632941e+02
     vertex -3.665536e+02  2.950000e+02 -2.633327e+02
     vertex -3.660687e+02  2.950000e+02 -2.624439e+02
   endloop
 endfacet
 facet normal -4.777350e-13  1.000000e+00  5.404516e-14
   outer loop
     vertex -3.639316e+02  2.950000e+02 -2.632941e+02
     vertex -3.646821e+02  2.950000e+02 -2.646697e+02
     vertex -3.665536e+02  2.950000e+02 -2.633327e+02
   endloop
 endfacet
 facet normal -4.969098e-13  1.000000e+00  1.491027e-14
   outer loop
     vertex -3.635321e+02  2.950000e+02 -2.617790e+02
     vertex -3.660687e+02  2.950000e+02 -2.624439e+02
     vertex -3.658105e+02  2.950000e+02 -2.614649e+02
   endloop
 endfacet
 facet normal -4.978560e-13  1.000000e+00  8.046770e-15
   outer loop
     vertex -3.635321e+02  2.950000e+02 -2.617790e+02
     vertex -3.658105e+02  2.950000e+02 -2.614649e+02
     vertex -3.657942e+02  2.950000e+02 -2.604525e+02
   endloop
 endfacet
 facet normal -4.979160e-13  1.000000e+00  1.874853e-14
   outer loop
     vertex -3.635321e+02  2.950000e+02 -2.617790e+02
     vertex -3.639316e+02  2.950000e+02 -2.632941e+02
     vertex -3.660687e+02  2.950000e+02 -2.624439e+02
   endloop
 endfacet
 facet normal -4.978560e-13  1.000000e+00  8.046770e-15
   outer loop
     vertex -3.635321e+02  2.950000e+02 -2.617790e+02
     vertex -3.657942e+02  2.950000e+02 -2.604525e+02
     vertex -3.635067e+02  2.950000e+02 -2.602122e+02
   endloop
 endfacet
 facet normal  4.978560e-13 -1.000000e+00 -8.046770e-15
   outer loop
     vertex -3.741318e+02  2.942000e+02 -2.603177e+02
     vertex -3.764103e+02  2.942000e+02 -2.600036e+02
     vertex -3.764356e+02  2.942000e+02 -2.615704e+02
   endloop
 endfacet
 facet normal  4.979160e-13 -1.000000e+00 -1.874853e-14
   outer loop
     vertex -3.738737e+02  2.942000e+02 -2.593387e+02
     vertex -3.760107e+02  2.942000e+02 -2.584885e+02
     vertex -3.764103e+02  2.942000e+02 -2.600036e+02
   endloop
 endfacet
 facet normal  4.969098e-13 -1.000000e+00 -1.491027e-14
   outer loop
     vertex -3.738737e+02  2.942000e+02 -2.593387e+02
     vertex -3.764103e+02  2.942000e+02 -2.600036e+02
     vertex -3.741318e+02  2.942000e+02 -2.603177e+02
   endloop
 endfacet
 facet normal  5.005864e-13 -1.000000e+00 -3.403740e-14
   outer loop
     vertex -3.741482e+02  2.942000e+02 -2.613301e+02
     vertex -3.764356e+02  2.942000e+02 -2.615704e+02
     vertex -3.760852e+02  2.942000e+02 -2.630977e+02
   endloop
 endfacet
 facet normal  4.978560e-13 -1.000000e+00 -8.046770e-15
   outer loop
     vertex -3.741482e+02  2.942000e+02 -2.613301e+02
     vertex -3.741318e+02  2.942000e+02 -2.603177e+02
     vertex -3.764356e+02  2.942000e+02 -2.615704e+02
   endloop
 endfacet
 facet normal  4.777350e-13 -1.000000e+00 -5.404516e-14
   outer loop
     vertex -3.733887e+02  2.942000e+02 -2.584499e+02
     vertex -3.752602e+02  2.942000e+02 -2.571129e+02
     vertex -3.760107e+02  2.942000e+02 -2.584885e+02
   endloop
 endfacet
 facet normal  4.779538e-13 -1.000000e+00 -6.892332e-14
   outer loop
     vertex -3.733887e+02  2.942000e+02 -2.584499e+02
     vertex -3.760107e+02  2.942000e+02 -2.584885e+02
     vertex -3.738737e+02  2.942000e+02 -2.593387e+02
   endloop
 endfacet
 facet normal  5.091701e-13 -1.000000e+00 -2.757992e-14
   outer loop
     vertex -3.739218e+02  2.942000e+02 -2.623170e+02
     vertex -3.760852e+02  2.942000e+02 -2.630977e+02
     vertex -3.753795e+02  2.942000e+02 -2.644968e+02
   endloop
 endfacet
 facet normal  5.186401e-13 -1.000000e+00 -5.382178e-14
   outer loop
     vertex -3.739218e+02  2.942000e+02 -2.623170e+02
     vertex -3.741482e+02  2.942000e+02 -2.613301e+02
     vertex -3.760852e+02  2.942000e+02 -2.630977e+02
   endloop
 endfacet
 facet normal  5.067831e-13 -1.000000e+00 -2.123249e-14
   outer loop
     vertex -3.727051e+02  2.942000e+02 -2.577030e+02
     vertex -3.742023e+02  2.942000e+02 -2.559570e+02
     vertex -3.752602e+02  2.942000e+02 -2.571129e+02
   endloop
 endfacet
 facet normal  5.094616e-13 -1.000000e+00 -9.633935e-15
   outer loop
     vertex -3.727051e+02  2.942000e+02 -2.577030e+02
     vertex -3.752602e+02  2.942000e+02 -2.571129e+02
     vertex -3.733887e+02  2.942000e+02 -2.584499e+02
   endloop
 endfacet
 facet normal  4.848162e-13 -1.000000e+00 -1.435410e-14
   outer loop
     vertex -3.734658e+02  2.942000e+02 -2.632210e+02
     vertex -3.753795e+02  2.942000e+02 -2.644968e+02
     vertex -3.743595e+02  2.942000e+02 -2.656863e+02
   endloop
 endfacet
 facet normal  4.811341e-13 -1.000000e+00 -8.830887e-15
   outer loop
     vertex -3.734658e+02  2.942000e+02 -2.632210e+02
     vertex -3.739218e+02  2.942000e+02 -2.623170e+02
     vertex -3.753795e+02  2.942000e+02 -2.644968e+02
   endloop
 endfacet
 facet normal  4.969909e-13 -1.000000e+00 -2.612311e-14
   outer loop
     vertex -3.718627e+02  2.942000e+02 -2.571413e+02
     vertex -3.728985e+02  2.942000e+02 -2.550878e+02
     vertex -3.742023e+02  2.942000e+02 -2.559570e+02
   endloop
 endfacet
 facet normal  4.938547e-13 -1.000000e+00 -3.231842e-14
   outer loop
     vertex -3.718627e+02  2.942000e+02 -2.571413e+02
     vertex -3.742023e+02  2.942000e+02 -2.559570e+02
     vertex -3.727051e+02  2.942000e+02 -2.577030e+02
   endloop
 endfacet
 facet normal  4.960073e-13 -1.000000e+00 -1.841109e-14
   outer loop
     vertex -3.728067e+02  2.942000e+02 -2.639896e+02
     vertex -3.734658e+02  2.942000e+02 -2.632210e+02
     vertex -3.743595e+02  2.942000e+02 -2.656863e+02
   endloop
 endfacet
 facet normal  5.116193e-13 -1.000000e+00 -3.269901e-14
   outer loop
     vertex -3.730845e+02  2.942000e+02 -2.665972e+02
     vertex -3.728067e+02  2.942000e+02 -2.639896e+02
     vertex -3.743595e+02  2.942000e+02 -2.656863e+02
   endloop
 endfacet
 facet normal  4.781110e-13 -1.000000e+00 -4.245974e-14
   outer loop
     vertex -3.709103e+02  2.942000e+02 -2.567976e+02
     vertex -3.714245e+02  2.942000e+02 -2.545559e+02
     vertex -3.728985e+02  2.942000e+02 -2.550878e+02
   endloop
 endfacet
 facet normal  4.884601e-13 -1.000000e+00 -3.042605e-14
   outer loop
     vertex -3.709103e+02  2.942000e+02 -2.567976e+02
     vertex -3.728985e+02  2.942000e+02 -2.550878e+02
     vertex -3.718627e+02  2.942000e+02 -2.571413e+02
   endloop
 endfacet
 facet normal  4.632855e-13 -1.000000e+00 -2.755043e-14
   outer loop
     vertex -3.719829e+02  2.942000e+02 -2.645782e+02
     vertex -3.728067e+02  2.942000e+02 -2.639896e+02
     vertex -3.730845e+02  2.942000e+02 -2.665972e+02
   endloop
 endfacet
 facet normal  5.141263e-13 -1.000000e+00 -3.302750e-14
   outer loop
     vertex -3.699033e+02  2.942000e+02 -2.566918e+02
     vertex -3.698661e+02  2.942000e+02 -2.543921e+02
     vertex -3.714245e+02  2.942000e+02 -2.545559e+02
   endloop
 endfacet
 facet normal  5.117022e-13 -1.000000e+00 -3.475388e-14
   outer loop
     vertex -3.699033e+02  2.942000e+02 -2.566918e+02
     vertex -3.714245e+02  2.942000e+02 -2.545559e+02
     vertex -3.709103e+02  2.942000e+02 -2.567976e+02
   endloop
 endfacet
 facet normal  4.906394e-13 -1.000000e+00 -4.247556e-14
   outer loop
     vertex -3.716285e+02  2.942000e+02 -2.671765e+02
     vertex -3.719829e+02  2.942000e+02 -2.645782e+02
     vertex -3.730845e+02  2.942000e+02 -2.665972e+02
   endloop
 endfacet
 facet normal  5.289719e-13 -1.000000e+00 -3.724792e-14
   outer loop
     vertex -3.710421e+02  2.942000e+02 -2.649525e+02
     vertex -3.719829e+02  2.942000e+02 -2.645782e+02
     vertex -3.716285e+02  2.942000e+02 -2.671765e+02
   endloop
 endfacet
 facet normal  4.489693e-13 -1.000000e+00 -3.197438e-14
   outer loop
     vertex -3.689003e+02  2.942000e+02 -2.568301e+02
     vertex -3.698661e+02  2.942000e+02 -2.543921e+02
     vertex -3.699033e+02  2.942000e+02 -2.566918e+02
   endloop
 endfacet
 facet normal  4.729477e-13 -1.000000e+00 -2.247484e-14
   outer loop
     vertex -3.683138e+02  2.942000e+02 -2.546061e+02
     vertex -3.698661e+02  2.942000e+02 -2.543921e+02
     vertex -3.689003e+02  2.942000e+02 -2.568301e+02
   endloop
 endfacet
 facet normal  4.729477e-13 -1.000000e+00 -2.247484e-14
   outer loop
     vertex -3.700762e+02  2.942000e+02 -2.673905e+02
     vertex -3.710421e+02  2.942000e+02 -2.649525e+02
     vertex -3.716285e+02  2.942000e+02 -2.671765e+02
   endloop
 endfacet
 facet normal  4.489693e-13 -1.000000e+00 -3.197438e-14
   outer loop
     vertex -3.700762e+02  2.942000e+02 -2.673905e+02
     vertex -3.700390e+02  2.942000e+02 -2.650908e+02
     vertex -3.710421e+02  2.942000e+02 -2.649525e+02
   endloop
 endfacet
 facet normal  5.289719e-13 -1.000000e+00 -3.724792e-14
   outer loop
     vertex -3.679595e+02  2.942000e+02 -2.572044e+02
     vertex -3.683138e+02  2.942000e+02 -2.546061e+02
     vertex -3.689003e+02  2.942000e+02 -2.568301e+02
   endloop
 endfacet
 facet normal  4.906394e-13 -1.000000e+00 -4.247556e-14
   outer loop
     vertex -3.668579e+02  2.942000e+02 -2.551854e+02
     vertex -3.683138e+02  2.942000e+02 -2.546061e+02
     vertex -3.679595e+02  2.942000e+02 -2.572044e+02
   endloop
 endfacet
 facet normal  4.632855e-13 -1.000000e+00 -2.755043e-14
   outer loop
     vertex -3.671356e+02  2.942000e+02 -2.577930e+02
     vertex -3.668579e+02  2.942000e+02 -2.551854e+02
     vertex -3.679595e+02  2.942000e+02 -2.572044e+02
   endloop
 endfacet
 facet normal  5.141263e-13 -1.000000e+00 -3.302750e-14
   outer loop
     vertex -3.685178e+02  2.942000e+02 -2.672267e+02
     vertex -3.700390e+02  2.942000e+02 -2.650908e+02
     vertex -3.700762e+02  2.942000e+02 -2.673905e+02
   endloop
 endfacet
 facet normal  5.117022e-13 -1.000000e+00 -3.475388e-14
   outer loop
     vertex -3.685178e+02  2.942000e+02 -2.672267e+02
     vertex -3.690321e+02  2.942000e+02 -2.649850e+02
     vertex -3.700390e+02  2.942000e+02 -2.650908e+02
   endloop
 endfacet
 facet normal  5.116193e-13 -1.000000e+00 -3.269901e-14
   outer loop
     vertex -3.655828e+02  2.942000e+02 -2.560963e+02
     vertex -3.668579e+02  2.942000e+02 -2.551854e+02
     vertex -3.671356e+02  2.942000e+02 -2.577930e+02
   endloop
 endfacet
 facet normal  4.781110e-13 -1.000000e+00 -4.245974e-14
   outer loop
     vertex -3.670439e+02  2.942000e+02 -2.666948e+02
     vertex -3.690321e+02  2.942000e+02 -2.649850e+02
     vertex -3.685178e+02  2.942000e+02 -2.672267e+02
   endloop
 endfacet
 facet normal  4.884601e-13 -1.000000e+00 -3.042605e-14
   outer loop
     vertex -3.670439e+02  2.942000e+02 -2.666948e+02
     vertex -3.680797e+02  2.942000e+02 -2.646413e+02
     vertex -3.690321e+02  2.942000e+02 -2.649850e+02
   endloop
 endfacet
 facet normal  4.811341e-13 -1.000000e+00 -8.830887e-15
   outer loop
     vertex -3.645628e+02  2.942000e+02 -2.572858e+02
     vertex -3.664765e+02  2.942000e+02 -2.585616e+02
     vertex -3.660205e+02  2.942000e+02 -2.594656e+02
   endloop
 endfacet
 facet normal  4.906075e-13 -1.000000e+00 -2.304132e-14
   outer loop
     vertex -3.645628e+02  2.942000e+02 -2.572858e+02
     vertex -3.671356e+02  2.942000e+02 -2.577930e+02
     vertex -3.664765e+02  2.942000e+02 -2.585616e+02
   endloop
 endfacet
 facet normal  4.883053e-13 -1.000000e+00 -1.136226e-14
   outer loop
     vertex -3.645628e+02  2.942000e+02 -2.572858e+02
     vertex -3.655828e+02  2.942000e+02 -2.560963e+02
     vertex -3.671356e+02  2.942000e+02 -2.577930e+02
   endloop
 endfacet
 facet normal  4.938547e-13 -1.000000e+00 -3.231842e-14
   outer loop
     vertex -3.657401e+02  2.942000e+02 -2.658256e+02
     vertex -3.672372e+02  2.942000e+02 -2.640796e+02
     vertex -3.680797e+02  2.942000e+02 -2.646413e+02
   endloop
 endfacet
 facet normal  4.969909e-13 -1.000000e+00 -2.612311e-14
   outer loop
     vertex -3.657401e+02  2.942000e+02 -2.658256e+02
     vertex -3.680797e+02  2.942000e+02 -2.646413e+02
     vertex -3.670439e+02  2.942000e+02 -2.666948e+02
   endloop
 endfacet
 facet normal  5.091701e-13 -1.000000e+00 -2.757992e-14
   outer loop
     vertex -3.638571e+02  2.942000e+02 -2.586849e+02
     vertex -3.645628e+02  2.942000e+02 -2.572858e+02
     vertex -3.660205e+02  2.942000e+02 -2.594656e+02
   endloop
 endfacet
 facet normal  5.067831e-13 -1.000000e+00 -2.123249e-14
   outer loop
     vertex -3.646821e+02  2.942000e+02 -2.646697e+02
     vertex -3.672372e+02  2.942000e+02 -2.640796e+02
     vertex -3.657401e+02  2.942000e+02 -2.658256e+02
   endloop
 endfacet
 facet normal  5.094616e-13 -1.000000e+00 -9.633935e-15
   outer loop
     vertex -3.646821e+02  2.942000e+02 -2.646697e+02
     vertex -3.665536e+02  2.942000e+02 -2.633327e+02
     vertex -3.672372e+02  2.942000e+02 -2.640796e+02
   endloop
 endfacet
 facet normal  5.030407e-13 -1.000000e+00 -5.740030e-14
   outer loop
     vertex -3.635067e+02  2.942000e+02 -2.602122e+02
     vertex -3.660205e+02  2.942000e+02 -2.594656e+02
     vertex -3.657942e+02  2.942000e+02 -2.604525e+02
   endloop
 endfacet
 facet normal  4.978560e-13 -1.000000e+00 -8.046770e-15
   outer loop
     vertex -3.635067e+02  2.942000e+02 -2.602122e+02
     vertex -3.657942e+02  2.942000e+02 -2.604525e+02
     vertex -3.658105e+02  2.942000e+02 -2.614649e+02
   endloop
 endfacet
 facet normal  5.106660e-13 -1.000000e+00 -3.172512e-14
   outer loop
     vertex -3.635067e+02  2.942000e+02 -2.602122e+02
     vertex -3.638571e+02  2.942000e+02 -2.586849e+02
     vertex -3.660205e+02  2.942000e+02 -2.594656e+02
   endloop
 endfacet
 facet normal  4.779538e-13 -1.000000e+00 -6.892332e-14
   outer loop
     vertex -3.639316e+02  2.942000e+02 -2.632941e+02
     vertex -3.660687e+02  2.942000e+02 -2.624439e+02
     vertex -3.665536e+02  2.942000e+02 -2.633327e+02
   endloop
 endfacet
 facet normal  4.777350e-13 -1.000000e+00 -5.404516e-14
   outer loop
     vertex -3.639316e+02  2.942000e+02 -2.632941e+02
     vertex -3.665536e+02  2.942000e+02 -2.633327e+02
     vertex -3.646821e+02  2.942000e+02 -2.646697e+02
   endloop
 endfacet
 facet normal  4.979160e-13 -1.000000e+00 -1.874853e-14
   outer loop
     vertex -3.635321e+02  2.942000e+02 -2.617790e+02
     vertex -3.660687e+02  2.942000e+02 -2.624439e+02
     vertex -3.639316e+02  2.942000e+02 -2.632941e+02
   endloop
 endfacet
 facet normal  4.969098e-13 -1.000000e+00 -1.491027e-14
   outer loop
     vertex -3.635321e+02  2.942000e+02 -2.617790e+02
     vertex -3.658105e+02  2.942000e+02 -2.614649e+02
     vertex -3.660687e+02  2.942000e+02 -2.624439e+02
   endloop
 endfacet
 facet normal  4.978560e-13 -1.000000e+00 -8.046770e-15
   outer loop
     vertex -3.635321e+02  2.942000e+02 -2.617790e+02
     vertex -3.635067e+02  2.942000e+02 -2.602122e+02
     vertex -3.658105e+02  2.942000e+02 -2.614649e+02
   endloop
 endfacet
endsolid
